<?xml version="1.0" encoding="UTF-8" standalone="no"?>
<svg
   width="120"
   height="380"
   viewBox="0 0 120 380"
   version="1.1"
   id="svg1"
   sodipodi:docname="ClockPort.svg"
   inkscape:version="1.3.2 (091e20e, 2023-11-25)"
   xmlns:inkscape="http://www.inkscape.org/namespaces/inkscape"
   xmlns:sodipodi="http://sodipodi.sourceforge.net/DTD/sodipodi-0.dtd"
   xmlns="http://www.w3.org/2000/svg"
   xmlns:svg="http://www.w3.org/2000/svg">
  <sodipodi:namedview
     id="namedview35"
     pagecolor="#ffffff"
     bordercolor="#000000"
     borderopacity="0.25"
     inkscape:showpageshadow="2"
     inkscape:pageopacity="0.0"
     inkscape:pagecheckerboard="0"
     inkscape:deskcolor="#d1d1d1"
     inkscape:zoom="2.7394737"
     inkscape:cx="60.04803"
     inkscape:cy="190"
     inkscape:window-width="1392"
     inkscape:window-height="1212"
     inkscape:window-x="1420"
     inkscape:window-y="492"
     inkscape:window-maximized="0"
     inkscape:current-layer="svg1" />
  <defs
     id="defs1">
    <style
       id="style1">
      .panel { fill: #404040; }
      .accent { fill: #292929; }
      .title { font-family: Arial, sans-serif; font-size: 14px; font-weight: bold; fill: #ff8f86; text-anchor: middle; letter-spacing: 0.8px; }
      .tiny { font-family: Arial, sans-serif; font-size: 6px; fill: #d8d8d8; text-anchor: middle; letter-spacing: 0.3px; }
      .subtle { font-family: Arial, sans-serif; font-size: 5.4px; fill: #a6a6a6; text-anchor: middle; }
      .line { stroke: #5c5c5c; stroke-width: 0.9; }
      .ghost { fill: #4a4a4a; }
    </style>
  </defs>
  <rect
     class="accent"
     x="0"
     y="378"
     width="120"
     height="2"
     id="rect3" />
  <rect
     class="panel"
     x="0"
     y="0"
     width="120"
     height="380"
     id="rect1"
     style="fill:#434343;fill-opacity:1" />
  <path
     d="m 17.554785,18.31543 1.961914,0.62207 q -0.451172,1.640625 -1.503906,2.44043 -1.045899,0.792968 -2.65918,0.792968 -1.996094,0 -3.28125,-1.360351 -1.285156,-1.367188 -1.285156,-3.732422 0,-2.501953 1.291992,-3.882812 1.291992,-1.387696 3.397461,-1.387696 1.838867,0 2.987305,1.086914 0.683594,0.642578 1.02539,1.845703 l -2.002929,0.478516 q -0.177735,-0.779297 -0.745117,-1.230469 -0.560547,-0.451172 -1.367188,-0.451172 -1.114258,0 -1.811523,0.799805 -0.69043,0.799805 -0.69043,2.59082 0,1.900391 0.683594,2.707032 0.683593,0.80664 1.777343,0.80664 0.806641,0 1.387696,-0.512695 0.581054,-0.512695 0.833984,-1.613281 z M 22.107715,22 v -9.939453 h 2.023437 v 8.250976 h 5.03125 V 22 Z m 8.886914,-4.949219 q 0,-1.53125 0.458008,-2.570312 0.341797,-0.765625 0.929688,-1.374024 0.594726,-0.608398 1.298828,-0.902343 0.936523,-0.396485 2.160156,-0.396485 2.214844,0 3.541016,1.374024 1.333007,1.374023 1.333007,3.821289 0,2.426757 -1.319336,3.800781 -1.319336,1.367187 -3.527343,1.367187 -2.235352,0 -3.554688,-1.360351 -1.319336,-1.367188 -1.319336,-3.759766 z m 2.084961,-0.06836 q 0,1.702148 0.786133,2.583984 0.786133,0.875 1.996094,0.875 1.209961,0 1.982422,-0.868164 0.779296,-0.875 0.779296,-2.618164 0,-1.722656 -0.758789,-2.570312 -0.751953,-0.847657 -2.002929,-0.847657 -1.250977,0 -2.016602,0.861329 -0.765625,0.854492 -0.765625,2.583984 z m 16.426953,1.333008 1.961914,0.62207 q -0.451172,1.640625 -1.503907,2.44043 -1.045898,0.792968 -2.659179,0.792968 -1.996094,0 -3.28125,-1.360351 -1.285157,-1.367188 -1.285157,-3.732422 0,-2.501953 1.291993,-3.882812 1.291992,-1.387696 3.397461,-1.387696 1.838867,0 2.987304,1.086914 0.683594,0.642578 1.025391,1.845703 l -2.00293,0.478516 q -0.177734,-0.779297 -0.745117,-1.230469 -0.560547,-0.451172 -1.367188,-0.451172 -1.114257,0 -1.811523,0.799805 -0.69043,0.799805 -0.69043,2.59082 0,1.900391 0.683594,2.707032 0.683594,0.80664 1.777344,0.80664 0.80664,0 1.387695,-0.512695 0.581055,-0.512695 0.833985,-1.613281 z M 54.03213,22 V 11.978516 h 2.023437 v 4.450195 l 4.087891,-4.450195 h 2.720703 L 59.090723,15.881836 63.069239,22 H 60.451075 L 57.696192,17.296875 56.055567,18.97168 V 22 Z m 15.572654,0 V 11.978516 h 3.247071 q 1.845703,0 2.40625,0.15039 0.861328,0.225586 1.442382,0.984375 0.581055,0.751953 0.581055,1.948242 0,0.922852 -0.334961,1.551758 -0.334961,0.628906 -0.854492,0.991211 -0.512695,0.355469 -1.045898,0.47168 -0.72461,0.143555 -2.098633,0.143555 H 71.628222 V 22 Z m 2.023438,-8.326172 v 2.84375 h 1.107422 q 1.196289,0 1.599609,-0.157226 0.40332,-0.157227 0.628906,-0.492188 0.232422,-0.334961 0.232422,-0.779297 0,-0.546875 -0.321289,-0.902344 -0.321289,-0.355468 -0.813476,-0.444335 -0.362305,-0.06836 -1.456055,-0.06836 z m 7.704296,3.376953 q 0,-1.53125 0.458008,-2.570312 0.341797,-0.765625 0.929687,-1.374024 0.594727,-0.608398 1.298828,-0.902343 0.936524,-0.396485 2.160157,-0.396485 2.214843,0 3.541015,1.374024 1.333008,1.374023 1.333008,3.821289 0,2.426757 -1.319336,3.800781 -1.319336,1.367187 -3.527344,1.367187 -2.235351,0 -3.554687,-1.360351 -1.319336,-1.367188 -1.319336,-3.759766 z m 2.084961,-0.06836 q 0,1.702148 0.786133,2.583984 0.786133,0.875 1.996093,0.875 1.209961,0 1.982422,-0.868164 0.779297,-0.875 0.779297,-2.618164 0,-1.722656 -0.758789,-2.570312 -0.751953,-0.847657 -2.00293,-0.847657 -1.250976,0 -2.016601,0.861329 -0.765625,0.854492 -0.765625,2.583984 z M 91.439162,22 V 11.978516 h 4.258789 q 1.606445,0 2.331054,0.273437 0.731446,0.266602 1.168946,0.957031 0.4375,0.69043 0.4375,1.579102 0,1.12793 -0.663086,1.866211 -0.663086,0.731445 -1.982422,0.922851 0.65625,0.382813 1.080078,0.840821 0.430664,0.458008 1.155273,1.626953 L 100.44893,22 h -2.419925 l -1.46289,-2.180664 Q 95.786818,18.650391 95.499709,18.349609 95.212599,18.041992 94.89131,17.932617 94.570021,17.816406 93.872755,17.816406 H 93.462599 V 22 Z m 2.023437,-5.783203 h 1.49707 q 1.456055,0 1.81836,-0.123047 0.362305,-0.123047 0.567383,-0.423828 0.205078,-0.300781 0.205078,-0.751953 0,-0.50586 -0.273438,-0.813477 -0.266601,-0.314453 -0.758789,-0.396484 -0.246094,-0.03418 -1.476562,-0.03418 H 93.462599 Z M 104.59853,22 v -8.326172 h -2.97363 v -1.695312 h 7.96387 v 1.695312 h -2.9668 V 22 Z"
     id="text3"
     class="title"
     style="font-weight:bold;font-size:14px;font-family:Arial, sans-serif;letter-spacing:0.8px;text-anchor:middle;fill:#ff8f86"
     aria-label="CLOCK PORT" />
  <path
     d="M 22.395117,34 V 30.590723 H 21.121581 V 30.13457 h 3.063868 v 0.456153 H 22.90664 V 34 Z m 2.322949,0 v -3.86543 h 1.713867 q 0.516797,0 0.785742,0.105469 0.268945,0.102832 0.429785,0.366504 0.16084,0.263672 0.16084,0.582715 0,0.411328 -0.266308,0.693457 -0.266309,0.282129 -0.822657,0.358594 0.203028,0.09756 0.308496,0.19248 0.224121,0.205664 0.424512,0.51416 L 28.124706,34 h -0.643359 l -0.511523,-0.804199 q -0.224122,-0.348047 -0.369141,-0.532617 -0.14502,-0.184571 -0.261035,-0.258399 -0.113379,-0.07383 -0.232032,-0.102832 -0.08701,-0.01846 -0.284765,-0.01846 H 25.229589 V 34 Z m 0.511523,-2.159473 h 1.099512 q 0.350683,0 0.548437,-0.07119 0.197754,-0.07383 0.300586,-0.232031 0.102832,-0.16084 0.102832,-0.348047 0,-0.274219 -0.20039,-0.450879 -0.197754,-0.17666 -0.627539,-0.17666 H 25.229589 Z M 28.185351,34 29.669824,30.13457 h 0.551074 L 31.802929,34 H 31.220214 L 30.769335,32.829297 H 29.153027 L 28.728515,34 Z m 1.115332,-1.587305 h 1.310449 l -0.403418,-1.070508 q -0.18457,-0.487793 -0.274219,-0.801562 -0.07383,0.371777 -0.2083,0.738281 z M 32.206347,34 v -3.86543 h 0.524707 l 2.030274,3.034864 V 30.13457 h 0.490429 V 34 H 34.72705 L 32.696777,30.9625 V 34 Z m 3.730957,-1.241895 0.48252,-0.04219 q 0.03428,0.290039 0.158203,0.477246 0.126562,0.18457 0.390234,0.300586 0.263672,0.113379 0.593262,0.113379 0.292676,0 0.516797,-0.08701 0.224121,-0.08701 0.332226,-0.237305 0.110742,-0.152929 0.110742,-0.332226 0,-0.181934 -0.105468,-0.316406 -0.105469,-0.13711 -0.348047,-0.229395 -0.155567,-0.06064 -0.688184,-0.187207 Q 36.846972,32.088379 36.633398,31.975 36.356542,31.82998 36.219433,31.616406 36.08496,31.400195 36.08496,31.133887 q 0,-0.292676 0.166114,-0.545801 0.166113,-0.255762 0.485156,-0.387598 0.319043,-0.131836 0.709277,-0.131836 0.429785,0 0.756738,0.139746 0.32959,0.13711 0.50625,0.406055 0.176661,0.268945 0.189844,0.609082 l -0.490429,0.03691 q -0.03955,-0.366504 -0.268946,-0.553711 -0.226758,-0.187207 -0.672363,-0.187207 -0.464063,0 -0.677637,0.171387 -0.210937,0.16875 -0.210937,0.408691 0,0.208301 0.150293,0.342774 0.147656,0.134472 0.769922,0.276855 0.624902,0.139746 0.856933,0.245215 0.3375,0.155566 0.49834,0.395508 0.16084,0.237305 0.16084,0.548437 0,0.308497 -0.17666,0.582715 -0.17666,0.271582 -0.508887,0.424512 -0.32959,0.150293 -0.743555,0.150293 -0.524707,0 -0.880664,-0.15293 -0.35332,-0.152929 -0.556347,-0.458789 -0.200391,-0.308496 -0.210938,-0.696094 z M 39.713084,34 v -3.86543 h 1.458106 q 0.384961,0 0.587988,0.03691 0.284766,0.04746 0.477246,0.181934 0.192481,0.131836 0.308496,0.371777 0.118653,0.239942 0.118653,0.527344 0,0.493066 -0.31377,0.83584 -0.313769,0.340137 -1.133789,0.340137 H 40.224608 V 34 Z m 0.511524,-2.027637 h 0.999316 q 0.495703,0 0.704004,-0.18457 0.208301,-0.18457 0.208301,-0.519434 0,-0.242578 -0.123926,-0.413965 -0.121289,-0.174023 -0.321679,-0.229394 -0.1292,-0.03428 -0.477247,-0.03428 h -0.988769 z m 2.934669,0.14502 q 0,-0.962403 0.516797,-1.505567 0.516797,-0.5458 1.33418,-0.5458 0.535254,0 0.965039,0.255761 0.429785,0.255762 0.653906,0.714551 0.226758,0.456152 0.226758,1.036231 0,0.587988 -0.237305,1.05205 -0.237305,0.464063 -0.672363,0.704004 -0.435059,0.237305 -0.938672,0.237305 -0.545801,0 -0.975586,-0.263672 -0.429785,-0.263672 -0.65127,-0.719824 -0.221484,-0.456152 -0.221484,-0.965039 z m 0.527344,0.0079 q 0,0.69873 0.374414,1.102148 0.377051,0.400782 0.943945,0.400782 0.577442,0 0.949219,-0.406055 0.374414,-0.406055 0.374414,-1.152246 0,-0.471973 -0.16084,-0.822656 -0.158203,-0.353321 -0.466699,-0.545801 -0.305859,-0.195117 -0.688184,-0.195117 -0.543164,0 -0.936035,0.374414 -0.390234,0.371777 -0.390234,1.244531 z M 47.523046,34 v -3.86543 h 1.713867 q 0.516797,0 0.785743,0.105469 0.268945,0.102832 0.429785,0.366504 0.16084,0.263672 0.16084,0.582715 0,0.411328 -0.266309,0.693457 -0.266309,0.282129 -0.822656,0.358594 0.203027,0.09756 0.308496,0.19248 0.224121,0.205664 0.424512,0.51416 L 50.929687,34 h -0.64336 l -0.511523,-0.804199 q -0.224121,-0.348047 -0.369141,-0.532617 -0.145019,-0.184571 -0.261035,-0.258399 -0.113379,-0.07383 -0.232031,-0.102832 -0.08701,-0.01846 -0.284766,-0.01846 H 48.03457 V 34 Z m 0.511524,-2.159473 h 1.099511 q 0.350684,0 0.548438,-0.07119 0.197754,-0.07383 0.300586,-0.232031 0.102832,-0.16084 0.102832,-0.348047 0,-0.274219 -0.200391,-0.450879 -0.197754,-0.17666 -0.627539,-0.17666 H 48.03457 Z M 52.300781,34 V 30.590723 H 51.027246 V 30.13457 h 3.063867 v 0.456153 H 52.812304 V 34 Z m 3.717773,0 v -3.86543 h 1.331543 q 0.450879,0 0.688184,0.05537 0.332226,0.07646 0.566894,0.276856 0.30586,0.258398 0.456152,0.661816 0.15293,0.400781 0.15293,0.917578 0,0.440332 -0.102832,0.780469 -0.102832,0.340137 -0.263672,0.564258 -0.16084,0.221484 -0.35332,0.350684 -0.189844,0.126562 -0.461426,0.19248 Q 57.764062,34 57.413378,34 Z m 0.511523,-0.456152 h 0.825293 q 0.382325,0 0.598536,-0.07119 0.218847,-0.07119 0.348046,-0.20039 0.181934,-0.181934 0.282129,-0.487793 0.102832,-0.308496 0.102832,-0.746192 0,-0.606445 -0.20039,-0.930762 -0.197754,-0.326953 -0.48252,-0.437695 -0.205664,-0.0791 -0.661816,-0.0791 h -0.81211 z M 60.005274,34 v -3.86543 h 0.511523 V 34 Z m 2.518067,0 -1.497657,-3.86543 h 0.553711 l 1.00459,2.808106 q 0.121289,0.3375 0.203028,0.632812 0.08965,-0.316406 0.2083,-0.632812 l 1.044141,-2.808106 h 0.52207 L 63.048048,34 Z m 2.583983,0 v -3.86543 h 0.511524 V 34 Z m 1.413282,0 v -3.86543 h 1.331543 q 0.450879,0 0.688184,0.05537 0.332226,0.07646 0.566894,0.276856 0.30586,0.258398 0.456153,0.661816 0.152929,0.400781 0.152929,0.917578 0,0.440332 -0.102832,0.780469 -0.102832,0.340137 -0.263671,0.564258 -0.16084,0.221484 -0.353321,0.350684 -0.189843,0.126562 -0.461426,0.19248 Q 68.266114,34 67.915431,34 Z m 0.511524,-0.456152 h 0.825293 q 0.382324,0 0.598535,-0.07119 0.218848,-0.07119 0.348047,-0.20039 0.181933,-0.181934 0.282129,-0.487793 0.102832,-0.308496 0.102832,-0.746192 0,-0.606445 -0.200391,-0.930762 -0.197754,-0.326953 -0.482519,-0.437695 -0.205664,-0.0791 -0.661817,-0.0791 H 67.03213 Z M 70.430857,34 v -3.86543 h 2.794922 v 0.456153 h -2.283398 v 1.183886 h 2.138379 v 0.453516 h -2.138379 v 1.315723 h 2.373047 V 34 Z m 3.599124,0 v -3.86543 h 1.713868 q 0.516796,0 0.785742,0.105469 0.268945,0.102832 0.429785,0.366504 0.16084,0.263672 0.16084,0.582715 0,0.411328 -0.266309,0.693457 -0.266308,0.282129 -0.822656,0.358594 0.203027,0.09756 0.308496,0.19248 0.224121,0.205664 0.424512,0.51416 L 77.436622,34 h -0.643359 l -0.511524,-0.804199 q -0.224121,-0.348047 -0.36914,-0.532617 -0.14502,-0.184571 -0.261036,-0.258399 -0.113379,-0.07383 -0.232031,-0.102832 -0.08701,-0.01846 -0.284766,-0.01846 H 74.541505 V 34 Z m 0.511524,-2.159473 h 1.099511 q 0.350684,0 0.548438,-0.07119 0.197754,-0.07383 0.300586,-0.232031 0.102832,-0.16084 0.102832,-0.348047 0,-0.274219 -0.200391,-0.450879 -0.197754,-0.17666 -0.627539,-0.17666 H 74.541505 Z M 79.406249,34 v -3.86543 h 0.769921 l 0.914942,2.736914 q 0.126562,0.382325 0.18457,0.572168 0.06592,-0.210937 0.205664,-0.619629 l 0.925489,-2.689453 h 0.688183 V 34 H 82.601952 V 30.764746 L 81.47871,34 H 81.017284 L 79.899315,30.709375 V 34 Z m 4.089553,0 1.484473,-3.86543 h 0.551074 L 87.113381,34 H 86.530666 L 86.079787,32.829297 H 84.463478 L 84.038966,34 Z m 1.115332,-1.587305 h 1.31045 l -0.403418,-1.070508 q -0.184571,-0.487793 -0.274219,-0.801562 -0.07383,0.371777 -0.208301,0.738281 z M 88.104788,34 V 30.590723 H 86.831252 V 30.13457 h 3.063868 v 0.456153 H 88.616311 V 34 Z m 2.322944,0 v -3.86543 h 1.713867 q 0.516797,0 0.785743,0.105469 0.268945,0.102832 0.429785,0.366504 0.16084,0.263672 0.16084,0.582715 0,0.411328 -0.266309,0.693457 -0.266309,0.282129 -0.822656,0.358594 0.203027,0.09756 0.308496,0.19248 0.224121,0.205664 0.424512,0.51416 L 93.834373,34 h -0.64336 L 92.67949,33.195801 q -0.224121,-0.348047 -0.369141,-0.532617 -0.145019,-0.184571 -0.261035,-0.258399 -0.113379,-0.07383 -0.232031,-0.102832 -0.08701,-0.01846 -0.284766,-0.01846 H 90.939256 V 34 Z m 0.511524,-2.159473 h 1.099511 q 0.350684,0 0.548438,-0.07119 0.197754,-0.07383 0.300586,-0.232031 0.102832,-0.16084 0.102832,-0.348047 0,-0.274219 -0.200391,-0.450879 -0.197754,-0.17666 -0.627539,-0.17666 H 90.939256 Z M 94.406545,34 v -3.86543 h 0.511524 V 34 Z m 1.020407,0 1.49502,-2.014453 -1.318359,-1.850977 h 0.609082 l 0.701367,0.991407 q 0.218847,0.308496 0.311133,0.474609 0.129199,-0.210938 0.305859,-0.440332 l 0.777832,-1.025684 h 0.556348 L 97.507324,31.956543 98.970702,34 H 98.33789 l -0.972949,-1.379004 q -0.08174,-0.118652 -0.16875,-0.258398 -0.129199,0.210937 -0.184571,0.290039 L 96.041308,34 Z"
     id="text4"
     class="subtle"
     style="font-size:5.4px;font-family:Arial, sans-serif;text-anchor:middle;fill:#a6a6a6"
     aria-label="TRANSPORT DIVIDER MATRIX" />
  <path
     d="m 38.502832,62.620117 0.536133,-0.04687 q 0.03809,0.322266 0.175781,0.530274 0.140625,0.205078 0.433594,0.333984 0.292969,0.125977 0.659179,0.125977 0.325196,0 0.574219,-0.09668 0.249024,-0.09668 0.369141,-0.263672 0.123047,-0.169922 0.123047,-0.369141 0,-0.202148 -0.117188,-0.351562 -0.117187,-0.152344 -0.386719,-0.254883 -0.172851,-0.06738 -0.764648,-0.208008 -0.591797,-0.143554 -0.829102,-0.269531 -0.307617,-0.161133 -0.45996,-0.398438 -0.149415,-0.240234 -0.149415,-0.536132 0,-0.325196 0.184571,-0.606446 0.18457,-0.284179 0.539062,-0.430664 0.354492,-0.146484 0.788086,-0.146484 0.477539,0 0.840821,0.155273 0.36621,0.152344 0.5625,0.451172 0.196289,0.298828 0.210937,0.676758 l -0.544922,0.04102 q -0.04395,-0.407227 -0.298828,-0.615235 -0.251953,-0.208008 -0.74707,-0.208008 -0.515625,0 -0.75293,0.19043 -0.234375,0.1875 -0.234375,0.454102 0,0.231445 0.166992,0.380859 0.164063,0.149414 0.855469,0.307617 0.694336,0.155274 0.952148,0.272461 0.375,0.172852 0.553711,0.439453 0.178711,0.263672 0.178711,0.609375 0,0.342774 -0.196289,0.647461 -0.196289,0.301758 -0.565429,0.47168 -0.366211,0.166992 -0.826172,0.166992 -0.583008,0 -0.978516,-0.169922 -0.392578,-0.169922 -0.618164,-0.509765 -0.222656,-0.342774 -0.234375,-0.773438 z M 44.090918,64 v -3.788086 h -1.415039 v -0.506836 h 3.404297 v 0.506836 H 44.659277 V 64 Z m 1.955273,0 1.649414,-4.294922 H 48.30791 L 50.065722,64 h -0.64746 L 48.917285,62.699219 H 47.121387 L 46.649707,64 Z m 1.239258,-1.763672 h 1.456055 l -0.448242,-1.189453 q -0.205079,-0.541992 -0.304688,-0.890625 -0.08203,0.413086 -0.231445,0.820312 z M 50.828613,64 v -4.294922 h 1.904297 q 0.574218,0 0.873047,0.117188 0.298828,0.114257 0.477539,0.407226 0.178711,0.292969 0.178711,0.647461 0,0.457031 -0.295899,0.770508 -0.295898,0.313476 -0.914062,0.398437 0.225586,0.108399 0.342773,0.213868 0.249024,0.228515 0.47168,0.571289 L 54.613769,64 h -0.714844 l -0.568359,-0.893555 q -0.249023,-0.386718 -0.410156,-0.591797 -0.161133,-0.205078 -0.290039,-0.287109 -0.125977,-0.08203 -0.257813,-0.114258 -0.09668,-0.02051 -0.316406,-0.02051 h -0.65918 V 64 Z m 0.568359,-2.399414 h 1.22168 q 0.389648,0 0.609375,-0.0791 0.219726,-0.08203 0.333984,-0.257812 0.114258,-0.178711 0.114258,-0.386719 0,-0.304687 -0.222656,-0.500976 -0.219727,-0.19629 -0.697266,-0.19629 H 51.396972 Z M 56.437208,64 v -3.788086 h -1.415039 v -0.506836 h 3.404297 v 0.506836 H 57.005567 V 64 Z m 4.267967,0.07324 1.245117,-4.441406 h 0.421875 l -1.242187,4.441406 z m 4.203516,-1.453125 0.536133,-0.04687 q 0.03809,0.322266 0.175781,0.530274 0.140625,0.205078 0.433594,0.333984 0.292969,0.125977 0.659179,0.125977 0.325196,0 0.574219,-0.09668 0.249024,-0.09668 0.369141,-0.263672 0.123047,-0.169922 0.123047,-0.369141 0,-0.202148 -0.117188,-0.351562 Q 67.54541,62.330078 67.275878,62.227539 67.103027,62.160156 66.51123,62.019531 65.919433,61.875977 65.682128,61.75 q -0.307617,-0.161133 -0.45996,-0.398438 -0.149415,-0.240234 -0.149415,-0.536132 0,-0.325196 0.184571,-0.606446 0.18457,-0.284179 0.539062,-0.430664 0.354492,-0.146484 0.788086,-0.146484 0.477539,0 0.840821,0.155273 0.36621,0.152344 0.5625,0.451172 0.196289,0.298828 0.210937,0.676758 l -0.544922,0.04102 q -0.04394,-0.407227 -0.298828,-0.615235 -0.251953,-0.208008 -0.74707,-0.208008 -0.515625,0 -0.75293,0.19043 -0.234375,0.1875 -0.234375,0.454102 0,0.231445 0.166992,0.380859 0.164063,0.149414 0.855469,0.307617 0.694336,0.155274 0.952148,0.272461 0.375,0.172852 0.553711,0.439453 0.178711,0.263672 0.178711,0.609375 0,0.342774 -0.196289,0.647461 -0.196289,0.301758 -0.565429,0.47168 -0.366211,0.166992 -0.826172,0.166992 -0.583008,0 -0.978516,-0.169922 -0.392578,-0.169922 -0.618164,-0.509765 -0.222656,-0.342774 -0.234375,-0.773438 z M 70.496778,64 v -3.788086 h -1.415039 v -0.506836 h 3.404297 v 0.506836 H 71.065137 V 64 Z m 2.591015,-2.091797 q 0,-1.069336 0.574219,-1.672851 0.574218,-0.606446 1.482422,-0.606446 0.594726,0 1.072265,0.28418 0.477539,0.28418 0.726563,0.793945 0.251953,0.506836 0.251953,1.151367 0,0.653321 -0.263672,1.168946 -0.263672,0.515625 -0.74707,0.782226 -0.483399,0.263672 -1.042969,0.263672 -0.606445,0 -1.083985,-0.292969 -0.477539,-0.292968 -0.723632,-0.799804 -0.246094,-0.506836 -0.246094,-1.072266 z m 0.585937,0.0088 q 0,0.776367 0.416016,1.22461 0.418945,0.445312 1.048828,0.445312 0.641602,0 1.054688,-0.451172 0.416015,-0.451172 0.416015,-1.280273 0,-0.524414 -0.178711,-0.914063 -0.175781,-0.392578 -0.518554,-0.606445 -0.339844,-0.216797 -0.764649,-0.216797 -0.603515,0 -1.040039,0.416016 -0.433594,0.413086 -0.433594,1.382812 z M 78.227636,64 v -4.294922 h 1.620117 q 0.427734,0 0.65332,0.04102 0.316407,0.05273 0.530274,0.202148 0.213867,0.146485 0.342773,0.413086 0.131836,0.266602 0.131836,0.585938 0,0.547851 -0.348633,0.928711 -0.348632,0.377929 -1.259765,0.377929 H 78.795995 V 64 Z m 0.568359,-2.25293 h 1.110352 q 0.550781,0 0.782226,-0.205078 0.231446,-0.205078 0.231446,-0.577148 0,-0.269532 -0.137696,-0.459961 -0.134765,-0.19336 -0.357421,-0.254883 -0.143555,-0.03809 -0.530274,-0.03809 h -1.098633 z"
     id="text6"
     class="tiny"
     style="font-size:6px;font-family:Arial, sans-serif;letter-spacing:0.3px;text-anchor:middle;fill:#d8d8d8"
     aria-label="START / STOP" />
  <path
     d="m 22.359961,122 v -4.29492 h 1.479492 q 0.500977,0 0.764649,0.0615 0.36914,0.085 0.629882,0.30762 0.339844,0.28711 0.506836,0.73535 0.169922,0.44531 0.169922,1.01953 0,0.48926 -0.114258,0.86719 -0.114257,0.37793 -0.292968,0.62695 -0.178711,0.2461 -0.392579,0.38965 Q 24.9,121.85352 24.598242,121.92676 24.299414,122 23.909766,122 Z m 0.568359,-0.50684 h 0.916992 q 0.424805,0 0.66504,-0.0791 0.243164,-0.0791 0.386718,-0.22265 0.202149,-0.20215 0.313477,-0.542 0.114258,-0.34277 0.114258,-0.8291 0,-0.67383 -0.222657,-1.03418 -0.219726,-0.36328 -0.536132,-0.48633 -0.228516,-0.0879 -0.735352,-0.0879 H 22.92832 Z M 27.089649,122 v -4.29492 h 0.568359 V 122 Z m 3.097851,0 -1.664063,-4.29492 h 0.615235 l 1.116211,3.12012 q 0.134765,0.375 0.225586,0.70312 0.09961,-0.35156 0.231445,-0.70312 l 1.160156,-3.12012 h 0.580078 L 30.770508,122 Z m 6.813867,0 h -0.527344 v -3.36035 q -0.190429,0.18164 -0.500976,0.36328 -0.307618,0.18164 -0.553711,0.27246 v -0.50976 q 0.442383,-0.20801 0.773437,-0.50391 0.331055,-0.2959 0.46875,-0.57422 h 0.339844 z"
     id="text7"
     class="tiny"
     style="font-size:6px;font-family:Arial, sans-serif;letter-spacing:0.3px;text-anchor:middle;fill:#d8d8d8"
     aria-label="DIV 1" />
  <path
     d="m 52.359961,122 v -4.29492 h 1.479492 q 0.500977,0 0.764649,0.0615 0.36914,0.085 0.629882,0.30762 0.339844,0.28711 0.506836,0.73535 0.169922,0.44531 0.169922,1.01953 0,0.48926 -0.114258,0.86719 -0.114257,0.37793 -0.292968,0.62695 -0.178711,0.2461 -0.392579,0.38965 Q 54.9,121.85352 54.598242,121.92676 54.299414,122 53.909766,122 Z m 0.568359,-0.50684 h 0.916992 q 0.424805,0 0.66504,-0.0791 0.243164,-0.0791 0.386718,-0.22265 0.202149,-0.20215 0.313477,-0.542 0.114258,-0.34277 0.114258,-0.8291 0,-0.67383 -0.222657,-1.03418 -0.219726,-0.36328 -0.536132,-0.48633 -0.228516,-0.0879 -0.735352,-0.0879 H 52.92832 Z M 57.089649,122 v -4.29492 h 0.568359 V 122 Z m 3.097851,0 -1.664063,-4.29492 h 0.615235 l 1.116211,3.12012 q 0.134765,0.375 0.225586,0.70312 0.09961,-0.35156 0.231445,-0.70312 l 1.160156,-3.12012 h 0.580078 L 60.770508,122 Z m 7.599023,-0.50684 V 122 h -2.838867 q -0.0059,-0.19043 0.06152,-0.36621 0.108399,-0.29004 0.345704,-0.57129 0.240234,-0.28125 0.691406,-0.65039 0.700195,-0.57422 0.946289,-0.9082 0.246094,-0.33692 0.246094,-0.63575 0,-0.31347 -0.225586,-0.52734 -0.222657,-0.2168 -0.583008,-0.2168 -0.380859,0 -0.609375,0.22852 -0.228516,0.22851 -0.231445,0.63281 l -0.541993,-0.0557 q 0.05566,-0.60645 0.418946,-0.92285 0.363281,-0.31934 0.975586,-0.31934 0.618164,0 0.978515,0.34277 0.360352,0.34278 0.360352,0.84961 0,0.25782 -0.105469,0.50684 -0.105469,0.24902 -0.351562,0.52441 -0.243164,0.27539 -0.811524,0.75586 -0.474609,0.39844 -0.609375,0.54199 -0.134765,0.14063 -0.222656,0.28418 z"
     id="text8"
     class="tiny"
     style="font-size:6px;font-family:Arial, sans-serif;letter-spacing:0.3px;text-anchor:middle;fill:#d8d8d8"
     aria-label="DIV 2" />
  <path
     d="m 80.288672,122 v -3.78809 h -1.415039 v -0.50683 h 3.404297 v 0.50683 H 80.857031 V 122 Z m 2.883984,0 v -4.29492 h 3.105469 v 0.50683 h -2.537109 v 1.31543 h 2.375976 v 0.50391 h -2.375976 v 1.46191 h 2.636718 V 122 Z m 4.272657,0 v -4.29492 h 0.855469 l 1.016601,3.04101 q 0.140625,0.42481 0.205078,0.63575 0.07324,-0.23438 0.228516,-0.68848 l 1.02832,-2.98828 h 0.764649 V 122 h -0.547852 v -3.59473 L 89.748047,122 h -0.512695 l -1.242188,-3.65625 V 122 Z m 5.315624,0 v -4.29492 h 1.620117 q 0.427735,0 0.653321,0.041 0.316406,0.0527 0.530273,0.20215 0.213867,0.14649 0.342773,0.41309 0.131836,0.2666 0.131836,0.58594 0,0.54785 -0.348632,0.92871 -0.348633,0.37793 -1.259766,0.37793 H 93.329296 V 122 Z m 0.568359,-2.25293 h 1.110352 q 0.550781,0 0.782227,-0.20508 0.231445,-0.20508 0.231445,-0.57715 0,-0.26953 -0.137695,-0.45996 -0.134766,-0.19336 -0.357422,-0.25488 -0.143555,-0.0381 -0.530274,-0.0381 h -1.098633 z m 3.560744,0.16113 q 0,-1.06933 0.574219,-1.67285 0.574218,-0.60644 1.482421,-0.60644 0.594727,0 1.07227,0.28418 0.47754,0.28418 0.72656,0.79394 0.25195,0.50684 0.25195,1.15137 0,0.65332 -0.26367,1.16894 -0.26367,0.51563 -0.747071,0.78223 -0.483398,0.26367 -1.042968,0.26367 -0.606446,0 -1.083985,-0.29297 -0.477539,-0.29297 -0.723632,-0.7998 -0.246094,-0.50684 -0.246094,-1.07227 z m 0.585937,0.009 q 0,0.77637 0.416016,1.22461 0.418945,0.44531 1.048828,0.44531 0.641602,0 1.054688,-0.45117 0.416011,-0.45117 0.416011,-1.28027 0,-0.52442 -0.17871,-0.91406 -0.17578,-0.39258 -0.518551,-0.60645 -0.339844,-0.2168 -0.764649,-0.2168 -0.603516,0 -1.040039,0.41602 -0.433594,0.41309 -0.433594,1.38281 z"
     id="text9"
     class="tiny"
     style="font-size:6px;font-family:Arial, sans-serif;letter-spacing:0.3px;text-anchor:middle;fill:#d8d8d8"
     aria-label="TEMPO" />
  <path
     d="m 22.359961,182 v -4.29492 h 1.479492 q 0.500977,0 0.764649,0.0615 0.36914,0.085 0.629882,0.30762 0.339844,0.28711 0.506836,0.73535 0.169922,0.44531 0.169922,1.01953 0,0.48926 -0.114258,0.86719 -0.114257,0.37793 -0.292968,0.62695 -0.178711,0.2461 -0.392579,0.38965 Q 24.9,181.85352 24.598242,181.92676 24.299414,182 23.909766,182 Z m 0.568359,-0.50684 h 0.916992 q 0.424805,0 0.66504,-0.0791 0.243164,-0.0791 0.386718,-0.22265 0.202149,-0.20215 0.313477,-0.542 0.114258,-0.34277 0.114258,-0.8291 0,-0.67383 -0.222657,-1.03418 -0.219726,-0.36328 -0.536132,-0.48633 -0.228516,-0.0879 -0.735352,-0.0879 H 22.92832 Z M 27.089649,182 v -4.29492 h 0.568359 V 182 Z m 3.097851,0 -1.664063,-4.29492 h 0.615235 l 1.116211,3.12012 q 0.134765,0.375 0.225586,0.70312 0.09961,-0.35156 0.231445,-0.70312 l 1.160156,-3.12012 h 0.580078 L 30.770508,182 Z m 4.830469,-1.13379 0.527343,-0.0703 q 0.09082,0.44824 0.307617,0.64746 0.219727,0.19629 0.533204,0.19629 0.37207,0 0.626953,-0.25781 0.257812,-0.25782 0.257812,-0.63868 0,-0.36328 -0.237304,-0.59765 -0.237305,-0.23731 -0.603516,-0.23731 -0.149414,0 -0.37207,0.0586 l 0.05859,-0.46289 q 0.05273,0.006 0.08496,0.006 0.336914,0 0.606446,-0.17579 0.269531,-0.17578 0.269531,-0.54199 0,-0.29004 -0.196289,-0.48047 -0.196289,-0.19043 -0.506836,-0.19043 -0.307617,0 -0.512695,0.19336 -0.205079,0.19336 -0.263672,0.58008 l -0.527344,-0.0937 q 0.09668,-0.53027 0.439453,-0.82031 0.342773,-0.29297 0.852539,-0.29297 0.351563,0 0.647461,0.15234 0.295898,0.14942 0.451172,0.41016 0.158203,0.26074 0.158203,0.55371 0,0.27832 -0.149414,0.50684 -0.149414,0.22851 -0.442383,0.36328 0.38086,0.0879 0.591797,0.36621 0.210938,0.27539 0.210938,0.69141 0,0.5625 -0.410157,0.95507 -0.410156,0.38965 -1.037109,0.38965 -0.56543,0 -0.94043,-0.33691 -0.37207,-0.33692 -0.424804,-0.87305 z"
     id="text10"
     class="tiny"
     style="font-size:6px;font-family:Arial, sans-serif;letter-spacing:0.3px;text-anchor:middle;fill:#d8d8d8"
     aria-label="DIV 3" />
  <path
     d="m 52.359961,182 v -4.29492 h 1.479492 q 0.500977,0 0.764649,0.0615 0.36914,0.085 0.629882,0.30762 0.339844,0.28711 0.506836,0.73535 0.169922,0.44531 0.169922,1.01953 0,0.48926 -0.114258,0.86719 -0.114257,0.37793 -0.292968,0.62695 -0.178711,0.2461 -0.392579,0.38965 Q 54.9,181.85352 54.598242,181.92676 54.299414,182 53.909766,182 Z m 0.568359,-0.50684 h 0.916992 q 0.424805,0 0.66504,-0.0791 0.243164,-0.0791 0.386718,-0.22265 0.202149,-0.20215 0.313477,-0.542 0.114258,-0.34277 0.114258,-0.8291 0,-0.67383 -0.222657,-1.03418 -0.219726,-0.36328 -0.536132,-0.48633 -0.228516,-0.0879 -0.735352,-0.0879 H 52.92832 Z M 57.089649,182 v -4.29492 h 0.568359 V 182 Z m 3.097851,0 -1.664063,-4.29492 h 0.615235 l 1.116211,3.12012 q 0.134765,0.375 0.225586,0.70312 0.09961,-0.35156 0.231445,-0.70312 l 1.160156,-3.12012 h 0.580078 L 60.770508,182 Z m 6.517969,0 v -1.02832 h -1.863282 v -0.4834 l 1.959961,-2.7832 h 0.430664 v 2.7832 h 0.580078 v 0.4834 H 67.232812 V 182 Z m 0,-1.51172 v -1.93652 l -1.344727,1.93652 z"
     id="text11"
     class="tiny"
     style="font-size:6px;font-family:Arial, sans-serif;letter-spacing:0.3px;text-anchor:middle;fill:#d8d8d8"
     aria-label="DIV 4" />
  <path
     d="m 82.359961,182 v -4.29492 h 1.479492 q 0.500977,0 0.764649,0.0615 0.36914,0.085 0.629882,0.30762 0.339844,0.28711 0.506836,0.73535 0.169922,0.44531 0.169922,1.01953 0,0.48926 -0.114258,0.86719 -0.114257,0.37793 -0.292968,0.62695 -0.178711,0.2461 -0.392579,0.38965 Q 84.9,181.85352 84.598242,181.92676 84.299414,182 83.909766,182 Z m 0.568359,-0.50684 h 0.916992 q 0.424805,0 0.66504,-0.0791 0.243164,-0.0791 0.386718,-0.22265 0.202149,-0.20215 0.313477,-0.542 0.114258,-0.34277 0.114258,-0.8291 0,-0.67383 -0.222657,-1.03418 -0.219726,-0.36328 -0.536132,-0.48633 -0.228516,-0.0879 -0.735352,-0.0879 H 82.92832 Z M 87.089649,182 v -4.29492 h 0.568359 V 182 Z m 3.097851,0 -1.664063,-4.29492 h 0.615235 l 1.116211,3.12012 q 0.134765,0.375 0.225586,0.70312 0.09961,-0.35156 0.231445,-0.70312 l 1.160156,-3.12012 h 0.580078 L 90.770508,182 Z m 4.827539,-1.125 0.553711,-0.0469 q 0.06152,0.4043 0.284179,0.60938 0.225586,0.20215 0.541993,0.20215 0.380859,0 0.644531,-0.28711 0.263672,-0.28711 0.263672,-0.76172 0,-0.45117 -0.254883,-0.71191 -0.251953,-0.26075 -0.662109,-0.26075 -0.254883,0 -0.459961,0.11719 -0.205078,0.11426 -0.322266,0.29883 l -0.495117,-0.0644 0.416015,-2.20606 h 2.135743 v 0.50391 h -1.713868 l -0.231445,1.15429 q 0.386719,-0.26953 0.811524,-0.26953 0.5625,0 0.949218,0.38965 0.386719,0.38965 0.386719,1.00196 0,0.583 -0.339844,1.00781 -0.413086,0.52148 -1.127929,0.52148 -0.585938,0 -0.958008,-0.32812 -0.369141,-0.32813 -0.421875,-0.87012 z"
     id="text12"
     class="tiny"
     style="font-size:6px;font-family:Arial, sans-serif;letter-spacing:0.3px;text-anchor:middle;fill:#d8d8d8"
     aria-label="DIV 5" />
  <path
     d="m 22.359961,242 v -4.29492 h 1.479492 q 0.500977,0 0.764649,0.0615 0.36914,0.085 0.629882,0.30762 0.339844,0.28711 0.506836,0.73535 0.169922,0.44531 0.169922,1.01953 0,0.48926 -0.114258,0.86719 -0.114257,0.37793 -0.292968,0.62695 -0.178711,0.2461 -0.392579,0.38965 Q 24.9,241.85352 24.598242,241.92676 24.299414,242 23.909766,242 Z m 0.568359,-0.50684 h 0.916992 q 0.424805,0 0.66504,-0.0791 0.243164,-0.0791 0.386718,-0.22265 0.202149,-0.20215 0.313477,-0.542 0.114258,-0.34277 0.114258,-0.8291 0,-0.67383 -0.222657,-1.03418 -0.219726,-0.36328 -0.536132,-0.48633 -0.228516,-0.0879 -0.735352,-0.0879 H 22.92832 Z M 27.089649,242 v -4.29492 h 0.568359 V 242 Z m 3.097851,0 -1.664063,-4.29492 h 0.615235 l 1.116211,3.12012 q 0.134765,0.375 0.225586,0.70312 0.09961,-0.35156 0.231445,-0.70312 l 1.160156,-3.12012 h 0.580078 L 30.770508,242 Z m 7.563867,-3.24316 -0.524414,0.041 q -0.07031,-0.31055 -0.199219,-0.45117 -0.213867,-0.22559 -0.527344,-0.22559 -0.251953,0 -0.442382,0.14063 -0.249024,0.18164 -0.392579,0.53027 -0.143554,0.34863 -0.149414,0.99317 0.19043,-0.29004 0.465821,-0.43067 0.27539,-0.14062 0.577148,-0.14062 0.527344,0 0.896485,0.38965 0.37207,0.38671 0.37207,1.00195 0,0.4043 -0.175781,0.75293 -0.172852,0.3457 -0.477539,0.53027 -0.304688,0.18457 -0.691407,0.18457 -0.659179,0 -1.075195,-0.4834 -0.416016,-0.48632 -0.416016,-1.59961 0,-1.24511 0.459961,-1.81054 0.401367,-0.49219 1.081055,-0.49219 0.506836,0 0.829102,0.28418 0.325195,0.28418 0.389648,0.78516 z m -2.15332,1.85156 q 0,0.27246 0.114257,0.52148 0.117188,0.24903 0.325196,0.38086 0.208008,0.12891 0.436523,0.12891 0.333985,0 0.574219,-0.26953 0.240234,-0.26953 0.240234,-0.73242 0,-0.44532 -0.237304,-0.7002 -0.237305,-0.25781 -0.597657,-0.25781 -0.357421,0 -0.606445,0.25781 -0.249023,0.25488 -0.249023,0.6709 z"
     id="text13"
     class="tiny"
     style="font-size:6px;font-family:Arial, sans-serif;letter-spacing:0.3px;text-anchor:middle;fill:#d8d8d8"
     aria-label="DIV 6" />
  <path
     d="m 52.359961,242 v -4.29492 h 1.479492 q 0.500977,0 0.764649,0.0615 0.36914,0.085 0.629882,0.30762 0.339844,0.28711 0.506836,0.73535 0.169922,0.44531 0.169922,1.01953 0,0.48926 -0.114258,0.86719 -0.114257,0.37793 -0.292968,0.62695 -0.178711,0.2461 -0.392579,0.38965 Q 54.9,241.85352 54.598242,241.92676 54.299414,242 53.909766,242 Z m 0.568359,-0.50684 h 0.916992 q 0.424805,0 0.66504,-0.0791 0.243164,-0.0791 0.386718,-0.22265 0.202149,-0.20215 0.313477,-0.542 0.114258,-0.34277 0.114258,-0.8291 0,-0.67383 -0.222657,-1.03418 -0.219726,-0.36328 -0.536132,-0.48633 -0.228516,-0.0879 -0.735352,-0.0879 H 52.92832 Z M 57.089649,242 v -4.29492 h 0.568359 V 242 Z m 3.097851,0 -1.664063,-4.29492 h 0.615235 l 1.116211,3.12012 q 0.134765,0.375 0.225586,0.70312 0.09961,-0.35156 0.231445,-0.70312 l 1.160156,-3.12012 h 0.580078 L 60.770508,242 Z m 4.862695,-3.73242 v -0.50684 h 2.780274 v 0.41016 q -0.410157,0.43652 -0.814454,1.16015 -0.401367,0.72364 -0.621093,1.48829 Q 66.236719,241.3584 66.192773,242 h -0.541992 q 0.0088,-0.50684 0.199219,-1.22461 0.190429,-0.71777 0.544922,-1.38281 0.357422,-0.66797 0.758789,-1.125 z"
     id="text14"
     class="tiny"
     style="font-size:6px;font-family:Arial, sans-serif;letter-spacing:0.3px;text-anchor:middle;fill:#d8d8d8"
     aria-label="DIV 7" />
  <path
     d="m 82.359961,242 v -4.29492 h 1.479492 q 0.500977,0 0.764649,0.0615 0.36914,0.085 0.629882,0.30762 0.339844,0.28711 0.506836,0.73535 0.169922,0.44531 0.169922,1.01953 0,0.48926 -0.114258,0.86719 -0.114257,0.37793 -0.292968,0.62695 -0.178711,0.2461 -0.392579,0.38965 Q 84.9,241.85352 84.598242,241.92676 84.299414,242 83.909766,242 Z m 0.568359,-0.50684 h 0.916992 q 0.424805,0 0.66504,-0.0791 0.243164,-0.0791 0.386718,-0.22265 0.202149,-0.20215 0.313477,-0.542 0.114258,-0.34277 0.114258,-0.8291 0,-0.67383 -0.222657,-1.03418 -0.219726,-0.36328 -0.536132,-0.48633 -0.228516,-0.0879 -0.735352,-0.0879 H 82.92832 Z M 87.089649,242 v -4.29492 h 0.568359 V 242 Z m 3.097851,0 -1.664063,-4.29492 h 0.615235 l 1.116211,3.12012 q 0.134765,0.375 0.225586,0.70312 0.09961,-0.35156 0.231445,-0.70312 l 1.160156,-3.12012 h 0.580078 L 90.770508,242 Z m 5.639062,-2.3291 q -0.328125,-0.12012 -0.486328,-0.34278 -0.158203,-0.22265 -0.158203,-0.5332 0,-0.46875 0.336914,-0.78808 0.336914,-0.31934 0.896484,-0.31934 0.5625,0 0.905274,0.32812 0.342773,0.3252 0.342773,0.79395 0,0.29883 -0.158203,0.52148 -0.155273,0.21973 -0.474609,0.33985 0.395508,0.1289 0.600586,0.41601 0.208008,0.28711 0.208008,0.68555 0,0.55078 -0.389649,0.92578 -0.389648,0.375 -1.02539,0.375 -0.635743,0 -1.025391,-0.375 -0.389649,-0.37793 -0.389649,-0.94043 0,-0.41894 0.210938,-0.70019 0.213867,-0.28418 0.606445,-0.38672 z m -0.105468,-0.89356 q 0,0.30469 0.196289,0.49805 0.196289,0.19336 0.509765,0.19336 0.304688,0 0.498047,-0.19043 0.196289,-0.19336 0.196289,-0.47168 0,-0.29004 -0.202148,-0.48633 -0.199219,-0.19922 -0.498047,-0.19922 -0.301758,0 -0.500977,0.19336 -0.199218,0.19336 -0.199218,0.46289 z m -0.169922,1.9834 q 0,0.22559 0.105468,0.43653 0.108399,0.21093 0.319336,0.32812 0.210938,0.11426 0.454102,0.11426 0.37793,0 0.624023,-0.24317 0.246094,-0.24316 0.246094,-0.61816 0,-0.38086 -0.254883,-0.62988 -0.251953,-0.24903 -0.632812,-0.24903 -0.372071,0 -0.618164,0.2461 -0.243164,0.24609 -0.243164,0.61523 z"
     id="text15"
     class="tiny"
     style="font-size:6px;font-family:Arial, sans-serif;letter-spacing:0.3px;text-anchor:middle;fill:#d8d8d8"
     aria-label="DIV 8" />
  <text
     class="tiny"
     x="20"
     y="318"
     id="text16">RESET</text>
  <path
     d="m 30.909766,315.9082 q 0,-1.06933 0.574218,-1.67285 0.574219,-0.60644 1.482422,-0.60644 0.594727,0 1.072266,0.28418 0.477539,0.28418 0.726562,0.79394 0.251953,0.50684 0.251953,1.15137 0,0.65332 -0.263671,1.16894 -0.263672,0.51563 -0.747071,0.78223 -0.483398,0.26367 -1.042968,0.26367 -0.606446,0 -1.083985,-0.29297 -0.477539,-0.29297 -0.723633,-0.7998 -0.246093,-0.50684 -0.246093,-1.07227 z m 0.585937,0.009 q 0,0.77637 0.416016,1.22461 0.418945,0.44531 1.048828,0.44531 0.641601,0 1.054687,-0.45117 0.416016,-0.45117 0.416016,-1.28027 0,-0.52442 -0.178711,-0.91406 -0.175781,-0.39258 -0.518555,-0.60645 -0.339843,-0.2168 -0.764648,-0.2168 -0.603516,0 -1.040039,0.41602 -0.433594,0.41309 -0.433594,1.38281 z m 7.372266,-2.21191 h 0.568359 v 2.48144 q 0,0.64746 -0.146484,1.02832 -0.146484,0.38086 -0.530274,0.6211 -0.380859,0.2373 -1.001953,0.2373 -0.603515,0 -0.987304,-0.20801 -0.383789,-0.208 -0.547852,-0.60058 -0.164062,-0.39551 -0.164062,-1.07813 v -2.48144 h 0.568359 v 2.47851 q 0,0.55957 0.102539,0.82618 0.105469,0.26367 0.357422,0.40722 0.254883,0.14356 0.621094,0.14356 0.626953,0 0.893554,-0.28418 0.266602,-0.28418 0.266602,-1.09278 z M 41.775391,318 v -3.78809 h -1.415039 v -0.50683 h 3.404297 v 0.50683 H 42.34375 V 318 Z m 7.288476,-0.50684 V 318 H 46.225 q -0.0059,-0.19043 0.06152,-0.36621 0.108399,-0.29004 0.345703,-0.57129 0.240235,-0.28125 0.691407,-0.65039 0.700195,-0.57422 0.946289,-0.9082 0.246093,-0.33692 0.246093,-0.63575 0,-0.31347 -0.225586,-0.52734 -0.222656,-0.2168 -0.583007,-0.2168 -0.38086,0 -0.609375,0.22852 -0.228516,0.22851 -0.231446,0.63281 l -0.541992,-0.0557 q 0.05566,-0.60645 0.418945,-0.92285 0.363282,-0.31934 0.975586,-0.31934 0.618164,0 0.978516,0.34277 0.360352,0.34278 0.360352,0.84961 0,0.25782 -0.105469,0.50684 -0.105469,0.24902 -0.351563,0.52441 -0.243164,0.27539 -0.811523,0.75586 -0.474609,0.39844 -0.609375,0.54199 -0.134766,0.14063 -0.222656,0.28418 z"
     id="text17"
     class="tiny"
     style="font-size:6px;font-family:Arial, sans-serif;letter-spacing:0.3px;text-anchor:middle;fill:#d8d8d8"
     aria-label="OUT 2" />
  <path
     d="m 50.909766,315.9082 q 0,-1.06933 0.574218,-1.67285 0.574219,-0.60644 1.482422,-0.60644 0.594727,0 1.072266,0.28418 0.477539,0.28418 0.726562,0.79394 0.251953,0.50684 0.251953,1.15137 0,0.65332 -0.263671,1.16894 -0.263672,0.51563 -0.747071,0.78223 -0.483398,0.26367 -1.042968,0.26367 -0.606446,0 -1.083985,-0.29297 -0.477539,-0.29297 -0.723633,-0.7998 -0.246093,-0.50684 -0.246093,-1.07227 z m 0.585937,0.009 q 0,0.77637 0.416016,1.22461 0.418945,0.44531 1.048828,0.44531 0.641601,0 1.054687,-0.45117 0.416016,-0.45117 0.416016,-1.28027 0,-0.52442 -0.178711,-0.91406 -0.175781,-0.39258 -0.518555,-0.60645 -0.339843,-0.2168 -0.764648,-0.2168 -0.603516,0 -1.040039,0.41602 -0.433594,0.41309 -0.433594,1.38281 z m 7.372266,-2.21191 h 0.568359 v 2.48144 q 0,0.64746 -0.146484,1.02832 -0.146484,0.38086 -0.530274,0.6211 -0.380859,0.2373 -1.001953,0.2373 -0.603515,0 -0.987304,-0.20801 -0.383789,-0.208 -0.547852,-0.60058 -0.164062,-0.39551 -0.164062,-1.07813 v -2.48144 h 0.568359 v 2.47851 q 0,0.55957 0.102539,0.82618 0.105469,0.26367 0.357422,0.40722 0.254883,0.14356 0.621094,0.14356 0.626953,0 0.893554,-0.28418 0.266602,-0.28418 0.266602,-1.09278 z M 61.775391,318 v -3.78809 h -1.415039 v -0.50683 h 3.404297 v 0.50683 H 62.34375 V 318 Z m 4.519921,-1.13379 0.527344,-0.0703 q 0.09082,0.44824 0.307617,0.64746 0.219727,0.19629 0.533203,0.19629 0.372071,0 0.626953,-0.25781 0.257813,-0.25782 0.257813,-0.63868 0,-0.36328 -0.237305,-0.59765 -0.237304,-0.23731 -0.603515,-0.23731 -0.149414,0 -0.372071,0.0586 l 0.05859,-0.46289 q 0.05273,0.006 0.08496,0.006 0.336914,0 0.606445,-0.17579 0.269532,-0.17578 0.269532,-0.54199 0,-0.29004 -0.196289,-0.48047 -0.19629,-0.19043 -0.506836,-0.19043 -0.307618,0 -0.512696,0.19336 -0.205078,0.19336 -0.263672,0.58008 l -0.527343,-0.0937 q 0.09668,-0.53027 0.439453,-0.82031 0.342773,-0.29297 0.852539,-0.29297 0.351562,0 0.647461,0.15234 0.295898,0.14942 0.451172,0.41016 0.158203,0.26074 0.158203,0.55371 0,0.27832 -0.149414,0.50684 -0.149414,0.22851 -0.442383,0.36328 0.380859,0.0879 0.591797,0.36621 0.210937,0.27539 0.210937,0.69141 0,0.5625 -0.410156,0.95507 -0.410156,0.38965 -1.037109,0.38965 -0.56543,0 -0.94043,-0.33691 -0.37207,-0.33692 -0.424805,-0.87305 z"
     id="text18"
     class="tiny"
     style="font-size:6px;font-family:Arial, sans-serif;letter-spacing:0.3px;text-anchor:middle;fill:#d8d8d8"
     aria-label="OUT 3" />
  <path
     d="m 70.909766,315.9082 q 0,-1.06933 0.574218,-1.67285 0.574219,-0.60644 1.482422,-0.60644 0.594727,0 1.072266,0.28418 0.477539,0.28418 0.726562,0.79394 0.251953,0.50684 0.251953,1.15137 0,0.65332 -0.263671,1.16894 -0.263672,0.51563 -0.747071,0.78223 -0.483398,0.26367 -1.042968,0.26367 -0.606446,0 -1.083985,-0.29297 -0.477539,-0.29297 -0.723633,-0.7998 -0.246093,-0.50684 -0.246093,-1.07227 z m 0.585937,0.009 q 0,0.77637 0.416016,1.22461 0.418945,0.44531 1.048828,0.44531 0.641601,0 1.054687,-0.45117 0.416016,-0.45117 0.416016,-1.28027 0,-0.52442 -0.178711,-0.91406 -0.175781,-0.39258 -0.518555,-0.60645 -0.339843,-0.2168 -0.764648,-0.2168 -0.603516,0 -1.040039,0.41602 -0.433594,0.41309 -0.433594,1.38281 z m 7.372266,-2.21191 h 0.568359 v 2.48144 q 0,0.64746 -0.146484,1.02832 -0.146484,0.38086 -0.530274,0.6211 -0.380859,0.2373 -1.001953,0.2373 -0.603515,0 -0.987304,-0.20801 -0.383789,-0.208 -0.547852,-0.60058 -0.164062,-0.39551 -0.164062,-1.07813 v -2.48144 h 0.568359 v 2.47851 q 0,0.55957 0.102539,0.82618 0.105469,0.26367 0.357422,0.40722 0.254883,0.14356 0.621094,0.14356 0.626953,0 0.893554,-0.28418 0.266602,-0.28418 0.266602,-1.09278 z M 81.775391,318 v -3.78809 h -1.415039 v -0.50683 h 3.404297 v 0.50683 H 82.34375 V 318 Z m 6.207421,0 v -1.02832 h -1.863281 v -0.4834 l 1.959961,-2.7832 h 0.430664 v 2.7832 h 0.580078 v 0.4834 H 88.510156 V 318 Z m 0,-1.51172 v -1.93652 l -1.344726,1.93652 z"
     id="text19"
     class="tiny"
     style="font-size:6px;font-family:Arial, sans-serif;letter-spacing:0.3px;text-anchor:middle;fill:#d8d8d8"
     aria-label="OUT 4" />
  <path
     d="m 90.909766,315.9082 q 0,-1.06933 0.574218,-1.67285 0.574219,-0.60644 1.482422,-0.60644 0.594727,0 1.072266,0.28418 0.477539,0.28418 0.726562,0.79394 0.251953,0.50684 0.251953,1.15137 0,0.65332 -0.263671,1.16894 -0.263672,0.51563 -0.747071,0.78223 -0.483398,0.26367 -1.042968,0.26367 -0.606446,0 -1.083985,-0.29297 -0.477539,-0.29297 -0.723633,-0.7998 -0.246093,-0.50684 -0.246093,-1.07227 z m 0.585937,0.009 q 0,0.77637 0.416016,1.22461 0.418945,0.44531 1.048828,0.44531 0.641601,0 1.054687,-0.45117 0.416016,-0.45117 0.416016,-1.28027 0,-0.52442 -0.178711,-0.91406 -0.175781,-0.39258 -0.518555,-0.60645 -0.339843,-0.2168 -0.764648,-0.2168 -0.603516,0 -1.040039,0.41602 -0.433594,0.41309 -0.433594,1.38281 z m 7.372266,-2.21191 h 0.568359 v 2.48144 q 0,0.64746 -0.146484,1.02832 -0.146484,0.38086 -0.530274,0.6211 -0.380859,0.2373 -1.001953,0.2373 -0.603515,0 -0.987304,-0.20801 -0.383789,-0.208 -0.547852,-0.60058 -0.164062,-0.39551 -0.164062,-1.07813 v -2.48144 h 0.568359 v 2.47851 q 0,0.55957 0.102539,0.82618 0.105469,0.26367 0.357422,0.40722 0.254883,0.14356 0.621094,0.14356 0.626953,0 0.893554,-0.28418 0.266602,-0.28418 0.266602,-1.09278 z M 101.77539,318 v -3.78809 h -1.41504 v -0.50683 h 3.4043 v 0.50683 h -1.4209 V 318 Z m 4.51699,-1.125 0.55371,-0.0469 q 0.0615,0.4043 0.28418,0.60938 0.22559,0.20215 0.542,0.20215 0.38085,0 0.64453,-0.28711 0.26367,-0.28711 0.26367,-0.76172 0,-0.45117 -0.25488,-0.71191 -0.25196,-0.26075 -0.66211,-0.26075 -0.25489,0 -0.45996,0.11719 -0.20508,0.11426 -0.32227,0.29883 l -0.49512,-0.0644 0.41602,-2.20606 h 2.13574 v 0.50391 h -1.71387 l -0.23144,1.15429 q 0.38672,-0.26953 0.81152,-0.26953 0.5625,0 0.94922,0.38965 0.38672,0.38965 0.38672,1.00196 0,0.583 -0.33984,1.00781 -0.41309,0.52148 -1.12793,0.52148 -0.58594,0 -0.95801,-0.32812 -0.36914,-0.32813 -0.42188,-0.87012 z"
     id="text20"
     class="tiny"
     style="font-size:6px;font-family:Arial, sans-serif;letter-spacing:0.3px;text-anchor:middle;fill:#d8d8d8"
     aria-label="OUT 5" />
  <path
     d="m 10.909766,343.9082 q 0,-1.06933 0.574218,-1.67285 0.574219,-0.60644 1.482422,-0.60644 0.594727,0 1.072266,0.28418 0.477539,0.28418 0.726562,0.79394 0.251953,0.50684 0.251953,1.15137 0,0.65332 -0.263671,1.16894 -0.263672,0.51563 -0.747071,0.78223 -0.483398,0.26367 -1.042968,0.26367 -0.606446,0 -1.083985,-0.29297 -0.477539,-0.29297 -0.723633,-0.7998 -0.246093,-0.50684 -0.246093,-1.07227 z m 0.585937,0.009 q 0,0.77637 0.416016,1.22461 0.418945,0.44531 1.048828,0.44531 0.641601,0 1.054687,-0.45117 0.416016,-0.45117 0.416016,-1.28027 0,-0.52442 -0.178711,-0.91406 -0.175781,-0.39258 -0.518555,-0.60645 -0.339843,-0.2168 -0.764648,-0.2168 -0.603516,0 -1.040039,0.41602 -0.433594,0.41309 -0.433594,1.38281 z m 7.372266,-2.21191 h 0.568359 v 2.48144 q 0,0.64746 -0.146484,1.02832 -0.146484,0.38086 -0.530274,0.6211 -0.380859,0.2373 -1.001953,0.2373 -0.603515,0 -0.987304,-0.20801 -0.383789,-0.208 -0.547852,-0.60058 -0.164062,-0.39551 -0.164062,-1.07813 v -2.48144 h 0.568359 v 2.47851 q 0,0.55957 0.102539,0.82618 0.105469,0.26367 0.357422,0.40722 0.254883,0.14356 0.621094,0.14356 0.626953,0 0.893554,-0.28418 0.266602,-0.28418 0.266602,-1.09278 z M 21.775391,346 v -3.78809 h -1.415039 v -0.50683 h 3.404297 v 0.50683 H 22.34375 V 346 Z m 7.25332,-3.24316 -0.524414,0.041 q -0.07031,-0.31055 -0.199219,-0.45117 -0.213867,-0.22559 -0.527344,-0.22559 -0.251953,0 -0.442383,0.14063 -0.249023,0.18164 -0.392578,0.53027 -0.143554,0.34863 -0.149414,0.99317 0.19043,-0.29004 0.46582,-0.43067 0.275391,-0.14062 0.577149,-0.14062 0.527344,0 0.896484,0.38965 0.372071,0.38671 0.372071,1.00195 0,0.4043 -0.175782,0.75293 -0.172851,0.3457 -0.477539,0.53027 -0.304687,0.18457 -0.691406,0.18457 -0.65918,0 -1.075195,-0.4834 -0.416016,-0.48632 -0.416016,-1.59961 0,-1.24511 0.459961,-1.81054 0.401367,-0.49219 1.081055,-0.49219 0.506836,0 0.829101,0.28418 0.325196,0.28418 0.389649,0.78516 z m -2.153321,1.85156 q 0,0.27246 0.114258,0.52148 0.117188,0.24903 0.325196,0.38086 0.208007,0.12891 0.436523,0.12891 0.333984,0 0.574219,-0.26953 0.240234,-0.26953 0.240234,-0.73242 0,-0.44532 -0.237305,-0.7002 -0.237304,-0.25781 -0.597656,-0.25781 -0.357422,0 -0.606445,0.25781 -0.249024,0.25488 -0.249024,0.6709 z"
     id="text21"
     class="tiny"
     style="font-size:6px;font-family:Arial, sans-serif;letter-spacing:0.3px;text-anchor:middle;fill:#d8d8d8"
     aria-label="OUT 6" />
  <path
     d="m 30.909766,343.9082 q 0,-1.06933 0.574218,-1.67285 0.574219,-0.60644 1.482422,-0.60644 0.594727,0 1.072266,0.28418 0.477539,0.28418 0.726562,0.79394 0.251953,0.50684 0.251953,1.15137 0,0.65332 -0.263671,1.16894 -0.263672,0.51563 -0.747071,0.78223 -0.483398,0.26367 -1.042968,0.26367 -0.606446,0 -1.083985,-0.29297 -0.477539,-0.29297 -0.723633,-0.7998 -0.246093,-0.50684 -0.246093,-1.07227 z m 0.585937,0.009 q 0,0.77637 0.416016,1.22461 0.418945,0.44531 1.048828,0.44531 0.641601,0 1.054687,-0.45117 0.416016,-0.45117 0.416016,-1.28027 0,-0.52442 -0.178711,-0.91406 -0.175781,-0.39258 -0.518555,-0.60645 -0.339843,-0.2168 -0.764648,-0.2168 -0.603516,0 -1.040039,0.41602 -0.433594,0.41309 -0.433594,1.38281 z m 7.372266,-2.21191 h 0.568359 v 2.48144 q 0,0.64746 -0.146484,1.02832 -0.146484,0.38086 -0.530274,0.6211 -0.380859,0.2373 -1.001953,0.2373 -0.603515,0 -0.987304,-0.20801 -0.383789,-0.208 -0.547852,-0.60058 -0.164062,-0.39551 -0.164062,-1.07813 v -2.48144 h 0.568359 v 2.47851 q 0,0.55957 0.102539,0.82618 0.105469,0.26367 0.357422,0.40722 0.254883,0.14356 0.621094,0.14356 0.626953,0 0.893554,-0.28418 0.266602,-0.28418 0.266602,-1.09278 z M 41.775391,346 v -3.78809 h -1.415039 v -0.50683 h 3.404297 v 0.50683 H 42.34375 V 346 Z m 4.552148,-3.73242 v -0.50684 h 2.780273 v 0.41016 q -0.410156,0.43652 -0.814453,1.16015 -0.401367,0.72364 -0.621094,1.48829 Q 47.514062,345.3584 47.470117,346 h -0.541992 q 0.0088,-0.50684 0.199219,-1.22461 0.190429,-0.71777 0.544921,-1.38281 0.357422,-0.66797 0.758789,-1.125 z"
     id="text22"
     class="tiny"
     style="font-size:6px;font-family:Arial, sans-serif;letter-spacing:0.3px;text-anchor:middle;fill:#d8d8d8"
     aria-label="OUT 7" />
  <path
     d="m 50.909766,343.9082 q 0,-1.06933 0.574218,-1.67285 0.574219,-0.60644 1.482422,-0.60644 0.594727,0 1.072266,0.28418 0.477539,0.28418 0.726562,0.79394 0.251953,0.50684 0.251953,1.15137 0,0.65332 -0.263671,1.16894 -0.263672,0.51563 -0.747071,0.78223 -0.483398,0.26367 -1.042968,0.26367 -0.606446,0 -1.083985,-0.29297 -0.477539,-0.29297 -0.723633,-0.7998 -0.246093,-0.50684 -0.246093,-1.07227 z m 0.585937,0.009 q 0,0.77637 0.416016,1.22461 0.418945,0.44531 1.048828,0.44531 0.641601,0 1.054687,-0.45117 0.416016,-0.45117 0.416016,-1.28027 0,-0.52442 -0.178711,-0.91406 -0.175781,-0.39258 -0.518555,-0.60645 -0.339843,-0.2168 -0.764648,-0.2168 -0.603516,0 -1.040039,0.41602 -0.433594,0.41309 -0.433594,1.38281 z m 7.372266,-2.21191 h 0.568359 v 2.48144 q 0,0.64746 -0.146484,1.02832 -0.146484,0.38086 -0.530274,0.6211 -0.380859,0.2373 -1.001953,0.2373 -0.603515,0 -0.987304,-0.20801 -0.383789,-0.208 -0.547852,-0.60058 -0.164062,-0.39551 -0.164062,-1.07813 v -2.48144 h 0.568359 v 2.47851 q 0,0.55957 0.102539,0.82618 0.105469,0.26367 0.357422,0.40722 0.254883,0.14356 0.621094,0.14356 0.626953,0 0.893554,-0.28418 0.266602,-0.28418 0.266602,-1.09278 z M 61.775391,346 v -3.78809 h -1.415039 v -0.50683 h 3.404297 v 0.50683 H 62.34375 V 346 Z m 5.328515,-2.3291 q -0.328125,-0.12012 -0.486328,-0.34278 -0.158203,-0.22265 -0.158203,-0.5332 0,-0.46875 0.336914,-0.78808 0.336914,-0.31934 0.896484,-0.31934 0.5625,0 0.905274,0.32812 0.342773,0.3252 0.342773,0.79395 0,0.29883 -0.158203,0.52148 -0.155273,0.21973 -0.474609,0.33985 0.395507,0.1289 0.600586,0.41601 0.208007,0.28711 0.208007,0.68555 0,0.55078 -0.389648,0.92578 -0.389649,0.375 -1.025391,0.375 -0.635742,0 -1.02539,-0.375 -0.389649,-0.37793 -0.389649,-0.94043 0,-0.41894 0.210938,-0.70019 0.213867,-0.28418 0.606445,-0.38672 z m -0.105469,-0.89356 q 0,0.30469 0.196289,0.49805 0.196289,0.19336 0.509766,0.19336 0.304687,0 0.498047,-0.19043 0.196289,-0.19336 0.196289,-0.47168 0,-0.29004 -0.202149,-0.48633 -0.199218,-0.19922 -0.498046,-0.19922 -0.301758,0 -0.500977,0.19336 -0.199219,0.19336 -0.199219,0.46289 z m -0.169922,1.9834 q 0,0.22559 0.105469,0.43653 0.108399,0.21093 0.319336,0.32812 0.210938,0.11426 0.454102,0.11426 0.377929,0 0.624023,-0.24317 0.246094,-0.24316 0.246094,-0.61816 0,-0.38086 -0.254883,-0.62988 -0.251953,-0.24903 -0.632812,-0.24903 -0.372071,0 -0.618165,0.2461 -0.243164,0.24609 -0.243164,0.61523 z"
     id="text23"
     class="tiny"
     style="font-size:6px;font-family:Arial, sans-serif;letter-spacing:0.3px;text-anchor:middle;fill:#d8d8d8"
     aria-label="OUT 8" />
  <path
     d="m 70.909766,343.9082 q 0,-1.06933 0.574218,-1.67285 0.574219,-0.60644 1.482422,-0.60644 0.594727,0 1.072266,0.28418 0.477539,0.28418 0.726562,0.79394 0.251953,0.50684 0.251953,1.15137 0,0.65332 -0.263671,1.16894 -0.263672,0.51563 -0.747071,0.78223 -0.483398,0.26367 -1.042968,0.26367 -0.606446,0 -1.083985,-0.29297 -0.477539,-0.29297 -0.723633,-0.7998 -0.246093,-0.50684 -0.246093,-1.07227 z m 0.585937,0.009 q 0,0.77637 0.416016,1.22461 0.418945,0.44531 1.048828,0.44531 0.641601,0 1.054687,-0.45117 0.416016,-0.45117 0.416016,-1.28027 0,-0.52442 -0.178711,-0.91406 -0.175781,-0.39258 -0.518555,-0.60645 -0.339843,-0.2168 -0.764648,-0.2168 -0.603516,0 -1.040039,0.41602 -0.433594,0.41309 -0.433594,1.38281 z m 7.372266,-2.21191 h 0.568359 v 2.48144 q 0,0.64746 -0.146484,1.02832 -0.146484,0.38086 -0.530274,0.6211 -0.380859,0.2373 -1.001953,0.2373 -0.603515,0 -0.987304,-0.20801 -0.383789,-0.208 -0.547852,-0.60058 -0.164062,-0.39551 -0.164062,-1.07813 v -2.48144 h 0.568359 v 2.47851 q 0,0.55957 0.102539,0.82618 0.105469,0.26367 0.357422,0.40722 0.254883,0.14356 0.621094,0.14356 0.626953,0 0.893554,-0.28418 0.266602,-0.28418 0.266602,-1.09278 z M 81.775391,346 v -3.78809 h -1.415039 v -0.50683 h 3.404297 v 0.50683 H 82.34375 V 346 Z m 4.596093,-0.99316 0.506836,-0.0469 q 0.06445,0.35742 0.246094,0.51856 0.18164,0.16113 0.46582,0.16113 0.243164,0 0.424805,-0.11133 0.18457,-0.11133 0.301758,-0.2959 0.117187,-0.1875 0.196289,-0.5039 0.0791,-0.31641 0.0791,-0.64454 0,-0.0351 -0.0029,-0.10546 -0.158204,0.25195 -0.433594,0.41015 -0.272461,0.15528 -0.591797,0.15528 -0.533203,0 -0.902344,-0.38672 -0.36914,-0.38672 -0.36914,-1.01953 0,-0.65333 0.383789,-1.05176 0.386718,-0.39844 0.966797,-0.39844 0.418945,0 0.764648,0.22559 0.348633,0.22558 0.527344,0.64453 0.18164,0.41601 0.18164,1.20703 0,0.82324 -0.178711,1.3125 -0.178711,0.48633 -0.533203,0.74121 -0.351562,0.25488 -0.826172,0.25488 -0.503906,0 -0.823242,-0.27832 -0.319336,-0.28125 -0.383789,-0.78808 z m 2.15918,-1.89551 q 0,-0.4541 -0.243164,-0.72071 -0.240235,-0.2666 -0.580078,-0.2666 -0.351563,0 -0.612305,0.28711 -0.260742,0.28711 -0.260742,0.74414 0,0.41016 0.246094,0.66797 0.249023,0.25488 0.612304,0.25488 0.366211,0 0.600586,-0.25488 0.237305,-0.25781 0.237305,-0.71191 z"
     id="text24"
     class="tiny"
     style="font-size:6px;font-family:Arial, sans-serif;letter-spacing:0.3px;text-anchor:middle;fill:#d8d8d8"
     aria-label="OUT 9" />
  <circle
     cx="60"
     cy="92"
     r="1.2"
     fill="#747474"
     id="circle24" />
  <circle
     cx="30"
     cy="144"
     r="1.2"
     fill="#747474"
     id="circle25" />
  <circle
     cx="60"
     cy="144"
     r="1.2"
     fill="#747474"
     id="circle26" />
  <circle
     cx="90"
     cy="144"
     r="1.2"
     fill="#747474"
     id="circle27" />
  <circle
     cx="30"
     cy="204"
     r="1.2"
     fill="#747474"
     id="circle28" />
  <circle
     cx="60"
     cy="204"
     r="1.2"
     fill="#747474"
     id="circle29" />
  <circle
     cx="90"
     cy="204"
     r="1.2"
     fill="#747474"
     id="circle30" />
  <circle
     cx="30"
     cy="264"
     r="1.2"
     fill="#747474"
     id="circle31" />
  <circle
     cx="60"
     cy="264"
     r="1.2"
     fill="#747474"
     id="circle32" />
  <circle
     cx="90"
     cy="264"
     r="1.2"
     fill="#747474"
     id="circle33" />
  <g
     transform="matrix(1.6722989,0,0,1.6988345,37.691587,-67.77766)"
     id="layer1-7"
     inkscape:label="Layer 1">
    <rect
       y="256.12662"
       x="29.52006"
       height="1.6536458"
       width="7.2760415"
       id="rect823"
       style="fill:#ffffff;fill-opacity:1;stroke:none;stroke-width:0.710598;stroke-miterlimit:4;stroke-dasharray:none;stroke-opacity:1" />
    <rect
       y="256.57309"
       x="28.643627"
       height="0.51248246"
       width="9.0803432"
       id="rect821"
       style="fill:#ffffff;fill-opacity:1;stroke:none;stroke-width:0.176948;stroke-miterlimit:4;stroke-dasharray:none;stroke-opacity:1" />
    <ellipse
       ry="5.8699069"
       rx="6.1973119"
       cy="250.78661"
       cx="33.068214"
       id="path817"
       style="fill:#ffffff;fill-opacity:1;stroke:none;stroke-width:0.294763;stroke-miterlimit:4;stroke-dasharray:none;stroke-opacity:1" />
    <rect
       y="257.08557"
       x="28.265131"
       height="4.3030396"
       width="9.541522"
       id="rect819"
       style="fill:#ffffff;fill-opacity:1;stroke:none;stroke-width:0.236954;stroke-miterlimit:4;stroke-dasharray:none;stroke-opacity:1" />
    <path
       style="fill:#54b6fc;stroke-width:0.434238"
       d="m 28.040353,261.67777 c -0.05624,-0.1049 -0.09132,-1.05343 -0.09132,-2.46939 0,-2.62823 -0.06483,-2.41007 0.868669,-2.92327 0.298327,-0.16393 0.542417,-0.32331 0.542417,-0.35402 0,-0.0309 -0.162318,-0.16826 -0.360716,-0.30583 -1.028016,-0.71241 -2.013971,-2.17766 -2.338877,-3.47584 -0.201325,-0.80442 -0.134174,-2.39054 0.13451,-3.17721 1.033244,-3.02511 4.386038,-4.85502 7.661927,-4.18175 2.136444,0.4391 3.832748,1.7715 4.690824,3.6846 0.361925,0.8069 0.484002,1.41362 0.481552,2.39329 -0.0043,1.76252 -0.804317,3.40089 -2.221636,4.55038 -0.254647,0.20641 -0.463011,0.4065 -0.463011,0.44439 0,0.038 0.188503,0.17638 0.418915,0.30774 0.88078,0.5022 0.815782,0.26078 0.815782,3.02947 0,1.77735 -0.02862,2.465 -0.105831,2.54221 -0.07977,0.0796 -1.316324,0.10568 -5.023888,0.10568 -4.772077,0 -4.920765,-0.006 -5.009351,-0.17069 z m 4.778272,-1.34136 c 0.02029,-0.72066 0.0537,-0.91258 0.172084,-0.98706 0.106484,-0.067 0.185415,-0.0605 0.286623,0.0243 0.110188,0.0915 0.139673,0.2998 0.139673,0.98705 v 0.87111 h 2.031202 c 1.725502,0 2.038854,-0.0189 2.082046,-0.13248 0.118689,-0.30933 -0.0843,-0.54865 -1.048716,-1.23644 -0.806681,-0.57531 -0.992,-0.74828 -0.992,-0.92603 0,-0.17285 0.05069,-0.22425 0.242529,-0.24644 l 0.242526,-0.0279 v -0.72694 c 0,-0.82266 0.11329,-1.0851 0.425635,-0.98597 0.182308,0.0579 0.191777,0.11143 0.193075,1.09112 6.9e-4,0.56673 0.03051,1.07216 0.06615,1.12322 0.107317,0.15365 0.691445,0.5686 0.80071,0.5686 0.07253,0 0.101903,-0.37768 0.101903,-1.30922 0,-1.48548 0.04525,-1.38286 -0.823095,-1.86798 l -0.514419,-0.28745 -0.896236,0.29918 c -0.869904,0.29041 -0.937695,0.2992 -2.307746,0.29891 -1.355532,-2.1e-4 -1.441911,-0.0113 -2.177833,-0.27426 l -0.766317,-0.27401 -0.710913,0.40097 -0.710915,0.40096 v 1.35053 c 0,0.7428 0.02272,1.35058 0.05046,1.35058 0.02775,0 0.226187,-0.10309 0.440962,-0.22887 l 0.390524,-0.22887 0.0014,-0.89557 c 0.0016,-1.14751 0.206306,-1.60144 0.561721,-1.24599 0.108544,0.1085 0.142513,0.31853 0.142513,0.88028 v 0.7378 l 0.290718,-0.0471 c 0.315025,-0.0511 0.543194,0.11558 0.458905,0.33517 -0.02597,0.0676 -0.562393,0.43193 -1.192126,0.80964 -1.113533,0.66789 -1.144968,0.69508 -1.144968,0.9907 v 0.30396 h 2.069441 2.069444 z m 2.265337,-4.35748 c 1.820054,-0.60937 3.301106,-2.14018 3.754405,-3.88051 0.141672,-0.5439 0.182494,-2.03256 0.06101,-2.22398 -0.0547,-0.0862 -0.514454,-0.10647 -1.993182,-0.0881 l -1.922097,0.0243 -0.285943,0.79373 c -0.250451,0.69526 -0.311823,0.79372 -0.494567,0.79372 -0.193669,0 -0.219614,-0.0593 -0.361764,-0.82692 -0.233437,-1.26061 -0.264438,-1.24093 -0.550459,0.34982 -0.250913,1.39568 -0.282965,1.49134 -0.499452,1.49134 -0.208819,0 -0.19843,0.0455 -0.591264,-2.59459 -0.179846,-1.20877 -0.366691,-2.21079 -0.415197,-2.22673 -0.04851,-0.0164 -0.346157,0.47702 -0.661443,1.09535 l -0.573255,1.12428 -1.649981,0.0244 -1.649981,0.0243 -0.05961,0.3176 c -0.100912,0.53789 0.02055,1.63287 0.25608,2.31038 0.480987,1.38307 1.462121,2.47313 2.838905,3.15409 1.070426,0.52942 1.68831,0.6568 2.998555,0.61816 0.870867,-0.027 1.189545,-0.0752 1.799239,-0.27931 z m -2.582339,-0.34598 c -0.501349,-0.14204 -0.612279,-0.23104 -0.568647,-0.45582 0.02803,-0.14447 0.130451,-0.16555 0.868148,-0.17909 0.460004,-0.008 0.975273,-0.0281 1.145044,-0.0441 0.276178,-0.0243 0.311494,-0.006 0.335474,0.20237 0.023,0.19722 -0.02543,0.25187 -0.329357,0.37355 -0.522805,0.20913 -0.965587,0.24078 -1.450662,0.1031 z m -1.6422,-2.07469 c -0.09701,-0.0972 -0.176384,-0.25567 -0.176384,-0.35282 0,-0.24453 0.308426,-0.52913 0.573253,-0.52913 0.264818,0 0.573252,0.28468 0.573252,0.52913 0,0.24455 -0.308429,0.52918 -0.573252,0.52918 -0.121275,0 -0.299857,-0.0793 -0.396869,-0.17636 z m 3.439517,-0.0882 c -0.232761,-0.23267 -0.222508,-0.40285 0.0401,-0.66546 0.243582,-0.24345 0.329798,-0.25996 0.605107,-0.11502 0.242042,0.12748 0.321863,0.24591 0.323575,0.48022 0.0031,0.43406 -0.63668,0.63239 -0.968767,0.30029 z m -1.151475,-4.27736 c 0.296559,-1.78581 0.575578,-1.83207 0.874871,-0.14501 0.09772,0.55084 0.197295,1.02113 0.221263,1.04511 0.08271,0.0828 0.212362,-0.0613 0.273139,-0.30344 0.117052,-0.46642 0.107419,-0.46436 2.176972,-0.46436 2.188984,0 2.146871,0.0162 1.845872,-0.66529 -0.655344,-1.4815 -2.160669,-2.71162 -3.887876,-3.17706 -0.773684,-0.20858 -2.314597,-0.21425 -3.086746,-0.0113 -1.862761,0.48917 -3.433992,1.84034 -4.06194,3.49292 l -0.172218,0.45328 1.47768,-0.0243 1.477684,-0.0244 0.705541,-1.38465 c 0.388047,-0.76156 0.755433,-1.43456 0.816413,-1.4955 0.244962,-0.24482 0.364055,0.12518 0.643002,1.99713 0.151683,1.01798 0.296644,1.88465 0.322123,1.92588 0.102882,0.16637 0.192723,-0.12627 0.374219,-1.21922 z"
       id="path4012-8"
       inkscape:connector-curvature="0" />
    <path
       style="fill:#a0a0a0;stroke-width:0.434238"
       d="m 28.040353,261.67777 c -0.05624,-0.1049 -0.09132,-1.05343 -0.09132,-2.46939 0,-2.62823 -0.06483,-2.41007 0.868669,-2.92327 0.298327,-0.16393 0.542417,-0.32331 0.542417,-0.35402 0,-0.0309 -0.162318,-0.16826 -0.360716,-0.30583 -1.028016,-0.71241 -2.013971,-2.17766 -2.338877,-3.47584 -0.201325,-0.80442 -0.134174,-2.39054 0.13451,-3.17721 1.033244,-3.02511 4.386038,-4.85502 7.661927,-4.18175 2.136444,0.4391 3.832748,1.7715 4.690824,3.6846 0.361925,0.8069 0.484002,1.41362 0.481552,2.39329 -0.0043,1.76252 -0.804317,3.40089 -2.221636,4.55038 -0.254647,0.20641 -0.463011,0.4065 -0.463011,0.44439 0,0.038 0.188503,0.17638 0.418915,0.30774 0.88078,0.5022 0.815782,0.26078 0.815782,3.02947 0,1.77735 -0.02862,2.465 -0.105831,2.54221 -0.07977,0.0796 -1.316324,0.10568 -5.023888,0.10568 -4.772077,0 -4.920765,-0.006 -5.009351,-0.17069 z m 4.778272,-1.34136 c 0.02029,-0.72066 0.0537,-0.91258 0.172084,-0.98706 0.106484,-0.067 0.185415,-0.0605 0.286623,0.0243 0.110188,0.0915 0.139673,0.2998 0.139673,0.98705 v 0.87111 h 2.031202 c 1.725502,0 2.038854,-0.0189 2.082046,-0.13248 0.118689,-0.30933 -0.0843,-0.54865 -1.048716,-1.23644 -0.806681,-0.57531 -0.992,-0.74828 -0.992,-0.92603 0,-0.17285 0.05069,-0.22425 0.242529,-0.24644 l 0.242526,-0.0279 v -0.72694 c 0,-0.82266 0.11329,-1.0851 0.425635,-0.98597 0.182308,0.0579 0.191777,0.11143 0.193075,1.09112 6.9e-4,0.56673 0.03051,1.07216 0.06615,1.12322 0.107317,0.15365 0.691445,0.5686 0.80071,0.5686 0.07253,0 0.101903,-0.37768 0.101903,-1.30922 0,-1.48548 0.04525,-1.38286 -0.823095,-1.86798 l -0.514419,-0.28745 -0.896236,0.29918 c -0.869904,0.29041 -0.937695,0.2992 -2.307746,0.29891 -1.355532,-2.1e-4 -1.441911,-0.0113 -2.177833,-0.27426 l -0.766317,-0.27401 -0.710913,0.40097 -0.710915,0.40096 v 1.35053 c 0,0.7428 0.02272,1.35058 0.05046,1.35058 0.02775,0 0.226187,-0.10309 0.440962,-0.22887 l 0.390524,-0.22887 0.0014,-0.89557 c 0.0016,-1.14751 0.206306,-1.60144 0.561721,-1.24599 0.108544,0.1085 0.142513,0.31853 0.142513,0.88028 v 0.7378 l 0.290718,-0.0471 c 0.315025,-0.0511 0.543194,0.11558 0.458905,0.33517 -0.02597,0.0676 -0.562393,0.43193 -1.192126,0.80964 -1.113533,0.66789 -1.144968,0.69508 -1.144968,0.9907 v 0.30396 h 2.069441 2.069444 z m 2.265337,-4.35748 c 1.403562,-0.46993 2.640938,-1.50058 3.294283,-2.74387 0.429067,-0.81653 0.595175,-1.49004 0.593708,-2.40729 -0.002,-1.2675 0.205601,-1.15 -2.032309,-1.15 -1.442955,0 -1.942613,0.0275 -1.996101,0.11041 -0.03924,0.0606 -0.191398,0.42737 -0.338104,0.81498 -0.382438,1.0104 -0.497129,0.9789 -0.708436,-0.1945 -0.249425,-1.38497 -0.369803,-1.31205 -0.674781,0.40874 -0.236279,1.33315 -0.338408,1.62908 -0.50309,1.45776 -0.04428,-0.0461 -0.22394,-1.07598 -0.399194,-2.28859 -0.378048,-2.61568 -0.375281,-2.60172 -0.515638,-2.60172 -0.06054,0 -0.377093,0.53579 -0.703448,1.19062 l -0.593372,1.1906 h -1.626578 -1.626579 l -0.06131,0.40891 c -0.234007,1.5605 0.483321,3.42764 1.761718,4.58559 0.632883,0.57328 1.868907,1.21483 2.698432,1.40062 0.933964,0.20911 2.512332,0.12546 3.430809,-0.18205 z m -2.582339,-0.34598 c -0.501349,-0.14204 -0.612279,-0.23104 -0.568647,-0.45582 0.02803,-0.14447 0.130451,-0.16555 0.868148,-0.17909 0.460004,-0.008 0.975273,-0.0281 1.145044,-0.0441 0.276178,-0.0243 0.311494,-0.006 0.335474,0.20237 0.023,0.19722 -0.02543,0.25187 -0.329357,0.37355 -0.522805,0.20913 -0.965587,0.24078 -1.450662,0.1031 z m -1.6422,-2.07469 c -0.09701,-0.0972 -0.176384,-0.25567 -0.176384,-0.35282 0,-0.24453 0.308426,-0.52913 0.573253,-0.52913 0.264818,0 0.573252,0.28468 0.573252,0.52913 0,0.24455 -0.308429,0.52918 -0.573252,0.52918 -0.121275,0 -0.299857,-0.0793 -0.396869,-0.17636 z m 3.439517,-0.0882 c -0.232761,-0.23267 -0.222508,-0.40285 0.0401,-0.66546 0.243582,-0.24345 0.329798,-0.25996 0.605107,-0.11502 0.242042,0.12748 0.321863,0.24591 0.323575,0.48022 0.0031,0.43406 -0.63668,0.63239 -0.968767,0.30029 z m -1.097809,-4.10189 c 0.211607,-1.21013 0.333943,-1.55258 0.494567,-1.38443 0.03281,0.0344 0.152225,0.57839 0.265306,1.20896 0.232869,1.29834 0.343523,1.42064 0.618496,0.68352 l 0.172705,-0.46302 h 1.972971 c 1.085132,0 1.99242,-0.0315 2.016195,-0.0698 0.08023,-0.12991 -0.357483,-1.05886 -0.773608,-1.642 -0.728041,-1.02028 -1.981677,-1.859 -3.316077,-2.21859 -0.773686,-0.20857 -2.314601,-0.21426 -3.086747,-0.0113 -1.084749,0.28486 -1.999152,0.80872 -2.786328,1.59624 -0.677355,0.67767 -1.19903,1.50881 -1.403089,2.23545 l -0.05574,0.19856 1.439077,-9.8e-4 c 0.791494,-6.2e-4 1.483847,-0.0306 1.538565,-0.0662 0.05473,-0.0355 0.422055,-0.70973 0.816304,-1.49793 0.672478,-1.34451 0.811339,-1.54707 0.929474,-1.35595 0.02624,0.0426 0.169945,0.92549 0.319337,1.9623 0.278277,1.93132 0.382411,2.3719 0.526552,2.22775 0.04457,-0.0447 0.184959,-0.67541 0.312001,-1.40192 z"
       id="path4010-0"
       inkscape:connector-curvature="0" />
    <path
       style="fill:#179cfd;stroke-width:0.434238"
       d="m 28.084301,261.62139 c -0.09334,-0.2432 -0.06068,-4.53422 0.03585,-4.71459 0.04932,-0.0922 0.366818,-0.32942 0.705541,-0.52725 0.338727,-0.19778 0.615865,-0.39635 0.615865,-0.44114 0,-0.0449 -0.225402,-0.25131 -0.5009,-0.45914 -1.007366,-0.75955 -1.863496,-2.05429 -2.182561,-3.30077 -0.176274,-0.68859 -0.179006,-2.04001 -0.0054,-2.72476 0.07324,-0.28909 0.298305,-0.86296 0.500144,-1.27526 0.293281,-0.59912 0.51896,-0.90166 1.123813,-1.50667 0.628099,-0.62825 0.899287,-0.82698 1.594434,-1.16847 1.206772,-0.59277 1.759323,-0.7188 3.130615,-0.71416 0.806735,0.002 1.311968,0.0495 1.704825,0.15746 3.200698,0.88036 5.194794,3.81447 4.65392,6.84772 -0.248316,1.39251 -1.241594,2.98286 -2.337264,3.74216 -0.198811,0.13767 -0.36148,0.28303 -0.36148,0.3228 0,0.0398 0.277437,0.23428 0.616524,0.43238 0.393273,0.22968 0.633784,0.4307 0.664178,0.55509 0.02625,0.10714 0.03649,1.24673 0.02299,2.53213 l -0.02488,2.33712 -4.951132,0.0216 c -4.457619,0.0215 -4.956494,0.008 -5.004941,-0.11734 z m 4.796794,-1.27231 c 0.04062,-0.85254 0.0581,-0.92604 0.220478,-0.92604 0.162399,0 0.179874,0.0735 0.22048,0.92604 l 0.0441,0.92602 h 2.11542 c 1.979416,0 2.117418,-0.0113 2.146485,-0.16124 0.07415,-0.38501 -0.08786,-0.58193 -1.039039,-1.26279 -0.5321,-0.38086 -0.988888,-0.74572 -1.015085,-0.81071 -0.07133,-0.17694 0.02596,-0.27867 0.266821,-0.27867 0.212067,0 0.215285,-0.0113 0.215285,-0.78294 0,-0.57789 0.03363,-0.81084 0.12842,-0.88952 0.247505,-0.20531 0.312538,-0.006 0.312538,0.96492 0,0.5267 0.02407,1.0201 0.05321,1.09639 0.07569,0.19722 0.895628,0.78122 1.003392,0.71461 0.137026,-0.0848 0.118488,-2.70962 -0.02028,-2.88339 -0.06062,-0.0761 -0.366131,-0.28527 -0.678882,-0.46529 -0.638192,-0.36731 -0.664782,-0.36715 -1.680277,0.0113 -0.620191,0.23022 -0.749452,0.24593 -2.072528,0.24835 -1.367516,0.002 -1.436372,-0.006 -2.229991,-0.28332 l -0.818897,-0.286 -0.707163,0.41086 c -0.388942,0.22589 -0.744718,0.48108 -0.790616,0.56686 -0.04592,0.0857 -0.08344,0.71537 -0.08344,1.39919 0,0.99797 0.02488,1.25279 0.126404,1.29174 0.157447,0.0603 0.905595,-0.36921 1.022127,-0.58694 0.04739,-0.0885 0.0862,-0.57804 0.0862,-1.08767 0,-0.95796 0.0901,-1.20675 0.322052,-0.88956 0.07719,0.10547 0.118894,0.4201 0.118894,0.89644 v 0.73386 l 0.360543,-0.0576 c 0.341277,-0.0546 0.358954,-0.0466 0.330725,0.14961 -0.02299,0.16068 -0.280994,0.35508 -1.148549,0.86561 -1.145685,0.67416 -1.30229,0.84178 -1.171412,1.25421 0.05178,0.16311 0.145382,0.16933 2.186334,0.14688 l 2.132238,-0.0243 z m 2.160723,-4.26226 c 1.769875,-0.57963 3.167996,-1.90262 3.76078,-3.55863 0.192048,-0.53652 0.328288,-2.18171 0.217288,-2.62393 l -0.05685,-0.22641 h -1.977453 c -1.485114,0 -1.995217,0.0273 -2.0488,0.11041 -0.03924,0.0605 -0.191399,0.42736 -0.338105,0.81497 -0.382437,1.0104 -0.497129,0.97892 -0.708437,-0.1945 -0.249424,-1.38497 -0.369803,-1.31205 -0.674782,0.40873 -0.236276,1.33315 -0.338406,1.62909 -0.503087,1.45777 -0.04428,-0.046 -0.223941,-1.07597 -0.399196,-2.28861 -0.378048,-2.61567 -0.375282,-2.6017 -0.515636,-2.6017 -0.06054,0 -0.377094,0.53578 -0.703448,1.19062 l -0.593373,1.19063 h -1.628884 c -1.902339,0 -1.81147,-0.0499 -1.81147,0.99426 0,0.80431 0.255081,1.83651 0.632916,2.56111 0.424332,0.81377 1.610253,1.95985 2.460638,2.37796 1.097382,0.53952 1.794389,0.68665 3.07994,0.64999 0.892825,-0.0244 1.23655,-0.0755 1.807954,-0.26241 z m -2.425303,-0.51429 c -0.478805,-0.10703 -0.703657,-0.2876 -0.549872,-0.44139 0.07642,-0.0766 0.231706,-0.0808 0.585546,-0.0162 0.356597,0.0647 0.599579,0.0571 0.936494,-0.0291 0.48231,-0.12329 0.615302,-0.0987 0.615302,0.11422 0,0.28859 -0.958357,0.51378 -1.58747,0.37302 z m -1.706091,-2.08738 c -0.189693,-0.20965 -0.184796,-0.3936 0.01543,-0.57471 0.232894,-0.21073 0.518062,-0.17963 0.684657,0.0743 0.133834,0.20423 0.133834,0.23669 0,0.44096 -0.171756,0.26213 -0.491832,0.2892 -0.699982,0.0593 z m 3.421615,-0.14148 c -0.271481,-0.41435 0.198702,-0.82027 0.625904,-0.54036 0.247452,0.16205 0.279238,0.41467 0.07757,0.61634 -0.207737,0.20776 -0.541169,0.17179 -0.703478,-0.0761 z m -1.137669,-3.97553 c 0.211606,-1.21013 0.333942,-1.55259 0.494569,-1.38441 0.03282,0.0344 0.152224,0.57837 0.265305,1.20895 0.23276,1.29772 0.34355,1.42057 0.617887,0.68512 l 0.172107,-0.46134 2.000835,-0.0243 c 2.352706,-0.0279 2.281076,0.0162 1.723959,-1.05794 -0.429635,-0.82824 -1.435244,-1.8525 -2.279603,-2.32184 -3.036046,-1.6875 -6.967182,-0.61741 -8.490501,2.31125 -0.205682,0.39548 -0.373989,0.82207 -0.373989,0.94808 v 0.22911 l 1.433135,-9.7e-4 c 0.788221,-6e-4 1.477901,-0.0306 1.53262,-0.0663 0.05473,-0.0355 0.422054,-0.7097 0.816303,-1.49792 0.672479,-1.34449 0.811342,-1.54706 0.929474,-1.35594 0.02625,0.0425 0.169945,0.9255 0.319337,1.96229 0.278278,1.93132 0.382411,2.37191 0.526555,2.22776 0.04455,-0.0447 0.184956,-0.67543 0.311999,-1.40192 z"
       id="path4008-4"
       inkscape:connector-curvature="0" />
    <path
       style="fill:#050505;fill-opacity:1;stroke-width:0.434238"
       d="m 28.084301,261.62139 c -0.09334,-0.2432 -0.06068,-4.53422 0.03585,-4.71459 0.04932,-0.0922 0.366818,-0.32942 0.705541,-0.52725 0.338727,-0.19778 0.615865,-0.39635 0.615865,-0.44114 0,-0.0449 -0.225402,-0.25131 -0.5009,-0.45914 -1.007366,-0.75955 -1.863496,-2.05429 -2.182561,-3.30077 -0.176274,-0.68859 -0.179006,-2.04001 -0.0054,-2.72476 0.07324,-0.28909 0.298305,-0.86296 0.500144,-1.27526 0.293281,-0.59912 0.51896,-0.90166 1.123813,-1.50667 0.628099,-0.62825 0.899287,-0.82698 1.594434,-1.16847 1.206772,-0.59277 1.759323,-0.7188 3.130615,-0.71416 0.806735,0.002 1.311968,0.0495 1.704825,0.15746 3.200698,0.88036 5.194794,3.81447 4.65392,6.84772 -0.248316,1.39251 -1.241594,2.98286 -2.337264,3.74216 -0.198811,0.13767 -0.36148,0.28303 -0.36148,0.3228 0,0.0398 0.277437,0.23428 0.616524,0.43238 0.393273,0.22968 0.633784,0.4307 0.664178,0.55509 0.02625,0.10714 0.03649,1.24673 0.02299,2.53213 l -0.02488,2.33712 -4.951132,0.0216 c -4.457619,0.0215 -4.956494,0.008 -5.004941,-0.11734 z m 4.796794,-1.27231 c 0.04062,-0.85254 0.0581,-0.92604 0.220478,-0.92604 0.162399,0 0.179874,0.0735 0.22048,0.92604 l 0.0441,0.92602 h 2.11542 c 1.979416,0 2.117418,-0.0113 2.146485,-0.16124 0.07415,-0.38501 -0.08786,-0.58193 -1.039039,-1.26279 -0.5321,-0.38086 -0.988888,-0.74572 -1.015085,-0.81071 -0.07133,-0.17694 0.02596,-0.27867 0.266821,-0.27867 0.212067,0 0.215285,-0.0113 0.215285,-0.78294 0,-0.57789 0.03363,-0.81084 0.12842,-0.88952 0.247505,-0.20531 0.312538,-0.006 0.312538,0.96492 0,0.5267 0.02407,1.0201 0.05321,1.09639 0.07569,0.19722 0.895628,0.78122 1.003392,0.71461 0.137026,-0.0848 0.118488,-2.70962 -0.02028,-2.88339 -0.06062,-0.0761 -0.366131,-0.28527 -0.678882,-0.46529 -0.638192,-0.36731 -0.664782,-0.36715 -1.680277,0.0113 -0.620191,0.23022 -0.749452,0.24593 -2.072528,0.24835 -1.367516,0.002 -1.436372,-0.006 -2.229991,-0.28332 l -0.818897,-0.286 -0.707163,0.41086 c -0.388942,0.22589 -0.744718,0.48108 -0.790616,0.56686 -0.04592,0.0857 -0.08344,0.71537 -0.08344,1.39919 0,0.99797 0.02488,1.25279 0.126404,1.29174 0.157447,0.0603 0.905595,-0.36921 1.022127,-0.58694 0.04739,-0.0885 0.0862,-0.57804 0.0862,-1.08767 0,-0.95796 0.0901,-1.20675 0.322052,-0.88956 0.07719,0.10547 0.118894,0.4201 0.118894,0.89644 v 0.73386 l 0.360543,-0.0576 c 0.341277,-0.0546 0.358954,-0.0466 0.330725,0.14961 -0.02299,0.16068 -0.280994,0.35508 -1.148549,0.86561 -1.145685,0.67416 -1.30229,0.84178 -1.171412,1.25421 0.05178,0.16311 0.145382,0.16933 2.186334,0.14688 l 2.132238,-0.0243 z m 2.160723,-4.26226 c 1.798336,-0.58895 3.232202,-1.974 3.804655,-3.6751 0.213148,-0.63339 0.221914,-2.36663 0.01569,-3.09953 -0.356769,-1.26779 -1.453375,-2.62144 -2.672695,-3.2992 -2.477562,-1.37709 -5.596645,-0.9588 -7.541693,1.01144 -1.633552,1.65471 -2.027872,4.11443 -0.994473,6.2034 0.44418,0.89788 1.576714,2.0172 2.500652,2.47147 1.097382,0.53953 1.794387,0.68664 3.079941,0.64999 0.892823,-0.0243 1.236549,-0.0756 1.807951,-0.26241 z m -2.425303,-0.51429 c -0.478805,-0.10703 -0.703657,-0.2876 -0.549872,-0.44139 0.07642,-0.0766 0.231706,-0.0808 0.585546,-0.0162 0.356597,0.0647 0.599579,0.0571 0.936494,-0.0291 0.48231,-0.12329 0.615302,-0.0987 0.615302,0.11422 0,0.28859 -0.958357,0.51378 -1.58747,0.37302 z m -1.706091,-2.08738 c -0.189693,-0.20965 -0.184796,-0.3936 0.01543,-0.57471 0.232894,-0.21073 0.518062,-0.17963 0.684657,0.0743 0.133834,0.20423 0.133834,0.23669 0,0.44096 -0.171756,0.26213 -0.491832,0.2892 -0.699982,0.0593 z m 3.421615,-0.14148 c -0.271481,-0.41435 0.198702,-0.82027 0.625904,-0.54036 0.247452,0.16205 0.279238,0.41467 0.07757,0.61634 -0.207737,0.20776 -0.541169,0.17179 -0.703478,-0.0761 z"
       id="path4006-5"
       inkscape:connector-curvature="0" />
  </g>
  <path
     d="m 18.088377,366.96059 v -9.54424 h 1.874995 l 3.90624,6.37368 v -6.37368 h 1.79036 v 9.54424 h -1.933589 l -3.847646,-6.22394 v 6.22394 z m 13.60022,-2.20051 1.82292,0.30599 q -0.35156,1.0026 -1.11328,1.52994 -0.75521,0.52083 -1.89453,0.52083 -1.80338,0 -2.669262,-1.17838 -0.683592,-0.94401 -0.683592,-2.38281 0,-1.71874 0.898435,-2.68879 0.898439,-0.97656 2.272129,-0.97656 1.54297,0 2.43489,1.02213 0.89193,1.01562 0.85286,3.11848 h -4.58332 q 0.0195,0.8138 0.44271,1.26953 0.42317,0.44922 1.05468,0.44922 0.42969,0 0.72266,-0.23438 0.29297,-0.23437 0.4427,-0.7552 z m 0.10417,-1.84896 q -0.0195,-0.79426 -0.41015,-1.20442 -0.39063,-0.41667 -0.95052,-0.41667 -0.59896,0 -0.98958,0.4362 -0.39063,0.4362 -0.38412,1.18489 z m 9.64841,4.04947 h -1.69921 v -1.01562 q -0.42318,0.59245 -1.0026,0.88542 -0.57292,0.28645 -1.15885,0.28645 -1.19141,0 -2.04427,-0.95703 -0.84635,-0.96354 -0.84635,-2.68228 0,-1.75781 0.82682,-2.66926 0.82682,-0.91797 2.08984,-0.91797 1.15885,0 2.0052,0.96354 v -3.43749 h 1.82942 z m -4.88279,-3.60676 q 0,1.10677 0.30598,1.60156 0.44271,0.71614 1.23698,0.71614 0.63151,0 1.07422,-0.53385 0.4427,-0.54036 0.4427,-1.60807 0,-1.1914 -0.42968,-1.71223 -0.42969,-0.52735 -1.10026,-0.52735 -0.65104,0 -1.09375,0.52084 -0.4362,0.51432 -0.43619,1.54296 z m 6.70571,3.60676 v -9.54424 h 4.05598 q 1.52994,0 2.22004,0.26041 0.69661,0.25391 1.11328,0.91146 0.41667,0.65755 0.41667,1.5039 0,1.07422 -0.63151,1.77734 -0.63151,0.69661 -1.88802,0.8789 0.625,0.36459 1.02864,0.80078 0.41016,0.4362 1.10026,1.54948 l 1.16536,1.86197 h -2.30468 l -1.39322,-2.07681 q -0.74219,-1.11328 -1.01563,-1.39974 -0.27343,-0.29297 -0.57942,-0.39713 -0.30599,-0.11068 -0.97005,-0.11068 h -0.39062 v 3.98436 z m 1.92708,-5.5078 h 1.42577 q 1.38672,0 1.73177,-0.11718 0.34505,-0.11719 0.54036,-0.40365 0.19531,-0.28645 0.19531,-0.71614 0,-0.48177 -0.26041,-0.77474 -0.25391,-0.29948 -0.72266,-0.3776 -0.23437,-0.0326 -1.40624,-0.0326 h -1.5039 z m 12.23304,5.5078 v -1.03515 q -0.37761,0.55338 -0.9961,0.87239 -0.61197,0.31901 -1.29556,0.31901 -0.69662,0 -1.25,-0.30599 -0.55339,-0.30598 -0.80078,-0.85937 -0.2474,-0.55338 -0.2474,-1.52994 v -4.37499 h 1.82943 v 3.17707 q 0,1.45833 0.0977,1.79036 0.10416,0.32552 0.37109,0.52084 0.26693,0.1888 0.67708,0.1888 0.46875,0 0.83984,-0.25391 0.3711,-0.26041 0.50781,-0.63802 0.13672,-0.38411 0.13672,-1.86848 v -2.91666 h 1.82942 v 6.91404 z m 2.94921,-1.97265 1.83593,-0.27995 q 0.11719,0.53386 0.47526,0.81381 0.35807,0.27343 1.0026,0.27343 0.70963,0 1.06771,-0.26041 0.24088,-0.1823 0.24088,-0.48828 0,-0.20834 -0.13021,-0.34506 -0.13672,-0.1302 -0.61198,-0.24088 -2.21353,-0.48828 -2.80598,-0.89193 -0.82031,-0.55989 -0.82031,-1.55598 0,-0.89844 0.70964,-1.51041 0.70963,-0.61198 2.20051,-0.61198 1.41927,0 2.10937,0.46224 0.6901,0.46224 0.95052,1.36718 l -1.72526,0.31901 q -0.11067,-0.40364 -0.42317,-0.61849 -0.30599,-0.21484 -0.87891,-0.21484 -0.72265,0 -1.03515,0.20182 -0.20833,0.14323 -0.20833,0.37109 0,0.19532 0.18229,0.33204 0.24739,0.18229 1.70572,0.51432 1.46484,0.33203 2.04427,0.8138 0.57291,0.48828 0.57291,1.36067 0,0.95052 -0.79427,1.63411 -0.79426,0.68359 -2.35025,0.68359 -1.41276,0 -2.23958,-0.57291 -0.82031,-0.57292 -1.07421,-1.55599 z m 9.88278,-7.57159 v 3.5091 q 0.88542,-1.03515 2.11589,-1.03515 0.6315,0 1.13932,0.23437 0.50781,0.23438 0.76171,0.59896 0.26042,0.36458 0.35156,0.80729 0.0977,0.44271 0.0977,1.37369 v 4.05598 h -1.82942 v -3.65233 q 0,-1.08724 -0.10417,-1.38021 -0.10416,-0.29296 -0.37109,-0.46223 -0.26041,-0.17579 -0.65755,-0.17579 -0.45573,0 -0.8138,0.22136 -0.35807,0.22135 -0.52734,0.67057 -0.16276,0.44271 -0.16276,1.3151 v 3.46353 h -1.82942 v -9.54424 z"
     id="text1"
     style="font-weight:bold;font-size:13.3333px;font-family:Arial;-inkscape-font-specification:'Arial Bold';text-align:center;text-anchor:middle;fill:#ff7e79;stroke-width:1.002"
     aria-label="NedRush" />
</svg>
