<?xml version="1.0" encoding="UTF-8" standalone="no"?>
<svg
   width="120"
   height="380"
   viewBox="0 0 120 380"
   version="1.1"
   id="svg1"
   sodipodi:docname="CosmoDelay.svg"
   inkscape:version="1.3.2 (091e20e, 2023-11-25)"
   xmlns:inkscape="http://www.inkscape.org/namespaces/inkscape"
   xmlns:sodipodi="http://sodipodi.sourceforge.net/DTD/sodipodi-0.dtd"
   xmlns="http://www.w3.org/2000/svg"
   xmlns:svg="http://www.w3.org/2000/svg">
  <sodipodi:namedview
     id="namedview1"
     pagecolor="#ffffff"
     bordercolor="#000000"
     borderopacity="0.25"
     inkscape:showpageshadow="2"
     inkscape:pageopacity="0.0"
     inkscape:pagecheckerboard="0"
     inkscape:deskcolor="#d1d1d1"
     inkscape:zoom="2.7394737"
     inkscape:cx="60.04803"
     inkscape:cy="219.20269"
     inkscape:window-width="1392"
     inkscape:window-height="1212"
     inkscape:window-x="1619"
     inkscape:window-y="594"
     inkscape:window-maximized="0"
     inkscape:current-layer="svg1" />
  <defs
     id="defs1">
    <style
       id="style1">
      .panel { fill: #404040; }
      .accent { fill: #2a2a2a; }
      .title { font-family: Arial, sans-serif; font-size: 14px; font-weight: bold; fill: #ff8a7f; text-anchor: middle; letter-spacing: 0.7px; }
      .tiny { font-family: Arial, sans-serif; font-size: 6.2px; fill: #dadada; text-anchor: middle; letter-spacing: 0.35px; }
      .subtle { font-family: Arial, sans-serif; font-size: 5.6px; fill: #a8a8a8; text-anchor: middle; }
      .line { stroke: #5b5b5b; stroke-width: 0.9; }
    </style>
  </defs>
  <rect
     class="accent"
     x="0"
     y="378"
     width="120"
     height="2"
     id="bottom" />
  <rect
     class="panel"
     x="0"
     y="0"
     width="120"
     height="380"
     id="rect1"
     style="fill:#434343;fill-opacity:1" />
  <path
     d="m 12.459473,20.31543 1.961914,0.62207 q -0.451172,1.640625 -1.503906,2.44043 -1.045899,0.792968 -2.65918,0.792968 -1.9960939,0 -3.2812502,-1.360351 -1.2851562,-1.367188 -1.2851562,-3.732422 0,-2.501953 1.2919922,-3.882812 1.2919922,-1.387696 3.3974612,-1.387696 1.838867,0 2.987304,1.086914 0.683594,0.642578 1.025391,1.845703 l -2.00293,0.478516 q -0.177734,-0.779297 -0.745117,-1.230469 -0.560547,-0.451172 -1.367187,-0.451172 -1.1142582,0 -1.8115238,0.799805 -0.6904297,0.799805 -0.6904297,2.59082 0,1.900391 0.6835938,2.707032 0.6835937,0.80664 1.7773437,0.80664 0.806641,0 1.387695,-0.512695 0.581055,-0.512695 0.833985,-1.613281 z m 3.988085,-1.264649 q 0,-1.53125 0.458008,-2.570312 0.341797,-0.765625 0.929688,-1.374024 0.594726,-0.608398 1.298828,-0.902343 0.936523,-0.396485 2.160156,-0.396485 2.214844,0 3.541016,1.374024 1.333008,1.374023 1.333008,3.821289 0,2.426757 -1.319336,3.800781 -1.319336,1.367187 -3.527344,1.367187 -2.235352,0 -3.554688,-1.360351 -1.319336,-1.367188 -1.319336,-3.759766 z m 2.084961,-0.06836 q 0,1.702148 0.786133,2.583984 0.786133,0.875 1.996094,0.875 1.209961,0 1.982422,-0.868164 0.779297,-0.875 0.779297,-2.618164 0,-1.722656 -0.758789,-2.570312 -0.751953,-0.847657 -2.00293,-0.847657 -1.250977,0 -2.016602,0.861328 -0.765625,0.854493 -0.765625,2.583985 z m 9.402149,1.756836 1.96875,-0.191406 q 0.177734,0.99121 0.717773,1.456054 0.546875,0.464844 1.469727,0.464844 0.977539,0 1.469726,-0.410156 0.499024,-0.416992 0.499024,-0.970703 0,-0.355469 -0.211914,-0.601563 -0.205079,-0.25293 -0.72461,-0.4375 -0.355469,-0.123047 -1.620117,-0.4375 -1.626953,-0.40332 -2.283203,-0.991211 -0.922852,-0.827148 -0.922852,-2.016601 0,-0.765625 0.430664,-1.428711 0.4375,-0.669922 1.250977,-1.018555 0.820312,-0.348633 1.975586,-0.348633 1.886719,0 2.836914,0.827149 0.957031,0.827148 1.004883,2.208007 l -2.023438,0.08887 q -0.129883,-0.772461 -0.560547,-1.107422 -0.423828,-0.341797 -1.27832,-0.341797 -0.881836,0 -1.380859,0.362305 -0.321289,0.232421 -0.321289,0.62207 0,0.355469 0.300781,0.608398 0.382812,0.321289 1.859375,0.669922 1.476562,0.348633 2.180664,0.72461 0.710937,0.36914 1.107422,1.018554 0.40332,0.642578 0.40332,1.592774 0,0.861328 -0.478515,1.613281 -0.478516,0.751953 -1.353516,1.121094 -0.875,0.362304 -2.180664,0.362304 -1.900391,0 -2.918945,-0.875 -1.018555,-0.881836 -1.216797,-2.563476 z M 38.457909,24 V 13.978516 h 3.02832 l 1.818359,6.835937 1.797852,-6.835937 h 3.035156 V 24 H 46.257713 V 16.111328 L 44.268456,24 H 42.320213 L 40.337792,16.111328 V 24 Z m 11.979297,-4.949219 q 0,-1.53125 0.458008,-2.570312 0.341797,-0.765625 0.929688,-1.374024 0.594726,-0.608398 1.298828,-0.902343 0.936523,-0.396485 2.160156,-0.396485 2.214844,0 3.541016,1.374024 1.333007,1.374023 1.333007,3.821289 0,2.426757 -1.319335,3.800781 -1.319336,1.367187 -3.527344,1.367187 -2.235352,0 -3.554688,-1.360351 -1.319336,-1.367188 -1.319336,-3.759766 z m 2.084961,-0.06836 q 0,1.702148 0.786133,2.583984 0.786133,0.875 1.996094,0.875 1.209961,0 1.982422,-0.868164 0.779297,-0.875 0.779297,-2.618164 0,-1.722656 -0.758789,-2.570312 -0.751954,-0.847657 -2.00293,-0.847657 -1.250977,0 -2.016602,0.861328 -0.765625,0.854493 -0.765625,2.583985 z m 14.497658,-5.003906 h 3.698242 q 1.250977,0 1.907227,0.191406 0.881836,0.259766 1.510742,0.922851 0.628906,0.663086 0.957031,1.626954 0.328125,0.957031 0.328125,2.365234 0,1.237305 -0.307617,2.132812 -0.375977,1.09375 -1.073242,1.770508 -0.526367,0.512696 -1.421875,0.799805 Q 71.948536,24 70.827442,24 h -3.807617 z m 2.023438,1.695312 v 6.637695 h 1.510742 q 0.847656,0 1.223633,-0.0957 0.492187,-0.123047 0.813476,-0.416992 0.328125,-0.293945 0.533203,-0.963867 0.205078,-0.676758 0.205078,-1.838867 0,-1.16211 -0.205078,-1.78418 -0.205078,-0.62207 -0.574219,-0.970703 -0.36914,-0.348633 -0.936523,-0.47168 -0.423828,-0.0957 -1.661133,-0.0957 z M 77.837013,24 V 13.978516 h 7.430664 v 1.695312 h -5.407226 v 2.22168 h 5.03125 v 1.688476 h -5.03125 v 2.727539 h 5.598633 V 24 Z m 10.092575,0 v -9.939453 h 2.023438 v 8.250976 h 5.03125 V 24 Z m 18.234182,0 h -2.20117 l -0.875,-2.276367 H 99.081741 L 98.254593,24 h -2.146484 l 3.903321,-10.021484 h 2.13965 z m -3.72558,-3.964844 -1.38086,-3.71875 -1.353518,3.71875 z M 109.28369,24 v -4.217773 l -3.6709,-5.803711 h 2.37207 l 2.3584,3.964843 2.31055,-3.964843 h 2.33105 l -3.68457,5.817382 V 24 Z"
     id="title"
     class="title"
     style="font-weight:bold;font-size:14px;font-family:Arial, sans-serif;letter-spacing:0.7px;text-anchor:middle;fill:#ff8a7f"
     aria-label="COSMO DELAY" />
  <path
     d="m 24.881055,34.712109 0.500391,-0.04375 q 0.03555,0.300782 0.164062,0.494922 0.13125,0.191407 0.404688,0.311719 0.273437,0.117578 0.615234,0.117578 0.303516,0 0.535938,-0.09023 0.232422,-0.09023 0.344531,-0.246094 0.114844,-0.158594 0.114844,-0.344531 0,-0.188672 -0.109375,-0.328125 -0.109375,-0.142188 -0.360938,-0.237891 -0.161328,-0.06289 -0.713672,-0.19414 Q 25.824415,34.017578 25.60293,33.9 25.315821,33.749609 25.173633,33.528125 25.03418,33.303906 25.03418,33.027734 q 0,-0.303515 0.172266,-0.566015 0.172266,-0.265235 0.503125,-0.401953 0.330859,-0.136719 0.735547,-0.136719 0.445703,0 0.784765,0.144922 0.341797,0.142187 0.525,0.421094 0.183203,0.278906 0.196875,0.63164 l -0.508593,0.03828 q -0.04102,-0.380078 -0.278907,-0.574218 -0.235156,-0.194141 -0.697265,-0.194141 -0.48125,0 -0.702735,0.177734 -0.21875,0.175 -0.21875,0.423829 0,0.216015 0.15586,0.355468 0.153125,0.139453 0.798437,0.28711 0.648047,0.144922 0.888672,0.254297 0.35,0.161328 0.516797,0.410156 0.166797,0.246094 0.166797,0.56875 0,0.319922 -0.183203,0.604297 -0.183203,0.28164 -0.527735,0.440234 -0.341797,0.155859 -0.771093,0.155859 -0.544141,0 -0.913282,-0.158593 -0.366406,-0.158594 -0.576953,-0.475782 -0.207812,-0.319921 -0.21875,-0.721875 z M 29.816602,36 v -3.535547 h -1.320703 v -0.473047 h 3.177344 v 0.473047 H 30.347071 V 36 Z m 2.411719,0 v -4.008594 h 2.898437 v 0.473047 H 32.75879 v 1.227735 h 2.217578 V 34.1625 H 32.75879 v 1.364453 h 2.460937 V 36 Z m 3.732422,0 v -4.008594 h 1.777344 q 0.535937,0 0.814844,0.109375 0.278906,0.106641 0.445703,0.380078 0.166797,0.273438 0.166797,0.604297 0,0.426563 -0.276172,0.719141 -0.276172,0.292578 -0.853125,0.371875 0.210547,0.101172 0.319922,0.199609 0.232421,0.213282 0.440234,0.533203 L 39.493556,36 h -0.667188 l -0.530469,-0.833984 q -0.232421,-0.360938 -0.382812,-0.552344 -0.150391,-0.191406 -0.270703,-0.267969 -0.117578,-0.07656 -0.240625,-0.10664 -0.09023,-0.01914 -0.295313,-0.01914 H 36.491212 V 36 Z m 0.530469,-2.239453 h 1.140234 q 0.363672,0 0.56875,-0.07383 0.205078,-0.07656 0.311719,-0.240625 0.106641,-0.166797 0.106641,-0.360938 0,-0.284375 -0.207813,-0.467578 -0.205078,-0.183203 -0.650781,-0.183203 h -1.26875 z M 40.007617,36 v -4.008594 h 2.898438 v 0.473047 h -2.367969 v 1.227735 h 2.217578 V 34.1625 h -2.217578 v 1.364453 h 2.460938 V 36 Z m 3.562892,-1.952344 q 0,-0.998047 0.535937,-1.561328 0.535938,-0.566015 1.383594,-0.566015 0.555078,0 1.000781,0.265234 0.445703,0.265234 0.678125,0.741016 0.235156,0.473046 0.235156,1.074609 0,0.609766 -0.246093,1.091016 -0.246094,0.48125 -0.697266,0.730078 -0.451172,0.246093 -0.973437,0.246093 -0.566016,0 -1.011719,-0.273437 -0.445703,-0.273438 -0.675391,-0.746484 -0.229687,-0.473047 -0.229687,-1.000782 z m 0.546875,0.0082 q 0,0.72461 0.388281,1.142969 0.391016,0.415625 0.978906,0.415625 0.598828,0 0.984375,-0.421094 0.388281,-0.421093 0.388281,-1.194921 0,-0.489454 -0.166796,-0.853125 -0.164063,-0.366407 -0.483985,-0.566016 -0.317187,-0.202344 -0.713672,-0.202344 -0.563281,0 -0.970703,0.388281 -0.404687,0.385547 -0.404687,1.290625 z M 49.670899,36 v -4.008594 h 2.704297 v 0.473047 h -2.173828 v 1.241406 h 1.88125 v 0.473047 h -1.88125 V 36 Z m 3.483595,0 v -4.008594 h 0.530468 V 36 Z m 1.443749,0 v -4.008594 h 0.530469 v 3.535547 H 57.10293 V 36 Z m 3.740626,0 v -3.535547 h -1.320703 v -0.473047 h 3.177344 v 0.473047 H 58.869338 V 36 Z m 2.411716,0 v -4.008594 h 2.898437 v 0.473047 h -2.367968 v 1.227735 h 2.217578 V 34.1625 h -2.217578 v 1.364453 h 2.460937 V 36 Z m 3.732423,0 v -4.008594 h 1.777343 q 0.535938,0 0.814844,0.109375 0.278906,0.106641 0.445703,0.380078 0.166797,0.273438 0.166797,0.604297 0,0.426563 -0.276172,0.719141 -0.276172,0.292578 -0.853125,0.371875 0.210547,0.101172 0.319922,0.199609 0.232422,0.213282 0.440234,0.533203 L 68.01582,36 h -0.667187 l -0.530469,-0.833984 q -0.232422,-0.360938 -0.382813,-0.552344 -0.15039,-0.191406 -0.270703,-0.267969 -0.117578,-0.07656 -0.240625,-0.10664 -0.09023,-0.01914 -0.295312,-0.01914 H 65.013476 V 36 Z m 0.530468,-2.239453 h 1.140235 q 0.363672,0 0.56875,-0.07383 0.205078,-0.07656 0.311718,-0.240625 0.106641,-0.166797 0.106641,-0.360938 0,-0.284375 -0.207812,-0.467578 -0.205079,-0.183203 -0.650782,-0.183203 h -1.26875 z M 68.529882,36 v -4.008594 h 2.898437 v 0.473047 h -2.367968 v 1.227735 h 2.217578 V 34.1625 h -2.217578 v 1.364453 h 2.460937 V 36 Z m 3.724219,0 v -4.008594 h 1.38086 q 0.467578,0 0.713672,0.05742 0.344531,0.0793 0.58789,0.28711 0.317188,0.267968 0.473047,0.686328 0.158594,0.415625 0.158594,0.951562 0,0.456641 -0.106641,0.809375 -0.10664,0.352735 -0.273437,0.585156 -0.166797,0.229688 -0.366407,0.363672 -0.196875,0.13125 -0.478515,0.19961 Q 74.064258,36 73.700586,36 Z m 0.530469,-0.473047 h 0.855859 q 0.396485,0 0.620704,-0.07383 0.226953,-0.07383 0.360937,-0.207812 0.188672,-0.188672 0.292578,-0.50586 0.106641,-0.319922 0.106641,-0.773828 0,-0.628906 -0.207813,-0.965234 -0.205078,-0.339063 -0.50039,-0.453907 -0.213282,-0.08203 -0.686328,-0.08203 H 72.78457 Z M 77.8541,36 v -4.008594 h 1.380859 q 0.467578,0 0.713672,0.05742 0.344531,0.0793 0.587891,0.28711 0.317187,0.267968 0.473047,0.686328 0.158593,0.415625 0.158593,0.951562 0,0.456641 -0.10664,0.809375 -0.106641,0.352735 -0.273438,0.585156 -0.166797,0.229688 -0.366406,0.363672 -0.196875,0.13125 -0.478516,0.19961 Q 79.664256,36 79.300584,36 Z m 0.530469,-0.473047 h 0.855859 q 0.396484,0 0.620703,-0.07383 0.226953,-0.07383 0.360938,-0.207812 0.188671,-0.188672 0.292578,-0.50586 0.10664,-0.319922 0.10664,-0.773828 0,-0.628906 -0.207812,-0.965234 -0.205078,-0.339063 -0.500391,-0.453907 -0.213281,-0.08203 -0.686328,-0.08203 H 78.384569 Z M 81.909177,36 v -4.008594 h 2.898438 v 0.473047 h -2.367969 v 1.227735 h 2.217578 V 34.1625 h -2.217578 v 1.364453 h 2.460937 V 36 Z m 3.702345,0 v -4.008594 h 0.530468 v 3.535547 h 1.974219 V 36 Z m 2.696093,0 1.539453,-4.008594 h 0.571484 L 92.059177,36 H 91.45488 L 90.987302,34.785938 H 89.31113 L 88.870896,36 Z m 1.15664,-1.646094 H 90.82324 L 90.40488,33.24375 q -0.191406,-0.505859 -0.284375,-0.83125 -0.07656,0.385547 -0.216015,0.765625 z M 93.19668,36 v -1.698047 l -1.544922,-2.310547 h 0.645313 L 93.087305,33.2 q 0.21875,0.339063 0.407422,0.678125 0.180469,-0.314453 0.4375,-0.708203 l 0.776563,-1.178516 h 0.617968 l -1.599609,2.310547 V 36 Z"
     id="subtitle"
     class="subtle"
     style="font-size:5.6px;font-family:Arial, sans-serif;text-anchor:middle;fill:#a8a8a8"
     aria-label="STEREO FILTERED DELAY" />
  <line
     class="line"
     x1="18"
     y1="44"
     x2="102"
     y2="44"
     id="line1" />
  <path
     d="m 39.407813,56 v -4.438086 h 2.994043 v 0.523731 h -2.406738 v 1.374414 h 2.082812 v 0.52373 H 39.995118 V 56 Z m 4.206836,0 v -4.438086 h 0.587305 V 56 Z m 1.948437,0 v -4.438086 h 0.587305 v 3.914356 h 2.185742 V 56 Z m 4.491406,0 v -3.914355 h -1.462207 v -0.523731 h 3.517774 v 0.523731 H 50.641797 V 56 Z m 3.020117,0 v -4.438086 h 3.208985 v 0.523731 h -2.62168 v 1.359277 h 2.455176 v 0.520703 h -2.455176 v 1.510645 h 2.724609 V 56 Z m 4.482326,0 v -4.438086 h 1.967773 q 0.593359,0 0.902148,0.121094 0.308789,0.118066 0.493457,0.420801 0.184668,0.302734 0.184668,0.669043 0,0.472265 -0.305761,0.796191 -0.305762,0.323926 -0.944532,0.411719 0.233106,0.112011 0.3542,0.220996 0.257324,0.236133 0.487402,0.590332 L 61.468263,56 h -0.738672 l -0.587305,-0.92334 q -0.257324,-0.399609 -0.423828,-0.611523 -0.166504,-0.211914 -0.299707,-0.29668 -0.130176,-0.08477 -0.266406,-0.118066 -0.0999,-0.02119 -0.326953,-0.02119 H 58.144239 V 56 Z m 0.587304,-2.479394 h 1.262403 q 0.402636,0 0.629687,-0.08174 0.227051,-0.08477 0.345117,-0.266406 0.118067,-0.184668 0.118067,-0.399609 0,-0.314844 -0.230078,-0.517676 -0.227051,-0.202832 -0.720508,-0.202832 H 58.144239 Z M 65.465038,56 v -3.914355 h -1.462206 v -0.523731 h 3.517773 v 0.523731 H 66.052343 V 56 Z m 4.258301,0 V 54.12002 L 68.01289,51.561914 h 0.714453 L 69.602246,52.9 q 0.242187,0.375391 0.451074,0.750781 0.199804,-0.348144 0.484375,-0.784082 l 0.859765,-1.304785 h 0.68418 L 70.310644,54.12002 V 56 Z m 3.235061,0 v -4.438086 h 1.674121 q 0.441992,0 0.675097,0.04238 0.326954,0.05449 0.54795,0.208887 0.220996,0.151367 0.354199,0.426855 0.13623,0.275488 0.13623,0.605469 0,0.566113 -0.360254,0.959668 -0.360253,0.390527 -1.301757,0.390527 H 73.545704 V 56 Z m 0.587304,-2.328027 h 1.147364 q 0.56914,0 0.8083,-0.211914 0.239161,-0.211914 0.239161,-0.596387 0,-0.278516 -0.142286,-0.475293 -0.139257,-0.199805 -0.369335,-0.263379 -0.14834,-0.03936 -0.54795,-0.03936 H 73.545704 Z M 77.455861,56 v -4.438086 h 3.208984 v 0.523731 h -2.62168 v 1.359277 h 2.455176 v 0.520703 h -2.455176 v 1.510645 h 2.72461 V 56 Z"
     id="l1"
     class="tiny"
     style="font-size:6.2px;font-family:Arial, sans-serif;letter-spacing:0.35px;text-anchor:middle;fill:#dadada"
     aria-label="FILTER TYPE" />
  <path
     d="m 42.57417,106 v -4.43809 h 2.994043 v 0.52373 h -2.406738 v 1.37442 h 2.082813 v 0.52373 H 43.161475 V 106 Z m 4.119043,0 v -4.43809 h 3.208985 v 0.52373 h -2.62168 v 1.35928 h 2.455176 v 0.52071 h -2.455176 v 1.51064 h 2.724609 V 106 Z m 4.485352,0 v -4.43809 h 3.208984 v 0.52373 H 51.76587 v 1.35928 h 2.455175 v 0.52071 H 51.76587 v 1.51064 h 2.724609 V 106 Z m 4.473242,0 v -4.43809 h 1.528809 q 0.517675,0 0.790136,0.0636 0.381446,0.0878 0.650879,0.31787 0.351172,0.29668 0.523731,0.75986 0.175586,0.46016 0.175586,1.05352 0,0.50556 -0.118067,0.89609 -0.118066,0.39053 -0.302734,0.64785 -0.184668,0.2543 -0.405664,0.40264 -0.217969,0.14531 -0.529785,0.221 Q 57.655909,106 57.253272,106 Z m 0.587305,-0.52373 h 0.947558 q 0.438965,0 0.687207,-0.0817 0.25127,-0.0817 0.39961,-0.23008 0.208886,-0.20888 0.323926,-0.56006 0.118066,-0.35419 0.118066,-0.85673 0,-0.69629 -0.230078,-1.06866 -0.227051,-0.37539 -0.554004,-0.50254 -0.236133,-0.0908 -0.759863,-0.0908 H 56.239112 Z M 60.455031,106 v -4.43809 h 1.665039 q 0.508593,0 0.814355,0.13623 0.308789,0.13321 0.481348,0.41475 0.175586,0.27852 0.175586,0.58428 0,0.28457 -0.154395,0.53584 -0.154394,0.25127 -0.466211,0.40566 0.402637,0.11807 0.617578,0.40264 0.217969,0.28457 0.217969,0.67207 0,0.31182 -0.133203,0.58125 -0.130176,0.26641 -0.323926,0.41172 -0.19375,0.14531 -0.487402,0.22099 Q 62.571144,106 62.147316,106 Z m 0.587304,-2.57324 h 0.959668 q 0.390528,0 0.560059,-0.0515 0.224023,-0.0666 0.336035,-0.22099 0.115039,-0.1544 0.115039,-0.3875 0,-0.221 -0.105957,-0.3875 -0.105957,-0.16953 -0.302734,-0.23008 -0.196778,-0.0636 -0.675098,-0.0636 h -0.887012 z m 0,2.04951 h 1.104981 q 0.28457,0 0.399609,-0.0212 0.202832,-0.0363 0.339063,-0.1211 0.13623,-0.0848 0.224023,-0.24521 0.08779,-0.16348 0.08779,-0.37539 0,-0.24824 -0.127148,-0.42988 -0.127149,-0.18467 -0.3542,-0.25733 -0.224023,-0.0757 -0.647851,-0.0757 h -1.02627 z M 64.477199,106 l 1.704394,-4.43809 h 0.632715 L 68.630714,106 h -0.669043 l -0.517676,-1.34414 H 65.588234 L 65.100831,106 Z m 1.280566,-1.82246 h 1.50459 l -0.463184,-1.2291 q -0.211914,-0.56006 -0.314844,-0.92031 -0.08476,0.42685 -0.23916,0.84765 z m 6.858789,0.26641 0.587305,0.14834 q -0.184668,0.72353 -0.666016,1.10498 -0.47832,0.37841 -1.171582,0.37841 -0.71748,0 -1.168555,-0.29062 -0.448047,-0.29365 -0.684179,-0.84766 -0.233106,-0.554 -0.233106,-1.18974 0,-0.69327 0.263379,-1.20791 0.266406,-0.51768 0.753809,-0.78409 0.490429,-0.26943 1.077734,-0.26943 0.666016,0 1.120117,0.33906 0.454102,0.33907 0.632715,0.95362 l -0.578223,0.13623 q -0.154394,-0.48438 -0.448047,-0.70537 -0.293652,-0.221 -0.738671,-0.221 -0.511621,0 -0.856739,0.24521 -0.342089,0.24522 -0.481347,0.65997 -0.139258,0.41171 -0.139258,0.85068 0,0.56611 0.163476,0.98994 0.166504,0.4208 0.514649,0.62969 0.348144,0.20888 0.753808,0.20888 0.493458,0 0.835547,-0.28457 0.34209,-0.28457 0.463184,-0.84462 z M 74.253174,106 v -4.43809 h 0.587305 v 2.20088 l 2.203906,-2.20088 h 0.796191 L 75.97876,103.36016 77.922314,106 h -0.774999 l -1.580274,-2.24629 -0.726562,0.7084 V 106 Z"
     id="l2"
     class="tiny"
     style="font-size:6.2px;font-family:Arial, sans-serif;letter-spacing:0.35px;text-anchor:middle;fill:#dadada"
     aria-label="FEEDBACK" />
  <path
     d="m 43.780567,156 v -4.43809 h 2.994043 v 0.52373 h -2.406738 v 1.37442 h 2.082812 v 0.52373 H 44.367872 V 156 Z m 4.119043,0 v -4.43809 h 3.208984 v 0.52373 h -2.621679 v 1.35928 h 2.455175 v 0.52071 h -2.455175 v 1.51064 h 2.724609 V 156 Z m 4.485351,0 v -4.43809 h 3.208985 v 0.52373 h -2.62168 v 1.35928 h 2.455176 v 0.52071 h -2.455176 v 1.51064 h 2.724609 V 156 Z m 4.473243,0 v -4.43809 h 1.528808 q 0.517676,0 0.790137,0.0636 0.381445,0.0878 0.650879,0.31787 0.351172,0.29668 0.52373,0.75986 0.175586,0.46016 0.175586,1.05352 0,0.50556 -0.118066,0.89609 -0.118067,0.39053 -0.302735,0.64785 -0.184668,0.2543 -0.405664,0.40264 -0.217968,0.14531 -0.529785,0.221 Q 58.862305,156 58.459668,156 Z m 0.587304,-0.52373 h 0.947559 q 0.438965,0 0.687207,-0.0817 0.251269,-0.0817 0.399609,-0.23008 0.208887,-0.20888 0.323926,-0.56006 0.118066,-0.35419 0.118066,-0.85673 0,-0.69629 -0.230078,-1.06866 -0.227051,-0.37539 -0.554004,-0.50254 -0.236132,-0.0908 -0.759863,-0.0908 H 57.445508 Z M 63.767285,156 v -4.43809 h 1.967774 q 0.593359,0 0.902148,0.1211 0.308789,0.11806 0.493457,0.4208 0.184668,0.30273 0.184668,0.66904 0,0.47227 -0.305762,0.79619 -0.305761,0.32393 -0.944531,0.41172 0.233106,0.11201 0.354199,0.221 0.257325,0.23613 0.487403,0.59033 L 67.678613,156 h -0.738672 l -0.587304,-0.92334 q -0.257324,-0.39961 -0.423828,-0.61152 -0.166504,-0.21192 -0.299707,-0.29668 -0.130176,-0.0848 -0.266407,-0.11807 -0.0999,-0.0212 -0.326953,-0.0212 H 64.35459 V 156 Z m 0.587305,-2.47939 h 1.262402 q 0.402637,0 0.629688,-0.0817 0.22705,-0.0848 0.345117,-0.26641 0.118066,-0.18467 0.118066,-0.39961 0,-0.31484 -0.230078,-0.51767 -0.227051,-0.20284 -0.720508,-0.20284 H 64.35459 Z M 68.597755,156 v -4.43809 h 3.208984 v 0.52373 h -2.62168 v 1.35928 h 2.455176 v 0.52071 h -2.455176 v 1.51064 h 2.72461 V 156 Z m 4.273437,-1.42588 0.554004,-0.0484 q 0.03936,0.33301 0.181641,0.54795 0.145312,0.21192 0.448047,0.34512 0.302734,0.13018 0.681152,0.13018 0.336035,0 0.593359,-0.0999 0.257325,-0.0999 0.381446,-0.27246 0.127148,-0.17558 0.127148,-0.38144 0,-0.20889 -0.121094,-0.36328 -0.121093,-0.15743 -0.399609,-0.26338 -0.178613,-0.0696 -0.790137,-0.21494 -0.611523,-0.14834 -0.856738,-0.27852 -0.317871,-0.1665 -0.475293,-0.41172 -0.154394,-0.24824 -0.154394,-0.554 0,-0.33604 0.190722,-0.62666 0.190723,-0.29366 0.557031,-0.44502 0.366309,-0.15137 0.814356,-0.15137 0.493457,0 0.868847,0.16045 0.378418,0.15742 0.58125,0.46621 0.202832,0.30879 0.217969,0.69932 l -0.563086,0.0424 q -0.04541,-0.4208 -0.308789,-0.63574 -0.260351,-0.21494 -0.771972,-0.21494 -0.532813,0 -0.778028,0.19677 -0.242187,0.19375 -0.242187,0.46924 0,0.23916 0.172558,0.39356 0.169532,0.15439 0.883985,0.31787 0.71748,0.16045 0.983886,0.28154 0.3875,0.17861 0.572168,0.4541 0.184668,0.27246 0.184668,0.62969 0,0.3542 -0.202832,0.66904 -0.202832,0.31182 -0.584277,0.48741 -0.378418,0.17255 -0.853711,0.17255 -0.602441,0 -1.011133,-0.17558 -0.405664,-0.17559 -0.638769,-0.52676 -0.230078,-0.3542 -0.242188,-0.79922 z"
     id="l3"
     class="tiny"
     style="font-size:6.2px;font-family:Arial, sans-serif;letter-spacing:0.35px;text-anchor:middle;fill:#dadada"
     aria-label="FEED RES" />
  <path
     d="m 41.36836,206 v -4.43809 h 2.994043 v 0.52373 h -2.406738 v 1.37442 h 2.082812 v 0.52373 H 41.955665 V 206 Z m 4.119043,0 v -4.43809 h 3.208984 v 0.52373 h -2.621679 v 1.35928 h 2.455175 v 0.52071 h -2.455175 v 1.51064 h 2.724609 V 206 Z m 4.485351,0 v -4.43809 h 3.208985 v 0.52373 h -2.62168 v 1.35928 h 2.455176 v 0.52071 h -2.455176 v 1.51064 h 2.724609 V 206 Z m 4.473243,0 v -4.43809 h 1.528808 q 0.517676,0 0.790137,0.0636 0.381445,0.0878 0.650879,0.31787 0.351172,0.29668 0.52373,0.75986 0.175586,0.46016 0.175586,1.05352 0,0.50556 -0.118066,0.89609 -0.118067,0.39053 -0.302735,0.64785 -0.184668,0.2543 -0.405664,0.40264 -0.217968,0.14531 -0.529785,0.221 Q 56.450098,206 56.047461,206 Z m 0.587304,-0.52373 h 0.947559 q 0.438965,0 0.687207,-0.0817 0.251269,-0.0817 0.399609,-0.23008 0.208887,-0.20888 0.323926,-0.56006 0.118066,-0.35419 0.118066,-0.85673 0,-0.69629 -0.230078,-1.06866 -0.22705,-0.37539 -0.554004,-0.50254 -0.236132,-0.0908 -0.759863,-0.0908 H 55.033301 Z M 61.37627,206 v -4.43809 h 2.994043 v 0.52373 h -2.406739 v 1.37442 h 2.082813 v 0.52373 H 61.963574 V 206 Z m 4.116015,0 v -4.43809 h 1.967774 q 0.593359,0 0.902148,0.1211 0.308789,0.11806 0.493457,0.4208 0.184668,0.30273 0.184668,0.66904 0,0.47227 -0.305762,0.79619 -0.305761,0.32393 -0.944531,0.41172 0.233106,0.11201 0.354199,0.221 0.257325,0.23613 0.487403,0.59033 L 69.403613,206 h -0.738672 l -0.587304,-0.92334 q -0.257324,-0.39961 -0.423828,-0.61152 -0.166504,-0.21192 -0.299707,-0.29668 -0.130176,-0.0848 -0.266407,-0.11807 -0.0999,-0.0212 -0.326953,-0.0212 H 66.07959 V 206 Z m 0.587305,-2.47939 h 1.262402 q 0.402637,0 0.629688,-0.0817 0.227051,-0.0848 0.345117,-0.26641 0.118066,-0.18467 0.118066,-0.39961 0,-0.31484 -0.230078,-0.51767 -0.227051,-0.20284 -0.720508,-0.20284 H 66.07959 Z M 70.322755,206 v -4.43809 h 3.208984 v 0.52373 H 70.91006 v 1.35928 h 2.455175 v 0.52071 H 70.91006 v 1.51064 h 2.724609 V 206 Z m 7.836619,-0.47529 q 0.408691,0.28154 0.753808,0.41172 l -0.172558,0.40869 q -0.47832,-0.17256 -0.953613,-0.54492 -0.493457,0.27548 -1.089844,0.27548 -0.602441,0 -1.092871,-0.29062 -0.49043,-0.29063 -0.756836,-0.81738 -0.263379,-0.52676 -0.263379,-1.18672 0,-0.65694 0.266406,-1.1958 0.266407,-0.53887 0.756836,-0.82041 0.493457,-0.28155 1.101953,-0.28155 0.614551,0 1.108008,0.29366 0.493457,0.29062 0.750781,0.81738 0.260352,0.52373 0.260352,1.18369 0,0.54795 -0.166504,0.98691 -0.166504,0.43594 -0.502539,0.75987 z m -1.292676,-0.75078 q 0.508594,0.14228 0.838574,0.42382 0.517676,-0.47226 0.517676,-1.41982 0,-0.53887 -0.184668,-0.9415 -0.18164,-0.40264 -0.53584,-0.62364 -0.351172,-0.22402 -0.790136,-0.22402 -0.656934,0 -1.089844,0.45107 -0.43291,0.44805 -0.43291,1.34112 0,0.86582 0.426855,1.329 0.429883,0.46318 1.095899,0.46318 0.314843,0 0.593359,-0.11806 -0.275488,-0.17862 -0.58125,-0.2543 z"
     id="l4"
     class="tiny"
     style="font-size:6.2px;font-family:Arial, sans-serif;letter-spacing:0.35px;text-anchor:middle;fill:#dadada"
     aria-label="FEED FREQ" />
  <path
     d="m 53.677637,256 v -3.91436 H 52.21543 v -0.52373 h 3.517773 v 0.52373 H 54.264942 V 256 Z m 3.10791,0 v -4.43809 h 0.587305 V 256 Z m 1.954492,0 v -4.43809 h 0.883984 l 1.050489,3.14239 q 0.145312,0.43896 0.211914,0.65693 0.07568,-0.24219 0.236133,-0.71143 l 1.062597,-3.08789 h 0.790137 V 256 H 62.40918 v -3.71455 L 61.119531,256 h -0.529785 l -1.283594,-3.77812 V 256 Z m 5.544922,0 v -4.43809 h 3.208984 v 0.52373 h -2.621679 v 1.35928 h 2.455175 v 0.52071 h -2.455175 v 1.51064 h 2.724609 V 256 Z"
     id="l5"
     class="tiny"
     style="font-size:6.2px;font-family:Arial, sans-serif;letter-spacing:0.35px;text-anchor:middle;fill:#dadada"
     aria-label="TIME" />
  <path
     d="m 12.919873,318 v -4.43809 h 0.587305 v 3.91436 H 15.69292 V 318 Z m 3.834473,0 v -4.43809 h 3.208984 v 0.52373 h -2.621679 v 1.35928 h 2.455175 v 0.52071 h -2.455175 v 1.51064 H 20.06626 V 318 Z m 4.503515,0 v -4.43809 h 2.994043 v 0.52373 h -2.406738 v 1.37442 h 2.082813 v 0.52373 H 21.845166 V 318 Z m 5.236133,0 v -3.91436 h -1.462207 v -0.52373 h 3.517774 v 0.52373 H 27.081299 V 318 Z m 5.068458,0 v -4.43809 h 0.587305 V 318 Z m 1.9666,0 v -4.43809 h 0.602442 l 2.331054,3.48448 v -3.48448 h 0.563086 V 318 h -0.602441 l -2.331055,-3.4875 V 318 Z"
     id="l6"
     class="tiny"
     style="font-size:6.2px;font-family:Arial, sans-serif;letter-spacing:0.35px;text-anchor:middle;fill:#dadada"
     aria-label="LEFT IN" />
  <path
     d="m 50.713526,318 v -4.43809 h 1.967773 q 0.59336,0 0.902149,0.1211 0.308789,0.11806 0.493457,0.4208 0.184668,0.30273 0.184668,0.66904 0,0.47227 -0.305762,0.79619 -0.305762,0.32393 -0.944531,0.41172 0.233105,0.11201 0.354199,0.221 0.257324,0.23613 0.487402,0.59033 L 54.624854,318 h -0.738672 l -0.587305,-0.92334 q -0.257324,-0.39961 -0.423828,-0.61152 -0.166504,-0.21192 -0.299707,-0.29668 -0.130176,-0.0848 -0.266406,-0.11807 -0.0999,-0.0212 -0.326953,-0.0212 H 51.30083 V 318 Z m 0.587304,-2.47939 h 1.262403 q 0.402636,0 0.629687,-0.0817 0.227051,-0.0848 0.345117,-0.26641 0.118067,-0.18467 0.118067,-0.39961 0,-0.31484 -0.230078,-0.51767 -0.227051,-0.20284 -0.720508,-0.20284 H 51.30083 Z M 55.631787,318 v -4.43809 h 0.587305 V 318 Z m 4.049414,-1.74072 v -0.52071 l 1.879981,-0.003 v 1.64687 q -0.432911,0.34512 -0.893067,0.52071 -0.460156,0.17255 -0.944531,0.17255 -0.653906,0 -1.189746,-0.27851 -0.532813,-0.28154 -0.805274,-0.81133 -0.27246,-0.52979 -0.27246,-1.18369 0,-0.64785 0.269433,-1.20791 0.272461,-0.56309 0.781055,-0.83555 0.508594,-0.27246 1.171582,-0.27246 0.481347,0 0.868847,0.15742 0.390528,0.1544 0.611524,0.43291 0.220996,0.27852 0.336035,0.72657 l -0.529785,0.14531 q -0.0999,-0.33906 -0.248242,-0.53281 -0.14834,-0.19375 -0.423828,-0.30879 -0.275489,-0.11807 -0.611524,-0.11807 -0.402637,0 -0.696289,0.12412 -0.293652,0.12109 -0.475293,0.3209 -0.178613,0.1998 -0.278515,0.43896 -0.169532,0.41172 -0.169532,0.89307 0,0.59336 0.202832,0.99297 0.20586,0.39961 0.596387,0.59336 0.390527,0.19375 0.829492,0.19375 0.381445,0 0.744727,-0.14531 0.363281,-0.14834 0.550976,-0.31485 v -0.82646 z M 62.795166,318 v -4.43809 h 0.587305 v 1.82247 h 2.306836 v -1.82247 h 0.587304 V 318 h -0.587304 v -2.09189 H 63.382471 V 318 Z m 5.938477,0 v -3.91436 h -1.462207 v -0.52373 h 3.517773 v 0.52373 H 69.320947 V 318 Z m 5.068456,0 v -4.43809 h 0.587305 V 318 Z m 1.966603,0 v -4.43809 h 0.602441 l 2.331055,3.48448 v -3.48448 h 0.563086 V 318 h -0.602442 l -2.331054,-3.4875 V 318 Z"
     id="l7"
     class="tiny"
     style="font-size:6.2px;font-family:Arial, sans-serif;letter-spacing:0.35px;text-anchor:middle;fill:#dadada"
     aria-label="RIGHT IN" />
  <path
     d="m 9.30127,374 v -4.43809 h 0.5873047 v 3.91436 H 12.074317 V 374 Z m 3.834472,0 v -4.43809 h 3.208985 v 0.52373 h -2.62168 v 1.35928 h 2.455176 v 0.52071 h -2.455176 v 1.51064 h 2.724609 V 374 Z m 4.503516,0 v -4.43809 h 2.994043 v 0.52373 h -2.406738 v 1.37442 h 2.082812 v 0.52373 H 18.226563 V 374 Z m 5.236133,0 v -3.91436 h -1.462207 v -0.52373 h 3.517773 v 0.52373 H 23.462696 V 374 Z m 4.789942,-2.16152 q 0,-1.10498 0.593359,-1.72862 0.59336,-0.62666 1.531836,-0.62666 0.614551,0 1.108008,0.29366 0.493457,0.29365 0.750781,0.82041 0.260352,0.52373 0.260352,1.18974 0,0.6751 -0.272461,1.20791 -0.272461,0.53281 -0.771973,0.8083 -0.499512,0.27246 -1.077734,0.27246 -0.62666,0 -1.120117,-0.30273 -0.493457,-0.30274 -0.747754,-0.82647 -0.254297,-0.52373 -0.254297,-1.108 z m 0.605469,0.009 q 0,0.80224 0.429882,1.26543 0.432911,0.46015 1.083789,0.46015 0.662989,0 1.089844,-0.46621 0.429883,-0.46621 0.429883,-1.32295 0,-0.54189 -0.184668,-0.94453 -0.181641,-0.40566 -0.53584,-0.62666 -0.351172,-0.22402 -0.790137,-0.22402 -0.623632,0 -1.074707,0.42988 -0.448046,0.42686 -0.448046,1.42891 z m 7.658007,-2.28565 h 0.587304 v 2.56416 q 0,0.66905 -0.151367,1.0626 -0.151367,0.39356 -0.547949,0.6418 -0.393555,0.24521 -1.035352,0.24521 -0.623632,0 -1.020214,-0.21494 -0.396582,-0.21494 -0.566114,-0.6206 -0.169531,-0.40869 -0.169531,-1.11407 v -2.56416 h 0.587305 v 2.56114 q 0,0.57822 0.105957,0.85371 0.108984,0.27246 0.369336,0.4208 0.263379,0.14834 0.641796,0.14834 0.647852,0 0.92334,-0.29365 0.275489,-0.29366 0.275489,-1.1292 z M 38.973143,374 v -3.91436 h -1.462207 v -0.52373 h 3.517774 v 0.52373 H 39.560448 V 374 Z"
     id="l8"
     class="tiny"
     style="font-size:6.2px;font-family:Arial, sans-serif;letter-spacing:0.35px;text-anchor:middle;fill:#dadada"
     aria-label="LEFT OUT" />
  <path
     d="m 47.094922,374 v -4.43809 h 1.967774 q 0.593359,0 0.902148,0.1211 0.308789,0.11806 0.493457,0.4208 0.184668,0.30273 0.184668,0.66904 0,0.47227 -0.305762,0.79619 -0.305761,0.32393 -0.944531,0.41172 0.233106,0.11201 0.354199,0.221 0.257325,0.23613 0.487403,0.59033 L 51.00625,374 h -0.738671 l -0.587305,-0.92334 q -0.257324,-0.39961 -0.423828,-0.61152 -0.166504,-0.21192 -0.299707,-0.29668 -0.130176,-0.0848 -0.266406,-0.11807 -0.0999,-0.0212 -0.326954,-0.0212 H 47.682227 V 374 Z m 0.587305,-2.47939 h 1.262402 q 0.402637,0 0.629688,-0.0817 0.227051,-0.0848 0.345117,-0.26641 0.118066,-0.18467 0.118066,-0.39961 0,-0.31484 -0.230078,-0.51767 -0.22705,-0.20284 -0.720507,-0.20284 H 47.682227 Z M 52.013184,374 v -4.43809 h 0.587305 V 374 Z m 4.049414,-1.74072 v -0.52071 l 1.87998,-0.003 v 1.64687 q -0.43291,0.34512 -0.893066,0.52071 -0.460156,0.17255 -0.944531,0.17255 -0.653907,0 -1.189747,-0.27851 -0.532812,-0.28154 -0.805273,-0.81133 -0.272461,-0.52979 -0.272461,-1.18369 0,-0.64785 0.269434,-1.20791 0.272461,-0.56309 0.781054,-0.83555 0.508594,-0.27246 1.171582,-0.27246 0.481348,0 0.868848,0.15742 0.390527,0.1544 0.611523,0.43291 0.220997,0.27852 0.336036,0.72657 l -0.529786,0.14531 q -0.0999,-0.33906 -0.248242,-0.53281 -0.14834,-0.19375 -0.423828,-0.30879 -0.275488,-0.11807 -0.611523,-0.11807 -0.402637,0 -0.696289,0.12412 -0.293653,0.12109 -0.475293,0.3209 -0.178614,0.1998 -0.278516,0.43896 -0.169531,0.41172 -0.169531,0.89307 0,0.59336 0.202832,0.99297 0.205859,0.39961 0.596387,0.59336 0.390527,0.19375 0.829492,0.19375 0.381445,0 0.744726,-0.14531 0.363282,-0.14834 0.550977,-0.31485 v -0.82646 z M 59.176563,374 v -4.43809 h 0.587305 v 1.82247 h 2.306835 v -1.82247 h 0.587305 V 374 h -0.587305 v -2.09189 H 59.763868 V 374 Z m 5.938476,0 v -3.91436 h -1.462207 v -0.52373 h 3.517774 v 0.52373 H 65.702344 V 374 Z m 4.789941,-2.16152 q 0,-1.10498 0.59336,-1.72862 0.593359,-0.62666 1.531835,-0.62666 0.614551,0 1.108008,0.29366 0.493457,0.29365 0.750781,0.82041 0.260352,0.52373 0.260352,1.18974 0,0.6751 -0.272461,1.20791 -0.272461,0.53281 -0.771973,0.8083 -0.499511,0.27246 -1.077734,0.27246 -0.62666,0 -1.120117,-0.30273 -0.493457,-0.30274 -0.747754,-0.82647 -0.254297,-0.52373 -0.254297,-1.108 z m 0.605469,0.009 q 0,0.80224 0.429883,1.26543 0.43291,0.46015 1.083789,0.46015 0.662988,0 1.089844,-0.46621 0.429882,-0.46621 0.429882,-1.32295 0,-0.54189 -0.184668,-0.94453 -0.18164,-0.40566 -0.535839,-0.62666 -0.351172,-0.22402 -0.790137,-0.22402 -0.623633,0 -1.074707,0.42988 -0.448047,0.42686 -0.448047,1.42891 z m 7.658007,-2.28565 h 0.587305 v 2.56416 q 0,0.66905 -0.151368,1.0626 -0.151367,0.39356 -0.547949,0.6418 -0.393554,0.24521 -1.035351,0.24521 -0.623633,0 -1.020215,-0.21494 -0.396582,-0.21494 -0.566113,-0.6206 -0.169532,-0.40869 -0.169532,-1.11407 v -2.56416 h 0.587305 v 2.56114 q 0,0.57822 0.105957,0.85371 0.108984,0.27246 0.369336,0.4208 0.263379,0.14834 0.641797,0.14834 0.647851,0 0.92334,-0.29365 0.275488,-0.29366 0.275488,-1.1292 z M 81.212793,374 v -3.91436 h -1.462207 v -0.52373 h 3.517773 v 0.52373 H 81.800097 V 374 Z"
     id="l9"
     class="tiny"
     style="font-size:6.2px;font-family:Arial, sans-serif;letter-spacing:0.35px;text-anchor:middle;fill:#dadada"
     aria-label="RIGHT OUT" />
  <circle
     cx="60"
     cy="72"
     r="1.2"
     fill="#7a7a7a"
     id="mark1" />
  <circle
     cx="60"
     cy="122"
     r="1.2"
     fill="#7a7a7a"
     id="mark2" />
  <circle
     cx="60"
     cy="172"
     r="1.2"
     fill="#7a7a7a"
     id="mark3" />
  <circle
     cx="60"
     cy="222"
     r="1.2"
     fill="#7a7a7a"
     id="mark4" />
  <circle
     cx="60"
     cy="272"
     r="1.2"
     fill="#7a7a7a"
     id="mark5" />
  <g
     transform="matrix(1.6722989,0,0,1.6988345,40.618582,-71.544231)"
     id="layer1-7"
     inkscape:label="Layer 1">
    <rect
       y="256.12662"
       x="29.52006"
       height="1.6536458"
       width="7.2760415"
       id="rect823"
       style="fill:#ffffff;fill-opacity:1;stroke:none;stroke-width:0.710598;stroke-miterlimit:4;stroke-dasharray:none;stroke-opacity:1" />
    <rect
       y="256.57309"
       x="28.643627"
       height="0.51248246"
       width="9.0803432"
       id="rect821"
       style="fill:#ffffff;fill-opacity:1;stroke:none;stroke-width:0.176948;stroke-miterlimit:4;stroke-dasharray:none;stroke-opacity:1" />
    <ellipse
       ry="5.8699069"
       rx="6.1973119"
       cy="250.78661"
       cx="33.068214"
       id="path817"
       style="fill:#ffffff;fill-opacity:1;stroke:none;stroke-width:0.294763;stroke-miterlimit:4;stroke-dasharray:none;stroke-opacity:1" />
    <rect
       y="257.08557"
       x="28.265131"
       height="4.3030396"
       width="9.541522"
       id="rect819"
       style="fill:#ffffff;fill-opacity:1;stroke:none;stroke-width:0.236954;stroke-miterlimit:4;stroke-dasharray:none;stroke-opacity:1" />
    <path
       style="fill:#54b6fc;stroke-width:0.434238"
       d="m 28.040353,261.67777 c -0.05624,-0.1049 -0.09132,-1.05343 -0.09132,-2.46939 0,-2.62823 -0.06483,-2.41007 0.868669,-2.92327 0.298327,-0.16393 0.542417,-0.32331 0.542417,-0.35402 0,-0.0309 -0.162318,-0.16826 -0.360716,-0.30583 -1.028016,-0.71241 -2.013971,-2.17766 -2.338877,-3.47584 -0.201325,-0.80442 -0.134174,-2.39054 0.13451,-3.17721 1.033244,-3.02511 4.386038,-4.85502 7.661927,-4.18175 2.136444,0.4391 3.832748,1.7715 4.690824,3.6846 0.361925,0.8069 0.484002,1.41362 0.481552,2.39329 -0.0043,1.76252 -0.804317,3.40089 -2.221636,4.55038 -0.254647,0.20641 -0.463011,0.4065 -0.463011,0.44439 0,0.038 0.188503,0.17638 0.418915,0.30774 0.88078,0.5022 0.815782,0.26078 0.815782,3.02947 0,1.77735 -0.02862,2.465 -0.105831,2.54221 -0.07977,0.0796 -1.316324,0.10568 -5.023888,0.10568 -4.772077,0 -4.920765,-0.006 -5.009351,-0.17069 z m 4.778272,-1.34136 c 0.02029,-0.72066 0.0537,-0.91258 0.172084,-0.98706 0.106484,-0.067 0.185415,-0.0605 0.286623,0.0243 0.110188,0.0915 0.139673,0.2998 0.139673,0.98705 v 0.87111 h 2.031202 c 1.725502,0 2.038854,-0.0189 2.082046,-0.13248 0.118689,-0.30933 -0.0843,-0.54865 -1.048716,-1.23644 -0.806681,-0.57531 -0.992,-0.74828 -0.992,-0.92603 0,-0.17285 0.05069,-0.22425 0.242529,-0.24644 l 0.242526,-0.0279 v -0.72694 c 0,-0.82266 0.11329,-1.0851 0.425635,-0.98597 0.182308,0.0579 0.191777,0.11143 0.193075,1.09112 6.9e-4,0.56673 0.03051,1.07216 0.06615,1.12322 0.107317,0.15365 0.691445,0.5686 0.80071,0.5686 0.07253,0 0.101903,-0.37768 0.101903,-1.30922 0,-1.48548 0.04525,-1.38286 -0.823095,-1.86798 l -0.514419,-0.28745 -0.896236,0.29918 c -0.869904,0.29041 -0.937695,0.2992 -2.307746,0.29891 -1.355532,-2.1e-4 -1.441911,-0.0113 -2.177833,-0.27426 l -0.766317,-0.27401 -0.710913,0.40097 -0.710915,0.40096 v 1.35053 c 0,0.7428 0.02272,1.35058 0.05046,1.35058 0.02775,0 0.226187,-0.10309 0.440962,-0.22887 l 0.390524,-0.22887 0.0014,-0.89557 c 0.0016,-1.14751 0.206306,-1.60144 0.561721,-1.24599 0.108544,0.1085 0.142513,0.31853 0.142513,0.88028 v 0.7378 l 0.290718,-0.0471 c 0.315025,-0.0511 0.543194,0.11558 0.458905,0.33517 -0.02597,0.0676 -0.562393,0.43193 -1.192126,0.80964 -1.113533,0.66789 -1.144968,0.69508 -1.144968,0.9907 v 0.30396 h 2.069441 2.069444 z m 2.265337,-4.35748 c 1.820054,-0.60937 3.301106,-2.14018 3.754405,-3.88051 0.141672,-0.5439 0.182494,-2.03256 0.06101,-2.22398 -0.0547,-0.0862 -0.514454,-0.10647 -1.993182,-0.0881 l -1.922097,0.0243 -0.285943,0.79373 c -0.250451,0.69526 -0.311823,0.79372 -0.494567,0.79372 -0.193669,0 -0.219614,-0.0593 -0.361764,-0.82692 -0.233437,-1.26061 -0.264438,-1.24093 -0.550459,0.34982 -0.250913,1.39568 -0.282965,1.49134 -0.499452,1.49134 -0.208819,0 -0.19843,0.0455 -0.591264,-2.59459 -0.179846,-1.20877 -0.366691,-2.21079 -0.415197,-2.22673 -0.04851,-0.0164 -0.346157,0.47702 -0.661443,1.09535 l -0.573255,1.12428 -1.649981,0.0244 -1.649981,0.0243 -0.05961,0.3176 c -0.100912,0.53789 0.02055,1.63287 0.25608,2.31038 0.480987,1.38307 1.462121,2.47313 2.838905,3.15409 1.070426,0.52942 1.68831,0.6568 2.998555,0.61816 0.870867,-0.027 1.189545,-0.0752 1.799239,-0.27931 z m -2.582339,-0.34598 c -0.501349,-0.14204 -0.612279,-0.23104 -0.568647,-0.45582 0.02803,-0.14447 0.130451,-0.16555 0.868148,-0.17909 0.460004,-0.008 0.975273,-0.0281 1.145044,-0.0441 0.276178,-0.0243 0.311494,-0.006 0.335474,0.20237 0.023,0.19722 -0.02543,0.25187 -0.329357,0.37355 -0.522805,0.20913 -0.965587,0.24078 -1.450662,0.1031 z m -1.6422,-2.07469 c -0.09701,-0.0972 -0.176384,-0.25567 -0.176384,-0.35282 0,-0.24453 0.308426,-0.52913 0.573253,-0.52913 0.264818,0 0.573252,0.28468 0.573252,0.52913 0,0.24455 -0.308429,0.52918 -0.573252,0.52918 -0.121275,0 -0.299857,-0.0793 -0.396869,-0.17636 z m 3.439517,-0.0882 c -0.232761,-0.23267 -0.222508,-0.40285 0.0401,-0.66546 0.243582,-0.24345 0.329798,-0.25996 0.605107,-0.11502 0.242042,0.12748 0.321863,0.24591 0.323575,0.48022 0.0031,0.43406 -0.63668,0.63239 -0.968767,0.30029 z m -1.151475,-4.27736 c 0.296559,-1.78581 0.575578,-1.83207 0.874871,-0.14501 0.09772,0.55084 0.197295,1.02113 0.221263,1.04511 0.08271,0.0828 0.212362,-0.0613 0.273139,-0.30344 0.117052,-0.46642 0.107419,-0.46436 2.176972,-0.46436 2.188984,0 2.146871,0.0162 1.845872,-0.66529 -0.655344,-1.4815 -2.160669,-2.71162 -3.887876,-3.17706 -0.773684,-0.20858 -2.314597,-0.21425 -3.086746,-0.0113 -1.862761,0.48917 -3.433992,1.84034 -4.06194,3.49292 l -0.172218,0.45328 1.47768,-0.0243 1.477684,-0.0244 0.705541,-1.38465 c 0.388047,-0.76156 0.755433,-1.43456 0.816413,-1.4955 0.244962,-0.24482 0.364055,0.12518 0.643002,1.99713 0.151683,1.01798 0.296644,1.88465 0.322123,1.92588 0.102882,0.16637 0.192723,-0.12627 0.374219,-1.21922 z"
       id="path4012-8"
       inkscape:connector-curvature="0" />
    <path
       style="fill:#a0a0a0;stroke-width:0.434238"
       d="m 28.040353,261.67777 c -0.05624,-0.1049 -0.09132,-1.05343 -0.09132,-2.46939 0,-2.62823 -0.06483,-2.41007 0.868669,-2.92327 0.298327,-0.16393 0.542417,-0.32331 0.542417,-0.35402 0,-0.0309 -0.162318,-0.16826 -0.360716,-0.30583 -1.028016,-0.71241 -2.013971,-2.17766 -2.338877,-3.47584 -0.201325,-0.80442 -0.134174,-2.39054 0.13451,-3.17721 1.033244,-3.02511 4.386038,-4.85502 7.661927,-4.18175 2.136444,0.4391 3.832748,1.7715 4.690824,3.6846 0.361925,0.8069 0.484002,1.41362 0.481552,2.39329 -0.0043,1.76252 -0.804317,3.40089 -2.221636,4.55038 -0.254647,0.20641 -0.463011,0.4065 -0.463011,0.44439 0,0.038 0.188503,0.17638 0.418915,0.30774 0.88078,0.5022 0.815782,0.26078 0.815782,3.02947 0,1.77735 -0.02862,2.465 -0.105831,2.54221 -0.07977,0.0796 -1.316324,0.10568 -5.023888,0.10568 -4.772077,0 -4.920765,-0.006 -5.009351,-0.17069 z m 4.778272,-1.34136 c 0.02029,-0.72066 0.0537,-0.91258 0.172084,-0.98706 0.106484,-0.067 0.185415,-0.0605 0.286623,0.0243 0.110188,0.0915 0.139673,0.2998 0.139673,0.98705 v 0.87111 h 2.031202 c 1.725502,0 2.038854,-0.0189 2.082046,-0.13248 0.118689,-0.30933 -0.0843,-0.54865 -1.048716,-1.23644 -0.806681,-0.57531 -0.992,-0.74828 -0.992,-0.92603 0,-0.17285 0.05069,-0.22425 0.242529,-0.24644 l 0.242526,-0.0279 v -0.72694 c 0,-0.82266 0.11329,-1.0851 0.425635,-0.98597 0.182308,0.0579 0.191777,0.11143 0.193075,1.09112 6.9e-4,0.56673 0.03051,1.07216 0.06615,1.12322 0.107317,0.15365 0.691445,0.5686 0.80071,0.5686 0.07253,0 0.101903,-0.37768 0.101903,-1.30922 0,-1.48548 0.04525,-1.38286 -0.823095,-1.86798 l -0.514419,-0.28745 -0.896236,0.29918 c -0.869904,0.29041 -0.937695,0.2992 -2.307746,0.29891 -1.355532,-2.1e-4 -1.441911,-0.0113 -2.177833,-0.27426 l -0.766317,-0.27401 -0.710913,0.40097 -0.710915,0.40096 v 1.35053 c 0,0.7428 0.02272,1.35058 0.05046,1.35058 0.02775,0 0.226187,-0.10309 0.440962,-0.22887 l 0.390524,-0.22887 0.0014,-0.89557 c 0.0016,-1.14751 0.206306,-1.60144 0.561721,-1.24599 0.108544,0.1085 0.142513,0.31853 0.142513,0.88028 v 0.7378 l 0.290718,-0.0471 c 0.315025,-0.0511 0.543194,0.11558 0.458905,0.33517 -0.02597,0.0676 -0.562393,0.43193 -1.192126,0.80964 -1.113533,0.66789 -1.144968,0.69508 -1.144968,0.9907 v 0.30396 h 2.069441 2.069444 z m 2.265337,-4.35748 c 1.403562,-0.46993 2.640938,-1.50058 3.294283,-2.74387 0.429067,-0.81653 0.595175,-1.49004 0.593708,-2.40729 -0.002,-1.2675 0.205601,-1.15 -2.032309,-1.15 -1.442955,0 -1.942613,0.0275 -1.996101,0.11041 -0.03924,0.0606 -0.191398,0.42737 -0.338104,0.81498 -0.382438,1.0104 -0.497129,0.9789 -0.708436,-0.1945 -0.249425,-1.38497 -0.369803,-1.31205 -0.674781,0.40874 -0.236279,1.33315 -0.338408,1.62908 -0.50309,1.45776 -0.04428,-0.0461 -0.22394,-1.07598 -0.399194,-2.28859 -0.378048,-2.61568 -0.375281,-2.60172 -0.515638,-2.60172 -0.06054,0 -0.377093,0.53579 -0.703448,1.19062 l -0.593372,1.1906 h -1.626578 -1.626579 l -0.06131,0.40891 c -0.234007,1.5605 0.483321,3.42764 1.761718,4.58559 0.632883,0.57328 1.868907,1.21483 2.698432,1.40062 0.933964,0.20911 2.512332,0.12546 3.430809,-0.18205 z m -2.582339,-0.34598 c -0.501349,-0.14204 -0.612279,-0.23104 -0.568647,-0.45582 0.02803,-0.14447 0.130451,-0.16555 0.868148,-0.17909 0.460004,-0.008 0.975273,-0.0281 1.145044,-0.0441 0.276178,-0.0243 0.311494,-0.006 0.335474,0.20237 0.023,0.19722 -0.02543,0.25187 -0.329357,0.37355 -0.522805,0.20913 -0.965587,0.24078 -1.450662,0.1031 z m -1.6422,-2.07469 c -0.09701,-0.0972 -0.176384,-0.25567 -0.176384,-0.35282 0,-0.24453 0.308426,-0.52913 0.573253,-0.52913 0.264818,0 0.573252,0.28468 0.573252,0.52913 0,0.24455 -0.308429,0.52918 -0.573252,0.52918 -0.121275,0 -0.299857,-0.0793 -0.396869,-0.17636 z m 3.439517,-0.0882 c -0.232761,-0.23267 -0.222508,-0.40285 0.0401,-0.66546 0.243582,-0.24345 0.329798,-0.25996 0.605107,-0.11502 0.242042,0.12748 0.321863,0.24591 0.323575,0.48022 0.0031,0.43406 -0.63668,0.63239 -0.968767,0.30029 z m -1.097809,-4.10189 c 0.211607,-1.21013 0.333943,-1.55258 0.494567,-1.38443 0.03281,0.0344 0.152225,0.57839 0.265306,1.20896 0.232869,1.29834 0.343523,1.42064 0.618496,0.68352 l 0.172705,-0.46302 h 1.972971 c 1.085132,0 1.99242,-0.0315 2.016195,-0.0698 0.08023,-0.12991 -0.357483,-1.05886 -0.773608,-1.642 -0.728041,-1.02028 -1.981677,-1.859 -3.316077,-2.21859 -0.773686,-0.20857 -2.314601,-0.21426 -3.086747,-0.0113 -1.084749,0.28486 -1.999152,0.80872 -2.786328,1.59624 -0.677355,0.67767 -1.19903,1.50881 -1.403089,2.23545 l -0.05574,0.19856 1.439077,-9.8e-4 c 0.791494,-6.2e-4 1.483847,-0.0306 1.538565,-0.0662 0.05473,-0.0355 0.422055,-0.70973 0.816304,-1.49793 0.672478,-1.34451 0.811339,-1.54707 0.929474,-1.35595 0.02624,0.0426 0.169945,0.92549 0.319337,1.9623 0.278277,1.93132 0.382411,2.3719 0.526552,2.22775 0.04457,-0.0447 0.184959,-0.67541 0.312001,-1.40192 z"
       id="path4010-0"
       inkscape:connector-curvature="0" />
    <path
       style="fill:#179cfd;stroke-width:0.434238"
       d="m 28.084301,261.62139 c -0.09334,-0.2432 -0.06068,-4.53422 0.03585,-4.71459 0.04932,-0.0922 0.366818,-0.32942 0.705541,-0.52725 0.338727,-0.19778 0.615865,-0.39635 0.615865,-0.44114 0,-0.0449 -0.225402,-0.25131 -0.5009,-0.45914 -1.007366,-0.75955 -1.863496,-2.05429 -2.182561,-3.30077 -0.176274,-0.68859 -0.179006,-2.04001 -0.0054,-2.72476 0.07324,-0.28909 0.298305,-0.86296 0.500144,-1.27526 0.293281,-0.59912 0.51896,-0.90166 1.123813,-1.50667 0.628099,-0.62825 0.899287,-0.82698 1.594434,-1.16847 1.206772,-0.59277 1.759323,-0.7188 3.130615,-0.71416 0.806735,0.002 1.311968,0.0495 1.704825,0.15746 3.200698,0.88036 5.194794,3.81447 4.65392,6.84772 -0.248316,1.39251 -1.241594,2.98286 -2.337264,3.74216 -0.198811,0.13767 -0.36148,0.28303 -0.36148,0.3228 0,0.0398 0.277437,0.23428 0.616524,0.43238 0.393273,0.22968 0.633784,0.4307 0.664178,0.55509 0.02625,0.10714 0.03649,1.24673 0.02299,2.53213 l -0.02488,2.33712 -4.951132,0.0216 c -4.457619,0.0215 -4.956494,0.008 -5.004941,-0.11734 z m 4.796794,-1.27231 c 0.04062,-0.85254 0.0581,-0.92604 0.220478,-0.92604 0.162399,0 0.179874,0.0735 0.22048,0.92604 l 0.0441,0.92602 h 2.11542 c 1.979416,0 2.117418,-0.0113 2.146485,-0.16124 0.07415,-0.38501 -0.08786,-0.58193 -1.039039,-1.26279 -0.5321,-0.38086 -0.988888,-0.74572 -1.015085,-0.81071 -0.07133,-0.17694 0.02596,-0.27867 0.266821,-0.27867 0.212067,0 0.215285,-0.0113 0.215285,-0.78294 0,-0.57789 0.03363,-0.81084 0.12842,-0.88952 0.247505,-0.20531 0.312538,-0.006 0.312538,0.96492 0,0.5267 0.02407,1.0201 0.05321,1.09639 0.07569,0.19722 0.895628,0.78122 1.003392,0.71461 0.137026,-0.0848 0.118488,-2.70962 -0.02028,-2.88339 -0.06062,-0.0761 -0.366131,-0.28527 -0.678882,-0.46529 -0.638192,-0.36731 -0.664782,-0.36715 -1.680277,0.0113 -0.620191,0.23022 -0.749452,0.24593 -2.072528,0.24835 -1.367516,0.002 -1.436372,-0.006 -2.229991,-0.28332 l -0.818897,-0.286 -0.707163,0.41086 c -0.388942,0.22589 -0.744718,0.48108 -0.790616,0.56686 -0.04592,0.0857 -0.08344,0.71537 -0.08344,1.39919 0,0.99797 0.02488,1.25279 0.126404,1.29174 0.157447,0.0603 0.905595,-0.36921 1.022127,-0.58694 0.04739,-0.0885 0.0862,-0.57804 0.0862,-1.08767 0,-0.95796 0.0901,-1.20675 0.322052,-0.88956 0.07719,0.10547 0.118894,0.4201 0.118894,0.89644 v 0.73386 l 0.360543,-0.0576 c 0.341277,-0.0546 0.358954,-0.0466 0.330725,0.14961 -0.02299,0.16068 -0.280994,0.35508 -1.148549,0.86561 -1.145685,0.67416 -1.30229,0.84178 -1.171412,1.25421 0.05178,0.16311 0.145382,0.16933 2.186334,0.14688 l 2.132238,-0.0243 z m 2.160723,-4.26226 c 1.769875,-0.57963 3.167996,-1.90262 3.76078,-3.55863 0.192048,-0.53652 0.328288,-2.18171 0.217288,-2.62393 l -0.05685,-0.22641 h -1.977453 c -1.485114,0 -1.995217,0.0273 -2.0488,0.11041 -0.03924,0.0605 -0.191399,0.42736 -0.338105,0.81497 -0.382437,1.0104 -0.497129,0.97892 -0.708437,-0.1945 -0.249424,-1.38497 -0.369803,-1.31205 -0.674782,0.40873 -0.236276,1.33315 -0.338406,1.62909 -0.503087,1.45777 -0.04428,-0.046 -0.223941,-1.07597 -0.399196,-2.28861 -0.378048,-2.61567 -0.375282,-2.6017 -0.515636,-2.6017 -0.06054,0 -0.377094,0.53578 -0.703448,1.19062 l -0.593373,1.19063 h -1.628884 c -1.902339,0 -1.81147,-0.0499 -1.81147,0.99426 0,0.80431 0.255081,1.83651 0.632916,2.56111 0.424332,0.81377 1.610253,1.95985 2.460638,2.37796 1.097382,0.53952 1.794389,0.68665 3.07994,0.64999 0.892825,-0.0244 1.23655,-0.0755 1.807954,-0.26241 z m -2.425303,-0.51429 c -0.478805,-0.10703 -0.703657,-0.2876 -0.549872,-0.44139 0.07642,-0.0766 0.231706,-0.0808 0.585546,-0.0162 0.356597,0.0647 0.599579,0.0571 0.936494,-0.0291 0.48231,-0.12329 0.615302,-0.0987 0.615302,0.11422 0,0.28859 -0.958357,0.51378 -1.58747,0.37302 z m -1.706091,-2.08738 c -0.189693,-0.20965 -0.184796,-0.3936 0.01543,-0.57471 0.232894,-0.21073 0.518062,-0.17963 0.684657,0.0743 0.133834,0.20423 0.133834,0.23669 0,0.44096 -0.171756,0.26213 -0.491832,0.2892 -0.699982,0.0593 z m 3.421615,-0.14148 c -0.271481,-0.41435 0.198702,-0.82027 0.625904,-0.54036 0.247452,0.16205 0.279238,0.41467 0.07757,0.61634 -0.207737,0.20776 -0.541169,0.17179 -0.703478,-0.0761 z m -1.137669,-3.97553 c 0.211606,-1.21013 0.333942,-1.55259 0.494569,-1.38441 0.03282,0.0344 0.152224,0.57837 0.265305,1.20895 0.23276,1.29772 0.34355,1.42057 0.617887,0.68512 l 0.172107,-0.46134 2.000835,-0.0243 c 2.352706,-0.0279 2.281076,0.0162 1.723959,-1.05794 -0.429635,-0.82824 -1.435244,-1.8525 -2.279603,-2.32184 -3.036046,-1.6875 -6.967182,-0.61741 -8.490501,2.31125 -0.205682,0.39548 -0.373989,0.82207 -0.373989,0.94808 v 0.22911 l 1.433135,-9.7e-4 c 0.788221,-6e-4 1.477901,-0.0306 1.53262,-0.0663 0.05473,-0.0355 0.422054,-0.7097 0.816303,-1.49792 0.672479,-1.34449 0.811342,-1.54706 0.929474,-1.35594 0.02625,0.0425 0.169945,0.9255 0.319337,1.96229 0.278278,1.93132 0.382411,2.37191 0.526555,2.22776 0.04455,-0.0447 0.184956,-0.67543 0.311999,-1.40192 z"
       id="path4008-4"
       inkscape:connector-curvature="0" />
    <path
       style="fill:#050505;fill-opacity:1;stroke-width:0.434238"
       d="m 28.084301,261.62139 c -0.09334,-0.2432 -0.06068,-4.53422 0.03585,-4.71459 0.04932,-0.0922 0.366818,-0.32942 0.705541,-0.52725 0.338727,-0.19778 0.615865,-0.39635 0.615865,-0.44114 0,-0.0449 -0.225402,-0.25131 -0.5009,-0.45914 -1.007366,-0.75955 -1.863496,-2.05429 -2.182561,-3.30077 -0.176274,-0.68859 -0.179006,-2.04001 -0.0054,-2.72476 0.07324,-0.28909 0.298305,-0.86296 0.500144,-1.27526 0.293281,-0.59912 0.51896,-0.90166 1.123813,-1.50667 0.628099,-0.62825 0.899287,-0.82698 1.594434,-1.16847 1.206772,-0.59277 1.759323,-0.7188 3.130615,-0.71416 0.806735,0.002 1.311968,0.0495 1.704825,0.15746 3.200698,0.88036 5.194794,3.81447 4.65392,6.84772 -0.248316,1.39251 -1.241594,2.98286 -2.337264,3.74216 -0.198811,0.13767 -0.36148,0.28303 -0.36148,0.3228 0,0.0398 0.277437,0.23428 0.616524,0.43238 0.393273,0.22968 0.633784,0.4307 0.664178,0.55509 0.02625,0.10714 0.03649,1.24673 0.02299,2.53213 l -0.02488,2.33712 -4.951132,0.0216 c -4.457619,0.0215 -4.956494,0.008 -5.004941,-0.11734 z m 4.796794,-1.27231 c 0.04062,-0.85254 0.0581,-0.92604 0.220478,-0.92604 0.162399,0 0.179874,0.0735 0.22048,0.92604 l 0.0441,0.92602 h 2.11542 c 1.979416,0 2.117418,-0.0113 2.146485,-0.16124 0.07415,-0.38501 -0.08786,-0.58193 -1.039039,-1.26279 -0.5321,-0.38086 -0.988888,-0.74572 -1.015085,-0.81071 -0.07133,-0.17694 0.02596,-0.27867 0.266821,-0.27867 0.212067,0 0.215285,-0.0113 0.215285,-0.78294 0,-0.57789 0.03363,-0.81084 0.12842,-0.88952 0.247505,-0.20531 0.312538,-0.006 0.312538,0.96492 0,0.5267 0.02407,1.0201 0.05321,1.09639 0.07569,0.19722 0.895628,0.78122 1.003392,0.71461 0.137026,-0.0848 0.118488,-2.70962 -0.02028,-2.88339 -0.06062,-0.0761 -0.366131,-0.28527 -0.678882,-0.46529 -0.638192,-0.36731 -0.664782,-0.36715 -1.680277,0.0113 -0.620191,0.23022 -0.749452,0.24593 -2.072528,0.24835 -1.367516,0.002 -1.436372,-0.006 -2.229991,-0.28332 l -0.818897,-0.286 -0.707163,0.41086 c -0.388942,0.22589 -0.744718,0.48108 -0.790616,0.56686 -0.04592,0.0857 -0.08344,0.71537 -0.08344,1.39919 0,0.99797 0.02488,1.25279 0.126404,1.29174 0.157447,0.0603 0.905595,-0.36921 1.022127,-0.58694 0.04739,-0.0885 0.0862,-0.57804 0.0862,-1.08767 0,-0.95796 0.0901,-1.20675 0.322052,-0.88956 0.07719,0.10547 0.118894,0.4201 0.118894,0.89644 v 0.73386 l 0.360543,-0.0576 c 0.341277,-0.0546 0.358954,-0.0466 0.330725,0.14961 -0.02299,0.16068 -0.280994,0.35508 -1.148549,0.86561 -1.145685,0.67416 -1.30229,0.84178 -1.171412,1.25421 0.05178,0.16311 0.145382,0.16933 2.186334,0.14688 l 2.132238,-0.0243 z m 2.160723,-4.26226 c 1.798336,-0.58895 3.232202,-1.974 3.804655,-3.6751 0.213148,-0.63339 0.221914,-2.36663 0.01569,-3.09953 -0.356769,-1.26779 -1.453375,-2.62144 -2.672695,-3.2992 -2.477562,-1.37709 -5.596645,-0.9588 -7.541693,1.01144 -1.633552,1.65471 -2.027872,4.11443 -0.994473,6.2034 0.44418,0.89788 1.576714,2.0172 2.500652,2.47147 1.097382,0.53953 1.794387,0.68664 3.079941,0.64999 0.892823,-0.0243 1.236549,-0.0756 1.807951,-0.26241 z m -2.425303,-0.51429 c -0.478805,-0.10703 -0.703657,-0.2876 -0.549872,-0.44139 0.07642,-0.0766 0.231706,-0.0808 0.585546,-0.0162 0.356597,0.0647 0.599579,0.0571 0.936494,-0.0291 0.48231,-0.12329 0.615302,-0.0987 0.615302,0.11422 0,0.28859 -0.958357,0.51378 -1.58747,0.37302 z m -1.706091,-2.08738 c -0.189693,-0.20965 -0.184796,-0.3936 0.01543,-0.57471 0.232894,-0.21073 0.518062,-0.17963 0.684657,0.0743 0.133834,0.20423 0.133834,0.23669 0,0.44096 -0.171756,0.26213 -0.491832,0.2892 -0.699982,0.0593 z m 3.421615,-0.14148 c -0.271481,-0.41435 0.198702,-0.82027 0.625904,-0.54036 0.247452,0.16205 0.279238,0.41467 0.07757,0.61634 -0.207737,0.20776 -0.541169,0.17179 -0.703478,-0.0761 z"
       id="path4006-5"
       inkscape:connector-curvature="0" />
  </g>
  <path
     d="m 21.01537,363.19402 v -9.54424 h 1.874995 l 3.90624,6.37368 v -6.37368 h 1.79036 v 9.54424 h -1.933589 l -3.847646,-6.22394 v 6.22394 z m 13.600225,-2.20051 1.822912,0.30599 q -0.351561,1.0026 -1.113278,1.52994 -0.755207,0.52083 -1.894527,0.52083 -1.803381,0 -2.669264,-1.17838 -0.683592,-0.94401 -0.683592,-2.38281 0,-1.71874 0.898435,-2.68879 0.898436,-0.97656 2.27213,-0.97656 1.542965,0 2.43489,1.02213 0.891925,1.01562 0.852862,3.11848 h -4.583322 q 0.01953,0.8138 0.442708,1.26953 0.423176,0.44922 1.054684,0.44922 0.429687,0 0.722655,-0.23438 0.292968,-0.23437 0.442707,-0.7552 z m 0.104166,-1.84896 q -0.01953,-0.79426 -0.410155,-1.20442 -0.390624,-0.41667 -0.950518,-0.41667 -0.598957,0 -0.989581,0.4362 -0.390624,0.4362 -0.384114,1.18489 z m 9.648414,4.04947 H 42.66896 v -1.01562 q -0.423176,0.59245 -1.002601,0.88542 -0.572915,0.28645 -1.158851,0.28645 -1.191404,0 -2.044266,-0.95703 -0.846352,-0.96354 -0.846352,-2.68228 0,-1.75781 0.826821,-2.66926 0.826821,-0.91797 2.089838,-0.91797 1.158851,0 2.005203,0.96354 v -3.43749 h 1.829423 z m -4.8828,-3.60676 q 0,1.10677 0.305989,1.60156 0.442707,0.71614 1.236976,0.71614 0.631508,0 1.074216,-0.53385 0.442707,-0.54036 0.442707,-1.60807 0,-1.1914 -0.429687,-1.71223 -0.429686,-0.52735 -1.100257,-0.52735 -0.65104,0 -1.093747,0.52084 -0.436197,0.51432 -0.436197,1.54296 z m 6.705712,3.60676 v -9.54424 h 4.055979 q 1.529944,0 2.220046,0.26041 0.696613,0.25391 1.113279,0.91146 0.416665,0.65755 0.416665,1.5039 0,1.07422 -0.631508,1.77734 -0.631509,0.69661 -1.888016,0.8789 0.624998,0.36459 1.028643,0.80078 0.410155,0.4362 1.100257,1.54948 l 1.165362,1.86197 h -2.304682 l -1.393225,-2.07681 q -0.742186,-1.11328 -1.015623,-1.39974 -0.273437,-0.29297 -0.579425,-0.39713 -0.305989,-0.11068 -0.97005,-0.11068 h -0.390624 v 3.98436 z m 1.927078,-5.5078 h 1.425778 q 1.386715,0 1.731766,-0.11718 0.345051,-0.11719 0.540363,-0.40365 0.195312,-0.28645 0.195312,-0.71614 0,-0.48177 -0.260416,-0.77474 -0.253905,-0.29948 -0.722654,-0.3776 -0.234374,-0.0326 -1.406247,-0.0326 h -1.503902 z m 12.233042,5.5078 v -1.03515 q -0.377604,0.55338 -0.996092,0.87239 -0.611977,0.31901 -1.295569,0.31901 -0.696613,0 -1.249997,-0.30599 -0.553384,-0.30598 -0.800779,-0.85937 -0.247396,-0.55338 -0.247396,-1.52994 v -4.37499 h 1.829423 v 3.17707 q 0,1.45833 0.09766,1.79036 0.104166,0.32552 0.371093,0.52084 0.266926,0.1888 0.677081,0.1888 0.468749,0 0.839842,-0.25391 0.371093,-0.26041 0.507811,-0.63802 0.136719,-0.38411 0.136719,-1.86848 v -2.91666 h 1.829422 v 6.91404 z m 2.949209,-1.97265 1.835932,-0.27995 q 0.117188,0.53386 0.47526,0.81381 0.358072,0.27343 1.002601,0.27343 0.709634,0 1.067706,-0.26041 0.240885,-0.1823 0.240885,-0.48828 0,-0.20834 -0.130208,-0.34506 -0.136719,-0.1302 -0.611978,-0.24088 -2.213536,-0.48828 -2.805982,-0.89193 -0.820311,-0.55989 -0.820311,-1.55598 0,-0.89844 0.709634,-1.51041 0.709633,-0.61198 2.200515,-0.61198 1.419267,0 2.10937,0.46224 0.690102,0.46224 0.950518,1.36718 l -1.725256,0.31901 q -0.110677,-0.40364 -0.423176,-0.61849 -0.305989,-0.21484 -0.878904,-0.21484 -0.722654,0 -1.035154,0.20182 -0.208332,0.14323 -0.208332,0.37109 0,0.19532 0.182291,0.33204 0.247395,0.18229 1.705725,0.51432 1.46484,0.33203 2.044265,0.8138 0.572916,0.48828 0.572916,1.36067 0,0.95052 -0.794269,1.63411 -0.794269,0.68359 -2.350255,0.68359 -1.412757,0 -2.239577,-0.57291 -0.820311,-0.57292 -1.074216,-1.55599 z m 9.882784,-7.57159 v 3.5091 q 0.88542,-1.03515 2.11589,-1.03515 0.6315,0 1.13932,0.23437 0.50781,0.23438 0.76171,0.59896 0.26042,0.36458 0.35156,0.80729 0.0977,0.44271 0.0977,1.37369 v 4.05598 h -1.82942 v -3.65233 q 0,-1.08724 -0.10417,-1.38021 -0.10416,-0.29296 -0.37109,-0.46223 -0.26041,-0.17579 -0.65755,-0.17579 -0.45573,0 -0.8138,0.22136 -0.35807,0.22135 -0.52734,0.67057 -0.16276,0.44271 -0.16276,1.3151 v 3.46353 h -1.829423 v -9.54424 z"
     id="text1"
     style="font-weight:bold;font-size:13.3333px;font-family:Arial;-inkscape-font-specification:'Arial Bold';text-align:center;text-anchor:middle;fill:#ff7e79;stroke-width:1.002"
     aria-label="NedRush" />
</svg>
