<?xml version="1.0" encoding="UTF-8" standalone="no"?>
<svg
   width="120"
   height="380"
   viewBox="0 0 120 380"
   version="1.1"
   id="svg1"
   sodipodi:docname="GraiNed.svg"
   inkscape:version="1.3.2 (091e20e, 2023-11-25)"
   xmlns:inkscape="http://www.inkscape.org/namespaces/inkscape"
   xmlns:sodipodi="http://sodipodi.sourceforge.net/DTD/sodipodi-0.dtd"
   xmlns="http://www.w3.org/2000/svg"
   xmlns:svg="http://www.w3.org/2000/svg">
  <sodipodi:namedview
     id="namedview1"
     pagecolor="#ffffff"
     bordercolor="#000000"
     borderopacity="0.25"
     inkscape:showpageshadow="2"
     inkscape:pageopacity="0.0"
     inkscape:pagecheckerboard="0"
     inkscape:deskcolor="#d1d1d1"
     inkscape:zoom="2.7394737"
     inkscape:cx="60.04803"
     inkscape:cy="190"
     inkscape:window-width="1392"
     inkscape:window-height="1212"
     inkscape:window-x="972"
     inkscape:window-y="480"
     inkscape:window-maximized="0"
     inkscape:current-layer="svg1" />
  <defs
     id="defs1">
    <style
       id="style1">
      .panel { fill: #3f3f3f; }
      .accent { fill: #292929; }
      .title { font-family: Arial, sans-serif; font-size: 14px; font-weight: bold; fill: #ff8f86; text-anchor: middle; letter-spacing: 0.8px; }
      .tiny { font-family: Arial, sans-serif; font-size: 6.15px; fill: #dadada; text-anchor: middle; letter-spacing: 0.32px; }
      .subtle { font-family: Arial, sans-serif; font-size: 5.55px; fill: #a9a9a9; text-anchor: middle; }
      .line { stroke: #5a5a5a; stroke-width: 0.9; }
      .ghost { fill: #4c4c4c; }
    </style>
  </defs>
  <rect
     class="accent"
     x="0"
     y="378"
     width="120"
     height="2"
     id="bottom" />
  <rect
     class="panel"
     x="0"
     y="0"
     width="120"
     height="380"
     id="rect1"
     style="fill:#434343;fill-opacity:1" />
  <path
     d="m 31.001367,20.31543 v -1.688477 h 4.361328 v 3.992188 q -0.635742,0.615234 -1.845703,1.086914 -1.203125,0.464843 -2.44043,0.464843 -1.572265,0 -2.74121,-0.65625 -1.168946,-0.663086 -1.756836,-1.886718 -0.587891,-1.230469 -0.587891,-2.672852 0,-1.56543 0.65625,-2.782226 0.65625,-1.216797 1.920898,-1.866211 0.963868,-0.499024 2.399414,-0.499024 1.866211,0 2.91211,0.786133 1.052734,0.779297 1.353515,2.160156 l -2.009765,0.375977 q -0.211914,-0.738281 -0.799805,-1.16211 -0.581055,-0.430664 -1.456055,-0.430664 -1.326171,0 -2.112304,0.840821 -0.779297,0.84082 -0.779297,2.495117 0,1.78418 0.792969,2.679687 0.792968,0.888672 2.078125,0.888672 0.635742,0 1.271484,-0.246094 0.642578,-0.252929 1.100586,-0.608398 V 20.31543 Z M 38.035742,24 V 13.978516 h 4.258789 q 1.606446,0 2.331055,0.273437 0.731445,0.266602 1.168945,0.957031 0.4375,0.69043 0.4375,1.579102 0,1.12793 -0.663086,1.866211 -0.663085,0.731445 -1.982421,0.922851 0.65625,0.382813 1.080078,0.840821 0.430664,0.458008 1.155273,1.626953 L 47.045508,24 H 44.625586 L 43.162695,21.819336 Q 42.383399,20.650391 42.096289,20.349609 41.80918,20.041992 41.487891,19.932617 41.166602,19.816406 40.469336,19.816406 H 40.05918 V 24 Z m 2.023438,-5.783203 h 1.49707 q 1.456055,0 1.81836,-0.123047 0.362304,-0.123047 0.567382,-0.423828 0.205078,-0.300781 0.205078,-0.751953 0,-0.50586 -0.273437,-0.813477 -0.266602,-0.314453 -0.758789,-0.396484 -0.246094,-0.03418 -1.476563,-0.03418 H 40.05918 Z M 57.976368,24 h -2.201172 l -0.875,-2.276367 h -4.00586 L 50.067188,24 h -2.146485 l 3.903321,-10.021484 h 2.139648 z m -3.725586,-3.964844 -1.38086,-3.71875 -1.353515,3.71875 z M 59.788087,24 V 13.978516 h 2.023438 V 24 Z m 4.771679,0 V 13.978516 h 1.96875 l 4.101563,6.692382 v -6.692382 h 1.879883 V 24 H 70.479688 L 66.439649,17.464844 V 24 Z m 10.889843,0 V 13.978516 h 7.430664 v 1.695312 h -5.407226 v 2.22168 h 5.03125 v 1.688476 h -5.03125 v 2.727539 H 83.07168 V 24 Z M 85.580663,13.978516 h 3.698242 q 1.250977,0 1.907227,0.191406 0.881836,0.259766 1.510742,0.922851 0.628906,0.663086 0.957031,1.626954 0.328125,0.957031 0.328125,2.365234 0,1.237305 -0.307617,2.132812 -0.375976,1.09375 -1.073242,1.770508 -0.526367,0.512696 -1.421875,0.799805 Q 90.509374,24 89.38828,24 h -3.807617 z m 2.023438,1.695312 v 6.637695 h 1.510742 q 0.847656,0 1.223633,-0.0957 0.492187,-0.123047 0.813476,-0.416992 0.328125,-0.293945 0.533203,-0.963867 0.205079,-0.676758 0.205079,-1.838867 0,-1.16211 -0.205079,-1.78418 -0.205078,-0.62207 -0.574218,-0.970703 -0.369141,-0.348633 -0.936524,-0.47168 -0.423828,-0.0957 -1.661133,-0.0957 z"
     id="title"
     class="title"
     style="font-weight:bold;font-size:14px;font-family:Arial, sans-serif;letter-spacing:0.8px;text-anchor:middle;fill:#ff8f86"
     aria-label="GRAINED" />
  <path
     d="m 26.689159,36 v -3.972803 h 1.490479 q 0.455273,0 0.728979,0.121948 0.276416,0.119239 0.430884,0.371265 0.157178,0.249316 0.157178,0.523023 0,0.254736 -0.138208,0.479663 -0.138208,0.224926 -0.417334,0.363134 0.360424,0.105689 0.552832,0.360425 0.195117,0.254737 0.195117,0.601612 0,0.279126 -0.119238,0.520312 -0.116529,0.238477 -0.289966,0.368555 -0.173438,0.130078 -0.436304,0.197827 Q 28.583422,36 28.204027,36 Z m 0.525732,-2.303467 h 0.859058 q 0.349585,0 0.501343,-0.04607 0.200537,-0.05962 0.300806,-0.197827 0.102978,-0.138208 0.102978,-0.346875 0,-0.197828 -0.09485,-0.346875 -0.09485,-0.151758 -0.270996,-0.205957 -0.176147,-0.05691 -0.604321,-0.05691 h -0.794019 z m 0,1.834644 h 0.989136 q 0.254737,0 0.357715,-0.01897 0.181567,-0.03252 0.303516,-0.108398 0.121948,-0.07588 0.200537,-0.219507 0.07859,-0.146338 0.07859,-0.336035 0,-0.222217 -0.113819,-0.384815 -0.113818,-0.165308 -0.317065,-0.230347 -0.200537,-0.06775 -0.579932,-0.06775 h -0.918677 z m 5.804737,-3.50398 h 0.525732 v 2.295337 q 0,0.598902 -0.135498,0.951196 -0.135498,0.352295 -0.490503,0.574512 -0.352294,0.219507 -0.926806,0.219507 -0.558252,0 -0.913257,-0.192407 -0.355005,-0.192407 -0.506763,-0.555542 -0.151758,-0.365845 -0.151758,-0.997266 v -2.295337 h 0.525733 v 2.292627 q 0,0.517603 0.09485,0.764209 0.09756,0.243897 0.330616,0.376685 0.235766,0.132788 0.574511,0.132788 0.579932,0 0.826539,-0.262866 0.246606,-0.262867 0.246606,-1.010816 z M 34.447777,36 v -3.972803 h 2.680152 V 32.49602 H 34.97351 v 1.230323 h 1.864453 v 0.468823 H 34.97351 V 36 Z m 3.390162,0 v -3.972803 h 2.680151 v 0.468823 h -2.154419 v 1.230323 h 1.864453 v 0.468823 H 38.363671 V 36 Z m 3.373901,0 v -3.972803 h 2.872559 v 0.468823 h -2.346826 v 1.216773 h 2.197778 v 0.466113 h -2.197778 v 1.352271 h 2.438965 V 36 Z m 3.699098,0 v -3.972803 h 1.761474 q 0.531153,0 0.807569,0.108399 0.276416,0.105688 0.441723,0.376684 0.165308,0.270996 0.165308,0.598902 0,0.422753 -0.273706,0.712719 -0.273706,0.289966 -0.845508,0.368555 0.208667,0.100269 0.317065,0.197827 0.230347,0.211377 0.436304,0.528443 L 48.412207,36 h -0.66123 l -0.525733,-0.826538 q -0.230346,-0.357715 -0.379394,-0.547412 -0.149048,-0.189698 -0.268286,-0.265576 -0.116529,-0.07588 -0.238477,-0.105689 -0.08943,-0.01897 -0.292676,-0.01897 H 45.43667 V 36 Z m 0.525732,-2.219458 h 1.130054 q 0.360425,0 0.563672,-0.07317 0.203247,-0.07588 0.308935,-0.238477 0.105689,-0.165307 0.105689,-0.357714 0,-0.281836 -0.205957,-0.463404 -0.203247,-0.181567 -0.644971,-0.181567 H 45.43667 Z m 4.587963,2.287207 1.151733,-4.108301 h 0.390235 l -1.149024,4.108301 z m 5.371144,-1.625977 v -0.466113 l 1.682886,-0.0027 v 1.474219 q -0.387525,0.308936 -0.799439,0.466113 -0.411914,0.154468 -0.845508,0.154468 -0.585351,0 -1.065014,-0.249316 -0.476954,-0.252027 -0.72085,-0.72627 -0.243897,-0.474243 -0.243897,-1.059595 0,-0.579931 0.241187,-1.081274 0.243896,-0.504053 0.69917,-0.747949 0.455273,-0.243897 1.048755,-0.243897 0.430884,0 0.777759,0.140918 0.349585,0.138208 0.547412,0.387525 0.197827,0.249316 0.300805,0.65039 L 56.5448,33.268359 q -0.08943,-0.303515 -0.222217,-0.476953 -0.132788,-0.173437 -0.379394,-0.276416 -0.246607,-0.105688 -0.547412,-0.105688 -0.360425,0 -0.623291,0.111108 -0.262866,0.108398 -0.425464,0.287256 -0.159888,0.178857 -0.249317,0.392944 -0.151757,0.368555 -0.151757,0.799439 0,0.531152 0.181567,0.888867 0.184277,0.357715 0.533862,0.531152 0.349585,0.173438 0.74253,0.173438 0.341455,0 0.66665,-0.130078 0.325195,-0.132788 0.493213,-0.281836 v -0.73982 z M 57.86184,36 v -3.972803 h 1.761475 q 0.531152,0 0.807568,0.108399 0.276417,0.105688 0.441724,0.376684 0.165308,0.270996 0.165308,0.598902 0,0.422753 -0.273706,0.712719 -0.273706,0.289966 -0.845508,0.368555 0.208667,0.100269 0.317065,0.197827 0.230347,0.211377 0.436304,0.528443 L 61.36311,36 H 60.70188 L 60.176147,35.173462 Q 59.9458,34.815747 59.796753,34.62605 q -0.149048,-0.189698 -0.268287,-0.265576 -0.116528,-0.07588 -0.238476,-0.105689 -0.08943,-0.01897 -0.292676,-0.01897 H 58.387573 V 36 Z m 0.525733,-2.219458 h 1.130054 q 0.360424,0 0.563672,-0.07317 0.203247,-0.07588 0.308935,-0.238477 0.105689,-0.165307 0.105689,-0.357714 0,-0.281836 -0.205957,-0.463404 -0.203248,-0.181567 -0.644971,-0.181567 H 58.387573 Z M 61.425441,36 62.951149,32.027197 H 63.51753 L 65.143507,36 H 64.544606 L 64.081202,34.796777 H 62.419996 L 61.983693,36 Z m 1.146313,-1.631397 h 1.346851 l -0.414624,-1.100244 q -0.189698,-0.501343 -0.281836,-0.823828 -0.07588,0.382105 -0.214087,0.758789 z M 65.652978,36 v -3.972803 h 0.525733 V 36 Z m 1.447121,0 v -3.972803 h 0.539282 l 2.08667,3.119165 v -3.119165 h 0.504053 V 36 h -0.539282 l -2.08667,-3.121875 V 36 Z m 5.555419,0 v -3.972803 h 1.498608 q 0.395655,0 0.604322,0.03794 0.292676,0.04878 0.490503,0.186987 0.197827,0.135498 0.317065,0.382104 0.121948,0.246607 0.121948,0.541993 0,0.506762 -0.322485,0.859057 -0.322485,0.349585 -1.165283,0.349585 H 73.18125 V 36 Z m 0.525732,-2.08396 h 1.027076 q 0.509472,0 0.723559,-0.189697 0.214087,-0.189698 0.214087,-0.533863 0,-0.249316 -0.127368,-0.425464 -0.124658,-0.178857 -0.330615,-0.235766 -0.132788,-0.03523 -0.490503,-0.03523 H 73.18125 Z M 76.335643,36 v -3.972803 h 0.525733 v 3.50398 h 1.956592 V 36 Z m 2.672023,0 1.525708,-3.972803 h 0.566382 L 82.725733,36 H 82.126832 L 81.663428,34.796777 H 80.002222 L 79.565918,36 Z m 1.146314,-1.631397 h 1.346851 l -0.414625,-1.100244 q -0.189697,-0.501343 -0.281835,-0.823828 -0.07588,0.382105 -0.214087,0.758789 z M 83.853078,36 V 34.317114 L 82.32195,32.027197 h 0.639551 L 83.74468,33.225 q 0.216797,0.336035 0.403784,0.67207 0.178857,-0.311645 0.433594,-0.70188 l 0.769629,-1.167993 h 0.612451 l -1.585327,2.289917 V 36 Z m 2.593431,0 v -3.972803 h 2.872559 v 0.468823 h -2.346826 v 1.216773 h 2.197778 v 0.466113 h -2.197778 v 1.352271 h 2.438965 V 36 Z m 3.699099,0 v -3.972803 h 1.761475 q 0.531152,0 0.807568,0.108399 0.276416,0.105688 0.441724,0.376684 0.165307,0.270996 0.165307,0.598902 0,0.422753 -0.273706,0.712719 -0.273706,0.289966 -0.845507,0.368555 0.208667,0.100269 0.317065,0.197827 0.230347,0.211377 0.436304,0.528443 L 93.646878,36 h -0.661231 l -0.525732,-0.826538 q -0.230347,-0.357715 -0.379395,-0.547412 -0.149048,-0.189698 -0.268286,-0.265576 -0.116528,-0.07588 -0.238476,-0.105689 -0.08943,-0.01897 -0.292676,-0.01897 H 90.671341 V 36 Z m 0.525733,-2.219458 h 1.130053 q 0.360425,0 0.563672,-0.07317 0.203247,-0.07588 0.308936,-0.238477 0.105688,-0.165307 0.105688,-0.357714 0,-0.281836 -0.205957,-0.463404 -0.203247,-0.181567 -0.644971,-0.181567 h -1.257421 z"
     id="subtitle"
     class="subtle"
     style="font-size:5.55px;font-family:Arial, sans-serif;text-anchor:middle;fill:#a9a9a9"
     aria-label="BUFFER / GRAIN PLAYER" />
  <path
     id="line1"
     class="line"
     style="stroke:#5a5a5a;stroke-width:0.9"
     d="m 18,44 h 84" />
  <path
     d="m 25.609463,58 v -4.402295 h 1.66062 q 0.438428,0 0.669653,0.04204 0.324317,0.05405 0.543531,0.207202 0.219213,0.150147 0.351342,0.423413 0.135132,0.273267 0.135132,0.600586 0,0.561548 -0.357348,0.951929 -0.357349,0.387378 -1.29126,0.387378 H 26.192031 V 58 Z m 0.582568,-2.309253 h 1.138111 q 0.56455,0 0.801782,-0.210205 0.237231,-0.210205 0.237231,-0.591577 0,-0.27627 -0.141138,-0.47146 -0.138134,-0.198194 -0.366357,-0.261255 -0.147143,-0.03904 -0.54353,-0.03904 H 26.192031 Z M 30.130562,58 V 53.597705 H 30.71313 V 58 Z m 3.049663,0 V 54.117212 H 31.72981 v -0.519507 h 3.489404 v 0.519507 H 33.762793 V 58 Z m 6.097636,-1.543506 0.582569,0.147144 q -0.183179,0.7177 -0.660645,1.096069 -0.474463,0.375366 -1.162133,0.375366 -0.711695,0 -1.159131,-0.288281 -0.444434,-0.291284 -0.678662,-0.84082 -0.231226,-0.549536 -0.231226,-1.180152 0,-0.687671 0.261255,-1.198169 0.264258,-0.513501 0.747729,-0.777758 0.486475,-0.267261 1.069043,-0.267261 0.660645,0 1.111084,0.336328 0.45044,0.336328 0.627613,0.945923 l -0.57356,0.135132 q -0.153149,-0.480469 -0.444434,-0.699683 -0.291284,-0.219214 -0.732714,-0.219214 -0.507496,0 -0.84983,0.243237 -0.339331,0.243238 -0.477465,0.654639 -0.138135,0.408399 -0.138135,0.843823 0,0.561548 0.162158,0.981958 0.165161,0.417408 0.510498,0.62461 0.345337,0.207202 0.74773,0.207202 0.489477,0 0.828808,-0.282275 0.339331,-0.282276 0.459448,-0.837818 z M 40.916148,58 v -4.402295 h 0.582568 v 1.807764 h 2.288233 v -1.807764 h 0.582568 V 58 H 43.786949 V 55.924976 H 41.498716 V 58 Z"
     id="l1"
     class="tiny"
     style="font-size:6.15px;font-family:Arial, sans-serif;letter-spacing:0.32px;text-anchor:middle;fill:#dadada"
     aria-label="PITCH" />
  <path
     d="m 57.590806,106.27332 v -0.51651 l 1.864819,-0.003 v 1.63359 q -0.429419,0.34234 -0.885864,0.51651 -0.456446,0.17116 -0.936914,0.17116 -0.648633,0 -1.180152,-0.27627 -0.528515,-0.27927 -0.798779,-0.80478 -0.270264,-0.52551 -0.270264,-1.17415 0,-0.64262 0.267261,-1.19817 0.270264,-0.55854 0.774756,-0.8288 0.504492,-0.27027 1.162134,-0.27027 0.477466,0 0.861841,0.15615 0.387377,0.15315 0.606591,0.42942 0.219214,0.27627 0.333326,0.72071 l -0.525513,0.14414 q -0.0991,-0.33633 -0.24624,-0.52852 -0.147144,-0.19219 -0.420411,-0.3063 -0.273266,-0.11711 -0.606591,-0.11711 -0.39939,0 -0.690674,0.12312 -0.291284,0.12012 -0.47146,0.31831 -0.177173,0.19819 -0.27627,0.43542 -0.168164,0.4084 -0.168164,0.88587 0,0.58857 0.201197,0.98496 0.204199,0.39639 0.591577,0.58857 0.387378,0.19219 0.822802,0.19219 0.37837,0 0.738721,-0.14414 0.360352,-0.14714 0.546533,-0.3123 v -0.8198 z m 2.866484,-0.41741 q 0,-1.09607 0.588574,-1.71467 0.588575,-0.62161 1.519483,-0.62161 0.609595,0 1.099072,0.29128 0.489478,0.29129 0.744727,0.8138 0.258252,0.5195 0.258252,1.18015 0,0.66965 -0.270264,1.19817 -0.270264,0.52851 -0.765747,0.80178 -0.495483,0.27026 -1.069043,0.27026 -0.621606,0 -1.111084,-0.30029 -0.489478,-0.30029 -0.741724,-0.8198 -0.252246,-0.51951 -0.252246,-1.09907 z m 0.600586,0.009 q 0,0.79577 0.426416,1.25522 0.429419,0.45645 1.075049,0.45645 0.657642,0 1.081055,-0.46245 0.426416,-0.46246 0.426416,-1.31228 0,-0.53753 -0.183179,-0.93692 -0.180176,-0.40239 -0.531518,-0.62161 -0.34834,-0.22221 -0.783765,-0.22221 -0.618604,0 -1.06604,0.42641 -0.444434,0.42342 -0.444434,1.41739 z"
     id="l2"
     class="tiny"
     style="font-size:6.15px;font-family:Arial, sans-serif;letter-spacing:0.32px;text-anchor:middle;fill:#dadada"
     aria-label="GO" />
  <path
     d="m 24.840713,156.58562 0.549536,-0.0481 q 0.03904,0.33033 0.180176,0.54353 0.14414,0.21021 0.444433,0.34234 0.300293,0.12912 0.675659,0.12912 0.333326,0 0.588575,-0.0991 0.255249,-0.0991 0.378369,-0.27027 0.126123,-0.17417 0.126123,-0.37837 0,-0.2072 -0.120117,-0.36035 -0.120117,-0.15615 -0.396387,-0.26125 -0.177173,-0.0691 -0.783765,-0.21321 -0.606591,-0.14714 -0.849829,-0.27627 -0.315307,-0.16516 -0.47146,-0.4084 -0.153149,-0.24624 -0.153149,-0.54953 0,-0.33333 0.189184,-0.62161 0.189185,-0.29129 0.552539,-0.44143 0.363355,-0.15015 0.807789,-0.15015 0.489477,0 0.86184,0.15916 0.375367,0.15615 0.576563,0.46245 0.201196,0.3063 0.216211,0.69367 l -0.558545,0.0421 q -0.04504,-0.41741 -0.306299,-0.63062 -0.258252,-0.21321 -0.765747,-0.21321 -0.528516,0 -0.771753,0.19519 -0.240234,0.19219 -0.240234,0.46546 0,0.23723 0.171167,0.39038 0.168164,0.15315 0.876855,0.31531 0.711695,0.15915 0.975952,0.27927 0.384375,0.17717 0.567554,0.45044 0.183179,0.27026 0.183179,0.62461 0,0.35134 -0.201197,0.66364 -0.201196,0.30931 -0.579565,0.48348 -0.375366,0.17116 -0.846826,0.17116 -0.597583,0 -1.002979,-0.17417 -0.402392,-0.17417 -0.633618,-0.52251 -0.228223,-0.35134 -0.240234,-0.79277 z M 30.581001,158 v -3.88279 h -1.450415 v -0.5195 h 3.489405 v 0.5195 H 31.16357 V 158 Z m 2.016655,0 1.69065,-4.40229 h 0.627612 L 36.717676,158 h -0.663647 l -0.513501,-1.3333 H 33.699732 L 33.21626,158 Z m 1.27024,-1.80776 h 1.492456 l -0.459448,-1.21919 q -0.210206,-0.55555 -0.312305,-0.91289 -0.08408,0.42341 -0.237232,0.84082 z M 37.512139,158 v -4.40229 h 1.951904 q 0.588574,0 0.894873,0.12011 0.306299,0.11712 0.489478,0.41741 0.183178,0.30029 0.183178,0.66365 0,0.46845 -0.303295,0.78977 -0.303296,0.32131 -0.936915,0.4084 0.231226,0.1111 0.351343,0.21921 0.255249,0.23423 0.483472,0.58557 L 41.391924,158 h -0.732715 l -0.582568,-0.91589 q -0.255249,-0.39639 -0.42041,-0.6066 -0.165162,-0.2102 -0.29729,-0.29428 -0.129126,-0.0841 -0.264258,-0.11712 -0.0991,-0.021 -0.324317,-0.021 H 38.094707 V 158 Z m 0.582568,-2.4594 h 1.252222 q 0.399389,0 0.624609,-0.0811 0.22522,-0.0841 0.342334,-0.26426 0.117114,-0.18318 0.117114,-0.39638 0,-0.31231 -0.228222,-0.5135 -0.22522,-0.2012 -0.714697,-0.2012 h -1.39336 z M 43.273447,158 v -3.88279 h -1.450415 v -0.5195 h 3.489405 v 0.5195 H 43.856016 V 158 Z"
     id="l3"
     class="tiny"
     style="font-size:6.15px;font-family:Arial, sans-serif;letter-spacing:0.32px;text-anchor:middle;fill:#dadada"
     aria-label="START" />
  <path
     d="m 22.177771,208 v -4.40229 h 0.582568 v 3.88278 h 2.168115 V 208 Z m 3.776372,0 v -4.40229 h 3.183105 v 0.5195 h -2.600537 v 1.34832 h 2.435376 v 0.5165 h -2.435376 v 1.49846 h 2.702637 V 208 Z m 4.403985,0 v -4.40229 h 0.597583 l 2.312256,3.45637 v -3.45637 h 0.558544 V 208 h -0.597583 l -2.312255,-3.45938 V 208 Z m 6.827349,-1.72668 v -0.51651 l 1.864819,-0.003 v 1.63359 q -0.429419,0.34234 -0.885864,0.51651 -0.456445,0.17116 -0.936914,0.17116 -0.648633,0 -1.180152,-0.27627 -0.528515,-0.27927 -0.798779,-0.80478 -0.270264,-0.52551 -0.270264,-1.17415 0,-0.64262 0.267261,-1.19817 0.270264,-0.55854 0.774756,-0.8288 0.504492,-0.27027 1.162134,-0.27027 0.477466,0 0.861841,0.15615 0.387378,0.15315 0.606591,0.42942 0.219214,0.27627 0.333326,0.72071 l -0.525513,0.14414 q -0.0991,-0.33633 -0.24624,-0.52852 -0.147144,-0.19219 -0.42041,-0.3063 -0.273267,-0.11711 -0.606592,-0.11711 -0.39939,0 -0.690674,0.12312 -0.291284,0.12012 -0.47146,0.31831 -0.177173,0.19819 -0.27627,0.43542 -0.168164,0.4084 -0.168164,0.88587 0,0.58857 0.201197,0.98496 0.204199,0.39639 0.591577,0.58857 0.387378,0.19219 0.822803,0.19219 0.378369,0 0.73872,-0.14414 0.360352,-0.14714 0.546533,-0.3123 v -0.8198 z M 41.349227,208 v -3.88279 h -1.450415 v -0.5195 h 3.489404 v 0.5195 H 41.931795 V 208 Z m 2.974589,0 v -4.40229 h 0.582568 v 1.80776 h 2.288233 v -1.80776 h 0.582568 V 208 h -0.582568 v -2.07502 H 44.906384 V 208 Z"
     id="l4"
     class="tiny"
     style="font-size:6.15px;font-family:Arial, sans-serif;letter-spacing:0.32px;text-anchor:middle;fill:#dadada"
     aria-label="LENGTH" />
  <path
     d="m 13.098826,296 v -4.40229 h 0.582568 v 3.88278 h 2.168115 V 296 Z m 3.776372,0 v -4.40229 h 3.183105 v 0.5195 h -2.600537 v 1.34832 h 2.435376 v 0.5165 h -2.435376 v 1.49846 h 2.702637 V 296 Z m 4.440019,0 v -4.40229 h 2.969898 v 0.5195 h -2.387329 v 1.36333 h 2.066016 v 0.51951 H 21.897786 V 296 Z m 5.166729,0 v -3.88279 h -1.450415 v -0.5195 h 3.489404 v 0.5195 H 27.064514 V 296 Z m 4.973228,0 v -4.40229 h 0.582569 V 296 Z m 1.923563,0 v -4.40229 h 0.597583 l 2.312256,3.45637 v -3.45637 h 0.558545 V 296 h -0.597583 l -2.312256,-3.45938 V 296 Z"
     id="l5"
     class="tiny"
     style="font-size:6.15px;font-family:Arial, sans-serif;letter-spacing:0.32px;text-anchor:middle;fill:#dadada"
     aria-label="LEFT IN" />
  <path
     d="m 50.92386,296 v -4.40229 h 1.951904 q 0.588574,0 0.894873,0.12011 0.306299,0.11712 0.489478,0.41741 0.183178,0.30029 0.183178,0.66365 0,0.46845 -0.303296,0.78977 -0.303295,0.32131 -0.936914,0.4084 0.231226,0.1111 0.351343,0.21921 0.255249,0.23423 0.483472,0.58557 L 54.803645,296 H 54.07093 l -0.582568,-0.91589 q -0.255249,-0.39639 -0.42041,-0.6066 -0.165162,-0.2102 -0.297291,-0.29428 -0.129126,-0.0841 -0.264257,-0.11712 -0.0991,-0.021 -0.324317,-0.021 H 51.506428 V 296 Z m 0.582568,-2.4594 h 1.252222 q 0.399389,0 0.624609,-0.0811 0.22522,-0.0841 0.342334,-0.26426 0.117114,-0.18318 0.117114,-0.39638 0,-0.31231 -0.228222,-0.5135 -0.22522,-0.2012 -0.714698,-0.2012 H 51.506428 Z M 55.775281,296 v -4.40229 h 0.582568 V 296 Z m 3.98958,-1.72668 v -0.51651 l 1.864819,-0.003 v 1.63359 q -0.429418,0.34234 -0.885864,0.51651 -0.456445,0.17116 -0.936914,0.17116 -0.648633,0 -1.180151,-0.27627 -0.528516,-0.27927 -0.79878,-0.80478 -0.270263,-0.52551 -0.270263,-1.17415 0,-0.64262 0.267261,-1.19817 0.270263,-0.55854 0.774755,-0.8288 0.504493,-0.27027 1.162134,-0.27027 0.477466,0 0.861841,0.15615 0.387378,0.15315 0.606592,0.42942 0.219214,0.27627 0.333325,0.72071 l -0.525513,0.14414 q -0.0991,-0.33633 -0.24624,-0.52852 -0.147143,-0.19219 -0.42041,-0.3063 -0.273267,-0.11711 -0.606592,-0.11711 -0.39939,0 -0.690674,0.12312 -0.291284,0.12012 -0.47146,0.31831 -0.177173,0.19819 -0.276269,0.43542 -0.168164,0.4084 -0.168164,0.88587 0,0.58857 0.201196,0.98496 0.204199,0.39639 0.591577,0.58857 0.387378,0.19219 0.822803,0.19219 0.378369,0 0.738721,-0.14414 0.360351,-0.14714 0.546533,-0.3123 v -0.8198 z M 62.826536,296 v -4.40229 h 0.582568 v 1.80776 h 2.288233 v -1.80776 h 0.582568 V 296 h -0.582568 v -2.07502 H 63.409104 V 296 Z m 5.863408,0 v -3.88279 h -1.450415 v -0.5195 h 3.489405 v 0.5195 H 69.272513 V 296 Z m 4.973229,0 v -4.40229 h 0.582568 V 296 Z m 1.923563,0 v -4.40229 h 0.597583 l 2.312256,3.45637 v -3.45637 H 79.05512 V 296 h -0.597583 l -2.312256,-3.45938 V 296 Z"
     id="l6"
     class="tiny"
     style="font-size:6.15px;font-family:Arial, sans-serif;letter-spacing:0.32px;text-anchor:middle;fill:#dadada"
     aria-label="RIGHT IN" />
  <path
     d="m 9.522993,372 v -4.40229 h 0.582568 v 3.88278 h 2.168116 V 372 Z m 3.776372,0 v -4.40229 h 3.183106 v 0.5195 h -2.600538 v 1.34832 h 2.435376 v 0.5165 h -2.435376 v 1.49846 H 16.58457 V 372 Z m 4.44002,0 v -4.40229 h 2.969897 v 0.5195 h -2.387329 v 1.36333 h 2.066016 v 0.51951 H 18.321953 V 372 Z m 5.166728,0 v -3.88279 h -1.450415 v -0.5195 h 3.489405 v 0.5195 H 23.488682 V 372 Z m 4.696959,-2.14409 q 0,-1.09607 0.588574,-1.71467 0.588575,-0.62161 1.519483,-0.62161 0.609595,0 1.099072,0.29128 0.489478,0.29129 0.744727,0.8138 0.258252,0.5195 0.258252,1.18015 0,0.66965 -0.270264,1.19817 -0.270264,0.52851 -0.765747,0.80178 -0.495483,0.27026 -1.069043,0.27026 -0.621606,0 -1.111084,-0.30029 -0.489478,-0.30029 -0.741724,-0.8198 -0.252246,-0.51951 -0.252246,-1.09907 z m 0.600586,0.009 q 0,0.79577 0.426416,1.25522 0.429419,0.45645 1.075049,0.45645 0.657642,0 1.081055,-0.46245 0.426416,-0.46246 0.426416,-1.31228 0,-0.53753 -0.183179,-0.93692 -0.180176,-0.40239 -0.531519,-0.62161 -0.348339,-0.22221 -0.783764,-0.22221 -0.618604,0 -1.06604,0.42641 -0.444434,0.42342 -0.444434,1.41739 z m 7.569072,-2.26721 h 0.582568 v 2.54348 q 0,0.66364 -0.150146,1.05402 -0.150147,0.39039 -0.543531,0.63663 -0.39038,0.24323 -1.027002,0.24323 -0.618603,0 -1.011987,-0.2132 -0.393384,-0.21321 -0.561548,-0.61561 -0.168164,-0.40539 -0.168164,-1.10507 v -2.54348 h 0.582569 v 2.54047 q 0,0.57356 0.105102,0.84683 0.108106,0.27026 0.366358,0.41741 0.261254,0.14714 0.636621,0.14714 0.642627,0 0.915893,-0.29128 0.273267,-0.29129 0.273267,-1.1201 z M 38.765338,372 v -3.88279 h -1.450415 v -0.5195 h 3.489404 v 0.5195 H 39.347906 V 372 Z"
     id="l7"
     class="tiny"
     style="font-size:6.15px;font-family:Arial, sans-serif;letter-spacing:0.32px;text-anchor:middle;fill:#dadada"
     aria-label="LEFT OUT" />
  <path
     d="m 47.348027,372 v -4.40229 h 1.951904 q 0.588575,0 0.894874,0.12011 0.306298,0.11712 0.489477,0.41741 0.183179,0.30029 0.183179,0.66365 0,0.46845 -0.303296,0.78977 -0.303296,0.32131 -0.936914,0.4084 0.231225,0.1111 0.351343,0.21921 0.255249,0.23423 0.483471,0.58557 L 51.227812,372 h -0.732715 l -0.582568,-0.91589 q -0.255249,-0.39639 -0.42041,-0.6066 -0.165161,-0.2102 -0.29729,-0.29428 -0.129126,-0.0841 -0.264258,-0.11712 -0.0991,-0.021 -0.324316,-0.021 h -0.67566 V 372 Z m 0.582568,-2.4594 h 1.252222 q 0.39939,0 0.62461,-0.0811 0.225219,-0.0841 0.342334,-0.26426 0.117114,-0.18318 0.117114,-0.39638 0,-0.31231 -0.228223,-0.5135 -0.22522,-0.2012 -0.714697,-0.2012 h -1.39336 z M 52.199448,372 v -4.40229 h 0.582569 V 372 Z m 3.989581,-1.72668 v -0.51651 l 1.864819,-0.003 v 1.63359 q -0.429419,0.34234 -0.885864,0.51651 -0.456446,0.17116 -0.936914,0.17116 -0.648633,0 -1.180152,-0.27627 -0.528515,-0.27927 -0.798779,-0.80478 -0.270264,-0.52551 -0.270264,-1.17415 0,-0.64262 0.267261,-1.19817 0.270264,-0.55854 0.774756,-0.8288 0.504492,-0.27027 1.162134,-0.27027 0.477465,0 0.86184,0.15615 0.387378,0.15315 0.606592,0.42942 0.219214,0.27627 0.333325,0.72071 l -0.525512,0.14414 q -0.0991,-0.33633 -0.24624,-0.52852 -0.147144,-0.19219 -0.420411,-0.3063 -0.273266,-0.11711 -0.606591,-0.11711 -0.39939,0 -0.690674,0.12312 -0.291284,0.12012 -0.47146,0.31831 -0.177173,0.19819 -0.27627,0.43542 -0.168164,0.4084 -0.168164,0.88587 0,0.58857 0.201196,0.98496 0.2042,0.39639 0.591578,0.58857 0.387378,0.19219 0.822802,0.19219 0.37837,0 0.738721,-0.14414 0.360352,-0.14714 0.546533,-0.3123 v -0.8198 z M 59.250703,372 v -4.40229 h 0.582568 v 1.80776 h 2.288233 v -1.80776 h 0.582568 V 372 h -0.582568 v -2.07502 H 59.833271 V 372 Z m 5.863409,0 v -3.88279 h -1.450415 v -0.5195 h 3.489404 v 0.5195 H 65.69668 V 372 Z m 4.696959,-2.14409 q 0,-1.09607 0.588574,-1.71467 0.588574,-0.62161 1.519482,-0.62161 0.609595,0 1.099073,0.29128 0.489477,0.29129 0.744726,0.8138 0.258252,0.5195 0.258252,1.18015 0,0.66965 -0.270263,1.19817 -0.270264,0.52851 -0.765748,0.80178 -0.495483,0.27026 -1.069043,0.27026 -0.621606,0 -1.111084,-0.30029 -0.489477,-0.30029 -0.741723,-0.8198 -0.252246,-0.51951 -0.252246,-1.09907 z m 0.600586,0.009 q 0,0.79577 0.426416,1.25522 0.429419,0.45645 1.075049,0.45645 0.657641,0 1.081054,-0.46245 0.426416,-0.46246 0.426416,-1.31228 0,-0.53753 -0.183178,-0.93692 -0.180176,-0.40239 -0.531519,-0.62161 -0.34834,-0.22221 -0.783765,-0.22221 -0.618603,0 -1.06604,0.42641 -0.444433,0.42342 -0.444433,1.41739 z m 7.569071,-2.26721 h 0.582569 v 2.54348 q 0,0.66364 -0.150147,1.05402 -0.150146,0.39039 -0.54353,0.63663 -0.390381,0.24323 -1.027002,0.24323 -0.618604,0 -1.011987,-0.2132 -0.393384,-0.21321 -0.561548,-0.61561 -0.168164,-0.40539 -0.168164,-1.10507 v -2.54348 h 0.582568 v 2.54047 q 0,0.57356 0.105103,0.84683 0.108105,0.27026 0.366357,0.41741 0.261255,0.14714 0.636621,0.14714 0.642627,0 0.915894,-0.29128 0.273266,-0.29129 0.273266,-1.1201 z M 80.973336,372 v -3.88279 h -1.450415 v -0.5195 h 3.489404 v 0.5195 H 81.555904 V 372 Z"
     id="l8"
     class="tiny"
     style="font-size:6.15px;font-family:Arial, sans-serif;letter-spacing:0.32px;text-anchor:middle;fill:#dadada"
     aria-label="RIGHT OUT" />
  <path
     id="mark1"
     style="fill:#7a7a7a"
     d="M 36.2,74 A 1.2,1.2 0 0 1 35,75.2 1.2,1.2 0 0 1 33.8,74 1.2,1.2 0 0 1 35,72.8 1.2,1.2 0 0 1 36.2,74 Z" />
  <path
     id="mark2"
     style="fill:#7a7a7a"
     d="M 61.2,124 A 1.2,1.2 0 0 1 60,125.2 1.2,1.2 0 0 1 58.8,124 1.2,1.2 0 0 1 60,122.8 1.2,1.2 0 0 1 61.2,124 Z" />
  <path
     id="mark3"
     style="fill:#7a7a7a"
     d="M 36.2,174 A 1.2,1.2 0 0 1 35,175.2 1.2,1.2 0 0 1 33.8,174 1.2,1.2 0 0 1 35,172.8 1.2,1.2 0 0 1 36.2,174 Z" />
  <path
     id="mark4"
     style="fill:#7a7a7a"
     d="M 36.2,224 A 1.2,1.2 0 0 1 35,225.2 1.2,1.2 0 0 1 33.8,224 1.2,1.2 0 0 1 35,222.8 1.2,1.2 0 0 1 36.2,224 Z" />
  <path
     d="m 34.6036,250 v -3.9728 h 0.525733 v 3.50398 h 1.956592 V 250 Z m 2.948438,-1.93491 q 0,-0.98914 0.531152,-1.54739 0.531153,-0.56096 1.37124,-0.56096 0.550123,0 0.991846,0.26286 0.441724,0.26287 0.672071,0.7344 0.233056,0.46883 0.233056,1.06502 0,0.60432 -0.243896,1.08127 -0.243897,0.47696 -0.69104,0.72356 -0.447144,0.2439 -0.964747,0.2439 -0.560961,0 -1.002685,-0.271 -0.441724,-0.27099 -0.66936,-0.73982 -0.227637,-0.46882 -0.227637,-0.99184 z m 0.541992,0.008 q 0,0.71814 0.384814,1.13276 0.387525,0.41192 0.970167,0.41192 0.593481,0 0.975585,-0.41734 0.384815,-0.41733 0.384815,-1.18425 0,-0.48508 -0.165308,-0.84551 -0.162597,-0.36313 -0.479663,-0.56096 -0.314355,-0.20054 -0.7073,-0.20054 -0.558252,0 -0.962036,0.38482 -0.401074,0.3821 -0.401074,1.2791 z m 6.769483,0.53386 0.525732,0.13279 q -0.165307,0.64768 -0.596191,0.98913 -0.428174,0.33875 -1.048755,0.33875 -0.642261,0 -1.046045,-0.26016 -0.401074,-0.26286 -0.612451,-0.75879 -0.208667,-0.49592 -0.208667,-1.06501 0,-0.62058 0.235766,-1.08128 0.238477,-0.4634 0.674781,-0.70188 0.439013,-0.24118 0.964746,-0.24118 0.596191,0 1.002685,0.30351 0.406494,0.30352 0.566382,0.85364 l -0.517602,0.12195 q -0.138208,-0.43359 -0.401075,-0.63142 -0.262866,-0.19783 -0.66123,-0.19783 -0.457984,0 -0.766919,0.21951 -0.306226,0.21951 -0.430884,0.59077 -0.124658,0.36855 -0.124658,0.7615 0,0.50676 0.146338,0.88616 0.149048,0.37668 0.460693,0.56367 0.311646,0.18699 0.67478,0.18699 0.441724,0 0.74795,-0.25474 0.306225,-0.25474 0.414624,-0.75608 z M 46.015246,250 v -3.9728 h 0.525733 v 1.97014 l 1.972851,-1.97014 h 0.71272 L 47.559924,247.63691 49.299719,250 h -0.69375 l -1.4146,-2.01079 -0.65039,0.63413 V 250 Z m 3.544629,-1.27639 0.495923,-0.0434 q 0.03523,0.29809 0.162598,0.4905 0.130078,0.1897 0.401074,0.30894 0.270996,0.11653 0.609741,0.11653 0.300806,0 0.531153,-0.0894 0.230346,-0.0894 0.341455,-0.2439 0.113818,-0.15718 0.113818,-0.34145 0,-0.18699 -0.108398,-0.3252 -0.108399,-0.14092 -0.357715,-0.23577 -0.159888,-0.0623 -0.7073,-0.1924 -0.547412,-0.13279 -0.766919,-0.24932 -0.284546,-0.14905 -0.425464,-0.36855 -0.138208,-0.22222 -0.138208,-0.49593 0,-0.3008 0.170728,-0.56096 0.170727,-0.26287 0.498633,-0.39836 0.327905,-0.1355 0.728979,-0.1355 0.441724,0 0.777759,0.14363 0.338745,0.14091 0.520312,0.41733 0.181568,0.27642 0.195118,0.626 l -0.504053,0.0379 q -0.04065,-0.37668 -0.276416,-0.56909 -0.233057,-0.19241 -0.69104,-0.19241 -0.476953,0 -0.69646,0.17615 -0.216797,0.17344 -0.216797,0.42004 0,0.21409 0.154468,0.3523 0.151757,0.13821 0.791308,0.28454 0.642261,0.14363 0.880738,0.25203 0.346875,0.15989 0.512182,0.40649 0.165308,0.2439 0.165308,0.56368 0,0.31706 -0.181567,0.5989 -0.181568,0.27912 -0.523023,0.4363 -0.338745,0.15447 -0.764209,0.15447 -0.539282,0 -0.905127,-0.15718 -0.363135,-0.15718 -0.571802,-0.47153 -0.205957,-0.31707 -0.216797,-0.71543 z M 55.893053,250 v -3.50398 h -1.308911 v -0.46882 h 3.148975 v 0.46882 H 56.418786 V 250 Z m 2.119191,-1.93491 q 0,-0.98914 0.531153,-1.54739 0.531152,-0.56096 1.37124,-0.56096 0.550122,0 0.991846,0.26286 0.441723,0.26287 0.67207,0.7344 0.233057,0.46883 0.233057,1.06502 0,0.60432 -0.243897,1.08127 -0.243896,0.47696 -0.69104,0.72356 -0.447143,0.2439 -0.964746,0.2439 -0.560962,0 -1.002686,-0.271 -0.441723,-0.27099 -0.66936,-0.73982 -0.227637,-0.46882 -0.227637,-0.99184 z m 0.541993,0.008 q 0,0.71814 0.384814,1.13276 0.387524,0.41192 0.970166,0.41192 0.593481,0 0.975586,-0.41734 0.384814,-0.41733 0.384814,-1.18425 0,-0.48508 -0.165307,-0.84551 -0.162598,-0.36313 -0.479663,-0.56096 -0.314356,-0.20054 -0.7073,-0.20054 -0.558252,0 -0.962036,0.38482 -0.401074,0.3821 -0.401074,1.2791 z M 64.009387,250 v -3.9728 h 1.490478 q 0.455274,0 0.72898,0.12195 0.276416,0.11923 0.430884,0.37126 0.157177,0.24932 0.157177,0.52302 0,0.25474 -0.138208,0.47967 -0.138208,0.22492 -0.417334,0.36313 0.360425,0.10569 0.552832,0.36043 0.195118,0.25473 0.195118,0.60161 0,0.27912 -0.119239,0.52031 -0.116528,0.23848 -0.289966,0.36855 -0.173437,0.13008 -0.436303,0.19783 Q 65.903649,250 65.524255,250 Z m 0.525732,-2.30347 h 0.859058 q 0.349585,0 0.501343,-0.0461 0.200537,-0.0596 0.300805,-0.19782 0.102979,-0.13821 0.102979,-0.34688 0,-0.19783 -0.09485,-0.34687 -0.09485,-0.15176 -0.270996,-0.20596 -0.176147,-0.0569 -0.604321,-0.0569 h -0.794019 z m 0,1.83465 h 0.989136 q 0.254736,0 0.357715,-0.019 0.181567,-0.0325 0.303515,-0.1084 0.121949,-0.0759 0.200538,-0.21951 0.07859,-0.14634 0.07859,-0.33603 0,-0.22222 -0.113818,-0.38482 -0.113818,-0.16531 -0.317065,-0.23034 -0.200538,-0.0678 -0.579932,-0.0678 h -0.918677 z m 5.804737,-3.50398 h 0.525732 v 2.29533 q 0,0.59891 -0.135498,0.9512 -0.135498,0.3523 -0.490503,0.57451 -0.352295,0.21951 -0.926806,0.21951 -0.558252,0 -0.913257,-0.19241 -0.355005,-0.19241 -0.506763,-0.55554 -0.151758,-0.36584 -0.151758,-0.99727 v -2.29533 h 0.525733 v 2.29262 q 0,0.51761 0.09485,0.76421 0.09756,0.2439 0.330616,0.37669 0.235766,0.13279 0.574511,0.13279 0.579932,0 0.826538,-0.26287 0.246607,-0.26287 0.246607,-1.01082 z M 71.768007,250 v -3.9728 h 2.680151 v 0.46882 h -2.154419 v 1.23032 h 1.864453 v 0.46883 H 72.293739 V 250 Z m 3.390159,0 v -3.9728 h 2.680152 v 0.46882 h -2.154419 v 1.23032 h 1.864453 v 0.46883 H 75.683899 V 250 Z m 3.373904,0 v -3.9728 h 2.872559 v 0.46882 h -2.346827 v 1.21677 h 2.197779 v 0.46612 h -2.197779 v 1.35227 h 2.438965 V 250 Z m 3.699095,0 v -3.9728 h 1.761475 q 0.531152,0 0.807568,0.1084 0.276416,0.10568 0.441724,0.37668 0.165308,0.271 0.165308,0.5989 0,0.42276 -0.273707,0.71272 -0.273706,0.28997 -0.845507,0.36856 0.208667,0.10026 0.317065,0.19782 0.230347,0.21138 0.436304,0.52845 L 85.732435,250 h -0.661231 l -0.525732,-0.82654 q -0.230347,-0.35771 -0.379395,-0.54741 -0.149047,-0.1897 -0.268286,-0.26558 -0.116528,-0.0759 -0.238476,-0.10568 -0.08943,-0.019 -0.292676,-0.019 H 82.756898 V 250 Z m 0.525733,-2.21946 h 1.130053 q 0.360425,0 0.563672,-0.0732 0.203247,-0.0759 0.308936,-0.23847 0.105688,-0.16531 0.105688,-0.35772 0,-0.28183 -0.205957,-0.4634 -0.203247,-0.18157 -0.64497,-0.18157 h -1.257422 z"
     id="note"
     class="subtle"
     style="font-size:5.55px;font-family:Arial, sans-serif;text-anchor:middle;fill:#a9a9a9"
     aria-label="LOCKS TO BUFFER" />
  <g
     transform="matrix(1.6722989,0,0,1.6988345,39.410128,-73.316566)"
     id="layer1-7"
     inkscape:label="Layer 1">
    <rect
       y="256.12662"
       x="29.52006"
       height="1.6536458"
       width="7.2760415"
       id="rect823"
       style="fill:#ffffff;fill-opacity:1;stroke:none;stroke-width:0.710598;stroke-miterlimit:4;stroke-dasharray:none;stroke-opacity:1" />
    <rect
       y="256.57309"
       x="28.643627"
       height="0.51248246"
       width="9.0803432"
       id="rect821"
       style="fill:#ffffff;fill-opacity:1;stroke:none;stroke-width:0.176948;stroke-miterlimit:4;stroke-dasharray:none;stroke-opacity:1" />
    <ellipse
       ry="5.8699069"
       rx="6.1973119"
       cy="250.78661"
       cx="33.068214"
       id="path817"
       style="fill:#ffffff;fill-opacity:1;stroke:none;stroke-width:0.294763;stroke-miterlimit:4;stroke-dasharray:none;stroke-opacity:1" />
    <rect
       y="257.08557"
       x="28.265131"
       height="4.3030396"
       width="9.541522"
       id="rect819"
       style="fill:#ffffff;fill-opacity:1;stroke:none;stroke-width:0.236954;stroke-miterlimit:4;stroke-dasharray:none;stroke-opacity:1" />
    <path
       style="fill:#54b6fc;stroke-width:0.434238"
       d="m 28.040353,261.67777 c -0.05624,-0.1049 -0.09132,-1.05343 -0.09132,-2.46939 0,-2.62823 -0.06483,-2.41007 0.868669,-2.92327 0.298327,-0.16393 0.542417,-0.32331 0.542417,-0.35402 0,-0.0309 -0.162318,-0.16826 -0.360716,-0.30583 -1.028016,-0.71241 -2.013971,-2.17766 -2.338877,-3.47584 -0.201325,-0.80442 -0.134174,-2.39054 0.13451,-3.17721 1.033244,-3.02511 4.386038,-4.85502 7.661927,-4.18175 2.136444,0.4391 3.832748,1.7715 4.690824,3.6846 0.361925,0.8069 0.484002,1.41362 0.481552,2.39329 -0.0043,1.76252 -0.804317,3.40089 -2.221636,4.55038 -0.254647,0.20641 -0.463011,0.4065 -0.463011,0.44439 0,0.038 0.188503,0.17638 0.418915,0.30774 0.88078,0.5022 0.815782,0.26078 0.815782,3.02947 0,1.77735 -0.02862,2.465 -0.105831,2.54221 -0.07977,0.0796 -1.316324,0.10568 -5.023888,0.10568 -4.772077,0 -4.920765,-0.006 -5.009351,-0.17069 z m 4.778272,-1.34136 c 0.02029,-0.72066 0.0537,-0.91258 0.172084,-0.98706 0.106484,-0.067 0.185415,-0.0605 0.286623,0.0243 0.110188,0.0915 0.139673,0.2998 0.139673,0.98705 v 0.87111 h 2.031202 c 1.725502,0 2.038854,-0.0189 2.082046,-0.13248 0.118689,-0.30933 -0.0843,-0.54865 -1.048716,-1.23644 -0.806681,-0.57531 -0.992,-0.74828 -0.992,-0.92603 0,-0.17285 0.05069,-0.22425 0.242529,-0.24644 l 0.242526,-0.0279 v -0.72694 c 0,-0.82266 0.11329,-1.0851 0.425635,-0.98597 0.182308,0.0579 0.191777,0.11143 0.193075,1.09112 6.9e-4,0.56673 0.03051,1.07216 0.06615,1.12322 0.107317,0.15365 0.691445,0.5686 0.80071,0.5686 0.07253,0 0.101903,-0.37768 0.101903,-1.30922 0,-1.48548 0.04525,-1.38286 -0.823095,-1.86798 l -0.514419,-0.28745 -0.896236,0.29918 c -0.869904,0.29041 -0.937695,0.2992 -2.307746,0.29891 -1.355532,-2.1e-4 -1.441911,-0.0113 -2.177833,-0.27426 l -0.766317,-0.27401 -0.710913,0.40097 -0.710915,0.40096 v 1.35053 c 0,0.7428 0.02272,1.35058 0.05046,1.35058 0.02775,0 0.226187,-0.10309 0.440962,-0.22887 l 0.390524,-0.22887 0.0014,-0.89557 c 0.0016,-1.14751 0.206306,-1.60144 0.561721,-1.24599 0.108544,0.1085 0.142513,0.31853 0.142513,0.88028 v 0.7378 l 0.290718,-0.0471 c 0.315025,-0.0511 0.543194,0.11558 0.458905,0.33517 -0.02597,0.0676 -0.562393,0.43193 -1.192126,0.80964 -1.113533,0.66789 -1.144968,0.69508 -1.144968,0.9907 v 0.30396 h 2.069441 2.069444 z m 2.265337,-4.35748 c 1.820054,-0.60937 3.301106,-2.14018 3.754405,-3.88051 0.141672,-0.5439 0.182494,-2.03256 0.06101,-2.22398 -0.0547,-0.0862 -0.514454,-0.10647 -1.993182,-0.0881 l -1.922097,0.0243 -0.285943,0.79373 c -0.250451,0.69526 -0.311823,0.79372 -0.494567,0.79372 -0.193669,0 -0.219614,-0.0593 -0.361764,-0.82692 -0.233437,-1.26061 -0.264438,-1.24093 -0.550459,0.34982 -0.250913,1.39568 -0.282965,1.49134 -0.499452,1.49134 -0.208819,0 -0.19843,0.0455 -0.591264,-2.59459 -0.179846,-1.20877 -0.366691,-2.21079 -0.415197,-2.22673 -0.04851,-0.0164 -0.346157,0.47702 -0.661443,1.09535 l -0.573255,1.12428 -1.649981,0.0244 -1.649981,0.0243 -0.05961,0.3176 c -0.100912,0.53789 0.02055,1.63287 0.25608,2.31038 0.480987,1.38307 1.462121,2.47313 2.838905,3.15409 1.070426,0.52942 1.68831,0.6568 2.998555,0.61816 0.870867,-0.027 1.189545,-0.0752 1.799239,-0.27931 z m -2.582339,-0.34598 c -0.501349,-0.14204 -0.612279,-0.23104 -0.568647,-0.45582 0.02803,-0.14447 0.130451,-0.16555 0.868148,-0.17909 0.460004,-0.008 0.975273,-0.0281 1.145044,-0.0441 0.276178,-0.0243 0.311494,-0.006 0.335474,0.20237 0.023,0.19722 -0.02543,0.25187 -0.329357,0.37355 -0.522805,0.20913 -0.965587,0.24078 -1.450662,0.1031 z m -1.6422,-2.07469 c -0.09701,-0.0972 -0.176384,-0.25567 -0.176384,-0.35282 0,-0.24453 0.308426,-0.52913 0.573253,-0.52913 0.264818,0 0.573252,0.28468 0.573252,0.52913 0,0.24455 -0.308429,0.52918 -0.573252,0.52918 -0.121275,0 -0.299857,-0.0793 -0.396869,-0.17636 z m 3.439517,-0.0882 c -0.232761,-0.23267 -0.222508,-0.40285 0.0401,-0.66546 0.243582,-0.24345 0.329798,-0.25996 0.605107,-0.11502 0.242042,0.12748 0.321863,0.24591 0.323575,0.48022 0.0031,0.43406 -0.63668,0.63239 -0.968767,0.30029 z m -1.151475,-4.27736 c 0.296559,-1.78581 0.575578,-1.83207 0.874871,-0.14501 0.09772,0.55084 0.197295,1.02113 0.221263,1.04511 0.08271,0.0828 0.212362,-0.0613 0.273139,-0.30344 0.117052,-0.46642 0.107419,-0.46436 2.176972,-0.46436 2.188984,0 2.146871,0.0162 1.845872,-0.66529 -0.655344,-1.4815 -2.160669,-2.71162 -3.887876,-3.17706 -0.773684,-0.20858 -2.314597,-0.21425 -3.086746,-0.0113 -1.862761,0.48917 -3.433992,1.84034 -4.06194,3.49292 l -0.172218,0.45328 1.47768,-0.0243 1.477684,-0.0244 0.705541,-1.38465 c 0.388047,-0.76156 0.755433,-1.43456 0.816413,-1.4955 0.244962,-0.24482 0.364055,0.12518 0.643002,1.99713 0.151683,1.01798 0.296644,1.88465 0.322123,1.92588 0.102882,0.16637 0.192723,-0.12627 0.374219,-1.21922 z"
       id="path4012-8"
       inkscape:connector-curvature="0" />
    <path
       style="fill:#a0a0a0;stroke-width:0.434238"
       d="m 28.040353,261.67777 c -0.05624,-0.1049 -0.09132,-1.05343 -0.09132,-2.46939 0,-2.62823 -0.06483,-2.41007 0.868669,-2.92327 0.298327,-0.16393 0.542417,-0.32331 0.542417,-0.35402 0,-0.0309 -0.162318,-0.16826 -0.360716,-0.30583 -1.028016,-0.71241 -2.013971,-2.17766 -2.338877,-3.47584 -0.201325,-0.80442 -0.134174,-2.39054 0.13451,-3.17721 1.033244,-3.02511 4.386038,-4.85502 7.661927,-4.18175 2.136444,0.4391 3.832748,1.7715 4.690824,3.6846 0.361925,0.8069 0.484002,1.41362 0.481552,2.39329 -0.0043,1.76252 -0.804317,3.40089 -2.221636,4.55038 -0.254647,0.20641 -0.463011,0.4065 -0.463011,0.44439 0,0.038 0.188503,0.17638 0.418915,0.30774 0.88078,0.5022 0.815782,0.26078 0.815782,3.02947 0,1.77735 -0.02862,2.465 -0.105831,2.54221 -0.07977,0.0796 -1.316324,0.10568 -5.023888,0.10568 -4.772077,0 -4.920765,-0.006 -5.009351,-0.17069 z m 4.778272,-1.34136 c 0.02029,-0.72066 0.0537,-0.91258 0.172084,-0.98706 0.106484,-0.067 0.185415,-0.0605 0.286623,0.0243 0.110188,0.0915 0.139673,0.2998 0.139673,0.98705 v 0.87111 h 2.031202 c 1.725502,0 2.038854,-0.0189 2.082046,-0.13248 0.118689,-0.30933 -0.0843,-0.54865 -1.048716,-1.23644 -0.806681,-0.57531 -0.992,-0.74828 -0.992,-0.92603 0,-0.17285 0.05069,-0.22425 0.242529,-0.24644 l 0.242526,-0.0279 v -0.72694 c 0,-0.82266 0.11329,-1.0851 0.425635,-0.98597 0.182308,0.0579 0.191777,0.11143 0.193075,1.09112 6.9e-4,0.56673 0.03051,1.07216 0.06615,1.12322 0.107317,0.15365 0.691445,0.5686 0.80071,0.5686 0.07253,0 0.101903,-0.37768 0.101903,-1.30922 0,-1.48548 0.04525,-1.38286 -0.823095,-1.86798 l -0.514419,-0.28745 -0.896236,0.29918 c -0.869904,0.29041 -0.937695,0.2992 -2.307746,0.29891 -1.355532,-2.1e-4 -1.441911,-0.0113 -2.177833,-0.27426 l -0.766317,-0.27401 -0.710913,0.40097 -0.710915,0.40096 v 1.35053 c 0,0.7428 0.02272,1.35058 0.05046,1.35058 0.02775,0 0.226187,-0.10309 0.440962,-0.22887 l 0.390524,-0.22887 0.0014,-0.89557 c 0.0016,-1.14751 0.206306,-1.60144 0.561721,-1.24599 0.108544,0.1085 0.142513,0.31853 0.142513,0.88028 v 0.7378 l 0.290718,-0.0471 c 0.315025,-0.0511 0.543194,0.11558 0.458905,0.33517 -0.02597,0.0676 -0.562393,0.43193 -1.192126,0.80964 -1.113533,0.66789 -1.144968,0.69508 -1.144968,0.9907 v 0.30396 h 2.069441 2.069444 z m 2.265337,-4.35748 c 1.403562,-0.46993 2.640938,-1.50058 3.294283,-2.74387 0.429067,-0.81653 0.595175,-1.49004 0.593708,-2.40729 -0.002,-1.2675 0.205601,-1.15 -2.032309,-1.15 -1.442955,0 -1.942613,0.0275 -1.996101,0.11041 -0.03924,0.0606 -0.191398,0.42737 -0.338104,0.81498 -0.382438,1.0104 -0.497129,0.9789 -0.708436,-0.1945 -0.249425,-1.38497 -0.369803,-1.31205 -0.674781,0.40874 -0.236279,1.33315 -0.338408,1.62908 -0.50309,1.45776 -0.04428,-0.0461 -0.22394,-1.07598 -0.399194,-2.28859 -0.378048,-2.61568 -0.375281,-2.60172 -0.515638,-2.60172 -0.06054,0 -0.377093,0.53579 -0.703448,1.19062 l -0.593372,1.1906 h -1.626578 -1.626579 l -0.06131,0.40891 c -0.234007,1.5605 0.483321,3.42764 1.761718,4.58559 0.632883,0.57328 1.868907,1.21483 2.698432,1.40062 0.933964,0.20911 2.512332,0.12546 3.430809,-0.18205 z m -2.582339,-0.34598 c -0.501349,-0.14204 -0.612279,-0.23104 -0.568647,-0.45582 0.02803,-0.14447 0.130451,-0.16555 0.868148,-0.17909 0.460004,-0.008 0.975273,-0.0281 1.145044,-0.0441 0.276178,-0.0243 0.311494,-0.006 0.335474,0.20237 0.023,0.19722 -0.02543,0.25187 -0.329357,0.37355 -0.522805,0.20913 -0.965587,0.24078 -1.450662,0.1031 z m -1.6422,-2.07469 c -0.09701,-0.0972 -0.176384,-0.25567 -0.176384,-0.35282 0,-0.24453 0.308426,-0.52913 0.573253,-0.52913 0.264818,0 0.573252,0.28468 0.573252,0.52913 0,0.24455 -0.308429,0.52918 -0.573252,0.52918 -0.121275,0 -0.299857,-0.0793 -0.396869,-0.17636 z m 3.439517,-0.0882 c -0.232761,-0.23267 -0.222508,-0.40285 0.0401,-0.66546 0.243582,-0.24345 0.329798,-0.25996 0.605107,-0.11502 0.242042,0.12748 0.321863,0.24591 0.323575,0.48022 0.0031,0.43406 -0.63668,0.63239 -0.968767,0.30029 z m -1.097809,-4.10189 c 0.211607,-1.21013 0.333943,-1.55258 0.494567,-1.38443 0.03281,0.0344 0.152225,0.57839 0.265306,1.20896 0.232869,1.29834 0.343523,1.42064 0.618496,0.68352 l 0.172705,-0.46302 h 1.972971 c 1.085132,0 1.99242,-0.0315 2.016195,-0.0698 0.08023,-0.12991 -0.357483,-1.05886 -0.773608,-1.642 -0.728041,-1.02028 -1.981677,-1.859 -3.316077,-2.21859 -0.773686,-0.20857 -2.314601,-0.21426 -3.086747,-0.0113 -1.084749,0.28486 -1.999152,0.80872 -2.786328,1.59624 -0.677355,0.67767 -1.19903,1.50881 -1.403089,2.23545 l -0.05574,0.19856 1.439077,-9.8e-4 c 0.791494,-6.2e-4 1.483847,-0.0306 1.538565,-0.0662 0.05473,-0.0355 0.422055,-0.70973 0.816304,-1.49793 0.672478,-1.34451 0.811339,-1.54707 0.929474,-1.35595 0.02624,0.0426 0.169945,0.92549 0.319337,1.9623 0.278277,1.93132 0.382411,2.3719 0.526552,2.22775 0.04457,-0.0447 0.184959,-0.67541 0.312001,-1.40192 z"
       id="path4010-0"
       inkscape:connector-curvature="0" />
    <path
       style="fill:#179cfd;stroke-width:0.434238"
       d="m 28.084301,261.62139 c -0.09334,-0.2432 -0.06068,-4.53422 0.03585,-4.71459 0.04932,-0.0922 0.366818,-0.32942 0.705541,-0.52725 0.338727,-0.19778 0.615865,-0.39635 0.615865,-0.44114 0,-0.0449 -0.225402,-0.25131 -0.5009,-0.45914 -1.007366,-0.75955 -1.863496,-2.05429 -2.182561,-3.30077 -0.176274,-0.68859 -0.179006,-2.04001 -0.0054,-2.72476 0.07324,-0.28909 0.298305,-0.86296 0.500144,-1.27526 0.293281,-0.59912 0.51896,-0.90166 1.123813,-1.50667 0.628099,-0.62825 0.899287,-0.82698 1.594434,-1.16847 1.206772,-0.59277 1.759323,-0.7188 3.130615,-0.71416 0.806735,0.002 1.311968,0.0495 1.704825,0.15746 3.200698,0.88036 5.194794,3.81447 4.65392,6.84772 -0.248316,1.39251 -1.241594,2.98286 -2.337264,3.74216 -0.198811,0.13767 -0.36148,0.28303 -0.36148,0.3228 0,0.0398 0.277437,0.23428 0.616524,0.43238 0.393273,0.22968 0.633784,0.4307 0.664178,0.55509 0.02625,0.10714 0.03649,1.24673 0.02299,2.53213 l -0.02488,2.33712 -4.951132,0.0216 c -4.457619,0.0215 -4.956494,0.008 -5.004941,-0.11734 z m 4.796794,-1.27231 c 0.04062,-0.85254 0.0581,-0.92604 0.220478,-0.92604 0.162399,0 0.179874,0.0735 0.22048,0.92604 l 0.0441,0.92602 h 2.11542 c 1.979416,0 2.117418,-0.0113 2.146485,-0.16124 0.07415,-0.38501 -0.08786,-0.58193 -1.039039,-1.26279 -0.5321,-0.38086 -0.988888,-0.74572 -1.015085,-0.81071 -0.07133,-0.17694 0.02596,-0.27867 0.266821,-0.27867 0.212067,0 0.215285,-0.0113 0.215285,-0.78294 0,-0.57789 0.03363,-0.81084 0.12842,-0.88952 0.247505,-0.20531 0.312538,-0.006 0.312538,0.96492 0,0.5267 0.02407,1.0201 0.05321,1.09639 0.07569,0.19722 0.895628,0.78122 1.003392,0.71461 0.137026,-0.0848 0.118488,-2.70962 -0.02028,-2.88339 -0.06062,-0.0761 -0.366131,-0.28527 -0.678882,-0.46529 -0.638192,-0.36731 -0.664782,-0.36715 -1.680277,0.0113 -0.620191,0.23022 -0.749452,0.24593 -2.072528,0.24835 -1.367516,0.002 -1.436372,-0.006 -2.229991,-0.28332 l -0.818897,-0.286 -0.707163,0.41086 c -0.388942,0.22589 -0.744718,0.48108 -0.790616,0.56686 -0.04592,0.0857 -0.08344,0.71537 -0.08344,1.39919 0,0.99797 0.02488,1.25279 0.126404,1.29174 0.157447,0.0603 0.905595,-0.36921 1.022127,-0.58694 0.04739,-0.0885 0.0862,-0.57804 0.0862,-1.08767 0,-0.95796 0.0901,-1.20675 0.322052,-0.88956 0.07719,0.10547 0.118894,0.4201 0.118894,0.89644 v 0.73386 l 0.360543,-0.0576 c 0.341277,-0.0546 0.358954,-0.0466 0.330725,0.14961 -0.02299,0.16068 -0.280994,0.35508 -1.148549,0.86561 -1.145685,0.67416 -1.30229,0.84178 -1.171412,1.25421 0.05178,0.16311 0.145382,0.16933 2.186334,0.14688 l 2.132238,-0.0243 z m 2.160723,-4.26226 c 1.769875,-0.57963 3.167996,-1.90262 3.76078,-3.55863 0.192048,-0.53652 0.328288,-2.18171 0.217288,-2.62393 l -0.05685,-0.22641 h -1.977453 c -1.485114,0 -1.995217,0.0273 -2.0488,0.11041 -0.03924,0.0605 -0.191399,0.42736 -0.338105,0.81497 -0.382437,1.0104 -0.497129,0.97892 -0.708437,-0.1945 -0.249424,-1.38497 -0.369803,-1.31205 -0.674782,0.40873 -0.236276,1.33315 -0.338406,1.62909 -0.503087,1.45777 -0.04428,-0.046 -0.223941,-1.07597 -0.399196,-2.28861 -0.378048,-2.61567 -0.375282,-2.6017 -0.515636,-2.6017 -0.06054,0 -0.377094,0.53578 -0.703448,1.19062 l -0.593373,1.19063 h -1.628884 c -1.902339,0 -1.81147,-0.0499 -1.81147,0.99426 0,0.80431 0.255081,1.83651 0.632916,2.56111 0.424332,0.81377 1.610253,1.95985 2.460638,2.37796 1.097382,0.53952 1.794389,0.68665 3.07994,0.64999 0.892825,-0.0244 1.23655,-0.0755 1.807954,-0.26241 z m -2.425303,-0.51429 c -0.478805,-0.10703 -0.703657,-0.2876 -0.549872,-0.44139 0.07642,-0.0766 0.231706,-0.0808 0.585546,-0.0162 0.356597,0.0647 0.599579,0.0571 0.936494,-0.0291 0.48231,-0.12329 0.615302,-0.0987 0.615302,0.11422 0,0.28859 -0.958357,0.51378 -1.58747,0.37302 z m -1.706091,-2.08738 c -0.189693,-0.20965 -0.184796,-0.3936 0.01543,-0.57471 0.232894,-0.21073 0.518062,-0.17963 0.684657,0.0743 0.133834,0.20423 0.133834,0.23669 0,0.44096 -0.171756,0.26213 -0.491832,0.2892 -0.699982,0.0593 z m 3.421615,-0.14148 c -0.271481,-0.41435 0.198702,-0.82027 0.625904,-0.54036 0.247452,0.16205 0.279238,0.41467 0.07757,0.61634 -0.207737,0.20776 -0.541169,0.17179 -0.703478,-0.0761 z m -1.137669,-3.97553 c 0.211606,-1.21013 0.333942,-1.55259 0.494569,-1.38441 0.03282,0.0344 0.152224,0.57837 0.265305,1.20895 0.23276,1.29772 0.34355,1.42057 0.617887,0.68512 l 0.172107,-0.46134 2.000835,-0.0243 c 2.352706,-0.0279 2.281076,0.0162 1.723959,-1.05794 -0.429635,-0.82824 -1.435244,-1.8525 -2.279603,-2.32184 -3.036046,-1.6875 -6.967182,-0.61741 -8.490501,2.31125 -0.205682,0.39548 -0.373989,0.82207 -0.373989,0.94808 v 0.22911 l 1.433135,-9.7e-4 c 0.788221,-6e-4 1.477901,-0.0306 1.53262,-0.0663 0.05473,-0.0355 0.422054,-0.7097 0.816303,-1.49792 0.672479,-1.34449 0.811342,-1.54706 0.929474,-1.35594 0.02625,0.0425 0.169945,0.9255 0.319337,1.96229 0.278278,1.93132 0.382411,2.37191 0.526555,2.22776 0.04455,-0.0447 0.184956,-0.67543 0.311999,-1.40192 z"
       id="path4008-4"
       inkscape:connector-curvature="0" />
    <path
       style="fill:#050505;fill-opacity:1;stroke-width:0.434238"
       d="m 28.084301,261.62139 c -0.09334,-0.2432 -0.06068,-4.53422 0.03585,-4.71459 0.04932,-0.0922 0.366818,-0.32942 0.705541,-0.52725 0.338727,-0.19778 0.615865,-0.39635 0.615865,-0.44114 0,-0.0449 -0.225402,-0.25131 -0.5009,-0.45914 -1.007366,-0.75955 -1.863496,-2.05429 -2.182561,-3.30077 -0.176274,-0.68859 -0.179006,-2.04001 -0.0054,-2.72476 0.07324,-0.28909 0.298305,-0.86296 0.500144,-1.27526 0.293281,-0.59912 0.51896,-0.90166 1.123813,-1.50667 0.628099,-0.62825 0.899287,-0.82698 1.594434,-1.16847 1.206772,-0.59277 1.759323,-0.7188 3.130615,-0.71416 0.806735,0.002 1.311968,0.0495 1.704825,0.15746 3.200698,0.88036 5.194794,3.81447 4.65392,6.84772 -0.248316,1.39251 -1.241594,2.98286 -2.337264,3.74216 -0.198811,0.13767 -0.36148,0.28303 -0.36148,0.3228 0,0.0398 0.277437,0.23428 0.616524,0.43238 0.393273,0.22968 0.633784,0.4307 0.664178,0.55509 0.02625,0.10714 0.03649,1.24673 0.02299,2.53213 l -0.02488,2.33712 -4.951132,0.0216 c -4.457619,0.0215 -4.956494,0.008 -5.004941,-0.11734 z m 4.796794,-1.27231 c 0.04062,-0.85254 0.0581,-0.92604 0.220478,-0.92604 0.162399,0 0.179874,0.0735 0.22048,0.92604 l 0.0441,0.92602 h 2.11542 c 1.979416,0 2.117418,-0.0113 2.146485,-0.16124 0.07415,-0.38501 -0.08786,-0.58193 -1.039039,-1.26279 -0.5321,-0.38086 -0.988888,-0.74572 -1.015085,-0.81071 -0.07133,-0.17694 0.02596,-0.27867 0.266821,-0.27867 0.212067,0 0.215285,-0.0113 0.215285,-0.78294 0,-0.57789 0.03363,-0.81084 0.12842,-0.88952 0.247505,-0.20531 0.312538,-0.006 0.312538,0.96492 0,0.5267 0.02407,1.0201 0.05321,1.09639 0.07569,0.19722 0.895628,0.78122 1.003392,0.71461 0.137026,-0.0848 0.118488,-2.70962 -0.02028,-2.88339 -0.06062,-0.0761 -0.366131,-0.28527 -0.678882,-0.46529 -0.638192,-0.36731 -0.664782,-0.36715 -1.680277,0.0113 -0.620191,0.23022 -0.749452,0.24593 -2.072528,0.24835 -1.367516,0.002 -1.436372,-0.006 -2.229991,-0.28332 l -0.818897,-0.286 -0.707163,0.41086 c -0.388942,0.22589 -0.744718,0.48108 -0.790616,0.56686 -0.04592,0.0857 -0.08344,0.71537 -0.08344,1.39919 0,0.99797 0.02488,1.25279 0.126404,1.29174 0.157447,0.0603 0.905595,-0.36921 1.022127,-0.58694 0.04739,-0.0885 0.0862,-0.57804 0.0862,-1.08767 0,-0.95796 0.0901,-1.20675 0.322052,-0.88956 0.07719,0.10547 0.118894,0.4201 0.118894,0.89644 v 0.73386 l 0.360543,-0.0576 c 0.341277,-0.0546 0.358954,-0.0466 0.330725,0.14961 -0.02299,0.16068 -0.280994,0.35508 -1.148549,0.86561 -1.145685,0.67416 -1.30229,0.84178 -1.171412,1.25421 0.05178,0.16311 0.145382,0.16933 2.186334,0.14688 l 2.132238,-0.0243 z m 2.160723,-4.26226 c 1.798336,-0.58895 3.232202,-1.974 3.804655,-3.6751 0.213148,-0.63339 0.221914,-2.36663 0.01569,-3.09953 -0.356769,-1.26779 -1.453375,-2.62144 -2.672695,-3.2992 -2.477562,-1.37709 -5.596645,-0.9588 -7.541693,1.01144 -1.633552,1.65471 -2.027872,4.11443 -0.994473,6.2034 0.44418,0.89788 1.576714,2.0172 2.500652,2.47147 1.097382,0.53953 1.794387,0.68664 3.079941,0.64999 0.892823,-0.0243 1.236549,-0.0756 1.807951,-0.26241 z m -2.425303,-0.51429 c -0.478805,-0.10703 -0.703657,-0.2876 -0.549872,-0.44139 0.07642,-0.0766 0.231706,-0.0808 0.585546,-0.0162 0.356597,0.0647 0.599579,0.0571 0.936494,-0.0291 0.48231,-0.12329 0.615302,-0.0987 0.615302,0.11422 0,0.28859 -0.958357,0.51378 -1.58747,0.37302 z m -1.706091,-2.08738 c -0.189693,-0.20965 -0.184796,-0.3936 0.01543,-0.57471 0.232894,-0.21073 0.518062,-0.17963 0.684657,0.0743 0.133834,0.20423 0.133834,0.23669 0,0.44096 -0.171756,0.26213 -0.491832,0.2892 -0.699982,0.0593 z m 3.421615,-0.14148 c -0.271481,-0.41435 0.198702,-0.82027 0.625904,-0.54036 0.247452,0.16205 0.279238,0.41467 0.07757,0.61634 -0.207737,0.20776 -0.541169,0.17179 -0.703478,-0.0761 z"
       id="path4006-5"
       inkscape:connector-curvature="0" />
  </g>
  <path
     d="m 19.806916,361.42168 v -9.54424 h 1.874995 l 3.90624,6.37368 v -6.37368 h 1.79036 v 9.54424 h -1.933589 l -3.847646,-6.22394 v 6.22394 z m 13.600225,-2.20051 1.822912,0.30599 q -0.351561,1.0026 -1.113278,1.52994 -0.755207,0.52083 -1.894527,0.52083 -1.803381,0 -2.669264,-1.17838 -0.683592,-0.94401 -0.683592,-2.38281 0,-1.71874 0.898435,-2.68879 0.898436,-0.97656 2.27213,-0.97656 1.542965,0 2.43489,1.02213 0.891925,1.01562 0.852862,3.11848 h -4.583322 q 0.01953,0.8138 0.442708,1.26953 0.423176,0.44922 1.054684,0.44922 0.429687,0 0.722655,-0.23438 0.292968,-0.23437 0.442707,-0.7552 z m 0.104166,-1.84896 q -0.01953,-0.79426 -0.410155,-1.20442 -0.390624,-0.41667 -0.950518,-0.41667 -0.598957,0 -0.989581,0.4362 -0.390624,0.4362 -0.384114,1.18489 z m 9.648414,4.04947 h -1.699215 v -1.01562 q -0.423176,0.59245 -1.002601,0.88542 -0.572915,0.28645 -1.158851,0.28645 -1.191404,0 -2.044266,-0.95703 -0.846352,-0.96354 -0.846352,-2.68228 0,-1.75781 0.826821,-2.66926 0.826821,-0.91797 2.089838,-0.91797 1.158851,0 2.005203,0.96354 v -3.43749 h 1.829423 z m -4.8828,-3.60676 q 0,1.10677 0.305989,1.60156 0.442707,0.71614 1.236976,0.71614 0.631508,0 1.074216,-0.53385 0.442707,-0.54036 0.442707,-1.60807 0,-1.1914 -0.429687,-1.71223 -0.429686,-0.52735 -1.100257,-0.52735 -0.65104,0 -1.093747,0.52084 -0.436197,0.51432 -0.436197,1.54296 z m 6.705712,3.60676 v -9.54424 h 4.055979 q 1.529944,0 2.220046,0.26041 0.696613,0.25391 1.113279,0.91146 0.416665,0.65755 0.416665,1.5039 0,1.07422 -0.631508,1.77734 -0.631509,0.69661 -1.888016,0.8789 0.624998,0.36459 1.028643,0.80078 0.410155,0.4362 1.100257,1.54948 l 1.165362,1.86197 h -2.304682 l -1.393225,-2.07681 q -0.742186,-1.11328 -1.015623,-1.39974 -0.273437,-0.29297 -0.579425,-0.39713 -0.305989,-0.11068 -0.97005,-0.11068 h -0.390624 v 3.98436 z m 1.927078,-5.5078 h 1.425778 q 1.386715,0 1.731766,-0.11718 0.345051,-0.11719 0.540363,-0.40365 0.195312,-0.28645 0.195312,-0.71614 0,-0.48177 -0.260416,-0.77474 -0.253905,-0.29948 -0.722654,-0.3776 -0.234374,-0.0326 -1.406247,-0.0326 h -1.503902 z m 12.233042,5.5078 v -1.03515 q -0.377604,0.55338 -0.996092,0.87239 -0.611977,0.31901 -1.295569,0.31901 -0.696613,0 -1.249997,-0.30599 -0.553384,-0.30598 -0.800779,-0.85937 -0.247396,-0.55338 -0.247396,-1.52994 v -4.37499 h 1.829423 v 3.17707 q 0,1.45833 0.09766,1.79036 0.104166,0.32552 0.371093,0.52084 0.266926,0.1888 0.677081,0.1888 0.468749,0 0.839842,-0.25391 0.371093,-0.26041 0.507811,-0.63802 0.136719,-0.38411 0.136719,-1.86848 v -2.91666 h 1.829422 v 6.91404 z m 2.949209,-1.97265 1.835932,-0.27995 q 0.117188,0.53386 0.47526,0.81381 0.358072,0.27343 1.002601,0.27343 0.709634,0 1.067706,-0.26041 0.240885,-0.1823 0.240885,-0.48828 0,-0.20834 -0.130208,-0.34506 -0.136719,-0.1302 -0.611978,-0.24088 -2.213536,-0.48828 -2.805982,-0.89193 -0.820311,-0.55989 -0.820311,-1.55598 0,-0.89844 0.709634,-1.51041 0.709633,-0.61198 2.200515,-0.61198 1.419267,0 2.10937,0.46224 0.690102,0.46224 0.950518,1.36718 l -1.725256,0.31901 q -0.110677,-0.40364 -0.423176,-0.61849 -0.305989,-0.21484 -0.878904,-0.21484 -0.722654,0 -1.035154,0.20182 -0.208332,0.14323 -0.208332,0.37109 0,0.19532 0.182291,0.33204 0.247395,0.18229 1.705725,0.51432 1.46484,0.33203 2.044265,0.8138 0.572916,0.48828 0.572916,1.36067 0,0.95052 -0.794269,1.63411 -0.794269,0.68359 -2.350255,0.68359 -1.412757,0 -2.239577,-0.57291 -0.820311,-0.57292 -1.074216,-1.55599 z m 9.882784,-7.57159 v 3.5091 q 0.88542,-1.03515 2.11589,-1.03515 0.6315,0 1.13932,0.23437 0.50781,0.23438 0.76171,0.59896 0.26042,0.36458 0.35156,0.80729 0.0977,0.44271 0.0977,1.37369 v 4.05598 h -1.82942 v -3.65233 q 0,-1.08724 -0.10417,-1.38021 -0.10416,-0.29296 -0.37109,-0.46223 -0.26041,-0.17579 -0.65755,-0.17579 -0.45573,0 -0.8138,0.22136 -0.35807,0.22135 -0.52734,0.67057 -0.16276,0.44271 -0.16276,1.3151 v 3.46353 h -1.829423 v -9.54424 z"
     id="text1"
     style="font-weight:bold;font-size:13.3333px;font-family:Arial;-inkscape-font-specification:'Arial Bold';text-align:center;text-anchor:middle;fill:#ff7e79;stroke-width:1.002"
     aria-label="NedRush" />
</svg>
