<?xml version="1.0" encoding="UTF-8" standalone="no"?>
<svg
   width="120"
   height="380"
   viewBox="0 0 120 380"
   version="1.1"
   id="svg13"
   sodipodi:docname="HelpDelay.svg"
   inkscape:version="1.3.2 (091e20e, 2023-11-25)"
   xmlns:inkscape="http://www.inkscape.org/namespaces/inkscape"
   xmlns:sodipodi="http://sodipodi.sourceforge.net/DTD/sodipodi-0.dtd"
   xmlns="http://www.w3.org/2000/svg"
   xmlns:svg="http://www.w3.org/2000/svg">
  <sodipodi:namedview
     id="namedview1"
     pagecolor="#ffffff"
     bordercolor="#000000"
     borderopacity="0.25"
     inkscape:showpageshadow="2"
     inkscape:pageopacity="0.0"
     inkscape:pagecheckerboard="0"
     inkscape:deskcolor="#d1d1d1"
     inkscape:zoom="2.7394737"
     inkscape:cx="59.865514"
     inkscape:cy="190"
     inkscape:window-width="1392"
     inkscape:window-height="1212"
     inkscape:window-x="369"
     inkscape:window-y="195"
     inkscape:window-maximized="0"
     inkscape:current-layer="svg13" />
  <defs
     id="defs1">
    <style
       id="style1">
      .panel { fill: #2a2a2a; }
      .accent { fill: #444444; }
      .title { font-family: Arial, sans-serif; font-size: 14px; font-weight: bold; fill: #ffffff; text-anchor: middle; letter-spacing: 0.5px; }
      .tiny { font-family: Arial, sans-serif; font-size: 6.5px; fill: #cfcfcf; text-anchor: middle; letter-spacing: 0.3px; }
      .subtle { font-family: Arial, sans-serif; font-size: 6px; fill: #9a9a9a; text-anchor: middle; }
    </style>
  </defs>
  <rect
     class="panel"
     x="0"
     y="0"
     width="120"
     height="380"
     id="rect1"
     style="fill:#434343;fill-opacity:1" />
  <rect
     class="accent"
     x="0"
     y="0"
     width="120"
     height="2"
     id="rect2" />
  <rect
     class="accent"
     x="0"
     y="378"
     width="120"
     height="2"
     id="rect3" />
  <path
     d="M 19.233398,23 V 12.978516 h 1.96875 l 4.101563,6.692382 v -6.692382 h 1.879883 V 23 H 25.15332 L 21.113281,16.464844 V 23 Z m 10.589844,0 V 12.978516 h 7.430664 v 1.695312 H 31.84668 v 2.22168 h 5.03125 v 1.688476 h -5.03125 v 2.727539 h 5.598632 V 23 Z m 9.831055,-10.021484 h 3.698242 q 1.250977,0 1.907227,0.191406 0.881836,0.259766 1.510742,0.922851 0.628906,0.663086 0.957031,1.626954 0.328125,0.957031 0.328125,2.365234 0,1.237305 -0.307617,2.132812 -0.375977,1.09375 -1.073242,1.770508 -0.526368,0.512696 -1.421875,0.799805 Q 44.583008,23 43.461914,23 h -3.807617 z m 2.023437,1.695312 v 6.637695 h 1.510743 q 0.847656,0 1.223632,-0.0957 0.492188,-0.123047 0.813477,-0.416992 0.328125,-0.293945 0.533203,-0.963867 0.205078,-0.676758 0.205078,-1.838867 0,-1.16211 -0.205078,-1.78418 -0.205078,-0.62207 -0.574219,-0.970703 -0.36914,-0.348633 -0.936523,-0.47168 -0.423828,-0.0957 -1.661133,-0.0957 z m 12.976563,-1.695312 h 3.698242 q 1.250977,0 1.907227,0.191406 0.881836,0.259766 1.510742,0.922851 0.628906,0.663086 0.957031,1.626954 0.328125,0.957031 0.328125,2.365234 0,1.237305 -0.307617,2.132812 -0.375977,1.09375 -1.073242,1.770508 -0.526368,0.512696 -1.421875,0.799805 Q 59.583008,23 58.461914,23 h -3.807617 z m 2.023437,1.695312 v 6.637695 h 1.510743 q 0.847656,0 1.223632,-0.0957 0.492188,-0.123047 0.813477,-0.416992 0.328125,-0.293945 0.533203,-0.963867 0.205078,-0.676758 0.205078,-1.838867 0,-1.16211 -0.205078,-1.78418 -0.205078,-0.62207 -0.574219,-0.970703 -0.36914,-0.348633 -0.936523,-0.47168 -0.423828,-0.0957 -1.661133,-0.0957 z M 65.271484,23 V 12.978516 h 7.430664 v 1.695312 h -5.407226 v 2.22168 h 5.03125 v 1.688476 h -5.03125 v 2.727539 h 5.598633 V 23 Z m 9.892578,0 V 13.060547 H 77.1875 v 8.250976 h 5.03125 V 23 Z m 18.03418,0 H 90.99707 l -0.875,-2.276367 H 86.116211 L 85.289062,23 h -2.146484 l 3.90332,-10.021484 h 2.139649 z m -3.725586,-3.964844 -1.380859,-3.71875 -1.353516,3.71875 z M 96.118164,23 v -4.217773 l -3.670898,-5.803711 h 2.37207 l 2.358398,3.964843 2.310547,-3.964843 h 2.331059 l -3.684574,5.817382 V 23 Z"
     id="text3"
     class="title"
     transform="translate(-0.52635,0)"
     style="font-weight:bold;font-size:14px;font-family:Arial, sans-serif;letter-spacing:0.5px;text-anchor:middle;fill:#ff7e79;fill-opacity:1"
     aria-label="NED DELAY" />
  <path
     d="m 16.965259,60 v -4.652832 h 3.138916 v 0.549072 h -2.523194 v 1.440918 h 2.183594 V 57.88623 H 17.580981 V 60 Z m 4.251416,0 v -4.652832 h 3.364258 v 0.549072 h -2.748535 v 1.425049 h 2.573974 v 0.545898 h -2.573974 v 1.583741 h 2.856445 V 60 Z m 4.635449,0 v -4.652832 h 3.364258 v 0.549072 h -2.748535 v 1.425049 h 2.573975 v 0.545898 h -2.573975 v 1.583741 h 2.856445 V 60 Z m 4.622754,0 v -4.652832 h 1.602783 q 0.542724,0 0.828369,0.06665 0.399902,0.09204 0.682373,0.333252 0.368164,0.311035 0.549072,0.796631 0.184082,0.482422 0.184082,1.104492 0,0.53003 -0.123779,0.939453 -0.123779,0.409424 -0.317383,0.6792 -0.193603,0.266601 -0.425293,0.422119 -0.228516,0.152344 -0.55542,0.231689 Q 32.575952,60 32.153833,60 Z M 31.0906,59.450928 h 0.993408 q 0.460205,0 0.720459,-0.08569 0.263428,-0.08569 0.418946,-0.241211 0.218994,-0.218994 0.339599,-0.587158 0.12378,-0.371338 0.12378,-0.898193 0,-0.729981 -0.241211,-1.120361 -0.238037,-0.393555 -0.580811,-0.526856 -0.247559,-0.09522 -0.796631,-0.09522 H 31.0906 Z M 35.44358,60 v -4.652832 h 1.745605 q 0.533203,0 0.85376,0.142822 0.323731,0.139649 0.504639,0.434815 0.184082,0.291992 0.184082,0.612549 0,0.298339 -0.161865,0.561767 -0.161866,0.263428 -0.48877,0.425293 0.422119,0.123779 0.647461,0.422119 0.228516,0.29834 0.228516,0.70459 0,0.326904 -0.139649,0.609375 -0.136474,0.279297 -0.339599,0.431641 -0.203125,0.152343 -0.510987,0.231689 Q 37.662086,60 37.21775,60 Z m 0.615722,-2.697754 h 1.006104 q 0.409424,0 0.587158,-0.05395 0.234863,-0.06982 0.352295,-0.231689 0.120606,-0.161866 0.120606,-0.40625 0,-0.23169 -0.111084,-0.40625 -0.111084,-0.177735 -0.317383,-0.241211 -0.206299,-0.06665 -0.707764,-0.06665 h -0.929932 z m 0,2.148682 h 1.158448 q 0.29834,0 0.418945,-0.02222 0.212647,-0.03809 0.355469,-0.126953 0.142822,-0.08887 0.234863,-0.25708 0.09204,-0.171387 0.09204,-0.393555 0,-0.260254 -0.133301,-0.450684 -0.1333,-0.193603 -0.371338,-0.269775 -0.234863,-0.07935 -0.679199,-0.07935 H 36.059302 Z M 39.593433,60 41.380298,55.347168 h 0.66333 L 43.947925,60 H 43.246509 L 42.703784,58.59082 H 40.758227 L 40.247241,60 Z m 1.342529,-1.910645 h 1.577392 l -0.485595,-1.288574 q -0.222168,-0.587158 -0.330078,-0.964844 -0.08887,0.44751 -0.250733,0.888672 z m 7.12373,0.279297 0.615722,0.155518 q -0.193603,0.758545 -0.698242,1.158447 -0.501465,0.396729 -1.228271,0.396729 -0.752198,0 -1.225098,-0.304688 -0.469727,-0.307861 -0.717285,-0.888672 -0.244385,-0.58081 -0.244385,-1.247314 0,-0.726807 0.276123,-1.266358 0.279297,-0.542724 0.790283,-0.822021 0.51416,-0.282471 1.129883,-0.282471 0.698242,0 1.174316,0.355469 0.476075,0.355469 0.663331,0.999756 l -0.606202,0.142822 q -0.161865,-0.507812 -0.469726,-0.739502 -0.307862,-0.231689 -0.774414,-0.231689 -0.536377,0 -0.898194,0.25708 -0.358642,0.25708 -0.504638,0.691894 -0.145996,0.431641 -0.145996,0.891846 0,0.593506 0.171386,1.037842 0.174561,0.441162 0.539551,0.660156 0.36499,0.218994 0.790283,0.218994 0.517334,0 0.875977,-0.29834 0.358642,-0.298339 0.485596,-0.885498 z M 49.708568,60 v -4.652832 h 0.615722 v 2.307373 l 2.310547,-2.307373 h 0.834717 L 51.51765,57.232422 53.555247,60 h -0.8125 L 51.086009,57.64502 50.32429,58.387695 V 60 Z"
     id="text4"
     class="tiny"
     style="font-size:6.5px;font-family:Arial, sans-serif;letter-spacing:0.3px;text-anchor:middle;fill:#ff7e79;fill-opacity:1"
     aria-label="FEEDBACK" />
  <path
     d="m 64.359863,58.494141 0.56836,0.143554 q -0.178711,0.700196 -0.644532,1.069336 -0.46289,0.366211 -1.133789,0.366211 -0.694336,0 -1.130859,-0.28125 -0.433594,-0.28418 -0.662109,-0.820312 -0.225586,-0.536133 -0.225586,-1.151368 0,-0.670898 0.254882,-1.168945 0.257813,-0.500976 0.729493,-0.758789 0.474609,-0.260742 1.042968,-0.260742 0.644532,0 1.083985,0.328125 0.439453,0.328125 0.612304,0.922851 l -0.55957,0.131836 q -0.149414,-0.46875 -0.433594,-0.682617 -0.284179,-0.213867 -0.714843,-0.213867 -0.495118,0 -0.829102,0.237305 -0.331055,0.237304 -0.46582,0.638672 -0.134766,0.398437 -0.134766,0.823242 0,0.547851 0.158203,0.958008 0.161133,0.407226 0.498047,0.609375 0.336914,0.202148 0.729492,0.202148 0.477539,0 0.808594,-0.275391 0.331055,-0.27539 0.448242,-0.817382 z M 66.855957,60 65.191895,55.705078 h 0.615234 l 1.116211,3.120117 q 0.134765,0.375 0.225586,0.703125 0.09961,-0.351562 0.231445,-0.703125 l 1.160156,-3.120117 h 0.580078 L 67.438965,60 Z"
     id="text5"
     class="subtle"
     style="font-size:6px;font-family:Arial, sans-serif;text-anchor:middle;fill:#ff7e79;fill-opacity:1"
     aria-label="CV" />
  <path
     d="m 19.674951,110 v -4.65283 h 1.602783 q 0.542725,0 0.828369,0.0666 0.399903,0.092 0.682374,0.33325 0.368164,0.31104 0.549072,0.79663 0.184082,0.48242 0.184082,1.10449 0,0.53003 -0.123779,0.93946 -0.12378,0.40942 -0.317383,0.6792 -0.193604,0.2666 -0.425293,0.42211 -0.228516,0.15235 -0.55542,0.23169 Q 21.776025,110 21.353906,110 Z m 0.615723,-0.54907 h 0.993408 q 0.460205,0 0.720459,-0.0857 0.263428,-0.0857 0.418945,-0.24121 0.218994,-0.21899 0.3396,-0.58715 0.123779,-0.37134 0.123779,-0.8982 0,-0.72998 -0.241211,-1.12036 -0.238037,-0.39355 -0.58081,-0.52685 -0.247559,-0.0952 -0.796631,-0.0952 H 20.290674 Z M 24.678565,110 v -4.65283 h 2.062988 q 0.62207,0 0.945801,0.12695 0.32373,0.12378 0.517334,0.44116 0.193603,0.31739 0.193603,0.70142 0,0.49512 -0.320556,0.83472 -0.320557,0.3396 -0.990235,0.43164 0.244385,0.11743 0.371338,0.23169 0.269775,0.24755 0.510986,0.61889 L 28.779151,110 h -0.774415 l -0.615722,-0.96802 q -0.269776,-0.41894 -0.444336,-0.64111 -0.174561,-0.22217 -0.314209,-0.31104 -0.136475,-0.0889 -0.279297,-0.12378 -0.104736,-0.0222 -0.342773,-0.0222 H 25.294287 V 110 Z m 0.615722,-2.59937 h 1.323487 q 0.422119,0 0.660156,-0.0857 0.238037,-0.0889 0.361816,-0.2793 0.12378,-0.1936 0.12378,-0.41894 0,-0.33008 -0.241211,-0.54273 -0.238038,-0.21264 -0.755371,-0.21264 H 25.294287 Z M 30.856494,110 v -1.97095 l -1.793212,-2.68188 h 0.749023 l 0.917236,1.40283 q 0.253907,0.39355 0.472901,0.78711 0.209472,-0.36499 0.507812,-0.82202 l 0.901367,-1.36792 h 0.717286 l -1.85669,2.68188 V 110 Z m 2.823193,0.0794 1.348877,-4.81153 h 0.457031 l -1.345703,4.81153 z M 37.099561,110 35.864942,105.34717 h 0.631592 l 0.707764,3.05005 q 0.114257,0.47924 0.196777,0.95215 0.177734,-0.74585 0.209473,-0.86011 l 0.885498,-3.14209 h 0.742675 l 0.666504,2.35498 q 0.250733,0.87598 0.361817,1.64722 0.08887,-0.44117 0.231689,-1.01246 l 0.729981,-2.98974 h 0.618896 L 40.571729,110 h -0.593506 l -0.980713,-3.54517 q -0.123779,-0.44433 -0.145996,-0.54589 -0.073,0.32055 -0.136474,0.54589 L 37.727979,110 Z m 5.635205,0 v -4.65283 h 3.364257 v 0.54907 h -2.748535 v 1.42505 h 2.573975 v 0.5459 h -2.573975 v 1.58374 h 2.856446 V 110 Z m 5.806591,0 v -4.10376 h -1.532959 v -0.54907 h 3.687988 v 0.54907 H 49.157079 V 110 Z"
     id="text6"
     class="tiny"
     style="font-size:6.5px;font-family:Arial, sans-serif;letter-spacing:0.3px;text-anchor:middle;fill:#ff7e79;fill-opacity:1"
     aria-label="DRY/WET" />
  <path
     d="m 64.359863,108.49414 0.56836,0.14356 q -0.178711,0.70019 -0.644532,1.06933 -0.46289,0.36621 -1.133789,0.36621 -0.694336,0 -1.130859,-0.28125 -0.433594,-0.28418 -0.662109,-0.82031 -0.225586,-0.53613 -0.225586,-1.15137 0,-0.6709 0.254882,-1.16894 0.257813,-0.50098 0.729493,-0.75879 0.474609,-0.26074 1.042968,-0.26074 0.644532,0 1.083985,0.32812 0.439453,0.32813 0.612304,0.92285 l -0.55957,0.13184 q -0.149414,-0.46875 -0.433594,-0.68262 -0.284179,-0.21387 -0.714843,-0.21387 -0.495118,0 -0.829102,0.23731 -0.331055,0.2373 -0.46582,0.63867 -0.134766,0.39844 -0.134766,0.82324 0,0.54785 0.158203,0.95801 0.161133,0.40723 0.498047,0.60938 0.336914,0.20214 0.729492,0.20214 0.477539,0 0.808594,-0.27539 0.331055,-0.27539 0.448242,-0.81738 z M 66.855957,110 65.191895,105.70508 h 0.615234 l 1.116211,3.12012 q 0.134765,0.375 0.225586,0.70312 0.09961,-0.35156 0.231445,-0.70312 l 1.160156,-3.12012 h 0.580078 L 67.438965,110 Z"
     id="text7"
     class="subtle"
     style="font-size:6px;font-family:Arial, sans-serif;text-anchor:middle;fill:#ff7e79;fill-opacity:1"
     aria-label="CV" />
  <path
     d="m 28.472119,160 v -4.10376 H 26.93916 v -0.54907 h 3.687988 v 0.54907 H 29.087842 V 160 Z m 3.191358,0 v -4.65283 h 0.615722 V 160 Z m 1.982128,0 v -4.65283 h 0.926758 l 1.101319,3.29443 q 0.152343,0.46021 0.222167,0.68872 0.07935,-0.2539 0.247559,-0.74585 l 1.114014,-3.2373 h 0.828369 V 160 h -0.593506 v -3.89429 L 36.140234,160 h -0.55542 l -1.345703,-3.96094 V 160 Z m 5.746289,0 v -4.65283 h 3.364258 v 0.54907 h -2.748535 v 1.42505 h 2.573974 v 0.5459 h -2.573974 v 1.58374 h 2.856445 V 160 Z"
     id="text8"
     class="tiny"
     style="font-size:6.5px;font-family:Arial, sans-serif;letter-spacing:0.3px;text-anchor:middle;fill:#ff7e79;fill-opacity:1"
     aria-label="TIME" />
  <path
     d="m 64.359863,158.49414 0.56836,0.14356 q -0.178711,0.70019 -0.644532,1.06933 -0.46289,0.36621 -1.133789,0.36621 -0.694336,0 -1.130859,-0.28125 -0.433594,-0.28418 -0.662109,-0.82031 -0.225586,-0.53613 -0.225586,-1.15137 0,-0.6709 0.254882,-1.16894 0.257813,-0.50098 0.729493,-0.75879 0.474609,-0.26074 1.042968,-0.26074 0.644532,0 1.083985,0.32812 0.439453,0.32813 0.612304,0.92285 l -0.55957,0.13184 q -0.149414,-0.46875 -0.433594,-0.68262 -0.284179,-0.21387 -0.714843,-0.21387 -0.495118,0 -0.829102,0.23731 -0.331055,0.2373 -0.46582,0.63867 -0.134766,0.39844 -0.134766,0.82324 0,0.54785 0.158203,0.95801 0.161133,0.40723 0.498047,0.60938 0.336914,0.20214 0.729492,0.20214 0.477539,0 0.808594,-0.27539 0.331055,-0.27539 0.448242,-0.81738 z M 66.855957,160 65.191895,155.70508 h 0.615234 l 1.116211,3.12012 q 0.134765,0.375 0.225586,0.70312 0.09961,-0.35156 0.231445,-0.70312 l 1.160156,-3.12012 h 0.580078 L 67.438965,160 Z"
     id="text9"
     class="subtle"
     style="font-size:6px;font-family:Arial, sans-serif;text-anchor:middle;fill:#ff7e79;fill-opacity:1"
     aria-label="CV" />
  <path
     d="m 17.531787,210 v -4.65283 h 1.755127 q 0.463379,0 0.707764,0.0444 0.342773,0.0571 0.574463,0.219 0.231689,0.15869 0.371337,0.44751 0.142823,0.28881 0.142823,0.63476 0,0.59351 -0.377686,1.0061 -0.377685,0.40943 -1.364746,0.40943 H 18.14751 V 210 Z m 0.615723,-2.44067 h 1.202881 q 0.596679,0 0.847412,-0.22217 0.250732,-0.22217 0.250732,-0.62525 0,-0.29199 -0.14917,-0.49829 -0.145996,-0.20947 -0.387207,-0.27612 -0.155517,-0.0413 -0.574463,-0.0413 H 18.14751 Z M 22.141846,210 v -4.65283 h 0.615723 v 4.10376 h 2.291503 V 210 Z m 3.429395,0 1.786865,-4.65283 h 0.66333 L 29.925733,210 h -0.701416 l -0.542725,-1.40918 H 26.736035 L 26.225049,210 Z m 1.342529,-1.91064 h 1.577392 l -0.485595,-1.28858 q -0.222168,-0.58716 -0.330078,-0.96484 -0.08887,0.44751 -0.250733,0.88867 z M 31.546044,210 v -1.97095 l -1.793212,-2.68188 h 0.749023 l 0.917236,1.40283 q 0.253907,0.39355 0.472901,0.78711 0.209472,-0.36499 0.507812,-0.82202 l 0.901367,-1.36792 h 0.717286 l -1.85669,2.68188 V 210 Z m 3.299269,0 v -4.65283 h 1.745606 q 0.533203,0 0.853759,0.14282 0.323731,0.13965 0.504639,0.43481 0.184082,0.292 0.184082,0.61255 0,0.29834 -0.161865,0.56177 -0.161865,0.26343 -0.48877,0.42529 0.42212,0.12378 0.647461,0.42212 0.228516,0.29834 0.228516,0.70459 0,0.32691 -0.139648,0.60938 -0.136475,0.27929 -0.3396,0.43164 -0.203125,0.15234 -0.510986,0.23169 Q 37.063819,210 36.619483,210 Z m 0.615723,-2.69775 h 1.006103 q 0.409424,0 0.587159,-0.054 0.234863,-0.0698 0.352295,-0.23169 0.120605,-0.16186 0.120605,-0.40625 0,-0.23169 -0.111084,-0.40625 -0.111084,-0.17773 -0.317383,-0.24121 -0.206299,-0.0666 -0.707763,-0.0666 h -0.929932 z m 0,2.14868 h 1.158447 q 0.29834,0 0.418945,-0.0222 0.212647,-0.0381 0.355469,-0.12695 0.142822,-0.0889 0.234863,-0.25708 0.09204,-0.17139 0.09204,-0.39356 0,-0.26025 -0.133301,-0.45068 -0.133301,-0.1936 -0.371338,-0.26978 -0.234863,-0.0793 -0.679199,-0.0793 h -1.075928 z m 3.53413,0.54907 1.786865,-4.65283 h 0.66333 L 43.349658,210 h -0.701416 l -0.542724,-1.40918 H 40.159961 L 39.648975,210 Z m 1.342529,-1.91064 h 1.577393 l -0.485596,-1.28858 q -0.222168,-0.58716 -0.330078,-0.96484 -0.08887,0.44751 -0.250732,0.88867 z m 7.12373,0.27929 0.615723,0.15552 q -0.193604,0.75854 -0.698243,1.15845 -0.501464,0.39673 -1.228271,0.39673 -0.752197,0 -1.225098,-0.30469 -0.469726,-0.30786 -0.717285,-0.88867 -0.244385,-0.58081 -0.244385,-1.24732 0,-0.7268 0.276123,-1.26636 0.279297,-0.54272 0.790284,-0.82202 0.51416,-0.28247 1.129882,-0.28247 0.698243,0 1.174317,0.35547 0.476074,0.35547 0.66333,0.99976 l -0.606201,0.14282 q -0.161865,-0.50781 -0.469727,-0.7395 -0.307861,-0.23169 -0.774414,-0.23169 -0.536377,0 -0.898193,0.25708 -0.358643,0.25708 -0.504639,0.69189 -0.145996,0.43164 -0.145996,0.89185 0,0.5935 0.171387,1.03784 0.17456,0.44116 0.539551,0.66016 0.36499,0.21899 0.790283,0.21899 0.517334,0 0.875976,-0.29834 0.358643,-0.29834 0.485596,-0.8855 z M 49.110303,210 v -4.65283 h 0.615723 v 2.30737 l 2.310547,-2.30737 h 0.834716 L 50.919385,207.23242 52.956983,210 h -0.8125 l -1.656739,-2.35498 -0.761718,0.74268 V 210 Z"
     id="text10"
     class="tiny"
     style="font-size:6.5px;font-family:Arial, sans-serif;letter-spacing:0.3px;text-anchor:middle;fill:#ff7e79;fill-opacity:1"
     aria-label="PLAYBACK" />
  <path
     d="m 64.359863,208.49414 0.56836,0.14356 q -0.178711,0.70019 -0.644532,1.06933 -0.46289,0.36621 -1.133789,0.36621 -0.694336,0 -1.130859,-0.28125 -0.433594,-0.28418 -0.662109,-0.82031 -0.225586,-0.53613 -0.225586,-1.15137 0,-0.6709 0.254882,-1.16894 0.257813,-0.50098 0.729493,-0.75879 0.474609,-0.26074 1.042968,-0.26074 0.644532,0 1.083985,0.32812 0.439453,0.32813 0.612304,0.92285 l -0.55957,0.13184 q -0.149414,-0.46875 -0.433594,-0.68262 -0.284179,-0.21387 -0.714843,-0.21387 -0.495118,0 -0.829102,0.23731 -0.331055,0.2373 -0.46582,0.63867 -0.134766,0.39844 -0.134766,0.82324 0,0.54785 0.158203,0.95801 0.161133,0.40723 0.498047,0.60938 0.336914,0.20214 0.729492,0.20214 0.477539,0 0.808594,-0.27539 0.331055,-0.27539 0.448242,-0.81738 z M 66.855957,210 65.191895,205.70508 h 0.615234 l 1.116211,3.12012 q 0.134765,0.375 0.225586,0.70312 0.09961,-0.35156 0.231445,-0.70312 l 1.160156,-3.12012 h 0.580078 L 67.438965,210 Z"
     id="text11"
     class="subtle"
     style="font-size:6px;font-family:Arial, sans-serif;text-anchor:middle;fill:#ff7e79;fill-opacity:1"
     aria-label="CV" />
  <path
     d="m 22.206201,282 v -4.65283 h 0.615723 V 282 Z m 1.994824,0 v -4.65283 h 0.631592 l 2.443848,3.65307 v -3.65307 h 0.590332 V 282 h -0.631592 l -2.443848,-3.65625 V 282 Z"
     id="text12"
     class="tiny"
     style="font-size:6.5px;font-family:Arial, sans-serif;letter-spacing:0.3px;text-anchor:middle;fill:#ff7e79;fill-opacity:1"
     aria-label="IN" />
  <path
     d="m 88.153979,279.73389 q 0,-1.15845 0.622071,-1.81226 0.62207,-0.65698 1.605957,-0.65698 0.644287,0 1.161621,0.30786 0.517334,0.30786 0.787109,0.86011 0.27295,0.54907 0.27295,1.24731 0,0.70777 -0.285645,1.26636 -0.285645,0.55859 -0.809326,0.84741 -0.523682,0.28565 -1.129883,0.28565 -0.656982,0 -1.174316,-0.31739 -0.517334,-0.31738 -0.783936,-0.86645 -0.266602,-0.54907 -0.266602,-1.16162 z m 0.634766,0.01 q 0,0.84106 0.450684,1.32666 0.453857,0.48242 1.13623,0.48242 0.695069,0 1.142578,-0.48877 0.450684,-0.48877 0.450684,-1.38696 0,-0.56812 -0.193604,-0.99024 -0.190429,-0.42529 -0.561767,-0.65698 -0.368164,-0.23486 -0.828369,-0.23486 -0.653809,0 -1.126709,0.45068 -0.469727,0.44751 -0.469727,1.49805 z m 7.961621,-2.39624 h 0.615723 v 2.68823 q 0,0.70142 -0.158691,1.11401 -0.158692,0.4126 -0.574463,0.67286 -0.412598,0.25708 -1.085449,0.25708 -0.653809,0 -1.069581,-0.22535 -0.415771,-0.22534 -0.593505,-0.65063 -0.177735,-0.42847 -0.177735,-1.16797 v -2.68823 h 0.615723 v 2.68506 q 0,0.6062 0.111084,0.89502 0.114258,0.28564 0.387207,0.44116 0.276123,0.15552 0.672851,0.15552 0.6792,0 0.968018,-0.30787 0.288818,-0.30786 0.288818,-1.18383 z M 99.875074,282 v -4.10376 h -1.532959 v -0.54907 h 3.687985 v 0.54907 h -1.5393 V 282 Z"
     id="text13"
     class="tiny"
     style="font-size:6.5px;font-family:Arial, sans-serif;letter-spacing:0.3px;text-anchor:middle;fill:#ff7e79;fill-opacity:1"
     aria-label="OUT" />
  <g
     transform="matrix(1.6722989,0,0,1.6988345,37.305422,-75.62204)"
     id="layer1-7"
     inkscape:label="Layer 1">
    <rect
       y="256.12662"
       x="29.52006"
       height="1.6536458"
       width="7.2760415"
       id="rect823"
       style="fill:#ffffff;fill-opacity:1;stroke:none;stroke-width:0.710598;stroke-miterlimit:4;stroke-dasharray:none;stroke-opacity:1" />
    <rect
       y="256.57309"
       x="28.643627"
       height="0.51248246"
       width="9.0803432"
       id="rect821"
       style="fill:#ffffff;fill-opacity:1;stroke:none;stroke-width:0.176948;stroke-miterlimit:4;stroke-dasharray:none;stroke-opacity:1" />
    <ellipse
       ry="5.8699069"
       rx="6.1973119"
       cy="250.78661"
       cx="33.068214"
       id="path817"
       style="fill:#ffffff;fill-opacity:1;stroke:none;stroke-width:0.294763;stroke-miterlimit:4;stroke-dasharray:none;stroke-opacity:1" />
    <rect
       y="257.08557"
       x="28.265131"
       height="4.3030396"
       width="9.541522"
       id="rect819"
       style="fill:#ffffff;fill-opacity:1;stroke:none;stroke-width:0.236954;stroke-miterlimit:4;stroke-dasharray:none;stroke-opacity:1" />
    <path
       style="fill:#54b6fc;stroke-width:0.434238"
       d="m 28.040353,261.67777 c -0.05624,-0.1049 -0.09132,-1.05343 -0.09132,-2.46939 0,-2.62823 -0.06483,-2.41007 0.868669,-2.92327 0.298327,-0.16393 0.542417,-0.32331 0.542417,-0.35402 0,-0.0309 -0.162318,-0.16826 -0.360716,-0.30583 -1.028016,-0.71241 -2.013971,-2.17766 -2.338877,-3.47584 -0.201325,-0.80442 -0.134174,-2.39054 0.13451,-3.17721 1.033244,-3.02511 4.386038,-4.85502 7.661927,-4.18175 2.136444,0.4391 3.832748,1.7715 4.690824,3.6846 0.361925,0.8069 0.484002,1.41362 0.481552,2.39329 -0.0043,1.76252 -0.804317,3.40089 -2.221636,4.55038 -0.254647,0.20641 -0.463011,0.4065 -0.463011,0.44439 0,0.038 0.188503,0.17638 0.418915,0.30774 0.88078,0.5022 0.815782,0.26078 0.815782,3.02947 0,1.77735 -0.02862,2.465 -0.105831,2.54221 -0.07977,0.0796 -1.316324,0.10568 -5.023888,0.10568 -4.772077,0 -4.920765,-0.006 -5.009351,-0.17069 z m 4.778272,-1.34136 c 0.02029,-0.72066 0.0537,-0.91258 0.172084,-0.98706 0.106484,-0.067 0.185415,-0.0605 0.286623,0.0243 0.110188,0.0915 0.139673,0.2998 0.139673,0.98705 v 0.87111 h 2.031202 c 1.725502,0 2.038854,-0.0189 2.082046,-0.13248 0.118689,-0.30933 -0.0843,-0.54865 -1.048716,-1.23644 -0.806681,-0.57531 -0.992,-0.74828 -0.992,-0.92603 0,-0.17285 0.05069,-0.22425 0.242529,-0.24644 l 0.242526,-0.0279 v -0.72694 c 0,-0.82266 0.11329,-1.0851 0.425635,-0.98597 0.182308,0.0579 0.191777,0.11143 0.193075,1.09112 6.9e-4,0.56673 0.03051,1.07216 0.06615,1.12322 0.107317,0.15365 0.691445,0.5686 0.80071,0.5686 0.07253,0 0.101903,-0.37768 0.101903,-1.30922 0,-1.48548 0.04525,-1.38286 -0.823095,-1.86798 l -0.514419,-0.28745 -0.896236,0.29918 c -0.869904,0.29041 -0.937695,0.2992 -2.307746,0.29891 -1.355532,-2.1e-4 -1.441911,-0.0113 -2.177833,-0.27426 l -0.766317,-0.27401 -0.710913,0.40097 -0.710915,0.40096 v 1.35053 c 0,0.7428 0.02272,1.35058 0.05046,1.35058 0.02775,0 0.226187,-0.10309 0.440962,-0.22887 l 0.390524,-0.22887 0.0014,-0.89557 c 0.0016,-1.14751 0.206306,-1.60144 0.561721,-1.24599 0.108544,0.1085 0.142513,0.31853 0.142513,0.88028 v 0.7378 l 0.290718,-0.0471 c 0.315025,-0.0511 0.543194,0.11558 0.458905,0.33517 -0.02597,0.0676 -0.562393,0.43193 -1.192126,0.80964 -1.113533,0.66789 -1.144968,0.69508 -1.144968,0.9907 v 0.30396 h 2.069441 2.069444 z m 2.265337,-4.35748 c 1.820054,-0.60937 3.301106,-2.14018 3.754405,-3.88051 0.141672,-0.5439 0.182494,-2.03256 0.06101,-2.22398 -0.0547,-0.0862 -0.514454,-0.10647 -1.993182,-0.0881 l -1.922097,0.0243 -0.285943,0.79373 c -0.250451,0.69526 -0.311823,0.79372 -0.494567,0.79372 -0.193669,0 -0.219614,-0.0593 -0.361764,-0.82692 -0.233437,-1.26061 -0.264438,-1.24093 -0.550459,0.34982 -0.250913,1.39568 -0.282965,1.49134 -0.499452,1.49134 -0.208819,0 -0.19843,0.0455 -0.591264,-2.59459 -0.179846,-1.20877 -0.366691,-2.21079 -0.415197,-2.22673 -0.04851,-0.0164 -0.346157,0.47702 -0.661443,1.09535 l -0.573255,1.12428 -1.649981,0.0244 -1.649981,0.0243 -0.05961,0.3176 c -0.100912,0.53789 0.02055,1.63287 0.25608,2.31038 0.480987,1.38307 1.462121,2.47313 2.838905,3.15409 1.070426,0.52942 1.68831,0.6568 2.998555,0.61816 0.870867,-0.027 1.189545,-0.0752 1.799239,-0.27931 z m -2.582339,-0.34598 c -0.501349,-0.14204 -0.612279,-0.23104 -0.568647,-0.45582 0.02803,-0.14447 0.130451,-0.16555 0.868148,-0.17909 0.460004,-0.008 0.975273,-0.0281 1.145044,-0.0441 0.276178,-0.0243 0.311494,-0.006 0.335474,0.20237 0.023,0.19722 -0.02543,0.25187 -0.329357,0.37355 -0.522805,0.20913 -0.965587,0.24078 -1.450662,0.1031 z m -1.6422,-2.07469 c -0.09701,-0.0972 -0.176384,-0.25567 -0.176384,-0.35282 0,-0.24453 0.308426,-0.52913 0.573253,-0.52913 0.264818,0 0.573252,0.28468 0.573252,0.52913 0,0.24455 -0.308429,0.52918 -0.573252,0.52918 -0.121275,0 -0.299857,-0.0793 -0.396869,-0.17636 z m 3.439517,-0.0882 c -0.232761,-0.23267 -0.222508,-0.40285 0.0401,-0.66546 0.243582,-0.24345 0.329798,-0.25996 0.605107,-0.11502 0.242042,0.12748 0.321863,0.24591 0.323575,0.48022 0.0031,0.43406 -0.63668,0.63239 -0.968767,0.30029 z m -1.151475,-4.27736 c 0.296559,-1.78581 0.575578,-1.83207 0.874871,-0.14501 0.09772,0.55084 0.197295,1.02113 0.221263,1.04511 0.08271,0.0828 0.212362,-0.0613 0.273139,-0.30344 0.117052,-0.46642 0.107419,-0.46436 2.176972,-0.46436 2.188984,0 2.146871,0.0162 1.845872,-0.66529 -0.655344,-1.4815 -2.160669,-2.71162 -3.887876,-3.17706 -0.773684,-0.20858 -2.314597,-0.21425 -3.086746,-0.0113 -1.862761,0.48917 -3.433992,1.84034 -4.06194,3.49292 l -0.172218,0.45328 1.47768,-0.0243 1.477684,-0.0244 0.705541,-1.38465 c 0.388047,-0.76156 0.755433,-1.43456 0.816413,-1.4955 0.244962,-0.24482 0.364055,0.12518 0.643002,1.99713 0.151683,1.01798 0.296644,1.88465 0.322123,1.92588 0.102882,0.16637 0.192723,-0.12627 0.374219,-1.21922 z"
       id="path4012-8"
       inkscape:connector-curvature="0" />
    <path
       style="fill:#a0a0a0;stroke-width:0.434238"
       d="m 28.040353,261.67777 c -0.05624,-0.1049 -0.09132,-1.05343 -0.09132,-2.46939 0,-2.62823 -0.06483,-2.41007 0.868669,-2.92327 0.298327,-0.16393 0.542417,-0.32331 0.542417,-0.35402 0,-0.0309 -0.162318,-0.16826 -0.360716,-0.30583 -1.028016,-0.71241 -2.013971,-2.17766 -2.338877,-3.47584 -0.201325,-0.80442 -0.134174,-2.39054 0.13451,-3.17721 1.033244,-3.02511 4.386038,-4.85502 7.661927,-4.18175 2.136444,0.4391 3.832748,1.7715 4.690824,3.6846 0.361925,0.8069 0.484002,1.41362 0.481552,2.39329 -0.0043,1.76252 -0.804317,3.40089 -2.221636,4.55038 -0.254647,0.20641 -0.463011,0.4065 -0.463011,0.44439 0,0.038 0.188503,0.17638 0.418915,0.30774 0.88078,0.5022 0.815782,0.26078 0.815782,3.02947 0,1.77735 -0.02862,2.465 -0.105831,2.54221 -0.07977,0.0796 -1.316324,0.10568 -5.023888,0.10568 -4.772077,0 -4.920765,-0.006 -5.009351,-0.17069 z m 4.778272,-1.34136 c 0.02029,-0.72066 0.0537,-0.91258 0.172084,-0.98706 0.106484,-0.067 0.185415,-0.0605 0.286623,0.0243 0.110188,0.0915 0.139673,0.2998 0.139673,0.98705 v 0.87111 h 2.031202 c 1.725502,0 2.038854,-0.0189 2.082046,-0.13248 0.118689,-0.30933 -0.0843,-0.54865 -1.048716,-1.23644 -0.806681,-0.57531 -0.992,-0.74828 -0.992,-0.92603 0,-0.17285 0.05069,-0.22425 0.242529,-0.24644 l 0.242526,-0.0279 v -0.72694 c 0,-0.82266 0.11329,-1.0851 0.425635,-0.98597 0.182308,0.0579 0.191777,0.11143 0.193075,1.09112 6.9e-4,0.56673 0.03051,1.07216 0.06615,1.12322 0.107317,0.15365 0.691445,0.5686 0.80071,0.5686 0.07253,0 0.101903,-0.37768 0.101903,-1.30922 0,-1.48548 0.04525,-1.38286 -0.823095,-1.86798 l -0.514419,-0.28745 -0.896236,0.29918 c -0.869904,0.29041 -0.937695,0.2992 -2.307746,0.29891 -1.355532,-2.1e-4 -1.441911,-0.0113 -2.177833,-0.27426 l -0.766317,-0.27401 -0.710913,0.40097 -0.710915,0.40096 v 1.35053 c 0,0.7428 0.02272,1.35058 0.05046,1.35058 0.02775,0 0.226187,-0.10309 0.440962,-0.22887 l 0.390524,-0.22887 0.0014,-0.89557 c 0.0016,-1.14751 0.206306,-1.60144 0.561721,-1.24599 0.108544,0.1085 0.142513,0.31853 0.142513,0.88028 v 0.7378 l 0.290718,-0.0471 c 0.315025,-0.0511 0.543194,0.11558 0.458905,0.33517 -0.02597,0.0676 -0.562393,0.43193 -1.192126,0.80964 -1.113533,0.66789 -1.144968,0.69508 -1.144968,0.9907 v 0.30396 h 2.069441 2.069444 z m 2.265337,-4.35748 c 1.403562,-0.46993 2.640938,-1.50058 3.294283,-2.74387 0.429067,-0.81653 0.595175,-1.49004 0.593708,-2.40729 -0.002,-1.2675 0.205601,-1.15 -2.032309,-1.15 -1.442955,0 -1.942613,0.0275 -1.996101,0.11041 -0.03924,0.0606 -0.191398,0.42737 -0.338104,0.81498 -0.382438,1.0104 -0.497129,0.9789 -0.708436,-0.1945 -0.249425,-1.38497 -0.369803,-1.31205 -0.674781,0.40874 -0.236279,1.33315 -0.338408,1.62908 -0.50309,1.45776 -0.04428,-0.0461 -0.22394,-1.07598 -0.399194,-2.28859 -0.378048,-2.61568 -0.375281,-2.60172 -0.515638,-2.60172 -0.06054,0 -0.377093,0.53579 -0.703448,1.19062 l -0.593372,1.1906 h -1.626578 -1.626579 l -0.06131,0.40891 c -0.234007,1.5605 0.483321,3.42764 1.761718,4.58559 0.632883,0.57328 1.868907,1.21483 2.698432,1.40062 0.933964,0.20911 2.512332,0.12546 3.430809,-0.18205 z m -2.582339,-0.34598 c -0.501349,-0.14204 -0.612279,-0.23104 -0.568647,-0.45582 0.02803,-0.14447 0.130451,-0.16555 0.868148,-0.17909 0.460004,-0.008 0.975273,-0.0281 1.145044,-0.0441 0.276178,-0.0243 0.311494,-0.006 0.335474,0.20237 0.023,0.19722 -0.02543,0.25187 -0.329357,0.37355 -0.522805,0.20913 -0.965587,0.24078 -1.450662,0.1031 z m -1.6422,-2.07469 c -0.09701,-0.0972 -0.176384,-0.25567 -0.176384,-0.35282 0,-0.24453 0.308426,-0.52913 0.573253,-0.52913 0.264818,0 0.573252,0.28468 0.573252,0.52913 0,0.24455 -0.308429,0.52918 -0.573252,0.52918 -0.121275,0 -0.299857,-0.0793 -0.396869,-0.17636 z m 3.439517,-0.0882 c -0.232761,-0.23267 -0.222508,-0.40285 0.0401,-0.66546 0.243582,-0.24345 0.329798,-0.25996 0.605107,-0.11502 0.242042,0.12748 0.321863,0.24591 0.323575,0.48022 0.0031,0.43406 -0.63668,0.63239 -0.968767,0.30029 z m -1.097809,-4.10189 c 0.211607,-1.21013 0.333943,-1.55258 0.494567,-1.38443 0.03281,0.0344 0.152225,0.57839 0.265306,1.20896 0.232869,1.29834 0.343523,1.42064 0.618496,0.68352 l 0.172705,-0.46302 h 1.972971 c 1.085132,0 1.99242,-0.0315 2.016195,-0.0698 0.08023,-0.12991 -0.357483,-1.05886 -0.773608,-1.642 -0.728041,-1.02028 -1.981677,-1.859 -3.316077,-2.21859 -0.773686,-0.20857 -2.314601,-0.21426 -3.086747,-0.0113 -1.084749,0.28486 -1.999152,0.80872 -2.786328,1.59624 -0.677355,0.67767 -1.19903,1.50881 -1.403089,2.23545 l -0.05574,0.19856 1.439077,-9.8e-4 c 0.791494,-6.2e-4 1.483847,-0.0306 1.538565,-0.0662 0.05473,-0.0355 0.422055,-0.70973 0.816304,-1.49793 0.672478,-1.34451 0.811339,-1.54707 0.929474,-1.35595 0.02624,0.0426 0.169945,0.92549 0.319337,1.9623 0.278277,1.93132 0.382411,2.3719 0.526552,2.22775 0.04457,-0.0447 0.184959,-0.67541 0.312001,-1.40192 z"
       id="path4010-0"
       inkscape:connector-curvature="0" />
    <path
       style="fill:#179cfd;stroke-width:0.434238"
       d="m 28.084301,261.62139 c -0.09334,-0.2432 -0.06068,-4.53422 0.03585,-4.71459 0.04932,-0.0922 0.366818,-0.32942 0.705541,-0.52725 0.338727,-0.19778 0.615865,-0.39635 0.615865,-0.44114 0,-0.0449 -0.225402,-0.25131 -0.5009,-0.45914 -1.007366,-0.75955 -1.863496,-2.05429 -2.182561,-3.30077 -0.176274,-0.68859 -0.179006,-2.04001 -0.0054,-2.72476 0.07324,-0.28909 0.298305,-0.86296 0.500144,-1.27526 0.293281,-0.59912 0.51896,-0.90166 1.123813,-1.50667 0.628099,-0.62825 0.899287,-0.82698 1.594434,-1.16847 1.206772,-0.59277 1.759323,-0.7188 3.130615,-0.71416 0.806735,0.002 1.311968,0.0495 1.704825,0.15746 3.200698,0.88036 5.194794,3.81447 4.65392,6.84772 -0.248316,1.39251 -1.241594,2.98286 -2.337264,3.74216 -0.198811,0.13767 -0.36148,0.28303 -0.36148,0.3228 0,0.0398 0.277437,0.23428 0.616524,0.43238 0.393273,0.22968 0.633784,0.4307 0.664178,0.55509 0.02625,0.10714 0.03649,1.24673 0.02299,2.53213 l -0.02488,2.33712 -4.951132,0.0216 c -4.457619,0.0215 -4.956494,0.008 -5.004941,-0.11734 z m 4.796794,-1.27231 c 0.04062,-0.85254 0.0581,-0.92604 0.220478,-0.92604 0.162399,0 0.179874,0.0735 0.22048,0.92604 l 0.0441,0.92602 h 2.11542 c 1.979416,0 2.117418,-0.0113 2.146485,-0.16124 0.07415,-0.38501 -0.08786,-0.58193 -1.039039,-1.26279 -0.5321,-0.38086 -0.988888,-0.74572 -1.015085,-0.81071 -0.07133,-0.17694 0.02596,-0.27867 0.266821,-0.27867 0.212067,0 0.215285,-0.0113 0.215285,-0.78294 0,-0.57789 0.03363,-0.81084 0.12842,-0.88952 0.247505,-0.20531 0.312538,-0.006 0.312538,0.96492 0,0.5267 0.02407,1.0201 0.05321,1.09639 0.07569,0.19722 0.895628,0.78122 1.003392,0.71461 0.137026,-0.0848 0.118488,-2.70962 -0.02028,-2.88339 -0.06062,-0.0761 -0.366131,-0.28527 -0.678882,-0.46529 -0.638192,-0.36731 -0.664782,-0.36715 -1.680277,0.0113 -0.620191,0.23022 -0.749452,0.24593 -2.072528,0.24835 -1.367516,0.002 -1.436372,-0.006 -2.229991,-0.28332 l -0.818897,-0.286 -0.707163,0.41086 c -0.388942,0.22589 -0.744718,0.48108 -0.790616,0.56686 -0.04592,0.0857 -0.08344,0.71537 -0.08344,1.39919 0,0.99797 0.02488,1.25279 0.126404,1.29174 0.157447,0.0603 0.905595,-0.36921 1.022127,-0.58694 0.04739,-0.0885 0.0862,-0.57804 0.0862,-1.08767 0,-0.95796 0.0901,-1.20675 0.322052,-0.88956 0.07719,0.10547 0.118894,0.4201 0.118894,0.89644 v 0.73386 l 0.360543,-0.0576 c 0.341277,-0.0546 0.358954,-0.0466 0.330725,0.14961 -0.02299,0.16068 -0.280994,0.35508 -1.148549,0.86561 -1.145685,0.67416 -1.30229,0.84178 -1.171412,1.25421 0.05178,0.16311 0.145382,0.16933 2.186334,0.14688 l 2.132238,-0.0243 z m 2.160723,-4.26226 c 1.769875,-0.57963 3.167996,-1.90262 3.76078,-3.55863 0.192048,-0.53652 0.328288,-2.18171 0.217288,-2.62393 l -0.05685,-0.22641 h -1.977453 c -1.485114,0 -1.995217,0.0273 -2.0488,0.11041 -0.03924,0.0605 -0.191399,0.42736 -0.338105,0.81497 -0.382437,1.0104 -0.497129,0.97892 -0.708437,-0.1945 -0.249424,-1.38497 -0.369803,-1.31205 -0.674782,0.40873 -0.236276,1.33315 -0.338406,1.62909 -0.503087,1.45777 -0.04428,-0.046 -0.223941,-1.07597 -0.399196,-2.28861 -0.378048,-2.61567 -0.375282,-2.6017 -0.515636,-2.6017 -0.06054,0 -0.377094,0.53578 -0.703448,1.19062 l -0.593373,1.19063 h -1.628884 c -1.902339,0 -1.81147,-0.0499 -1.81147,0.99426 0,0.80431 0.255081,1.83651 0.632916,2.56111 0.424332,0.81377 1.610253,1.95985 2.460638,2.37796 1.097382,0.53952 1.794389,0.68665 3.07994,0.64999 0.892825,-0.0244 1.23655,-0.0755 1.807954,-0.26241 z m -2.425303,-0.51429 c -0.478805,-0.10703 -0.703657,-0.2876 -0.549872,-0.44139 0.07642,-0.0766 0.231706,-0.0808 0.585546,-0.0162 0.356597,0.0647 0.599579,0.0571 0.936494,-0.0291 0.48231,-0.12329 0.615302,-0.0987 0.615302,0.11422 0,0.28859 -0.958357,0.51378 -1.58747,0.37302 z m -1.706091,-2.08738 c -0.189693,-0.20965 -0.184796,-0.3936 0.01543,-0.57471 0.232894,-0.21073 0.518062,-0.17963 0.684657,0.0743 0.133834,0.20423 0.133834,0.23669 0,0.44096 -0.171756,0.26213 -0.491832,0.2892 -0.699982,0.0593 z m 3.421615,-0.14148 c -0.271481,-0.41435 0.198702,-0.82027 0.625904,-0.54036 0.247452,0.16205 0.279238,0.41467 0.07757,0.61634 -0.207737,0.20776 -0.541169,0.17179 -0.703478,-0.0761 z m -1.137669,-3.97553 c 0.211606,-1.21013 0.333942,-1.55259 0.494569,-1.38441 0.03282,0.0344 0.152224,0.57837 0.265305,1.20895 0.23276,1.29772 0.34355,1.42057 0.617887,0.68512 l 0.172107,-0.46134 2.000835,-0.0243 c 2.352706,-0.0279 2.281076,0.0162 1.723959,-1.05794 -0.429635,-0.82824 -1.435244,-1.8525 -2.279603,-2.32184 -3.036046,-1.6875 -6.967182,-0.61741 -8.490501,2.31125 -0.205682,0.39548 -0.373989,0.82207 -0.373989,0.94808 v 0.22911 l 1.433135,-9.7e-4 c 0.788221,-6e-4 1.477901,-0.0306 1.53262,-0.0663 0.05473,-0.0355 0.422054,-0.7097 0.816303,-1.49792 0.672479,-1.34449 0.811342,-1.54706 0.929474,-1.35594 0.02625,0.0425 0.169945,0.9255 0.319337,1.96229 0.278278,1.93132 0.382411,2.37191 0.526555,2.22776 0.04455,-0.0447 0.184956,-0.67543 0.311999,-1.40192 z"
       id="path4008-4"
       inkscape:connector-curvature="0" />
    <path
       style="fill:#050505;fill-opacity:1;stroke-width:0.434238"
       d="m 28.084301,261.62139 c -0.09334,-0.2432 -0.06068,-4.53422 0.03585,-4.71459 0.04932,-0.0922 0.366818,-0.32942 0.705541,-0.52725 0.338727,-0.19778 0.615865,-0.39635 0.615865,-0.44114 0,-0.0449 -0.225402,-0.25131 -0.5009,-0.45914 -1.007366,-0.75955 -1.863496,-2.05429 -2.182561,-3.30077 -0.176274,-0.68859 -0.179006,-2.04001 -0.0054,-2.72476 0.07324,-0.28909 0.298305,-0.86296 0.500144,-1.27526 0.293281,-0.59912 0.51896,-0.90166 1.123813,-1.50667 0.628099,-0.62825 0.899287,-0.82698 1.594434,-1.16847 1.206772,-0.59277 1.759323,-0.7188 3.130615,-0.71416 0.806735,0.002 1.311968,0.0495 1.704825,0.15746 3.200698,0.88036 5.194794,3.81447 4.65392,6.84772 -0.248316,1.39251 -1.241594,2.98286 -2.337264,3.74216 -0.198811,0.13767 -0.36148,0.28303 -0.36148,0.3228 0,0.0398 0.277437,0.23428 0.616524,0.43238 0.393273,0.22968 0.633784,0.4307 0.664178,0.55509 0.02625,0.10714 0.03649,1.24673 0.02299,2.53213 l -0.02488,2.33712 -4.951132,0.0216 c -4.457619,0.0215 -4.956494,0.008 -5.004941,-0.11734 z m 4.796794,-1.27231 c 0.04062,-0.85254 0.0581,-0.92604 0.220478,-0.92604 0.162399,0 0.179874,0.0735 0.22048,0.92604 l 0.0441,0.92602 h 2.11542 c 1.979416,0 2.117418,-0.0113 2.146485,-0.16124 0.07415,-0.38501 -0.08786,-0.58193 -1.039039,-1.26279 -0.5321,-0.38086 -0.988888,-0.74572 -1.015085,-0.81071 -0.07133,-0.17694 0.02596,-0.27867 0.266821,-0.27867 0.212067,0 0.215285,-0.0113 0.215285,-0.78294 0,-0.57789 0.03363,-0.81084 0.12842,-0.88952 0.247505,-0.20531 0.312538,-0.006 0.312538,0.96492 0,0.5267 0.02407,1.0201 0.05321,1.09639 0.07569,0.19722 0.895628,0.78122 1.003392,0.71461 0.137026,-0.0848 0.118488,-2.70962 -0.02028,-2.88339 -0.06062,-0.0761 -0.366131,-0.28527 -0.678882,-0.46529 -0.638192,-0.36731 -0.664782,-0.36715 -1.680277,0.0113 -0.620191,0.23022 -0.749452,0.24593 -2.072528,0.24835 -1.367516,0.002 -1.436372,-0.006 -2.229991,-0.28332 l -0.818897,-0.286 -0.707163,0.41086 c -0.388942,0.22589 -0.744718,0.48108 -0.790616,0.56686 -0.04592,0.0857 -0.08344,0.71537 -0.08344,1.39919 0,0.99797 0.02488,1.25279 0.126404,1.29174 0.157447,0.0603 0.905595,-0.36921 1.022127,-0.58694 0.04739,-0.0885 0.0862,-0.57804 0.0862,-1.08767 0,-0.95796 0.0901,-1.20675 0.322052,-0.88956 0.07719,0.10547 0.118894,0.4201 0.118894,0.89644 v 0.73386 l 0.360543,-0.0576 c 0.341277,-0.0546 0.358954,-0.0466 0.330725,0.14961 -0.02299,0.16068 -0.280994,0.35508 -1.148549,0.86561 -1.145685,0.67416 -1.30229,0.84178 -1.171412,1.25421 0.05178,0.16311 0.145382,0.16933 2.186334,0.14688 l 2.132238,-0.0243 z m 2.160723,-4.26226 c 1.798336,-0.58895 3.232202,-1.974 3.804655,-3.6751 0.213148,-0.63339 0.221914,-2.36663 0.01569,-3.09953 -0.356769,-1.26779 -1.453375,-2.62144 -2.672695,-3.2992 -2.477562,-1.37709 -5.596645,-0.9588 -7.541693,1.01144 -1.633552,1.65471 -2.027872,4.11443 -0.994473,6.2034 0.44418,0.89788 1.576714,2.0172 2.500652,2.47147 1.097382,0.53953 1.794387,0.68664 3.079941,0.64999 0.892823,-0.0243 1.236549,-0.0756 1.807951,-0.26241 z m -2.425303,-0.51429 c -0.478805,-0.10703 -0.703657,-0.2876 -0.549872,-0.44139 0.07642,-0.0766 0.231706,-0.0808 0.585546,-0.0162 0.356597,0.0647 0.599579,0.0571 0.936494,-0.0291 0.48231,-0.12329 0.615302,-0.0987 0.615302,0.11422 0,0.28859 -0.958357,0.51378 -1.58747,0.37302 z m -1.706091,-2.08738 c -0.189693,-0.20965 -0.184796,-0.3936 0.01543,-0.57471 0.232894,-0.21073 0.518062,-0.17963 0.684657,0.0743 0.133834,0.20423 0.133834,0.23669 0,0.44096 -0.171756,0.26213 -0.491832,0.2892 -0.699982,0.0593 z m 3.421615,-0.14148 c -0.271481,-0.41435 0.198702,-0.82027 0.625904,-0.54036 0.247452,0.16205 0.279238,0.41467 0.07757,0.61634 -0.207737,0.20776 -0.541169,0.17179 -0.703478,-0.0761 z"
       id="path4006-5"
       inkscape:connector-curvature="0" />
  </g>
  <path
     d="m 17.70221,359.11621 v -9.54424 h 1.874995 l 3.90624,6.37368 v -6.37368 h 1.79036 v 9.54424 h -1.933589 l -3.847646,-6.22394 v 6.22394 z m 13.600225,-2.20051 1.822912,0.30599 q -0.351561,1.0026 -1.113278,1.52994 -0.755207,0.52083 -1.894527,0.52083 -1.803381,0 -2.669264,-1.17838 -0.683592,-0.94401 -0.683592,-2.38281 0,-1.71874 0.898435,-2.68879 0.898436,-0.97656 2.27213,-0.97656 1.542965,0 2.43489,1.02213 0.891925,1.01562 0.852862,3.11848 h -4.583322 q 0.01953,0.8138 0.442708,1.26953 0.423176,0.44922 1.054684,0.44922 0.429687,0 0.722655,-0.23438 0.292968,-0.23437 0.442707,-0.7552 z m 0.104166,-1.84896 q -0.01953,-0.79426 -0.410155,-1.20442 -0.390624,-0.41667 -0.950518,-0.41667 -0.598957,0 -0.989581,0.4362 -0.390624,0.4362 -0.384114,1.18489 z m 9.648414,4.04947 H 39.3558 v -1.01562 q -0.423176,0.59245 -1.002601,0.88542 -0.572915,0.28645 -1.158851,0.28645 -1.191404,0 -2.044266,-0.95703 -0.846352,-0.96354 -0.846352,-2.68228 0,-1.75781 0.826821,-2.66926 0.826821,-0.91797 2.089838,-0.91797 1.158851,0 2.005203,0.96354 v -3.43749 h 1.829423 z m -4.8828,-3.60676 q 0,1.10677 0.305989,1.60156 0.442707,0.71614 1.236976,0.71614 0.631508,0 1.074216,-0.53385 0.442707,-0.54036 0.442707,-1.60807 0,-1.1914 -0.429687,-1.71223 -0.429686,-0.52735 -1.100257,-0.52735 -0.65104,0 -1.093747,0.52084 -0.436197,0.51432 -0.436197,1.54296 z m 6.705712,3.60676 v -9.54424 h 4.055979 q 1.529944,0 2.220046,0.26041 0.696613,0.25391 1.113279,0.91146 0.416665,0.65755 0.416665,1.5039 0,1.07422 -0.631508,1.77734 -0.631509,0.69661 -1.888016,0.8789 0.624998,0.36459 1.028643,0.80078 0.410155,0.4362 1.100257,1.54948 l 1.165362,1.86197 h -2.304682 l -1.393225,-2.07681 q -0.742186,-1.11328 -1.015623,-1.39974 -0.273437,-0.29297 -0.579425,-0.39713 -0.305989,-0.11068 -0.97005,-0.11068 h -0.390624 v 3.98436 z m 1.927078,-5.5078 h 1.425778 q 1.386715,0 1.731766,-0.11718 0.345051,-0.11719 0.540363,-0.40365 0.195312,-0.28645 0.195312,-0.71614 0,-0.48177 -0.260416,-0.77474 -0.253905,-0.29948 -0.722654,-0.3776 -0.234374,-0.0326 -1.406247,-0.0326 h -1.503902 z m 12.233042,5.5078 v -1.03515 q -0.377604,0.55338 -0.996092,0.87239 -0.611977,0.31901 -1.295569,0.31901 -0.696613,0 -1.249997,-0.30599 -0.553384,-0.30598 -0.800779,-0.85937 -0.247396,-0.55338 -0.247396,-1.52994 v -4.37499 h 1.829423 v 3.17707 q 0,1.45833 0.09766,1.79036 0.104166,0.32552 0.371093,0.52084 0.266926,0.1888 0.677081,0.1888 0.468749,0 0.839842,-0.25391 0.371093,-0.26041 0.507811,-0.63802 0.136719,-0.38411 0.136719,-1.86848 v -2.91666 h 1.829422 v 6.91404 z m 2.949209,-1.97265 1.835932,-0.27995 q 0.117188,0.53386 0.47526,0.81381 0.358072,0.27343 1.002601,0.27343 0.709634,0 1.067706,-0.26041 0.240885,-0.1823 0.240885,-0.48828 0,-0.20834 -0.130208,-0.34506 -0.136719,-0.1302 -0.611978,-0.24088 -2.213536,-0.48828 -2.805982,-0.89193 -0.820311,-0.55989 -0.820311,-1.55598 0,-0.89844 0.709634,-1.51041 0.709633,-0.61198 2.200515,-0.61198 1.419267,0 2.10937,0.46224 0.690102,0.46224 0.950518,1.36718 l -1.725256,0.31901 q -0.110677,-0.40364 -0.423176,-0.61849 -0.305989,-0.21484 -0.878904,-0.21484 -0.722654,0 -1.035154,0.20182 -0.208332,0.14323 -0.208332,0.37109 0,0.19532 0.182291,0.33204 0.247395,0.18229 1.705725,0.51432 1.46484,0.33203 2.044265,0.8138 0.572916,0.48828 0.572916,1.36067 0,0.95052 -0.794269,1.63411 -0.794269,0.68359 -2.350255,0.68359 -1.412757,0 -2.239577,-0.57291 -0.820311,-0.57292 -1.074216,-1.55599 z m 9.882784,-7.57159 v 3.5091 q 0.88542,-1.03515 2.11589,-1.03515 0.6315,0 1.13932,0.23437 0.50781,0.23438 0.76171,0.59896 0.26042,0.36458 0.35156,0.80729 0.0977,0.44271 0.0977,1.37369 v 4.05598 H 72.5068 v -3.65233 q 0,-1.08724 -0.10417,-1.38021 -0.10416,-0.29296 -0.37109,-0.46223 -0.26041,-0.17579 -0.65755,-0.17579 -0.45573,0 -0.8138,0.22136 -0.35807,0.22135 -0.52734,0.67057 -0.16276,0.44271 -0.16276,1.3151 v 3.46353 h -1.829423 v -9.54424 z"
     id="text1"
     style="font-weight:bold;font-size:13.3333px;font-family:Arial;-inkscape-font-specification:'Arial Bold';text-align:center;text-anchor:middle;fill:#ff7e79;stroke-width:1.002"
     aria-label="NedRush" />
</svg>
