<?xml version="1.0" encoding="UTF-8" standalone="no"?>
<svg
   width="60"
   height="380"
   viewBox="0 0 60 380"
   version="1.1"
   id="svg1"
   sodipodi:docname="LuckyTriggers.svg"
   inkscape:version="1.3.2 (091e20e, 2023-11-25)"
   xmlns:inkscape="http://www.inkscape.org/namespaces/inkscape"
   xmlns:sodipodi="http://sodipodi.sourceforge.net/DTD/sodipodi-0.dtd"
   xmlns="http://www.w3.org/2000/svg"
   xmlns:svg="http://www.w3.org/2000/svg">
  <sodipodi:namedview
     id="namedview10"
     pagecolor="#ffffff"
     bordercolor="#000000"
     borderopacity="0.25"
     inkscape:showpageshadow="2"
     inkscape:pageopacity="0.0"
     inkscape:pagecheckerboard="0"
     inkscape:deskcolor="#d1d1d1"
     inkscape:zoom="2.7394737"
     inkscape:cx="30.115274"
     inkscape:cy="190"
     inkscape:window-width="1392"
     inkscape:window-height="1212"
     inkscape:window-x="1472"
     inkscape:window-y="481"
     inkscape:window-maximized="0"
     inkscape:current-layer="svg1" />
  <defs
     id="defs1">
    <style
       id="style1">
      .panel { fill: #404040; }
      .accent { fill: #292929; }
      .title { font-family: Arial, sans-serif; font-size: 13px; font-weight: bold; fill: #ff8f86; text-anchor: middle; letter-spacing: 0.7px; }
      .tiny { font-family: Arial, sans-serif; font-size: 6.1px; fill: #d8d8d8; text-anchor: middle; letter-spacing: 0.3px; }
      .subtle { font-family: Arial, sans-serif; font-size: 5.4px; fill: #a6a6a6; text-anchor: middle; }
      .line { stroke: #5c5c5c; stroke-width: 0.9; }
      .ghost { fill: #4a4a4a; }
    </style>
  </defs>
  <rect
     class="accent"
     x="0"
     y="378"
     width="60"
     height="2"
     id="rect3" />
  <rect
     class="panel"
     x="0"
     y="0"
     width="60"
     height="380"
     id="rect1"
     style="fill:#434343;fill-opacity:1;stroke-width:0.707107" />
  <g
     id="text3"
     style="font-weight:bold;font-size:8px;font-family:Arial, sans-serif;letter-spacing:0.7px;text-anchor:middle;fill:#ff8f86"
     class="title"
     aria-label="LUCKY&#10;TRIGGERS">
    <path
       d="m 15.085938,16 v -5.679687 h 1.15625 v 4.714843 h 2.875 V 16 Z m 5.547656,-5.726562 h 1.15625 V 13.375 q 0,0.738281 0.04297,0.957031 0.07422,0.351563 0.351563,0.566407 0.28125,0.210937 0.765625,0.210937 0.492187,0 0.742187,-0.199219 0.25,-0.203125 0.300782,-0.496093 0.05078,-0.292969 0.05078,-0.972657 V 10.273438 H 25.2 v 3.007812 q 0,1.03125 -0.09375,1.457031 -0.09375,0.425782 -0.347656,0.71875 -0.25,0.292969 -0.671875,0.46875 -0.421875,0.171875 -1.101563,0.171875 -0.820312,0 -1.246094,-0.1875 Q 21.317187,15.71875 21.071094,15.417969 20.825,15.113281 20.746875,14.78125 20.633594,14.289063 20.633594,13.328125 Z M 30.782812,13.894531 31.903906,14.25 q -0.257813,0.9375 -0.859375,1.394531 -0.597656,0.453125 -1.519531,0.453125 -1.140625,0 -1.875,-0.777343 -0.734375,-0.78125 -0.734375,-2.132813 0,-1.429687 0.738281,-2.21875 0.738281,-0.792969 1.941406,-0.792969 1.050781,0 1.707031,0.621094 0.390625,0.367188 0.585938,1.054688 L 30.74375,12.125 q -0.101563,-0.445312 -0.425782,-0.703125 -0.320312,-0.257812 -0.78125,-0.257812 -0.636718,0 -1.035156,0.457031 -0.394531,0.457031 -0.394531,1.480469 0,1.085937 0.390625,1.546875 0.390625,0.460937 1.015625,0.460937 0.460937,0 0.792969,-0.292969 0.332031,-0.292968 0.476562,-0.921875 z M 33.611719,16 v -5.726562 h 1.15625 v 2.542968 l 2.335938,-2.542968 h 1.554687 L 36.502344,12.503906 38.775782,16 h -1.496094 l -1.574219,-2.6875 -0.9375,0.957031 V 16 Z m 7.965624,0 v -2.410156 l -2.097656,-3.316406 h 1.355469 l 1.347656,2.265625 1.320312,-2.265625 h 1.332032 l -2.105469,3.324218 V 16 Z"
       id="path13" />
    <path
       d="M 8.5304688,26 V 21.242187 H 6.83125 v -0.96875 h 4.550781 v 0.96875 H 9.6867188 V 26 Z m 4.3015622,0 v -5.726563 h 2.433594 q 0.917969,0 1.332031,0.15625 0.417969,0.152344 0.667969,0.546875 0.25,0.394532 0.25,0.902344 0,0.644531 -0.378906,1.066406 -0.378907,0.417969 -1.132813,0.527344 0.375,0.21875 0.617188,0.480469 0.246093,0.261719 0.660156,0.929687 L 17.980469,26 h -1.382813 l -0.835937,-1.246094 q -0.445313,-0.667969 -0.609375,-0.839844 -0.164063,-0.175781 -0.347657,-0.238281 -0.183593,-0.06641 -0.582031,-0.06641 H 13.988281 V 26 Z m 1.15625,-3.304688 h 0.855469 q 0.832031,0 1.039062,-0.07031 0.207032,-0.07031 0.324219,-0.242188 0.117188,-0.171875 0.117188,-0.429687 0,-0.289063 -0.15625,-0.464844 -0.152344,-0.179687 -0.433594,-0.226562 -0.140625,-0.01953 -0.84375,-0.01953 H 13.988281 Z M 19.270312,26 v -5.726563 h 1.15625 V 26 Z m 5.621876,-2.105469 v -0.964844 h 2.492187 v 2.28125 q -0.363281,0.351563 -1.054687,0.621094 -0.6875,0.265625 -1.394531,0.265625 -0.898438,0 -1.566407,-0.375 -0.667968,-0.378906 -1.003906,-1.078125 -0.335937,-0.703125 -0.335937,-1.527344 0,-0.894531 0.375,-1.589843 0.375,-0.695313 1.097656,-1.066407 0.550781,-0.285156 1.371094,-0.285156 1.066406,0 1.664062,0.449219 0.601563,0.445312 0.773438,1.234375 l -1.148438,0.214844 q -0.121094,-0.421875 -0.457031,-0.664063 -0.332031,-0.246094 -0.832031,-0.246094 -0.757813,0 -1.207032,0.480469 -0.445312,0.480469 -0.445312,1.425781 0,1.019532 0.453125,1.53125 0.453125,0.507813 1.1875,0.507813 0.363281,0 0.726562,-0.140625 0.367188,-0.144531 0.628907,-0.347656 v -0.726563 z m 6.922655,0 v -0.964844 h 2.492188 v 2.28125 q -0.363282,0.351563 -1.054688,0.621094 -0.6875,0.265625 -1.394531,0.265625 -0.898438,0 -1.566406,-0.375 -0.667969,-0.378906 -1.003907,-1.078125 -0.335937,-0.703125 -0.335937,-1.527344 0,-0.894531 0.375,-1.589843 0.375,-0.695313 1.097656,-1.066407 0.550781,-0.285156 1.371094,-0.285156 1.066406,0 1.664062,0.449219 0.601563,0.445312 0.773438,1.234375 l -1.148438,0.214844 q -0.121093,-0.421875 -0.457031,-0.664063 -0.332031,-0.246094 -0.832031,-0.246094 -0.757813,0 -1.207031,0.480469 -0.445313,0.480469 -0.445313,1.425781 0,1.019532 0.453125,1.53125 0.453125,0.507813 1.1875,0.507813 0.363281,0 0.726563,-0.140625 0.367187,-0.144531 0.628906,-0.347656 V 23.894531 Z M 36.073438,26 v -5.726563 h 4.246093 v 0.96875 h -3.089843 v 1.269532 h 2.875 v 0.964843 h -2.875 v 1.558594 h 3.199218 V 26 Z m 6.039844,0 v -5.726563 h 2.433594 q 0.917969,0 1.332031,0.15625 0.417969,0.152344 0.667969,0.546875 0.25,0.394532 0.25,0.902344 0,0.644531 -0.378906,1.066406 -0.378907,0.417969 -1.132813,0.527344 0.375,0.21875 0.617188,0.480469 0.246093,0.261719 0.660156,0.929687 L 47.26172,26 H 45.878907 L 45.04297,24.753906 q -0.445313,-0.667969 -0.609375,-0.839844 -0.164063,-0.175781 -0.347657,-0.238281 -0.183593,-0.06641 -0.582031,-0.06641 H 43.269532 V 26 Z m 1.15625,-3.304688 h 0.855469 q 0.832031,0 1.039062,-0.07031 0.207032,-0.07031 0.324219,-0.242188 0.117188,-0.171875 0.117188,-0.429687 0,-0.289063 -0.15625,-0.464844 -0.152344,-0.179687 -0.433594,-0.226562 -0.140625,-0.01953 -0.84375,-0.01953 h -0.902344 z m 5.02422,1.441407 1.125,-0.109375 q 0.101562,0.566406 0.410156,0.832031 0.3125,0.265625 0.839844,0.265625 0.558593,0 0.839843,-0.234375 0.285157,-0.238281 0.285157,-0.554688 0,-0.203125 -0.121094,-0.34375 -0.117188,-0.144531 -0.414063,-0.25 -0.203125,-0.07031 -0.925781,-0.25 -0.929687,-0.230468 -1.304687,-0.566406 -0.527344,-0.472656 -0.527344,-1.152344 0,-0.4375 0.246094,-0.816406 0.25,-0.382812 0.714843,-0.582031 0.46875,-0.199219 1.128907,-0.199219 1.078125,0 1.621093,0.472656 0.546875,0.472657 0.574219,1.261719 l -1.15625,0.05078 q -0.07422,-0.441406 -0.320312,-0.632812 -0.242188,-0.195313 -0.730469,-0.195313 -0.503906,0 -0.789063,0.207032 -0.183593,0.132812 -0.183593,0.355468 0,0.203125 0.171875,0.347657 0.21875,0.183593 1.0625,0.382812 0.84375,0.199219 1.246093,0.414063 0.40625,0.210937 0.632813,0.582031 0.230469,0.367187 0.230469,0.910156 0,0.492188 -0.273438,0.921875 -0.273437,0.429688 -0.773437,0.640625 -0.5,0.207031 -1.246094,0.207031 -1.085938,0 -1.667969,-0.5 -0.582031,-0.503906 -0.695312,-1.464843 z"
       id="path14" />
  </g>
  <g
     id="text4"
     class="subtle"
     style="font-size:5.4px;font-family:Arial, sans-serif;text-anchor:middle;fill:#a6a6a6"
     aria-label="RANDOM&#10;CLOCK FILTER">
    <path
       d="m 18.424804,34 v -3.86543 h 1.713868 q 0.516797,0 0.785742,0.105469 0.268945,0.102832 0.429785,0.366504 0.16084,0.263672 0.16084,0.582715 0,0.411328 -0.266309,0.693457 -0.266308,0.282129 -0.822656,0.358594 0.203027,0.09756 0.308496,0.19248 0.224121,0.205664 0.424512,0.51416 L 21.831445,34 h -0.643359 l -0.511524,-0.804199 q -0.224121,-0.348047 -0.36914,-0.532617 -0.14502,-0.184571 -0.261035,-0.258399 -0.113379,-0.07383 -0.232032,-0.102832 -0.08701,-0.01846 -0.284765,-0.01846 H 18.936328 V 34 Z m 0.511524,-2.159473 h 1.099512 q 0.350683,0 0.548437,-0.07119 0.197754,-0.07383 0.300586,-0.232031 0.102832,-0.16084 0.102832,-0.348047 0,-0.274219 -0.20039,-0.450879 -0.197754,-0.17666 -0.62754,-0.17666 H 18.936328 Z M 21.89209,34 23.376562,30.13457 h 0.551075 L 25.509668,34 H 24.926953 L 24.476074,32.829297 H 22.859765 L 22.435254,34 Z m 1.115332,-1.587305 h 1.310449 l -0.403418,-1.070508 q -0.18457,-0.487793 -0.274219,-0.801562 -0.07383,0.371777 -0.208301,0.738281 z M 25.913086,34 v -3.86543 h 0.524707 l 2.030273,3.034864 V 30.13457 h 0.49043 V 34 H 28.433789 L 26.403515,30.9625 V 34 Z m 3.90498,0 v -3.86543 h 1.331543 q 0.450879,0 0.688184,0.05537 0.332226,0.07646 0.566894,0.276856 0.30586,0.258398 0.456153,0.661816 0.152929,0.400781 0.152929,0.917578 0,0.440332 -0.102832,0.780469 -0.102832,0.340137 -0.263672,0.564258 -0.16084,0.221484 -0.35332,0.350684 -0.189844,0.126562 -0.461426,0.19248 Q 31.563574,34 31.21289,34 Z m 0.511523,-0.456152 h 0.825293 q 0.382325,0 0.598536,-0.07119 0.218847,-0.07119 0.348046,-0.20039 0.181934,-0.181934 0.282129,-0.487793 0.102832,-0.308496 0.102832,-0.746192 0,-0.606445 -0.20039,-0.930762 -0.197754,-0.326953 -0.48252,-0.437695 -0.205664,-0.0791 -0.661816,-0.0791 h -0.81211 z m 3.232617,-1.426465 q 0,-0.962403 0.516797,-1.505567 0.516797,-0.5458 1.33418,-0.5458 0.535254,0 0.965039,0.255761 0.429785,0.255762 0.653906,0.714551 0.226758,0.456152 0.226758,1.036231 0,0.587988 -0.237304,1.05205 -0.237305,0.464063 -0.672364,0.704004 -0.435058,0.237305 -0.938672,0.237305 -0.5458,0 -0.975586,-0.263672 -0.429785,-0.263672 -0.651269,-0.719824 -0.221485,-0.456152 -0.221485,-0.965039 z m 0.527344,0.0079 q 0,0.69873 0.374414,1.102148 0.377051,0.400782 0.943946,0.400782 0.577441,0 0.949218,-0.406055 0.374414,-0.406055 0.374414,-1.152246 0,-0.471973 -0.160839,-0.822656 -0.158204,-0.353321 -0.4667,-0.545801 -0.305859,-0.195117 -0.688183,-0.195117 -0.543164,0 -0.936035,0.374414 -0.390235,0.371777 -0.390235,1.244531 z M 37.902245,34 v -3.86543 h 0.769922 l 0.914941,2.736914 q 0.126563,0.382325 0.184571,0.572168 0.06592,-0.210937 0.205664,-0.619629 l 0.925488,-2.689453 h 0.688184 V 34 H 41.097948 V 30.764746 L 39.974706,34 H 39.51328 L 38.395312,30.709375 V 34 Z"
       id="path15" />
    <path
       d="m 14.021484,39.394727 0.511524,0.129199 q -0.16084,0.630176 -0.580079,0.962402 -0.416601,0.32959 -1.02041,0.32959 -0.624902,0 -1.017773,-0.253125 -0.390235,-0.255762 -0.595899,-0.738281 -0.203027,-0.48252 -0.203027,-1.036231 0,-0.603808 0.229395,-1.05205 0.232031,-0.450879 0.656542,-0.682911 0.427149,-0.234668 0.938672,-0.234668 0.580079,0 0.975586,0.295313 0.395508,0.295312 0.551075,0.830566 l -0.503614,0.118653 q -0.134472,-0.421875 -0.390234,-0.614356 -0.255762,-0.19248 -0.643359,-0.19248 -0.445606,0 -0.746192,0.213574 -0.297949,0.213574 -0.419238,0.574805 -0.121289,0.358593 -0.121289,0.740918 0,0.493066 0.142383,0.862207 0.145019,0.366504 0.448242,0.548437 0.303222,0.181934 0.656543,0.181934 0.429785,0 0.727734,-0.247852 0.297949,-0.247851 0.403418,-0.735644 z M 15.14209,40.75 v -3.86543 h 0.511523 v 3.409278 h 1.903711 V 40.75 Z m 2.86875,-1.882617 q 0,-0.962402 0.516796,-1.505567 0.516797,-0.5458 1.33418,-0.5458 0.535254,0 0.965039,0.255761 0.429785,0.255762 0.653907,0.714551 0.226757,0.456153 0.226757,1.036231 0,0.587988 -0.237304,1.05205 -0.237305,0.464063 -0.672364,0.704004 -0.435058,0.237305 -0.938672,0.237305 -0.5458,0 -0.975585,-0.263672 -0.429786,-0.263672 -0.65127,-0.719824 Q 18.01084,39.37627 18.01084,38.867383 Z m 0.527343,0.0079 q 0,0.698731 0.374414,1.102149 0.377051,0.400781 0.943946,0.400781 0.577441,0 0.949219,-0.406055 0.374414,-0.406055 0.374414,-1.152246 0,-0.471973 -0.16084,-0.822656 -0.158203,-0.353321 -0.466699,-0.545801 -0.30586,-0.195117 -0.688184,-0.195117 -0.543164,0 -0.936035,0.374414 -0.390235,0.371777 -0.390235,1.244531 z m 6.586524,0.519434 0.511523,0.129199 q -0.160839,0.630176 -0.580078,0.962402 -0.416601,0.32959 -1.02041,0.32959 -0.624902,0 -1.017773,-0.253125 -0.390235,-0.255762 -0.595899,-0.738281 -0.203027,-0.48252 -0.203027,-1.036231 0,-0.603808 0.229394,-1.05205 0.232032,-0.450879 0.656543,-0.682911 0.427149,-0.234668 0.938672,-0.234668 0.580078,0 0.975586,0.295313 0.395508,0.295312 0.551074,0.830566 l -0.503613,0.118653 q -0.134473,-0.421875 -0.390234,-0.614356 -0.255762,-0.19248 -0.64336,-0.19248 -0.445605,0 -0.746191,0.213574 -0.297949,0.213574 -0.419238,0.574805 -0.121289,0.358593 -0.121289,0.740918 0,0.493066 0.142382,0.862207 0.14502,0.366504 0.448243,0.548437 0.303222,0.181934 0.656543,0.181934 0.429785,0 0.727734,-0.247852 0.297949,-0.247851 0.403418,-0.735644 z M 26.245312,40.75 v -3.86543 h 0.511524 v 1.916895 l 1.919531,-1.916895 h 0.693457 L 27.748242,38.450781 29.441015,40.75 h -0.675 l -1.376367,-1.956445 -0.632812,0.616992 V 40.75 Z m 5.149512,0 v -3.86543 h 2.607715 v 0.456153 h -2.096192 v 1.19707 h 1.814063 v 0.456152 H 31.906347 V 40.75 Z m 3.359179,0 v -3.86543 h 0.511523 V 40.75 Z m 1.392188,0 v -3.86543 h 0.511524 v 3.409278 h 1.90371 V 40.75 Z m 3.607032,0 V 37.340723 H 38.479688 V 36.88457 h 3.063867 v 0.456153 H 40.264746 V 40.75 Z m 2.325585,0 v -3.86543 h 2.794922 v 0.456153 h -2.283399 v 1.183886 h 2.138379 v 0.453516 h -2.138379 v 1.315723 h 2.373047 V 40.75 Z m 3.599122,0 v -3.86543 h 1.713867 q 0.516797,0 0.785743,0.105469 0.268945,0.102832 0.429785,0.366504 0.16084,0.263672 0.16084,0.582715 0,0.411328 -0.266309,0.693457 -0.266309,0.282129 -0.822656,0.358594 0.203027,0.09756 0.308496,0.19248 0.224121,0.205664 0.424512,0.51416 L 49.084571,40.75 h -0.64336 l -0.511523,-0.804199 q -0.224121,-0.348047 -0.369141,-0.532617 -0.145019,-0.184571 -0.261035,-0.258399 -0.113379,-0.07383 -0.232031,-0.102832 -0.08701,-0.01846 -0.284766,-0.01846 H 46.189454 V 40.75 Z m 0.511524,-2.159473 h 1.099511 q 0.350684,0 0.548438,-0.07119 0.197754,-0.07383 0.300586,-0.232031 0.102832,-0.16084 0.102832,-0.348047 0,-0.274219 -0.200391,-0.450879 -0.197754,-0.17666 -0.627539,-0.17666 h -1.223437 z"
       id="path16" />
  </g>
  <rect
     class="ghost"
     x="18"
     y="60"
     width="24"
     height="3"
     rx="1.5"
     ry="1.5"
     id="rect5" />
  <path
     d="m 19.957031,62.469043 0.577832,0.145947 q -0.181689,0.711865 -0.655273,1.087158 -0.470606,0.372315 -1.152686,0.372315 -0.705908,0 -1.149707,-0.285938 -0.44082,-0.288916 -0.673144,-0.833984 -0.229346,-0.545068 -0.229346,-1.170557 0,-0.68208 0.259131,-1.188427 0.262109,-0.509326 0.74165,-0.771436 0.48252,-0.265088 1.060352,-0.265088 0.655273,0 1.102051,0.333594 0.446777,0.333594 0.622509,0.938232 l -0.568896,0.134034 q -0.151904,-0.476563 -0.44082,-0.693995 -0.288916,-0.217431 -0.726758,-0.217431 -0.503369,0 -0.84292,0.24126 -0.336572,0.241259 -0.473584,0.649316 -0.137012,0.405078 -0.137012,0.836963 0,0.556982 0.16084,0.973974 0.163819,0.414014 0.506348,0.619532 0.342529,0.205517 0.74165,0.205517 0.485498,0 0.82207,-0.27998 0.336573,-0.279981 0.455713,-0.831006 z M 21.5646,64 v -4.366504 h 0.577832 v 1.793067 h 2.269629 v -1.793067 h 0.577832 V 64 H 24.412061 V 61.941846 H 22.142432 V 64 Z m 4.207812,0 1.676904,-4.366504 h 0.62251 L 29.858935,64 h -0.658251 l -0.509327,-1.322461 h -1.82583 L 26.385986,64 Z m 1.259912,-1.793066 h 1.480322 l -0.455712,-1.209278 q -0.208497,-0.551025 -0.309766,-0.905468 -0.0834,0.41997 -0.235303,0.833984 z M 30.614647,64 v -4.366504 h 0.592725 l 2.293457,3.428272 v -3.428272 h 0.554004 V 64 H 33.462108 L 31.168651,60.56875 V 64 Z m 7.82671,-1.530957 0.577832,0.145947 q -0.18169,0.711865 -0.655274,1.087158 -0.470605,0.372315 -1.152685,0.372315 -0.705908,0 -1.149707,-0.285938 -0.44082,-0.288916 -0.673145,-0.833984 -0.229345,-0.545068 -0.229345,-1.170557 0,-0.68208 0.25913,-1.188427 0.26211,-0.509326 0.741651,-0.771436 0.482519,-0.265088 1.060351,-0.265088 0.655274,0 1.102051,0.333594 0.446777,0.333594 0.62251,0.938232 l -0.568897,0.134034 q -0.151904,-0.476563 -0.44082,-0.693995 -0.288916,-0.217431 -0.726758,-0.217431 -0.503369,0 -0.84292,0.24126 -0.336572,0.241259 -0.473584,0.649316 -0.137011,0.405078 -0.137011,0.836963 0,0.556982 0.16084,0.973974 0.163818,0.414014 0.506347,0.619532 0.34253,0.205517 0.741651,0.205517 0.485498,0 0.82207,-0.27998 0.336572,-0.279981 0.455713,-0.831006 z M 40.042969,64 v -4.366504 h 3.157226 v 0.515283 h -2.579394 v 1.337354 h 2.415576 v 0.512305 h -2.415576 v 1.486279 h 2.680664 V 64 Z"
     id="text5"
     class="tiny"
     style="font-size:6.1px;font-family:Arial, sans-serif;letter-spacing:0.3px;text-anchor:middle;fill:#d8d8d8"
     aria-label="CHANCE" />
  <path
     d="m 2.5364505,226 v -3.85122 h -1.438623 v -0.51528 h 3.4610351 v 0.51528 H 3.1142825 V 226 Z m 2.9240723,0 v -4.3665 h 1.9360351 q 0.5837891,0 0.8875977,0.11914 0.3038085,0.11616 0.485498,0.41401 0.1816894,0.29785 0.1816894,0.65825 0,0.46465 -0.30083,0.78335 -0.3008301,0.3187 -0.9292969,0.40508 0.2293457,0.11021 0.3484863,0.21743 0.2531739,0.23233 0.479541,0.58081 L 9.3087649,226 H 8.5820071 l -0.577832,-0.90845 q -0.2531738,-0.39316 -0.4169922,-0.60166 -0.1638183,-0.20849 -0.294873,-0.29189 -0.1280762,-0.0834 -0.2621094,-0.11616 -0.098291,-0.0208 -0.3216797,-0.0208 H 6.0383548 V 226 Z m 0.577832,-2.4394 h 1.242041 q 0.3961426,0 0.6195312,-0.0804 0.2233887,-0.0834 0.3395508,-0.26211 0.1161621,-0.18169 0.1161621,-0.39317 0,-0.30976 -0.2263672,-0.50932 -0.2233886,-0.19956 -0.7088867,-0.19956 H 6.0383548 Z M 10.255102,226 v -4.3665 h 0.577832 V 226 Z m 3.939747,-1.71265 v -0.5123 l 1.849658,-0.003 v 1.62031 q -0.425928,0.33955 -0.878662,0.51231 -0.452735,0.16977 -0.929297,0.16977 -0.643359,0 -1.170557,-0.27402 -0.524218,-0.277 -0.792285,-0.79824 -0.268066,-0.52124 -0.268066,-1.1646 0,-0.6374 0.265088,-1.18843 0.268066,-0.554 0.768457,-0.82207 0.50039,-0.26807 1.152685,-0.26807 0.473584,0 0.854834,0.15489 0.384229,0.1519 0.60166,0.42592 0.217432,0.27403 0.330616,0.71485 l -0.521241,0.14297 q -0.09829,-0.3336 -0.244238,-0.52422 -0.145947,-0.19063 -0.416992,-0.30381 -0.271045,-0.11616 -0.60166,-0.11616 -0.396143,0 -0.685059,0.12212 -0.288916,0.11914 -0.467627,0.31572 -0.175732,0.19658 -0.274023,0.43188 -0.166797,0.40508 -0.166797,0.87867 0,0.58378 0.19956,0.97695 0.20254,0.39316 0.586768,0.58379 0.384229,0.19062 0.816113,0.19062 0.375293,0 0.732715,-0.14297 0.357422,-0.14594 0.54209,-0.30976 v -0.81314 z m 5.044775,0 v -0.5123 l 1.849658,-0.003 v 1.62031 q -0.425928,0.33955 -0.878662,0.51231 -0.452735,0.16977 -0.929297,0.16977 -0.643359,0 -1.170557,-0.27402 -0.524218,-0.277 -0.792285,-0.79824 -0.268066,-0.52124 -0.268066,-1.1646 0,-0.6374 0.265088,-1.18843 0.268066,-0.554 0.768457,-0.82207 0.50039,-0.26807 1.152685,-0.26807 0.473584,0 0.854834,0.15489 0.384229,0.1519 0.60166,0.42592 0.217432,0.27403 0.330616,0.71485 l -0.521241,0.14297 q -0.09829,-0.3336 -0.244238,-0.52422 -0.145947,-0.19063 -0.416992,-0.30381 -0.271045,-0.11616 -0.60166,-0.11616 -0.396143,0 -0.685059,0.12212 -0.288916,0.11914 -0.467627,0.31572 -0.175732,0.19658 -0.274023,0.43188 -0.166797,0.40508 -0.166797,0.87867 0,0.58378 0.19956,0.97695 0.20254,0.39316 0.586768,0.58379 0.384229,0.19062 0.816113,0.19062 0.375293,0 0.732715,-0.14297 0.357422,-0.14594 0.54209,-0.30976 v -0.81314 z M 22.253052,226 v -4.3665 h 3.157227 v 0.51528 h -2.579395 v 1.33735 h 2.415576 v 0.51231 h -2.415576 v 1.48628 h 2.680664 V 226 Z m 4.365674,0 v -4.3665 h 1.936035 q 0.583789,0 0.887598,0.11914 0.303808,0.11616 0.485498,0.41401 0.181689,0.29785 0.181689,0.65825 0,0.46465 -0.30083,0.78335 -0.30083,0.3187 -0.929297,0.40508 0.229346,0.11021 0.348487,0.21743 0.253173,0.23233 0.479541,0.58081 L 30.466968,226 H 29.74021 l -0.577832,-0.90845 q -0.253174,-0.39316 -0.416992,-0.60166 -0.163818,-0.20849 -0.294873,-0.29189 -0.128076,-0.0834 -0.262109,-0.11616 -0.09829,-0.0208 -0.32168,-0.0208 H 27.196558 V 226 Z m 0.577832,-2.4394 h 1.242041 q 0.396143,0 0.619531,-0.0804 0.223389,-0.0834 0.339551,-0.26211 0.116162,-0.18169 0.116162,-0.39317 0,-0.30976 -0.226367,-0.50932 -0.223389,-0.19956 -0.708887,-0.19956 h -1.382031 z m 5.642626,2.51386 1.265869,-4.51543 h 0.428906 l -1.26289,4.51543 z m 7.575682,-1.60542 0.577832,0.14595 q -0.181689,0.71187 -0.655273,1.08716 -0.470606,0.37231 -1.152686,0.37231 -0.705908,0 -1.149707,-0.28593 -0.44082,-0.28892 -0.673144,-0.83399 -0.229346,-0.54507 -0.229346,-1.17056 0,-0.68208 0.259131,-1.18842 0.262109,-0.50933 0.74165,-0.77144 0.48252,-0.26509 1.060352,-0.26509 0.655273,0 1.102051,0.3336 0.446777,0.33359 0.622509,0.93823 l -0.568896,0.13403 q -0.151904,-0.47656 -0.44082,-0.69399 -0.288917,-0.21743 -0.726758,-0.21743 -0.503369,0 -0.84292,0.24126 -0.336572,0.24126 -0.473584,0.64931 -0.137012,0.40508 -0.137012,0.83697 0,0.55698 0.16084,0.97397 0.163818,0.41401 0.506348,0.61953 0.342529,0.20552 0.74165,0.20552 0.485498,0 0.82207,-0.27998 0.336573,-0.27998 0.455713,-0.83101 z M 41.980738,226 v -4.3665 h 0.577832 v 3.85122 h 2.150488 V 226 Z m 3.540623,-2.12666 q 0,-1.08716 0.583789,-1.70073 0.583789,-0.61656 1.507129,-0.61656 0.604639,0 1.090137,0.28892 0.485498,0.28892 0.738672,0.80718 0.256152,0.51528 0.256152,1.17056 0,0.6642 -0.268066,1.18842 -0.268067,0.52422 -0.759522,0.79527 -0.491455,0.26806 -1.060351,0.26806 -0.616553,0 -1.102051,-0.29785 -0.485498,-0.29785 -0.735694,-0.81313 -0.250195,-0.51529 -0.250195,-1.09014 z m 0.595703,0.009 q 0,0.7893 0.422949,1.24501 0.425928,0.45274 1.066309,0.45274 0.652295,0 1.072266,-0.45869 0.422949,-0.45869 0.422949,-1.30161 0,-0.53316 -0.18169,-0.9293 -0.178711,-0.39912 -0.527197,-0.61655 -0.345508,-0.22041 -0.777392,-0.22041 -0.613575,0 -1.057373,0.42295 -0.440821,0.41997 -0.440821,1.40586 z m 7.740334,0.58676 0.577832,0.14595 q -0.18169,0.71187 -0.655274,1.08716 -0.470605,0.37231 -1.152685,0.37231 -0.705908,0 -1.149707,-0.28593 -0.440821,-0.28892 -0.673145,-0.83399 -0.229345,-0.54507 -0.229345,-1.17056 0,-0.68208 0.25913,-1.18842 0.26211,-0.50933 0.741651,-0.77144 0.482519,-0.26509 1.060351,-0.26509 0.655274,0 1.102051,0.3336 0.446777,0.33359 0.62251,0.93823 l -0.568897,0.13403 q -0.151904,-0.47656 -0.44082,-0.69399 -0.288916,-0.21743 -0.726758,-0.21743 -0.503369,0 -0.84292,0.24126 -0.336572,0.24126 -0.473584,0.64931 -0.137011,0.40508 -0.137011,0.83697 0,0.55698 0.16084,0.97397 0.163818,0.41401 0.506347,0.61953 0.342529,0.20552 0.741651,0.20552 0.485498,0 0.82207,-0.27998 0.336572,-0.27998 0.455713,-0.83101 z M 55.423265,226 v -4.3665 h 0.577832 v 2.16538 l 2.16836,-2.16538 h 0.783349 L 57.121019,223.40273 59.033226,226 h -0.7625 l -1.554785,-2.21006 -0.714844,0.69697 V 226 Z"
     id="text6"
     class="tiny"
     style="font-size:6.1px;font-family:Arial, sans-serif;letter-spacing:0.3px;text-anchor:middle;fill:#d8d8d8"
     aria-label="TRIGGER / CLOCK" />
  <path
     d="m 23.556812,303.87334 q 0,-1.08716 0.583789,-1.70073 0.583789,-0.61656 1.507129,-0.61656 0.604638,0 1.090136,0.28892 0.485498,0.28892 0.738672,0.80718 0.256152,0.51528 0.256152,1.17056 0,0.6642 -0.268066,1.18842 -0.268066,0.52422 -0.759521,0.79527 -0.491455,0.26806 -1.060352,0.26806 -0.616553,0 -1.102051,-0.29785 -0.485498,-0.29785 -0.735693,-0.81313 -0.250195,-0.51529 -0.250195,-1.09014 z m 0.595703,0.009 q 0,0.7893 0.422949,1.24501 0.425928,0.45274 1.066309,0.45274 0.652294,0 1.072265,-0.45869 0.422949,-0.45869 0.422949,-1.30161 0,-0.53316 -0.181689,-0.9293 -0.178711,-0.39912 -0.527197,-0.61655 -0.345508,-0.22041 -0.777393,-0.22041 -0.613574,0 -1.057373,0.42295 -0.44082,0.41997 -0.44082,1.40586 z m 7.490136,-2.24878 h 0.577833 v 2.5228 q 0,0.65825 -0.148926,1.04546 -0.148926,0.3872 -0.539112,0.63144 -0.387207,0.24126 -1.018652,0.24126 -0.613574,0 -1.00376,-0.21147 -0.390185,-0.21148 -0.556982,-0.6106 -0.166797,-0.4021 -0.166797,-1.09609 v -2.5228 h 0.577832 v 2.51982 q 0,0.5689 0.104248,0.83994 0.107227,0.26807 0.363379,0.41402 0.259131,0.14594 0.631445,0.14594 0.637403,0 0.908448,-0.28891 0.271044,-0.28892 0.271044,-1.11099 z M 34.59353,306 v -3.85122 h -1.438623 v -0.51528 h 3.461035 v 0.51528 h -1.44458 V 306 Z"
     id="text7"
     class="tiny"
     style="font-size:6.1px;font-family:Arial, sans-serif;letter-spacing:0.3px;text-anchor:middle;fill:#d8d8d8"
     aria-label="OUT" />
  <circle
     cx="30"
     cy="92"
     r="1.2"
     fill="#747474"
     id="circle7" />
  <circle
     cx="30"
     cy="246"
     r="1.2"
     fill="#747474"
     id="circle8" />
  <circle
     cx="30"
     cy="324"
     r="1.2"
     fill="#747474"
     id="circle9" />
  <circle
     cx="30"
     cy="156"
     r="1.1"
     fill="#7a7a7a"
     id="circle10" />
  <text
     xml:space="preserve"
     style="font-size:10.6667px;font-family:sans-serif;-inkscape-font-specification:sans-serif;text-align:center;text-anchor:middle;fill:#ffffff;stroke-width:2"
     x="6.5706053"
     y="208.4342"
     id="text1"><tspan
       sodipodi:role="line"
       id="tspan1"
       x="6.5706043"
       y="208.4342">TRIGGER</tspan></text>
</svg>
