<?xml version="1.0" encoding="UTF-8" standalone="no"?>
<svg
   width="120"
   height="380"
   viewBox="0 0 120 380"
   version="1.1"
   id="svg19"
   sodipodi:docname="NedKick.svg"
   inkscape:version="1.3.2 (091e20e, 2023-11-25)"
   xmlns:inkscape="http://www.inkscape.org/namespaces/inkscape"
   xmlns:sodipodi="http://sodipodi.sourceforge.net/DTD/sodipodi-0.dtd"
   xmlns="http://www.w3.org/2000/svg"
   xmlns:svg="http://www.w3.org/2000/svg">
  <sodipodi:namedview
     id="namedview1"
     pagecolor="#ffffff"
     bordercolor="#000000"
     borderopacity="0.25"
     inkscape:showpageshadow="2"
     inkscape:pageopacity="0.0"
     inkscape:pagecheckerboard="0"
     inkscape:deskcolor="#d1d1d1"
     inkscape:zoom="2.7394737"
     inkscape:cx="59.865514"
     inkscape:cy="190"
     inkscape:window-width="1392"
     inkscape:window-height="1212"
     inkscape:window-x="484"
     inkscape:window-y="255"
     inkscape:window-maximized="0"
     inkscape:current-layer="svg19" />
  <defs
     id="defs1">
    <style
       id="style1">
      .panel  { fill: #2a2a2a; }
      .title  { font-family: Arial, sans-serif; font-size: 12px; font-weight: bold; fill: #ffffff; text-anchor: middle; }
      .label  { font-family: Arial, sans-serif; font-size: 7.5px; fill: #cfcfcf; text-anchor: middle; }
      .cv     { font-family: Arial, sans-serif; font-size: 6.5px; fill: #888888; text-anchor: middle; }
      .io     { font-family: Arial, sans-serif; font-size: 7.5px; fill: #aaaaaa; text-anchor: middle; }
    </style>
  </defs>
  <!-- Background -->
  <rect
     class="panel"
     x="0"
     y="0"
     width="120"
     height="380"
     id="rect1"
     style="fill:#434343;fill-opacity:1" />
  <rect
     x="0"
     y="0"
     width="120"
     height="2"
     fill="#444"
     id="rect2" />
  <rect
     x="0"
     y="378"
     width="120"
     height="2"
     fill="#444"
     id="rect3" />
  <!-- Title -->
  <path
     d="m 31.889648,20 v -8.589844 h 1.6875 l 3.515625,5.736328 v -5.736328 h 1.611329 V 20 h -1.740235 l -3.46289,-5.601562 V 20 Z m 8.648438,0 v -8.589844 h 6.369141 v 1.453125 h -4.634766 v 1.904297 h 4.3125 v 1.447266 h -4.3125 v 2.33789 h 4.798828 V 20 Z m 7.998047,-8.589844 h 3.169922 q 1.072265,0 1.634765,0.164063 0.75586,0.222656 1.294922,0.791015 0.539063,0.56836 0.820313,1.394532 0.28125,0.820312 0.28125,2.027343 0,1.060547 -0.263672,1.828125 -0.322266,0.9375 -0.919922,1.517578 -0.451172,0.439454 -1.21875,0.685547 Q 52.760742,20 51.799805,20 h -3.263672 z m 1.734375,1.453125 v 5.689453 h 1.294922 q 0.726562,0 1.048828,-0.08203 0.421875,-0.105469 0.697265,-0.357422 0.28125,-0.251953 0.457032,-0.826172 0.175781,-0.580078 0.175781,-1.576171 0,-0.996094 -0.175781,-1.529297 -0.175782,-0.533203 -0.492188,-0.832032 -0.316406,-0.298828 -0.802734,-0.404296 -0.363281,-0.08203 -1.423828,-0.08203 z M 60.56543,20 v -8.589844 h 1.734375 v 3.814453 l 3.503906,-3.814453 h 2.332031 L 64.901367,14.755859 68.311523,20 h -2.24414 l -2.361328,-4.03125 -1.40625,1.435547 V 20 Z m 8.589843,0 v -8.589844 h 1.734375 V 20 Z m 8.882813,-3.158203 1.681641,0.533203 q -0.386719,1.40625 -1.289063,2.091797 -0.896484,0.679687 -2.279297,0.679687 -1.710937,0 -2.8125,-1.166015 -1.101562,-1.171875 -1.101562,-3.199219 0,-2.144531 1.107422,-3.328125 1.107421,-1.189453 2.912109,-1.189453 1.576172,0 2.560547,0.931641 0.585937,0.550781 0.878906,1.582031 L 77.979492,14.1875 q -0.152344,-0.667969 -0.638672,-1.054687 -0.480468,-0.386719 -1.171875,-0.386719 -0.955078,0 -1.552734,0.685547 -0.591797,0.685547 -0.591797,2.220703 0,1.628906 0.585938,2.320312 0.585937,0.691406 1.523437,0.691406 0.691406,0 1.189453,-0.439453 0.498047,-0.439453 0.714844,-1.382812 z M 81.231445,20 v -8.589844 h 1.734375 v 3.814453 l 3.503907,-3.814453 h 2.332031 L 85.567383,14.755859 88.977539,20 H 86.733398 L 84.37207,15.96875 82.96582,17.404297 V 20 Z"
     id="text3"
     class="title"
     style="font-weight:bold;font-size:12px;font-family:Arial, sans-serif;text-anchor:middle;fill:#ff7e79;fill-opacity:1"
     aria-label="NED KICK" />
  <!-- Column headers -->
  <!-- Frequency (knob @ 35,60  cv @ 65,60) -->
  <path
     d="m 25.198364,51 v -5.368652 h 3.621826 v 0.633545 h -2.911377 v 1.662597 h 2.519532 v 0.633545 H 25.908813 V 51 Z m 4.555664,0 v -5.368652 h 2.380371 q 0.717774,0 1.091309,0.146484 0.373535,0.142822 0.596924,0.509033 0.223389,0.366211 0.223389,0.809326 0,0.571289 -0.369874,0.963135 -0.369873,0.391846 -1.142578,0.498047 0.281983,0.135498 0.428467,0.267334 0.311279,0.285645 0.5896,0.714111 L 34.485474,51 H 33.591919 L 32.88147,49.883057 q -0.31128,-0.483399 -0.512696,-0.739746 -0.201416,-0.256348 -0.362548,-0.358887 -0.157471,-0.102539 -0.322266,-0.142822 -0.12085,-0.02564 -0.395508,-0.02564 H 30.464478 V 51 Z m 0.71045,-2.999268 h 1.527099 q 0.487061,0 0.761719,-0.09888 0.274658,-0.102539 0.41748,-0.322265 0.142823,-0.223389 0.142823,-0.483399 0,-0.380859 -0.278321,-0.62622 -0.274658,-0.245362 -0.871582,-0.245362 H 30.464478 Z M 35.17395,51 v -5.368652 h 3.881836 v 0.633545 h -3.171387 v 1.644287 h 2.969971 v 0.629882 h -2.969971 v 1.827393 h 3.295899 V 51 Z m 9.056397,-0.574951 q 0.494384,0.340576 0.911865,0.498047 l -0.20874,0.494384 q -0.578614,-0.20874 -1.153565,-0.659179 -0.596924,0.333252 -1.318359,0.333252 -0.72876,0 -1.322022,-0.351563 -0.593261,-0.351562 -0.915527,-0.988769 -0.318603,-0.637207 -0.318603,-1.435547 0,-0.794678 0.322265,-1.446533 0.322266,-0.651856 0.915527,-0.992432 0.596924,-0.340576 1.333008,-0.340576 0.743408,0 1.340332,0.355224 0.596924,0.351563 0.908203,0.98877 0.314942,0.633545 0.314942,1.431885 0,0.662842 -0.201416,1.193847 -0.201416,0.527344 -0.60791,0.91919 z m -1.563721,-0.908203 q 0.615234,0.172119 1.014404,0.512695 0.626221,-0.571289 0.626221,-1.717529 0,-0.651856 -0.223389,-1.138916 -0.219726,-0.487061 -0.648193,-0.754395 -0.424805,-0.270996 -0.955811,-0.270996 -0.794677,0 -1.318359,0.545654 -0.523682,0.541993 -0.523682,1.622315 0,1.047363 0.516358,1.607666 0.520019,0.560303 1.325683,0.560303 0.38086,0 0.717774,-0.142823 -0.333252,-0.216064 -0.703125,-0.307617 z"
     id="text6"
     class="label"
     style="font-size:7.5px;font-family:Arial, sans-serif;text-anchor:middle;fill:#ff7e79;fill-opacity:1"
     aria-label="FREQ" />
  <path
     d="m 64.306519,49.368652 0.615722,0.155518 q -0.193603,0.758545 -0.698242,1.158447 -0.501465,0.396729 -1.228271,0.396729 -0.752198,0 -1.225098,-0.304688 -0.469727,-0.307861 -0.717285,-0.888672 -0.244385,-0.58081 -0.244385,-1.247314 0,-0.726807 0.276123,-1.266358 0.279297,-0.542724 0.790283,-0.822021 0.51416,-0.282471 1.129883,-0.282471 0.698242,0 1.174316,0.355469 0.476075,0.355469 0.663331,0.999756 l -0.606202,0.142822 q -0.161865,-0.507812 -0.469726,-0.739502 -0.307862,-0.231689 -0.774414,-0.231689 -0.536377,0 -0.898194,0.25708 -0.358642,0.25708 -0.504638,0.691894 -0.145996,0.431641 -0.145996,0.891846 0,0.593506 0.171386,1.037842 0.174561,0.441162 0.539551,0.660156 0.36499,0.218994 0.790283,0.218994 0.517334,0 0.875977,-0.29834 0.358642,-0.298339 0.485596,-0.885498 z M 67.01062,51 65.207886,46.347168 h 0.666504 l 1.209228,3.380127 q 0.145996,0.40625 0.244385,0.761719 0.10791,-0.38086 0.250732,-0.761719 l 1.256836,-3.380127 h 0.628418 L 67.642212,51 Z"
     id="text7"
     class="cv"
     style="font-size:6.5px;font-family:Arial, sans-serif;text-anchor:middle;fill:#ff7e79;fill-opacity:1"
     aria-label="CV" />
  <!-- Sweep Amt (knob @ 35,100  cv @ 65,100) -->
  <path
     d="m 21.792603,89.275146 0.670166,-0.05859 q 0.04761,0.402832 0.219726,0.662842 0.175781,0.256347 0.541992,0.41748 0.366211,0.157471 0.823975,0.157471 0.406494,0 0.717773,-0.12085 0.31128,-0.12085 0.461426,-0.32959 0.153809,-0.212402 0.153809,-0.461426 0,-0.252685 -0.146485,-0.439453 -0.146484,-0.190429 -0.483398,-0.318603 -0.216065,-0.08423 -0.955811,-0.26001 -0.739746,-0.179443 -1.036377,-0.336914 -0.384521,-0.201416 -0.574951,-0.498047 -0.186767,-0.300293 -0.186767,-0.670166 0,-0.406494 0.230713,-0.758057 0.230712,-0.355224 0.673828,-0.53833 0.443115,-0.183105 0.985107,-0.183105 0.596924,0 1.051025,0.194092 0.457764,0.190429 0.703125,0.563965 0.245362,0.373535 0.263672,0.845947 l -0.681152,0.05127 q -0.05493,-0.509033 -0.373535,-0.769043 -0.314942,-0.260009 -0.933838,-0.260009 -0.644531,0 -0.941162,0.238037 -0.292969,0.234375 -0.292969,0.567627 0,0.289306 0.20874,0.476074 0.205078,0.186767 1.069336,0.384521 0.86792,0.194092 1.190186,0.340577 0.46875,0.216064 0.692139,0.549316 0.223388,0.32959 0.223388,0.761719 0,0.428467 -0.245361,0.809326 -0.245361,0.377197 -0.706787,0.589599 -0.457764,0.208741 -1.032715,0.208741 -0.72876,0 -1.223145,-0.212403 -0.490722,-0.212402 -0.772705,-0.637207 -0.27832,-0.428466 -0.292968,-0.966797 z M 27.974243,91 26.549683,85.631348 h 0.728759 l 0.816651,3.519287 q 0.131836,0.552978 0.227051,1.098633 0.205078,-0.860596 0.241699,-0.992432 l 1.021728,-3.625488 h 0.856934 l 0.769043,2.717285 q 0.289306,1.010742 0.41748,1.900635 0.102539,-0.509034 0.267334,-1.168213 l 0.842285,-3.449707 h 0.714112 L 31.980591,91 h -0.684815 l -1.131591,-4.090576 q -0.142823,-0.512695 -0.168457,-0.629883 -0.08423,0.369873 -0.157471,0.629883 L 28.699341,91 Z m 6.156006,0 v -5.368652 h 3.881836 v 0.633545 h -3.171387 v 1.644287 h 2.969971 v 0.629882 h -2.969971 v 1.827393 h 3.295899 V 91 Z m 5.002441,0 v -5.368652 h 3.881836 v 0.633545 H 39.84314 v 1.644287 h 2.96997 v 0.629882 h -2.96997 v 1.827393 h 3.295898 V 91 Z m 4.987793,0 v -5.368652 h 2.025147 q 0.534668,0 0.81665,0.05127 0.395508,0.06592 0.662842,0.252686 0.267334,0.183105 0.428467,0.516357 0.164795,0.333252 0.164795,0.732422 0,0.684814 -0.435791,1.160889 -0.435791,0.472412 -1.574707,0.472412 H 44.830933 V 91 Z m 0.71045,-2.816162 h 1.387939 q 0.688477,0 0.977783,-0.256348 0.289307,-0.256347 0.289307,-0.721435 0,-0.336914 -0.172119,-0.574951 -0.168457,-0.2417 -0.446778,-0.318604 -0.179443,-0.04761 -0.662841,-0.04761 h -1.373291 z"
     id="text8"
     class="label"
     style="font-size:7.5px;font-family:Arial, sans-serif;text-anchor:middle;fill:#ff7e79;fill-opacity:1"
     aria-label="SWEEP" />
  <path
     d="m 64.306519,89.368652 0.615722,0.155518 q -0.193603,0.758545 -0.698242,1.158447 -0.501465,0.396729 -1.228271,0.396729 -0.752198,0 -1.225098,-0.304688 -0.469727,-0.307861 -0.717285,-0.888672 -0.244385,-0.58081 -0.244385,-1.247314 0,-0.726807 0.276123,-1.266358 0.279297,-0.542724 0.790283,-0.822021 0.51416,-0.282471 1.129883,-0.282471 0.698242,0 1.174316,0.355469 0.476075,0.355469 0.663331,0.999756 l -0.606202,0.142822 q -0.161865,-0.507812 -0.469726,-0.739502 -0.307862,-0.231689 -0.774414,-0.231689 -0.536377,0 -0.898194,0.25708 -0.358642,0.25708 -0.504638,0.691894 -0.145996,0.431641 -0.145996,0.891846 0,0.593506 0.171386,1.037842 0.174561,0.441162 0.539551,0.660156 0.36499,0.218994 0.790283,0.218994 0.517334,0 0.875977,-0.29834 0.358642,-0.298339 0.485596,-0.885498 z M 67.01062,91 65.207886,86.347168 h 0.666504 l 1.209228,3.380127 q 0.145996,0.40625 0.244385,0.761719 0.10791,-0.38086 0.250732,-0.761719 l 1.256836,-3.380127 h 0.628418 L 67.642212,91 Z"
     id="text9"
     class="cv"
     style="font-size:6.5px;font-family:Arial, sans-serif;text-anchor:middle;fill:#ff7e79;fill-opacity:1"
     aria-label="CV" />
  <!-- Filter (knob @ 35,140  cv @ 65,140) -->
  <path
     d="m 22.975464,131 v -5.36865 h 3.621826 v 0.63354 h -2.911377 v 1.6626 h 2.519531 v 0.63355 H 23.685913 V 131 Z m 4.665527,0 v -5.36865 H 28.35144 V 131 Z m 1.933594,0 v -5.36865 h 0.710449 v 4.73511 h 2.644043 V 131 Z m 5.009766,0 v -4.73511 h -1.768799 v -0.63354 h 4.255371 v 0.63354 H 35.2948 V 131 Z m 3.22998,0 v -5.36865 h 3.881836 v 0.63354 H 38.52478 v 1.64429 h 2.969971 v 0.62988 H 38.52478 v 1.8274 h 3.295899 V 131 Z m 4.998779,0 v -5.36865 h 2.380371 q 0.717774,0 1.091309,0.14648 0.373535,0.14282 0.596924,0.50904 0.223389,0.36621 0.223389,0.80932 0,0.57129 -0.369874,0.96314 -0.369873,0.39184 -1.142578,0.49804 0.281983,0.1355 0.428467,0.26734 0.311279,0.28564 0.5896,0.71411 L 47.544556,131 h -0.893555 l -0.710449,-1.11694 q -0.31128,-0.4834 -0.512696,-0.73975 -0.201416,-0.25635 -0.362548,-0.35889 -0.157471,-0.10254 -0.322266,-0.14282 -0.12085,-0.0256 -0.395508,-0.0256 H 43.52356 V 131 Z m 0.71045,-2.99927 h 1.527099 q 0.487061,0 0.761719,-0.0989 0.274658,-0.10254 0.41748,-0.32227 0.142823,-0.22339 0.142823,-0.4834 0,-0.38086 -0.278321,-0.62622 -0.274658,-0.24536 -0.871582,-0.24536 H 43.52356 Z"
     id="text10"
     class="label"
     style="font-size:7.5px;font-family:Arial, sans-serif;text-anchor:middle;fill:#ff7e79;fill-opacity:1"
     aria-label="FILTER" />
  <path
     d="m 64.306519,129.36865 0.615722,0.15552 q -0.193603,0.75854 -0.698242,1.15845 -0.501465,0.39673 -1.228271,0.39673 -0.752198,0 -1.225098,-0.30469 -0.469727,-0.30786 -0.717285,-0.88867 -0.244385,-0.58081 -0.244385,-1.24732 0,-0.7268 0.276123,-1.26636 0.279297,-0.54272 0.790283,-0.82202 0.51416,-0.28247 1.129883,-0.28247 0.698242,0 1.174316,0.35547 0.476075,0.35547 0.663331,0.99976 l -0.606202,0.14282 q -0.161865,-0.50781 -0.469726,-0.7395 -0.307862,-0.23169 -0.774414,-0.23169 -0.536377,0 -0.898194,0.25708 -0.358642,0.25708 -0.504638,0.69189 -0.145996,0.43164 -0.145996,0.89185 0,0.5935 0.171386,1.03784 0.174561,0.44116 0.539551,0.66016 0.36499,0.21899 0.790283,0.21899 0.517334,0 0.875977,-0.29834 0.358642,-0.29834 0.485596,-0.8855 z M 67.01062,131 65.207886,126.34717 h 0.666504 l 1.209228,3.38012 q 0.145996,0.40625 0.244385,0.76172 0.10791,-0.38086 0.250732,-0.76172 l 1.256836,-3.38012 h 0.628418 L 67.642212,131 Z"
     id="text11"
     class="cv"
     style="font-size:6.5px;font-family:Arial, sans-serif;text-anchor:middle;fill:#ff7e79;fill-opacity:1"
     aria-label="CV" />
  <!-- Drive (knob @ 35,180  cv @ 65,180) -->
  <path
     d="m 24.118042,171 v -5.36865 h 1.849365 q 0.626221,0 0.955811,0.0769 0.461426,0.1062 0.787353,0.38452 0.424805,0.35889 0.633545,0.91919 0.212403,0.55664 0.212403,1.27442 0,0.61157 -0.142823,1.08398 -0.142822,0.47241 -0.366211,0.78369 -0.223388,0.30762 -0.490722,0.48706 -0.263672,0.17578 -0.640869,0.26734 Q 26.542358,171 26.055298,171 Z m 0.710449,-0.63354 h 1.14624 q 0.531006,0 0.831299,-0.0989 0.303955,-0.0989 0.483399,-0.27832 0.252685,-0.25269 0.391845,-0.67749 0.142823,-0.42847 0.142823,-1.03638 0,-0.84228 -0.278321,-1.29272 -0.274658,-0.45411 -0.670166,-0.60791 -0.285644,-0.10987 -0.919189,-0.10987 h -1.12793 z M 29.545288,171 v -5.36865 h 2.380371 q 0.717774,0 1.091309,0.14648 0.373535,0.14282 0.596924,0.50904 0.223388,0.36621 0.223388,0.80932 0,0.57129 -0.369873,0.96314 -0.369873,0.39184 -1.142578,0.49804 0.281983,0.1355 0.428467,0.26734 0.311279,0.28564 0.5896,0.71411 L 34.276733,171 h -0.893554 l -0.71045,-1.11694 q -0.311279,-0.4834 -0.512695,-0.73975 -0.201416,-0.25635 -0.362549,-0.35889 -0.15747,-0.10254 -0.322265,-0.14282 -0.12085,-0.0256 -0.395508,-0.0256 H 30.255737 V 171 Z m 0.710449,-2.99927 h 1.5271 q 0.48706,0 0.761719,-0.0989 0.274658,-0.10254 0.41748,-0.32227 0.142822,-0.22339 0.142822,-0.4834 0,-0.38086 -0.27832,-0.62622 -0.274658,-0.24536 -0.871582,-0.24536 H 30.255737 Z M 35.071411,171 v -5.36865 H 35.78186 V 171 Z m 3.497315,0 -2.080079,-5.36865 h 0.769043 l 1.395264,3.90014 q 0.168457,0.46875 0.281983,0.87891 0.124511,-0.43945 0.289306,-0.87891 l 1.450195,-3.90014 h 0.725098 L 39.297485,171 Z m 3.482666,0 v -5.36865 h 3.881836 v 0.63354 h -3.171387 v 1.64429 h 2.969971 v 0.62988 h -2.969971 v 1.8274 h 3.295898 V 171 Z"
     id="text12"
     class="label"
     style="font-size:7.5px;font-family:Arial, sans-serif;text-anchor:middle;fill:#ff7e79;fill-opacity:1"
     aria-label="DRIVE" />
  <path
     d="m 64.306519,169.36865 0.615722,0.15552 q -0.193603,0.75854 -0.698242,1.15845 -0.501465,0.39673 -1.228271,0.39673 -0.752198,0 -1.225098,-0.30469 -0.469727,-0.30786 -0.717285,-0.88867 -0.244385,-0.58081 -0.244385,-1.24732 0,-0.7268 0.276123,-1.26636 0.279297,-0.54272 0.790283,-0.82202 0.51416,-0.28247 1.129883,-0.28247 0.698242,0 1.174316,0.35547 0.476075,0.35547 0.663331,0.99976 l -0.606202,0.14282 q -0.161865,-0.50781 -0.469726,-0.7395 -0.307862,-0.23169 -0.774414,-0.23169 -0.536377,0 -0.898194,0.25708 -0.358642,0.25708 -0.504638,0.69189 -0.145996,0.43164 -0.145996,0.89185 0,0.5935 0.171386,1.03784 0.174561,0.44116 0.539551,0.66016 0.36499,0.21899 0.790283,0.21899 0.517334,0 0.875977,-0.29834 0.358642,-0.29834 0.485596,-0.8855 z M 67.01062,171 65.207886,166.34717 h 0.666504 l 1.209228,3.38012 q 0.145996,0.40625 0.244385,0.76172 0.10791,-0.38086 0.250732,-0.76172 l 1.256836,-3.38012 h 0.628418 L 67.642212,171 Z"
     id="text13"
     class="cv"
     style="font-size:6.5px;font-family:Arial, sans-serif;text-anchor:middle;fill:#ff7e79;fill-opacity:1"
     aria-label="CV" />
  <!-- Sweep Decay (knob @ 35,220  cv @ 65,220) -->
  <path
     d="m 20.336914,209.27515 0.670166,-0.0586 q 0.04761,0.40283 0.219727,0.66284 0.175781,0.25635 0.541992,0.41748 0.366211,0.15748 0.823974,0.15748 0.406495,0 0.717774,-0.12085 0.311279,-0.12085 0.461426,-0.32959 0.153808,-0.21241 0.153808,-0.46143 0,-0.25269 -0.146484,-0.43945 -0.146485,-0.19043 -0.483399,-0.31861 -0.216064,-0.0842 -0.95581,-0.26001 -0.739746,-0.17944 -1.036377,-0.33691 -0.384522,-0.20142 -0.574951,-0.49805 -0.186768,-0.30029 -0.186768,-0.67016 0,-0.4065 0.230713,-0.75806 0.230713,-0.35522 0.673828,-0.53833 0.443115,-0.18311 0.985108,-0.18311 0.596923,0 1.051025,0.1941 0.457764,0.19043 0.703125,0.56396 0.245361,0.37354 0.263672,0.84595 l -0.681152,0.0513 q -0.05493,-0.50903 -0.373536,-0.76904 -0.314941,-0.26001 -0.933838,-0.26001 -0.644531,0 -0.941162,0.23803 -0.292968,0.23438 -0.292968,0.56763 0,0.28931 0.20874,0.47607 0.205078,0.18677 1.069336,0.38453 0.86792,0.19409 1.190185,0.34057 0.46875,0.21607 0.692139,0.54932 0.223389,0.32959 0.223389,0.76172 0,0.42846 -0.245362,0.80932 -0.245361,0.3772 -0.706787,0.5896 -0.457763,0.20874 -1.032715,0.20874 -0.728759,0 -1.223144,-0.2124 -0.490723,-0.2124 -0.772705,-0.63721 -0.278321,-0.42846 -0.292969,-0.96679 z M 26.518555,211 25.093994,205.63135 h 0.72876 l 0.81665,3.51928 q 0.131836,0.55298 0.227051,1.09864 0.205078,-0.8606 0.241699,-0.99243 l 1.021729,-3.62549 h 0.856933 l 0.769043,2.71728 q 0.289307,1.01074 0.417481,1.90064 0.102539,-0.50904 0.267334,-1.16822 l 0.842285,-3.4497 H 31.99707 L 30.524902,211 h -0.684814 l -1.131592,-4.09058 q -0.142822,-0.51269 -0.168457,-0.62988 -0.08423,0.36987 -0.157471,0.62988 L 27.243652,211 Z m 8.225097,0 v -5.36865 h 1.849366 q 0.62622,0 0.95581,0.0769 0.461426,0.1062 0.787354,0.38452 0.424804,0.35889 0.633545,0.91919 0.212402,0.55664 0.212402,1.27442 0,0.61157 -0.142822,1.08398 -0.142823,0.47241 -0.366211,0.78369 -0.223389,0.30762 -0.490723,0.48706 -0.263672,0.17578 -0.640869,0.26734 Q 37.167969,211 36.680908,211 Z m 0.71045,-0.63354 h 1.14624 q 0.531006,0 0.831299,-0.0989 0.303955,-0.0989 0.483398,-0.27832 0.252686,-0.25269 0.391846,-0.67749 0.142822,-0.42847 0.142822,-1.03638 0,-0.84228 -0.27832,-1.29272 -0.274658,-0.45411 -0.670166,-0.60791 -0.285645,-0.10987 -0.91919,-0.10987 H 35.454102 Z M 40.174561,211 v -5.36865 h 3.881835 v 0.63354 H 40.88501 v 1.64429 h 2.96997 v 0.62988 h -2.96997 v 1.8274 h 3.295898 V 211 Z m 8.818359,-1.88232 0.710449,0.17944 q -0.223389,0.87524 -0.805664,1.33667 -0.578613,0.45776 -1.417236,0.45776 -0.86792,0 -1.413574,-0.35156 -0.541993,-0.35522 -0.827637,-1.02539 -0.281983,-0.67017 -0.281983,-1.43921 0,-0.83862 0.318604,-1.46118 0.322266,-0.62622 0.911865,-0.94849 0.593262,-0.32593 1.303711,-0.32593 0.805664,0 1.354981,0.41016 0.549316,0.41016 0.76538,1.15357 l -0.699462,0.16479 q -0.186768,-0.58594 -0.541993,-0.85327 -0.355224,-0.26733 -0.893554,-0.26733 -0.618897,0 -1.036377,0.29663 -0.413819,0.29663 -0.582276,0.79834 -0.168457,0.49804 -0.168457,1.02905 0,0.68481 0.197754,1.19751 0.201416,0.50903 0.622559,0.76172 0.421142,0.25268 0.911865,0.25268 0.596924,0 1.010742,-0.34424 0.413819,-0.34423 0.560303,-1.02172 z"
     id="text14"
     class="label"
     style="font-size:7.5px;font-family:Arial, sans-serif;text-anchor:middle;fill:#ff7e79;fill-opacity:1"
     aria-label="SW DEC" />
  <path
     d="m 64.306519,209.36865 0.615722,0.15552 q -0.193603,0.75854 -0.698242,1.15845 -0.501465,0.39673 -1.228271,0.39673 -0.752198,0 -1.225098,-0.30469 -0.469727,-0.30786 -0.717285,-0.88867 -0.244385,-0.58081 -0.244385,-1.24732 0,-0.7268 0.276123,-1.26636 0.279297,-0.54272 0.790283,-0.82202 0.51416,-0.28247 1.129883,-0.28247 0.698242,0 1.174316,0.35547 0.476075,0.35547 0.663331,0.99976 l -0.606202,0.14282 q -0.161865,-0.50781 -0.469726,-0.7395 -0.307862,-0.23169 -0.774414,-0.23169 -0.536377,0 -0.898194,0.25708 -0.358642,0.25708 -0.504638,0.69189 -0.145996,0.43164 -0.145996,0.89185 0,0.5935 0.171386,1.03784 0.174561,0.44116 0.539551,0.66016 0.36499,0.21899 0.790283,0.21899 0.517334,0 0.875977,-0.29834 0.358642,-0.29834 0.485596,-0.8855 z M 67.01062,211 65.207886,206.34717 h 0.666504 l 1.209228,3.38012 q 0.145996,0.40625 0.244385,0.76172 0.10791,-0.38086 0.250732,-0.76172 l 1.256836,-3.38012 h 0.628418 L 67.642212,211 Z"
     id="text15"
     class="cv"
     style="font-size:6.5px;font-family:Arial, sans-serif;text-anchor:middle;fill:#ff7e79;fill-opacity:1"
     aria-label="CV" />
  <!-- Decay (knob @ 35,260  cv @ 65,260) -->
  <path
     d="m 22.937012,251 v -5.36865 h 1.849365 q 0.626221,0 0.95581,0.0769 0.461426,0.1062 0.787354,0.38452 0.424805,0.35889 0.633545,0.91919 0.212402,0.55664 0.212402,1.27442 0,0.61157 -0.142822,1.08398 -0.142822,0.47241 -0.366211,0.78369 -0.223389,0.30762 -0.490723,0.48706 -0.263671,0.17578 -0.640869,0.26734 Q 25.361328,251 24.874268,251 Z m 0.710449,-0.63354 h 1.14624 q 0.531006,0 0.831299,-0.0989 0.303955,-0.0989 0.483398,-0.27832 0.252686,-0.25269 0.391846,-0.67749 0.142822,-0.42847 0.142822,-1.03638 0,-0.84228 -0.27832,-1.29272 -0.274658,-0.45411 -0.670166,-0.60791 -0.285644,-0.10987 -0.919189,-0.10987 h -1.12793 z M 28.36792,251 v -5.36865 h 3.881836 v 0.63354 h -3.171387 v 1.64429 h 2.969971 v 0.62988 h -2.969971 v 1.8274 h 3.295899 V 251 Z m 8.818359,-1.88232 0.71045,0.17944 q -0.223389,0.87524 -0.805665,1.33667 -0.578613,0.45776 -1.417236,0.45776 -0.86792,0 -1.413574,-0.35156 -0.541992,-0.35522 -0.827637,-1.02539 -0.281982,-0.67017 -0.281982,-1.43921 0,-0.83862 0.318603,-1.46118 0.322266,-0.62622 0.911866,-0.94849 0.593261,-0.32593 1.30371,-0.32593 0.805665,0 1.354981,0.41016 0.549316,0.41016 0.765381,1.15357 l -0.699463,0.16479 q -0.186768,-0.58594 -0.541992,-0.85327 -0.355225,-0.26733 -0.893555,-0.26733 -0.618896,0 -1.036377,0.29663 -0.413818,0.29663 -0.582275,0.79834 -0.168457,0.49804 -0.168457,1.02905 0,0.68481 0.197754,1.19751 0.201416,0.50903 0.622558,0.76172 0.421143,0.25268 0.911865,0.25268 0.596924,0 1.010743,-0.34424 0.413818,-0.34423 0.560302,-1.02172 z M 38.182373,251 l 2.061768,-5.36865 h 0.76538 L 43.206787,251 H 42.397461 L 41.77124,249.37402 H 39.526367 L 38.936768,251 Z m 1.549072,-2.20459 h 1.820069 l -0.560303,-1.48682 q -0.256348,-0.67749 -0.380859,-1.11328 -0.10254,0.51636 -0.289307,1.02539 z M 44.730225,251 v -2.27417 l -2.069092,-3.09448 h 0.864258 L 44.58374,247.25 q 0.292969,0.4541 0.545655,0.9082 0.241699,-0.42114 0.585937,-0.94848 l 1.040039,-1.57837 h 0.827637 l -2.142334,3.09448 V 251 Z"
     id="text16"
     class="label"
     style="font-size:7.5px;font-family:Arial, sans-serif;text-anchor:middle;fill:#ff7e79;fill-opacity:1"
     aria-label="DECAY" />
  <path
     d="m 64.306519,249.36865 0.615722,0.15552 q -0.193603,0.75854 -0.698242,1.15845 -0.501465,0.39673 -1.228271,0.39673 -0.752198,0 -1.225098,-0.30469 -0.469727,-0.30786 -0.717285,-0.88867 -0.244385,-0.58081 -0.244385,-1.24732 0,-0.7268 0.276123,-1.26636 0.279297,-0.54272 0.790283,-0.82202 0.51416,-0.28247 1.129883,-0.28247 0.698242,0 1.174316,0.35547 0.476075,0.35547 0.663331,0.99976 l -0.606202,0.14282 q -0.161865,-0.50781 -0.469726,-0.7395 -0.307862,-0.23169 -0.774414,-0.23169 -0.536377,0 -0.898194,0.25708 -0.358642,0.25708 -0.504638,0.69189 -0.145996,0.43164 -0.145996,0.89185 0,0.5935 0.171386,1.03784 0.174561,0.44116 0.539551,0.66016 0.36499,0.21899 0.790283,0.21899 0.517334,0 0.875977,-0.29834 0.358642,-0.29834 0.485596,-0.8855 z M 67.01062,251 65.207886,246.34717 h 0.666504 l 1.209228,3.38012 q 0.145996,0.40625 0.244385,0.76172 0.10791,-0.38086 0.250732,-0.76172 l 1.256836,-3.38012 h 0.628418 L 67.642212,251 Z"
     id="text17"
     class="cv"
     style="font-size:6.5px;font-family:Arial, sans-serif;text-anchor:middle;fill:#ff7e79;fill-opacity:1"
     aria-label="CV" />
  <!-- Divider above I/O -->
  <line
     x1="10"
     y1="282"
     x2="110"
     y2="282"
     stroke="#444"
     stroke-width="0.5"
     id="line17" />
  <!-- Trigger input (port @ 25,300) -->
  <path
     d="m 17.987061,295 v -4.73511 h -1.768799 v -0.63354 h 4.255371 v 0.63354 H 18.69751 V 295 Z m 3.226318,0 v -5.36865 h 2.380371 q 0.717773,0 1.091309,0.14648 0.373535,0.14282 0.596923,0.50904 0.223389,0.36621 0.223389,0.80932 0,0.57129 -0.369873,0.96314 -0.369873,0.39184 -1.142578,0.49804 0.281982,0.1355 0.428467,0.26734 0.311279,0.28564 0.589599,0.71411 L 25.944824,295 H 25.05127 l -0.71045,-1.11694 q -0.311279,-0.4834 -0.512695,-0.73975 -0.201416,-0.25635 -0.362549,-0.35889 -0.157471,-0.10254 -0.322265,-0.14282 -0.12085,-0.0256 -0.395508,-0.0256 H 21.923828 V 295 Z m 0.710449,-2.99927 h 1.5271 q 0.48706,0 0.761718,-0.0989 0.274659,-0.10254 0.417481,-0.32227 0.142822,-0.22339 0.142822,-0.4834 0,-0.38086 -0.27832,-0.62622 -0.274658,-0.24536 -0.871582,-0.24536 H 21.923828 Z M 26.739502,295 v -5.36865 h 0.710449 V 295 Z m 4.475098,-2.10571 v -0.62989 l 2.27417,-0.004 v 1.99219 q -0.523682,0.41748 -1.080323,0.62988 -0.55664,0.20874 -1.142578,0.20874 -0.791015,0 -1.439209,-0.33691 -0.644531,-0.34058 -0.974121,-0.98145 -0.32959,-0.64087 -0.32959,-1.43188 0,-0.78369 0.325928,-1.46118 0.32959,-0.68116 0.944824,-1.01075 0.615235,-0.32959 1.417236,-0.32959 0.582276,0 1.051026,0.19043 0.472412,0.18677 0.739746,0.52369 0.267334,0.33691 0.406494,0.8789 l -0.640869,0.17578 q -0.12085,-0.41015 -0.300293,-0.64453 -0.179443,-0.23437 -0.512695,-0.37353 -0.333252,-0.14282 -0.739746,-0.14282 -0.487061,0 -0.842286,0.15014 -0.355224,0.14649 -0.574951,0.38819 -0.216064,0.24169 -0.336914,0.531 -0.205078,0.49805 -0.205078,1.08032 0,0.71778 0.245361,1.20118 0.249024,0.48339 0.721436,0.71777 0.472412,0.23437 1.003418,0.23437 0.461426,0 0.900879,-0.17578 0.439453,-0.17944 0.666504,-0.38086 v -0.99975 z"
     id="text18"
     class="io"
     style="font-size:7.5px;font-family:Arial, sans-serif;text-anchor:middle;fill:#ff7e79;fill-opacity:1"
     aria-label="TRIG" />
  <!-- Audio output (port @ 95,300) -->
  <path
     d="m 87.446899,292.38525 q 0,-1.33667 0.717774,-2.09106 0.717773,-0.75806 1.853027,-0.75806 0.743408,0 1.340332,0.35523 0.596924,0.35522 0.908203,0.99243 0.314942,0.63354 0.314942,1.43921 0,0.81665 -0.32959,1.46118 -0.32959,0.64453 -0.933838,0.97778 -0.604248,0.32959 -1.303711,0.32959 -0.758057,0 -1.35498,-0.36621 -0.596924,-0.36621 -0.904541,-0.99975 -0.307618,-0.63355 -0.307618,-1.34034 z m 0.732422,0.011 q 0,0.97046 0.52002,1.53076 0.523681,0.55664 1.311035,0.55664 0.802002,0 1.318359,-0.56396 0.52002,-0.56397 0.52002,-1.60034 0,-0.65552 -0.223389,-1.14258 -0.219726,-0.49072 -0.648193,-0.75806 -0.424805,-0.27099 -0.955811,-0.27099 -0.754394,0 -1.300049,0.52001 -0.541992,0.51636 -0.541992,1.72852 z m 8.840332,-2.76489 h 0.71045 v 3.1018 q 0,0.80933 -0.183106,1.2854 -0.183105,0.47608 -0.662842,0.77637 -0.476074,0.29663 -1.252441,0.29663 -0.754395,0 -1.234131,-0.26001 -0.479736,-0.26001 -0.684814,-0.75073 -0.205079,-0.49438 -0.205079,-1.34766 v -3.1018 h 0.71045 v 3.09814 q 0,0.69947 0.128173,1.03272 0.131836,0.32959 0.446778,0.50903 0.318603,0.17944 0.776367,0.17944 0.783691,0 1.116943,-0.35522 0.333252,-0.35523 0.333252,-1.36597 z M 100.27893,295 v -4.73511 h -1.768798 v -0.63354 h 4.255368 v 0.63354 h -1.77612 V 295 Z"
     id="text19"
     class="io"
     style="font-size:7.5px;font-family:Arial, sans-serif;text-anchor:middle;fill:#ff7e79;fill-opacity:1"
     aria-label="OUT" />
  <g
     transform="matrix(1.6722989,0,0,1.6988345,35.611855,-75.62204)"
     id="layer1-7"
     inkscape:label="Layer 1">
    <rect
       y="256.12662"
       x="29.52006"
       height="1.6536458"
       width="7.2760415"
       id="rect823"
       style="fill:#ffffff;fill-opacity:1;stroke:none;stroke-width:0.710598;stroke-miterlimit:4;stroke-dasharray:none;stroke-opacity:1" />
    <rect
       y="256.57309"
       x="28.643627"
       height="0.51248246"
       width="9.0803432"
       id="rect821"
       style="fill:#ffffff;fill-opacity:1;stroke:none;stroke-width:0.176948;stroke-miterlimit:4;stroke-dasharray:none;stroke-opacity:1" />
    <ellipse
       ry="5.8699069"
       rx="6.1973119"
       cy="250.78661"
       cx="33.068214"
       id="path817"
       style="fill:#ffffff;fill-opacity:1;stroke:none;stroke-width:0.294763;stroke-miterlimit:4;stroke-dasharray:none;stroke-opacity:1" />
    <rect
       y="257.08557"
       x="28.265131"
       height="4.3030396"
       width="9.541522"
       id="rect819"
       style="fill:#ffffff;fill-opacity:1;stroke:none;stroke-width:0.236954;stroke-miterlimit:4;stroke-dasharray:none;stroke-opacity:1" />
    <path
       style="fill:#54b6fc;stroke-width:0.434238"
       d="m 28.040353,261.67777 c -0.05624,-0.1049 -0.09132,-1.05343 -0.09132,-2.46939 0,-2.62823 -0.06483,-2.41007 0.868669,-2.92327 0.298327,-0.16393 0.542417,-0.32331 0.542417,-0.35402 0,-0.0309 -0.162318,-0.16826 -0.360716,-0.30583 -1.028016,-0.71241 -2.013971,-2.17766 -2.338877,-3.47584 -0.201325,-0.80442 -0.134174,-2.39054 0.13451,-3.17721 1.033244,-3.02511 4.386038,-4.85502 7.661927,-4.18175 2.136444,0.4391 3.832748,1.7715 4.690824,3.6846 0.361925,0.8069 0.484002,1.41362 0.481552,2.39329 -0.0043,1.76252 -0.804317,3.40089 -2.221636,4.55038 -0.254647,0.20641 -0.463011,0.4065 -0.463011,0.44439 0,0.038 0.188503,0.17638 0.418915,0.30774 0.88078,0.5022 0.815782,0.26078 0.815782,3.02947 0,1.77735 -0.02862,2.465 -0.105831,2.54221 -0.07977,0.0796 -1.316324,0.10568 -5.023888,0.10568 -4.772077,0 -4.920765,-0.006 -5.009351,-0.17069 z m 4.778272,-1.34136 c 0.02029,-0.72066 0.0537,-0.91258 0.172084,-0.98706 0.106484,-0.067 0.185415,-0.0605 0.286623,0.0243 0.110188,0.0915 0.139673,0.2998 0.139673,0.98705 v 0.87111 h 2.031202 c 1.725502,0 2.038854,-0.0189 2.082046,-0.13248 0.118689,-0.30933 -0.0843,-0.54865 -1.048716,-1.23644 -0.806681,-0.57531 -0.992,-0.74828 -0.992,-0.92603 0,-0.17285 0.05069,-0.22425 0.242529,-0.24644 l 0.242526,-0.0279 v -0.72694 c 0,-0.82266 0.11329,-1.0851 0.425635,-0.98597 0.182308,0.0579 0.191777,0.11143 0.193075,1.09112 6.9e-4,0.56673 0.03051,1.07216 0.06615,1.12322 0.107317,0.15365 0.691445,0.5686 0.80071,0.5686 0.07253,0 0.101903,-0.37768 0.101903,-1.30922 0,-1.48548 0.04525,-1.38286 -0.823095,-1.86798 l -0.514419,-0.28745 -0.896236,0.29918 c -0.869904,0.29041 -0.937695,0.2992 -2.307746,0.29891 -1.355532,-2.1e-4 -1.441911,-0.0113 -2.177833,-0.27426 l -0.766317,-0.27401 -0.710913,0.40097 -0.710915,0.40096 v 1.35053 c 0,0.7428 0.02272,1.35058 0.05046,1.35058 0.02775,0 0.226187,-0.10309 0.440962,-0.22887 l 0.390524,-0.22887 0.0014,-0.89557 c 0.0016,-1.14751 0.206306,-1.60144 0.561721,-1.24599 0.108544,0.1085 0.142513,0.31853 0.142513,0.88028 v 0.7378 l 0.290718,-0.0471 c 0.315025,-0.0511 0.543194,0.11558 0.458905,0.33517 -0.02597,0.0676 -0.562393,0.43193 -1.192126,0.80964 -1.113533,0.66789 -1.144968,0.69508 -1.144968,0.9907 v 0.30396 h 2.069441 2.069444 z m 2.265337,-4.35748 c 1.820054,-0.60937 3.301106,-2.14018 3.754405,-3.88051 0.141672,-0.5439 0.182494,-2.03256 0.06101,-2.22398 -0.0547,-0.0862 -0.514454,-0.10647 -1.993182,-0.0881 l -1.922097,0.0243 -0.285943,0.79373 c -0.250451,0.69526 -0.311823,0.79372 -0.494567,0.79372 -0.193669,0 -0.219614,-0.0593 -0.361764,-0.82692 -0.233437,-1.26061 -0.264438,-1.24093 -0.550459,0.34982 -0.250913,1.39568 -0.282965,1.49134 -0.499452,1.49134 -0.208819,0 -0.19843,0.0455 -0.591264,-2.59459 -0.179846,-1.20877 -0.366691,-2.21079 -0.415197,-2.22673 -0.04851,-0.0164 -0.346157,0.47702 -0.661443,1.09535 l -0.573255,1.12428 -1.649981,0.0244 -1.649981,0.0243 -0.05961,0.3176 c -0.100912,0.53789 0.02055,1.63287 0.25608,2.31038 0.480987,1.38307 1.462121,2.47313 2.838905,3.15409 1.070426,0.52942 1.68831,0.6568 2.998555,0.61816 0.870867,-0.027 1.189545,-0.0752 1.799239,-0.27931 z m -2.582339,-0.34598 c -0.501349,-0.14204 -0.612279,-0.23104 -0.568647,-0.45582 0.02803,-0.14447 0.130451,-0.16555 0.868148,-0.17909 0.460004,-0.008 0.975273,-0.0281 1.145044,-0.0441 0.276178,-0.0243 0.311494,-0.006 0.335474,0.20237 0.023,0.19722 -0.02543,0.25187 -0.329357,0.37355 -0.522805,0.20913 -0.965587,0.24078 -1.450662,0.1031 z m -1.6422,-2.07469 c -0.09701,-0.0972 -0.176384,-0.25567 -0.176384,-0.35282 0,-0.24453 0.308426,-0.52913 0.573253,-0.52913 0.264818,0 0.573252,0.28468 0.573252,0.52913 0,0.24455 -0.308429,0.52918 -0.573252,0.52918 -0.121275,0 -0.299857,-0.0793 -0.396869,-0.17636 z m 3.439517,-0.0882 c -0.232761,-0.23267 -0.222508,-0.40285 0.0401,-0.66546 0.243582,-0.24345 0.329798,-0.25996 0.605107,-0.11502 0.242042,0.12748 0.321863,0.24591 0.323575,0.48022 0.0031,0.43406 -0.63668,0.63239 -0.968767,0.30029 z m -1.151475,-4.27736 c 0.296559,-1.78581 0.575578,-1.83207 0.874871,-0.14501 0.09772,0.55084 0.197295,1.02113 0.221263,1.04511 0.08271,0.0828 0.212362,-0.0613 0.273139,-0.30344 0.117052,-0.46642 0.107419,-0.46436 2.176972,-0.46436 2.188984,0 2.146871,0.0162 1.845872,-0.66529 -0.655344,-1.4815 -2.160669,-2.71162 -3.887876,-3.17706 -0.773684,-0.20858 -2.314597,-0.21425 -3.086746,-0.0113 -1.862761,0.48917 -3.433992,1.84034 -4.06194,3.49292 l -0.172218,0.45328 1.47768,-0.0243 1.477684,-0.0244 0.705541,-1.38465 c 0.388047,-0.76156 0.755433,-1.43456 0.816413,-1.4955 0.244962,-0.24482 0.364055,0.12518 0.643002,1.99713 0.151683,1.01798 0.296644,1.88465 0.322123,1.92588 0.102882,0.16637 0.192723,-0.12627 0.374219,-1.21922 z"
       id="path4012-8"
       inkscape:connector-curvature="0" />
    <path
       style="fill:#a0a0a0;stroke-width:0.434238"
       d="m 28.040353,261.67777 c -0.05624,-0.1049 -0.09132,-1.05343 -0.09132,-2.46939 0,-2.62823 -0.06483,-2.41007 0.868669,-2.92327 0.298327,-0.16393 0.542417,-0.32331 0.542417,-0.35402 0,-0.0309 -0.162318,-0.16826 -0.360716,-0.30583 -1.028016,-0.71241 -2.013971,-2.17766 -2.338877,-3.47584 -0.201325,-0.80442 -0.134174,-2.39054 0.13451,-3.17721 1.033244,-3.02511 4.386038,-4.85502 7.661927,-4.18175 2.136444,0.4391 3.832748,1.7715 4.690824,3.6846 0.361925,0.8069 0.484002,1.41362 0.481552,2.39329 -0.0043,1.76252 -0.804317,3.40089 -2.221636,4.55038 -0.254647,0.20641 -0.463011,0.4065 -0.463011,0.44439 0,0.038 0.188503,0.17638 0.418915,0.30774 0.88078,0.5022 0.815782,0.26078 0.815782,3.02947 0,1.77735 -0.02862,2.465 -0.105831,2.54221 -0.07977,0.0796 -1.316324,0.10568 -5.023888,0.10568 -4.772077,0 -4.920765,-0.006 -5.009351,-0.17069 z m 4.778272,-1.34136 c 0.02029,-0.72066 0.0537,-0.91258 0.172084,-0.98706 0.106484,-0.067 0.185415,-0.0605 0.286623,0.0243 0.110188,0.0915 0.139673,0.2998 0.139673,0.98705 v 0.87111 h 2.031202 c 1.725502,0 2.038854,-0.0189 2.082046,-0.13248 0.118689,-0.30933 -0.0843,-0.54865 -1.048716,-1.23644 -0.806681,-0.57531 -0.992,-0.74828 -0.992,-0.92603 0,-0.17285 0.05069,-0.22425 0.242529,-0.24644 l 0.242526,-0.0279 v -0.72694 c 0,-0.82266 0.11329,-1.0851 0.425635,-0.98597 0.182308,0.0579 0.191777,0.11143 0.193075,1.09112 6.9e-4,0.56673 0.03051,1.07216 0.06615,1.12322 0.107317,0.15365 0.691445,0.5686 0.80071,0.5686 0.07253,0 0.101903,-0.37768 0.101903,-1.30922 0,-1.48548 0.04525,-1.38286 -0.823095,-1.86798 l -0.514419,-0.28745 -0.896236,0.29918 c -0.869904,0.29041 -0.937695,0.2992 -2.307746,0.29891 -1.355532,-2.1e-4 -1.441911,-0.0113 -2.177833,-0.27426 l -0.766317,-0.27401 -0.710913,0.40097 -0.710915,0.40096 v 1.35053 c 0,0.7428 0.02272,1.35058 0.05046,1.35058 0.02775,0 0.226187,-0.10309 0.440962,-0.22887 l 0.390524,-0.22887 0.0014,-0.89557 c 0.0016,-1.14751 0.206306,-1.60144 0.561721,-1.24599 0.108544,0.1085 0.142513,0.31853 0.142513,0.88028 v 0.7378 l 0.290718,-0.0471 c 0.315025,-0.0511 0.543194,0.11558 0.458905,0.33517 -0.02597,0.0676 -0.562393,0.43193 -1.192126,0.80964 -1.113533,0.66789 -1.144968,0.69508 -1.144968,0.9907 v 0.30396 h 2.069441 2.069444 z m 2.265337,-4.35748 c 1.403562,-0.46993 2.640938,-1.50058 3.294283,-2.74387 0.429067,-0.81653 0.595175,-1.49004 0.593708,-2.40729 -0.002,-1.2675 0.205601,-1.15 -2.032309,-1.15 -1.442955,0 -1.942613,0.0275 -1.996101,0.11041 -0.03924,0.0606 -0.191398,0.42737 -0.338104,0.81498 -0.382438,1.0104 -0.497129,0.9789 -0.708436,-0.1945 -0.249425,-1.38497 -0.369803,-1.31205 -0.674781,0.40874 -0.236279,1.33315 -0.338408,1.62908 -0.50309,1.45776 -0.04428,-0.0461 -0.22394,-1.07598 -0.399194,-2.28859 -0.378048,-2.61568 -0.375281,-2.60172 -0.515638,-2.60172 -0.06054,0 -0.377093,0.53579 -0.703448,1.19062 l -0.593372,1.1906 h -1.626578 -1.626579 l -0.06131,0.40891 c -0.234007,1.5605 0.483321,3.42764 1.761718,4.58559 0.632883,0.57328 1.868907,1.21483 2.698432,1.40062 0.933964,0.20911 2.512332,0.12546 3.430809,-0.18205 z m -2.582339,-0.34598 c -0.501349,-0.14204 -0.612279,-0.23104 -0.568647,-0.45582 0.02803,-0.14447 0.130451,-0.16555 0.868148,-0.17909 0.460004,-0.008 0.975273,-0.0281 1.145044,-0.0441 0.276178,-0.0243 0.311494,-0.006 0.335474,0.20237 0.023,0.19722 -0.02543,0.25187 -0.329357,0.37355 -0.522805,0.20913 -0.965587,0.24078 -1.450662,0.1031 z m -1.6422,-2.07469 c -0.09701,-0.0972 -0.176384,-0.25567 -0.176384,-0.35282 0,-0.24453 0.308426,-0.52913 0.573253,-0.52913 0.264818,0 0.573252,0.28468 0.573252,0.52913 0,0.24455 -0.308429,0.52918 -0.573252,0.52918 -0.121275,0 -0.299857,-0.0793 -0.396869,-0.17636 z m 3.439517,-0.0882 c -0.232761,-0.23267 -0.222508,-0.40285 0.0401,-0.66546 0.243582,-0.24345 0.329798,-0.25996 0.605107,-0.11502 0.242042,0.12748 0.321863,0.24591 0.323575,0.48022 0.0031,0.43406 -0.63668,0.63239 -0.968767,0.30029 z m -1.097809,-4.10189 c 0.211607,-1.21013 0.333943,-1.55258 0.494567,-1.38443 0.03281,0.0344 0.152225,0.57839 0.265306,1.20896 0.232869,1.29834 0.343523,1.42064 0.618496,0.68352 l 0.172705,-0.46302 h 1.972971 c 1.085132,0 1.99242,-0.0315 2.016195,-0.0698 0.08023,-0.12991 -0.357483,-1.05886 -0.773608,-1.642 -0.728041,-1.02028 -1.981677,-1.859 -3.316077,-2.21859 -0.773686,-0.20857 -2.314601,-0.21426 -3.086747,-0.0113 -1.084749,0.28486 -1.999152,0.80872 -2.786328,1.59624 -0.677355,0.67767 -1.19903,1.50881 -1.403089,2.23545 l -0.05574,0.19856 1.439077,-9.8e-4 c 0.791494,-6.2e-4 1.483847,-0.0306 1.538565,-0.0662 0.05473,-0.0355 0.422055,-0.70973 0.816304,-1.49793 0.672478,-1.34451 0.811339,-1.54707 0.929474,-1.35595 0.02624,0.0426 0.169945,0.92549 0.319337,1.9623 0.278277,1.93132 0.382411,2.3719 0.526552,2.22775 0.04457,-0.0447 0.184959,-0.67541 0.312001,-1.40192 z"
       id="path4010-0"
       inkscape:connector-curvature="0" />
    <path
       style="fill:#179cfd;stroke-width:0.434238"
       d="m 28.084301,261.62139 c -0.09334,-0.2432 -0.06068,-4.53422 0.03585,-4.71459 0.04932,-0.0922 0.366818,-0.32942 0.705541,-0.52725 0.338727,-0.19778 0.615865,-0.39635 0.615865,-0.44114 0,-0.0449 -0.225402,-0.25131 -0.5009,-0.45914 -1.007366,-0.75955 -1.863496,-2.05429 -2.182561,-3.30077 -0.176274,-0.68859 -0.179006,-2.04001 -0.0054,-2.72476 0.07324,-0.28909 0.298305,-0.86296 0.500144,-1.27526 0.293281,-0.59912 0.51896,-0.90166 1.123813,-1.50667 0.628099,-0.62825 0.899287,-0.82698 1.594434,-1.16847 1.206772,-0.59277 1.759323,-0.7188 3.130615,-0.71416 0.806735,0.002 1.311968,0.0495 1.704825,0.15746 3.200698,0.88036 5.194794,3.81447 4.65392,6.84772 -0.248316,1.39251 -1.241594,2.98286 -2.337264,3.74216 -0.198811,0.13767 -0.36148,0.28303 -0.36148,0.3228 0,0.0398 0.277437,0.23428 0.616524,0.43238 0.393273,0.22968 0.633784,0.4307 0.664178,0.55509 0.02625,0.10714 0.03649,1.24673 0.02299,2.53213 l -0.02488,2.33712 -4.951132,0.0216 c -4.457619,0.0215 -4.956494,0.008 -5.004941,-0.11734 z m 4.796794,-1.27231 c 0.04062,-0.85254 0.0581,-0.92604 0.220478,-0.92604 0.162399,0 0.179874,0.0735 0.22048,0.92604 l 0.0441,0.92602 h 2.11542 c 1.979416,0 2.117418,-0.0113 2.146485,-0.16124 0.07415,-0.38501 -0.08786,-0.58193 -1.039039,-1.26279 -0.5321,-0.38086 -0.988888,-0.74572 -1.015085,-0.81071 -0.07133,-0.17694 0.02596,-0.27867 0.266821,-0.27867 0.212067,0 0.215285,-0.0113 0.215285,-0.78294 0,-0.57789 0.03363,-0.81084 0.12842,-0.88952 0.247505,-0.20531 0.312538,-0.006 0.312538,0.96492 0,0.5267 0.02407,1.0201 0.05321,1.09639 0.07569,0.19722 0.895628,0.78122 1.003392,0.71461 0.137026,-0.0848 0.118488,-2.70962 -0.02028,-2.88339 -0.06062,-0.0761 -0.366131,-0.28527 -0.678882,-0.46529 -0.638192,-0.36731 -0.664782,-0.36715 -1.680277,0.0113 -0.620191,0.23022 -0.749452,0.24593 -2.072528,0.24835 -1.367516,0.002 -1.436372,-0.006 -2.229991,-0.28332 l -0.818897,-0.286 -0.707163,0.41086 c -0.388942,0.22589 -0.744718,0.48108 -0.790616,0.56686 -0.04592,0.0857 -0.08344,0.71537 -0.08344,1.39919 0,0.99797 0.02488,1.25279 0.126404,1.29174 0.157447,0.0603 0.905595,-0.36921 1.022127,-0.58694 0.04739,-0.0885 0.0862,-0.57804 0.0862,-1.08767 0,-0.95796 0.0901,-1.20675 0.322052,-0.88956 0.07719,0.10547 0.118894,0.4201 0.118894,0.89644 v 0.73386 l 0.360543,-0.0576 c 0.341277,-0.0546 0.358954,-0.0466 0.330725,0.14961 -0.02299,0.16068 -0.280994,0.35508 -1.148549,0.86561 -1.145685,0.67416 -1.30229,0.84178 -1.171412,1.25421 0.05178,0.16311 0.145382,0.16933 2.186334,0.14688 l 2.132238,-0.0243 z m 2.160723,-4.26226 c 1.769875,-0.57963 3.167996,-1.90262 3.76078,-3.55863 0.192048,-0.53652 0.328288,-2.18171 0.217288,-2.62393 l -0.05685,-0.22641 h -1.977453 c -1.485114,0 -1.995217,0.0273 -2.0488,0.11041 -0.03924,0.0605 -0.191399,0.42736 -0.338105,0.81497 -0.382437,1.0104 -0.497129,0.97892 -0.708437,-0.1945 -0.249424,-1.38497 -0.369803,-1.31205 -0.674782,0.40873 -0.236276,1.33315 -0.338406,1.62909 -0.503087,1.45777 -0.04428,-0.046 -0.223941,-1.07597 -0.399196,-2.28861 -0.378048,-2.61567 -0.375282,-2.6017 -0.515636,-2.6017 -0.06054,0 -0.377094,0.53578 -0.703448,1.19062 l -0.593373,1.19063 h -1.628884 c -1.902339,0 -1.81147,-0.0499 -1.81147,0.99426 0,0.80431 0.255081,1.83651 0.632916,2.56111 0.424332,0.81377 1.610253,1.95985 2.460638,2.37796 1.097382,0.53952 1.794389,0.68665 3.07994,0.64999 0.892825,-0.0244 1.23655,-0.0755 1.807954,-0.26241 z m -2.425303,-0.51429 c -0.478805,-0.10703 -0.703657,-0.2876 -0.549872,-0.44139 0.07642,-0.0766 0.231706,-0.0808 0.585546,-0.0162 0.356597,0.0647 0.599579,0.0571 0.936494,-0.0291 0.48231,-0.12329 0.615302,-0.0987 0.615302,0.11422 0,0.28859 -0.958357,0.51378 -1.58747,0.37302 z m -1.706091,-2.08738 c -0.189693,-0.20965 -0.184796,-0.3936 0.01543,-0.57471 0.232894,-0.21073 0.518062,-0.17963 0.684657,0.0743 0.133834,0.20423 0.133834,0.23669 0,0.44096 -0.171756,0.26213 -0.491832,0.2892 -0.699982,0.0593 z m 3.421615,-0.14148 c -0.271481,-0.41435 0.198702,-0.82027 0.625904,-0.54036 0.247452,0.16205 0.279238,0.41467 0.07757,0.61634 -0.207737,0.20776 -0.541169,0.17179 -0.703478,-0.0761 z m -1.137669,-3.97553 c 0.211606,-1.21013 0.333942,-1.55259 0.494569,-1.38441 0.03282,0.0344 0.152224,0.57837 0.265305,1.20895 0.23276,1.29772 0.34355,1.42057 0.617887,0.68512 l 0.172107,-0.46134 2.000835,-0.0243 c 2.352706,-0.0279 2.281076,0.0162 1.723959,-1.05794 -0.429635,-0.82824 -1.435244,-1.8525 -2.279603,-2.32184 -3.036046,-1.6875 -6.967182,-0.61741 -8.490501,2.31125 -0.205682,0.39548 -0.373989,0.82207 -0.373989,0.94808 v 0.22911 l 1.433135,-9.7e-4 c 0.788221,-6e-4 1.477901,-0.0306 1.53262,-0.0663 0.05473,-0.0355 0.422054,-0.7097 0.816303,-1.49792 0.672479,-1.34449 0.811342,-1.54706 0.929474,-1.35594 0.02625,0.0425 0.169945,0.9255 0.319337,1.96229 0.278278,1.93132 0.382411,2.37191 0.526555,2.22776 0.04455,-0.0447 0.184956,-0.67543 0.311999,-1.40192 z"
       id="path4008-4"
       inkscape:connector-curvature="0" />
    <path
       style="fill:#050505;fill-opacity:1;stroke-width:0.434238"
       d="m 28.084301,261.62139 c -0.09334,-0.2432 -0.06068,-4.53422 0.03585,-4.71459 0.04932,-0.0922 0.366818,-0.32942 0.705541,-0.52725 0.338727,-0.19778 0.615865,-0.39635 0.615865,-0.44114 0,-0.0449 -0.225402,-0.25131 -0.5009,-0.45914 -1.007366,-0.75955 -1.863496,-2.05429 -2.182561,-3.30077 -0.176274,-0.68859 -0.179006,-2.04001 -0.0054,-2.72476 0.07324,-0.28909 0.298305,-0.86296 0.500144,-1.27526 0.293281,-0.59912 0.51896,-0.90166 1.123813,-1.50667 0.628099,-0.62825 0.899287,-0.82698 1.594434,-1.16847 1.206772,-0.59277 1.759323,-0.7188 3.130615,-0.71416 0.806735,0.002 1.311968,0.0495 1.704825,0.15746 3.200698,0.88036 5.194794,3.81447 4.65392,6.84772 -0.248316,1.39251 -1.241594,2.98286 -2.337264,3.74216 -0.198811,0.13767 -0.36148,0.28303 -0.36148,0.3228 0,0.0398 0.277437,0.23428 0.616524,0.43238 0.393273,0.22968 0.633784,0.4307 0.664178,0.55509 0.02625,0.10714 0.03649,1.24673 0.02299,2.53213 l -0.02488,2.33712 -4.951132,0.0216 c -4.457619,0.0215 -4.956494,0.008 -5.004941,-0.11734 z m 4.796794,-1.27231 c 0.04062,-0.85254 0.0581,-0.92604 0.220478,-0.92604 0.162399,0 0.179874,0.0735 0.22048,0.92604 l 0.0441,0.92602 h 2.11542 c 1.979416,0 2.117418,-0.0113 2.146485,-0.16124 0.07415,-0.38501 -0.08786,-0.58193 -1.039039,-1.26279 -0.5321,-0.38086 -0.988888,-0.74572 -1.015085,-0.81071 -0.07133,-0.17694 0.02596,-0.27867 0.266821,-0.27867 0.212067,0 0.215285,-0.0113 0.215285,-0.78294 0,-0.57789 0.03363,-0.81084 0.12842,-0.88952 0.247505,-0.20531 0.312538,-0.006 0.312538,0.96492 0,0.5267 0.02407,1.0201 0.05321,1.09639 0.07569,0.19722 0.895628,0.78122 1.003392,0.71461 0.137026,-0.0848 0.118488,-2.70962 -0.02028,-2.88339 -0.06062,-0.0761 -0.366131,-0.28527 -0.678882,-0.46529 -0.638192,-0.36731 -0.664782,-0.36715 -1.680277,0.0113 -0.620191,0.23022 -0.749452,0.24593 -2.072528,0.24835 -1.367516,0.002 -1.436372,-0.006 -2.229991,-0.28332 l -0.818897,-0.286 -0.707163,0.41086 c -0.388942,0.22589 -0.744718,0.48108 -0.790616,0.56686 -0.04592,0.0857 -0.08344,0.71537 -0.08344,1.39919 0,0.99797 0.02488,1.25279 0.126404,1.29174 0.157447,0.0603 0.905595,-0.36921 1.022127,-0.58694 0.04739,-0.0885 0.0862,-0.57804 0.0862,-1.08767 0,-0.95796 0.0901,-1.20675 0.322052,-0.88956 0.07719,0.10547 0.118894,0.4201 0.118894,0.89644 v 0.73386 l 0.360543,-0.0576 c 0.341277,-0.0546 0.358954,-0.0466 0.330725,0.14961 -0.02299,0.16068 -0.280994,0.35508 -1.148549,0.86561 -1.145685,0.67416 -1.30229,0.84178 -1.171412,1.25421 0.05178,0.16311 0.145382,0.16933 2.186334,0.14688 l 2.132238,-0.0243 z m 2.160723,-4.26226 c 1.798336,-0.58895 3.232202,-1.974 3.804655,-3.6751 0.213148,-0.63339 0.221914,-2.36663 0.01569,-3.09953 -0.356769,-1.26779 -1.453375,-2.62144 -2.672695,-3.2992 -2.477562,-1.37709 -5.596645,-0.9588 -7.541693,1.01144 -1.633552,1.65471 -2.027872,4.11443 -0.994473,6.2034 0.44418,0.89788 1.576714,2.0172 2.500652,2.47147 1.097382,0.53953 1.794387,0.68664 3.079941,0.64999 0.892823,-0.0243 1.236549,-0.0756 1.807951,-0.26241 z m -2.425303,-0.51429 c -0.478805,-0.10703 -0.703657,-0.2876 -0.549872,-0.44139 0.07642,-0.0766 0.231706,-0.0808 0.585546,-0.0162 0.356597,0.0647 0.599579,0.0571 0.936494,-0.0291 0.48231,-0.12329 0.615302,-0.0987 0.615302,0.11422 0,0.28859 -0.958357,0.51378 -1.58747,0.37302 z m -1.706091,-2.08738 c -0.189693,-0.20965 -0.184796,-0.3936 0.01543,-0.57471 0.232894,-0.21073 0.518062,-0.17963 0.684657,0.0743 0.133834,0.20423 0.133834,0.23669 0,0.44096 -0.171756,0.26213 -0.491832,0.2892 -0.699982,0.0593 z m 3.421615,-0.14148 c -0.271481,-0.41435 0.198702,-0.82027 0.625904,-0.54036 0.247452,0.16205 0.279238,0.41467 0.07757,0.61634 -0.207737,0.20776 -0.541169,0.17179 -0.703478,-0.0761 z"
       id="path4006-5"
       inkscape:connector-curvature="0" />
  </g>
  <path
     d="m 16.008645,359.11621 v -9.54424 h 1.874995 l 3.90624,6.37368 v -6.37368 h 1.79036 v 9.54424 h -1.933589 l -3.847646,-6.22394 v 6.22394 z m 13.600225,-2.20051 1.822915,0.30599 q -0.35156,1.0026 -1.113281,1.52994 -0.755207,0.52083 -1.894527,0.52083 -1.803381,0 -2.669264,-1.17838 -0.683592,-0.94401 -0.683592,-2.38281 0,-1.71874 0.898435,-2.68879 0.898436,-0.97656 2.27213,-0.97656 1.542965,0 2.43489,1.02213 0.891929,1.01562 0.852859,3.11848 h -4.583319 q 0.01953,0.8138 0.442708,1.26953 0.423176,0.44922 1.054684,0.44922 0.429687,0 0.722655,-0.23438 0.292968,-0.23437 0.442707,-0.7552 z m 0.104166,-1.84896 q -0.01953,-0.79426 -0.410155,-1.20442 -0.390624,-0.41667 -0.950518,-0.41667 -0.598957,0 -0.989581,0.4362 -0.390624,0.4362 -0.384114,1.18489 z m 9.648419,4.04947 h -1.69922 v -1.01562 q -0.42318,0.59245 -1.0026,0.88542 -0.57292,0.28645 -1.15885,0.28645 -1.19141,0 -2.04427,-0.95703 -0.84635,-0.96354 -0.84635,-2.68228 0,-1.75781 0.82682,-2.66926 0.82682,-0.91797 2.08984,-0.91797 1.15885,0 2.0052,0.96354 v -3.43749 h 1.82943 z m -4.8828,-3.60676 q 0,1.10677 0.30598,1.60156 0.44271,0.71614 1.23698,0.71614 0.63151,0 1.07422,-0.53385 0.4427,-0.54036 0.4427,-1.60807 0,-1.1914 -0.42968,-1.71223 -0.42969,-0.52735 -1.10026,-0.52735 -0.65104,0 -1.09375,0.52084 -0.43619,0.51432 -0.43619,1.54296 z m 6.70571,3.60676 v -9.54424 h 4.05598 q 1.52994,0 2.22004,0.26041 0.69662,0.25391 1.11328,0.91146 0.41667,0.65755 0.41667,1.5039 0,1.07422 -0.63151,1.77734 -0.63151,0.69661 -1.88802,0.8789 0.625,0.36459 1.02865,0.80078 0.41015,0.4362 1.10025,1.54948 l 1.16536,1.86197 h -2.30468 l -1.39322,-2.07681 q -0.74219,-1.11328 -1.01563,-1.39974 -0.27343,-0.29297 -0.57942,-0.39713 -0.30599,-0.11068 -0.97005,-0.11068 h -0.39062 v 3.98436 z m 1.92708,-5.5078 h 1.42577 q 1.38672,0 1.73177,-0.11718 0.34505,-0.11719 0.54036,-0.40365 0.19531,-0.28645 0.19531,-0.71614 0,-0.48177 -0.26041,-0.77474 -0.25391,-0.29948 -0.72266,-0.3776 -0.23437,-0.0326 -1.40624,-0.0326 h -1.5039 z m 12.23304,5.5078 v -1.03515 q -0.37761,0.55338 -0.9961,0.87239 -0.61197,0.31901 -1.29556,0.31901 -0.69662,0 -1.25,-0.30599 -0.55338,-0.30598 -0.80078,-0.85937 -0.2474,-0.55338 -0.2474,-1.52994 v -4.37499 h 1.82943 v 3.17707 q 0,1.45833 0.0977,1.79036 0.10416,0.32552 0.37109,0.52084 0.26693,0.1888 0.67708,0.1888 0.46875,0 0.83984,-0.25391 0.3711,-0.26041 0.50781,-0.63802 0.13672,-0.38411 0.13672,-1.86848 v -2.91666 h 1.82943 v 6.91404 z m 2.94921,-1.97265 1.83593,-0.27995 q 0.11719,0.53386 0.47526,0.81381 0.35807,0.27343 1.0026,0.27343 0.70963,0 1.06771,-0.26041 0.24088,-0.1823 0.24088,-0.48828 0,-0.20834 -0.13021,-0.34506 -0.13672,-0.1302 -0.61198,-0.24088 -2.21353,-0.48828 -2.80598,-0.89193 -0.82031,-0.55989 -0.82031,-1.55598 0,-0.89844 0.70964,-1.51041 0.70963,-0.61198 2.20051,-0.61198 1.41927,0 2.10937,0.46224 0.6901,0.46224 0.95052,1.36718 l -1.72526,0.31901 q -0.11068,-0.40364 -0.42317,-0.61849 -0.30599,-0.21484 -0.87891,-0.21484 -0.72265,0 -1.03515,0.20182 -0.20833,0.14323 -0.20833,0.37109 0,0.19532 0.18229,0.33204 0.24739,0.18229 1.70572,0.51432 1.46484,0.33203 2.04427,0.8138 0.57291,0.48828 0.57291,1.36067 0,0.95052 -0.79427,1.63411 -0.79426,0.68359 -2.35025,0.68359 -1.41276,0 -2.23958,-0.57291 -0.82031,-0.57292 -1.07421,-1.55599 z m 9.88278,-7.57159 v 3.5091 q 0.88542,-1.03515 2.11588,-1.03515 0.63151,0 1.13932,0.23437 0.50782,0.23438 0.76172,0.59896 0.26042,0.36458 0.35156,0.80729 0.0977,0.44271 0.0977,1.37369 v 4.05598 h -1.82942 v -3.65233 q 0,-1.08724 -0.10417,-1.38021 -0.10416,-0.29296 -0.37109,-0.46223 -0.26041,-0.17579 -0.65755,-0.17579 -0.45573,0 -0.8138,0.22136 -0.35807,0.22135 -0.52734,0.67057 -0.16276,0.44271 -0.16276,1.3151 v 3.46353 h -1.82942 v -9.54424 z"
     id="text1"
     style="font-weight:bold;font-size:13.3333px;font-family:Arial;-inkscape-font-specification:'Arial Bold';text-align:center;text-anchor:middle;fill:#ff7e79;stroke-width:1.002"
     aria-label="NedRush" />
</svg>
