<?xml version="1.0" encoding="UTF-8" standalone="no"?>
<svg
   width="120"
   height="380"
   viewBox="0 0 120 380"
   version="1.1"
   id="svg11"
   sodipodi:docname="NedRepeat.svg"
   inkscape:version="1.3.2 (091e20e, 2023-11-25)"
   xmlns:inkscape="http://www.inkscape.org/namespaces/inkscape"
   xmlns:sodipodi="http://sodipodi.sourceforge.net/DTD/sodipodi-0.dtd"
   xmlns="http://www.w3.org/2000/svg"
   xmlns:svg="http://www.w3.org/2000/svg">
  <sodipodi:namedview
     id="namedview1"
     pagecolor="#ffffff"
     bordercolor="#000000"
     borderopacity="0.25"
     inkscape:showpageshadow="2"
     inkscape:pageopacity="0.0"
     inkscape:pagecheckerboard="0"
     inkscape:deskcolor="#d1d1d1"
     inkscape:zoom="2.7394737"
     inkscape:cx="59.865514"
     inkscape:cy="190"
     inkscape:window-width="1392"
     inkscape:window-height="1212"
     inkscape:window-x="651"
     inkscape:window-y="388"
     inkscape:window-maximized="0"
     inkscape:current-layer="svg11" />
  <defs
     id="defs1">
    <style
       id="style1">
      .panel { fill: #2a2a2a; }
      .accent { fill: #444444; }
      .title { font-family: Arial, sans-serif; font-size: 14px; font-weight: bold; fill: #ffffff; text-anchor: middle; letter-spacing: 0.5px; }
      .tiny { font-family: Arial, sans-serif; font-size: 6.5px; fill: #cfcfcf; text-anchor: middle; letter-spacing: 0.3px; }
    </style>
  </defs>
  <rect
     class="panel"
     x="0"
     y="0"
     width="120"
     height="380"
     id="rect1"
     style="fill:#434343;fill-opacity:1" />
  <rect
     class="accent"
     x="0"
     y="0"
     width="120"
     height="2"
     id="rect2" />
  <rect
     class="accent"
     x="0"
     y="378"
     width="120"
     height="2"
     id="rect3" />
  <path
     d="m 11.92229,80 v -4.652832 h 2.062988 q 0.622071,0 0.945801,0.126953 0.32373,0.123779 0.517334,0.441162 0.193604,0.317383 0.193604,0.701416 0,0.495117 -0.320557,0.834717 -0.320557,0.3396 -0.990234,0.431641 0.244384,0.117431 0.371337,0.231689 0.269776,0.247559 0.510987,0.618897 L 16.022876,80 h -0.774414 l -0.615723,-0.968018 q -0.269775,-0.418945 -0.444336,-0.641113 -0.17456,-0.222168 -0.314209,-0.311035 -0.136474,-0.08887 -0.279297,-0.123779 -0.104736,-0.02222 -0.342773,-0.02222 H 12.538013 V 80 Z m 0.615723,-2.599365 h 1.323486 q 0.422119,0 0.660156,-0.08569 0.238037,-0.08887 0.361817,-0.279296 0.123779,-0.193604 0.123779,-0.418946 0,-0.330078 -0.241211,-0.542724 -0.238037,-0.212647 -0.755371,-0.212647 H 12.538013 Z M 16.919556,80 v -4.652832 h 3.364258 v 0.549072 h -2.748536 v 1.425049 h 2.573975 v 0.545898 h -2.573975 v 1.583741 h 2.856446 V 80 Z m 4.622754,0 v -4.652832 h 1.755127 q 0.463379,0 0.707764,0.04443 0.342773,0.05713 0.574462,0.218994 0.23169,0.158691 0.371338,0.447509 0.142823,0.288819 0.142823,0.634766 0,0.593506 -0.377686,1.006104 -0.377686,0.409423 -1.364746,0.409423 H 22.158033 V 80 Z m 0.615723,-2.440674 h 1.20288 q 0.59668,0 0.847413,-0.222168 0.250732,-0.222168 0.250732,-0.625244 0,-0.291992 -0.14917,-0.498291 Q 24.163892,76.00415 23.922681,75.9375 23.767163,75.89624 23.348218,75.89624 H 22.158033 Z M 26.190454,80 v -4.652832 h 3.364257 v 0.549072 h -2.748535 v 1.425049 h 2.573975 v 0.545898 h -2.573975 v 1.583741 h 2.856446 V 80 Z m 4.111768,0 1.786866,-4.652832 h 0.66333 L 34.656715,80 H 33.955299 L 33.412574,78.59082 H 31.467017 L 30.956031,80 Z m 1.34253,-1.910645 h 1.577392 l -0.485595,-1.288574 q -0.222168,-0.587158 -0.330079,-0.964844 -0.08887,0.44751 -0.250732,0.888672 z M 36.150073,80 v -4.10376 h -1.532959 v -0.549072 h 3.687988 V 75.89624 H 36.765796 V 80 Z m 5.049708,0 v -4.652832 h 0.615722 v 4.10376 h 2.291504 V 80 Z m 3.953077,0 v -4.652832 h 3.364258 v 0.549072 h -2.748535 v 1.425049 h 2.573974 v 0.545898 h -2.573974 v 1.583741 h 2.856445 V 80 Z m 4.616405,0 v -4.652832 h 0.631592 l 2.443848,3.653076 v -3.653076 h 0.590332 V 80 H 52.803443 L 50.359595,76.34375 V 80 Z m 7.177685,-1.824951 V 77.62915 l 1.970947,-0.0032 v 1.726562 q -0.453857,0.361816 -0.936279,0.545898 -0.482422,0.180909 -0.990234,0.180909 -0.685547,0 -1.247315,-0.291992 -0.558593,-0.295167 -0.844238,-0.850586 -0.285645,-0.55542 -0.285645,-1.240967 0,-0.679199 0.282471,-1.266358 0.285645,-0.590332 0.818848,-0.875976 0.533203,-0.285645 1.228271,-0.285645 0.504639,0 0.910889,0.165039 0.409424,0.161866 0.641113,0.453858 0.23169,0.291992 0.352295,0.761718 l -0.55542,0.152344 q -0.104736,-0.355469 -0.260254,-0.558594 -0.155517,-0.203125 -0.444336,-0.32373 -0.288818,-0.123779 -0.641113,-0.123779 -0.422119,0 -0.72998,0.130127 -0.307862,0.126953 -0.498291,0.336425 -0.187256,0.209473 -0.291993,0.460206 -0.177734,0.43164 -0.177734,0.936279 0,0.62207 0.212647,1.041015 0.21582,0.418946 0.625244,0.622071 0.409424,0.203125 0.869629,0.203125 0.399902,0 0.780761,-0.152344 0.38086,-0.155518 0.577637,-0.330078 V 78.175049 Z M 61.309447,80 v -4.10376 h -1.532959 v -0.549072 h 3.687989 V 75.89624 H 61.92517 V 80 Z m 3.105664,0 v -4.652832 h 0.615722 v 1.910644 h 2.418457 v -1.910644 h 0.615723 V 80 H 67.44929 V 77.806885 H 65.030833 V 80 Z"
     id="text4"
     class="tiny"
     style="font-size:6.5px;font-family:Arial, sans-serif;letter-spacing:0.3px;text-anchor:middle;fill:#ff7e79;fill-opacity:1"
     aria-label="REPEAT LENGTH" />
  <path
     d="m 79.156519,78.368652 0.615722,0.155518 q -0.193603,0.758545 -0.698242,1.158447 -0.501465,0.396729 -1.228271,0.396729 -0.752198,0 -1.225098,-0.304688 -0.469727,-0.307861 -0.717285,-0.888672 -0.244385,-0.58081 -0.244385,-1.247314 0,-0.726807 0.276123,-1.266358 0.279297,-0.542724 0.790283,-0.822021 0.51416,-0.282471 1.129883,-0.282471 0.698242,0 1.174316,0.355469 0.476075,0.355469 0.663331,0.999756 l -0.606202,0.142822 q -0.161865,-0.507812 -0.469726,-0.739502 -0.307862,-0.231689 -0.774414,-0.231689 -0.536377,0 -0.898194,0.25708 -0.358642,0.25708 -0.504638,0.691894 -0.145996,0.431641 -0.145996,0.891846 0,0.593506 0.171386,1.037842 0.174561,0.441162 0.539551,0.660156 0.36499,0.218994 0.790283,0.218994 0.517334,0 0.875977,-0.29834 0.358642,-0.298339 0.485596,-0.885498 z M 82.16062,80 80.357886,75.347168 h 0.666504 l 1.209228,3.380127 q 0.145996,0.40625 0.244385,0.761719 0.10791,-0.38086 0.250733,-0.761719 l 1.256835,-3.380127 h 0.628418 L 82.792212,80 Z"
     id="text5"
     class="tiny"
     style="font-size:6.5px;font-family:Arial, sans-serif;letter-spacing:0.3px;text-anchor:middle;fill:#ff7e79;fill-opacity:1"
     aria-label="CV" />
  <path
     d="m 26.745117,147.73389 q 0,-1.15845 0.62207,-1.81226 0.622071,-0.65698 1.605958,-0.65698 0.644287,0 1.161621,0.30786 0.517334,0.30786 0.787109,0.86011 0.272949,0.54907 0.272949,1.24731 0,0.70777 -0.285644,1.26636 -0.285645,0.55859 -0.809327,0.84741 -0.523681,0.28565 -1.129882,0.28565 -0.656983,0 -1.174317,-0.31739 -0.517334,-0.31738 -0.783935,-0.86645 -0.266602,-0.54907 -0.266602,-1.16162 z m 0.634766,0.01 q 0,0.84106 0.450683,1.32666 0.453858,0.48242 1.136231,0.48242 0.695068,0 1.142578,-0.48877 0.450684,-0.48877 0.450684,-1.38696 0,-0.56812 -0.193604,-0.99024 -0.19043,-0.42529 -0.561768,-0.65698 -0.368164,-0.23486 -0.828369,-0.23486 -0.653808,0 -1.126709,0.45068 -0.469726,0.44751 -0.469726,1.49805 z M 32.32002,150 v -4.65283 h 3.138916 v 0.54907 h -2.523194 v 1.44092 h 2.183594 v 0.54907 H 32.935742 V 150 Z m 4.270459,0 v -4.65283 h 3.138916 v 0.54907 h -2.523193 v 1.44092 h 2.183593 v 0.54907 H 37.206202 V 150 Z m 4.029247,-1.49487 0.580811,-0.0508 q 0.04126,0.34912 0.190429,0.57446 0.152344,0.22217 0.469727,0.36181 0.317383,0.13648 0.714111,0.13648 0.352295,0 0.622071,-0.10474 0.269775,-0.10473 0.399902,-0.28564 0.133301,-0.18408 0.133301,-0.3999 0,-0.219 -0.126953,-0.38086 -0.126954,-0.16504 -0.418946,-0.27613 -0.187256,-0.073 -0.828369,-0.22534 -0.641113,-0.15552 -0.898193,-0.29199 -0.333252,-0.17456 -0.498291,-0.43164 -0.161865,-0.26025 -0.161865,-0.58081 0,-0.3523 0.199951,-0.65698 0.199951,-0.30786 0.583984,-0.46656 0.384033,-0.15869 0.85376,-0.15869 0.517334,0 0.910889,0.16822 0.396728,0.16503 0.609375,0.48876 0.212646,0.32374 0.228515,0.73316 l -0.590332,0.0444 q -0.04761,-0.44116 -0.32373,-0.6665 -0.27295,-0.22534 -0.809327,-0.22534 -0.558593,0 -0.815673,0.2063 -0.253907,0.20312 -0.253907,0.49194 0,0.25073 0.180909,0.4126 0.177734,0.16186 0.926757,0.33325 0.752198,0.16821 1.031495,0.29516 0.40625,0.18726 0.599853,0.47608 0.193604,0.28564 0.193604,0.66016 0,0.37133 -0.212647,0.70141 -0.212646,0.32691 -0.612549,0.51099 -0.396728,0.18091 -0.895019,0.18091 -0.631592,0 -1.060059,-0.18409 -0.425293,-0.18408 -0.669678,-0.55224 -0.241211,-0.37134 -0.253906,-0.83789 z M 45.477344,150 v -4.65283 h 3.364258 v 0.54907 h -2.748535 v 1.42505 h 2.573975 v 0.5459 h -2.573975 v 1.58374 h 2.856445 V 150 Z m 5.806592,0 v -4.10376 h -1.532959 v -0.54907 h 3.687988 v 0.54907 H 51.899658 V 150 Z"
     id="text6"
     class="tiny"
     style="font-size:6.5px;font-family:Arial, sans-serif;letter-spacing:0.3px;text-anchor:middle;fill:#ff7e79;fill-opacity:1"
     aria-label="OFFSET" />
  <path
     d="m 79.156519,148.36865 0.615722,0.15552 q -0.193603,0.75854 -0.698242,1.15845 -0.501465,0.39673 -1.228271,0.39673 -0.752198,0 -1.225098,-0.30469 -0.469727,-0.30786 -0.717285,-0.88867 -0.244385,-0.58081 -0.244385,-1.24732 0,-0.7268 0.276123,-1.26636 0.279297,-0.54272 0.790283,-0.82202 0.51416,-0.28247 1.129883,-0.28247 0.698242,0 1.174316,0.35547 0.476075,0.35547 0.663331,0.99976 l -0.606202,0.14282 q -0.161865,-0.50781 -0.469726,-0.7395 -0.307862,-0.23169 -0.774414,-0.23169 -0.536377,0 -0.898194,0.25708 -0.358642,0.25708 -0.504638,0.69189 -0.145996,0.43164 -0.145996,0.89185 0,0.5935 0.171386,1.03784 0.174561,0.44116 0.539551,0.66016 0.36499,0.21899 0.790283,0.21899 0.517334,0 0.875977,-0.29834 0.358642,-0.29834 0.485596,-0.8855 z M 82.16062,150 80.357886,145.34717 h 0.666504 l 1.209228,3.38012 q 0.145996,0.40625 0.244385,0.76172 0.10791,-0.38086 0.250733,-0.76172 l 1.256835,-3.38012 h 0.628418 L 82.792212,150 Z"
     id="text7"
     class="tiny"
     style="font-size:6.5px;font-family:Arial, sans-serif;letter-spacing:0.3px;text-anchor:middle;fill:#ff7e79;fill-opacity:1"
     aria-label="CV" />
  <path
     d="m 19.18623,256 v -4.65283 h 0.615723 v 4.10376 h 2.291504 V 256 Z m 5.909815,0 v -4.65283 h 0.615722 V 256 Z m 1.994824,0 v -4.65283 h 0.631592 l 2.443848,3.65307 v -3.65307 h 0.590332 V 256 h -0.631592 l -2.443848,-3.65625 V 256 Z"
     id="text8"
     class="tiny"
     style="font-size:6.5px;font-family:Arial, sans-serif;letter-spacing:0.3px;text-anchor:middle;fill:#ff7e79;fill-opacity:1"
     aria-label="L IN" />
  <path
     d="m 20.560986,298 v -4.65283 h 2.062989 q 0.62207,0 0.9458,0.12695 0.323731,0.12378 0.517334,0.44116 0.193604,0.31739 0.193604,0.70142 0,0.49512 -0.320557,0.83472 -0.320556,0.3396 -0.990234,0.43164 0.244385,0.11743 0.371338,0.23169 0.269775,0.24755 0.510986,0.61889 L 24.661572,298 h -0.774414 l -0.615722,-0.96802 q -0.269776,-0.41894 -0.444336,-0.64111 -0.174561,-0.22217 -0.314209,-0.31104 -0.136475,-0.0889 -0.279297,-0.12378 -0.104737,-0.0222 -0.342774,-0.0222 H 21.176709 V 298 Z m 0.615723,-2.59937 h 1.323486 q 0.422119,0 0.660157,-0.0857 0.238037,-0.0889 0.361816,-0.2793 0.123779,-0.1936 0.123779,-0.41894 0,-0.33008 -0.241211,-0.54273 -0.238037,-0.21264 -0.755371,-0.21264 H 21.176709 Z M 27.756201,298 v -4.65283 h 0.615723 V 298 Z m 1.994824,0 v -4.65283 h 0.631592 l 2.443847,3.65307 v -3.65307 h 0.590332 V 298 h -0.631591 l -2.443848,-3.65625 V 298 Z"
     id="text9"
     class="tiny"
     style="font-size:6.5px;font-family:Arial, sans-serif;letter-spacing:0.3px;text-anchor:middle;fill:#ff7e79;fill-opacity:1"
     aria-label="R IN" />
  <path
     d="m 83.426001,256 v -4.65283 h 0.615723 v 4.10376 h 2.291504 V 256 Z m 5.617822,-2.26611 q 0,-1.15845 0.62207,-1.81226 0.622071,-0.65698 1.605957,-0.65698 0.644288,0 1.161622,0.30786 0.517334,0.30786 0.787109,0.86011 0.272949,0.54907 0.272949,1.24731 0,0.70777 -0.285644,1.26636 -0.285645,0.55859 -0.809327,0.84741 -0.523681,0.28565 -1.129882,0.28565 -0.656983,0 -1.174317,-0.31739 -0.517334,-0.31738 -0.783935,-0.86645 -0.266602,-0.54907 -0.266602,-1.16162 z m 0.634766,0.01 q 0,0.84106 0.450683,1.32666 0.453858,0.48242 1.136231,0.48242 0.695068,0 1.142578,-0.48877 0.450684,-0.48877 0.450684,-1.38696 0,-0.56812 -0.193604,-0.99024 -0.19043,-0.42529 -0.561768,-0.65698 -0.368164,-0.23486 -0.828369,-0.23486 -0.653808,0 -1.126709,0.45068 -0.469726,0.44751 -0.469726,1.49805 z m 7.961621,-2.39624 h 0.615722 v 2.68823 q 0,0.70142 -0.158691,1.11401 -0.158692,0.4126 -0.574463,0.67286 -0.412598,0.25708 -1.085449,0.25708 -0.653809,0 -1.06958,-0.22535 -0.415772,-0.22534 -0.593506,-0.65063 -0.177735,-0.42847 -0.177735,-1.16797 v -2.68823 h 0.615723 v 2.68506 q 0,0.6062 0.111084,0.89502 0.114258,0.28564 0.387207,0.44116 0.276123,0.15552 0.672852,0.15552 0.679199,0 0.968017,-0.30787 0.288819,-0.30786 0.288819,-1.18383 z M 100.76492,256 v -4.10376 h -1.532961 v -0.54907 h 3.687991 v 0.54907 h -1.53931 V 256 Z"
     id="text10"
     class="tiny"
     style="font-size:6.5px;font-family:Arial, sans-serif;letter-spacing:0.3px;text-anchor:middle;fill:#ff7e79;fill-opacity:1"
     aria-label="L OUT" />
  <path
     d="m 82.800757,298 v -4.65283 h 2.062988 q 0.62207,0 0.945801,0.12695 0.32373,0.12378 0.517334,0.44116 0.193603,0.31739 0.193603,0.70142 0,0.49512 -0.320556,0.83472 -0.320557,0.3396 -0.990235,0.43164 0.244385,0.11743 0.371338,0.23169 0.269776,0.24755 0.510987,0.61889 L 86.901343,298 h -0.774414 l -0.615723,-0.96802 q -0.269775,-0.41894 -0.444336,-0.64111 -0.17456,-0.22217 -0.314209,-0.31104 -0.136475,-0.0889 -0.279297,-0.12378 -0.104736,-0.0222 -0.342773,-0.0222 H 83.416479 V 298 Z m 0.615722,-2.59937 h 1.323487 q 0.422119,0 0.660156,-0.0857 0.238037,-0.0889 0.361816,-0.2793 0.12378,-0.1936 0.12378,-0.41894 0,-0.33008 -0.241211,-0.54273 -0.238037,-0.21264 -0.755371,-0.21264 h -1.472657 z m 6.2875,0.33326 q 0,-1.15845 0.622071,-1.81226 0.62207,-0.65698 1.605957,-0.65698 0.644287,0 1.161621,0.30786 0.517334,0.30786 0.787109,0.86011 0.272949,0.54907 0.272949,1.24731 0,0.70777 -0.285644,1.26636 -0.285645,0.55859 -0.809326,0.84741 -0.523682,0.28565 -1.129883,0.28565 -0.656983,0 -1.174317,-0.31739 -0.517334,-0.31738 -0.783935,-0.86645 -0.266602,-0.54907 -0.266602,-1.16162 z m 0.634766,0.01 q 0,0.84106 0.450684,1.32666 0.453857,0.48242 1.13623,0.48242 0.695068,0 1.142578,-0.48877 0.450684,-0.48877 0.450684,-1.38696 0,-0.56812 -0.193604,-0.99024 -0.190429,-0.42529 -0.561767,-0.65698 -0.368164,-0.23486 -0.828369,-0.23486 -0.653809,0 -1.126709,0.45068 -0.469727,0.44751 -0.469727,1.49805 z m 7.961625,-2.39624 h 0.61572 v 2.68823 q 0,0.70142 -0.15869,1.11401 -0.15869,0.4126 -0.57447,0.67286 -0.412593,0.25708 -1.085445,0.25708 -0.653809,0 -1.06958,-0.22535 -0.415772,-0.22534 -0.593506,-0.65063 -0.177734,-0.42847 -0.177734,-1.16797 v -2.68823 h 0.615722 v 2.68506 q 0,0.6062 0.111084,0.89502 0.114258,0.28564 0.387207,0.44116 0.276123,0.15552 0.672852,0.15552 0.679199,0 0.96802,-0.30787 0.28882,-0.30786 0.28882,-1.18383 z M 101.42507,298 v -4.10376 h -1.53296 v -0.54907 h 3.68799 v 0.54907 h -1.5393 V 298 Z"
     id="text11"
     class="tiny"
     style="font-size:6.5px;font-family:Arial, sans-serif;letter-spacing:0.3px;text-anchor:middle;fill:#ff7e79;fill-opacity:1"
     aria-label="R OUT" />
  <path
     style="font-weight:bold;font-size:13.3333px;font-family:Arial;-inkscape-font-specification:'Arial Bold';text-align:center;text-anchor:middle;fill:#ff7e79;stroke-width:1.002"
     d="m 16.556078,28.837656 v -9.544247 h 1.874995 l 3.90624,6.373682 v -6.373682 h 1.79036 v 9.544247 h -1.933589 l -3.847646,-6.223943 v 6.223943 z m 9.60935,0 v -9.544247 h 7.076805 v 1.61458 h -5.149726 v 2.11588 h 4.791654 v 1.608068 h -4.791654 v 2.59765 h 5.332017 v 1.608069 z m 8.886695,-9.544247 h 3.522127 q 1.191403,0 1.816402,0.182292 0.839841,0.247395 1.438798,0.878904 0.598957,0.631508 0.911456,1.549475 0.312499,0.911456 0.312499,2.252598 0,1.178383 -0.292968,2.031245 -0.358072,1.041664 -1.022133,1.686194 -0.5013,0.48828 -1.354163,0.761717 -0.638019,0.201822 -1.705725,0.201822 h -3.626293 z m 1.927079,1.61458 v 6.321598 H 38.418 q 0.80729,0 1.165362,-0.09114 0.468749,-0.117188 0.774738,-0.397135 0.312499,-0.279947 0.507811,-0.917966 0.195312,-0.64453 0.195312,-1.751298 0,-1.106768 -0.195312,-1.699214 -0.195312,-0.592447 -0.546874,-0.924477 -0.351561,-0.332031 -0.891925,-0.449218 -0.403644,-0.09115 -1.582027,-0.09115 z m 11.419242,7.929667 v -9.544247 h 4.055979 q 1.529944,0 2.220047,0.260416 0.696612,0.253906 1.113278,0.911456 0.416666,0.657551 0.416666,1.503903 0,1.074216 -0.631509,1.777339 -0.631509,0.696613 -1.888016,0.878904 0.624998,0.364582 1.028643,0.800779 0.410155,0.436197 1.100258,1.549476 l 1.165361,1.861974 H 54.67447 l -1.393226,-2.076818 q -0.742186,-1.113278 -1.015622,-1.399736 -0.273437,-0.292968 -0.579426,-0.397134 -0.305989,-0.110677 -0.97005,-0.110677 h -0.390624 v 3.984365 z m 1.927078,-5.507799 H 51.7513 q 1.386715,0 1.731766,-0.117187 0.345052,-0.117187 0.540364,-0.403645 0.195312,-0.286457 0.195312,-0.716144 0,-0.481769 -0.260416,-0.774737 -0.253906,-0.299479 -0.722655,-0.377603 -0.234374,-0.03255 -1.406246,-0.03255 h -1.503903 z m 7.695293,5.507799 v -9.544247 h 7.076805 v 1.61458 h -5.149727 v 2.11588 h 4.791655 v 1.608068 h -4.791655 v 2.59765 h 5.332018 v 1.608069 z m 8.893207,0 v -9.544247 h 3.092441 q 1.757808,0 2.29166,0.143229 0.820311,0.214843 1.373695,0.937498 0.553384,0.716144 0.553384,1.855464 0,0.878904 -0.31901,1.477861 -0.319009,0.598956 -0.8138,0.944008 -0.48828,0.33854 -0.996091,0.449217 -0.690102,0.136719 -1.998693,0.136719 h -1.256507 v 3.600251 z m 1.927079,-7.929667 v 2.708326 h 1.054685 q 1.13932,0 1.523433,-0.149739 0.384114,-0.149739 0.598957,-0.468749 0.221354,-0.31901 0.221354,-0.742186 0,-0.520832 -0.305989,-0.859372 -0.305989,-0.338541 -0.774738,-0.423176 -0.345051,-0.0651 -1.386715,-0.0651 z m 6.966129,7.929667 v -9.544247 h 7.076805 v 1.61458 h -5.149727 v 2.11588 h 4.791655 v 1.608068 h -4.791655 v 2.59765 h 5.332018 v 1.608069 z m 17.499953,0 h -2.096349 l -0.833331,-2.167963 h -3.815095 l -0.787758,2.167963 h -2.044266 l 3.717439,-9.544247 h 2.037755 z m -3.548168,-3.776032 -1.315101,-3.541658 -1.289059,3.541658 z m 5.729156,3.776032 v -7.929667 h -2.832024 v -1.61458 h 7.584613 v 1.61458 h -2.825511 v 7.929667 z"
     id="text1"
     aria-label="NED REPEAT" />
  <g
     transform="matrix(1.6722989,0,0,1.6988345,37.691587,-75.62204)"
     id="layer1-7"
     inkscape:label="Layer 1">
    <rect
       y="256.12662"
       x="29.52006"
       height="1.6536458"
       width="7.2760415"
       id="rect823"
       style="fill:#ffffff;fill-opacity:1;stroke:none;stroke-width:0.710598;stroke-miterlimit:4;stroke-dasharray:none;stroke-opacity:1" />
    <rect
       y="256.57309"
       x="28.643627"
       height="0.51248246"
       width="9.0803432"
       id="rect821"
       style="fill:#ffffff;fill-opacity:1;stroke:none;stroke-width:0.176948;stroke-miterlimit:4;stroke-dasharray:none;stroke-opacity:1" />
    <ellipse
       ry="5.8699069"
       rx="6.1973119"
       cy="250.78661"
       cx="33.068214"
       id="path817"
       style="fill:#ffffff;fill-opacity:1;stroke:none;stroke-width:0.294763;stroke-miterlimit:4;stroke-dasharray:none;stroke-opacity:1" />
    <rect
       y="257.08557"
       x="28.265131"
       height="4.3030396"
       width="9.541522"
       id="rect819"
       style="fill:#ffffff;fill-opacity:1;stroke:none;stroke-width:0.236954;stroke-miterlimit:4;stroke-dasharray:none;stroke-opacity:1" />
    <path
       style="fill:#54b6fc;stroke-width:0.434238"
       d="m 28.040353,261.67777 c -0.05624,-0.1049 -0.09132,-1.05343 -0.09132,-2.46939 0,-2.62823 -0.06483,-2.41007 0.868669,-2.92327 0.298327,-0.16393 0.542417,-0.32331 0.542417,-0.35402 0,-0.0309 -0.162318,-0.16826 -0.360716,-0.30583 -1.028016,-0.71241 -2.013971,-2.17766 -2.338877,-3.47584 -0.201325,-0.80442 -0.134174,-2.39054 0.13451,-3.17721 1.033244,-3.02511 4.386038,-4.85502 7.661927,-4.18175 2.136444,0.4391 3.832748,1.7715 4.690824,3.6846 0.361925,0.8069 0.484002,1.41362 0.481552,2.39329 -0.0043,1.76252 -0.804317,3.40089 -2.221636,4.55038 -0.254647,0.20641 -0.463011,0.4065 -0.463011,0.44439 0,0.038 0.188503,0.17638 0.418915,0.30774 0.88078,0.5022 0.815782,0.26078 0.815782,3.02947 0,1.77735 -0.02862,2.465 -0.105831,2.54221 -0.07977,0.0796 -1.316324,0.10568 -5.023888,0.10568 -4.772077,0 -4.920765,-0.006 -5.009351,-0.17069 z m 4.778272,-1.34136 c 0.02029,-0.72066 0.0537,-0.91258 0.172084,-0.98706 0.106484,-0.067 0.185415,-0.0605 0.286623,0.0243 0.110188,0.0915 0.139673,0.2998 0.139673,0.98705 v 0.87111 h 2.031202 c 1.725502,0 2.038854,-0.0189 2.082046,-0.13248 0.118689,-0.30933 -0.0843,-0.54865 -1.048716,-1.23644 -0.806681,-0.57531 -0.992,-0.74828 -0.992,-0.92603 0,-0.17285 0.05069,-0.22425 0.242529,-0.24644 l 0.242526,-0.0279 v -0.72694 c 0,-0.82266 0.11329,-1.0851 0.425635,-0.98597 0.182308,0.0579 0.191777,0.11143 0.193075,1.09112 6.9e-4,0.56673 0.03051,1.07216 0.06615,1.12322 0.107317,0.15365 0.691445,0.5686 0.80071,0.5686 0.07253,0 0.101903,-0.37768 0.101903,-1.30922 0,-1.48548 0.04525,-1.38286 -0.823095,-1.86798 l -0.514419,-0.28745 -0.896236,0.29918 c -0.869904,0.29041 -0.937695,0.2992 -2.307746,0.29891 -1.355532,-2.1e-4 -1.441911,-0.0113 -2.177833,-0.27426 l -0.766317,-0.27401 -0.710913,0.40097 -0.710915,0.40096 v 1.35053 c 0,0.7428 0.02272,1.35058 0.05046,1.35058 0.02775,0 0.226187,-0.10309 0.440962,-0.22887 l 0.390524,-0.22887 0.0014,-0.89557 c 0.0016,-1.14751 0.206306,-1.60144 0.561721,-1.24599 0.108544,0.1085 0.142513,0.31853 0.142513,0.88028 v 0.7378 l 0.290718,-0.0471 c 0.315025,-0.0511 0.543194,0.11558 0.458905,0.33517 -0.02597,0.0676 -0.562393,0.43193 -1.192126,0.80964 -1.113533,0.66789 -1.144968,0.69508 -1.144968,0.9907 v 0.30396 h 2.069441 2.069444 z m 2.265337,-4.35748 c 1.820054,-0.60937 3.301106,-2.14018 3.754405,-3.88051 0.141672,-0.5439 0.182494,-2.03256 0.06101,-2.22398 -0.0547,-0.0862 -0.514454,-0.10647 -1.993182,-0.0881 l -1.922097,0.0243 -0.285943,0.79373 c -0.250451,0.69526 -0.311823,0.79372 -0.494567,0.79372 -0.193669,0 -0.219614,-0.0593 -0.361764,-0.82692 -0.233437,-1.26061 -0.264438,-1.24093 -0.550459,0.34982 -0.250913,1.39568 -0.282965,1.49134 -0.499452,1.49134 -0.208819,0 -0.19843,0.0455 -0.591264,-2.59459 -0.179846,-1.20877 -0.366691,-2.21079 -0.415197,-2.22673 -0.04851,-0.0164 -0.346157,0.47702 -0.661443,1.09535 l -0.573255,1.12428 -1.649981,0.0244 -1.649981,0.0243 -0.05961,0.3176 c -0.100912,0.53789 0.02055,1.63287 0.25608,2.31038 0.480987,1.38307 1.462121,2.47313 2.838905,3.15409 1.070426,0.52942 1.68831,0.6568 2.998555,0.61816 0.870867,-0.027 1.189545,-0.0752 1.799239,-0.27931 z m -2.582339,-0.34598 c -0.501349,-0.14204 -0.612279,-0.23104 -0.568647,-0.45582 0.02803,-0.14447 0.130451,-0.16555 0.868148,-0.17909 0.460004,-0.008 0.975273,-0.0281 1.145044,-0.0441 0.276178,-0.0243 0.311494,-0.006 0.335474,0.20237 0.023,0.19722 -0.02543,0.25187 -0.329357,0.37355 -0.522805,0.20913 -0.965587,0.24078 -1.450662,0.1031 z m -1.6422,-2.07469 c -0.09701,-0.0972 -0.176384,-0.25567 -0.176384,-0.35282 0,-0.24453 0.308426,-0.52913 0.573253,-0.52913 0.264818,0 0.573252,0.28468 0.573252,0.52913 0,0.24455 -0.308429,0.52918 -0.573252,0.52918 -0.121275,0 -0.299857,-0.0793 -0.396869,-0.17636 z m 3.439517,-0.0882 c -0.232761,-0.23267 -0.222508,-0.40285 0.0401,-0.66546 0.243582,-0.24345 0.329798,-0.25996 0.605107,-0.11502 0.242042,0.12748 0.321863,0.24591 0.323575,0.48022 0.0031,0.43406 -0.63668,0.63239 -0.968767,0.30029 z m -1.151475,-4.27736 c 0.296559,-1.78581 0.575578,-1.83207 0.874871,-0.14501 0.09772,0.55084 0.197295,1.02113 0.221263,1.04511 0.08271,0.0828 0.212362,-0.0613 0.273139,-0.30344 0.117052,-0.46642 0.107419,-0.46436 2.176972,-0.46436 2.188984,0 2.146871,0.0162 1.845872,-0.66529 -0.655344,-1.4815 -2.160669,-2.71162 -3.887876,-3.17706 -0.773684,-0.20858 -2.314597,-0.21425 -3.086746,-0.0113 -1.862761,0.48917 -3.433992,1.84034 -4.06194,3.49292 l -0.172218,0.45328 1.47768,-0.0243 1.477684,-0.0244 0.705541,-1.38465 c 0.388047,-0.76156 0.755433,-1.43456 0.816413,-1.4955 0.244962,-0.24482 0.364055,0.12518 0.643002,1.99713 0.151683,1.01798 0.296644,1.88465 0.322123,1.92588 0.102882,0.16637 0.192723,-0.12627 0.374219,-1.21922 z"
       id="path4012-8"
       inkscape:connector-curvature="0" />
    <path
       style="fill:#a0a0a0;stroke-width:0.434238"
       d="m 28.040353,261.67777 c -0.05624,-0.1049 -0.09132,-1.05343 -0.09132,-2.46939 0,-2.62823 -0.06483,-2.41007 0.868669,-2.92327 0.298327,-0.16393 0.542417,-0.32331 0.542417,-0.35402 0,-0.0309 -0.162318,-0.16826 -0.360716,-0.30583 -1.028016,-0.71241 -2.013971,-2.17766 -2.338877,-3.47584 -0.201325,-0.80442 -0.134174,-2.39054 0.13451,-3.17721 1.033244,-3.02511 4.386038,-4.85502 7.661927,-4.18175 2.136444,0.4391 3.832748,1.7715 4.690824,3.6846 0.361925,0.8069 0.484002,1.41362 0.481552,2.39329 -0.0043,1.76252 -0.804317,3.40089 -2.221636,4.55038 -0.254647,0.20641 -0.463011,0.4065 -0.463011,0.44439 0,0.038 0.188503,0.17638 0.418915,0.30774 0.88078,0.5022 0.815782,0.26078 0.815782,3.02947 0,1.77735 -0.02862,2.465 -0.105831,2.54221 -0.07977,0.0796 -1.316324,0.10568 -5.023888,0.10568 -4.772077,0 -4.920765,-0.006 -5.009351,-0.17069 z m 4.778272,-1.34136 c 0.02029,-0.72066 0.0537,-0.91258 0.172084,-0.98706 0.106484,-0.067 0.185415,-0.0605 0.286623,0.0243 0.110188,0.0915 0.139673,0.2998 0.139673,0.98705 v 0.87111 h 2.031202 c 1.725502,0 2.038854,-0.0189 2.082046,-0.13248 0.118689,-0.30933 -0.0843,-0.54865 -1.048716,-1.23644 -0.806681,-0.57531 -0.992,-0.74828 -0.992,-0.92603 0,-0.17285 0.05069,-0.22425 0.242529,-0.24644 l 0.242526,-0.0279 v -0.72694 c 0,-0.82266 0.11329,-1.0851 0.425635,-0.98597 0.182308,0.0579 0.191777,0.11143 0.193075,1.09112 6.9e-4,0.56673 0.03051,1.07216 0.06615,1.12322 0.107317,0.15365 0.691445,0.5686 0.80071,0.5686 0.07253,0 0.101903,-0.37768 0.101903,-1.30922 0,-1.48548 0.04525,-1.38286 -0.823095,-1.86798 l -0.514419,-0.28745 -0.896236,0.29918 c -0.869904,0.29041 -0.937695,0.2992 -2.307746,0.29891 -1.355532,-2.1e-4 -1.441911,-0.0113 -2.177833,-0.27426 l -0.766317,-0.27401 -0.710913,0.40097 -0.710915,0.40096 v 1.35053 c 0,0.7428 0.02272,1.35058 0.05046,1.35058 0.02775,0 0.226187,-0.10309 0.440962,-0.22887 l 0.390524,-0.22887 0.0014,-0.89557 c 0.0016,-1.14751 0.206306,-1.60144 0.561721,-1.24599 0.108544,0.1085 0.142513,0.31853 0.142513,0.88028 v 0.7378 l 0.290718,-0.0471 c 0.315025,-0.0511 0.543194,0.11558 0.458905,0.33517 -0.02597,0.0676 -0.562393,0.43193 -1.192126,0.80964 -1.113533,0.66789 -1.144968,0.69508 -1.144968,0.9907 v 0.30396 h 2.069441 2.069444 z m 2.265337,-4.35748 c 1.403562,-0.46993 2.640938,-1.50058 3.294283,-2.74387 0.429067,-0.81653 0.595175,-1.49004 0.593708,-2.40729 -0.002,-1.2675 0.205601,-1.15 -2.032309,-1.15 -1.442955,0 -1.942613,0.0275 -1.996101,0.11041 -0.03924,0.0606 -0.191398,0.42737 -0.338104,0.81498 -0.382438,1.0104 -0.497129,0.9789 -0.708436,-0.1945 -0.249425,-1.38497 -0.369803,-1.31205 -0.674781,0.40874 -0.236279,1.33315 -0.338408,1.62908 -0.50309,1.45776 -0.04428,-0.0461 -0.22394,-1.07598 -0.399194,-2.28859 -0.378048,-2.61568 -0.375281,-2.60172 -0.515638,-2.60172 -0.06054,0 -0.377093,0.53579 -0.703448,1.19062 l -0.593372,1.1906 h -1.626578 -1.626579 l -0.06131,0.40891 c -0.234007,1.5605 0.483321,3.42764 1.761718,4.58559 0.632883,0.57328 1.868907,1.21483 2.698432,1.40062 0.933964,0.20911 2.512332,0.12546 3.430809,-0.18205 z m -2.582339,-0.34598 c -0.501349,-0.14204 -0.612279,-0.23104 -0.568647,-0.45582 0.02803,-0.14447 0.130451,-0.16555 0.868148,-0.17909 0.460004,-0.008 0.975273,-0.0281 1.145044,-0.0441 0.276178,-0.0243 0.311494,-0.006 0.335474,0.20237 0.023,0.19722 -0.02543,0.25187 -0.329357,0.37355 -0.522805,0.20913 -0.965587,0.24078 -1.450662,0.1031 z m -1.6422,-2.07469 c -0.09701,-0.0972 -0.176384,-0.25567 -0.176384,-0.35282 0,-0.24453 0.308426,-0.52913 0.573253,-0.52913 0.264818,0 0.573252,0.28468 0.573252,0.52913 0,0.24455 -0.308429,0.52918 -0.573252,0.52918 -0.121275,0 -0.299857,-0.0793 -0.396869,-0.17636 z m 3.439517,-0.0882 c -0.232761,-0.23267 -0.222508,-0.40285 0.0401,-0.66546 0.243582,-0.24345 0.329798,-0.25996 0.605107,-0.11502 0.242042,0.12748 0.321863,0.24591 0.323575,0.48022 0.0031,0.43406 -0.63668,0.63239 -0.968767,0.30029 z m -1.097809,-4.10189 c 0.211607,-1.21013 0.333943,-1.55258 0.494567,-1.38443 0.03281,0.0344 0.152225,0.57839 0.265306,1.20896 0.232869,1.29834 0.343523,1.42064 0.618496,0.68352 l 0.172705,-0.46302 h 1.972971 c 1.085132,0 1.99242,-0.0315 2.016195,-0.0698 0.08023,-0.12991 -0.357483,-1.05886 -0.773608,-1.642 -0.728041,-1.02028 -1.981677,-1.859 -3.316077,-2.21859 -0.773686,-0.20857 -2.314601,-0.21426 -3.086747,-0.0113 -1.084749,0.28486 -1.999152,0.80872 -2.786328,1.59624 -0.677355,0.67767 -1.19903,1.50881 -1.403089,2.23545 l -0.05574,0.19856 1.439077,-9.8e-4 c 0.791494,-6.2e-4 1.483847,-0.0306 1.538565,-0.0662 0.05473,-0.0355 0.422055,-0.70973 0.816304,-1.49793 0.672478,-1.34451 0.811339,-1.54707 0.929474,-1.35595 0.02624,0.0426 0.169945,0.92549 0.319337,1.9623 0.278277,1.93132 0.382411,2.3719 0.526552,2.22775 0.04457,-0.0447 0.184959,-0.67541 0.312001,-1.40192 z"
       id="path4010-0"
       inkscape:connector-curvature="0" />
    <path
       style="fill:#179cfd;stroke-width:0.434238"
       d="m 28.084301,261.62139 c -0.09334,-0.2432 -0.06068,-4.53422 0.03585,-4.71459 0.04932,-0.0922 0.366818,-0.32942 0.705541,-0.52725 0.338727,-0.19778 0.615865,-0.39635 0.615865,-0.44114 0,-0.0449 -0.225402,-0.25131 -0.5009,-0.45914 -1.007366,-0.75955 -1.863496,-2.05429 -2.182561,-3.30077 -0.176274,-0.68859 -0.179006,-2.04001 -0.0054,-2.72476 0.07324,-0.28909 0.298305,-0.86296 0.500144,-1.27526 0.293281,-0.59912 0.51896,-0.90166 1.123813,-1.50667 0.628099,-0.62825 0.899287,-0.82698 1.594434,-1.16847 1.206772,-0.59277 1.759323,-0.7188 3.130615,-0.71416 0.806735,0.002 1.311968,0.0495 1.704825,0.15746 3.200698,0.88036 5.194794,3.81447 4.65392,6.84772 -0.248316,1.39251 -1.241594,2.98286 -2.337264,3.74216 -0.198811,0.13767 -0.36148,0.28303 -0.36148,0.3228 0,0.0398 0.277437,0.23428 0.616524,0.43238 0.393273,0.22968 0.633784,0.4307 0.664178,0.55509 0.02625,0.10714 0.03649,1.24673 0.02299,2.53213 l -0.02488,2.33712 -4.951132,0.0216 c -4.457619,0.0215 -4.956494,0.008 -5.004941,-0.11734 z m 4.796794,-1.27231 c 0.04062,-0.85254 0.0581,-0.92604 0.220478,-0.92604 0.162399,0 0.179874,0.0735 0.22048,0.92604 l 0.0441,0.92602 h 2.11542 c 1.979416,0 2.117418,-0.0113 2.146485,-0.16124 0.07415,-0.38501 -0.08786,-0.58193 -1.039039,-1.26279 -0.5321,-0.38086 -0.988888,-0.74572 -1.015085,-0.81071 -0.07133,-0.17694 0.02596,-0.27867 0.266821,-0.27867 0.212067,0 0.215285,-0.0113 0.215285,-0.78294 0,-0.57789 0.03363,-0.81084 0.12842,-0.88952 0.247505,-0.20531 0.312538,-0.006 0.312538,0.96492 0,0.5267 0.02407,1.0201 0.05321,1.09639 0.07569,0.19722 0.895628,0.78122 1.003392,0.71461 0.137026,-0.0848 0.118488,-2.70962 -0.02028,-2.88339 -0.06062,-0.0761 -0.366131,-0.28527 -0.678882,-0.46529 -0.638192,-0.36731 -0.664782,-0.36715 -1.680277,0.0113 -0.620191,0.23022 -0.749452,0.24593 -2.072528,0.24835 -1.367516,0.002 -1.436372,-0.006 -2.229991,-0.28332 l -0.818897,-0.286 -0.707163,0.41086 c -0.388942,0.22589 -0.744718,0.48108 -0.790616,0.56686 -0.04592,0.0857 -0.08344,0.71537 -0.08344,1.39919 0,0.99797 0.02488,1.25279 0.126404,1.29174 0.157447,0.0603 0.905595,-0.36921 1.022127,-0.58694 0.04739,-0.0885 0.0862,-0.57804 0.0862,-1.08767 0,-0.95796 0.0901,-1.20675 0.322052,-0.88956 0.07719,0.10547 0.118894,0.4201 0.118894,0.89644 v 0.73386 l 0.360543,-0.0576 c 0.341277,-0.0546 0.358954,-0.0466 0.330725,0.14961 -0.02299,0.16068 -0.280994,0.35508 -1.148549,0.86561 -1.145685,0.67416 -1.30229,0.84178 -1.171412,1.25421 0.05178,0.16311 0.145382,0.16933 2.186334,0.14688 l 2.132238,-0.0243 z m 2.160723,-4.26226 c 1.769875,-0.57963 3.167996,-1.90262 3.76078,-3.55863 0.192048,-0.53652 0.328288,-2.18171 0.217288,-2.62393 l -0.05685,-0.22641 h -1.977453 c -1.485114,0 -1.995217,0.0273 -2.0488,0.11041 -0.03924,0.0605 -0.191399,0.42736 -0.338105,0.81497 -0.382437,1.0104 -0.497129,0.97892 -0.708437,-0.1945 -0.249424,-1.38497 -0.369803,-1.31205 -0.674782,0.40873 -0.236276,1.33315 -0.338406,1.62909 -0.503087,1.45777 -0.04428,-0.046 -0.223941,-1.07597 -0.399196,-2.28861 -0.378048,-2.61567 -0.375282,-2.6017 -0.515636,-2.6017 -0.06054,0 -0.377094,0.53578 -0.703448,1.19062 l -0.593373,1.19063 h -1.628884 c -1.902339,0 -1.81147,-0.0499 -1.81147,0.99426 0,0.80431 0.255081,1.83651 0.632916,2.56111 0.424332,0.81377 1.610253,1.95985 2.460638,2.37796 1.097382,0.53952 1.794389,0.68665 3.07994,0.64999 0.892825,-0.0244 1.23655,-0.0755 1.807954,-0.26241 z m -2.425303,-0.51429 c -0.478805,-0.10703 -0.703657,-0.2876 -0.549872,-0.44139 0.07642,-0.0766 0.231706,-0.0808 0.585546,-0.0162 0.356597,0.0647 0.599579,0.0571 0.936494,-0.0291 0.48231,-0.12329 0.615302,-0.0987 0.615302,0.11422 0,0.28859 -0.958357,0.51378 -1.58747,0.37302 z m -1.706091,-2.08738 c -0.189693,-0.20965 -0.184796,-0.3936 0.01543,-0.57471 0.232894,-0.21073 0.518062,-0.17963 0.684657,0.0743 0.133834,0.20423 0.133834,0.23669 0,0.44096 -0.171756,0.26213 -0.491832,0.2892 -0.699982,0.0593 z m 3.421615,-0.14148 c -0.271481,-0.41435 0.198702,-0.82027 0.625904,-0.54036 0.247452,0.16205 0.279238,0.41467 0.07757,0.61634 -0.207737,0.20776 -0.541169,0.17179 -0.703478,-0.0761 z m -1.137669,-3.97553 c 0.211606,-1.21013 0.333942,-1.55259 0.494569,-1.38441 0.03282,0.0344 0.152224,0.57837 0.265305,1.20895 0.23276,1.29772 0.34355,1.42057 0.617887,0.68512 l 0.172107,-0.46134 2.000835,-0.0243 c 2.352706,-0.0279 2.281076,0.0162 1.723959,-1.05794 -0.429635,-0.82824 -1.435244,-1.8525 -2.279603,-2.32184 -3.036046,-1.6875 -6.967182,-0.61741 -8.490501,2.31125 -0.205682,0.39548 -0.373989,0.82207 -0.373989,0.94808 v 0.22911 l 1.433135,-9.7e-4 c 0.788221,-6e-4 1.477901,-0.0306 1.53262,-0.0663 0.05473,-0.0355 0.422054,-0.7097 0.816303,-1.49792 0.672479,-1.34449 0.811342,-1.54706 0.929474,-1.35594 0.02625,0.0425 0.169945,0.9255 0.319337,1.96229 0.278278,1.93132 0.382411,2.37191 0.526555,2.22776 0.04455,-0.0447 0.184956,-0.67543 0.311999,-1.40192 z"
       id="path4008-4"
       inkscape:connector-curvature="0" />
    <path
       style="fill:#050505;fill-opacity:1;stroke-width:0.434238"
       d="m 28.084301,261.62139 c -0.09334,-0.2432 -0.06068,-4.53422 0.03585,-4.71459 0.04932,-0.0922 0.366818,-0.32942 0.705541,-0.52725 0.338727,-0.19778 0.615865,-0.39635 0.615865,-0.44114 0,-0.0449 -0.225402,-0.25131 -0.5009,-0.45914 -1.007366,-0.75955 -1.863496,-2.05429 -2.182561,-3.30077 -0.176274,-0.68859 -0.179006,-2.04001 -0.0054,-2.72476 0.07324,-0.28909 0.298305,-0.86296 0.500144,-1.27526 0.293281,-0.59912 0.51896,-0.90166 1.123813,-1.50667 0.628099,-0.62825 0.899287,-0.82698 1.594434,-1.16847 1.206772,-0.59277 1.759323,-0.7188 3.130615,-0.71416 0.806735,0.002 1.311968,0.0495 1.704825,0.15746 3.200698,0.88036 5.194794,3.81447 4.65392,6.84772 -0.248316,1.39251 -1.241594,2.98286 -2.337264,3.74216 -0.198811,0.13767 -0.36148,0.28303 -0.36148,0.3228 0,0.0398 0.277437,0.23428 0.616524,0.43238 0.393273,0.22968 0.633784,0.4307 0.664178,0.55509 0.02625,0.10714 0.03649,1.24673 0.02299,2.53213 l -0.02488,2.33712 -4.951132,0.0216 c -4.457619,0.0215 -4.956494,0.008 -5.004941,-0.11734 z m 4.796794,-1.27231 c 0.04062,-0.85254 0.0581,-0.92604 0.220478,-0.92604 0.162399,0 0.179874,0.0735 0.22048,0.92604 l 0.0441,0.92602 h 2.11542 c 1.979416,0 2.117418,-0.0113 2.146485,-0.16124 0.07415,-0.38501 -0.08786,-0.58193 -1.039039,-1.26279 -0.5321,-0.38086 -0.988888,-0.74572 -1.015085,-0.81071 -0.07133,-0.17694 0.02596,-0.27867 0.266821,-0.27867 0.212067,0 0.215285,-0.0113 0.215285,-0.78294 0,-0.57789 0.03363,-0.81084 0.12842,-0.88952 0.247505,-0.20531 0.312538,-0.006 0.312538,0.96492 0,0.5267 0.02407,1.0201 0.05321,1.09639 0.07569,0.19722 0.895628,0.78122 1.003392,0.71461 0.137026,-0.0848 0.118488,-2.70962 -0.02028,-2.88339 -0.06062,-0.0761 -0.366131,-0.28527 -0.678882,-0.46529 -0.638192,-0.36731 -0.664782,-0.36715 -1.680277,0.0113 -0.620191,0.23022 -0.749452,0.24593 -2.072528,0.24835 -1.367516,0.002 -1.436372,-0.006 -2.229991,-0.28332 l -0.818897,-0.286 -0.707163,0.41086 c -0.388942,0.22589 -0.744718,0.48108 -0.790616,0.56686 -0.04592,0.0857 -0.08344,0.71537 -0.08344,1.39919 0,0.99797 0.02488,1.25279 0.126404,1.29174 0.157447,0.0603 0.905595,-0.36921 1.022127,-0.58694 0.04739,-0.0885 0.0862,-0.57804 0.0862,-1.08767 0,-0.95796 0.0901,-1.20675 0.322052,-0.88956 0.07719,0.10547 0.118894,0.4201 0.118894,0.89644 v 0.73386 l 0.360543,-0.0576 c 0.341277,-0.0546 0.358954,-0.0466 0.330725,0.14961 -0.02299,0.16068 -0.280994,0.35508 -1.148549,0.86561 -1.145685,0.67416 -1.30229,0.84178 -1.171412,1.25421 0.05178,0.16311 0.145382,0.16933 2.186334,0.14688 l 2.132238,-0.0243 z m 2.160723,-4.26226 c 1.798336,-0.58895 3.232202,-1.974 3.804655,-3.6751 0.213148,-0.63339 0.221914,-2.36663 0.01569,-3.09953 -0.356769,-1.26779 -1.453375,-2.62144 -2.672695,-3.2992 -2.477562,-1.37709 -5.596645,-0.9588 -7.541693,1.01144 -1.633552,1.65471 -2.027872,4.11443 -0.994473,6.2034 0.44418,0.89788 1.576714,2.0172 2.500652,2.47147 1.097382,0.53953 1.794387,0.68664 3.079941,0.64999 0.892823,-0.0243 1.236549,-0.0756 1.807951,-0.26241 z m -2.425303,-0.51429 c -0.478805,-0.10703 -0.703657,-0.2876 -0.549872,-0.44139 0.07642,-0.0766 0.231706,-0.0808 0.585546,-0.0162 0.356597,0.0647 0.599579,0.0571 0.936494,-0.0291 0.48231,-0.12329 0.615302,-0.0987 0.615302,0.11422 0,0.28859 -0.958357,0.51378 -1.58747,0.37302 z m -1.706091,-2.08738 c -0.189693,-0.20965 -0.184796,-0.3936 0.01543,-0.57471 0.232894,-0.21073 0.518062,-0.17963 0.684657,0.0743 0.133834,0.20423 0.133834,0.23669 0,0.44096 -0.171756,0.26213 -0.491832,0.2892 -0.699982,0.0593 z m 3.421615,-0.14148 c -0.271481,-0.41435 0.198702,-0.82027 0.625904,-0.54036 0.247452,0.16205 0.279238,0.41467 0.07757,0.61634 -0.207737,0.20776 -0.541169,0.17179 -0.703478,-0.0761 z"
       id="path4006-5"
       inkscape:connector-curvature="0" />
  </g>
  <path
     d="m 18.088377,359.11621 v -9.54424 h 1.874995 l 3.90624,6.37368 v -6.37368 h 1.79036 v 9.54424 h -1.933589 l -3.847646,-6.22394 v 6.22394 z m 13.60022,-2.20051 1.82292,0.30599 q -0.35156,1.0026 -1.11328,1.52994 -0.75521,0.52083 -1.89453,0.52083 -1.80338,0 -2.669262,-1.17838 -0.683592,-0.94401 -0.683592,-2.38281 0,-1.71874 0.898435,-2.68879 0.898439,-0.97656 2.272129,-0.97656 1.54297,0 2.43489,1.02213 0.89193,1.01562 0.85286,3.11848 h -4.58332 q 0.0195,0.8138 0.44271,1.26953 0.42318,0.44922 1.05468,0.44922 0.42969,0 0.72266,-0.23438 0.29297,-0.23437 0.4427,-0.7552 z m 0.10417,-1.84896 q -0.0195,-0.79426 -0.41015,-1.20442 -0.39063,-0.41667 -0.95052,-0.41667 -0.59896,0 -0.98958,0.4362 -0.39063,0.4362 -0.38412,1.18489 z m 9.64842,4.04947 h -1.69922 v -1.01562 q -0.42318,0.59245 -1.0026,0.88542 -0.57292,0.28645 -1.15885,0.28645 -1.19141,0 -2.04427,-0.95703 -0.84635,-0.96354 -0.84635,-2.68228 0,-1.75781 0.82682,-2.66926 0.82682,-0.91797 2.08984,-0.91797 1.15885,0 2.0052,0.96354 v -3.43749 h 1.82943 z m -4.8828,-3.60676 q 0,1.10677 0.30598,1.60156 0.44271,0.71614 1.23698,0.71614 0.63151,0 1.07422,-0.53385 0.4427,-0.54036 0.4427,-1.60807 0,-1.1914 -0.42968,-1.71223 -0.42969,-0.52735 -1.10026,-0.52735 -0.65104,0 -1.09375,0.52084 -0.43619,0.51432 -0.43619,1.54296 z m 6.70571,3.60676 v -9.54424 h 4.05598 q 1.52994,0 2.22004,0.26041 0.69662,0.25391 1.11328,0.91146 0.41667,0.65755 0.41667,1.5039 0,1.07422 -0.63151,1.77734 -0.63151,0.69661 -1.88802,0.8789 0.625,0.36459 1.02865,0.80078 0.41015,0.4362 1.10025,1.54948 l 1.16536,1.86197 h -2.30468 l -1.39322,-2.07681 q -0.74219,-1.11328 -1.01563,-1.39974 -0.27343,-0.29297 -0.57942,-0.39713 -0.30599,-0.11068 -0.97005,-0.11068 h -0.39062 v 3.98436 z m 1.92708,-5.5078 h 1.42577 q 1.38672,0 1.73177,-0.11718 0.34505,-0.11719 0.54036,-0.40365 0.19531,-0.28645 0.19531,-0.71614 0,-0.48177 -0.26041,-0.77474 -0.25391,-0.29948 -0.72266,-0.3776 -0.23437,-0.0326 -1.40624,-0.0326 h -1.5039 z m 12.23304,5.5078 v -1.03515 q -0.37761,0.55338 -0.9961,0.87239 -0.61197,0.31901 -1.29556,0.31901 -0.69662,0 -1.25,-0.30599 -0.55338,-0.30598 -0.80078,-0.85937 -0.2474,-0.55338 -0.2474,-1.52994 v -4.37499 h 1.82943 v 3.17707 q 0,1.45833 0.0977,1.79036 0.10416,0.32552 0.37109,0.52084 0.26693,0.1888 0.67708,0.1888 0.46875,0 0.83984,-0.25391 0.3711,-0.26041 0.50781,-0.63802 0.13672,-0.38411 0.13672,-1.86848 v -2.91666 h 1.82943 v 6.91404 z m 2.94921,-1.97265 1.83593,-0.27995 q 0.11719,0.53386 0.47526,0.81381 0.35807,0.27343 1.0026,0.27343 0.70963,0 1.06771,-0.26041 0.24088,-0.1823 0.24088,-0.48828 0,-0.20834 -0.13021,-0.34506 -0.13672,-0.1302 -0.61198,-0.24088 -2.21353,-0.48828 -2.80598,-0.89193 -0.82031,-0.55989 -0.82031,-1.55598 0,-0.89844 0.70964,-1.51041 0.70963,-0.61198 2.20051,-0.61198 1.41927,0 2.10937,0.46224 0.6901,0.46224 0.95052,1.36718 l -1.72526,0.31901 q -0.11068,-0.40364 -0.42317,-0.61849 -0.30599,-0.21484 -0.87891,-0.21484 -0.72265,0 -1.03515,0.20182 -0.20833,0.14323 -0.20833,0.37109 0,0.19532 0.18229,0.33204 0.24739,0.18229 1.70572,0.51432 1.46484,0.33203 2.04427,0.8138 0.57291,0.48828 0.57291,1.36067 0,0.95052 -0.79427,1.63411 -0.79426,0.68359 -2.35025,0.68359 -1.41276,0 -2.23958,-0.57291 -0.82031,-0.57292 -1.07421,-1.55599 z m 9.88278,-7.57159 v 3.5091 q 0.88542,-1.03515 2.11588,-1.03515 0.63151,0 1.13932,0.23437 0.50782,0.23438 0.76172,0.59896 0.26042,0.36458 0.35156,0.80729 0.0977,0.44271 0.0977,1.37369 v 4.05598 h -1.82942 v -3.65233 q 0,-1.08724 -0.10417,-1.38021 -0.10416,-0.29296 -0.37109,-0.46223 -0.26041,-0.17579 -0.65755,-0.17579 -0.45573,0 -0.8138,0.22136 -0.35807,0.22135 -0.52734,0.67057 -0.16276,0.44271 -0.16276,1.3151 v 3.46353 h -1.82942 v -9.54424 z"
     id="text1-3"
     style="font-weight:bold;font-size:13.3333px;font-family:Arial;-inkscape-font-specification:'Arial Bold';text-align:center;text-anchor:middle;fill:#ff7e79;stroke-width:1.002"
     aria-label="NedRush" />
</svg>
