<?xml version="1.0" encoding="UTF-8" standalone="no"?>
<svg
   width="150"
   height="380"
   viewBox="0 0 150 380"
   version="1.1"
   id="svg34"
   sodipodi:docname="Random8.svg"
   inkscape:version="1.3.2 (091e20e, 2023-11-25)"
   xmlns:inkscape="http://www.inkscape.org/namespaces/inkscape"
   xmlns:sodipodi="http://sodipodi.sourceforge.net/DTD/sodipodi-0.dtd"
   xmlns="http://www.w3.org/2000/svg"
   xmlns:svg="http://www.w3.org/2000/svg">
  <sodipodi:namedview
     id="namedview1"
     pagecolor="#ffffff"
     bordercolor="#000000"
     borderopacity="0.25"
     inkscape:showpageshadow="2"
     inkscape:pageopacity="0.0"
     inkscape:pagecheckerboard="0"
     inkscape:deskcolor="#d1d1d1"
     inkscape:zoom="2.7394737"
     inkscape:cx="74.831892"
     inkscape:cy="190"
     inkscape:window-width="1392"
     inkscape:window-height="1212"
     inkscape:window-x="762"
     inkscape:window-y="440"
     inkscape:window-maximized="0"
     inkscape:current-layer="svg34" />
  <defs
     id="defs1">
    <style
       id="style1">
      .panel  { fill: #2a2a2a; }
      .title  { font-family: Arial, sans-serif; font-size: 12px; font-weight: bold; fill: #ffffff; text-anchor: middle; }
      .hdr    { font-family: Arial, sans-serif; font-size: 6px; fill: #888888; text-anchor: middle; }
      .chnum  { font-family: Arial, sans-serif; font-size: 9px; font-weight: bold; fill: #dddddd; text-anchor: middle; }
      .plabel { font-family: Arial, sans-serif; font-size: 6px; fill: #aaaaaa; text-anchor: middle; }
      .io     { font-family: Arial, sans-serif; font-size: 7.5px; fill: #aaaaaa; text-anchor: middle; }
    </style>
  </defs>
  <!-- Background -->
  <rect
     class="panel"
     x="0"
     y="0"
     width="150"
     height="380"
     id="rect1"
     style="fill:#434343;fill-opacity:1" />
  <g
     transform="matrix(1.6722989,0,0,1.6988345,50.62671,-75.62204)"
     id="layer1-7"
     inkscape:label="Layer 1">
    <rect
       y="256.12662"
       x="29.52006"
       height="1.6536458"
       width="7.2760415"
       id="rect823"
       style="fill:#ffffff;fill-opacity:1;stroke:none;stroke-width:0.710598;stroke-miterlimit:4;stroke-dasharray:none;stroke-opacity:1" />
    <rect
       y="256.57309"
       x="28.643627"
       height="0.51248246"
       width="9.0803432"
       id="rect821"
       style="fill:#ffffff;fill-opacity:1;stroke:none;stroke-width:0.176948;stroke-miterlimit:4;stroke-dasharray:none;stroke-opacity:1" />
    <ellipse
       ry="5.8699069"
       rx="6.1973119"
       cy="250.78661"
       cx="33.068214"
       id="path817"
       style="fill:#ffffff;fill-opacity:1;stroke:none;stroke-width:0.294763;stroke-miterlimit:4;stroke-dasharray:none;stroke-opacity:1" />
    <rect
       y="257.08557"
       x="28.265131"
       height="4.3030396"
       width="9.541522"
       id="rect819"
       style="fill:#ffffff;fill-opacity:1;stroke:none;stroke-width:0.236954;stroke-miterlimit:4;stroke-dasharray:none;stroke-opacity:1" />
    <path
       style="fill:#54b6fc;stroke-width:0.434238"
       d="m 28.040353,261.67777 c -0.05624,-0.1049 -0.09132,-1.05343 -0.09132,-2.46939 0,-2.62823 -0.06483,-2.41007 0.868669,-2.92327 0.298327,-0.16393 0.542417,-0.32331 0.542417,-0.35402 0,-0.0309 -0.162318,-0.16826 -0.360716,-0.30583 -1.028016,-0.71241 -2.013971,-2.17766 -2.338877,-3.47584 -0.201325,-0.80442 -0.134174,-2.39054 0.13451,-3.17721 1.033244,-3.02511 4.386038,-4.85502 7.661927,-4.18175 2.136444,0.4391 3.832748,1.7715 4.690824,3.6846 0.361925,0.8069 0.484002,1.41362 0.481552,2.39329 -0.0043,1.76252 -0.804317,3.40089 -2.221636,4.55038 -0.254647,0.20641 -0.463011,0.4065 -0.463011,0.44439 0,0.038 0.188503,0.17638 0.418915,0.30774 0.88078,0.5022 0.815782,0.26078 0.815782,3.02947 0,1.77735 -0.02862,2.465 -0.105831,2.54221 -0.07977,0.0796 -1.316324,0.10568 -5.023888,0.10568 -4.772077,0 -4.920765,-0.006 -5.009351,-0.17069 z m 4.778272,-1.34136 c 0.02029,-0.72066 0.0537,-0.91258 0.172084,-0.98706 0.106484,-0.067 0.185415,-0.0605 0.286623,0.0243 0.110188,0.0915 0.139673,0.2998 0.139673,0.98705 v 0.87111 h 2.031202 c 1.725502,0 2.038854,-0.0189 2.082046,-0.13248 0.118689,-0.30933 -0.0843,-0.54865 -1.048716,-1.23644 -0.806681,-0.57531 -0.992,-0.74828 -0.992,-0.92603 0,-0.17285 0.05069,-0.22425 0.242529,-0.24644 l 0.242526,-0.0279 v -0.72694 c 0,-0.82266 0.11329,-1.0851 0.425635,-0.98597 0.182308,0.0579 0.191777,0.11143 0.193075,1.09112 6.9e-4,0.56673 0.03051,1.07216 0.06615,1.12322 0.107317,0.15365 0.691445,0.5686 0.80071,0.5686 0.07253,0 0.101903,-0.37768 0.101903,-1.30922 0,-1.48548 0.04525,-1.38286 -0.823095,-1.86798 l -0.514419,-0.28745 -0.896236,0.29918 c -0.869904,0.29041 -0.937695,0.2992 -2.307746,0.29891 -1.355532,-2.1e-4 -1.441911,-0.0113 -2.177833,-0.27426 l -0.766317,-0.27401 -0.710913,0.40097 -0.710915,0.40096 v 1.35053 c 0,0.7428 0.02272,1.35058 0.05046,1.35058 0.02775,0 0.226187,-0.10309 0.440962,-0.22887 l 0.390524,-0.22887 0.0014,-0.89557 c 0.0016,-1.14751 0.206306,-1.60144 0.561721,-1.24599 0.108544,0.1085 0.142513,0.31853 0.142513,0.88028 v 0.7378 l 0.290718,-0.0471 c 0.315025,-0.0511 0.543194,0.11558 0.458905,0.33517 -0.02597,0.0676 -0.562393,0.43193 -1.192126,0.80964 -1.113533,0.66789 -1.144968,0.69508 -1.144968,0.9907 v 0.30396 h 2.069441 2.069444 z m 2.265337,-4.35748 c 1.820054,-0.60937 3.301106,-2.14018 3.754405,-3.88051 0.141672,-0.5439 0.182494,-2.03256 0.06101,-2.22398 -0.0547,-0.0862 -0.514454,-0.10647 -1.993182,-0.0881 l -1.922097,0.0243 -0.285943,0.79373 c -0.250451,0.69526 -0.311823,0.79372 -0.494567,0.79372 -0.193669,0 -0.219614,-0.0593 -0.361764,-0.82692 -0.233437,-1.26061 -0.264438,-1.24093 -0.550459,0.34982 -0.250913,1.39568 -0.282965,1.49134 -0.499452,1.49134 -0.208819,0 -0.19843,0.0455 -0.591264,-2.59459 -0.179846,-1.20877 -0.366691,-2.21079 -0.415197,-2.22673 -0.04851,-0.0164 -0.346157,0.47702 -0.661443,1.09535 l -0.573255,1.12428 -1.649981,0.0244 -1.649981,0.0243 -0.05961,0.3176 c -0.100912,0.53789 0.02055,1.63287 0.25608,2.31038 0.480987,1.38307 1.462121,2.47313 2.838905,3.15409 1.070426,0.52942 1.68831,0.6568 2.998555,0.61816 0.870867,-0.027 1.189545,-0.0752 1.799239,-0.27931 z m -2.582339,-0.34598 c -0.501349,-0.14204 -0.612279,-0.23104 -0.568647,-0.45582 0.02803,-0.14447 0.130451,-0.16555 0.868148,-0.17909 0.460004,-0.008 0.975273,-0.0281 1.145044,-0.0441 0.276178,-0.0243 0.311494,-0.006 0.335474,0.20237 0.023,0.19722 -0.02543,0.25187 -0.329357,0.37355 -0.522805,0.20913 -0.965587,0.24078 -1.450662,0.1031 z m -1.6422,-2.07469 c -0.09701,-0.0972 -0.176384,-0.25567 -0.176384,-0.35282 0,-0.24453 0.308426,-0.52913 0.573253,-0.52913 0.264818,0 0.573252,0.28468 0.573252,0.52913 0,0.24455 -0.308429,0.52918 -0.573252,0.52918 -0.121275,0 -0.299857,-0.0793 -0.396869,-0.17636 z m 3.439517,-0.0882 c -0.232761,-0.23267 -0.222508,-0.40285 0.0401,-0.66546 0.243582,-0.24345 0.329798,-0.25996 0.605107,-0.11502 0.242042,0.12748 0.321863,0.24591 0.323575,0.48022 0.0031,0.43406 -0.63668,0.63239 -0.968767,0.30029 z m -1.151475,-4.27736 c 0.296559,-1.78581 0.575578,-1.83207 0.874871,-0.14501 0.09772,0.55084 0.197295,1.02113 0.221263,1.04511 0.08271,0.0828 0.212362,-0.0613 0.273139,-0.30344 0.117052,-0.46642 0.107419,-0.46436 2.176972,-0.46436 2.188984,0 2.146871,0.0162 1.845872,-0.66529 -0.655344,-1.4815 -2.160669,-2.71162 -3.887876,-3.17706 -0.773684,-0.20858 -2.314597,-0.21425 -3.086746,-0.0113 -1.862761,0.48917 -3.433992,1.84034 -4.06194,3.49292 l -0.172218,0.45328 1.47768,-0.0243 1.477684,-0.0244 0.705541,-1.38465 c 0.388047,-0.76156 0.755433,-1.43456 0.816413,-1.4955 0.244962,-0.24482 0.364055,0.12518 0.643002,1.99713 0.151683,1.01798 0.296644,1.88465 0.322123,1.92588 0.102882,0.16637 0.192723,-0.12627 0.374219,-1.21922 z"
       id="path4012-8"
       inkscape:connector-curvature="0" />
    <path
       style="fill:#a0a0a0;stroke-width:0.434238"
       d="m 28.040353,261.67777 c -0.05624,-0.1049 -0.09132,-1.05343 -0.09132,-2.46939 0,-2.62823 -0.06483,-2.41007 0.868669,-2.92327 0.298327,-0.16393 0.542417,-0.32331 0.542417,-0.35402 0,-0.0309 -0.162318,-0.16826 -0.360716,-0.30583 -1.028016,-0.71241 -2.013971,-2.17766 -2.338877,-3.47584 -0.201325,-0.80442 -0.134174,-2.39054 0.13451,-3.17721 1.033244,-3.02511 4.386038,-4.85502 7.661927,-4.18175 2.136444,0.4391 3.832748,1.7715 4.690824,3.6846 0.361925,0.8069 0.484002,1.41362 0.481552,2.39329 -0.0043,1.76252 -0.804317,3.40089 -2.221636,4.55038 -0.254647,0.20641 -0.463011,0.4065 -0.463011,0.44439 0,0.038 0.188503,0.17638 0.418915,0.30774 0.88078,0.5022 0.815782,0.26078 0.815782,3.02947 0,1.77735 -0.02862,2.465 -0.105831,2.54221 -0.07977,0.0796 -1.316324,0.10568 -5.023888,0.10568 -4.772077,0 -4.920765,-0.006 -5.009351,-0.17069 z m 4.778272,-1.34136 c 0.02029,-0.72066 0.0537,-0.91258 0.172084,-0.98706 0.106484,-0.067 0.185415,-0.0605 0.286623,0.0243 0.110188,0.0915 0.139673,0.2998 0.139673,0.98705 v 0.87111 h 2.031202 c 1.725502,0 2.038854,-0.0189 2.082046,-0.13248 0.118689,-0.30933 -0.0843,-0.54865 -1.048716,-1.23644 -0.806681,-0.57531 -0.992,-0.74828 -0.992,-0.92603 0,-0.17285 0.05069,-0.22425 0.242529,-0.24644 l 0.242526,-0.0279 v -0.72694 c 0,-0.82266 0.11329,-1.0851 0.425635,-0.98597 0.182308,0.0579 0.191777,0.11143 0.193075,1.09112 6.9e-4,0.56673 0.03051,1.07216 0.06615,1.12322 0.107317,0.15365 0.691445,0.5686 0.80071,0.5686 0.07253,0 0.101903,-0.37768 0.101903,-1.30922 0,-1.48548 0.04525,-1.38286 -0.823095,-1.86798 l -0.514419,-0.28745 -0.896236,0.29918 c -0.869904,0.29041 -0.937695,0.2992 -2.307746,0.29891 -1.355532,-2.1e-4 -1.441911,-0.0113 -2.177833,-0.27426 l -0.766317,-0.27401 -0.710913,0.40097 -0.710915,0.40096 v 1.35053 c 0,0.7428 0.02272,1.35058 0.05046,1.35058 0.02775,0 0.226187,-0.10309 0.440962,-0.22887 l 0.390524,-0.22887 0.0014,-0.89557 c 0.0016,-1.14751 0.206306,-1.60144 0.561721,-1.24599 0.108544,0.1085 0.142513,0.31853 0.142513,0.88028 v 0.7378 l 0.290718,-0.0471 c 0.315025,-0.0511 0.543194,0.11558 0.458905,0.33517 -0.02597,0.0676 -0.562393,0.43193 -1.192126,0.80964 -1.113533,0.66789 -1.144968,0.69508 -1.144968,0.9907 v 0.30396 h 2.069441 2.069444 z m 2.265337,-4.35748 c 1.403562,-0.46993 2.640938,-1.50058 3.294283,-2.74387 0.429067,-0.81653 0.595175,-1.49004 0.593708,-2.40729 -0.002,-1.2675 0.205601,-1.15 -2.032309,-1.15 -1.442955,0 -1.942613,0.0275 -1.996101,0.11041 -0.03924,0.0606 -0.191398,0.42737 -0.338104,0.81498 -0.382438,1.0104 -0.497129,0.9789 -0.708436,-0.1945 -0.249425,-1.38497 -0.369803,-1.31205 -0.674781,0.40874 -0.236279,1.33315 -0.338408,1.62908 -0.50309,1.45776 -0.04428,-0.0461 -0.22394,-1.07598 -0.399194,-2.28859 -0.378048,-2.61568 -0.375281,-2.60172 -0.515638,-2.60172 -0.06054,0 -0.377093,0.53579 -0.703448,1.19062 l -0.593372,1.1906 h -1.626578 -1.626579 l -0.06131,0.40891 c -0.234007,1.5605 0.483321,3.42764 1.761718,4.58559 0.632883,0.57328 1.868907,1.21483 2.698432,1.40062 0.933964,0.20911 2.512332,0.12546 3.430809,-0.18205 z m -2.582339,-0.34598 c -0.501349,-0.14204 -0.612279,-0.23104 -0.568647,-0.45582 0.02803,-0.14447 0.130451,-0.16555 0.868148,-0.17909 0.460004,-0.008 0.975273,-0.0281 1.145044,-0.0441 0.276178,-0.0243 0.311494,-0.006 0.335474,0.20237 0.023,0.19722 -0.02543,0.25187 -0.329357,0.37355 -0.522805,0.20913 -0.965587,0.24078 -1.450662,0.1031 z m -1.6422,-2.07469 c -0.09701,-0.0972 -0.176384,-0.25567 -0.176384,-0.35282 0,-0.24453 0.308426,-0.52913 0.573253,-0.52913 0.264818,0 0.573252,0.28468 0.573252,0.52913 0,0.24455 -0.308429,0.52918 -0.573252,0.52918 -0.121275,0 -0.299857,-0.0793 -0.396869,-0.17636 z m 3.439517,-0.0882 c -0.232761,-0.23267 -0.222508,-0.40285 0.0401,-0.66546 0.243582,-0.24345 0.329798,-0.25996 0.605107,-0.11502 0.242042,0.12748 0.321863,0.24591 0.323575,0.48022 0.0031,0.43406 -0.63668,0.63239 -0.968767,0.30029 z m -1.097809,-4.10189 c 0.211607,-1.21013 0.333943,-1.55258 0.494567,-1.38443 0.03281,0.0344 0.152225,0.57839 0.265306,1.20896 0.232869,1.29834 0.343523,1.42064 0.618496,0.68352 l 0.172705,-0.46302 h 1.972971 c 1.085132,0 1.99242,-0.0315 2.016195,-0.0698 0.08023,-0.12991 -0.357483,-1.05886 -0.773608,-1.642 -0.728041,-1.02028 -1.981677,-1.859 -3.316077,-2.21859 -0.773686,-0.20857 -2.314601,-0.21426 -3.086747,-0.0113 -1.084749,0.28486 -1.999152,0.80872 -2.786328,1.59624 -0.677355,0.67767 -1.19903,1.50881 -1.403089,2.23545 l -0.05574,0.19856 1.439077,-9.8e-4 c 0.791494,-6.2e-4 1.483847,-0.0306 1.538565,-0.0662 0.05473,-0.0355 0.422055,-0.70973 0.816304,-1.49793 0.672478,-1.34451 0.811339,-1.54707 0.929474,-1.35595 0.02624,0.0426 0.169945,0.92549 0.319337,1.9623 0.278277,1.93132 0.382411,2.3719 0.526552,2.22775 0.04457,-0.0447 0.184959,-0.67541 0.312001,-1.40192 z"
       id="path4010-0"
       inkscape:connector-curvature="0" />
    <path
       style="fill:#179cfd;stroke-width:0.434238"
       d="m 28.084301,261.62139 c -0.09334,-0.2432 -0.06068,-4.53422 0.03585,-4.71459 0.04932,-0.0922 0.366818,-0.32942 0.705541,-0.52725 0.338727,-0.19778 0.615865,-0.39635 0.615865,-0.44114 0,-0.0449 -0.225402,-0.25131 -0.5009,-0.45914 -1.007366,-0.75955 -1.863496,-2.05429 -2.182561,-3.30077 -0.176274,-0.68859 -0.179006,-2.04001 -0.0054,-2.72476 0.07324,-0.28909 0.298305,-0.86296 0.500144,-1.27526 0.293281,-0.59912 0.51896,-0.90166 1.123813,-1.50667 0.628099,-0.62825 0.899287,-0.82698 1.594434,-1.16847 1.206772,-0.59277 1.759323,-0.7188 3.130615,-0.71416 0.806735,0.002 1.311968,0.0495 1.704825,0.15746 3.200698,0.88036 5.194794,3.81447 4.65392,6.84772 -0.248316,1.39251 -1.241594,2.98286 -2.337264,3.74216 -0.198811,0.13767 -0.36148,0.28303 -0.36148,0.3228 0,0.0398 0.277437,0.23428 0.616524,0.43238 0.393273,0.22968 0.633784,0.4307 0.664178,0.55509 0.02625,0.10714 0.03649,1.24673 0.02299,2.53213 l -0.02488,2.33712 -4.951132,0.0216 c -4.457619,0.0215 -4.956494,0.008 -5.004941,-0.11734 z m 4.796794,-1.27231 c 0.04062,-0.85254 0.0581,-0.92604 0.220478,-0.92604 0.162399,0 0.179874,0.0735 0.22048,0.92604 l 0.0441,0.92602 h 2.11542 c 1.979416,0 2.117418,-0.0113 2.146485,-0.16124 0.07415,-0.38501 -0.08786,-0.58193 -1.039039,-1.26279 -0.5321,-0.38086 -0.988888,-0.74572 -1.015085,-0.81071 -0.07133,-0.17694 0.02596,-0.27867 0.266821,-0.27867 0.212067,0 0.215285,-0.0113 0.215285,-0.78294 0,-0.57789 0.03363,-0.81084 0.12842,-0.88952 0.247505,-0.20531 0.312538,-0.006 0.312538,0.96492 0,0.5267 0.02407,1.0201 0.05321,1.09639 0.07569,0.19722 0.895628,0.78122 1.003392,0.71461 0.137026,-0.0848 0.118488,-2.70962 -0.02028,-2.88339 -0.06062,-0.0761 -0.366131,-0.28527 -0.678882,-0.46529 -0.638192,-0.36731 -0.664782,-0.36715 -1.680277,0.0113 -0.620191,0.23022 -0.749452,0.24593 -2.072528,0.24835 -1.367516,0.002 -1.436372,-0.006 -2.229991,-0.28332 l -0.818897,-0.286 -0.707163,0.41086 c -0.388942,0.22589 -0.744718,0.48108 -0.790616,0.56686 -0.04592,0.0857 -0.08344,0.71537 -0.08344,1.39919 0,0.99797 0.02488,1.25279 0.126404,1.29174 0.157447,0.0603 0.905595,-0.36921 1.022127,-0.58694 0.04739,-0.0885 0.0862,-0.57804 0.0862,-1.08767 0,-0.95796 0.0901,-1.20675 0.322052,-0.88956 0.07719,0.10547 0.118894,0.4201 0.118894,0.89644 v 0.73386 l 0.360543,-0.0576 c 0.341277,-0.0546 0.358954,-0.0466 0.330725,0.14961 -0.02299,0.16068 -0.280994,0.35508 -1.148549,0.86561 -1.145685,0.67416 -1.30229,0.84178 -1.171412,1.25421 0.05178,0.16311 0.145382,0.16933 2.186334,0.14688 l 2.132238,-0.0243 z m 2.160723,-4.26226 c 1.769875,-0.57963 3.167996,-1.90262 3.76078,-3.55863 0.192048,-0.53652 0.328288,-2.18171 0.217288,-2.62393 l -0.05685,-0.22641 h -1.977453 c -1.485114,0 -1.995217,0.0273 -2.0488,0.11041 -0.03924,0.0605 -0.191399,0.42736 -0.338105,0.81497 -0.382437,1.0104 -0.497129,0.97892 -0.708437,-0.1945 -0.249424,-1.38497 -0.369803,-1.31205 -0.674782,0.40873 -0.236276,1.33315 -0.338406,1.62909 -0.503087,1.45777 -0.04428,-0.046 -0.223941,-1.07597 -0.399196,-2.28861 -0.378048,-2.61567 -0.375282,-2.6017 -0.515636,-2.6017 -0.06054,0 -0.377094,0.53578 -0.703448,1.19062 l -0.593373,1.19063 h -1.628884 c -1.902339,0 -1.81147,-0.0499 -1.81147,0.99426 0,0.80431 0.255081,1.83651 0.632916,2.56111 0.424332,0.81377 1.610253,1.95985 2.460638,2.37796 1.097382,0.53952 1.794389,0.68665 3.07994,0.64999 0.892825,-0.0244 1.23655,-0.0755 1.807954,-0.26241 z m -2.425303,-0.51429 c -0.478805,-0.10703 -0.703657,-0.2876 -0.549872,-0.44139 0.07642,-0.0766 0.231706,-0.0808 0.585546,-0.0162 0.356597,0.0647 0.599579,0.0571 0.936494,-0.0291 0.48231,-0.12329 0.615302,-0.0987 0.615302,0.11422 0,0.28859 -0.958357,0.51378 -1.58747,0.37302 z m -1.706091,-2.08738 c -0.189693,-0.20965 -0.184796,-0.3936 0.01543,-0.57471 0.232894,-0.21073 0.518062,-0.17963 0.684657,0.0743 0.133834,0.20423 0.133834,0.23669 0,0.44096 -0.171756,0.26213 -0.491832,0.2892 -0.699982,0.0593 z m 3.421615,-0.14148 c -0.271481,-0.41435 0.198702,-0.82027 0.625904,-0.54036 0.247452,0.16205 0.279238,0.41467 0.07757,0.61634 -0.207737,0.20776 -0.541169,0.17179 -0.703478,-0.0761 z m -1.137669,-3.97553 c 0.211606,-1.21013 0.333942,-1.55259 0.494569,-1.38441 0.03282,0.0344 0.152224,0.57837 0.265305,1.20895 0.23276,1.29772 0.34355,1.42057 0.617887,0.68512 l 0.172107,-0.46134 2.000835,-0.0243 c 2.352706,-0.0279 2.281076,0.0162 1.723959,-1.05794 -0.429635,-0.82824 -1.435244,-1.8525 -2.279603,-2.32184 -3.036046,-1.6875 -6.967182,-0.61741 -8.490501,2.31125 -0.205682,0.39548 -0.373989,0.82207 -0.373989,0.94808 v 0.22911 l 1.433135,-9.7e-4 c 0.788221,-6e-4 1.477901,-0.0306 1.53262,-0.0663 0.05473,-0.0355 0.422054,-0.7097 0.816303,-1.49792 0.672479,-1.34449 0.811342,-1.54706 0.929474,-1.35594 0.02625,0.0425 0.169945,0.9255 0.319337,1.96229 0.278278,1.93132 0.382411,2.37191 0.526555,2.22776 0.04455,-0.0447 0.184956,-0.67543 0.311999,-1.40192 z"
       id="path4008-4"
       inkscape:connector-curvature="0" />
    <path
       style="fill:#050505;fill-opacity:1;stroke-width:0.434238"
       d="m 28.084301,261.62139 c -0.09334,-0.2432 -0.06068,-4.53422 0.03585,-4.71459 0.04932,-0.0922 0.366818,-0.32942 0.705541,-0.52725 0.338727,-0.19778 0.615865,-0.39635 0.615865,-0.44114 0,-0.0449 -0.225402,-0.25131 -0.5009,-0.45914 -1.007366,-0.75955 -1.863496,-2.05429 -2.182561,-3.30077 -0.176274,-0.68859 -0.179006,-2.04001 -0.0054,-2.72476 0.07324,-0.28909 0.298305,-0.86296 0.500144,-1.27526 0.293281,-0.59912 0.51896,-0.90166 1.123813,-1.50667 0.628099,-0.62825 0.899287,-0.82698 1.594434,-1.16847 1.206772,-0.59277 1.759323,-0.7188 3.130615,-0.71416 0.806735,0.002 1.311968,0.0495 1.704825,0.15746 3.200698,0.88036 5.194794,3.81447 4.65392,6.84772 -0.248316,1.39251 -1.241594,2.98286 -2.337264,3.74216 -0.198811,0.13767 -0.36148,0.28303 -0.36148,0.3228 0,0.0398 0.277437,0.23428 0.616524,0.43238 0.393273,0.22968 0.633784,0.4307 0.664178,0.55509 0.02625,0.10714 0.03649,1.24673 0.02299,2.53213 l -0.02488,2.33712 -4.951132,0.0216 c -4.457619,0.0215 -4.956494,0.008 -5.004941,-0.11734 z m 4.796794,-1.27231 c 0.04062,-0.85254 0.0581,-0.92604 0.220478,-0.92604 0.162399,0 0.179874,0.0735 0.22048,0.92604 l 0.0441,0.92602 h 2.11542 c 1.979416,0 2.117418,-0.0113 2.146485,-0.16124 0.07415,-0.38501 -0.08786,-0.58193 -1.039039,-1.26279 -0.5321,-0.38086 -0.988888,-0.74572 -1.015085,-0.81071 -0.07133,-0.17694 0.02596,-0.27867 0.266821,-0.27867 0.212067,0 0.215285,-0.0113 0.215285,-0.78294 0,-0.57789 0.03363,-0.81084 0.12842,-0.88952 0.247505,-0.20531 0.312538,-0.006 0.312538,0.96492 0,0.5267 0.02407,1.0201 0.05321,1.09639 0.07569,0.19722 0.895628,0.78122 1.003392,0.71461 0.137026,-0.0848 0.118488,-2.70962 -0.02028,-2.88339 -0.06062,-0.0761 -0.366131,-0.28527 -0.678882,-0.46529 -0.638192,-0.36731 -0.664782,-0.36715 -1.680277,0.0113 -0.620191,0.23022 -0.749452,0.24593 -2.072528,0.24835 -1.367516,0.002 -1.436372,-0.006 -2.229991,-0.28332 l -0.818897,-0.286 -0.707163,0.41086 c -0.388942,0.22589 -0.744718,0.48108 -0.790616,0.56686 -0.04592,0.0857 -0.08344,0.71537 -0.08344,1.39919 0,0.99797 0.02488,1.25279 0.126404,1.29174 0.157447,0.0603 0.905595,-0.36921 1.022127,-0.58694 0.04739,-0.0885 0.0862,-0.57804 0.0862,-1.08767 0,-0.95796 0.0901,-1.20675 0.322052,-0.88956 0.07719,0.10547 0.118894,0.4201 0.118894,0.89644 v 0.73386 l 0.360543,-0.0576 c 0.341277,-0.0546 0.358954,-0.0466 0.330725,0.14961 -0.02299,0.16068 -0.280994,0.35508 -1.148549,0.86561 -1.145685,0.67416 -1.30229,0.84178 -1.171412,1.25421 0.05178,0.16311 0.145382,0.16933 2.186334,0.14688 l 2.132238,-0.0243 z m 2.160723,-4.26226 c 1.798336,-0.58895 3.232202,-1.974 3.804655,-3.6751 0.213148,-0.63339 0.221914,-2.36663 0.01569,-3.09953 -0.356769,-1.26779 -1.453375,-2.62144 -2.672695,-3.2992 -2.477562,-1.37709 -5.596645,-0.9588 -7.541693,1.01144 -1.633552,1.65471 -2.027872,4.11443 -0.994473,6.2034 0.44418,0.89788 1.576714,2.0172 2.500652,2.47147 1.097382,0.53953 1.794387,0.68664 3.079941,0.64999 0.892823,-0.0243 1.236549,-0.0756 1.807951,-0.26241 z m -2.425303,-0.51429 c -0.478805,-0.10703 -0.703657,-0.2876 -0.549872,-0.44139 0.07642,-0.0766 0.231706,-0.0808 0.585546,-0.0162 0.356597,0.0647 0.599579,0.0571 0.936494,-0.0291 0.48231,-0.12329 0.615302,-0.0987 0.615302,0.11422 0,0.28859 -0.958357,0.51378 -1.58747,0.37302 z m -1.706091,-2.08738 c -0.189693,-0.20965 -0.184796,-0.3936 0.01543,-0.57471 0.232894,-0.21073 0.518062,-0.17963 0.684657,0.0743 0.133834,0.20423 0.133834,0.23669 0,0.44096 -0.171756,0.26213 -0.491832,0.2892 -0.699982,0.0593 z m 3.421615,-0.14148 c -0.271481,-0.41435 0.198702,-0.82027 0.625904,-0.54036 0.247452,0.16205 0.279238,0.41467 0.07757,0.61634 -0.207737,0.20776 -0.541169,0.17179 -0.703478,-0.0761 z"
       id="path4006-5"
       inkscape:connector-curvature="0" />
  </g>
  <rect
     x="0"
     y="0"
     width="150"
     height="2"
     fill="#444"
     id="rect2" />
  <rect
     x="0"
     y="378"
     width="150"
     height="2"
     fill="#444"
     id="rect3" />
  <!-- Title -->
  <path
     d="m 43.87793,20 v -8.589844 h 3.65039 q 1.376953,0 1.998047,0.234375 0.626953,0.228516 1.001953,0.820313 0.375,0.591797 0.375,1.353515 0,0.966797 -0.568359,1.59961 -0.568359,0.626953 -1.699219,0.791015 0.5625,0.328125 0.925781,0.720703 0.369141,0.392579 0.990235,1.394532 L 51.600586,20 h -2.074219 l -1.253906,-1.869141 q -0.667969,-1.001953 -0.914063,-1.259765 -0.246093,-0.263672 -0.521484,-0.357422 -0.275391,-0.09961 -0.873047,-0.09961 H 45.612305 V 20 Z m 1.734375,-4.957031 h 1.283203 q 1.248047,0 1.558594,-0.105469 0.310546,-0.105469 0.486328,-0.363281 0.175781,-0.257813 0.175781,-0.644531 0,-0.433594 -0.234375,-0.697266 -0.228516,-0.269531 -0.650391,-0.339844 -0.210937,-0.0293 -1.265625,-0.0293 H 45.612305 Z M 60.28418,20 h -1.886719 l -0.75,-1.951172 H 54.213867 L 53.504883,20 h -1.839844 l 3.345703,-8.589844 h 1.833985 z M 57.09082,16.601562 55.907227,13.414063 54.74707,16.601562 Z M 61.22168,20 v -8.589844 h 1.6875 l 3.515625,5.736328 v -5.736328 h 1.611328 V 20 h -1.740235 l -3.46289,-5.601562 V 20 Z m 8.642578,-8.589844 h 3.169922 q 1.072265,0 1.634765,0.164063 0.75586,0.222656 1.294922,0.791015 0.539063,0.56836 0.820313,1.394532 0.28125,0.820312 0.28125,2.027343 0,1.060547 -0.263672,1.828125 -0.322266,0.9375 -0.919922,1.517578 -0.451172,0.439454 -1.21875,0.685547 Q 74.088867,20 73.12793,20 h -3.263672 z m 1.734375,1.453125 v 5.689453 h 1.294922 q 0.726562,0 1.048828,-0.08203 0.421875,-0.105469 0.697265,-0.357422 0.28125,-0.251953 0.457032,-0.826172 0.175781,-0.580078 0.175781,-1.576171 0,-0.996094 -0.175781,-1.529297 -0.175782,-0.533203 -0.492188,-0.832032 -0.316406,-0.298828 -0.802734,-0.404296 -0.363281,-0.08203 -1.423828,-0.08203 z m 6.585937,2.894532 q 0,-1.3125 0.392578,-2.203125 0.292969,-0.65625 0.796875,-1.177735 0.509766,-0.521484 1.113282,-0.773437 0.802734,-0.339844 1.851562,-0.339844 1.898438,0 3.035156,1.177734 1.142579,1.177735 1.142579,3.275391 0,2.080078 -1.13086,3.257812 -1.130859,1.171875 -3.023437,1.171875 -1.916016,0 -3.046875,-1.166015 -1.13086,-1.171875 -1.13086,-3.222656 z m 1.78711,-0.05859 q 0,1.458984 0.673828,2.214843 0.673828,0.75 1.710937,0.75 1.03711,0 1.699219,-0.74414 0.667969,-0.75 0.667969,-2.244141 0,-1.476562 -0.650391,-2.203125 -0.644531,-0.726562 -1.716797,-0.726562 -1.072265,0 -1.728515,0.738281 -0.65625,0.732422 -0.65625,2.214844 z M 87.84668,20 v -8.589844 h 2.595703 l 1.558594,5.859375 1.541015,-5.859375 h 2.601563 V 20 H 94.532227 V 13.238281 L 92.827148,20 H 91.157227 L 89.458008,13.238281 V 20 Z m 14.40234,-4.634766 q -0.63867,-0.269531 -0.93164,-0.738281 -0.28711,-0.474609 -0.28711,-1.037109 0,-0.960938 0.66797,-1.587891 0.67383,-0.626953 1.91016,-0.626953 1.22461,0 1.89844,0.626953 0.67968,0.626953 0.67968,1.587891 0,0.597656 -0.31054,1.066406 -0.31055,0.462891 -0.87305,0.708984 0.71484,0.28711 1.08398,0.837891 0.375,0.550781 0.375,1.271484 0,1.189453 -0.76171,1.933594 -0.75586,0.744141 -2.01563,0.744141 -1.17187,0 -1.95117,-0.615235 -0.91992,-0.726562 -0.91992,-1.992187 0,-0.697266 0.3457,-1.277344 0.3457,-0.585937 1.08984,-0.902344 z m 0.33985,-1.658203 q 0,0.492188 0.27539,0.767578 0.28125,0.275391 0.74414,0.275391 0.46875,0 0.75,-0.275391 0.28125,-0.28125 0.28125,-0.773437 0,-0.462891 -0.28125,-0.738281 -0.27539,-0.28125 -0.73242,-0.28125 -0.47461,0 -0.75586,0.28125 -0.28125,0.28125 -0.28125,0.74414 z m -0.15235,3.679688 q 0,0.679687 0.34571,1.060547 0.35156,0.380859 0.87304,0.380859 0.50977,0 0.84375,-0.363281 0.33399,-0.369141 0.33399,-1.060547 0,-0.603516 -0.33985,-0.966797 -0.33984,-0.369141 -0.86132,-0.369141 -0.60352,0 -0.90235,0.416016 -0.29297,0.416016 -0.29297,0.902344 z"
     id="text3"
     class="title"
     style="font-weight:bold;font-size:12px;font-family:Arial, sans-serif;text-anchor:middle;fill:#ff7e79;fill-opacity:1"
     aria-label="RANDOM 8" />
  <!-- Center divider -->
  <line
     x1="75"
     y1="30"
     x2="75"
     y2="285"
     stroke="#555"
     stroke-width="0.5"
     id="line3" />
  <!-- Column headers  (left: OUT ATT OFF | right: ATT OFF OUT) -->
  <path
     d="m 12.95752,37.908203 q 0,-1.069336 0.574218,-1.672851 0.574219,-0.606446 1.482422,-0.606446 0.594727,0 1.072266,0.28418 0.477539,0.28418 0.726562,0.793945 0.251953,0.506836 0.251953,1.151367 0,0.653321 -0.263671,1.168946 -0.263672,0.515625 -0.747071,0.782226 -0.483398,0.263672 -1.042969,0.263672 -0.606445,0 -1.083984,-0.292969 -0.477539,-0.292968 -0.723633,-0.799804 -0.246093,-0.506836 -0.246093,-1.072266 z m 0.585937,0.0088 q 0,0.776367 0.416016,1.22461 0.418945,0.445312 1.048828,0.445312 0.641601,0 1.054687,-0.451172 0.416016,-0.451172 0.416016,-1.280273 0,-0.524414 -0.178711,-0.914063 -0.175781,-0.392578 -0.518555,-0.606445 -0.339843,-0.216797 -0.764648,-0.216797 -0.603516,0 -1.040039,0.416016 -0.433594,0.413086 -0.433594,1.382812 z m 7.072266,-2.211914 h 0.568359 v 2.481445 q 0,0.647461 -0.146484,1.028321 -0.146485,0.380859 -0.530274,0.621093 -0.380859,0.237305 -1.001953,0.237305 -0.603516,0 -0.987305,-0.208008 -0.383789,-0.208007 -0.547851,-0.600586 -0.164063,-0.395507 -0.164063,-1.078125 v -2.481445 h 0.56836 v 2.478516 q 0,0.55957 0.102539,0.826172 0.105469,0.263671 0.357422,0.407226 0.254882,0.143555 0.621093,0.143555 0.626954,0 0.893555,-0.28418 0.266602,-0.28418 0.266602,-1.092773 z M 23.223145,40 v -3.788086 h -1.41504 v -0.506836 h 3.404297 v 0.506836 H 23.791504 V 40 Z"
     id="text4"
     class="hdr"
     style="font-size:6px;font-family:Arial, sans-serif;text-anchor:middle;fill:#ff7e79;fill-opacity:1"
     aria-label="OUT" />
  <path
     d="m 126.95752,37.908203 q 0,-1.069336 0.57422,-1.672851 0.57422,-0.606446 1.48242,-0.606446 0.59473,0 1.07227,0.28418 0.47753,0.28418 0.72656,0.793945 0.25195,0.506836 0.25195,1.151367 0,0.653321 -0.26367,1.168946 -0.26367,0.515625 -0.74707,0.782226 -0.4834,0.263672 -1.04297,0.263672 -0.60644,0 -1.08398,-0.292969 -0.47754,-0.292968 -0.72364,-0.799804 -0.24609,-0.506836 -0.24609,-1.072266 z m 0.58594,0.0088 q 0,0.776367 0.41601,1.22461 0.41895,0.445312 1.04883,0.445312 0.6416,0 1.05469,-0.451172 0.41601,-0.451172 0.41601,-1.280273 0,-0.524414 -0.17871,-0.914063 -0.17578,-0.392578 -0.51855,-0.606445 -0.33985,-0.216797 -0.76465,-0.216797 -0.60352,0 -1.04004,0.416016 -0.43359,0.413086 -0.43359,1.382812 z m 7.07226,-2.211914 h 0.56836 v 2.481445 q 0,0.647461 -0.14648,1.028321 -0.14649,0.380859 -0.53028,0.621093 -0.38086,0.237305 -1.00195,0.237305 -0.60351,0 -0.9873,-0.208008 -0.38379,-0.208007 -0.54786,-0.600586 -0.16406,-0.395507 -0.16406,-1.078125 v -2.481445 h 0.56836 v 2.478516 q 0,0.55957 0.10254,0.826172 0.10547,0.263671 0.35742,0.407226 0.25489,0.143555 0.6211,0.143555 0.62695,0 0.89355,-0.28418 0.2666,-0.28418 0.2666,-1.092773 z M 137.22314,40 v -3.788086 h -1.41503 v -0.506836 h 3.40429 v 0.506836 h -1.4209 V 40 Z"
     id="text9"
     class="hdr"
     style="font-size:6px;font-family:Arial, sans-serif;text-anchor:middle;fill:#ff7e79;fill-opacity:1"
     aria-label="OUT" />
  <!-- Ch 1 (out@25,60  atten@40,60  offset@58,60)  /  Ch 5 (atten@92,60  offset@110,60  out@125,60) -->
  <path
     d="m 26.039307,52 h -1.234864 v -4.653809 q -0.676757,0.632813 -1.595214,0.936036 v -1.120606 q 0.483398,-0.158203 1.050292,-0.597656 0.566895,-0.443848 0.777833,-1.032715 h 1.001953 z"
     id="text10"
     class="chnum"
     style="font-weight:bold;font-size:9px;font-family:Arial, sans-serif;text-anchor:middle;fill:#ff7e79;fill-opacity:1"
     aria-label="1" />
  <path
     d="m 34.547852,52 1.649414,-4.294922 H 36.80957 L 38.567383,52 H 37.919922 L 37.418945,50.699219 H 35.623047 L 35.151367,52 Z m 1.239257,-1.763672 h 1.456055 l -0.448242,-1.189453 q -0.205078,-0.541992 -0.304688,-0.890625 -0.08203,0.413086 -0.231445,0.820312 z M 39.668945,52 v -3.788086 h -1.415039 v -0.506836 h 3.404297 v 0.506836 H 40.237305 V 52 Z m 3.665039,0 v -3.788086 h -1.415039 v -0.506836 h 3.404297 v 0.506836 H 43.902344 V 52 Z"
     id="text11"
     class="plabel"
     style="font-size:6px;font-family:Arial, sans-serif;text-anchor:middle;fill:#ff7e79;fill-opacity:1"
     aria-label="ATT" />
  <path
     d="m 52.291504,49.908203 q 0,-1.069336 0.574219,-1.672851 0.574218,-0.606446 1.482422,-0.606446 0.594726,0 1.072265,0.28418 0.477539,0.28418 0.726563,0.793945 0.251953,0.506836 0.251953,1.151367 0,0.653321 -0.263672,1.168946 -0.263672,0.515625 -0.74707,0.782226 -0.483399,0.263672 -1.042969,0.263672 -0.606445,0 -1.083985,-0.292969 -0.477539,-0.292968 -0.723632,-0.799804 -0.246094,-0.506836 -0.246094,-1.072266 z m 0.585937,0.0088 q 0,0.776367 0.416016,1.22461 0.418945,0.445312 1.048828,0.445312 0.641602,0 1.054688,-0.451172 0.416015,-0.451172 0.416015,-1.280273 0,-0.524414 -0.178711,-0.914063 -0.175781,-0.392578 -0.518554,-0.606445 -0.339844,-0.216797 -0.764649,-0.216797 -0.603515,0 -1.040039,0.416016 -0.433594,0.413086 -0.433594,1.382812 z M 57.160645,52 v -4.294922 h 2.89746 v 0.506836 h -2.329101 v 1.330078 h 2.015625 v 0.506836 H 57.729004 V 52 Z m 3.665039,0 v -4.294922 h 2.897461 v 0.506836 h -2.329102 v 1.330078 h 2.015625 v 0.506836 H 61.394043 V 52 Z"
     id="text12"
     class="plabel"
     style="font-size:6px;font-family:Arial, sans-serif;text-anchor:middle;fill:#ff7e79;fill-opacity:1"
     aria-label="OFF" />
  <path
     d="m 122.89722,50.343262 1.23047,-0.127442 q 0.0527,0.417481 0.31201,0.663575 0.25927,0.241699 0.59765,0.241699 0.38672,0 0.65479,-0.312012 0.26807,-0.316406 0.26807,-0.949219 0,-0.593261 -0.26807,-0.887695 -0.26367,-0.298828 -0.68994,-0.298828 -0.53174,0 -0.95362,0.470215 l -1.00195,-0.14502 0.63281,-3.353027 h 3.26514 v 1.155762 h -2.3291 l -0.19336,1.094238 q 0.41309,-0.206543 0.84375,-0.206543 0.82178,0 1.39307,0.597656 0.57128,0.597656 0.57128,1.55127 0,0.79541 -0.46142,1.419433 -0.62842,0.852539 -1.74463,0.852539 -0.89209,0 -1.45459,-0.479004 -0.5625,-0.479004 -0.67236,-1.287597 z"
     id="text13"
     class="chnum"
     style="font-weight:bold;font-size:9px;font-family:Arial, sans-serif;text-anchor:middle;fill:#ff7e79;fill-opacity:1"
     aria-label="5" />
  <path
     d="m 86.547852,52 1.649414,-4.294922 H 88.80957 L 90.567383,52 H 89.919922 L 89.418945,50.699219 H 87.623047 L 87.151367,52 Z m 1.239257,-1.763672 h 1.456055 l -0.448242,-1.189453 q -0.205078,-0.541992 -0.304688,-0.890625 -0.08203,0.413086 -0.231445,0.820312 z M 91.668945,52 v -3.788086 h -1.415039 v -0.506836 h 3.404297 v 0.506836 H 92.237305 V 52 Z m 3.665039,0 v -3.788086 h -1.415039 v -0.506836 h 3.404297 v 0.506836 H 95.902344 V 52 Z"
     id="text14"
     class="plabel"
     style="font-size:6px;font-family:Arial, sans-serif;text-anchor:middle;fill:#ff7e79;fill-opacity:1"
     aria-label="ATT" />
  <path
     d="m 104.2915,49.908203 q 0,-1.069336 0.57422,-1.672851 0.57422,-0.606446 1.48242,-0.606446 0.59473,0 1.07227,0.28418 0.47754,0.28418 0.72656,0.793945 0.25196,0.506836 0.25196,1.151367 0,0.653321 -0.26368,1.168946 -0.26367,0.515625 -0.74707,0.782226 -0.48339,0.263672 -1.04297,0.263672 -0.60644,0 -1.08398,-0.292969 -0.47754,-0.292968 -0.72363,-0.799804 -0.2461,-0.506836 -0.2461,-1.072266 z m 0.58594,0.0088 q 0,0.776367 0.41602,1.22461 0.41894,0.445312 1.04883,0.445312 0.6416,0 1.05468,-0.451172 0.41602,-0.451172 0.41602,-1.280273 0,-0.524414 -0.17871,-0.914063 -0.17578,-0.392578 -0.51856,-0.606445 -0.33984,-0.216797 -0.76465,-0.216797 -0.60351,0 -1.04003,0.416016 -0.4336,0.413086 -0.4336,1.382812 z M 109.16064,52 v -4.294922 h 2.89747 v 0.506836 H 109.729 v 1.330078 h 2.01563 v 0.506836 H 109.729 V 52 Z m 3.66504,0 v -4.294922 h 2.89746 v 0.506836 h -2.3291 v 1.330078 h 2.01563 v 0.506836 h -2.01563 V 52 Z"
     id="text15"
     class="plabel"
     style="font-size:6px;font-family:Arial, sans-serif;text-anchor:middle;fill:#ff7e79;fill-opacity:1"
     aria-label="OFF" />
  <!-- Ch 2 / Ch 6  (y=115) -->
  <path
     d="M 27.050049,105.85303 V 107 h -4.328613 q 0.07031,-0.65039 0.421875,-1.23047 0.351562,-0.58447 1.388671,-1.54687 0.834961,-0.77784 1.023926,-1.05469 0.254883,-0.38233 0.254883,-0.75586 0,-0.41309 -0.224121,-0.63281 -0.219727,-0.22412 -0.61084,-0.22412 -0.386719,0 -0.615234,0.23291 -0.228516,0.23291 -0.263672,0.77343 l -1.230469,-0.12304 q 0.109863,-1.01953 0.689941,-1.46338 0.580079,-0.44385 1.450196,-0.44385 0.953613,0 1.498535,0.51416 0.544922,0.51416 0.544922,1.27881 0,0.43506 -0.158203,0.83057 -0.153809,0.39111 -0.492188,0.82177 -0.224121,0.28565 -0.808594,0.82178 -0.584472,0.53613 -0.742675,0.71191 -0.153809,0.17579 -0.250489,0.34278 z"
     id="text16"
     class="chnum"
     style="font-weight:bold;font-size:9px;font-family:Arial, sans-serif;text-anchor:middle;fill:#ff7e79;fill-opacity:1"
     aria-label="2" />
  <path
     d="m 34.547852,107 1.649414,-4.29492 H 36.80957 L 38.567383,107 h -0.647461 l -0.500977,-1.30078 H 35.623047 L 35.151367,107 Z m 1.239257,-1.76367 h 1.456055 l -0.448242,-1.18945 q -0.205078,-0.542 -0.304688,-0.89063 -0.08203,0.41309 -0.231445,0.82031 z M 39.668945,107 v -3.78809 h -1.415039 v -0.50683 h 3.404297 v 0.50683 H 40.237305 V 107 Z m 3.665039,0 v -3.78809 h -1.415039 v -0.50683 h 3.404297 v 0.50683 H 43.902344 V 107 Z"
     id="text17"
     class="plabel"
     style="font-size:6px;font-family:Arial, sans-serif;text-anchor:middle;fill:#ff7e79;fill-opacity:1"
     aria-label="ATT" />
  <path
     d="m 52.291504,104.9082 q 0,-1.06933 0.574219,-1.67285 0.574218,-0.60644 1.482422,-0.60644 0.594726,0 1.072265,0.28418 0.477539,0.28418 0.726563,0.79394 0.251953,0.50684 0.251953,1.15137 0,0.65332 -0.263672,1.16894 -0.263672,0.51563 -0.74707,0.78223 -0.483399,0.26367 -1.042969,0.26367 -0.606445,0 -1.083985,-0.29297 -0.477539,-0.29297 -0.723632,-0.7998 -0.246094,-0.50684 -0.246094,-1.07227 z m 0.585937,0.009 q 0,0.77637 0.416016,1.22461 0.418945,0.44531 1.048828,0.44531 0.641602,0 1.054688,-0.45117 0.416015,-0.45117 0.416015,-1.28027 0,-0.52442 -0.178711,-0.91406 -0.175781,-0.39258 -0.518554,-0.60645 -0.339844,-0.2168 -0.764649,-0.2168 -0.603515,0 -1.040039,0.41602 -0.433594,0.41309 -0.433594,1.38281 z M 57.160645,107 v -4.29492 h 2.89746 v 0.50683 h -2.329101 v 1.33008 h 2.015625 v 0.50684 H 57.729004 V 107 Z m 3.665039,0 v -4.29492 h 2.897461 v 0.50683 h -2.329102 v 1.33008 h 2.015625 v 0.50684 H 61.394043 V 107 Z"
     id="text18"
     class="plabel"
     style="font-size:6px;font-family:Arial, sans-serif;text-anchor:middle;fill:#ff7e79;fill-opacity:1"
     aria-label="OFF" />
  <path
     d="m 127.06323,102.13525 -1.19531,0.13184 q -0.0439,-0.36914 -0.22852,-0.54492 -0.18457,-0.17578 -0.479,-0.17578 -0.39111,0 -0.66357,0.35156 -0.26807,0.35156 -0.33838,1.46338 0.46142,-0.54492 1.14697,-0.54492 0.77344,0 1.32275,0.58886 0.55371,0.58887 0.55371,1.52051 0,0.98877 -0.58007,1.58643 -0.58008,0.59765 -1.48975,0.59765 -0.97559,0 -1.604,-0.75586 -0.62842,-0.76025 -0.62842,-2.4873 0,-1.771 0.65478,-2.55322 0.65479,-0.78223 1.70069,-0.78223 0.73388,0 1.21289,0.41309 0.4834,0.40869 0.61523,1.19091 z m -2.79931,2.69385 q 0,0.60205 0.27685,0.93164 0.27686,0.3252 0.63281,0.3252 0.34278,0 0.57129,-0.26807 0.22852,-0.26807 0.22852,-0.87891 0,-0.62841 -0.2461,-0.91845 -0.24609,-0.29444 -0.61523,-0.29444 -0.35596,0 -0.60205,0.28125 -0.24609,0.27686 -0.24609,0.82178 z"
     id="text19"
     class="chnum"
     style="font-weight:bold;font-size:9px;font-family:Arial, sans-serif;text-anchor:middle;fill:#ff7e79;fill-opacity:1"
     aria-label="6" />
  <path
     d="m 86.547852,107 1.649414,-4.29492 H 88.80957 L 90.567383,107 h -0.647461 l -0.500977,-1.30078 H 87.623047 L 87.151367,107 Z m 1.239257,-1.76367 h 1.456055 l -0.448242,-1.18945 q -0.205078,-0.542 -0.304688,-0.89063 -0.08203,0.41309 -0.231445,0.82031 z M 91.668945,107 v -3.78809 h -1.415039 v -0.50683 h 3.404297 v 0.50683 H 92.237305 V 107 Z m 3.665039,0 v -3.78809 h -1.415039 v -0.50683 h 3.404297 v 0.50683 H 95.902344 V 107 Z"
     id="text20"
     class="plabel"
     style="font-size:6px;font-family:Arial, sans-serif;text-anchor:middle;fill:#ff7e79;fill-opacity:1"
     aria-label="ATT" />
  <path
     d="m 104.2915,104.9082 q 0,-1.06933 0.57422,-1.67285 0.57422,-0.60644 1.48242,-0.60644 0.59473,0 1.07227,0.28418 0.47754,0.28418 0.72656,0.79394 0.25196,0.50684 0.25196,1.15137 0,0.65332 -0.26368,1.16894 -0.26367,0.51563 -0.74707,0.78223 -0.48339,0.26367 -1.04297,0.26367 -0.60644,0 -1.08398,-0.29297 -0.47754,-0.29297 -0.72363,-0.7998 -0.2461,-0.50684 -0.2461,-1.07227 z m 0.58594,0.009 q 0,0.77637 0.41602,1.22461 0.41894,0.44531 1.04883,0.44531 0.6416,0 1.05468,-0.45117 0.41602,-0.45117 0.41602,-1.28027 0,-0.52442 -0.17871,-0.91406 -0.17578,-0.39258 -0.51856,-0.60645 -0.33984,-0.2168 -0.76465,-0.2168 -0.60351,0 -1.04003,0.41602 -0.4336,0.41309 -0.4336,1.38281 z M 109.16064,107 v -4.29492 h 2.89747 v 0.50683 H 109.729 v 1.33008 h 2.01563 v 0.50684 H 109.729 V 107 Z m 3.66504,0 v -4.29492 h 2.89746 v 0.50683 h -2.3291 v 1.33008 h 2.01563 v 0.50684 h -2.01563 V 107 Z"
     id="text21"
     class="plabel"
     style="font-size:6px;font-family:Arial, sans-serif;text-anchor:middle;fill:#ff7e79;fill-opacity:1"
     aria-label="OFF" />
  <!-- Ch 3 / Ch 7  (y=170) -->
  <path
     d="m 22.835693,160.29053 1.195313,-0.14502 q 0.05713,0.45703 0.307617,0.69873 0.250488,0.2417 0.606445,0.2417 0.382325,0 0.641602,-0.29004 0.263672,-0.29004 0.263672,-0.78223 0,-0.46582 -0.250488,-0.73828 -0.250489,-0.27246 -0.61084,-0.27246 -0.237305,0 -0.566895,0.0923 l 0.136231,-1.00634 q 0.500976,0.0132 0.764648,-0.21533 0.263672,-0.23292 0.263672,-0.61524 0,-0.32519 -0.193359,-0.51855 -0.19336,-0.19336 -0.514161,-0.19336 -0.316406,0 -0.540527,0.21972 -0.224121,0.21973 -0.272461,0.6416 l -1.138183,-0.19335 q 0.118652,-0.58448 0.355957,-0.93165 0.241699,-0.35156 0.667968,-0.54931 0.430664,-0.20215 0.962403,-0.20215 0.909668,0 1.458984,0.58008 0.452637,0.47461 0.452637,1.07226 0,0.84815 -0.927246,1.35352 0.553711,0.11865 0.8833,0.53174 0.333985,0.41308 0.333985,0.99756 0,0.84814 -0.619629,1.4458 -0.619629,0.59765 -1.542481,0.59765 -0.874511,0 -1.450195,-0.50097 -0.575683,-0.50537 -0.667969,-1.31836 z"
     id="text22"
     class="chnum"
     style="font-weight:bold;font-size:9px;font-family:Arial, sans-serif;text-anchor:middle;fill:#ff7e79;fill-opacity:1"
     aria-label="3" />
  <path
     d="m 34.547852,162 1.649414,-4.29492 H 36.80957 L 38.567383,162 h -0.647461 l -0.500977,-1.30078 H 35.623047 L 35.151367,162 Z m 1.239257,-1.76367 h 1.456055 l -0.448242,-1.18946 q -0.205078,-0.54199 -0.304688,-0.89062 -0.08203,0.41309 -0.231445,0.82031 z M 39.668945,162 v -3.78809 h -1.415039 v -0.50683 h 3.404297 v 0.50683 H 40.237305 V 162 Z m 3.665039,0 v -3.78809 h -1.415039 v -0.50683 h 3.404297 v 0.50683 H 43.902344 V 162 Z"
     id="text23"
     class="plabel"
     style="font-size:6px;font-family:Arial, sans-serif;text-anchor:middle;fill:#ff7e79;fill-opacity:1"
     aria-label="ATT" />
  <path
     d="m 52.291504,159.9082 q 0,-1.06933 0.574219,-1.67285 0.574218,-0.60644 1.482422,-0.60644 0.594726,0 1.072265,0.28418 0.477539,0.28418 0.726563,0.79394 0.251953,0.50684 0.251953,1.15137 0,0.65332 -0.263672,1.16894 -0.263672,0.51563 -0.74707,0.78223 -0.483399,0.26367 -1.042969,0.26367 -0.606445,0 -1.083985,-0.29297 -0.477539,-0.29297 -0.723632,-0.7998 -0.246094,-0.50684 -0.246094,-1.07227 z m 0.585937,0.009 q 0,0.77637 0.416016,1.22461 0.418945,0.44531 1.048828,0.44531 0.641602,0 1.054688,-0.45117 0.416015,-0.45117 0.416015,-1.28027 0,-0.52442 -0.178711,-0.91406 -0.175781,-0.39258 -0.518554,-0.60645 -0.339844,-0.2168 -0.764649,-0.2168 -0.603515,0 -1.040039,0.41602 -0.433594,0.41309 -0.433594,1.38281 z M 57.160645,162 v -4.29492 h 2.89746 v 0.50683 h -2.329101 v 1.33008 h 2.015625 v 0.50684 H 57.729004 V 162 Z m 3.665039,0 v -4.29492 h 2.897461 v 0.50683 h -2.329102 v 1.33008 h 2.015625 v 0.50684 H 61.394043 V 162 Z"
     id="text24"
     class="plabel"
     style="font-size:6px;font-family:Arial, sans-serif;text-anchor:middle;fill:#ff7e79;fill-opacity:1"
     aria-label="OFF" />
  <path
     d="m 122.87964,156.79248 v -1.14697 h 4.22314 v 0.89648 q -0.52295,0.51416 -1.06347,1.47656 -0.54053,0.96241 -0.82618,2.04786 -0.28125,1.08105 -0.27685,1.93359 h -1.19092 q 0.0308,-1.33594 0.54932,-2.72461 0.52295,-1.38867 1.39306,-2.48291 z"
     id="text25"
     class="chnum"
     style="font-weight:bold;font-size:9px;font-family:Arial, sans-serif;text-anchor:middle;fill:#ff7e79;fill-opacity:1"
     aria-label="7" />
  <path
     d="m 86.547852,162 1.649414,-4.29492 H 88.80957 L 90.567383,162 h -0.647461 l -0.500977,-1.30078 H 87.623047 L 87.151367,162 Z m 1.239257,-1.76367 h 1.456055 l -0.448242,-1.18946 q -0.205078,-0.54199 -0.304688,-0.89062 -0.08203,0.41309 -0.231445,0.82031 z M 91.668945,162 v -3.78809 h -1.415039 v -0.50683 h 3.404297 v 0.50683 H 92.237305 V 162 Z m 3.665039,0 v -3.78809 h -1.415039 v -0.50683 h 3.404297 v 0.50683 H 95.902344 V 162 Z"
     id="text26"
     class="plabel"
     style="font-size:6px;font-family:Arial, sans-serif;text-anchor:middle;fill:#ff7e79;fill-opacity:1"
     aria-label="ATT" />
  <path
     d="m 104.2915,159.9082 q 0,-1.06933 0.57422,-1.67285 0.57422,-0.60644 1.48242,-0.60644 0.59473,0 1.07227,0.28418 0.47754,0.28418 0.72656,0.79394 0.25196,0.50684 0.25196,1.15137 0,0.65332 -0.26368,1.16894 -0.26367,0.51563 -0.74707,0.78223 -0.48339,0.26367 -1.04297,0.26367 -0.60644,0 -1.08398,-0.29297 -0.47754,-0.29297 -0.72363,-0.7998 -0.2461,-0.50684 -0.2461,-1.07227 z m 0.58594,0.009 q 0,0.77637 0.41602,1.22461 0.41894,0.44531 1.04883,0.44531 0.6416,0 1.05468,-0.45117 0.41602,-0.45117 0.41602,-1.28027 0,-0.52442 -0.17871,-0.91406 -0.17578,-0.39258 -0.51856,-0.60645 -0.33984,-0.2168 -0.76465,-0.2168 -0.60351,0 -1.04003,0.41602 -0.4336,0.41309 -0.4336,1.38281 z M 109.16064,162 v -4.29492 h 2.89747 v 0.50683 H 109.729 v 1.33008 h 2.01563 v 0.50684 H 109.729 V 162 Z m 3.66504,0 v -4.29492 h 2.89746 v 0.50683 h -2.3291 v 1.33008 h 2.01563 v 0.50684 h -2.01563 V 162 Z"
     id="text27"
     class="plabel"
     style="font-size:6px;font-family:Arial, sans-serif;text-anchor:middle;fill:#ff7e79;fill-opacity:1"
     aria-label="OFF" />
  <!-- Ch 4 / Ch 8  (y=225) -->
  <path
     d="m 25.301025,217 v -1.29639 h -2.636718 v -1.08105 l 2.794922,-4.09131 h 1.037109 v 4.08691 h 0.799805 v 1.08545 H 26.496338 V 217 Z m 0,-2.38184 v -2.20166 l -1.480957,2.20166 z"
     id="text28"
     class="chnum"
     style="font-weight:bold;font-size:9px;font-family:Arial, sans-serif;text-anchor:middle;fill:#ff7e79;fill-opacity:1"
     aria-label="4" />
  <path
     d="m 34.547852,217 1.649414,-4.29492 H 36.80957 L 38.567383,217 h -0.647461 l -0.500977,-1.30078 H 35.623047 L 35.151367,217 Z m 1.239257,-1.76367 h 1.456055 l -0.448242,-1.18946 q -0.205078,-0.54199 -0.304688,-0.89062 -0.08203,0.41309 -0.231445,0.82031 z M 39.668945,217 v -3.78809 h -1.415039 v -0.50683 h 3.404297 v 0.50683 H 40.237305 V 217 Z m 3.665039,0 v -3.78809 h -1.415039 v -0.50683 h 3.404297 v 0.50683 H 43.902344 V 217 Z"
     id="text29"
     class="plabel"
     style="font-size:6px;font-family:Arial, sans-serif;text-anchor:middle;fill:#ff7e79;fill-opacity:1"
     aria-label="ATT" />
  <path
     d="m 52.291504,214.9082 q 0,-1.06933 0.574219,-1.67285 0.574218,-0.60644 1.482422,-0.60644 0.594726,0 1.072265,0.28418 0.477539,0.28418 0.726563,0.79394 0.251953,0.50684 0.251953,1.15137 0,0.65332 -0.263672,1.16894 -0.263672,0.51563 -0.74707,0.78223 -0.483399,0.26367 -1.042969,0.26367 -0.606445,0 -1.083985,-0.29297 -0.477539,-0.29297 -0.723632,-0.7998 -0.246094,-0.50684 -0.246094,-1.07227 z m 0.585937,0.009 q 0,0.77637 0.416016,1.22461 0.418945,0.44531 1.048828,0.44531 0.641602,0 1.054688,-0.45117 0.416015,-0.45117 0.416015,-1.28027 0,-0.52442 -0.178711,-0.91406 -0.175781,-0.39258 -0.518554,-0.60645 -0.339844,-0.2168 -0.764649,-0.2168 -0.603515,0 -1.040039,0.41602 -0.433594,0.41309 -0.433594,1.38281 z M 57.160645,217 v -4.29492 h 2.89746 v 0.50683 h -2.329101 v 1.33008 h 2.015625 v 0.50684 H 57.729004 V 217 Z m 3.665039,0 v -4.29492 h 2.897461 v 0.50683 h -2.329102 v 1.33008 h 2.015625 v 0.50684 H 61.394043 V 217 Z"
     id="text30"
     class="plabel"
     style="font-size:6px;font-family:Arial, sans-serif;text-anchor:middle;fill:#ff7e79;fill-opacity:1"
     aria-label="OFF" />
  <path
     d="m 123.93872,213.52393 q -0.479,-0.20215 -0.69873,-0.55372 -0.21533,-0.35595 -0.21533,-0.77783 0,-0.7207 0.50097,-1.19092 0.50538,-0.47021 1.43262,-0.47021 0.91846,0 1.42383,0.47021 0.50977,0.47022 0.50977,1.19092 0,0.44824 -0.23291,0.79981 -0.23291,0.34717 -0.65479,0.53174 0.53613,0.21533 0.81299,0.62841 0.28125,0.41309 0.28125,0.95362 0,0.89209 -0.57129,1.45019 -0.56689,0.55811 -1.51172,0.55811 -0.87891,0 -1.46338,-0.46143 -0.68994,-0.54492 -0.68994,-1.49414 0,-0.52295 0.25928,-0.95801 0.25928,-0.43945 0.81738,-0.67675 z m 0.25488,-1.24366 q 0,0.36914 0.20655,0.57569 0.21093,0.20654 0.5581,0.20654 0.35156,0 0.5625,-0.20654 0.21094,-0.21094 0.21094,-0.58008 0,-0.34717 -0.21094,-0.55371 -0.20654,-0.21094 -0.54931,-0.21094 -0.35596,0 -0.5669,0.21094 -0.21094,0.21094 -0.21094,0.5581 z m -0.11425,2.75977 q 0,0.50976 0.25927,0.79541 0.26367,0.28564 0.65479,0.28564 0.38232,0 0.63281,-0.27246 0.25049,-0.27685 0.25049,-0.79541 0,-0.45263 -0.25488,-0.7251 -0.25489,-0.27685 -0.646,-0.27685 -0.45264,0 -0.67676,0.31201 -0.21972,0.31201 -0.21972,0.67676 z"
     id="text31"
     class="chnum"
     style="font-weight:bold;font-size:9px;font-family:Arial, sans-serif;text-anchor:middle;fill:#ff7e79;fill-opacity:1"
     aria-label="8" />
  <path
     d="m 86.547852,217 1.649414,-4.29492 H 88.80957 L 90.567383,217 h -0.647461 l -0.500977,-1.30078 H 87.623047 L 87.151367,217 Z m 1.239257,-1.76367 h 1.456055 l -0.448242,-1.18946 q -0.205078,-0.54199 -0.304688,-0.89062 -0.08203,0.41309 -0.231445,0.82031 z M 91.668945,217 v -3.78809 h -1.415039 v -0.50683 h 3.404297 v 0.50683 H 92.237305 V 217 Z m 3.665039,0 v -3.78809 h -1.415039 v -0.50683 h 3.404297 v 0.50683 H 95.902344 V 217 Z"
     id="text32"
     class="plabel"
     style="font-size:6px;font-family:Arial, sans-serif;text-anchor:middle;fill:#ff7e79;fill-opacity:1"
     aria-label="ATT" />
  <path
     d="m 104.2915,214.9082 q 0,-1.06933 0.57422,-1.67285 0.57422,-0.60644 1.48242,-0.60644 0.59473,0 1.07227,0.28418 0.47754,0.28418 0.72656,0.79394 0.25196,0.50684 0.25196,1.15137 0,0.65332 -0.26368,1.16894 -0.26367,0.51563 -0.74707,0.78223 -0.48339,0.26367 -1.04297,0.26367 -0.60644,0 -1.08398,-0.29297 -0.47754,-0.29297 -0.72363,-0.7998 -0.2461,-0.50684 -0.2461,-1.07227 z m 0.58594,0.009 q 0,0.77637 0.41602,1.22461 0.41894,0.44531 1.04883,0.44531 0.6416,0 1.05468,-0.45117 0.41602,-0.45117 0.41602,-1.28027 0,-0.52442 -0.17871,-0.91406 -0.17578,-0.39258 -0.51856,-0.60645 -0.33984,-0.2168 -0.76465,-0.2168 -0.60351,0 -1.04003,0.41602 -0.4336,0.41309 -0.4336,1.38281 z M 109.16064,217 v -4.29492 h 2.89747 v 0.50683 H 109.729 v 1.33008 h 2.01563 v 0.50684 H 109.729 V 217 Z m 3.66504,0 v -4.29492 h 2.89746 v 0.50683 h -2.3291 v 1.33008 h 2.01563 v 0.50684 h -2.01563 V 217 Z"
     id="text33"
     class="plabel"
     style="font-size:6px;font-family:Arial, sans-serif;text-anchor:middle;fill:#ff7e79;fill-opacity:1"
     aria-label="OFF" />
  <!-- Divider above trigger -->
  <line
     x1="10"
     y1="294"
     x2="140"
     y2="294"
     stroke="#444"
     stroke-width="0.5"
     id="line33" />
  <!-- Trigger input (port @ 75,310) -->
  <path
     d="m 51.941528,290 v -4.73511 h -1.768799 v -0.63354 h 4.255372 v 0.63354 H 52.651978 V 290 Z m 3.226319,0 v -5.36865 h 2.380371 q 0.717773,0 1.091308,0.14648 0.373536,0.14282 0.596924,0.50904 0.223389,0.36621 0.223389,0.80932 0,0.57129 -0.369873,0.96314 -0.369873,0.39184 -1.142578,0.49804 0.281982,0.1355 0.428466,0.26734 0.31128,0.28564 0.5896,0.71411 L 59.899292,290 h -0.893555 l -0.710449,-1.11694 q -0.311279,-0.4834 -0.512695,-0.73975 -0.201416,-0.25635 -0.362549,-0.35889 -0.157471,-0.10254 -0.322266,-0.14282 -0.120849,-0.0256 -0.395507,-0.0256 H 55.878296 V 290 Z m 0.710449,-2.99927 h 1.5271 q 0.48706,0 0.761718,-0.0989 0.274658,-0.10254 0.417481,-0.32227 0.142822,-0.22339 0.142822,-0.4834 0,-0.38086 -0.27832,-0.62622 -0.274659,-0.24536 -0.871582,-0.24536 H 55.878296 Z M 60.69397,290 v -5.36865 h 0.710449 V 290 Z m 4.475097,-2.10571 v -0.62989 l 2.27417,-0.004 v 1.99219 q -0.523681,0.41748 -1.080322,0.62988 -0.556641,0.20874 -1.142578,0.20874 -0.791016,0 -1.439209,-0.33691 -0.644531,-0.34058 -0.974121,-0.98145 -0.32959,-0.64087 -0.32959,-1.43188 0,-0.78369 0.325928,-1.46118 0.32959,-0.68116 0.944824,-1.01075 0.615234,-0.32959 1.417236,-0.32959 0.582276,0 1.051026,0.19043 0.472412,0.18677 0.739746,0.52369 0.267334,0.33691 0.406494,0.8789 l -0.640869,0.17578 q -0.12085,-0.41015 -0.300293,-0.64453 -0.179444,-0.23437 -0.512696,-0.37353 -0.333251,-0.14282 -0.739746,-0.14282 -0.48706,0 -0.842285,0.15014 -0.355224,0.14649 -0.574951,0.38819 -0.216064,0.24169 -0.336914,0.531 -0.205078,0.49805 -0.205078,1.08032 0,0.71778 0.245361,1.20118 0.249024,0.48339 0.721436,0.71777 0.472412,0.23437 1.003418,0.23437 0.461425,0 0.900879,-0.17578 0.439453,-0.17944 0.666504,-0.38086 v -0.99975 z m 4.826661,2.19726 1.556396,-5.55176 h 0.527344 l -1.552735,5.55176 z m 8.57666,-1.97387 0.710449,0.17944 q -0.223389,0.87524 -0.805664,1.33667 -0.578613,0.45776 -1.417236,0.45776 -0.86792,0 -1.413575,-0.35156 -0.541992,-0.35522 -0.827636,-1.02539 -0.281983,-0.67017 -0.281983,-1.43921 0,-0.83862 0.318604,-1.46118 0.322265,-0.62622 0.911865,-0.94849 0.593262,-0.32593 1.303711,-0.32593 0.805664,0 1.35498,0.41016 0.549317,0.41016 0.765381,1.15357 l -0.699463,0.16479 q -0.186767,-0.58594 -0.541992,-0.85327 -0.355225,-0.26733 -0.893555,-0.26733 -0.618896,0 -1.036377,0.29663 -0.413818,0.29663 -0.582275,0.79834 -0.168457,0.49804 -0.168457,1.02905 0,0.68481 0.197754,1.19751 0.201416,0.50903 0.622559,0.76172 0.421142,0.25268 0.911865,0.25268 0.596924,0 1.010742,-0.34424 0.413818,-0.34423 0.560303,-1.02172 z M 80.128784,290 v -5.36865 h 0.710449 v 4.73511 h 2.644043 V 290 Z m 3.984375,-2.61475 q 0,-1.33667 0.717774,-2.09106 0.717773,-0.75806 1.853027,-0.75806 0.743408,0 1.340332,0.35523 0.596924,0.35522 0.908203,0.99243 0.314942,0.63354 0.314942,1.43921 0,0.81665 -0.32959,1.46118 -0.32959,0.64453 -0.933838,0.97778 -0.604248,0.32959 -1.303711,0.32959 -0.758057,0 -1.354981,-0.36621 -0.596923,-0.36621 -0.904541,-0.99975 -0.307617,-0.63355 -0.307617,-1.34034 z m 0.732422,0.011 q 0,0.97046 0.52002,1.53076 0.523681,0.55664 1.311035,0.55664 0.802002,0 1.318359,-0.56396 0.52002,-0.56397 0.52002,-1.60034 0,-0.65552 -0.223389,-1.14258 -0.219727,-0.49072 -0.648193,-0.75806 -0.424805,-0.27099 -0.955811,-0.27099 -0.754394,0 -1.300049,0.52001 -0.541992,0.51636 -0.541992,1.72852 z m 9.147949,0.72144 0.710449,0.17944 q -0.223388,0.87524 -0.805664,1.33667 -0.578613,0.45776 -1.417236,0.45776 -0.86792,0 -1.413574,-0.35156 -0.541992,-0.35522 -0.827637,-1.02539 -0.281982,-0.67017 -0.281982,-1.43921 0,-0.83862 0.318603,-1.46118 0.322266,-0.62622 0.911865,-0.94849 0.593262,-0.32593 1.303711,-0.32593 0.805664,0 1.354981,0.41016 0.549316,0.41016 0.765381,1.15357 l -0.699463,0.16479 q -0.186768,-0.58594 -0.541992,-0.85327 -0.355225,-0.26733 -0.893555,-0.26733 -0.618896,0 -1.036377,0.29663 -0.413818,0.29663 -0.582275,0.79834 -0.168457,0.49804 -0.168457,1.02905 0,0.68481 0.197754,1.19751 0.201416,0.50903 0.622558,0.76172 0.421143,0.25268 0.911865,0.25268 0.596924,0 1.010743,-0.34424 0.413818,-0.34423 0.560302,-1.02172 z M 95.549927,290 v -5.36865 h 0.710449 v 2.66235 l 2.666016,-2.66235 h 0.963134 L 97.637329,286.80664 99.988403,290 h -0.9375 l -1.911621,-2.71729 -0.878906,0.85694 V 290 Z"
     id="text34"
     class="io"
     style="font-size:7.5px;font-family:Arial, sans-serif;text-anchor:middle;fill:#ff7e79;fill-opacity:1"
     aria-label="TRIG / CLOCK" />
  <path
     d="m 31.023498,359.11621 v -9.54424 h 1.874995 l 3.90624,6.37368 v -6.37368 h 1.79036 v 9.54424 h -1.933589 l -3.847646,-6.22394 v 6.22394 z m 13.600225,-2.20051 1.822912,0.30599 q -0.351561,1.0026 -1.113278,1.52994 -0.755207,0.52083 -1.894527,0.52083 -1.803381,0 -2.669264,-1.17838 -0.683592,-0.94401 -0.683592,-2.38281 0,-1.71874 0.898435,-2.68879 0.898436,-0.97656 2.27213,-0.97656 1.542965,0 2.43489,1.02213 0.891925,1.01562 0.852862,3.11848 h -4.583322 q 0.01953,0.8138 0.442708,1.26953 0.423176,0.44922 1.054684,0.44922 0.429687,0 0.722655,-0.23438 0.292968,-0.23437 0.442707,-0.7552 z m 0.104166,-1.84896 q -0.01953,-0.79426 -0.410155,-1.20442 -0.390624,-0.41667 -0.950518,-0.41667 -0.598957,0 -0.989581,0.4362 -0.390624,0.4362 -0.384114,1.18489 z m 9.648414,4.04947 h -1.699215 v -1.01562 q -0.423176,0.59245 -1.002601,0.88542 -0.572915,0.28645 -1.158851,0.28645 -1.191404,0 -2.044266,-0.95703 -0.846352,-0.96354 -0.846352,-2.68228 0,-1.75781 0.826821,-2.66926 0.826821,-0.91797 2.089838,-0.91797 1.158851,0 2.005203,0.96354 v -3.43749 h 1.829423 z m -4.8828,-3.60676 q 0,1.10677 0.305989,1.60156 0.442707,0.71614 1.236976,0.71614 0.631508,0 1.074216,-0.53385 0.442707,-0.54036 0.442707,-1.60807 0,-1.1914 -0.429687,-1.71223 -0.429686,-0.52735 -1.100257,-0.52735 -0.65104,0 -1.093747,0.52084 -0.436197,0.51432 -0.436197,1.54296 z m 6.705712,3.60676 v -9.54424 h 4.055979 q 1.529944,0 2.220046,0.26041 0.696613,0.25391 1.113279,0.91146 0.416665,0.65755 0.416665,1.5039 0,1.07422 -0.631508,1.77734 -0.631509,0.69661 -1.888016,0.8789 0.624998,0.36459 1.028643,0.80078 0.410155,0.4362 1.100257,1.54948 l 1.165362,1.86197 H 62.47524 l -1.393225,-2.07681 q -0.742186,-1.11328 -1.015623,-1.39974 -0.273437,-0.29297 -0.579425,-0.39713 -0.305989,-0.11068 -0.97005,-0.11068 h -0.390624 v 3.98436 z m 1.927078,-5.5078 h 1.425778 q 1.386715,0 1.731766,-0.11718 0.345051,-0.11719 0.540363,-0.40365 0.195312,-0.28645 0.195312,-0.71614 0,-0.48177 -0.260416,-0.77474 -0.253905,-0.29948 -0.722654,-0.3776 -0.234374,-0.0326 -1.406247,-0.0326 h -1.503902 z m 12.233042,5.5078 v -1.03515 q -0.377604,0.55338 -0.996092,0.87239 -0.611977,0.31901 -1.295569,0.31901 -0.696613,0 -1.249997,-0.30599 -0.553384,-0.30598 -0.800779,-0.85937 -0.247396,-0.55338 -0.247396,-1.52994 v -4.37499 h 1.829423 v 3.17707 q 0,1.45833 0.09766,1.79036 0.104166,0.32552 0.371093,0.52084 0.266926,0.1888 0.677081,0.1888 0.468749,0 0.839842,-0.25391 0.371093,-0.26041 0.507811,-0.63802 0.136719,-0.38411 0.136719,-1.86848 v -2.91666 h 1.829422 v 6.91404 z m 2.949209,-1.97265 1.835932,-0.27995 q 0.117188,0.53386 0.47526,0.81381 0.358072,0.27343 1.002601,0.27343 0.709634,0 1.067706,-0.26041 0.240885,-0.1823 0.240885,-0.48828 0,-0.20834 -0.130208,-0.34506 -0.136719,-0.1302 -0.611978,-0.24088 -2.213536,-0.48828 -2.805982,-0.89193 -0.820311,-0.55989 -0.820311,-1.55598 0,-0.89844 0.709634,-1.51041 0.709633,-0.61198 2.200515,-0.61198 1.419267,0 2.10937,0.46224 0.690102,0.46224 0.950518,1.36718 l -1.725256,0.31901 q -0.110677,-0.40364 -0.423176,-0.61849 -0.305989,-0.21484 -0.878904,-0.21484 -0.722654,0 -1.035154,0.20182 -0.208332,0.14323 -0.208332,0.37109 0,0.19532 0.182291,0.33204 0.247395,0.18229 1.705725,0.51432 1.46484,0.33203 2.044265,0.8138 0.572916,0.48828 0.572916,1.36067 0,0.95052 -0.794269,1.63411 -0.794269,0.68359 -2.350255,0.68359 -1.412757,0 -2.239577,-0.57291 -0.820311,-0.57292 -1.074216,-1.55599 z m 9.882789,-7.57159 v 3.5091 q 0.885415,-1.03515 2.11588,-1.03515 0.631509,0 1.13932,0.23437 0.507812,0.23438 0.761717,0.59896 0.260416,0.36458 0.351562,0.80729 0.09766,0.44271 0.09766,1.37369 v 4.05598 h -1.829423 v -3.65233 q 0,-1.08724 -0.104166,-1.38021 -0.104166,-0.29296 -0.371093,-0.46223 -0.260416,-0.17579 -0.65755,-0.17579 -0.455728,0 -0.8138,0.22136 -0.358072,0.22135 -0.527343,0.67057 -0.16276,0.44271 -0.16276,1.3151 v 3.46353 h -1.829422 v -9.54424 z"
     id="text1"
     style="font-weight:bold;font-size:13.3333px;font-family:Arial;-inkscape-font-specification:'Arial Bold';text-align:center;text-anchor:middle;fill:#ff7e79;stroke-width:1.002"
     aria-label="NedRush" />
</svg>
