<?xml version="1.0" encoding="UTF-8" standalone="no"?>
<svg
   width="120"
   height="380"
   viewBox="0 0 120 380"
   version="1.1"
   id="svg1"
   sodipodi:docname="RandomSeq.svg"
   inkscape:version="1.3.2 (091e20e, 2023-11-25)"
   xmlns:inkscape="http://www.inkscape.org/namespaces/inkscape"
   xmlns:sodipodi="http://sodipodi.sourceforge.net/DTD/sodipodi-0.dtd"
   xmlns="http://www.w3.org/2000/svg"
   xmlns:svg="http://www.w3.org/2000/svg">
  <sodipodi:namedview
     id="namedview1"
     pagecolor="#ffffff"
     bordercolor="#000000"
     borderopacity="0.25"
     inkscape:showpageshadow="2"
     inkscape:pageopacity="0.0"
     inkscape:pagecheckerboard="0"
     inkscape:deskcolor="#d1d1d1"
     inkscape:zoom="2.7394737"
     inkscape:cx="60.04803"
     inkscape:cy="207.15658"
     inkscape:window-width="1392"
     inkscape:window-height="1212"
     inkscape:window-x="1535"
     inkscape:window-y="545"
     inkscape:window-maximized="0"
     inkscape:current-layer="svg1" />
  <defs
     id="defs1">
    <style
       id="style1">
      .panel { fill: #434343; }
      .accent { fill: #2f2f2f; }
      .title { font-family: Arial, sans-serif; font-size: 14px; font-weight: bold; fill: #ff7e79; text-anchor: middle; letter-spacing: 0.6px; }
      .tiny { font-family: Arial, sans-serif; font-size: 6.4px; fill: #d0d0d0; text-anchor: middle; letter-spacing: 0.3px; }
      .subtle { font-family: Arial, sans-serif; font-size: 5.8px; fill: #a8a8a8; text-anchor: middle; }
    </style>
  </defs>
  <rect
     class="accent"
     x="0"
     y="378"
     width="120"
     height="2"
     id="bottom" />
  <rect
     class="panel"
     x="0"
     y="0"
     width="120"
     height="380"
     id="rect1"
     style="fill:#434343;fill-opacity:1" />
  <g
     transform="matrix(1.6722989,0,0,1.6988345,39.158447,-71.863155)"
     id="layer1-7"
     inkscape:label="Layer 1">
    <rect
       y="256.12662"
       x="29.52006"
       height="1.6536458"
       width="7.2760415"
       id="rect823"
       style="fill:#ffffff;fill-opacity:1;stroke:none;stroke-width:0.710598;stroke-miterlimit:4;stroke-dasharray:none;stroke-opacity:1" />
    <rect
       y="256.57309"
       x="28.643627"
       height="0.51248246"
       width="9.0803432"
       id="rect821"
       style="fill:#ffffff;fill-opacity:1;stroke:none;stroke-width:0.176948;stroke-miterlimit:4;stroke-dasharray:none;stroke-opacity:1" />
    <ellipse
       ry="5.8699069"
       rx="6.1973119"
       cy="250.78661"
       cx="33.068214"
       id="path817"
       style="fill:#ffffff;fill-opacity:1;stroke:none;stroke-width:0.294763;stroke-miterlimit:4;stroke-dasharray:none;stroke-opacity:1" />
    <rect
       y="257.08557"
       x="28.265131"
       height="4.3030396"
       width="9.541522"
       id="rect819"
       style="fill:#ffffff;fill-opacity:1;stroke:none;stroke-width:0.236954;stroke-miterlimit:4;stroke-dasharray:none;stroke-opacity:1" />
    <path
       style="fill:#54b6fc;stroke-width:0.434238"
       d="m 28.040353,261.67777 c -0.05624,-0.1049 -0.09132,-1.05343 -0.09132,-2.46939 0,-2.62823 -0.06483,-2.41007 0.868669,-2.92327 0.298327,-0.16393 0.542417,-0.32331 0.542417,-0.35402 0,-0.0309 -0.162318,-0.16826 -0.360716,-0.30583 -1.028016,-0.71241 -2.013971,-2.17766 -2.338877,-3.47584 -0.201325,-0.80442 -0.134174,-2.39054 0.13451,-3.17721 1.033244,-3.02511 4.386038,-4.85502 7.661927,-4.18175 2.136444,0.4391 3.832748,1.7715 4.690824,3.6846 0.361925,0.8069 0.484002,1.41362 0.481552,2.39329 -0.0043,1.76252 -0.804317,3.40089 -2.221636,4.55038 -0.254647,0.20641 -0.463011,0.4065 -0.463011,0.44439 0,0.038 0.188503,0.17638 0.418915,0.30774 0.88078,0.5022 0.815782,0.26078 0.815782,3.02947 0,1.77735 -0.02862,2.465 -0.105831,2.54221 -0.07977,0.0796 -1.316324,0.10568 -5.023888,0.10568 -4.772077,0 -4.920765,-0.006 -5.009351,-0.17069 z m 4.778272,-1.34136 c 0.02029,-0.72066 0.0537,-0.91258 0.172084,-0.98706 0.106484,-0.067 0.185415,-0.0605 0.286623,0.0243 0.110188,0.0915 0.139673,0.2998 0.139673,0.98705 v 0.87111 h 2.031202 c 1.725502,0 2.038854,-0.0189 2.082046,-0.13248 0.118689,-0.30933 -0.0843,-0.54865 -1.048716,-1.23644 -0.806681,-0.57531 -0.992,-0.74828 -0.992,-0.92603 0,-0.17285 0.05069,-0.22425 0.242529,-0.24644 l 0.242526,-0.0279 v -0.72694 c 0,-0.82266 0.11329,-1.0851 0.425635,-0.98597 0.182308,0.0579 0.191777,0.11143 0.193075,1.09112 6.9e-4,0.56673 0.03051,1.07216 0.06615,1.12322 0.107317,0.15365 0.691445,0.5686 0.80071,0.5686 0.07253,0 0.101903,-0.37768 0.101903,-1.30922 0,-1.48548 0.04525,-1.38286 -0.823095,-1.86798 l -0.514419,-0.28745 -0.896236,0.29918 c -0.869904,0.29041 -0.937695,0.2992 -2.307746,0.29891 -1.355532,-2.1e-4 -1.441911,-0.0113 -2.177833,-0.27426 l -0.766317,-0.27401 -0.710913,0.40097 -0.710915,0.40096 v 1.35053 c 0,0.7428 0.02272,1.35058 0.05046,1.35058 0.02775,0 0.226187,-0.10309 0.440962,-0.22887 l 0.390524,-0.22887 0.0014,-0.89557 c 0.0016,-1.14751 0.206306,-1.60144 0.561721,-1.24599 0.108544,0.1085 0.142513,0.31853 0.142513,0.88028 v 0.7378 l 0.290718,-0.0471 c 0.315025,-0.0511 0.543194,0.11558 0.458905,0.33517 -0.02597,0.0676 -0.562393,0.43193 -1.192126,0.80964 -1.113533,0.66789 -1.144968,0.69508 -1.144968,0.9907 v 0.30396 h 2.069441 2.069444 z m 2.265337,-4.35748 c 1.820054,-0.60937 3.301106,-2.14018 3.754405,-3.88051 0.141672,-0.5439 0.182494,-2.03256 0.06101,-2.22398 -0.0547,-0.0862 -0.514454,-0.10647 -1.993182,-0.0881 l -1.922097,0.0243 -0.285943,0.79373 c -0.250451,0.69526 -0.311823,0.79372 -0.494567,0.79372 -0.193669,0 -0.219614,-0.0593 -0.361764,-0.82692 -0.233437,-1.26061 -0.264438,-1.24093 -0.550459,0.34982 -0.250913,1.39568 -0.282965,1.49134 -0.499452,1.49134 -0.208819,0 -0.19843,0.0455 -0.591264,-2.59459 -0.179846,-1.20877 -0.366691,-2.21079 -0.415197,-2.22673 -0.04851,-0.0164 -0.346157,0.47702 -0.661443,1.09535 l -0.573255,1.12428 -1.649981,0.0244 -1.649981,0.0243 -0.05961,0.3176 c -0.100912,0.53789 0.02055,1.63287 0.25608,2.31038 0.480987,1.38307 1.462121,2.47313 2.838905,3.15409 1.070426,0.52942 1.68831,0.6568 2.998555,0.61816 0.870867,-0.027 1.189545,-0.0752 1.799239,-0.27931 z m -2.582339,-0.34598 c -0.501349,-0.14204 -0.612279,-0.23104 -0.568647,-0.45582 0.02803,-0.14447 0.130451,-0.16555 0.868148,-0.17909 0.460004,-0.008 0.975273,-0.0281 1.145044,-0.0441 0.276178,-0.0243 0.311494,-0.006 0.335474,0.20237 0.023,0.19722 -0.02543,0.25187 -0.329357,0.37355 -0.522805,0.20913 -0.965587,0.24078 -1.450662,0.1031 z m -1.6422,-2.07469 c -0.09701,-0.0972 -0.176384,-0.25567 -0.176384,-0.35282 0,-0.24453 0.308426,-0.52913 0.573253,-0.52913 0.264818,0 0.573252,0.28468 0.573252,0.52913 0,0.24455 -0.308429,0.52918 -0.573252,0.52918 -0.121275,0 -0.299857,-0.0793 -0.396869,-0.17636 z m 3.439517,-0.0882 c -0.232761,-0.23267 -0.222508,-0.40285 0.0401,-0.66546 0.243582,-0.24345 0.329798,-0.25996 0.605107,-0.11502 0.242042,0.12748 0.321863,0.24591 0.323575,0.48022 0.0031,0.43406 -0.63668,0.63239 -0.968767,0.30029 z m -1.151475,-4.27736 c 0.296559,-1.78581 0.575578,-1.83207 0.874871,-0.14501 0.09772,0.55084 0.197295,1.02113 0.221263,1.04511 0.08271,0.0828 0.212362,-0.0613 0.273139,-0.30344 0.117052,-0.46642 0.107419,-0.46436 2.176972,-0.46436 2.188984,0 2.146871,0.0162 1.845872,-0.66529 -0.655344,-1.4815 -2.160669,-2.71162 -3.887876,-3.17706 -0.773684,-0.20858 -2.314597,-0.21425 -3.086746,-0.0113 -1.862761,0.48917 -3.433992,1.84034 -4.06194,3.49292 l -0.172218,0.45328 1.47768,-0.0243 1.477684,-0.0244 0.705541,-1.38465 c 0.388047,-0.76156 0.755433,-1.43456 0.816413,-1.4955 0.244962,-0.24482 0.364055,0.12518 0.643002,1.99713 0.151683,1.01798 0.296644,1.88465 0.322123,1.92588 0.102882,0.16637 0.192723,-0.12627 0.374219,-1.21922 z"
       id="path4012-8"
       inkscape:connector-curvature="0" />
    <path
       style="fill:#a0a0a0;stroke-width:0.434238"
       d="m 28.040353,261.67777 c -0.05624,-0.1049 -0.09132,-1.05343 -0.09132,-2.46939 0,-2.62823 -0.06483,-2.41007 0.868669,-2.92327 0.298327,-0.16393 0.542417,-0.32331 0.542417,-0.35402 0,-0.0309 -0.162318,-0.16826 -0.360716,-0.30583 -1.028016,-0.71241 -2.013971,-2.17766 -2.338877,-3.47584 -0.201325,-0.80442 -0.134174,-2.39054 0.13451,-3.17721 1.033244,-3.02511 4.386038,-4.85502 7.661927,-4.18175 2.136444,0.4391 3.832748,1.7715 4.690824,3.6846 0.361925,0.8069 0.484002,1.41362 0.481552,2.39329 -0.0043,1.76252 -0.804317,3.40089 -2.221636,4.55038 -0.254647,0.20641 -0.463011,0.4065 -0.463011,0.44439 0,0.038 0.188503,0.17638 0.418915,0.30774 0.88078,0.5022 0.815782,0.26078 0.815782,3.02947 0,1.77735 -0.02862,2.465 -0.105831,2.54221 -0.07977,0.0796 -1.316324,0.10568 -5.023888,0.10568 -4.772077,0 -4.920765,-0.006 -5.009351,-0.17069 z m 4.778272,-1.34136 c 0.02029,-0.72066 0.0537,-0.91258 0.172084,-0.98706 0.106484,-0.067 0.185415,-0.0605 0.286623,0.0243 0.110188,0.0915 0.139673,0.2998 0.139673,0.98705 v 0.87111 h 2.031202 c 1.725502,0 2.038854,-0.0189 2.082046,-0.13248 0.118689,-0.30933 -0.0843,-0.54865 -1.048716,-1.23644 -0.806681,-0.57531 -0.992,-0.74828 -0.992,-0.92603 0,-0.17285 0.05069,-0.22425 0.242529,-0.24644 l 0.242526,-0.0279 v -0.72694 c 0,-0.82266 0.11329,-1.0851 0.425635,-0.98597 0.182308,0.0579 0.191777,0.11143 0.193075,1.09112 6.9e-4,0.56673 0.03051,1.07216 0.06615,1.12322 0.107317,0.15365 0.691445,0.5686 0.80071,0.5686 0.07253,0 0.101903,-0.37768 0.101903,-1.30922 0,-1.48548 0.04525,-1.38286 -0.823095,-1.86798 l -0.514419,-0.28745 -0.896236,0.29918 c -0.869904,0.29041 -0.937695,0.2992 -2.307746,0.29891 -1.355532,-2.1e-4 -1.441911,-0.0113 -2.177833,-0.27426 l -0.766317,-0.27401 -0.710913,0.40097 -0.710915,0.40096 v 1.35053 c 0,0.7428 0.02272,1.35058 0.05046,1.35058 0.02775,0 0.226187,-0.10309 0.440962,-0.22887 l 0.390524,-0.22887 0.0014,-0.89557 c 0.0016,-1.14751 0.206306,-1.60144 0.561721,-1.24599 0.108544,0.1085 0.142513,0.31853 0.142513,0.88028 v 0.7378 l 0.290718,-0.0471 c 0.315025,-0.0511 0.543194,0.11558 0.458905,0.33517 -0.02597,0.0676 -0.562393,0.43193 -1.192126,0.80964 -1.113533,0.66789 -1.144968,0.69508 -1.144968,0.9907 v 0.30396 h 2.069441 2.069444 z m 2.265337,-4.35748 c 1.403562,-0.46993 2.640938,-1.50058 3.294283,-2.74387 0.429067,-0.81653 0.595175,-1.49004 0.593708,-2.40729 -0.002,-1.2675 0.205601,-1.15 -2.032309,-1.15 -1.442955,0 -1.942613,0.0275 -1.996101,0.11041 -0.03924,0.0606 -0.191398,0.42737 -0.338104,0.81498 -0.382438,1.0104 -0.497129,0.9789 -0.708436,-0.1945 -0.249425,-1.38497 -0.369803,-1.31205 -0.674781,0.40874 -0.236279,1.33315 -0.338408,1.62908 -0.50309,1.45776 -0.04428,-0.0461 -0.22394,-1.07598 -0.399194,-2.28859 -0.378048,-2.61568 -0.375281,-2.60172 -0.515638,-2.60172 -0.06054,0 -0.377093,0.53579 -0.703448,1.19062 l -0.593372,1.1906 h -1.626578 -1.626579 l -0.06131,0.40891 c -0.234007,1.5605 0.483321,3.42764 1.761718,4.58559 0.632883,0.57328 1.868907,1.21483 2.698432,1.40062 0.933964,0.20911 2.512332,0.12546 3.430809,-0.18205 z m -2.582339,-0.34598 c -0.501349,-0.14204 -0.612279,-0.23104 -0.568647,-0.45582 0.02803,-0.14447 0.130451,-0.16555 0.868148,-0.17909 0.460004,-0.008 0.975273,-0.0281 1.145044,-0.0441 0.276178,-0.0243 0.311494,-0.006 0.335474,0.20237 0.023,0.19722 -0.02543,0.25187 -0.329357,0.37355 -0.522805,0.20913 -0.965587,0.24078 -1.450662,0.1031 z m -1.6422,-2.07469 c -0.09701,-0.0972 -0.176384,-0.25567 -0.176384,-0.35282 0,-0.24453 0.308426,-0.52913 0.573253,-0.52913 0.264818,0 0.573252,0.28468 0.573252,0.52913 0,0.24455 -0.308429,0.52918 -0.573252,0.52918 -0.121275,0 -0.299857,-0.0793 -0.396869,-0.17636 z m 3.439517,-0.0882 c -0.232761,-0.23267 -0.222508,-0.40285 0.0401,-0.66546 0.243582,-0.24345 0.329798,-0.25996 0.605107,-0.11502 0.242042,0.12748 0.321863,0.24591 0.323575,0.48022 0.0031,0.43406 -0.63668,0.63239 -0.968767,0.30029 z m -1.097809,-4.10189 c 0.211607,-1.21013 0.333943,-1.55258 0.494567,-1.38443 0.03281,0.0344 0.152225,0.57839 0.265306,1.20896 0.232869,1.29834 0.343523,1.42064 0.618496,0.68352 l 0.172705,-0.46302 h 1.972971 c 1.085132,0 1.99242,-0.0315 2.016195,-0.0698 0.08023,-0.12991 -0.357483,-1.05886 -0.773608,-1.642 -0.728041,-1.02028 -1.981677,-1.859 -3.316077,-2.21859 -0.773686,-0.20857 -2.314601,-0.21426 -3.086747,-0.0113 -1.084749,0.28486 -1.999152,0.80872 -2.786328,1.59624 -0.677355,0.67767 -1.19903,1.50881 -1.403089,2.23545 l -0.05574,0.19856 1.439077,-9.8e-4 c 0.791494,-6.2e-4 1.483847,-0.0306 1.538565,-0.0662 0.05473,-0.0355 0.422055,-0.70973 0.816304,-1.49793 0.672478,-1.34451 0.811339,-1.54707 0.929474,-1.35595 0.02624,0.0426 0.169945,0.92549 0.319337,1.9623 0.278277,1.93132 0.382411,2.3719 0.526552,2.22775 0.04457,-0.0447 0.184959,-0.67541 0.312001,-1.40192 z"
       id="path4010-0"
       inkscape:connector-curvature="0" />
    <path
       style="fill:#179cfd;stroke-width:0.434238"
       d="m 28.084301,261.62139 c -0.09334,-0.2432 -0.06068,-4.53422 0.03585,-4.71459 0.04932,-0.0922 0.366818,-0.32942 0.705541,-0.52725 0.338727,-0.19778 0.615865,-0.39635 0.615865,-0.44114 0,-0.0449 -0.225402,-0.25131 -0.5009,-0.45914 -1.007366,-0.75955 -1.863496,-2.05429 -2.182561,-3.30077 -0.176274,-0.68859 -0.179006,-2.04001 -0.0054,-2.72476 0.07324,-0.28909 0.298305,-0.86296 0.500144,-1.27526 0.293281,-0.59912 0.51896,-0.90166 1.123813,-1.50667 0.628099,-0.62825 0.899287,-0.82698 1.594434,-1.16847 1.206772,-0.59277 1.759323,-0.7188 3.130615,-0.71416 0.806735,0.002 1.311968,0.0495 1.704825,0.15746 3.200698,0.88036 5.194794,3.81447 4.65392,6.84772 -0.248316,1.39251 -1.241594,2.98286 -2.337264,3.74216 -0.198811,0.13767 -0.36148,0.28303 -0.36148,0.3228 0,0.0398 0.277437,0.23428 0.616524,0.43238 0.393273,0.22968 0.633784,0.4307 0.664178,0.55509 0.02625,0.10714 0.03649,1.24673 0.02299,2.53213 l -0.02488,2.33712 -4.951132,0.0216 c -4.457619,0.0215 -4.956494,0.008 -5.004941,-0.11734 z m 4.796794,-1.27231 c 0.04062,-0.85254 0.0581,-0.92604 0.220478,-0.92604 0.162399,0 0.179874,0.0735 0.22048,0.92604 l 0.0441,0.92602 h 2.11542 c 1.979416,0 2.117418,-0.0113 2.146485,-0.16124 0.07415,-0.38501 -0.08786,-0.58193 -1.039039,-1.26279 -0.5321,-0.38086 -0.988888,-0.74572 -1.015085,-0.81071 -0.07133,-0.17694 0.02596,-0.27867 0.266821,-0.27867 0.212067,0 0.215285,-0.0113 0.215285,-0.78294 0,-0.57789 0.03363,-0.81084 0.12842,-0.88952 0.247505,-0.20531 0.312538,-0.006 0.312538,0.96492 0,0.5267 0.02407,1.0201 0.05321,1.09639 0.07569,0.19722 0.895628,0.78122 1.003392,0.71461 0.137026,-0.0848 0.118488,-2.70962 -0.02028,-2.88339 -0.06062,-0.0761 -0.366131,-0.28527 -0.678882,-0.46529 -0.638192,-0.36731 -0.664782,-0.36715 -1.680277,0.0113 -0.620191,0.23022 -0.749452,0.24593 -2.072528,0.24835 -1.367516,0.002 -1.436372,-0.006 -2.229991,-0.28332 l -0.818897,-0.286 -0.707163,0.41086 c -0.388942,0.22589 -0.744718,0.48108 -0.790616,0.56686 -0.04592,0.0857 -0.08344,0.71537 -0.08344,1.39919 0,0.99797 0.02488,1.25279 0.126404,1.29174 0.157447,0.0603 0.905595,-0.36921 1.022127,-0.58694 0.04739,-0.0885 0.0862,-0.57804 0.0862,-1.08767 0,-0.95796 0.0901,-1.20675 0.322052,-0.88956 0.07719,0.10547 0.118894,0.4201 0.118894,0.89644 v 0.73386 l 0.360543,-0.0576 c 0.341277,-0.0546 0.358954,-0.0466 0.330725,0.14961 -0.02299,0.16068 -0.280994,0.35508 -1.148549,0.86561 -1.145685,0.67416 -1.30229,0.84178 -1.171412,1.25421 0.05178,0.16311 0.145382,0.16933 2.186334,0.14688 l 2.132238,-0.0243 z m 2.160723,-4.26226 c 1.769875,-0.57963 3.167996,-1.90262 3.76078,-3.55863 0.192048,-0.53652 0.328288,-2.18171 0.217288,-2.62393 l -0.05685,-0.22641 h -1.977453 c -1.485114,0 -1.995217,0.0273 -2.0488,0.11041 -0.03924,0.0605 -0.191399,0.42736 -0.338105,0.81497 -0.382437,1.0104 -0.497129,0.97892 -0.708437,-0.1945 -0.249424,-1.38497 -0.369803,-1.31205 -0.674782,0.40873 -0.236276,1.33315 -0.338406,1.62909 -0.503087,1.45777 -0.04428,-0.046 -0.223941,-1.07597 -0.399196,-2.28861 -0.378048,-2.61567 -0.375282,-2.6017 -0.515636,-2.6017 -0.06054,0 -0.377094,0.53578 -0.703448,1.19062 l -0.593373,1.19063 h -1.628884 c -1.902339,0 -1.81147,-0.0499 -1.81147,0.99426 0,0.80431 0.255081,1.83651 0.632916,2.56111 0.424332,0.81377 1.610253,1.95985 2.460638,2.37796 1.097382,0.53952 1.794389,0.68665 3.07994,0.64999 0.892825,-0.0244 1.23655,-0.0755 1.807954,-0.26241 z m -2.425303,-0.51429 c -0.478805,-0.10703 -0.703657,-0.2876 -0.549872,-0.44139 0.07642,-0.0766 0.231706,-0.0808 0.585546,-0.0162 0.356597,0.0647 0.599579,0.0571 0.936494,-0.0291 0.48231,-0.12329 0.615302,-0.0987 0.615302,0.11422 0,0.28859 -0.958357,0.51378 -1.58747,0.37302 z m -1.706091,-2.08738 c -0.189693,-0.20965 -0.184796,-0.3936 0.01543,-0.57471 0.232894,-0.21073 0.518062,-0.17963 0.684657,0.0743 0.133834,0.20423 0.133834,0.23669 0,0.44096 -0.171756,0.26213 -0.491832,0.2892 -0.699982,0.0593 z m 3.421615,-0.14148 c -0.271481,-0.41435 0.198702,-0.82027 0.625904,-0.54036 0.247452,0.16205 0.279238,0.41467 0.07757,0.61634 -0.207737,0.20776 -0.541169,0.17179 -0.703478,-0.0761 z m -1.137669,-3.97553 c 0.211606,-1.21013 0.333942,-1.55259 0.494569,-1.38441 0.03282,0.0344 0.152224,0.57837 0.265305,1.20895 0.23276,1.29772 0.34355,1.42057 0.617887,0.68512 l 0.172107,-0.46134 2.000835,-0.0243 c 2.352706,-0.0279 2.281076,0.0162 1.723959,-1.05794 -0.429635,-0.82824 -1.435244,-1.8525 -2.279603,-2.32184 -3.036046,-1.6875 -6.967182,-0.61741 -8.490501,2.31125 -0.205682,0.39548 -0.373989,0.82207 -0.373989,0.94808 v 0.22911 l 1.433135,-9.7e-4 c 0.788221,-6e-4 1.477901,-0.0306 1.53262,-0.0663 0.05473,-0.0355 0.422054,-0.7097 0.816303,-1.49792 0.672479,-1.34449 0.811342,-1.54706 0.929474,-1.35594 0.02625,0.0425 0.169945,0.9255 0.319337,1.96229 0.278278,1.93132 0.382411,2.37191 0.526555,2.22776 0.04455,-0.0447 0.184956,-0.67543 0.311999,-1.40192 z"
       id="path4008-4"
       inkscape:connector-curvature="0" />
    <path
       style="fill:#050505;fill-opacity:1;stroke-width:0.434238"
       d="m 28.084301,261.62139 c -0.09334,-0.2432 -0.06068,-4.53422 0.03585,-4.71459 0.04932,-0.0922 0.366818,-0.32942 0.705541,-0.52725 0.338727,-0.19778 0.615865,-0.39635 0.615865,-0.44114 0,-0.0449 -0.225402,-0.25131 -0.5009,-0.45914 -1.007366,-0.75955 -1.863496,-2.05429 -2.182561,-3.30077 -0.176274,-0.68859 -0.179006,-2.04001 -0.0054,-2.72476 0.07324,-0.28909 0.298305,-0.86296 0.500144,-1.27526 0.293281,-0.59912 0.51896,-0.90166 1.123813,-1.50667 0.628099,-0.62825 0.899287,-0.82698 1.594434,-1.16847 1.206772,-0.59277 1.759323,-0.7188 3.130615,-0.71416 0.806735,0.002 1.311968,0.0495 1.704825,0.15746 3.200698,0.88036 5.194794,3.81447 4.65392,6.84772 -0.248316,1.39251 -1.241594,2.98286 -2.337264,3.74216 -0.198811,0.13767 -0.36148,0.28303 -0.36148,0.3228 0,0.0398 0.277437,0.23428 0.616524,0.43238 0.393273,0.22968 0.633784,0.4307 0.664178,0.55509 0.02625,0.10714 0.03649,1.24673 0.02299,2.53213 l -0.02488,2.33712 -4.951132,0.0216 c -4.457619,0.0215 -4.956494,0.008 -5.004941,-0.11734 z m 4.796794,-1.27231 c 0.04062,-0.85254 0.0581,-0.92604 0.220478,-0.92604 0.162399,0 0.179874,0.0735 0.22048,0.92604 l 0.0441,0.92602 h 2.11542 c 1.979416,0 2.117418,-0.0113 2.146485,-0.16124 0.07415,-0.38501 -0.08786,-0.58193 -1.039039,-1.26279 -0.5321,-0.38086 -0.988888,-0.74572 -1.015085,-0.81071 -0.07133,-0.17694 0.02596,-0.27867 0.266821,-0.27867 0.212067,0 0.215285,-0.0113 0.215285,-0.78294 0,-0.57789 0.03363,-0.81084 0.12842,-0.88952 0.247505,-0.20531 0.312538,-0.006 0.312538,0.96492 0,0.5267 0.02407,1.0201 0.05321,1.09639 0.07569,0.19722 0.895628,0.78122 1.003392,0.71461 0.137026,-0.0848 0.118488,-2.70962 -0.02028,-2.88339 -0.06062,-0.0761 -0.366131,-0.28527 -0.678882,-0.46529 -0.638192,-0.36731 -0.664782,-0.36715 -1.680277,0.0113 -0.620191,0.23022 -0.749452,0.24593 -2.072528,0.24835 -1.367516,0.002 -1.436372,-0.006 -2.229991,-0.28332 l -0.818897,-0.286 -0.707163,0.41086 c -0.388942,0.22589 -0.744718,0.48108 -0.790616,0.56686 -0.04592,0.0857 -0.08344,0.71537 -0.08344,1.39919 0,0.99797 0.02488,1.25279 0.126404,1.29174 0.157447,0.0603 0.905595,-0.36921 1.022127,-0.58694 0.04739,-0.0885 0.0862,-0.57804 0.0862,-1.08767 0,-0.95796 0.0901,-1.20675 0.322052,-0.88956 0.07719,0.10547 0.118894,0.4201 0.118894,0.89644 v 0.73386 l 0.360543,-0.0576 c 0.341277,-0.0546 0.358954,-0.0466 0.330725,0.14961 -0.02299,0.16068 -0.280994,0.35508 -1.148549,0.86561 -1.145685,0.67416 -1.30229,0.84178 -1.171412,1.25421 0.05178,0.16311 0.145382,0.16933 2.186334,0.14688 l 2.132238,-0.0243 z m 2.160723,-4.26226 c 1.798336,-0.58895 3.232202,-1.974 3.804655,-3.6751 0.213148,-0.63339 0.221914,-2.36663 0.01569,-3.09953 -0.356769,-1.26779 -1.453375,-2.62144 -2.672695,-3.2992 -2.477562,-1.37709 -5.596645,-0.9588 -7.541693,1.01144 -1.633552,1.65471 -2.027872,4.11443 -0.994473,6.2034 0.44418,0.89788 1.576714,2.0172 2.500652,2.47147 1.097382,0.53953 1.794387,0.68664 3.079941,0.64999 0.892823,-0.0243 1.236549,-0.0756 1.807951,-0.26241 z m -2.425303,-0.51429 c -0.478805,-0.10703 -0.703657,-0.2876 -0.549872,-0.44139 0.07642,-0.0766 0.231706,-0.0808 0.585546,-0.0162 0.356597,0.0647 0.599579,0.0571 0.936494,-0.0291 0.48231,-0.12329 0.615302,-0.0987 0.615302,0.11422 0,0.28859 -0.958357,0.51378 -1.58747,0.37302 z m -1.706091,-2.08738 c -0.189693,-0.20965 -0.184796,-0.3936 0.01543,-0.57471 0.232894,-0.21073 0.518062,-0.17963 0.684657,0.0743 0.133834,0.20423 0.133834,0.23669 0,0.44096 -0.171756,0.26213 -0.491832,0.2892 -0.699982,0.0593 z m 3.421615,-0.14148 c -0.271481,-0.41435 0.198702,-0.82027 0.625904,-0.54036 0.247452,0.16205 0.279238,0.41467 0.07757,0.61634 -0.207737,0.20776 -0.541169,0.17179 -0.703478,-0.0761 z"
       id="path4006-5"
       inkscape:connector-curvature="0" />
  </g>
  <path
     d="m 19.555235,362.87509 v -9.54424 h 1.874995 l 3.90624,6.37368 v -6.37368 h 1.79036 v 9.54424 h -1.933589 l -3.847646,-6.22394 v 6.22394 z m 13.600225,-2.20051 1.822912,0.30599 q -0.351561,1.0026 -1.113278,1.52994 -0.755207,0.52083 -1.894527,0.52083 -1.803381,0 -2.669264,-1.17838 -0.683592,-0.94401 -0.683592,-2.38281 0,-1.71874 0.898435,-2.68879 0.898436,-0.97656 2.27213,-0.97656 1.542965,0 2.43489,1.02213 0.891925,1.01562 0.852862,3.11848 h -4.583322 q 0.01953,0.8138 0.442708,1.26953 0.423176,0.44922 1.054684,0.44922 0.429687,0 0.722655,-0.23438 0.292968,-0.23437 0.442707,-0.7552 z m 0.104166,-1.84896 q -0.01953,-0.79426 -0.410155,-1.20442 -0.390624,-0.41667 -0.950518,-0.41667 -0.598957,0 -0.989581,0.4362 -0.390624,0.4362 -0.384114,1.18489 z m 9.648414,4.04947 h -1.699215 v -1.01562 q -0.423176,0.59245 -1.002601,0.88542 -0.572915,0.28645 -1.158851,0.28645 -1.191404,0 -2.044266,-0.95703 -0.846352,-0.96354 -0.846352,-2.68228 0,-1.75781 0.826821,-2.66926 0.826821,-0.91797 2.089838,-0.91797 1.158851,0 2.005203,0.96354 v -3.43749 h 1.829423 z m -4.8828,-3.60676 q 0,1.10677 0.305989,1.60156 0.442707,0.71614 1.236976,0.71614 0.631508,0 1.074216,-0.53385 0.442707,-0.54036 0.442707,-1.60807 0,-1.1914 -0.429687,-1.71223 -0.429686,-0.52735 -1.100257,-0.52735 -0.65104,0 -1.093747,0.52084 -0.436197,0.51432 -0.436197,1.54296 z m 6.705712,3.60676 v -9.54424 h 4.055979 q 1.529944,0 2.220046,0.26041 0.696613,0.25391 1.113279,0.91146 0.416665,0.65755 0.416665,1.5039 0,1.07422 -0.631508,1.77734 -0.631509,0.69661 -1.888016,0.8789 0.624998,0.36459 1.028643,0.80078 0.410155,0.4362 1.100257,1.54948 l 1.165362,1.86197 h -2.304682 l -1.393225,-2.07681 q -0.742186,-1.11328 -1.015623,-1.39974 -0.273437,-0.29297 -0.579425,-0.39713 -0.305989,-0.11068 -0.97005,-0.11068 H 46.65803 v 3.98436 z m 1.927078,-5.5078 h 1.425778 q 1.386715,0 1.731766,-0.11718 0.345051,-0.11719 0.540363,-0.40365 0.195312,-0.28645 0.195312,-0.71614 0,-0.48177 -0.260416,-0.77474 -0.253905,-0.29948 -0.722654,-0.3776 -0.234374,-0.0326 -1.406247,-0.0326 H 46.65803 Z m 12.233042,5.5078 v -1.03515 q -0.377604,0.55338 -0.996092,0.87239 -0.611977,0.31901 -1.295569,0.31901 -0.696613,0 -1.249997,-0.30599 -0.553384,-0.30598 -0.800779,-0.85937 -0.247396,-0.55338 -0.247396,-1.52994 v -4.37499 h 1.829423 v 3.17707 q 0,1.45833 0.09766,1.79036 0.104166,0.32552 0.371093,0.52084 0.266926,0.1888 0.677081,0.1888 0.468749,0 0.839842,-0.25391 0.371093,-0.26041 0.507811,-0.63802 0.136719,-0.38411 0.136719,-1.86848 v -2.91666 h 1.829422 v 6.91404 z m 2.949209,-1.97265 1.835932,-0.27995 q 0.117188,0.53386 0.47526,0.81381 0.358072,0.27343 1.002601,0.27343 0.709634,0 1.067706,-0.26041 0.240885,-0.1823 0.240885,-0.48828 0,-0.20834 -0.130208,-0.34506 -0.136719,-0.1302 -0.611978,-0.24088 -2.213536,-0.48828 -2.805982,-0.89193 -0.820311,-0.55989 -0.820311,-1.55598 0,-0.89844 0.709634,-1.51041 0.709633,-0.61198 2.200515,-0.61198 1.419267,0 2.10937,0.46224 0.690102,0.46224 0.950518,1.36718 l -1.725256,0.31901 q -0.110677,-0.40364 -0.423176,-0.61849 -0.305989,-0.21484 -0.878904,-0.21484 -0.722654,0 -1.035154,0.20182 -0.208332,0.14323 -0.208332,0.37109 0,0.19532 0.182291,0.33204 0.247395,0.18229 1.705725,0.51432 1.46484,0.33203 2.044265,0.8138 0.572916,0.48828 0.572916,1.36067 0,0.95052 -0.794269,1.63411 -0.794269,0.68359 -2.350255,0.68359 -1.412757,0 -2.239577,-0.57291 -0.820311,-0.57292 -1.074216,-1.55599 z m 9.882784,-7.57159 v 3.5091 q 0.88542,-1.03515 2.11589,-1.03515 0.6315,0 1.13932,0.23437 0.50781,0.23438 0.76171,0.59896 0.26042,0.36458 0.35156,0.80729 0.0977,0.44271 0.0977,1.37369 v 4.05598 h -1.82942 v -3.65233 q 0,-1.08724 -0.10417,-1.38021 -0.10416,-0.29296 -0.37109,-0.46223 -0.26041,-0.17579 -0.65755,-0.17579 -0.45573,0 -0.8138,0.22136 -0.35807,0.22135 -0.52734,0.67057 -0.16276,0.44271 -0.16276,1.3151 v 3.46353 h -1.829423 v -9.54424 z"
     id="text1"
     style="font-weight:bold;font-size:13.3333px;font-family:Arial;-inkscape-font-specification:'Arial Bold';text-align:center;text-anchor:middle;fill:#ff7e79;stroke-width:1.002"
     aria-label="NedRush" />
  <path
     d="M 10.101269,24 V 13.978516 h 4.258789 q 1.606446,0 2.331055,0.273437 0.731445,0.266602 1.168945,0.957031 0.4375,0.69043 0.4375,1.579102 0,1.12793 -0.663085,1.866211 -0.663086,0.731445 -1.982422,0.922851 0.65625,0.382813 1.080078,0.840821 0.430664,0.458008 1.155273,1.626953 L 19.111035,24 h -2.419922 l -1.46289,-2.180664 Q 14.448926,20.650391 14.161816,20.349609 13.874707,20.041992 13.553418,19.932617 13.232129,19.816406 12.534863,19.816406 H 12.124707 V 24 Z m 2.023438,-5.783203 h 1.49707 q 1.456055,0 1.81836,-0.123047 0.362304,-0.123047 0.567382,-0.423828 0.205079,-0.300781 0.205079,-0.751953 0,-0.50586 -0.273438,-0.813477 -0.266602,-0.314453 -0.758789,-0.396484 -0.246094,-0.03418 -1.476563,-0.03418 H 12.124707 Z M 29.841895,24 h -2.201172 l -0.875,-2.276367 H 22.759864 L 21.932715,24 h -2.146484 l 3.90332,-10.021484 h 2.139648 z m -3.725586,-3.964844 -1.38086,-3.71875 -1.353515,3.71875 z M 31.535645,24 V 13.978516 h 1.96875 l 4.101563,6.692382 V 13.978516 H 39.48584 V 24 H 37.455567 L 33.415528,17.464844 V 24 Z M 42.218651,13.978516 h 3.698243 q 1.250976,0 1.907226,0.191406 0.881836,0.259766 1.510742,0.922851 0.628907,0.663086 0.957032,1.626954 0.328125,0.957031 0.328125,2.365234 0,1.237305 -0.307618,2.132812 -0.375976,1.09375 -1.073242,1.770508 -0.526367,0.512696 -1.421875,0.799805 Q 47.147362,24 46.026269,24 h -3.807618 z m 2.023438,1.695312 v 6.637695 h 1.510742 q 0.847656,0 1.223633,-0.0957 0.492187,-0.123047 0.813477,-0.416992 0.328125,-0.293945 0.533203,-0.963867 0.205078,-0.676758 0.205078,-1.838867 0,-1.16211 -0.205078,-1.78418 -0.205078,-0.62207 -0.574219,-0.970703 -0.369141,-0.348633 -0.936524,-0.47168 -0.423828,-0.0957 -1.661132,-0.0957 z m 8.283596,3.376953 q 0,-1.53125 0.458008,-2.570312 0.341797,-0.765625 0.929687,-1.374024 0.594727,-0.608398 1.298828,-0.902343 0.936524,-0.396485 2.160157,-0.396485 2.214843,0 3.541015,1.374024 1.333008,1.374023 1.333008,3.821289 0,2.426757 -1.319336,3.800781 -1.319336,1.367187 -3.527344,1.367187 -2.235351,0 -3.554687,-1.360351 -1.319336,-1.367188 -1.319336,-3.759766 z m 2.084961,-0.06836 q 0,1.702148 0.786133,2.583984 0.786133,0.875 1.996094,0.875 1.20996,0 1.982421,-0.868164 0.779297,-0.875 0.779297,-2.618164 0,-1.722656 -0.758789,-2.570312 -0.751953,-0.847657 -2.002929,-0.847657 -1.250977,0 -2.016602,0.861328 -0.765625,0.854493 -0.765625,2.583985 z M 64.398144,24 V 13.978516 h 3.028321 l 1.818359,6.835937 1.797852,-6.835937 h 3.035156 V 24 H 72.197949 V 16.111328 L 70.208691,24 H 68.260449 L 66.278027,16.111328 V 24 Z m 16.266404,-3.260742 1.96875,-0.191406 q 0.177734,0.99121 0.717773,1.456054 0.546875,0.464844 1.469727,0.464844 0.977539,0 1.469726,-0.410156 0.499024,-0.416992 0.499024,-0.970703 0,-0.355469 -0.211914,-0.601563 -0.205079,-0.25293 -0.72461,-0.4375 -0.355469,-0.123047 -1.620117,-0.4375 -1.626953,-0.40332 -2.283203,-0.991211 -0.922852,-0.827148 -0.922852,-2.016601 0,-0.765625 0.430664,-1.428711 0.4375,-0.669922 1.250977,-1.018555 0.820312,-0.348633 1.975586,-0.348633 1.886719,0 2.836914,0.827149 0.957031,0.827148 1.004883,2.208007 l -2.023438,0.08887 q -0.129883,-0.772461 -0.560547,-1.107422 -0.423828,-0.341797 -1.27832,-0.341797 -0.881836,0 -1.380859,0.362305 -0.321289,0.232421 -0.321289,0.62207 0,0.355469 0.300781,0.608398 0.382812,0.321289 1.859375,0.669922 1.476562,0.348633 2.180664,0.72461 0.710937,0.36914 1.107422,1.018554 0.40332,0.642578 0.40332,1.592774 0,0.861328 -0.478516,1.613281 -0.478515,0.751953 -1.353515,1.121094 -0.875,0.362304 -2.180664,0.362304 -1.900391,0 -2.918946,-0.875 -1.018554,-0.881836 -1.216796,-2.563476 z M 91.11514,24 V 13.978516 h 7.430664 v 1.695312 h -5.407227 v 2.22168 h 5.03125 v 1.688476 h -5.03125 v 2.727539 H 98.73721 V 24 Z m 18.0043,-1.271484 q 0.74511,0.533203 1.62011,0.847656 l -0.74511,1.428711 q -0.45801,-0.136719 -0.89551,-0.375977 -0.0957,-0.04785 -1.34668,-0.888672 -0.98438,0.430664 -2.18067,0.430664 -2.31054,0 -3.62304,-1.360351 -1.30567,-1.360352 -1.30567,-3.821289 0,-2.454102 1.3125,-3.814453 1.3125,-1.367188 3.56153,-1.367188 2.22851,0 3.53418,1.367188 1.30566,1.360351 1.30566,3.814453 0,1.298828 -0.3623,2.283203 -0.27344,0.751953 -0.875,1.456055 z m -1.62696,-1.141602 q 0.38965,-0.458008 0.58106,-1.107422 0.19824,-0.649414 0.19824,-1.490234 0,-1.736328 -0.76563,-2.590821 -0.76562,-0.861328 -2.00293,-0.861328 -1.2373,0 -2.00976,0.861328 -0.76563,0.861329 -0.76563,2.590821 0,1.756836 0.76563,2.631836 0.77246,0.868164 1.94824,0.868164 0.4375,0 0.82715,-0.143555 -0.61524,-0.40332 -1.25098,-0.628906 l 0.56739,-1.155274 q 0.99804,0.341797 1.90722,1.025391 z"
     id="title"
     class="title"
     style="font-weight:bold;font-size:14px;font-family:Arial, sans-serif;letter-spacing:0.6px;text-anchor:middle;fill:#ff7e79"
     aria-label="RANDOM SEQ" />
  <path
     d="m 46.739062,64 v -4.58125 h 0.60625 v 4.040625 h 2.25625 V 64 Z m 3.896875,0 v -4.58125 h 3.3125 v 0.540625 h -2.70625 V 61.3625 h 2.534375 V 61.9 h -2.534375 v 1.559375 h 2.8125 V 64 Z m 4.550001,0 v -4.58125 h 0.621875 l 2.40625,3.596875 V 59.41875 h 0.58125 V 64 h -0.621875 l -2.40625,-3.6 V 64 Z m 7.071875,-1.796875 v -0.5375 l 1.940625,-0.0031 v 1.7 q -0.446875,0.35625 -0.921875,0.5375 -0.475,0.178125 -0.975,0.178125 -0.675,0 -1.228125,-0.2875 -0.55,-0.290625 -0.83125,-0.8375 -0.28125,-0.546875 -0.28125,-1.221875 0,-0.66875 0.278125,-1.246875 0.28125,-0.58125 0.80625,-0.8625 0.525,-0.28125 1.209375,-0.28125 0.496875,0 0.896875,0.1625 0.403125,0.159375 0.63125,0.446875 0.228125,0.2875 0.346875,0.75 l -0.546875,0.15 q -0.103125,-0.35 -0.25625,-0.55 -0.153125,-0.2 -0.4375,-0.31875 -0.284375,-0.121875 -0.63125,-0.121875 -0.415625,0 -0.71875,0.128125 -0.303125,0.125 -0.490625,0.33125 -0.184375,0.20625 -0.2875,0.453125 -0.175,0.425 -0.175,0.921875 0,0.6125 0.209375,1.025 0.2125,0.4125 0.615625,0.6125 0.403125,0.2 0.85625,0.2 0.39375,0 0.76875,-0.15 0.375,-0.153125 0.56875,-0.325 V 62.203125 Z M 66.557813,64 V 59.959375 H 65.048438 V 59.41875 h 3.63125 v 0.540625 H 67.164063 V 64 Z m 3.062501,0 v -4.58125 h 0.60625 V 61.3 h 2.38125 v -1.88125 h 0.60625 V 64 h -0.60625 v -2.159375 h -2.38125 V 64 Z"
     id="l1"
     class="tiny"
     style="font-size:6.4px;font-family:Arial, sans-serif;letter-spacing:0.3px;text-anchor:middle;fill:#d0d0d0"
     aria-label="LENGTH" />
  <path
     d="m 46.9375,131.76875 q 0,-1.14063 0.6125,-1.78438 0.6125,-0.64687 1.58125,-0.64687 0.634375,0 1.14375,0.30312 0.509375,0.30313 0.775,0.84688 0.26875,0.54062 0.26875,1.22812 0,0.69688 -0.28125,1.24688 -0.28125,0.55 -0.796875,0.83437 -0.515625,0.28126 -1.1125,0.28126 -0.646875,0 -1.15625,-0.31251 Q 47.4625,133.45312 47.2,132.9125 q -0.2625,-0.54063 -0.2625,-1.14375 z m 0.625,0.009 q 0,0.82813 0.44375,1.30625 0.446875,0.475 1.11875,0.475 0.684375,0 1.125,-0.48125 0.44375,-0.48125 0.44375,-1.36562 0,-0.55938 -0.190625,-0.975 -0.1875,-0.41875 -0.553125,-0.64688 -0.3625,-0.23125 -0.815625,-0.23125 -0.64375,0 -1.109375,0.44375 -0.4625,0.44063 -0.4625,1.475 z M 52.43125,134 v -4.58125 h 3.090625 v 0.54062 H 53.0375 v 1.41875 h 2.15 v 0.54063 h -2.15 V 134 Z m 4.209375,0 v -4.58125 h 3.090625 v 0.54062 h -2.484375 v 1.41875 h 2.15 v 0.54063 h -2.15 V 134 Z m 3.971874,-1.47188 0.571875,-0.05 q 0.04062,0.34375 0.1875,0.56563 0.15,0.21875 0.4625,0.35625 0.3125,0.13437 0.703125,0.13437 0.346875,0 0.6125,-0.10312 0.265625,-0.10313 0.39375,-0.28125 0.13125,-0.18125 0.13125,-0.39375 0,-0.21563 -0.125,-0.375 -0.125,-0.1625 -0.4125,-0.27188 -0.184375,-0.0719 -0.815625,-0.22187 -0.63125,-0.15313 -0.884375,-0.2875 -0.328125,-0.17188 -0.490625,-0.425 -0.159375,-0.25625 -0.159375,-0.57188 0,-0.34687 0.196875,-0.64687 0.196875,-0.30313 0.575,-0.45938 0.378125,-0.15625 0.840625,-0.15625 0.509375,0 0.896875,0.16563 0.390625,0.1625 0.6,0.48125 0.209375,0.31875 0.225,0.72187 l -0.58125,0.0437 q -0.04687,-0.43437 -0.31875,-0.65625 -0.26875,-0.22187 -0.796875,-0.22187 -0.55,0 -0.803125,0.20312 -0.25,0.2 -0.25,0.48438 0,0.24687 0.178125,0.40625 0.175,0.15937 0.9125,0.32812 0.740625,0.16563 1.015625,0.29063 0.4,0.18437 0.590625,0.46875 0.190625,0.28125 0.190625,0.65 0,0.36562 -0.209375,0.69062 -0.209375,0.32188 -0.603125,0.50313 -0.390625,0.17813 -0.88125,0.17813 -0.621875,0 -1.04375,-0.18126 -0.41875,-0.18125 -0.659375,-0.54375 -0.2375,-0.36562 -0.25,-0.825 z M 65.4,134 v -4.58125 h 3.3125 v 0.54062 h -2.70625 v 1.40313 h 2.534375 V 131.9 H 66.00625 v 1.55937 h 2.8125 V 134 Z m 5.721875,0 v -4.04063 H 69.6125 v -0.54062 h 3.63125 v 0.54062 H 71.728125 V 134 Z"
     id="l2"
     class="tiny"
     style="font-size:6.4px;font-family:Arial, sans-serif;letter-spacing:0.3px;text-anchor:middle;fill:#d0d0d0"
     aria-label="OFFSET" />
  <path
     d="m 12.1375,268.39375 0.60625,0.15312 q -0.190625,0.74688 -0.6875,1.14063 -0.49375,0.39063 -1.209375,0.39063 -0.740625,0 -1.2062502,-0.30001 -0.4625,-0.30312 -0.70625,-0.875 -0.240625,-0.57187 -0.240625,-1.22812 0,-0.71563 0.271875,-1.24688 0.275,-0.53437 0.778125,-0.80937 0.5062502,-0.27813 1.1125002,-0.27813 0.6875,0 1.15625,0.35 0.46875,0.35 0.653125,0.98438 l -0.596875,0.14062 q -0.159375,-0.5 -0.4625,-0.72812 -0.303125,-0.22813 -0.7625,-0.22813 -0.528125,0 -0.8843752,0.25313 -0.353125,0.25312 -0.496875,0.68125 -0.14375,0.425 -0.14375,0.87812 0,0.58438 0.16875,1.02188 0.171875,0.43437 0.5312502,0.65 0.359375,0.21562 0.778125,0.21562 0.509375,0 0.8625,-0.29375 0.353125,-0.29375 0.478125,-0.87187 z M 13.765625,270 v -4.58125 h 0.60625 v 4.04062 h 2.25625 V 270 Z m 3.7,-2.23125 q 0,-1.14063 0.6125,-1.78438 0.6125,-0.64687 1.58125,-0.64687 0.634375,0 1.14375,0.30312 0.509375,0.30313 0.775,0.84688 0.26875,0.54062 0.26875,1.22812 0,0.69688 -0.28125,1.24688 -0.28125,0.55 -0.796875,0.83437 -0.515625,0.28126 -1.1125,0.28126 -0.646875,0 -1.15625,-0.31251 -0.509375,-0.3125 -0.771875,-0.85312 -0.2625,-0.54063 -0.2625,-1.14375 z m 0.625,0.009 q 0,0.82813 0.44375,1.30625 0.446875,0.475 1.11875,0.475 0.684375,0 1.125,-0.48125 0.44375,-0.48125 0.44375,-1.36562 0,-0.55938 -0.190625,-0.975 -0.1875,-0.41875 -0.553125,-0.64688 -0.3625,-0.23125 -0.815625,-0.23125 -0.64375,0 -1.109375,0.44375 -0.4625,0.44063 -0.4625,1.475 z m 8.106251,0.61563 0.60625,0.15312 q -0.190625,0.74688 -0.6875,1.14063 -0.49375,0.39063 -1.209375,0.39063 -0.740625,0 -1.20625,-0.30001 -0.4625,-0.30312 -0.70625,-0.875 -0.240625,-0.57187 -0.240625,-1.22812 0,-0.71563 0.271875,-1.24688 0.275,-0.53437 0.778125,-0.80937 0.50625,-0.27813 1.1125,-0.27813 0.6875,0 1.15625,0.35 0.46875,0.35 0.653125,0.98438 l -0.596875,0.14062 q -0.159375,-0.5 -0.4625,-0.72812 -0.303125,-0.22813 -0.7625,-0.22813 -0.528125,0 -0.884375,0.25313 -0.353125,0.25312 -0.496875,0.68125 -0.14375,0.425 -0.14375,0.87812 0,0.58438 0.16875,1.02188 0.171875,0.43437 0.53125,0.65 0.359375,0.21562 0.778125,0.21562 0.509375,0 0.8625,-0.29375 0.353125,-0.29375 0.478125,-0.87187 z M 27.825001,270 v -4.58125 h 0.60625 v 2.27187 l 2.275,-2.27187 h 0.821875 l -1.921875,1.85625 2.00625,2.725 h -0.8 l -1.63125,-2.31875 -0.75,0.73125 V 270 Z"
     id="l3"
     class="tiny"
     style="font-size:6.4px;font-family:Arial, sans-serif;letter-spacing:0.3px;text-anchor:middle;fill:#d0d0d0"
     aria-label="CLOCK" />
  <path
     d="m 53.565625,270 v -4.04063 H 52.05625 v -0.54062 h 3.63125 v 0.54062 H 54.171875 V 270 Z m 3.053125,0 v -4.58125 H 58.65 q 0.6125,0 0.93125,0.125 0.31875,0.12187 0.509375,0.43437 0.190625,0.3125 0.190625,0.69063 0,0.4875 -0.315625,0.82187 -0.315625,0.33438 -0.975,0.425 0.240625,0.11563 0.365625,0.22813 0.265625,0.24375 0.503125,0.60937 L 60.65625,270 h -0.7625 l -0.60625,-0.95313 q -0.265625,-0.4125 -0.4375,-0.63125 -0.171875,-0.21875 -0.309375,-0.30625 -0.134375,-0.0875 -0.275,-0.12187 -0.103125,-0.0219 -0.3375,-0.0219 H 57.225 V 270 Z m 0.60625,-2.55938 h 1.303125 q 0.415625,0 0.65,-0.0844 0.234375,-0.0875 0.35625,-0.275 0.121875,-0.19063 0.121875,-0.4125 0,-0.325 -0.2375,-0.53438 Q 59.184375,265.925 58.675,265.925 h -1.45 z M 61.634375,270 v -4.58125 h 0.60625 V 270 Z m 4.11875,-1.79688 v -0.5375 l 1.940625,-0.003 v 1.7 q -0.446875,0.35625 -0.921875,0.5375 -0.475,0.17813 -0.975,0.17813 -0.675,0 -1.228125,-0.28751 -0.55,-0.29062 -0.83125,-0.8375 -0.28125,-0.54687 -0.28125,-1.22187 0,-0.66875 0.278125,-1.24688 0.28125,-0.58125 0.80625,-0.8625 0.525,-0.28125 1.209375,-0.28125 0.496875,0 0.896875,0.1625 0.403125,0.15938 0.63125,0.44688 0.228125,0.2875 0.346875,0.75 l -0.546875,0.15 q -0.103125,-0.35 -0.25625,-0.55 -0.153125,-0.2 -0.4375,-0.31875 -0.284375,-0.12188 -0.63125,-0.12188 -0.415625,0 -0.71875,0.12813 -0.303125,0.125 -0.490625,0.33125 -0.184375,0.20625 -0.2875,0.45312 -0.175,0.425 -0.175,0.92188 0,0.6125 0.209375,1.025 0.2125,0.4125 0.615625,0.6125 0.403125,0.2 0.85625,0.2 0.39375,0 0.76875,-0.15 0.375,-0.15313 0.56875,-0.325 v -0.85313 z"
     id="l4"
     class="tiny"
     style="font-size:6.4px;font-family:Arial, sans-serif;letter-spacing:0.3px;text-anchor:middle;fill:#d0d0d0"
     aria-label="TRIG" />
  <path
     d="m 47.567382,279 v -4.15176 h 1.840821 q 0.555078,0 0.843945,0.11328 0.288867,0.11045 0.461621,0.39366 0.172754,0.2832 0.172754,0.62587 0,0.4418 -0.286035,0.74483 -0.286035,0.30303 -0.883594,0.38516 0.218067,0.10478 0.331348,0.20673 0.240723,0.2209 0.455957,0.55225 L 51.226367,279 h -0.691016 l -0.549414,-0.86377 q -0.240722,-0.37383 -0.396484,-0.57207 -0.155762,-0.19824 -0.280371,-0.27754 -0.121778,-0.0793 -0.249219,-0.11045 -0.09346,-0.0198 -0.305859,-0.0198 H 48.116796 V 279 Z m 0.549414,-2.31943 h 1.180958 q 0.37666,0 0.589062,-0.0765 0.212402,-0.0793 0.322852,-0.24922 0.110449,-0.17275 0.110449,-0.37383 0,-0.29453 -0.215235,-0.48427 -0.212402,-0.18975 -0.674023,-0.18975 H 48.116796 Z M 51.291504,279 l 1.594433,-4.15176 h 0.591895 L 55.177051,279 h -0.625879 l -0.484278,-1.25742 H 52.330859 L 51.874902,279 Z m 1.197949,-1.70488 h 1.407519 l -0.4333,-1.14981 q -0.198243,-0.52392 -0.294532,-0.86094 -0.0793,0.39932 -0.22373,0.79297 z M 55.610351,279 v -4.15176 h 0.563574 l 2.180665,3.25967 v -3.25967 h 0.526757 V 279 h -0.563574 l -2.180664,-3.2625 V 279 Z m 4.194239,0 v -4.15176 h 1.430176 q 0.484277,0 0.73916,0.0595 0.356836,0.0821 0.608887,0.29737 0.328515,0.27754 0.489941,0.71084 0.164258,0.43047 0.164258,0.98554 0,0.47295 -0.110449,0.83829 -0.110449,0.36533 -0.283203,0.60605 -0.172754,0.23789 -0.379493,0.37666 -0.203906,0.13594 -0.495605,0.20674 Q 61.679395,279 61.302735,279 Z m 0.549414,-0.48994 h 0.886426 q 0.410644,0 0.642871,-0.0765 0.235059,-0.0765 0.373828,-0.21523 0.19541,-0.19541 0.303028,-0.52393 0.110449,-0.33134 0.110449,-0.80146 0,-0.65137 -0.215235,-0.99971 -0.212402,-0.35117 -0.518261,-0.47012 -0.220899,-0.085 -0.71084,-0.085 h -0.872266 z m 3.472071,-1.53213 q 0,-1.03369 0.555078,-1.61709 0.555078,-0.58623 1.433008,-0.58623 0.574902,0 1.036523,0.27471 0.461622,0.2747 0.702344,0.76748 0.243555,0.48994 0.243555,1.11299 0,0.63154 -0.254883,1.12998 -0.254883,0.49843 -0.722168,0.75615 -0.467285,0.25488 -1.008203,0.25488 -0.586231,0 -1.047852,-0.2832 -0.461621,-0.28321 -0.699511,-0.77315 -0.237891,-0.48994 -0.237891,-1.03652 z m 0.566406,0.008 q 0,0.75048 0.402149,1.18378 0.40498,0.43047 1.013867,0.43047 0.620215,0 1.019531,-0.43613 0.402149,-0.43613 0.402149,-1.2376 0,-0.50693 -0.172754,-0.88359 -0.169922,-0.37949 -0.50127,-0.58623 -0.328515,-0.20957 -0.73916,-0.20957 -0.583398,0 -1.005371,0.40215 -0.419141,0.39931 -0.419141,1.33672 z M 68.487598,279 v -4.15176 h 0.826953 l 0.982715,2.93965 q 0.135937,0.41065 0.198242,0.61455 0.0708,-0.22656 0.220898,-0.66553 l 0.994043,-2.88867 h 0.73916 V 279 H 71.92002 v -3.4749 L 70.713574,279 h -0.495605 l -1.200782,-3.53438 V 279 Z"
     id="l5"
     class="subtle"
     style="font-size:5.8px;font-family:Arial, sans-serif;text-anchor:middle;fill:#a8a8a8"
     aria-label="RANDOM" />
  <path
     d="m 33.254687,344.76875 q 0,-1.14063 0.6125,-1.78438 0.6125,-0.64687 1.58125,-0.64687 0.634375,0 1.14375,0.30312 0.509375,0.30313 0.775,0.84688 0.26875,0.54062 0.26875,1.22812 0,0.69688 -0.28125,1.24688 -0.28125,0.55 -0.796875,0.83437 -0.515625,0.28126 -1.1125,0.28126 -0.646875,0 -1.15625,-0.31251 -0.509375,-0.3125 -0.771875,-0.85312 -0.2625,-0.54063 -0.2625,-1.14375 z m 0.625,0.009 q 0,0.82813 0.44375,1.30625 0.446875,0.475 1.11875,0.475 0.684375,0 1.125,-0.48125 0.44375,-0.48125 0.44375,-1.36562 0,-0.55938 -0.190625,-0.975 -0.1875,-0.41875 -0.553125,-0.64688 -0.3625,-0.23125 -0.815625,-0.23125 -0.64375,0 -1.109375,0.44375 -0.4625,0.44063 -0.4625,1.475 z m 7.843751,-2.35937 h 0.60625 v 2.64687 q 0,0.69063 -0.15625,1.09688 -0.15625,0.40625 -0.565625,0.6625 -0.40625,0.25313 -1.06875,0.25313 -0.64375,0 -1.053125,-0.22188 -0.409375,-0.22188 -0.584375,-0.64063 -0.175,-0.42187 -0.175,-1.15 v -2.64687 h 0.60625 v 2.64375 q 0,0.59687 0.109375,0.88125 0.1125,0.28125 0.38125,0.43437 0.271875,0.15313 0.6625,0.15313 0.66875,0 0.953125,-0.30313 0.284375,-0.30312 0.284375,-1.16562 z M 44.804688,347 v -4.04063 h -1.509375 v -0.54062 h 3.63125 v 0.54062 H 45.410938 V 347 Z"
     id="l6"
     class="tiny"
     style="font-size:6.4px;font-family:Arial, sans-serif;letter-spacing:0.3px;text-anchor:middle;fill:#d0d0d0"
     aria-label="OUT" />
  <circle
     cx="60"
     cy="100"
     r="1.2"
     fill="#6f6f6f"
     id="mark1" />
  <circle
     cx="60"
     cy="170"
     r="1.2"
     fill="#6f6f6f"
     id="mark2" />
</svg>
