<?xml version="1.0" encoding="UTF-8" standalone="no"?>
<svg
   width="150"
   height="380"
   viewBox="0 0 150 380"
   version="1.1"
   id="svg34"
   sodipodi:docname="RnboRandom8.svg"
   inkscape:version="1.3.2 (091e20e, 2023-11-25)"
   xmlns:inkscape="http://www.inkscape.org/namespaces/inkscape"
   xmlns:sodipodi="http://sodipodi.sourceforge.net/DTD/sodipodi-0.dtd"
   xmlns="http://www.w3.org/2000/svg"
   xmlns:svg="http://www.w3.org/2000/svg">
  <sodipodi:namedview
     id="namedview1"
     pagecolor="#ffffff"
     bordercolor="#000000"
     borderopacity="0.25"
     inkscape:showpageshadow="2"
     inkscape:pageopacity="0.0"
     inkscape:pagecheckerboard="0"
     inkscape:deskcolor="#d1d1d1"
     inkscape:zoom="2.7394737"
     inkscape:cx="74.831892"
     inkscape:cy="190"
     inkscape:window-width="1392"
     inkscape:window-height="1212"
     inkscape:window-x="661"
     inkscape:window-y="414"
     inkscape:window-maximized="0"
     inkscape:current-layer="svg34" />
  <defs
     id="defs1">
    <style
       id="style1">
      .panel  { fill: #2a2a2a; }
      .title  { font-family: Arial, sans-serif; font-size: 12px; font-weight: bold; fill: #ffffff; text-anchor: middle; }
      .hdr    { font-family: Arial, sans-serif; font-size: 6px; fill: #888888; text-anchor: middle; }
      .chnum  { font-family: Arial, sans-serif; font-size: 9px; font-weight: bold; fill: #dddddd; text-anchor: middle; }
      .plabel { font-family: Arial, sans-serif; font-size: 6px; fill: #aaaaaa; text-anchor: middle; }
      .io     { font-family: Arial, sans-serif; font-size: 7.5px; fill: #aaaaaa; text-anchor: middle; }
    </style>
  </defs>
  <!-- Background -->
  <rect
     class="panel"
     x="0"
     y="0"
     width="150"
     height="380"
     id="rect1"
     style="fill:#434343;fill-opacity:1" />
  <rect
     x="0"
     y="0"
     width="150"
     height="2"
     fill="#444"
     id="rect2" />
  <rect
     x="0"
     y="378"
     width="150"
     height="2"
     fill="#444"
     id="rect3" />
  <!-- Title -->
  <path
     d="m 43.87793,20 v -8.589844 h 3.65039 q 1.376953,0 1.998047,0.234375 0.626953,0.228516 1.001953,0.820313 0.375,0.591797 0.375,1.353515 0,0.966797 -0.568359,1.59961 -0.568359,0.626953 -1.699219,0.791015 0.5625,0.328125 0.925781,0.720703 0.369141,0.392579 0.990235,1.394532 L 51.600586,20 h -2.074219 l -1.253906,-1.869141 q -0.667969,-1.001953 -0.914063,-1.259765 -0.246093,-0.263672 -0.521484,-0.357422 -0.275391,-0.09961 -0.873047,-0.09961 H 45.612305 V 20 Z m 1.734375,-4.957031 h 1.283203 q 1.248047,0 1.558594,-0.105469 0.310546,-0.105469 0.486328,-0.363281 0.175781,-0.257813 0.175781,-0.644531 0,-0.433594 -0.234375,-0.697266 -0.228516,-0.269531 -0.650391,-0.339844 -0.210937,-0.0293 -1.265625,-0.0293 H 45.612305 Z M 60.28418,20 h -1.886719 l -0.75,-1.951172 H 54.213867 L 53.504883,20 h -1.839844 l 3.345703,-8.589844 h 1.833985 z M 57.09082,16.601562 55.907227,13.414063 54.74707,16.601562 Z M 61.22168,20 v -8.589844 h 1.6875 l 3.515625,5.736328 v -5.736328 h 1.611328 V 20 h -1.740235 l -3.46289,-5.601562 V 20 Z m 8.642578,-8.589844 h 3.169922 q 1.072265,0 1.634765,0.164063 0.75586,0.222656 1.294922,0.791015 0.539063,0.56836 0.820313,1.394532 0.28125,0.820312 0.28125,2.027343 0,1.060547 -0.263672,1.828125 -0.322266,0.9375 -0.919922,1.517578 -0.451172,0.439454 -1.21875,0.685547 Q 74.088867,20 73.12793,20 h -3.263672 z m 1.734375,1.453125 v 5.689453 h 1.294922 q 0.726562,0 1.048828,-0.08203 0.421875,-0.105469 0.697265,-0.357422 0.28125,-0.251953 0.457032,-0.826172 0.175781,-0.580078 0.175781,-1.576171 0,-0.996094 -0.175781,-1.529297 -0.175782,-0.533203 -0.492188,-0.832032 -0.316406,-0.298828 -0.802734,-0.404296 -0.363281,-0.08203 -1.423828,-0.08203 z m 6.585937,2.894532 q 0,-1.3125 0.392578,-2.203125 0.292969,-0.65625 0.796875,-1.177735 0.509766,-0.521484 1.113282,-0.773437 0.802734,-0.339844 1.851562,-0.339844 1.898438,0 3.035156,1.177734 1.142579,1.177735 1.142579,3.275391 0,2.080078 -1.13086,3.257812 -1.130859,1.171875 -3.023437,1.171875 -1.916016,0 -3.046875,-1.166015 -1.13086,-1.171875 -1.13086,-3.222656 z m 1.78711,-0.05859 q 0,1.458984 0.673828,2.214843 0.673828,0.75 1.710937,0.75 1.03711,0 1.699219,-0.74414 0.667969,-0.75 0.667969,-2.244141 0,-1.476562 -0.650391,-2.203125 -0.644531,-0.726562 -1.716797,-0.726562 -1.072265,0 -1.728515,0.738281 -0.65625,0.732422 -0.65625,2.214844 z M 87.84668,20 v -8.589844 h 2.595703 l 1.558594,5.859375 1.541015,-5.859375 h 2.601563 V 20 H 94.532227 V 13.238281 L 92.827148,20 H 91.157227 L 89.458008,13.238281 V 20 Z m 14.40234,-4.634766 q -0.63867,-0.269531 -0.93164,-0.738281 -0.28711,-0.474609 -0.28711,-1.037109 0,-0.960938 0.66797,-1.587891 0.67383,-0.626953 1.91016,-0.626953 1.22461,0 1.89844,0.626953 0.67968,0.626953 0.67968,1.587891 0,0.597656 -0.31054,1.066406 -0.31055,0.462891 -0.87305,0.708984 0.71484,0.28711 1.08398,0.837891 0.375,0.550781 0.375,1.271484 0,1.189453 -0.76171,1.933594 -0.75586,0.744141 -2.01563,0.744141 -1.17187,0 -1.95117,-0.615235 -0.91992,-0.726562 -0.91992,-1.992187 0,-0.697266 0.3457,-1.277344 0.3457,-0.585937 1.08984,-0.902344 z m 0.33985,-1.658203 q 0,0.492188 0.27539,0.767578 0.28125,0.275391 0.74414,0.275391 0.46875,0 0.75,-0.275391 0.28125,-0.28125 0.28125,-0.773437 0,-0.462891 -0.28125,-0.738281 -0.27539,-0.28125 -0.73242,-0.28125 -0.47461,0 -0.75586,0.28125 -0.28125,0.28125 -0.28125,0.74414 z m -0.15235,3.679688 q 0,0.679687 0.34571,1.060547 0.35156,0.380859 0.87304,0.380859 0.50977,0 0.84375,-0.363281 0.33399,-0.369141 0.33399,-1.060547 0,-0.603516 -0.33985,-0.966797 -0.33984,-0.369141 -0.86132,-0.369141 -0.60352,0 -0.90235,0.416016 -0.29297,0.416016 -0.29297,0.902344 z"
     id="text3"
     class="title"
     style="font-weight:bold;font-size:12px;font-family:Arial, sans-serif;text-anchor:middle;fill:#ff7e79;fill-opacity:1"
     aria-label="RANDOM 8" />
  <!-- Center divider -->
  <line
     x1="75"
     y1="30"
     x2="75"
     y2="285"
     stroke="#555"
     stroke-width="0.5"
     id="line3" />
  <!-- Column headers  (left: OUT ATT OFF | right: ATT OFF OUT) -->
  <path
     d="m 12.95752,37.908203 q 0,-1.069336 0.574218,-1.672851 0.574219,-0.606446 1.482422,-0.606446 0.594727,0 1.072266,0.28418 0.477539,0.28418 0.726562,0.793945 0.251953,0.506836 0.251953,1.151367 0,0.653321 -0.263671,1.168946 -0.263672,0.515625 -0.747071,0.782226 -0.483398,0.263672 -1.042969,0.263672 -0.606445,0 -1.083984,-0.292969 -0.477539,-0.292968 -0.723633,-0.799804 -0.246093,-0.506836 -0.246093,-1.072266 z m 0.585937,0.0088 q 0,0.776367 0.416016,1.22461 0.418945,0.445312 1.048828,0.445312 0.641601,0 1.054687,-0.451172 0.416016,-0.451172 0.416016,-1.280273 0,-0.524414 -0.178711,-0.914063 -0.175781,-0.392578 -0.518555,-0.606445 -0.339843,-0.216797 -0.764648,-0.216797 -0.603516,0 -1.040039,0.416016 -0.433594,0.413086 -0.433594,1.382812 z m 7.072266,-2.211914 h 0.568359 v 2.481445 q 0,0.647461 -0.146484,1.028321 -0.146485,0.380859 -0.530274,0.621093 -0.380859,0.237305 -1.001953,0.237305 -0.603516,0 -0.987305,-0.208008 -0.383789,-0.208007 -0.547851,-0.600586 -0.164063,-0.395507 -0.164063,-1.078125 v -2.481445 h 0.56836 v 2.478516 q 0,0.55957 0.102539,0.826172 0.105469,0.263671 0.357422,0.407226 0.254882,0.143555 0.621093,0.143555 0.626954,0 0.893555,-0.28418 0.266602,-0.28418 0.266602,-1.092773 z M 23.223145,40 v -3.788086 h -1.41504 v -0.506836 h 3.404297 v 0.506836 H 23.791504 V 40 Z"
     id="text4"
     class="hdr"
     style="font-size:6px;font-family:Arial, sans-serif;text-anchor:middle;fill:#ff7e79;fill-opacity:1"
     aria-label="OUT" />
  <path
     d="m 126.95752,37.908203 q 0,-1.069336 0.57422,-1.672851 0.57422,-0.606446 1.48242,-0.606446 0.59473,0 1.07227,0.28418 0.47753,0.28418 0.72656,0.793945 0.25195,0.506836 0.25195,1.151367 0,0.653321 -0.26367,1.168946 -0.26367,0.515625 -0.74707,0.782226 -0.4834,0.263672 -1.04297,0.263672 -0.60644,0 -1.08398,-0.292969 -0.47754,-0.292968 -0.72364,-0.799804 -0.24609,-0.506836 -0.24609,-1.072266 z m 0.58594,0.0088 q 0,0.776367 0.41601,1.22461 0.41895,0.445312 1.04883,0.445312 0.6416,0 1.05469,-0.451172 0.41601,-0.451172 0.41601,-1.280273 0,-0.524414 -0.17871,-0.914063 -0.17578,-0.392578 -0.51855,-0.606445 -0.33985,-0.216797 -0.76465,-0.216797 -0.60352,0 -1.04004,0.416016 -0.43359,0.413086 -0.43359,1.382812 z m 7.07226,-2.211914 h 0.56836 v 2.481445 q 0,0.647461 -0.14648,1.028321 -0.14649,0.380859 -0.53028,0.621093 -0.38086,0.237305 -1.00195,0.237305 -0.60351,0 -0.9873,-0.208008 -0.38379,-0.208007 -0.54786,-0.600586 -0.16406,-0.395507 -0.16406,-1.078125 v -2.481445 h 0.56836 v 2.478516 q 0,0.55957 0.10254,0.826172 0.10547,0.263671 0.35742,0.407226 0.25489,0.143555 0.6211,0.143555 0.62695,0 0.89355,-0.28418 0.2666,-0.28418 0.2666,-1.092773 z M 137.22314,40 v -3.788086 h -1.41503 v -0.506836 h 3.40429 v 0.506836 h -1.4209 V 40 Z"
     id="text9"
     class="hdr"
     style="font-size:6px;font-family:Arial, sans-serif;text-anchor:middle;fill:#ff7e79;fill-opacity:1"
     aria-label="OUT" />
  <!-- Ch 1 (out@25,60  atten@40,60  offset@58,60)  /  Ch 5 (atten@92,60  offset@110,60  out@125,60) -->
  <path
     d="m 26.039307,52 h -1.234864 v -4.653809 q -0.676757,0.632813 -1.595214,0.936036 v -1.120606 q 0.483398,-0.158203 1.050292,-0.597656 0.566895,-0.443848 0.777833,-1.032715 h 1.001953 z"
     id="text10"
     class="chnum"
     style="font-weight:bold;font-size:9px;font-family:Arial, sans-serif;text-anchor:middle;fill:#ff7e79;fill-opacity:1"
     aria-label="1" />
  <path
     d="m 34.547852,52 1.649414,-4.294922 H 36.80957 L 38.567383,52 H 37.919922 L 37.418945,50.699219 H 35.623047 L 35.151367,52 Z m 1.239257,-1.763672 h 1.456055 l -0.448242,-1.189453 q -0.205078,-0.541992 -0.304688,-0.890625 -0.08203,0.413086 -0.231445,0.820312 z M 39.668945,52 v -3.788086 h -1.415039 v -0.506836 h 3.404297 v 0.506836 H 40.237305 V 52 Z m 3.665039,0 v -3.788086 h -1.415039 v -0.506836 h 3.404297 v 0.506836 H 43.902344 V 52 Z"
     id="text11"
     class="plabel"
     style="font-size:6px;font-family:Arial, sans-serif;text-anchor:middle;fill:#ff7e79;fill-opacity:1"
     aria-label="ATT" />
  <path
     d="m 52.291504,49.908203 q 0,-1.069336 0.574219,-1.672851 0.574218,-0.606446 1.482422,-0.606446 0.594726,0 1.072265,0.28418 0.477539,0.28418 0.726563,0.793945 0.251953,0.506836 0.251953,1.151367 0,0.653321 -0.263672,1.168946 -0.263672,0.515625 -0.74707,0.782226 -0.483399,0.263672 -1.042969,0.263672 -0.606445,0 -1.083985,-0.292969 -0.477539,-0.292968 -0.723632,-0.799804 -0.246094,-0.506836 -0.246094,-1.072266 z m 0.585937,0.0088 q 0,0.776367 0.416016,1.22461 0.418945,0.445312 1.048828,0.445312 0.641602,0 1.054688,-0.451172 0.416015,-0.451172 0.416015,-1.280273 0,-0.524414 -0.178711,-0.914063 -0.175781,-0.392578 -0.518554,-0.606445 -0.339844,-0.216797 -0.764649,-0.216797 -0.603515,0 -1.040039,0.416016 -0.433594,0.413086 -0.433594,1.382812 z M 57.160645,52 v -4.294922 h 2.89746 v 0.506836 h -2.329101 v 1.330078 h 2.015625 v 0.506836 H 57.729004 V 52 Z m 3.665039,0 v -4.294922 h 2.897461 v 0.506836 h -2.329102 v 1.330078 h 2.015625 v 0.506836 H 61.394043 V 52 Z"
     id="text12"
     class="plabel"
     style="font-size:6px;font-family:Arial, sans-serif;text-anchor:middle;fill:#ff7e79;fill-opacity:1"
     aria-label="OFF" />
  <path
     d="m 122.89722,50.343262 1.23047,-0.127442 q 0.0527,0.417481 0.31201,0.663575 0.25927,0.241699 0.59765,0.241699 0.38672,0 0.65479,-0.312012 0.26807,-0.316406 0.26807,-0.949219 0,-0.593261 -0.26807,-0.887695 -0.26367,-0.298828 -0.68994,-0.298828 -0.53174,0 -0.95362,0.470215 l -1.00195,-0.14502 0.63281,-3.353027 h 3.26514 v 1.155762 h -2.3291 l -0.19336,1.094238 q 0.41309,-0.206543 0.84375,-0.206543 0.82178,0 1.39307,0.597656 0.57128,0.597656 0.57128,1.55127 0,0.79541 -0.46142,1.419433 -0.62842,0.852539 -1.74463,0.852539 -0.89209,0 -1.45459,-0.479004 -0.5625,-0.479004 -0.67236,-1.287597 z"
     id="text13"
     class="chnum"
     style="font-weight:bold;font-size:9px;font-family:Arial, sans-serif;text-anchor:middle;fill:#ff7e79;fill-opacity:1"
     aria-label="5" />
  <path
     d="m 86.547852,52 1.649414,-4.294922 H 88.80957 L 90.567383,52 H 89.919922 L 89.418945,50.699219 H 87.623047 L 87.151367,52 Z m 1.239257,-1.763672 h 1.456055 l -0.448242,-1.189453 q -0.205078,-0.541992 -0.304688,-0.890625 -0.08203,0.413086 -0.231445,0.820312 z M 91.668945,52 v -3.788086 h -1.415039 v -0.506836 h 3.404297 v 0.506836 H 92.237305 V 52 Z m 3.665039,0 v -3.788086 h -1.415039 v -0.506836 h 3.404297 v 0.506836 H 95.902344 V 52 Z"
     id="text14"
     class="plabel"
     style="font-size:6px;font-family:Arial, sans-serif;text-anchor:middle;fill:#ff7e79;fill-opacity:1"
     aria-label="ATT" />
  <path
     d="m 104.2915,49.908203 q 0,-1.069336 0.57422,-1.672851 0.57422,-0.606446 1.48242,-0.606446 0.59473,0 1.07227,0.28418 0.47754,0.28418 0.72656,0.793945 0.25196,0.506836 0.25196,1.151367 0,0.653321 -0.26368,1.168946 -0.26367,0.515625 -0.74707,0.782226 -0.48339,0.263672 -1.04297,0.263672 -0.60644,0 -1.08398,-0.292969 -0.47754,-0.292968 -0.72363,-0.799804 -0.2461,-0.506836 -0.2461,-1.072266 z m 0.58594,0.0088 q 0,0.776367 0.41602,1.22461 0.41894,0.445312 1.04883,0.445312 0.6416,0 1.05468,-0.451172 0.41602,-0.451172 0.41602,-1.280273 0,-0.524414 -0.17871,-0.914063 -0.17578,-0.392578 -0.51856,-0.606445 -0.33984,-0.216797 -0.76465,-0.216797 -0.60351,0 -1.04003,0.416016 -0.4336,0.413086 -0.4336,1.382812 z M 109.16064,52 v -4.294922 h 2.89747 v 0.506836 H 109.729 v 1.330078 h 2.01563 v 0.506836 H 109.729 V 52 Z m 3.66504,0 v -4.294922 h 2.89746 v 0.506836 h -2.3291 v 1.330078 h 2.01563 v 0.506836 h -2.01563 V 52 Z"
     id="text15"
     class="plabel"
     style="font-size:6px;font-family:Arial, sans-serif;text-anchor:middle;fill:#ff7e79;fill-opacity:1"
     aria-label="OFF" />
  <!-- Ch 2 / Ch 6  (y=115) -->
  <path
     d="M 27.050049,105.85303 V 107 h -4.328613 q 0.07031,-0.65039 0.421875,-1.23047 0.351562,-0.58447 1.388671,-1.54687 0.834961,-0.77784 1.023926,-1.05469 0.254883,-0.38233 0.254883,-0.75586 0,-0.41309 -0.224121,-0.63281 -0.219727,-0.22412 -0.61084,-0.22412 -0.386719,0 -0.615234,0.23291 -0.228516,0.23291 -0.263672,0.77343 l -1.230469,-0.12304 q 0.109863,-1.01953 0.689941,-1.46338 0.580079,-0.44385 1.450196,-0.44385 0.953613,0 1.498535,0.51416 0.544922,0.51416 0.544922,1.27881 0,0.43506 -0.158203,0.83057 -0.153809,0.39111 -0.492188,0.82177 -0.224121,0.28565 -0.808594,0.82178 -0.584472,0.53613 -0.742675,0.71191 -0.153809,0.17579 -0.250489,0.34278 z"
     id="text16"
     class="chnum"
     style="font-weight:bold;font-size:9px;font-family:Arial, sans-serif;text-anchor:middle;fill:#ff7e79;fill-opacity:1"
     aria-label="2" />
  <path
     d="m 34.547852,107 1.649414,-4.29492 H 36.80957 L 38.567383,107 h -0.647461 l -0.500977,-1.30078 H 35.623047 L 35.151367,107 Z m 1.239257,-1.76367 h 1.456055 l -0.448242,-1.18945 q -0.205078,-0.542 -0.304688,-0.89063 -0.08203,0.41309 -0.231445,0.82031 z M 39.668945,107 v -3.78809 h -1.415039 v -0.50683 h 3.404297 v 0.50683 H 40.237305 V 107 Z m 3.665039,0 v -3.78809 h -1.415039 v -0.50683 h 3.404297 v 0.50683 H 43.902344 V 107 Z"
     id="text17"
     class="plabel"
     style="font-size:6px;font-family:Arial, sans-serif;text-anchor:middle;fill:#ff7e79;fill-opacity:1"
     aria-label="ATT" />
  <path
     d="m 52.291504,104.9082 q 0,-1.06933 0.574219,-1.67285 0.574218,-0.60644 1.482422,-0.60644 0.594726,0 1.072265,0.28418 0.477539,0.28418 0.726563,0.79394 0.251953,0.50684 0.251953,1.15137 0,0.65332 -0.263672,1.16894 -0.263672,0.51563 -0.74707,0.78223 -0.483399,0.26367 -1.042969,0.26367 -0.606445,0 -1.083985,-0.29297 -0.477539,-0.29297 -0.723632,-0.7998 -0.246094,-0.50684 -0.246094,-1.07227 z m 0.585937,0.009 q 0,0.77637 0.416016,1.22461 0.418945,0.44531 1.048828,0.44531 0.641602,0 1.054688,-0.45117 0.416015,-0.45117 0.416015,-1.28027 0,-0.52442 -0.178711,-0.91406 -0.175781,-0.39258 -0.518554,-0.60645 -0.339844,-0.2168 -0.764649,-0.2168 -0.603515,0 -1.040039,0.41602 -0.433594,0.41309 -0.433594,1.38281 z M 57.160645,107 v -4.29492 h 2.89746 v 0.50683 h -2.329101 v 1.33008 h 2.015625 v 0.50684 H 57.729004 V 107 Z m 3.665039,0 v -4.29492 h 2.897461 v 0.50683 h -2.329102 v 1.33008 h 2.015625 v 0.50684 H 61.394043 V 107 Z"
     id="text18"
     class="plabel"
     style="font-size:6px;font-family:Arial, sans-serif;text-anchor:middle;fill:#ff7e79;fill-opacity:1"
     aria-label="OFF" />
  <path
     d="m 127.06323,102.13525 -1.19531,0.13184 q -0.0439,-0.36914 -0.22852,-0.54492 -0.18457,-0.17578 -0.479,-0.17578 -0.39111,0 -0.66357,0.35156 -0.26807,0.35156 -0.33838,1.46338 0.46142,-0.54492 1.14697,-0.54492 0.77344,0 1.32275,0.58886 0.55371,0.58887 0.55371,1.52051 0,0.98877 -0.58007,1.58643 -0.58008,0.59765 -1.48975,0.59765 -0.97559,0 -1.604,-0.75586 -0.62842,-0.76025 -0.62842,-2.4873 0,-1.771 0.65478,-2.55322 0.65479,-0.78223 1.70069,-0.78223 0.73388,0 1.21289,0.41309 0.4834,0.40869 0.61523,1.19091 z m -2.79931,2.69385 q 0,0.60205 0.27685,0.93164 0.27686,0.3252 0.63281,0.3252 0.34278,0 0.57129,-0.26807 0.22852,-0.26807 0.22852,-0.87891 0,-0.62841 -0.2461,-0.91845 -0.24609,-0.29444 -0.61523,-0.29444 -0.35596,0 -0.60205,0.28125 -0.24609,0.27686 -0.24609,0.82178 z"
     id="text19"
     class="chnum"
     style="font-weight:bold;font-size:9px;font-family:Arial, sans-serif;text-anchor:middle;fill:#ff7e79;fill-opacity:1"
     aria-label="6" />
  <path
     d="m 86.547852,107 1.649414,-4.29492 H 88.80957 L 90.567383,107 h -0.647461 l -0.500977,-1.30078 H 87.623047 L 87.151367,107 Z m 1.239257,-1.76367 h 1.456055 l -0.448242,-1.18945 q -0.205078,-0.542 -0.304688,-0.89063 -0.08203,0.41309 -0.231445,0.82031 z M 91.668945,107 v -3.78809 h -1.415039 v -0.50683 h 3.404297 v 0.50683 H 92.237305 V 107 Z m 3.665039,0 v -3.78809 h -1.415039 v -0.50683 h 3.404297 v 0.50683 H 95.902344 V 107 Z"
     id="text20"
     class="plabel"
     style="font-size:6px;font-family:Arial, sans-serif;text-anchor:middle;fill:#ff7e79;fill-opacity:1"
     aria-label="ATT" />
  <path
     d="m 104.2915,104.9082 q 0,-1.06933 0.57422,-1.67285 0.57422,-0.60644 1.48242,-0.60644 0.59473,0 1.07227,0.28418 0.47754,0.28418 0.72656,0.79394 0.25196,0.50684 0.25196,1.15137 0,0.65332 -0.26368,1.16894 -0.26367,0.51563 -0.74707,0.78223 -0.48339,0.26367 -1.04297,0.26367 -0.60644,0 -1.08398,-0.29297 -0.47754,-0.29297 -0.72363,-0.7998 -0.2461,-0.50684 -0.2461,-1.07227 z m 0.58594,0.009 q 0,0.77637 0.41602,1.22461 0.41894,0.44531 1.04883,0.44531 0.6416,0 1.05468,-0.45117 0.41602,-0.45117 0.41602,-1.28027 0,-0.52442 -0.17871,-0.91406 -0.17578,-0.39258 -0.51856,-0.60645 -0.33984,-0.2168 -0.76465,-0.2168 -0.60351,0 -1.04003,0.41602 -0.4336,0.41309 -0.4336,1.38281 z M 109.16064,107 v -4.29492 h 2.89747 v 0.50683 H 109.729 v 1.33008 h 2.01563 v 0.50684 H 109.729 V 107 Z m 3.66504,0 v -4.29492 h 2.89746 v 0.50683 h -2.3291 v 1.33008 h 2.01563 v 0.50684 h -2.01563 V 107 Z"
     id="text21"
     class="plabel"
     style="font-size:6px;font-family:Arial, sans-serif;text-anchor:middle;fill:#ff7e79;fill-opacity:1"
     aria-label="OFF" />
  <!-- Ch 3 / Ch 7  (y=170) -->
  <path
     d="m 22.835693,160.29053 1.195313,-0.14502 q 0.05713,0.45703 0.307617,0.69873 0.250488,0.2417 0.606445,0.2417 0.382325,0 0.641602,-0.29004 0.263672,-0.29004 0.263672,-0.78223 0,-0.46582 -0.250488,-0.73828 -0.250489,-0.27246 -0.61084,-0.27246 -0.237305,0 -0.566895,0.0923 l 0.136231,-1.00634 q 0.500976,0.0132 0.764648,-0.21533 0.263672,-0.23292 0.263672,-0.61524 0,-0.32519 -0.193359,-0.51855 -0.19336,-0.19336 -0.514161,-0.19336 -0.316406,0 -0.540527,0.21972 -0.224121,0.21973 -0.272461,0.6416 l -1.138183,-0.19335 q 0.118652,-0.58448 0.355957,-0.93165 0.241699,-0.35156 0.667968,-0.54931 0.430664,-0.20215 0.962403,-0.20215 0.909668,0 1.458984,0.58008 0.452637,0.47461 0.452637,1.07226 0,0.84815 -0.927246,1.35352 0.553711,0.11865 0.8833,0.53174 0.333985,0.41308 0.333985,0.99756 0,0.84814 -0.619629,1.4458 -0.619629,0.59765 -1.542481,0.59765 -0.874511,0 -1.450195,-0.50097 -0.575683,-0.50537 -0.667969,-1.31836 z"
     id="text22"
     class="chnum"
     style="font-weight:bold;font-size:9px;font-family:Arial, sans-serif;text-anchor:middle;fill:#ff7e79;fill-opacity:1"
     aria-label="3" />
  <path
     d="m 34.547852,162 1.649414,-4.29492 H 36.80957 L 38.567383,162 h -0.647461 l -0.500977,-1.30078 H 35.623047 L 35.151367,162 Z m 1.239257,-1.76367 h 1.456055 l -0.448242,-1.18946 q -0.205078,-0.54199 -0.304688,-0.89062 -0.08203,0.41309 -0.231445,0.82031 z M 39.668945,162 v -3.78809 h -1.415039 v -0.50683 h 3.404297 v 0.50683 H 40.237305 V 162 Z m 3.665039,0 v -3.78809 h -1.415039 v -0.50683 h 3.404297 v 0.50683 H 43.902344 V 162 Z"
     id="text23"
     class="plabel"
     style="font-size:6px;font-family:Arial, sans-serif;text-anchor:middle;fill:#ff7e79;fill-opacity:1"
     aria-label="ATT" />
  <path
     d="m 52.291504,159.9082 q 0,-1.06933 0.574219,-1.67285 0.574218,-0.60644 1.482422,-0.60644 0.594726,0 1.072265,0.28418 0.477539,0.28418 0.726563,0.79394 0.251953,0.50684 0.251953,1.15137 0,0.65332 -0.263672,1.16894 -0.263672,0.51563 -0.74707,0.78223 -0.483399,0.26367 -1.042969,0.26367 -0.606445,0 -1.083985,-0.29297 -0.477539,-0.29297 -0.723632,-0.7998 -0.246094,-0.50684 -0.246094,-1.07227 z m 0.585937,0.009 q 0,0.77637 0.416016,1.22461 0.418945,0.44531 1.048828,0.44531 0.641602,0 1.054688,-0.45117 0.416015,-0.45117 0.416015,-1.28027 0,-0.52442 -0.178711,-0.91406 -0.175781,-0.39258 -0.518554,-0.60645 -0.339844,-0.2168 -0.764649,-0.2168 -0.603515,0 -1.040039,0.41602 -0.433594,0.41309 -0.433594,1.38281 z M 57.160645,162 v -4.29492 h 2.89746 v 0.50683 h -2.329101 v 1.33008 h 2.015625 v 0.50684 H 57.729004 V 162 Z m 3.665039,0 v -4.29492 h 2.897461 v 0.50683 h -2.329102 v 1.33008 h 2.015625 v 0.50684 H 61.394043 V 162 Z"
     id="text24"
     class="plabel"
     style="font-size:6px;font-family:Arial, sans-serif;text-anchor:middle;fill:#ff7e79;fill-opacity:1"
     aria-label="OFF" />
  <path
     d="m 122.87964,156.79248 v -1.14697 h 4.22314 v 0.89648 q -0.52295,0.51416 -1.06347,1.47656 -0.54053,0.96241 -0.82618,2.04786 -0.28125,1.08105 -0.27685,1.93359 h -1.19092 q 0.0308,-1.33594 0.54932,-2.72461 0.52295,-1.38867 1.39306,-2.48291 z"
     id="text25"
     class="chnum"
     style="font-weight:bold;font-size:9px;font-family:Arial, sans-serif;text-anchor:middle;fill:#ff7e79;fill-opacity:1"
     aria-label="7" />
  <path
     d="m 86.547852,162 1.649414,-4.29492 H 88.80957 L 90.567383,162 h -0.647461 l -0.500977,-1.30078 H 87.623047 L 87.151367,162 Z m 1.239257,-1.76367 h 1.456055 l -0.448242,-1.18946 q -0.205078,-0.54199 -0.304688,-0.89062 -0.08203,0.41309 -0.231445,0.82031 z M 91.668945,162 v -3.78809 h -1.415039 v -0.50683 h 3.404297 v 0.50683 H 92.237305 V 162 Z m 3.665039,0 v -3.78809 h -1.415039 v -0.50683 h 3.404297 v 0.50683 H 95.902344 V 162 Z"
     id="text26"
     class="plabel"
     style="font-size:6px;font-family:Arial, sans-serif;text-anchor:middle;fill:#ff7e79;fill-opacity:1"
     aria-label="ATT" />
  <path
     d="m 104.2915,159.9082 q 0,-1.06933 0.57422,-1.67285 0.57422,-0.60644 1.48242,-0.60644 0.59473,0 1.07227,0.28418 0.47754,0.28418 0.72656,0.79394 0.25196,0.50684 0.25196,1.15137 0,0.65332 -0.26368,1.16894 -0.26367,0.51563 -0.74707,0.78223 -0.48339,0.26367 -1.04297,0.26367 -0.60644,0 -1.08398,-0.29297 -0.47754,-0.29297 -0.72363,-0.7998 -0.2461,-0.50684 -0.2461,-1.07227 z m 0.58594,0.009 q 0,0.77637 0.41602,1.22461 0.41894,0.44531 1.04883,0.44531 0.6416,0 1.05468,-0.45117 0.41602,-0.45117 0.41602,-1.28027 0,-0.52442 -0.17871,-0.91406 -0.17578,-0.39258 -0.51856,-0.60645 -0.33984,-0.2168 -0.76465,-0.2168 -0.60351,0 -1.04003,0.41602 -0.4336,0.41309 -0.4336,1.38281 z M 109.16064,162 v -4.29492 h 2.89747 v 0.50683 H 109.729 v 1.33008 h 2.01563 v 0.50684 H 109.729 V 162 Z m 3.66504,0 v -4.29492 h 2.89746 v 0.50683 h -2.3291 v 1.33008 h 2.01563 v 0.50684 h -2.01563 V 162 Z"
     id="text27"
     class="plabel"
     style="font-size:6px;font-family:Arial, sans-serif;text-anchor:middle;fill:#ff7e79;fill-opacity:1"
     aria-label="OFF" />
  <!-- Ch 4 / Ch 8  (y=225) -->
  <path
     d="m 25.301025,217 v -1.29639 h -2.636718 v -1.08105 l 2.794922,-4.09131 h 1.037109 v 4.08691 h 0.799805 v 1.08545 H 26.496338 V 217 Z m 0,-2.38184 v -2.20166 l -1.480957,2.20166 z"
     id="text28"
     class="chnum"
     style="font-weight:bold;font-size:9px;font-family:Arial, sans-serif;text-anchor:middle;fill:#ff7e79;fill-opacity:1"
     aria-label="4" />
  <path
     d="m 34.547852,217 1.649414,-4.29492 H 36.80957 L 38.567383,217 h -0.647461 l -0.500977,-1.30078 H 35.623047 L 35.151367,217 Z m 1.239257,-1.76367 h 1.456055 l -0.448242,-1.18946 q -0.205078,-0.54199 -0.304688,-0.89062 -0.08203,0.41309 -0.231445,0.82031 z M 39.668945,217 v -3.78809 h -1.415039 v -0.50683 h 3.404297 v 0.50683 H 40.237305 V 217 Z m 3.665039,0 v -3.78809 h -1.415039 v -0.50683 h 3.404297 v 0.50683 H 43.902344 V 217 Z"
     id="text29"
     class="plabel"
     style="font-size:6px;font-family:Arial, sans-serif;text-anchor:middle;fill:#ff7e79;fill-opacity:1"
     aria-label="ATT" />
  <path
     d="m 52.291504,214.9082 q 0,-1.06933 0.574219,-1.67285 0.574218,-0.60644 1.482422,-0.60644 0.594726,0 1.072265,0.28418 0.477539,0.28418 0.726563,0.79394 0.251953,0.50684 0.251953,1.15137 0,0.65332 -0.263672,1.16894 -0.263672,0.51563 -0.74707,0.78223 -0.483399,0.26367 -1.042969,0.26367 -0.606445,0 -1.083985,-0.29297 -0.477539,-0.29297 -0.723632,-0.7998 -0.246094,-0.50684 -0.246094,-1.07227 z m 0.585937,0.009 q 0,0.77637 0.416016,1.22461 0.418945,0.44531 1.048828,0.44531 0.641602,0 1.054688,-0.45117 0.416015,-0.45117 0.416015,-1.28027 0,-0.52442 -0.178711,-0.91406 -0.175781,-0.39258 -0.518554,-0.60645 -0.339844,-0.2168 -0.764649,-0.2168 -0.603515,0 -1.040039,0.41602 -0.433594,0.41309 -0.433594,1.38281 z M 57.160645,217 v -4.29492 h 2.89746 v 0.50683 h -2.329101 v 1.33008 h 2.015625 v 0.50684 H 57.729004 V 217 Z m 3.665039,0 v -4.29492 h 2.897461 v 0.50683 h -2.329102 v 1.33008 h 2.015625 v 0.50684 H 61.394043 V 217 Z"
     id="text30"
     class="plabel"
     style="font-size:6px;font-family:Arial, sans-serif;text-anchor:middle;fill:#ff7e79;fill-opacity:1"
     aria-label="OFF" />
  <path
     d="m 123.93872,213.52393 q -0.479,-0.20215 -0.69873,-0.55372 -0.21533,-0.35595 -0.21533,-0.77783 0,-0.7207 0.50097,-1.19092 0.50538,-0.47021 1.43262,-0.47021 0.91846,0 1.42383,0.47021 0.50977,0.47022 0.50977,1.19092 0,0.44824 -0.23291,0.79981 -0.23291,0.34717 -0.65479,0.53174 0.53613,0.21533 0.81299,0.62841 0.28125,0.41309 0.28125,0.95362 0,0.89209 -0.57129,1.45019 -0.56689,0.55811 -1.51172,0.55811 -0.87891,0 -1.46338,-0.46143 -0.68994,-0.54492 -0.68994,-1.49414 0,-0.52295 0.25928,-0.95801 0.25928,-0.43945 0.81738,-0.67675 z m 0.25488,-1.24366 q 0,0.36914 0.20655,0.57569 0.21093,0.20654 0.5581,0.20654 0.35156,0 0.5625,-0.20654 0.21094,-0.21094 0.21094,-0.58008 0,-0.34717 -0.21094,-0.55371 -0.20654,-0.21094 -0.54931,-0.21094 -0.35596,0 -0.5669,0.21094 -0.21094,0.21094 -0.21094,0.5581 z m -0.11425,2.75977 q 0,0.50976 0.25927,0.79541 0.26367,0.28564 0.65479,0.28564 0.38232,0 0.63281,-0.27246 0.25049,-0.27685 0.25049,-0.79541 0,-0.45263 -0.25488,-0.7251 -0.25489,-0.27685 -0.646,-0.27685 -0.45264,0 -0.67676,0.31201 -0.21972,0.31201 -0.21972,0.67676 z"
     id="text31"
     class="chnum"
     style="font-weight:bold;font-size:9px;font-family:Arial, sans-serif;text-anchor:middle;fill:#ff7e79;fill-opacity:1"
     aria-label="8" />
  <path
     d="m 86.547852,217 1.649414,-4.29492 H 88.80957 L 90.567383,217 h -0.647461 l -0.500977,-1.30078 H 87.623047 L 87.151367,217 Z m 1.239257,-1.76367 h 1.456055 l -0.448242,-1.18946 q -0.205078,-0.54199 -0.304688,-0.89062 -0.08203,0.41309 -0.231445,0.82031 z M 91.668945,217 v -3.78809 h -1.415039 v -0.50683 h 3.404297 v 0.50683 H 92.237305 V 217 Z m 3.665039,0 v -3.78809 h -1.415039 v -0.50683 h 3.404297 v 0.50683 H 95.902344 V 217 Z"
     id="text32"
     class="plabel"
     style="font-size:6px;font-family:Arial, sans-serif;text-anchor:middle;fill:#ff7e79;fill-opacity:1"
     aria-label="ATT" />
  <path
     d="m 104.2915,214.9082 q 0,-1.06933 0.57422,-1.67285 0.57422,-0.60644 1.48242,-0.60644 0.59473,0 1.07227,0.28418 0.47754,0.28418 0.72656,0.79394 0.25196,0.50684 0.25196,1.15137 0,0.65332 -0.26368,1.16894 -0.26367,0.51563 -0.74707,0.78223 -0.48339,0.26367 -1.04297,0.26367 -0.60644,0 -1.08398,-0.29297 -0.47754,-0.29297 -0.72363,-0.7998 -0.2461,-0.50684 -0.2461,-1.07227 z m 0.58594,0.009 q 0,0.77637 0.41602,1.22461 0.41894,0.44531 1.04883,0.44531 0.6416,0 1.05468,-0.45117 0.41602,-0.45117 0.41602,-1.28027 0,-0.52442 -0.17871,-0.91406 -0.17578,-0.39258 -0.51856,-0.60645 -0.33984,-0.2168 -0.76465,-0.2168 -0.60351,0 -1.04003,0.41602 -0.4336,0.41309 -0.4336,1.38281 z M 109.16064,217 v -4.29492 h 2.89747 v 0.50683 H 109.729 v 1.33008 h 2.01563 v 0.50684 H 109.729 V 217 Z m 3.66504,0 v -4.29492 h 2.89746 v 0.50683 h -2.3291 v 1.33008 h 2.01563 v 0.50684 h -2.01563 V 217 Z"
     id="text33"
     class="plabel"
     style="font-size:6px;font-family:Arial, sans-serif;text-anchor:middle;fill:#ff7e79;fill-opacity:1"
     aria-label="OFF" />
  <!-- Divider above trigger -->
  <line
     x1="10"
     y1="294"
     x2="140"
     y2="294"
     stroke="#444"
     stroke-width="0.5"
     id="line33" />
  <!-- Trigger input (port @ 75,310) -->
  <path
     d="m 51.941528,304 v -4.73511 h -1.768799 v -0.63354 h 4.255372 v 0.63354 H 52.651978 V 304 Z m 3.226319,0 v -5.36865 h 2.380371 q 0.717773,0 1.091308,0.14648 0.373536,0.14282 0.596924,0.50904 0.223389,0.36621 0.223389,0.80932 0,0.57129 -0.369873,0.96314 -0.369873,0.39184 -1.142578,0.49804 0.281982,0.1355 0.428466,0.26734 0.31128,0.28564 0.5896,0.71411 L 59.899292,304 h -0.893555 l -0.710449,-1.11694 q -0.311279,-0.4834 -0.512695,-0.73975 -0.201416,-0.25635 -0.362549,-0.35889 -0.157471,-0.10254 -0.322266,-0.14282 -0.120849,-0.0256 -0.395507,-0.0256 H 55.878296 V 304 Z m 0.710449,-2.99927 h 1.5271 q 0.48706,0 0.761718,-0.0989 0.274658,-0.10254 0.417481,-0.32227 0.142822,-0.22339 0.142822,-0.4834 0,-0.38086 -0.27832,-0.62622 -0.274659,-0.24536 -0.871582,-0.24536 H 55.878296 Z M 60.69397,304 v -5.36865 h 0.710449 V 304 Z m 4.475097,-2.10571 v -0.62989 l 2.27417,-0.004 v 1.99219 q -0.523681,0.41748 -1.080322,0.62988 -0.556641,0.20874 -1.142578,0.20874 -0.791016,0 -1.439209,-0.33691 -0.644531,-0.34058 -0.974121,-0.98145 -0.32959,-0.64087 -0.32959,-1.43188 0,-0.78369 0.325928,-1.46118 0.32959,-0.68116 0.944824,-1.01075 0.615234,-0.32959 1.417236,-0.32959 0.582276,0 1.051026,0.19043 0.472412,0.18677 0.739746,0.52369 0.267334,0.33691 0.406494,0.8789 l -0.640869,0.17578 q -0.12085,-0.41015 -0.300293,-0.64453 -0.179444,-0.23437 -0.512696,-0.37353 -0.333251,-0.14282 -0.739746,-0.14282 -0.48706,0 -0.842285,0.15014 -0.355224,0.14649 -0.574951,0.38819 -0.216064,0.24169 -0.336914,0.531 -0.205078,0.49805 -0.205078,1.08032 0,0.71778 0.245361,1.20118 0.249024,0.48339 0.721436,0.71777 0.472412,0.23437 1.003418,0.23437 0.461425,0 0.900879,-0.17578 0.439453,-0.17944 0.666504,-0.38086 v -0.99975 z m 4.826661,2.19726 1.556396,-5.55176 h 0.527344 l -1.552735,5.55176 z m 8.57666,-1.97387 0.710449,0.17944 q -0.223389,0.87524 -0.805664,1.33667 -0.578613,0.45776 -1.417236,0.45776 -0.86792,0 -1.413575,-0.35156 -0.541992,-0.35522 -0.827636,-1.02539 -0.281983,-0.67017 -0.281983,-1.43921 0,-0.83862 0.318604,-1.46118 0.322265,-0.62622 0.911865,-0.94849 0.593262,-0.32593 1.303711,-0.32593 0.805664,0 1.35498,0.41016 0.549317,0.41016 0.765381,1.15357 l -0.699463,0.16479 q -0.186767,-0.58594 -0.541992,-0.85327 -0.355225,-0.26733 -0.893555,-0.26733 -0.618896,0 -1.036377,0.29663 -0.413818,0.29663 -0.582275,0.79834 -0.168457,0.49804 -0.168457,1.02905 0,0.68481 0.197754,1.19751 0.201416,0.50903 0.622559,0.76172 0.421142,0.25268 0.911865,0.25268 0.596924,0 1.010742,-0.34424 0.413818,-0.34423 0.560303,-1.02172 z M 80.128784,304 v -5.36865 h 0.710449 v 4.73511 h 2.644043 V 304 Z m 3.984375,-2.61475 q 0,-1.33667 0.717774,-2.09106 0.717773,-0.75806 1.853027,-0.75806 0.743408,0 1.340332,0.35523 0.596924,0.35522 0.908203,0.99243 0.314942,0.63354 0.314942,1.43921 0,0.81665 -0.32959,1.46118 -0.32959,0.64453 -0.933838,0.97778 -0.604248,0.32959 -1.303711,0.32959 -0.758057,0 -1.354981,-0.36621 -0.596923,-0.36621 -0.904541,-0.99975 -0.307617,-0.63355 -0.307617,-1.34034 z m 0.732422,0.011 q 0,0.97046 0.52002,1.53076 0.523681,0.55664 1.311035,0.55664 0.802002,0 1.318359,-0.56396 0.52002,-0.56397 0.52002,-1.60034 0,-0.65552 -0.223389,-1.14258 -0.219727,-0.49072 -0.648193,-0.75806 -0.424805,-0.27099 -0.955811,-0.27099 -0.754394,0 -1.300049,0.52001 -0.541992,0.51636 -0.541992,1.72852 z m 9.147949,0.72144 0.710449,0.17944 q -0.223388,0.87524 -0.805664,1.33667 -0.578613,0.45776 -1.417236,0.45776 -0.86792,0 -1.413574,-0.35156 -0.541992,-0.35522 -0.827637,-1.02539 -0.281982,-0.67017 -0.281982,-1.43921 0,-0.83862 0.318603,-1.46118 0.322266,-0.62622 0.911865,-0.94849 0.593262,-0.32593 1.303711,-0.32593 0.805664,0 1.354981,0.41016 0.549316,0.41016 0.765381,1.15357 l -0.699463,0.16479 q -0.186768,-0.58594 -0.541992,-0.85327 -0.355225,-0.26733 -0.893555,-0.26733 -0.618896,0 -1.036377,0.29663 -0.413818,0.29663 -0.582275,0.79834 -0.168457,0.49804 -0.168457,1.02905 0,0.68481 0.197754,1.19751 0.201416,0.50903 0.622558,0.76172 0.421143,0.25268 0.911865,0.25268 0.596924,0 1.010743,-0.34424 0.413818,-0.34423 0.560302,-1.02172 z M 95.549927,304 v -5.36865 h 0.710449 v 2.66235 l 2.666016,-2.66235 h 0.963134 L 97.637329,300.80664 99.988403,304 h -0.9375 l -1.911621,-2.71729 -0.878906,0.85694 V 304 Z"
     id="text34"
     class="io"
     style="font-size:7.5px;font-family:Arial, sans-serif;text-anchor:middle;fill:#ff7e79;fill-opacity:1"
     aria-label="TRIG / CLOCK" />
</svg>
