<?xml version="1.0" encoding="UTF-8" standalone="no"?>
<svg
   width="120"
   height="380"
   viewBox="0 0 120 380"
   version="1.1"
   id="svg11"
   sodipodi:docname="RnboNedRepeat.svg"
   inkscape:version="1.3.2 (091e20e, 2023-11-25)"
   xmlns:inkscape="http://www.inkscape.org/namespaces/inkscape"
   xmlns:sodipodi="http://sodipodi.sourceforge.net/DTD/sodipodi-0.dtd"
   xmlns="http://www.w3.org/2000/svg"
   xmlns:svg="http://www.w3.org/2000/svg">
  <sodipodi:namedview
     id="namedview1"
     pagecolor="#ffffff"
     bordercolor="#000000"
     borderopacity="0.25"
     inkscape:showpageshadow="2"
     inkscape:pageopacity="0.0"
     inkscape:pagecheckerboard="0"
     inkscape:deskcolor="#d1d1d1"
     inkscape:zoom="2.7394737"
     inkscape:cx="59.865514"
     inkscape:cy="190"
     inkscape:window-width="1392"
     inkscape:window-height="1212"
     inkscape:window-x="814"
     inkscape:window-y="335"
     inkscape:window-maximized="0"
     inkscape:current-layer="svg11" />
  <defs
     id="defs1">
    <style
       id="style1">
      .panel { fill: #2a2a2a; }
      .accent { fill: #444444; }
      .title { font-family: Arial, sans-serif; font-size: 14px; font-weight: bold; fill: #ffffff; text-anchor: middle; letter-spacing: 0.5px; }
      .tiny { font-family: Arial, sans-serif; font-size: 6.5px; fill: #cfcfcf; text-anchor: middle; letter-spacing: 0.3px; }
    </style>
  </defs>
  <rect
     class="panel"
     x="0"
     y="0"
     width="120"
     height="380"
     id="rect1"
     style="fill:#434343;fill-opacity:1" />
  <rect
     class="accent"
     x="0"
     y="0"
     width="120"
     height="2"
     id="rect2" />
  <rect
     class="accent"
     x="0"
     y="378"
     width="120"
     height="2"
     id="rect3" />
  <path
     d="m 11.92229,80 v -4.652832 h 2.062988 q 0.622071,0 0.945801,0.126953 0.32373,0.123779 0.517334,0.441162 0.193604,0.317383 0.193604,0.701416 0,0.495117 -0.320557,0.834717 -0.320557,0.3396 -0.990234,0.431641 0.244384,0.117431 0.371337,0.231689 0.269776,0.247559 0.510987,0.618897 L 16.022876,80 h -0.774414 l -0.615723,-0.968018 q -0.269775,-0.418945 -0.444336,-0.641113 -0.17456,-0.222168 -0.314209,-0.311035 -0.136474,-0.08887 -0.279297,-0.123779 -0.104736,-0.02222 -0.342773,-0.02222 H 12.538013 V 80 Z m 0.615723,-2.599365 h 1.323486 q 0.422119,0 0.660156,-0.08569 0.238037,-0.08887 0.361817,-0.279296 0.123779,-0.193604 0.123779,-0.418946 0,-0.330078 -0.241211,-0.542724 -0.238037,-0.212647 -0.755371,-0.212647 H 12.538013 Z M 16.919556,80 v -4.652832 h 3.364258 v 0.549072 h -2.748536 v 1.425049 h 2.573975 v 0.545898 h -2.573975 v 1.583741 h 2.856446 V 80 Z m 4.622754,0 v -4.652832 h 1.755127 q 0.463379,0 0.707764,0.04443 0.342773,0.05713 0.574462,0.218994 0.23169,0.158691 0.371338,0.447509 0.142823,0.288819 0.142823,0.634766 0,0.593506 -0.377686,1.006104 -0.377686,0.409423 -1.364746,0.409423 H 22.158033 V 80 Z m 0.615723,-2.440674 h 1.20288 q 0.59668,0 0.847413,-0.222168 0.250732,-0.222168 0.250732,-0.625244 0,-0.291992 -0.14917,-0.498291 Q 24.163892,76.00415 23.922681,75.9375 23.767163,75.89624 23.348218,75.89624 H 22.158033 Z M 26.190454,80 v -4.652832 h 3.364257 v 0.549072 h -2.748535 v 1.425049 h 2.573975 v 0.545898 h -2.573975 v 1.583741 h 2.856446 V 80 Z m 4.111768,0 1.786866,-4.652832 h 0.66333 L 34.656715,80 H 33.955299 L 33.412574,78.59082 H 31.467017 L 30.956031,80 Z m 1.34253,-1.910645 h 1.577392 l -0.485595,-1.288574 q -0.222168,-0.587158 -0.330079,-0.964844 -0.08887,0.44751 -0.250732,0.888672 z M 36.150073,80 v -4.10376 h -1.532959 v -0.549072 h 3.687988 V 75.89624 H 36.765796 V 80 Z m 5.049708,0 v -4.652832 h 0.615722 v 4.10376 h 2.291504 V 80 Z m 3.953077,0 v -4.652832 h 3.364258 v 0.549072 h -2.748535 v 1.425049 h 2.573974 v 0.545898 h -2.573974 v 1.583741 h 2.856445 V 80 Z m 4.616405,0 v -4.652832 h 0.631592 l 2.443848,3.653076 v -3.653076 h 0.590332 V 80 H 52.803443 L 50.359595,76.34375 V 80 Z m 7.177685,-1.824951 V 77.62915 l 1.970947,-0.0032 v 1.726562 q -0.453857,0.361816 -0.936279,0.545898 -0.482422,0.180909 -0.990234,0.180909 -0.685547,0 -1.247315,-0.291992 -0.558593,-0.295167 -0.844238,-0.850586 -0.285645,-0.55542 -0.285645,-1.240967 0,-0.679199 0.282471,-1.266358 0.285645,-0.590332 0.818848,-0.875976 0.533203,-0.285645 1.228271,-0.285645 0.504639,0 0.910889,0.165039 0.409424,0.161866 0.641113,0.453858 0.23169,0.291992 0.352295,0.761718 l -0.55542,0.152344 q -0.104736,-0.355469 -0.260254,-0.558594 -0.155517,-0.203125 -0.444336,-0.32373 -0.288818,-0.123779 -0.641113,-0.123779 -0.422119,0 -0.72998,0.130127 -0.307862,0.126953 -0.498291,0.336425 -0.187256,0.209473 -0.291993,0.460206 -0.177734,0.43164 -0.177734,0.936279 0,0.62207 0.212647,1.041015 0.21582,0.418946 0.625244,0.622071 0.409424,0.203125 0.869629,0.203125 0.399902,0 0.780761,-0.152344 0.38086,-0.155518 0.577637,-0.330078 V 78.175049 Z M 61.309447,80 v -4.10376 h -1.532959 v -0.549072 h 3.687989 V 75.89624 H 61.92517 V 80 Z m 3.105664,0 v -4.652832 h 0.615722 v 1.910644 h 2.418457 v -1.910644 h 0.615723 V 80 H 67.44929 V 77.806885 H 65.030833 V 80 Z"
     id="text4"
     class="tiny"
     style="font-size:6.5px;font-family:Arial, sans-serif;letter-spacing:0.3px;text-anchor:middle;fill:#ff7e79;fill-opacity:1"
     aria-label="REPEAT LENGTH" />
  <path
     d="m 79.156519,78.368652 0.615722,0.155518 q -0.193603,0.758545 -0.698242,1.158447 -0.501465,0.396729 -1.228271,0.396729 -0.752198,0 -1.225098,-0.304688 -0.469727,-0.307861 -0.717285,-0.888672 -0.244385,-0.58081 -0.244385,-1.247314 0,-0.726807 0.276123,-1.266358 0.279297,-0.542724 0.790283,-0.822021 0.51416,-0.282471 1.129883,-0.282471 0.698242,0 1.174316,0.355469 0.476075,0.355469 0.663331,0.999756 l -0.606202,0.142822 q -0.161865,-0.507812 -0.469726,-0.739502 -0.307862,-0.231689 -0.774414,-0.231689 -0.536377,0 -0.898194,0.25708 -0.358642,0.25708 -0.504638,0.691894 -0.145996,0.431641 -0.145996,0.891846 0,0.593506 0.171386,1.037842 0.174561,0.441162 0.539551,0.660156 0.36499,0.218994 0.790283,0.218994 0.517334,0 0.875977,-0.29834 0.358642,-0.298339 0.485596,-0.885498 z M 82.16062,80 80.357886,75.347168 h 0.666504 l 1.209228,3.380127 q 0.145996,0.40625 0.244385,0.761719 0.10791,-0.38086 0.250733,-0.761719 l 1.256835,-3.380127 h 0.628418 L 82.792212,80 Z"
     id="text5"
     class="tiny"
     style="font-size:6.5px;font-family:Arial, sans-serif;letter-spacing:0.3px;text-anchor:middle;fill:#ff7e79;fill-opacity:1"
     aria-label="CV" />
  <path
     d="m 26.745117,147.73389 q 0,-1.15845 0.62207,-1.81226 0.622071,-0.65698 1.605958,-0.65698 0.644287,0 1.161621,0.30786 0.517334,0.30786 0.787109,0.86011 0.272949,0.54907 0.272949,1.24731 0,0.70777 -0.285644,1.26636 -0.285645,0.55859 -0.809327,0.84741 -0.523681,0.28565 -1.129882,0.28565 -0.656983,0 -1.174317,-0.31739 -0.517334,-0.31738 -0.783935,-0.86645 -0.266602,-0.54907 -0.266602,-1.16162 z m 0.634766,0.01 q 0,0.84106 0.450683,1.32666 0.453858,0.48242 1.136231,0.48242 0.695068,0 1.142578,-0.48877 0.450684,-0.48877 0.450684,-1.38696 0,-0.56812 -0.193604,-0.99024 -0.19043,-0.42529 -0.561768,-0.65698 -0.368164,-0.23486 -0.828369,-0.23486 -0.653808,0 -1.126709,0.45068 -0.469726,0.44751 -0.469726,1.49805 z M 32.32002,150 v -4.65283 h 3.138916 v 0.54907 h -2.523194 v 1.44092 h 2.183594 v 0.54907 H 32.935742 V 150 Z m 4.270459,0 v -4.65283 h 3.138916 v 0.54907 h -2.523193 v 1.44092 h 2.183593 v 0.54907 H 37.206202 V 150 Z m 4.029247,-1.49487 0.580811,-0.0508 q 0.04126,0.34912 0.190429,0.57446 0.152344,0.22217 0.469727,0.36181 0.317383,0.13648 0.714111,0.13648 0.352295,0 0.622071,-0.10474 0.269775,-0.10473 0.399902,-0.28564 0.133301,-0.18408 0.133301,-0.3999 0,-0.219 -0.126953,-0.38086 -0.126954,-0.16504 -0.418946,-0.27613 -0.187256,-0.073 -0.828369,-0.22534 -0.641113,-0.15552 -0.898193,-0.29199 -0.333252,-0.17456 -0.498291,-0.43164 -0.161865,-0.26025 -0.161865,-0.58081 0,-0.3523 0.199951,-0.65698 0.199951,-0.30786 0.583984,-0.46656 0.384033,-0.15869 0.85376,-0.15869 0.517334,0 0.910889,0.16822 0.396728,0.16503 0.609375,0.48876 0.212646,0.32374 0.228515,0.73316 l -0.590332,0.0444 q -0.04761,-0.44116 -0.32373,-0.6665 -0.27295,-0.22534 -0.809327,-0.22534 -0.558593,0 -0.815673,0.2063 -0.253907,0.20312 -0.253907,0.49194 0,0.25073 0.180909,0.4126 0.177734,0.16186 0.926757,0.33325 0.752198,0.16821 1.031495,0.29516 0.40625,0.18726 0.599853,0.47608 0.193604,0.28564 0.193604,0.66016 0,0.37133 -0.212647,0.70141 -0.212646,0.32691 -0.612549,0.51099 -0.396728,0.18091 -0.895019,0.18091 -0.631592,0 -1.060059,-0.18409 -0.425293,-0.18408 -0.669678,-0.55224 -0.241211,-0.37134 -0.253906,-0.83789 z M 45.477344,150 v -4.65283 h 3.364258 v 0.54907 h -2.748535 v 1.42505 h 2.573975 v 0.5459 h -2.573975 v 1.58374 h 2.856445 V 150 Z m 5.806592,0 v -4.10376 h -1.532959 v -0.54907 h 3.687988 v 0.54907 H 51.899658 V 150 Z"
     id="text6"
     class="tiny"
     style="font-size:6.5px;font-family:Arial, sans-serif;letter-spacing:0.3px;text-anchor:middle;fill:#ff7e79;fill-opacity:1"
     aria-label="OFFSET" />
  <path
     d="m 79.156519,148.36865 0.615722,0.15552 q -0.193603,0.75854 -0.698242,1.15845 -0.501465,0.39673 -1.228271,0.39673 -0.752198,0 -1.225098,-0.30469 -0.469727,-0.30786 -0.717285,-0.88867 -0.244385,-0.58081 -0.244385,-1.24732 0,-0.7268 0.276123,-1.26636 0.279297,-0.54272 0.790283,-0.82202 0.51416,-0.28247 1.129883,-0.28247 0.698242,0 1.174316,0.35547 0.476075,0.35547 0.663331,0.99976 l -0.606202,0.14282 q -0.161865,-0.50781 -0.469726,-0.7395 -0.307862,-0.23169 -0.774414,-0.23169 -0.536377,0 -0.898194,0.25708 -0.358642,0.25708 -0.504638,0.69189 -0.145996,0.43164 -0.145996,0.89185 0,0.5935 0.171386,1.03784 0.174561,0.44116 0.539551,0.66016 0.36499,0.21899 0.790283,0.21899 0.517334,0 0.875977,-0.29834 0.358642,-0.29834 0.485596,-0.8855 z M 82.16062,150 80.357886,145.34717 h 0.666504 l 1.209228,3.38012 q 0.145996,0.40625 0.244385,0.76172 0.10791,-0.38086 0.250733,-0.76172 l 1.256835,-3.38012 h 0.628418 L 82.792212,150 Z"
     id="text7"
     class="tiny"
     style="font-size:6.5px;font-family:Arial, sans-serif;letter-spacing:0.3px;text-anchor:middle;fill:#ff7e79;fill-opacity:1"
     aria-label="CV" />
  <path
     d="m 19.18623,282 v -4.65283 h 0.615723 v 4.10376 h 2.291504 V 282 Z m 5.909815,0 v -4.65283 h 0.615722 V 282 Z m 1.994824,0 v -4.65283 h 0.631592 l 2.443848,3.65307 v -3.65307 h 0.590332 V 282 h -0.631592 l -2.443848,-3.65625 V 282 Z"
     id="text8"
     class="tiny"
     style="font-size:6.5px;font-family:Arial, sans-serif;letter-spacing:0.3px;text-anchor:middle;fill:#ff7e79;fill-opacity:1"
     aria-label="L IN" />
  <path
     d="m 48.560986,282 v -4.65283 h 2.062989 q 0.62207,0 0.9458,0.12695 0.323731,0.12378 0.517334,0.44116 0.193604,0.31739 0.193604,0.70142 0,0.49512 -0.320557,0.83472 -0.320556,0.3396 -0.990234,0.43164 0.244385,0.11743 0.371338,0.23169 0.269775,0.24755 0.510986,0.61889 L 52.661572,282 h -0.774414 l -0.615722,-0.96802 q -0.269776,-0.41894 -0.444336,-0.64111 -0.174561,-0.22217 -0.314209,-0.31104 -0.136475,-0.0889 -0.279297,-0.12378 -0.104737,-0.0222 -0.342774,-0.0222 H 49.176709 V 282 Z m 0.615723,-2.59937 h 1.323486 q 0.422119,0 0.660157,-0.0857 0.238037,-0.0889 0.361816,-0.2793 0.123779,-0.1936 0.123779,-0.41894 0,-0.33008 -0.241211,-0.54273 -0.238037,-0.21264 -0.755371,-0.21264 H 49.176709 Z M 55.756201,282 v -4.65283 h 0.615723 V 282 Z m 1.994824,0 v -4.65283 h 0.631592 l 2.443847,3.65307 v -3.65307 h 0.590332 V 282 h -0.631591 l -2.443848,-3.65625 V 282 Z"
     id="text9"
     class="tiny"
     style="font-size:6.5px;font-family:Arial, sans-serif;letter-spacing:0.3px;text-anchor:middle;fill:#ff7e79;fill-opacity:1"
     aria-label="R IN" />
  <path
     d="m 55.426001,282 v -4.65283 h 0.615723 v 4.10376 h 2.291504 V 282 Z m 5.617822,-2.26611 q 0,-1.15845 0.62207,-1.81226 0.622071,-0.65698 1.605957,-0.65698 0.644288,0 1.161622,0.30786 0.517334,0.30786 0.787109,0.86011 0.272949,0.54907 0.272949,1.24731 0,0.70777 -0.285644,1.26636 -0.285645,0.55859 -0.809327,0.84741 -0.523681,0.28565 -1.129882,0.28565 -0.656983,0 -1.174317,-0.31739 -0.517334,-0.31738 -0.783935,-0.86645 -0.266602,-0.54907 -0.266602,-1.16162 z m 0.634766,0.01 q 0,0.84106 0.450683,1.32666 0.453858,0.48242 1.136231,0.48242 0.695068,0 1.142578,-0.48877 0.450684,-0.48877 0.450684,-1.38696 0,-0.56812 -0.193604,-0.99024 -0.19043,-0.42529 -0.561768,-0.65698 -0.368164,-0.23486 -0.828369,-0.23486 -0.653808,0 -1.126709,0.45068 -0.469726,0.44751 -0.469726,1.49805 z m 7.961621,-2.39624 h 0.615722 v 2.68823 q 0,0.70142 -0.158691,1.11401 -0.158692,0.4126 -0.574463,0.67286 -0.412598,0.25708 -1.085449,0.25708 -0.653809,0 -1.06958,-0.22535 -0.415772,-0.22534 -0.593506,-0.65063 -0.177735,-0.42847 -0.177735,-1.16797 v -2.68823 h 0.615723 v 2.68506 q 0,0.6062 0.111084,0.89502 0.114258,0.28564 0.387207,0.44116 0.276123,0.15552 0.672852,0.15552 0.679199,0 0.968017,-0.30787 0.288819,-0.30786 0.288819,-1.18383 z M 72.764918,282 v -4.10376 h -1.532959 v -0.54907 h 3.687988 v 0.54907 H 73.38064 V 282 Z"
     id="text10"
     class="tiny"
     style="font-size:6.5px;font-family:Arial, sans-serif;letter-spacing:0.3px;text-anchor:middle;fill:#ff7e79;fill-opacity:1"
     aria-label="L OUT" />
  <path
     d="m 84.800757,282 v -4.65283 h 2.062988 q 0.62207,0 0.945801,0.12695 0.32373,0.12378 0.517334,0.44116 0.193603,0.31739 0.193603,0.70142 0,0.49512 -0.320556,0.83472 -0.320557,0.3396 -0.990235,0.43164 0.244385,0.11743 0.371338,0.23169 0.269776,0.24755 0.510987,0.61889 L 88.901343,282 h -0.774414 l -0.615723,-0.96802 q -0.269775,-0.41894 -0.444336,-0.64111 -0.17456,-0.22217 -0.314209,-0.31104 -0.136475,-0.0889 -0.279297,-0.12378 -0.104736,-0.0222 -0.342773,-0.0222 H 85.416479 V 282 Z m 0.615722,-2.59937 h 1.323487 q 0.422119,0 0.660156,-0.0857 0.238037,-0.0889 0.361816,-0.2793 0.12378,-0.1936 0.12378,-0.41894 0,-0.33008 -0.241211,-0.54273 -0.238037,-0.21264 -0.755371,-0.21264 h -1.472657 z m 6.2875,0.33326 q 0,-1.15845 0.622071,-1.81226 0.62207,-0.65698 1.605957,-0.65698 0.644287,0 1.161621,0.30786 0.517334,0.30786 0.787109,0.86011 0.272949,0.54907 0.272949,1.24731 0,0.70777 -0.285644,1.26636 -0.285645,0.55859 -0.809326,0.84741 -0.523682,0.28565 -1.129883,0.28565 -0.656983,0 -1.174317,-0.31739 -0.517334,-0.31738 -0.783935,-0.86645 -0.266602,-0.54907 -0.266602,-1.16162 z m 0.634766,0.01 q 0,0.84106 0.450684,1.32666 0.453857,0.48242 1.13623,0.48242 0.695068,0 1.142578,-0.48877 0.450684,-0.48877 0.450684,-1.38696 0,-0.56812 -0.193604,-0.99024 -0.190429,-0.42529 -0.561767,-0.65698 -0.368164,-0.23486 -0.828369,-0.23486 -0.653809,0 -1.126709,0.45068 -0.469727,0.44751 -0.469727,1.49805 z m 7.961625,-2.39624 h 0.61572 v 2.68823 q 0,0.70142 -0.15869,1.11401 -0.15869,0.4126 -0.57447,0.67286 -0.412593,0.25708 -1.085445,0.25708 -0.653809,0 -1.06958,-0.22535 -0.415772,-0.22534 -0.593506,-0.65063 -0.177734,-0.42847 -0.177734,-1.16797 v -2.68823 h 0.615722 v 2.68506 q 0,0.6062 0.111084,0.89502 0.114258,0.28564 0.387207,0.44116 0.276123,0.15552 0.672852,0.15552 0.679199,0 0.96802,-0.30787 0.28882,-0.30786 0.28882,-1.18383 z M 103.42507,282 v -4.10376 h -1.53296 v -0.54907 h 3.68799 v 0.54907 h -1.5393 V 282 Z"
     id="text11"
     class="tiny"
     style="font-size:6.5px;font-family:Arial, sans-serif;letter-spacing:0.3px;text-anchor:middle;fill:#ff7e79;fill-opacity:1"
     aria-label="R OUT" />
  <path
     style="font-weight:bold;font-size:13.3333px;font-family:Arial;-inkscape-font-specification:'Arial Bold';text-align:center;text-anchor:middle;fill:#ff7e79;stroke-width:1.002"
     d="m 16.556078,28.837656 v -9.544247 h 1.874995 l 3.90624,6.373682 v -6.373682 h 1.79036 v 9.544247 h -1.933589 l -3.847646,-6.223943 v 6.223943 z m 9.60935,0 v -9.544247 h 7.076805 v 1.61458 h -5.149726 v 2.11588 h 4.791654 v 1.608068 h -4.791654 v 2.59765 h 5.332017 v 1.608069 z m 8.886695,-9.544247 h 3.522127 q 1.191403,0 1.816402,0.182292 0.839841,0.247395 1.438798,0.878904 0.598957,0.631508 0.911456,1.549475 0.312499,0.911456 0.312499,2.252598 0,1.178383 -0.292968,2.031245 -0.358072,1.041664 -1.022133,1.686194 -0.5013,0.48828 -1.354163,0.761717 -0.638019,0.201822 -1.705725,0.201822 h -3.626293 z m 1.927079,1.61458 v 6.321598 H 38.418 q 0.80729,0 1.165362,-0.09114 0.468749,-0.117188 0.774738,-0.397135 0.312499,-0.279947 0.507811,-0.917966 0.195312,-0.64453 0.195312,-1.751298 0,-1.106768 -0.195312,-1.699214 -0.195312,-0.592447 -0.546874,-0.924477 -0.351561,-0.332031 -0.891925,-0.449218 -0.403644,-0.09115 -1.582027,-0.09115 z m 11.419242,7.929667 v -9.544247 h 4.055979 q 1.529944,0 2.220047,0.260416 0.696612,0.253906 1.113278,0.911456 0.416666,0.657551 0.416666,1.503903 0,1.074216 -0.631509,1.777339 -0.631509,0.696613 -1.888016,0.878904 0.624998,0.364582 1.028643,0.800779 0.410155,0.436197 1.100258,1.549476 l 1.165361,1.861974 H 54.67447 l -1.393226,-2.076818 q -0.742186,-1.113278 -1.015622,-1.399736 -0.273437,-0.292968 -0.579426,-0.397134 -0.305989,-0.110677 -0.97005,-0.110677 h -0.390624 v 3.984365 z m 1.927078,-5.507799 H 51.7513 q 1.386715,0 1.731766,-0.117187 0.345052,-0.117187 0.540364,-0.403645 0.195312,-0.286457 0.195312,-0.716144 0,-0.481769 -0.260416,-0.774737 -0.253906,-0.299479 -0.722655,-0.377603 -0.234374,-0.03255 -1.406246,-0.03255 h -1.503903 z m 7.695293,5.507799 v -9.544247 h 7.076805 v 1.61458 h -5.149727 v 2.11588 h 4.791655 v 1.608068 h -4.791655 v 2.59765 h 5.332018 v 1.608069 z m 8.893207,0 v -9.544247 h 3.092441 q 1.757808,0 2.29166,0.143229 0.820311,0.214843 1.373695,0.937498 0.553384,0.716144 0.553384,1.855464 0,0.878904 -0.31901,1.477861 -0.319009,0.598956 -0.8138,0.944008 -0.48828,0.33854 -0.996091,0.449217 -0.690102,0.136719 -1.998693,0.136719 h -1.256507 v 3.600251 z m 1.927079,-7.929667 v 2.708326 h 1.054685 q 1.13932,0 1.523433,-0.149739 0.384114,-0.149739 0.598957,-0.468749 0.221354,-0.31901 0.221354,-0.742186 0,-0.520832 -0.305989,-0.859372 -0.305989,-0.338541 -0.774738,-0.423176 -0.345051,-0.0651 -1.386715,-0.0651 z m 6.966129,7.929667 v -9.544247 h 7.076805 v 1.61458 h -5.149727 v 2.11588 h 4.791655 v 1.608068 h -4.791655 v 2.59765 h 5.332018 v 1.608069 z m 17.499953,0 h -2.096349 l -0.833331,-2.167963 h -3.815095 l -0.787758,2.167963 h -2.044266 l 3.717439,-9.544247 h 2.037755 z m -3.548168,-3.776032 -1.315101,-3.541658 -1.289059,3.541658 z m 5.729156,3.776032 v -7.929667 h -2.832024 v -1.61458 h 7.584613 v 1.61458 h -2.825511 v 7.929667 z"
     id="text1"
     aria-label="NED REPEAT" />
</svg>
