<?xml version="1.0" encoding="UTF-8" standalone="no"?>
<svg
   width="120"
   height="380"
   viewBox="0 0 120 380"
   version="1.1"
   id="svg19"
   sodipodi:docname="RnboNedKick.svg"
   inkscape:version="1.3.2 (091e20e, 2023-11-25)"
   xmlns:inkscape="http://www.inkscape.org/namespaces/inkscape"
   xmlns:sodipodi="http://sodipodi.sourceforge.net/DTD/sodipodi-0.dtd"
   xmlns="http://www.w3.org/2000/svg"
   xmlns:svg="http://www.w3.org/2000/svg">
  <sodipodi:namedview
     id="namedview1"
     pagecolor="#ffffff"
     bordercolor="#000000"
     borderopacity="0.25"
     inkscape:showpageshadow="2"
     inkscape:pageopacity="0.0"
     inkscape:pagecheckerboard="0"
     inkscape:deskcolor="#d1d1d1"
     inkscape:zoom="2.7394737"
     inkscape:cx="59.865514"
     inkscape:cy="190"
     inkscape:window-width="1392"
     inkscape:window-height="1212"
     inkscape:window-x="484"
     inkscape:window-y="312"
     inkscape:window-maximized="0"
     inkscape:current-layer="svg19" />
  <defs
     id="defs1">
    <style
       id="style1">
      .panel  { fill: #2a2a2a; }
      .title  { font-family: Arial, sans-serif; font-size: 12px; font-weight: bold; fill: #ffffff; text-anchor: middle; }
      .label  { font-family: Arial, sans-serif; font-size: 7.5px; fill: #cfcfcf; text-anchor: middle; }
      .cv     { font-family: Arial, sans-serif; font-size: 6.5px; fill: #888888; text-anchor: middle; }
      .io     { font-family: Arial, sans-serif; font-size: 7.5px; fill: #aaaaaa; text-anchor: middle; }
    </style>
  </defs>
  <!-- Background -->
  <rect
     class="panel"
     x="0"
     y="0"
     width="120"
     height="380"
     id="rect1"
     style="fill:#434343;fill-opacity:1" />
  <rect
     x="0"
     y="0"
     width="120"
     height="2"
     fill="#444"
     id="rect2" />
  <rect
     x="0"
     y="378"
     width="120"
     height="2"
     fill="#444"
     id="rect3" />
  <!-- Title -->
  <path
     d="m 31.889648,20 v -8.589844 h 1.6875 l 3.515625,5.736328 v -5.736328 h 1.611329 V 20 h -1.740235 l -3.46289,-5.601562 V 20 Z m 8.648438,0 v -8.589844 h 6.369141 v 1.453125 h -4.634766 v 1.904297 h 4.3125 v 1.447266 h -4.3125 v 2.33789 h 4.798828 V 20 Z m 7.998047,-8.589844 h 3.169922 q 1.072265,0 1.634765,0.164063 0.75586,0.222656 1.294922,0.791015 0.539063,0.56836 0.820313,1.394532 0.28125,0.820312 0.28125,2.027343 0,1.060547 -0.263672,1.828125 -0.322266,0.9375 -0.919922,1.517578 -0.451172,0.439454 -1.21875,0.685547 Q 52.760742,20 51.799805,20 h -3.263672 z m 1.734375,1.453125 v 5.689453 h 1.294922 q 0.726562,0 1.048828,-0.08203 0.421875,-0.105469 0.697265,-0.357422 0.28125,-0.251953 0.457032,-0.826172 0.175781,-0.580078 0.175781,-1.576171 0,-0.996094 -0.175781,-1.529297 -0.175782,-0.533203 -0.492188,-0.832032 -0.316406,-0.298828 -0.802734,-0.404296 -0.363281,-0.08203 -1.423828,-0.08203 z M 60.56543,20 v -8.589844 h 1.734375 v 3.814453 l 3.503906,-3.814453 h 2.332031 L 64.901367,14.755859 68.311523,20 h -2.24414 l -2.361328,-4.03125 -1.40625,1.435547 V 20 Z m 8.589843,0 v -8.589844 h 1.734375 V 20 Z m 8.882813,-3.158203 1.681641,0.533203 q -0.386719,1.40625 -1.289063,2.091797 -0.896484,0.679687 -2.279297,0.679687 -1.710937,0 -2.8125,-1.166015 -1.101562,-1.171875 -1.101562,-3.199219 0,-2.144531 1.107422,-3.328125 1.107421,-1.189453 2.912109,-1.189453 1.576172,0 2.560547,0.931641 0.585937,0.550781 0.878906,1.582031 L 77.979492,14.1875 q -0.152344,-0.667969 -0.638672,-1.054687 -0.480468,-0.386719 -1.171875,-0.386719 -0.955078,0 -1.552734,0.685547 -0.591797,0.685547 -0.591797,2.220703 0,1.628906 0.585938,2.320312 0.585937,0.691406 1.523437,0.691406 0.691406,0 1.189453,-0.439453 0.498047,-0.439453 0.714844,-1.382812 z M 81.231445,20 v -8.589844 h 1.734375 v 3.814453 l 3.503907,-3.814453 h 2.332031 L 85.567383,14.755859 88.977539,20 H 86.733398 L 84.37207,15.96875 82.96582,17.404297 V 20 Z"
     id="text3"
     class="title"
     style="font-weight:bold;font-size:12px;font-family:Arial, sans-serif;text-anchor:middle;fill:#ff7e79;fill-opacity:1"
     aria-label="NED KICK" />
  <!-- Column headers -->
  <path
     d="m 22.521362,36 v -5.368652 h 2.025147 q 0.534668,0 0.81665,0.05127 0.395508,0.06592 0.662842,0.252686 0.267334,0.183105 0.428467,0.516357 0.164795,0.333252 0.164795,0.732422 0,0.684814 -0.435791,1.160889 -0.435791,0.472412 -1.574707,0.472412 H 23.231812 V 36 Z m 0.71045,-2.816162 h 1.387939 q 0.688477,0 0.977783,-0.256348 0.289307,-0.256347 0.289307,-0.721435 0,-0.336914 -0.172119,-0.574951 -0.168457,-0.2417 -0.446778,-0.318604 -0.179443,-0.04761 -0.662841,-0.04761 H 23.231812 Z M 26.377563,36 28.439331,30.631348 h 0.765381 L 31.401978,36 h -0.809327 l -0.62622,-1.625977 H 27.721558 L 27.131958,36 Z m 1.549073,-2.20459 h 1.820068 l -0.560303,-1.486816 q -0.256347,-0.67749 -0.380859,-1.113282 -0.102539,0.516358 -0.289307,1.025391 z M 31.980591,36 v -5.368652 h 2.380371 q 0.717773,0 1.091309,0.146484 0.373535,0.142822 0.596923,0.509033 0.223389,0.366211 0.223389,0.809326 0,0.571289 -0.369873,0.963135 -0.369873,0.391846 -1.142578,0.498047 0.281982,0.135498 0.428467,0.267334 0.311279,0.285645 0.589599,0.714111 L 36.712036,36 h -0.893555 l -0.710449,-1.116943 q -0.311279,-0.483399 -0.512695,-0.739746 -0.201416,-0.256348 -0.362549,-0.358887 -0.157471,-0.102539 -0.322266,-0.142822 -0.120849,-0.02564 -0.395507,-0.02564 H 32.69104 V 36 Z m 0.710449,-2.999268 h 1.5271 q 0.48706,0 0.761718,-0.09888 0.274659,-0.102539 0.417481,-0.322265 0.142822,-0.223389 0.142822,-0.483399 0,-0.380859 -0.27832,-0.62622 -0.274658,-0.245362 -0.871582,-0.245362 H 32.69104 Z M 36.796265,36 38.858032,30.631348 h 0.765381 L 41.820679,36 H 41.011353 L 40.385132,34.374023 H 38.140259 L 37.550659,36 Z m 1.549072,-2.20459 h 1.820068 l -0.560302,-1.486816 q -0.256348,-0.67749 -0.38086,-1.113282 -0.102539,0.516358 -0.289306,1.025391 z M 42.366333,36 v -5.368652 h 1.069336 l 1.270752,3.801269 q 0.175781,0.531006 0.256348,0.794678 0.09155,-0.292969 0.285644,-0.860596 l 1.2854,-3.735351 h 0.955811 V 36 H 46.80481 V 31.506592 L 45.244751,36 H 44.603882 L 43.051147,31.429687 V 36 Z"
     id="text4"
     class="label"
     style="font-size:7.5px;font-family:Arial, sans-serif;text-anchor:middle;fill:#ff7e79;fill-opacity:1"
     aria-label="PARAM" />
  <path
     d="m 64.306519,34.368652 0.615722,0.155518 q -0.193603,0.758545 -0.698242,1.158447 -0.501465,0.396729 -1.228271,0.396729 -0.752198,0 -1.225098,-0.304688 -0.469727,-0.307861 -0.717285,-0.888672 -0.244385,-0.58081 -0.244385,-1.247314 0,-0.726807 0.276123,-1.266358 0.279297,-0.542724 0.790283,-0.822021 0.51416,-0.282471 1.129883,-0.282471 0.698242,0 1.174316,0.355469 0.476075,0.355469 0.663331,0.999756 l -0.606202,0.142822 q -0.161865,-0.507812 -0.469726,-0.739502 -0.307862,-0.231689 -0.774414,-0.231689 -0.536377,0 -0.898194,0.25708 -0.358642,0.25708 -0.504638,0.691894 -0.145996,0.431641 -0.145996,0.891846 0,0.593506 0.171386,1.037842 0.174561,0.441162 0.539551,0.660156 0.36499,0.218994 0.790283,0.218994 0.517334,0 0.875977,-0.29834 0.358642,-0.298339 0.485596,-0.885498 z M 67.01062,36 65.207886,31.347168 h 0.666504 l 1.209228,3.380127 q 0.145996,0.40625 0.244385,0.761719 0.10791,-0.38086 0.250732,-0.761719 l 1.256836,-3.380127 h 0.628418 L 67.642212,36 Z"
     id="text5"
     class="cv"
     style="font-size:6.5px;font-family:Arial, sans-serif;text-anchor:middle;fill:#ff7e79;fill-opacity:1"
     aria-label="CV" />
  <!-- Frequency (knob @ 35,60  cv @ 65,60) -->
  <path
     d="m 25.198364,51 v -5.368652 h 3.621826 v 0.633545 h -2.911377 v 1.662597 h 2.519532 v 0.633545 H 25.908813 V 51 Z m 4.555664,0 v -5.368652 h 2.380371 q 0.717774,0 1.091309,0.146484 0.373535,0.142822 0.596924,0.509033 0.223389,0.366211 0.223389,0.809326 0,0.571289 -0.369874,0.963135 -0.369873,0.391846 -1.142578,0.498047 0.281983,0.135498 0.428467,0.267334 0.311279,0.285645 0.5896,0.714111 L 34.485474,51 H 33.591919 L 32.88147,49.883057 q -0.31128,-0.483399 -0.512696,-0.739746 -0.201416,-0.256348 -0.362548,-0.358887 -0.157471,-0.102539 -0.322266,-0.142822 -0.12085,-0.02564 -0.395508,-0.02564 H 30.464478 V 51 Z m 0.71045,-2.999268 h 1.527099 q 0.487061,0 0.761719,-0.09888 0.274658,-0.102539 0.41748,-0.322265 0.142823,-0.223389 0.142823,-0.483399 0,-0.380859 -0.278321,-0.62622 -0.274658,-0.245362 -0.871582,-0.245362 H 30.464478 Z M 35.17395,51 v -5.368652 h 3.881836 v 0.633545 h -3.171387 v 1.644287 h 2.969971 v 0.629882 h -2.969971 v 1.827393 h 3.295899 V 51 Z m 9.056397,-0.574951 q 0.494384,0.340576 0.911865,0.498047 l -0.20874,0.494384 q -0.578614,-0.20874 -1.153565,-0.659179 -0.596924,0.333252 -1.318359,0.333252 -0.72876,0 -1.322022,-0.351563 -0.593261,-0.351562 -0.915527,-0.988769 -0.318603,-0.637207 -0.318603,-1.435547 0,-0.794678 0.322265,-1.446533 0.322266,-0.651856 0.915527,-0.992432 0.596924,-0.340576 1.333008,-0.340576 0.743408,0 1.340332,0.355224 0.596924,0.351563 0.908203,0.98877 0.314942,0.633545 0.314942,1.431885 0,0.662842 -0.201416,1.193847 -0.201416,0.527344 -0.60791,0.91919 z m -1.563721,-0.908203 q 0.615234,0.172119 1.014404,0.512695 0.626221,-0.571289 0.626221,-1.717529 0,-0.651856 -0.223389,-1.138916 -0.219726,-0.487061 -0.648193,-0.754395 -0.424805,-0.270996 -0.955811,-0.270996 -0.794677,0 -1.318359,0.545654 -0.523682,0.541993 -0.523682,1.622315 0,1.047363 0.516358,1.607666 0.520019,0.560303 1.325683,0.560303 0.38086,0 0.717774,-0.142823 -0.333252,-0.216064 -0.703125,-0.307617 z"
     id="text6"
     class="label"
     style="font-size:7.5px;font-family:Arial, sans-serif;text-anchor:middle;fill:#ff7e79;fill-opacity:1"
     aria-label="FREQ" />
  <path
     d="m 64.306519,49.368652 0.615722,0.155518 q -0.193603,0.758545 -0.698242,1.158447 -0.501465,0.396729 -1.228271,0.396729 -0.752198,0 -1.225098,-0.304688 -0.469727,-0.307861 -0.717285,-0.888672 -0.244385,-0.58081 -0.244385,-1.247314 0,-0.726807 0.276123,-1.266358 0.279297,-0.542724 0.790283,-0.822021 0.51416,-0.282471 1.129883,-0.282471 0.698242,0 1.174316,0.355469 0.476075,0.355469 0.663331,0.999756 l -0.606202,0.142822 q -0.161865,-0.507812 -0.469726,-0.739502 -0.307862,-0.231689 -0.774414,-0.231689 -0.536377,0 -0.898194,0.25708 -0.358642,0.25708 -0.504638,0.691894 -0.145996,0.431641 -0.145996,0.891846 0,0.593506 0.171386,1.037842 0.174561,0.441162 0.539551,0.660156 0.36499,0.218994 0.790283,0.218994 0.517334,0 0.875977,-0.29834 0.358642,-0.298339 0.485596,-0.885498 z M 67.01062,51 65.207886,46.347168 h 0.666504 l 1.209228,3.380127 q 0.145996,0.40625 0.244385,0.761719 0.10791,-0.38086 0.250732,-0.761719 l 1.256836,-3.380127 h 0.628418 L 67.642212,51 Z"
     id="text7"
     class="cv"
     style="font-size:6.5px;font-family:Arial, sans-serif;text-anchor:middle;fill:#ff7e79;fill-opacity:1"
     aria-label="CV" />
  <!-- Sweep Amt (knob @ 35,100  cv @ 65,100) -->
  <path
     d="m 21.792603,89.275146 0.670166,-0.05859 q 0.04761,0.402832 0.219726,0.662842 0.175781,0.256347 0.541992,0.41748 0.366211,0.157471 0.823975,0.157471 0.406494,0 0.717773,-0.12085 0.31128,-0.12085 0.461426,-0.32959 0.153809,-0.212402 0.153809,-0.461426 0,-0.252685 -0.146485,-0.439453 -0.146484,-0.190429 -0.483398,-0.318603 -0.216065,-0.08423 -0.955811,-0.26001 -0.739746,-0.179443 -1.036377,-0.336914 -0.384521,-0.201416 -0.574951,-0.498047 -0.186767,-0.300293 -0.186767,-0.670166 0,-0.406494 0.230713,-0.758057 0.230712,-0.355224 0.673828,-0.53833 0.443115,-0.183105 0.985107,-0.183105 0.596924,0 1.051025,0.194092 0.457764,0.190429 0.703125,0.563965 0.245362,0.373535 0.263672,0.845947 l -0.681152,0.05127 q -0.05493,-0.509033 -0.373535,-0.769043 -0.314942,-0.260009 -0.933838,-0.260009 -0.644531,0 -0.941162,0.238037 -0.292969,0.234375 -0.292969,0.567627 0,0.289306 0.20874,0.476074 0.205078,0.186767 1.069336,0.384521 0.86792,0.194092 1.190186,0.340577 0.46875,0.216064 0.692139,0.549316 0.223388,0.32959 0.223388,0.761719 0,0.428467 -0.245361,0.809326 -0.245361,0.377197 -0.706787,0.589599 -0.457764,0.208741 -1.032715,0.208741 -0.72876,0 -1.223145,-0.212403 -0.490722,-0.212402 -0.772705,-0.637207 -0.27832,-0.428466 -0.292968,-0.966797 z M 27.974243,91 26.549683,85.631348 h 0.728759 l 0.816651,3.519287 q 0.131836,0.552978 0.227051,1.098633 0.205078,-0.860596 0.241699,-0.992432 l 1.021728,-3.625488 h 0.856934 l 0.769043,2.717285 q 0.289306,1.010742 0.41748,1.900635 0.102539,-0.509034 0.267334,-1.168213 l 0.842285,-3.449707 h 0.714112 L 31.980591,91 h -0.684815 l -1.131591,-4.090576 q -0.142823,-0.512695 -0.168457,-0.629883 -0.08423,0.369873 -0.157471,0.629883 L 28.699341,91 Z m 6.156006,0 v -5.368652 h 3.881836 v 0.633545 h -3.171387 v 1.644287 h 2.969971 v 0.629882 h -2.969971 v 1.827393 h 3.295899 V 91 Z m 5.002441,0 v -5.368652 h 3.881836 v 0.633545 H 39.84314 v 1.644287 h 2.96997 v 0.629882 h -2.96997 v 1.827393 h 3.295898 V 91 Z m 4.987793,0 v -5.368652 h 2.025147 q 0.534668,0 0.81665,0.05127 0.395508,0.06592 0.662842,0.252686 0.267334,0.183105 0.428467,0.516357 0.164795,0.333252 0.164795,0.732422 0,0.684814 -0.435791,1.160889 -0.435791,0.472412 -1.574707,0.472412 H 44.830933 V 91 Z m 0.71045,-2.816162 h 1.387939 q 0.688477,0 0.977783,-0.256348 0.289307,-0.256347 0.289307,-0.721435 0,-0.336914 -0.172119,-0.574951 -0.168457,-0.2417 -0.446778,-0.318604 -0.179443,-0.04761 -0.662841,-0.04761 h -1.373291 z"
     id="text8"
     class="label"
     style="font-size:7.5px;font-family:Arial, sans-serif;text-anchor:middle;fill:#ff7e79;fill-opacity:1"
     aria-label="SWEEP" />
  <path
     d="m 64.306519,89.368652 0.615722,0.155518 q -0.193603,0.758545 -0.698242,1.158447 -0.501465,0.396729 -1.228271,0.396729 -0.752198,0 -1.225098,-0.304688 -0.469727,-0.307861 -0.717285,-0.888672 -0.244385,-0.58081 -0.244385,-1.247314 0,-0.726807 0.276123,-1.266358 0.279297,-0.542724 0.790283,-0.822021 0.51416,-0.282471 1.129883,-0.282471 0.698242,0 1.174316,0.355469 0.476075,0.355469 0.663331,0.999756 l -0.606202,0.142822 q -0.161865,-0.507812 -0.469726,-0.739502 -0.307862,-0.231689 -0.774414,-0.231689 -0.536377,0 -0.898194,0.25708 -0.358642,0.25708 -0.504638,0.691894 -0.145996,0.431641 -0.145996,0.891846 0,0.593506 0.171386,1.037842 0.174561,0.441162 0.539551,0.660156 0.36499,0.218994 0.790283,0.218994 0.517334,0 0.875977,-0.29834 0.358642,-0.298339 0.485596,-0.885498 z M 67.01062,91 65.207886,86.347168 h 0.666504 l 1.209228,3.380127 q 0.145996,0.40625 0.244385,0.761719 0.10791,-0.38086 0.250732,-0.761719 l 1.256836,-3.380127 h 0.628418 L 67.642212,91 Z"
     id="text9"
     class="cv"
     style="font-size:6.5px;font-family:Arial, sans-serif;text-anchor:middle;fill:#ff7e79;fill-opacity:1"
     aria-label="CV" />
  <!-- Filter (knob @ 35,140  cv @ 65,140) -->
  <path
     d="m 22.975464,131 v -5.36865 h 3.621826 v 0.63354 h -2.911377 v 1.6626 h 2.519531 v 0.63355 H 23.685913 V 131 Z m 4.665527,0 v -5.36865 H 28.35144 V 131 Z m 1.933594,0 v -5.36865 h 0.710449 v 4.73511 h 2.644043 V 131 Z m 5.009766,0 v -4.73511 h -1.768799 v -0.63354 h 4.255371 v 0.63354 H 35.2948 V 131 Z m 3.22998,0 v -5.36865 h 3.881836 v 0.63354 H 38.52478 v 1.64429 h 2.969971 v 0.62988 H 38.52478 v 1.8274 h 3.295899 V 131 Z m 4.998779,0 v -5.36865 h 2.380371 q 0.717774,0 1.091309,0.14648 0.373535,0.14282 0.596924,0.50904 0.223389,0.36621 0.223389,0.80932 0,0.57129 -0.369874,0.96314 -0.369873,0.39184 -1.142578,0.49804 0.281983,0.1355 0.428467,0.26734 0.311279,0.28564 0.5896,0.71411 L 47.544556,131 h -0.893555 l -0.710449,-1.11694 q -0.31128,-0.4834 -0.512696,-0.73975 -0.201416,-0.25635 -0.362548,-0.35889 -0.157471,-0.10254 -0.322266,-0.14282 -0.12085,-0.0256 -0.395508,-0.0256 H 43.52356 V 131 Z m 0.71045,-2.99927 h 1.527099 q 0.487061,0 0.761719,-0.0989 0.274658,-0.10254 0.41748,-0.32227 0.142823,-0.22339 0.142823,-0.4834 0,-0.38086 -0.278321,-0.62622 -0.274658,-0.24536 -0.871582,-0.24536 H 43.52356 Z"
     id="text10"
     class="label"
     style="font-size:7.5px;font-family:Arial, sans-serif;text-anchor:middle;fill:#ff7e79;fill-opacity:1"
     aria-label="FILTER" />
  <path
     d="m 64.306519,129.36865 0.615722,0.15552 q -0.193603,0.75854 -0.698242,1.15845 -0.501465,0.39673 -1.228271,0.39673 -0.752198,0 -1.225098,-0.30469 -0.469727,-0.30786 -0.717285,-0.88867 -0.244385,-0.58081 -0.244385,-1.24732 0,-0.7268 0.276123,-1.26636 0.279297,-0.54272 0.790283,-0.82202 0.51416,-0.28247 1.129883,-0.28247 0.698242,0 1.174316,0.35547 0.476075,0.35547 0.663331,0.99976 l -0.606202,0.14282 q -0.161865,-0.50781 -0.469726,-0.7395 -0.307862,-0.23169 -0.774414,-0.23169 -0.536377,0 -0.898194,0.25708 -0.358642,0.25708 -0.504638,0.69189 -0.145996,0.43164 -0.145996,0.89185 0,0.5935 0.171386,1.03784 0.174561,0.44116 0.539551,0.66016 0.36499,0.21899 0.790283,0.21899 0.517334,0 0.875977,-0.29834 0.358642,-0.29834 0.485596,-0.8855 z M 67.01062,131 65.207886,126.34717 h 0.666504 l 1.209228,3.38012 q 0.145996,0.40625 0.244385,0.76172 0.10791,-0.38086 0.250732,-0.76172 l 1.256836,-3.38012 h 0.628418 L 67.642212,131 Z"
     id="text11"
     class="cv"
     style="font-size:6.5px;font-family:Arial, sans-serif;text-anchor:middle;fill:#ff7e79;fill-opacity:1"
     aria-label="CV" />
  <!-- Drive (knob @ 35,180  cv @ 65,180) -->
  <path
     d="m 24.118042,171 v -5.36865 h 1.849365 q 0.626221,0 0.955811,0.0769 0.461426,0.1062 0.787353,0.38452 0.424805,0.35889 0.633545,0.91919 0.212403,0.55664 0.212403,1.27442 0,0.61157 -0.142823,1.08398 -0.142822,0.47241 -0.366211,0.78369 -0.223388,0.30762 -0.490722,0.48706 -0.263672,0.17578 -0.640869,0.26734 Q 26.542358,171 26.055298,171 Z m 0.710449,-0.63354 h 1.14624 q 0.531006,0 0.831299,-0.0989 0.303955,-0.0989 0.483399,-0.27832 0.252685,-0.25269 0.391845,-0.67749 0.142823,-0.42847 0.142823,-1.03638 0,-0.84228 -0.278321,-1.29272 -0.274658,-0.45411 -0.670166,-0.60791 -0.285644,-0.10987 -0.919189,-0.10987 h -1.12793 z M 29.545288,171 v -5.36865 h 2.380371 q 0.717774,0 1.091309,0.14648 0.373535,0.14282 0.596924,0.50904 0.223388,0.36621 0.223388,0.80932 0,0.57129 -0.369873,0.96314 -0.369873,0.39184 -1.142578,0.49804 0.281983,0.1355 0.428467,0.26734 0.311279,0.28564 0.5896,0.71411 L 34.276733,171 h -0.893554 l -0.71045,-1.11694 q -0.311279,-0.4834 -0.512695,-0.73975 -0.201416,-0.25635 -0.362549,-0.35889 -0.15747,-0.10254 -0.322265,-0.14282 -0.12085,-0.0256 -0.395508,-0.0256 H 30.255737 V 171 Z m 0.710449,-2.99927 h 1.5271 q 0.48706,0 0.761719,-0.0989 0.274658,-0.10254 0.41748,-0.32227 0.142822,-0.22339 0.142822,-0.4834 0,-0.38086 -0.27832,-0.62622 -0.274658,-0.24536 -0.871582,-0.24536 H 30.255737 Z M 35.071411,171 v -5.36865 H 35.78186 V 171 Z m 3.497315,0 -2.080079,-5.36865 h 0.769043 l 1.395264,3.90014 q 0.168457,0.46875 0.281983,0.87891 0.124511,-0.43945 0.289306,-0.87891 l 1.450195,-3.90014 h 0.725098 L 39.297485,171 Z m 3.482666,0 v -5.36865 h 3.881836 v 0.63354 h -3.171387 v 1.64429 h 2.969971 v 0.62988 h -2.969971 v 1.8274 h 3.295898 V 171 Z"
     id="text12"
     class="label"
     style="font-size:7.5px;font-family:Arial, sans-serif;text-anchor:middle;fill:#ff7e79;fill-opacity:1"
     aria-label="DRIVE" />
  <path
     d="m 64.306519,169.36865 0.615722,0.15552 q -0.193603,0.75854 -0.698242,1.15845 -0.501465,0.39673 -1.228271,0.39673 -0.752198,0 -1.225098,-0.30469 -0.469727,-0.30786 -0.717285,-0.88867 -0.244385,-0.58081 -0.244385,-1.24732 0,-0.7268 0.276123,-1.26636 0.279297,-0.54272 0.790283,-0.82202 0.51416,-0.28247 1.129883,-0.28247 0.698242,0 1.174316,0.35547 0.476075,0.35547 0.663331,0.99976 l -0.606202,0.14282 q -0.161865,-0.50781 -0.469726,-0.7395 -0.307862,-0.23169 -0.774414,-0.23169 -0.536377,0 -0.898194,0.25708 -0.358642,0.25708 -0.504638,0.69189 -0.145996,0.43164 -0.145996,0.89185 0,0.5935 0.171386,1.03784 0.174561,0.44116 0.539551,0.66016 0.36499,0.21899 0.790283,0.21899 0.517334,0 0.875977,-0.29834 0.358642,-0.29834 0.485596,-0.8855 z M 67.01062,171 65.207886,166.34717 h 0.666504 l 1.209228,3.38012 q 0.145996,0.40625 0.244385,0.76172 0.10791,-0.38086 0.250732,-0.76172 l 1.256836,-3.38012 h 0.628418 L 67.642212,171 Z"
     id="text13"
     class="cv"
     style="font-size:6.5px;font-family:Arial, sans-serif;text-anchor:middle;fill:#ff7e79;fill-opacity:1"
     aria-label="CV" />
  <!-- Sweep Decay (knob @ 35,220  cv @ 65,220) -->
  <path
     d="m 20.336914,209.27515 0.670166,-0.0586 q 0.04761,0.40283 0.219727,0.66284 0.175781,0.25635 0.541992,0.41748 0.366211,0.15748 0.823974,0.15748 0.406495,0 0.717774,-0.12085 0.311279,-0.12085 0.461426,-0.32959 0.153808,-0.21241 0.153808,-0.46143 0,-0.25269 -0.146484,-0.43945 -0.146485,-0.19043 -0.483399,-0.31861 -0.216064,-0.0842 -0.95581,-0.26001 -0.739746,-0.17944 -1.036377,-0.33691 -0.384522,-0.20142 -0.574951,-0.49805 -0.186768,-0.30029 -0.186768,-0.67016 0,-0.4065 0.230713,-0.75806 0.230713,-0.35522 0.673828,-0.53833 0.443115,-0.18311 0.985108,-0.18311 0.596923,0 1.051025,0.1941 0.457764,0.19043 0.703125,0.56396 0.245361,0.37354 0.263672,0.84595 l -0.681152,0.0513 q -0.05493,-0.50903 -0.373536,-0.76904 -0.314941,-0.26001 -0.933838,-0.26001 -0.644531,0 -0.941162,0.23803 -0.292968,0.23438 -0.292968,0.56763 0,0.28931 0.20874,0.47607 0.205078,0.18677 1.069336,0.38453 0.86792,0.19409 1.190185,0.34057 0.46875,0.21607 0.692139,0.54932 0.223389,0.32959 0.223389,0.76172 0,0.42846 -0.245362,0.80932 -0.245361,0.3772 -0.706787,0.5896 -0.457763,0.20874 -1.032715,0.20874 -0.728759,0 -1.223144,-0.2124 -0.490723,-0.2124 -0.772705,-0.63721 -0.278321,-0.42846 -0.292969,-0.96679 z M 26.518555,211 25.093994,205.63135 h 0.72876 l 0.81665,3.51928 q 0.131836,0.55298 0.227051,1.09864 0.205078,-0.8606 0.241699,-0.99243 l 1.021729,-3.62549 h 0.856933 l 0.769043,2.71728 q 0.289307,1.01074 0.417481,1.90064 0.102539,-0.50904 0.267334,-1.16822 l 0.842285,-3.4497 H 31.99707 L 30.524902,211 h -0.684814 l -1.131592,-4.09058 q -0.142822,-0.51269 -0.168457,-0.62988 -0.08423,0.36987 -0.157471,0.62988 L 27.243652,211 Z m 8.225097,0 v -5.36865 h 1.849366 q 0.62622,0 0.95581,0.0769 0.461426,0.1062 0.787354,0.38452 0.424804,0.35889 0.633545,0.91919 0.212402,0.55664 0.212402,1.27442 0,0.61157 -0.142822,1.08398 -0.142823,0.47241 -0.366211,0.78369 -0.223389,0.30762 -0.490723,0.48706 -0.263672,0.17578 -0.640869,0.26734 Q 37.167969,211 36.680908,211 Z m 0.71045,-0.63354 h 1.14624 q 0.531006,0 0.831299,-0.0989 0.303955,-0.0989 0.483398,-0.27832 0.252686,-0.25269 0.391846,-0.67749 0.142822,-0.42847 0.142822,-1.03638 0,-0.84228 -0.27832,-1.29272 -0.274658,-0.45411 -0.670166,-0.60791 -0.285645,-0.10987 -0.91919,-0.10987 H 35.454102 Z M 40.174561,211 v -5.36865 h 3.881835 v 0.63354 H 40.88501 v 1.64429 h 2.96997 v 0.62988 h -2.96997 v 1.8274 h 3.295898 V 211 Z m 8.818359,-1.88232 0.710449,0.17944 q -0.223389,0.87524 -0.805664,1.33667 -0.578613,0.45776 -1.417236,0.45776 -0.86792,0 -1.413574,-0.35156 -0.541993,-0.35522 -0.827637,-1.02539 -0.281983,-0.67017 -0.281983,-1.43921 0,-0.83862 0.318604,-1.46118 0.322266,-0.62622 0.911865,-0.94849 0.593262,-0.32593 1.303711,-0.32593 0.805664,0 1.354981,0.41016 0.549316,0.41016 0.76538,1.15357 l -0.699462,0.16479 q -0.186768,-0.58594 -0.541993,-0.85327 -0.355224,-0.26733 -0.893554,-0.26733 -0.618897,0 -1.036377,0.29663 -0.413819,0.29663 -0.582276,0.79834 -0.168457,0.49804 -0.168457,1.02905 0,0.68481 0.197754,1.19751 0.201416,0.50903 0.622559,0.76172 0.421142,0.25268 0.911865,0.25268 0.596924,0 1.010742,-0.34424 0.413819,-0.34423 0.560303,-1.02172 z"
     id="text14"
     class="label"
     style="font-size:7.5px;font-family:Arial, sans-serif;text-anchor:middle;fill:#ff7e79;fill-opacity:1"
     aria-label="SW DEC" />
  <path
     d="m 64.306519,209.36865 0.615722,0.15552 q -0.193603,0.75854 -0.698242,1.15845 -0.501465,0.39673 -1.228271,0.39673 -0.752198,0 -1.225098,-0.30469 -0.469727,-0.30786 -0.717285,-0.88867 -0.244385,-0.58081 -0.244385,-1.24732 0,-0.7268 0.276123,-1.26636 0.279297,-0.54272 0.790283,-0.82202 0.51416,-0.28247 1.129883,-0.28247 0.698242,0 1.174316,0.35547 0.476075,0.35547 0.663331,0.99976 l -0.606202,0.14282 q -0.161865,-0.50781 -0.469726,-0.7395 -0.307862,-0.23169 -0.774414,-0.23169 -0.536377,0 -0.898194,0.25708 -0.358642,0.25708 -0.504638,0.69189 -0.145996,0.43164 -0.145996,0.89185 0,0.5935 0.171386,1.03784 0.174561,0.44116 0.539551,0.66016 0.36499,0.21899 0.790283,0.21899 0.517334,0 0.875977,-0.29834 0.358642,-0.29834 0.485596,-0.8855 z M 67.01062,211 65.207886,206.34717 h 0.666504 l 1.209228,3.38012 q 0.145996,0.40625 0.244385,0.76172 0.10791,-0.38086 0.250732,-0.76172 l 1.256836,-3.38012 h 0.628418 L 67.642212,211 Z"
     id="text15"
     class="cv"
     style="font-size:6.5px;font-family:Arial, sans-serif;text-anchor:middle;fill:#ff7e79;fill-opacity:1"
     aria-label="CV" />
  <!-- Decay (knob @ 35,260  cv @ 65,260) -->
  <path
     d="m 22.937012,251 v -5.36865 h 1.849365 q 0.626221,0 0.95581,0.0769 0.461426,0.1062 0.787354,0.38452 0.424805,0.35889 0.633545,0.91919 0.212402,0.55664 0.212402,1.27442 0,0.61157 -0.142822,1.08398 -0.142822,0.47241 -0.366211,0.78369 -0.223389,0.30762 -0.490723,0.48706 -0.263671,0.17578 -0.640869,0.26734 Q 25.361328,251 24.874268,251 Z m 0.710449,-0.63354 h 1.14624 q 0.531006,0 0.831299,-0.0989 0.303955,-0.0989 0.483398,-0.27832 0.252686,-0.25269 0.391846,-0.67749 0.142822,-0.42847 0.142822,-1.03638 0,-0.84228 -0.27832,-1.29272 -0.274658,-0.45411 -0.670166,-0.60791 -0.285644,-0.10987 -0.919189,-0.10987 h -1.12793 z M 28.36792,251 v -5.36865 h 3.881836 v 0.63354 h -3.171387 v 1.64429 h 2.969971 v 0.62988 h -2.969971 v 1.8274 h 3.295899 V 251 Z m 8.818359,-1.88232 0.71045,0.17944 q -0.223389,0.87524 -0.805665,1.33667 -0.578613,0.45776 -1.417236,0.45776 -0.86792,0 -1.413574,-0.35156 -0.541992,-0.35522 -0.827637,-1.02539 -0.281982,-0.67017 -0.281982,-1.43921 0,-0.83862 0.318603,-1.46118 0.322266,-0.62622 0.911866,-0.94849 0.593261,-0.32593 1.30371,-0.32593 0.805665,0 1.354981,0.41016 0.549316,0.41016 0.765381,1.15357 l -0.699463,0.16479 q -0.186768,-0.58594 -0.541992,-0.85327 -0.355225,-0.26733 -0.893555,-0.26733 -0.618896,0 -1.036377,0.29663 -0.413818,0.29663 -0.582275,0.79834 -0.168457,0.49804 -0.168457,1.02905 0,0.68481 0.197754,1.19751 0.201416,0.50903 0.622558,0.76172 0.421143,0.25268 0.911865,0.25268 0.596924,0 1.010743,-0.34424 0.413818,-0.34423 0.560302,-1.02172 z M 38.182373,251 l 2.061768,-5.36865 h 0.76538 L 43.206787,251 H 42.397461 L 41.77124,249.37402 H 39.526367 L 38.936768,251 Z m 1.549072,-2.20459 h 1.820069 l -0.560303,-1.48682 q -0.256348,-0.67749 -0.380859,-1.11328 -0.10254,0.51636 -0.289307,1.02539 z M 44.730225,251 v -2.27417 l -2.069092,-3.09448 h 0.864258 L 44.58374,247.25 q 0.292969,0.4541 0.545655,0.9082 0.241699,-0.42114 0.585937,-0.94848 l 1.040039,-1.57837 h 0.827637 l -2.142334,3.09448 V 251 Z"
     id="text16"
     class="label"
     style="font-size:7.5px;font-family:Arial, sans-serif;text-anchor:middle;fill:#ff7e79;fill-opacity:1"
     aria-label="DECAY" />
  <path
     d="m 64.306519,249.36865 0.615722,0.15552 q -0.193603,0.75854 -0.698242,1.15845 -0.501465,0.39673 -1.228271,0.39673 -0.752198,0 -1.225098,-0.30469 -0.469727,-0.30786 -0.717285,-0.88867 -0.244385,-0.58081 -0.244385,-1.24732 0,-0.7268 0.276123,-1.26636 0.279297,-0.54272 0.790283,-0.82202 0.51416,-0.28247 1.129883,-0.28247 0.698242,0 1.174316,0.35547 0.476075,0.35547 0.663331,0.99976 l -0.606202,0.14282 q -0.161865,-0.50781 -0.469726,-0.7395 -0.307862,-0.23169 -0.774414,-0.23169 -0.536377,0 -0.898194,0.25708 -0.358642,0.25708 -0.504638,0.69189 -0.145996,0.43164 -0.145996,0.89185 0,0.5935 0.171386,1.03784 0.174561,0.44116 0.539551,0.66016 0.36499,0.21899 0.790283,0.21899 0.517334,0 0.875977,-0.29834 0.358642,-0.29834 0.485596,-0.8855 z M 67.01062,251 65.207886,246.34717 h 0.666504 l 1.209228,3.38012 q 0.145996,0.40625 0.244385,0.76172 0.10791,-0.38086 0.250732,-0.76172 l 1.256836,-3.38012 h 0.628418 L 67.642212,251 Z"
     id="text17"
     class="cv"
     style="font-size:6.5px;font-family:Arial, sans-serif;text-anchor:middle;fill:#ff7e79;fill-opacity:1"
     aria-label="CV" />
  <!-- Divider above I/O -->
  <line
     x1="10"
     y1="282"
     x2="110"
     y2="282"
     stroke="#444"
     stroke-width="0.5"
     id="line17" />
  <!-- Trigger input (port @ 25,300) -->
  <path
     d="m 17.987061,291 v -4.73511 h -1.768799 v -0.63354 h 4.255371 v 0.63354 H 18.69751 V 291 Z m 3.226318,0 v -5.36865 h 2.380371 q 0.717773,0 1.091309,0.14648 0.373535,0.14282 0.596923,0.50904 0.223389,0.36621 0.223389,0.80932 0,0.57129 -0.369873,0.96314 -0.369873,0.39184 -1.142578,0.49804 0.281982,0.1355 0.428467,0.26734 0.311279,0.28564 0.589599,0.71411 L 25.944824,291 H 25.05127 l -0.71045,-1.11694 q -0.311279,-0.4834 -0.512695,-0.73975 -0.201416,-0.25635 -0.362549,-0.35889 -0.157471,-0.10254 -0.322265,-0.14282 -0.12085,-0.0256 -0.395508,-0.0256 H 21.923828 V 291 Z m 0.710449,-2.99927 h 1.5271 q 0.48706,0 0.761718,-0.0989 0.274659,-0.10254 0.417481,-0.32227 0.142822,-0.22339 0.142822,-0.4834 0,-0.38086 -0.27832,-0.62622 -0.274658,-0.24536 -0.871582,-0.24536 H 21.923828 Z M 26.739502,291 v -5.36865 h 0.710449 V 291 Z m 4.475098,-2.10571 v -0.62989 l 2.27417,-0.004 v 1.99219 q -0.523682,0.41748 -1.080323,0.62988 -0.55664,0.20874 -1.142578,0.20874 -0.791015,0 -1.439209,-0.33691 -0.644531,-0.34058 -0.974121,-0.98145 -0.32959,-0.64087 -0.32959,-1.43188 0,-0.78369 0.325928,-1.46118 0.32959,-0.68116 0.944824,-1.01075 0.615235,-0.32959 1.417236,-0.32959 0.582276,0 1.051026,0.19043 0.472412,0.18677 0.739746,0.52369 0.267334,0.33691 0.406494,0.8789 l -0.640869,0.17578 q -0.12085,-0.41015 -0.300293,-0.64453 -0.179443,-0.23437 -0.512695,-0.37353 -0.333252,-0.14282 -0.739746,-0.14282 -0.487061,0 -0.842286,0.15014 -0.355224,0.14649 -0.574951,0.38819 -0.216064,0.24169 -0.336914,0.531 -0.205078,0.49805 -0.205078,1.08032 0,0.71778 0.245361,1.20118 0.249024,0.48339 0.721436,0.71777 0.472412,0.23437 1.003418,0.23437 0.461426,0 0.900879,-0.17578 0.439453,-0.17944 0.666504,-0.38086 v -0.99975 z"
     id="text18"
     class="io"
     style="font-size:7.5px;font-family:Arial, sans-serif;text-anchor:middle;fill:#ff7e79;fill-opacity:1"
     aria-label="TRIG" />
  <!-- Audio output (port @ 95,300) -->
  <path
     d="m 87.446899,288.38525 q 0,-1.33667 0.717774,-2.09106 0.717773,-0.75806 1.853027,-0.75806 0.743408,0 1.340332,0.35523 0.596924,0.35522 0.908203,0.99243 0.314942,0.63354 0.314942,1.43921 0,0.81665 -0.32959,1.46118 -0.32959,0.64453 -0.933838,0.97778 -0.604248,0.32959 -1.303711,0.32959 -0.758057,0 -1.35498,-0.36621 -0.596924,-0.36621 -0.904541,-0.99975 -0.307618,-0.63355 -0.307618,-1.34034 z m 0.732422,0.011 q 0,0.97046 0.52002,1.53076 0.523681,0.55664 1.311035,0.55664 0.802002,0 1.318359,-0.56396 0.52002,-0.56397 0.52002,-1.60034 0,-0.65552 -0.223389,-1.14258 -0.219726,-0.49072 -0.648193,-0.75806 -0.424805,-0.27099 -0.955811,-0.27099 -0.754394,0 -1.300049,0.52001 -0.541992,0.51636 -0.541992,1.72852 z m 8.840332,-2.76489 h 0.71045 v 3.1018 q 0,0.80933 -0.183106,1.2854 -0.183105,0.47608 -0.662842,0.77637 -0.476074,0.29663 -1.252441,0.29663 -0.754395,0 -1.234131,-0.26001 -0.479736,-0.26001 -0.684814,-0.75073 -0.205079,-0.49438 -0.205079,-1.34766 v -3.1018 h 0.71045 v 3.09814 q 0,0.69947 0.128173,1.03272 0.131836,0.32959 0.446778,0.50903 0.318603,0.17944 0.776367,0.17944 0.783691,0 1.116943,-0.35522 0.333252,-0.35523 0.333252,-1.36597 z M 100.27893,291 v -4.73511 h -1.768798 v -0.63354 h 4.255368 v 0.63354 h -1.77612 V 291 Z"
     id="text19"
     class="io"
     style="font-size:7.5px;font-family:Arial, sans-serif;text-anchor:middle;fill:#ff7e79;fill-opacity:1"
     aria-label="OUT" />
</svg>
