<?xml version="1.0" encoding="UTF-8" standalone="no"?>
<svg
   width="60"
   height="380"
   viewBox="0 0 60 380"
   version="1.1"
   id="svg1"
   sodipodi:docname="Wuggle.svg"
   inkscape:version="1.3.2 (091e20e, 2023-11-25)"
   xmlns:inkscape="http://www.inkscape.org/namespaces/inkscape"
   xmlns:sodipodi="http://sodipodi.sourceforge.net/DTD/sodipodi-0.dtd"
   xmlns="http://www.w3.org/2000/svg"
   xmlns:svg="http://www.w3.org/2000/svg">
  <sodipodi:namedview
     id="namedview10"
     pagecolor="#ffffff"
     bordercolor="#000000"
     borderopacity="0.25"
     inkscape:showpageshadow="2"
     inkscape:pageopacity="0.0"
     inkscape:pagecheckerboard="0"
     inkscape:deskcolor="#d1d1d1"
     inkscape:zoom="2.7394737"
     inkscape:cx="30.115274"
     inkscape:cy="190"
     inkscape:window-width="1392"
     inkscape:window-height="1212"
     inkscape:window-x="1167"
     inkscape:window-y="351"
     inkscape:window-maximized="0"
     inkscape:current-layer="svg1" />
  <defs
     id="defs1">
    <style
       id="style1">
      .panel { fill: #404040; }
      .accent { fill: #292929; }
      .title { font-family: Arial, sans-serif; font-size: 13px; font-weight: bold; fill: #ff8f86; text-anchor: middle; letter-spacing: 0.7px; }
      .tiny { font-family: Arial, sans-serif; font-size: 6.1px; fill: #d8d8d8; text-anchor: middle; letter-spacing: 0.3px; }
      .subtle { font-family: Arial, sans-serif; font-size: 5.4px; fill: #a6a6a6; text-anchor: middle; }
      .line { stroke: #5c5c5c; stroke-width: 0.9; }
      .ghost { fill: #4a4a4a; }
    </style>
  </defs>
  <path
     id="rect3"
     class="accent"
     style="fill:#292929"
     d="m 0,378 h 60 v 2 H 0 Z" />
  <path
     id="rect1"
     style="fill:#434343;stroke-width:0.707107"
     class="panel"
     d="M 0,0 H 60 V 380 H 0 Z" />
  <path
     d="M 6.1119093,22 4.2889868,14.364559 h 1.57813 l 1.1510453,5.244808 1.3958378,-5.244808 h 1.8333391 l 1.338546,5.33335 1.171879,-5.33335 h 1.552088 L 12.455679,22 H 10.820257 L 9.2994193,16.291649 7.7837895,22 Z m 9.6739867,-7.635441 h 1.541672 v 4.13543 q 0,0.984378 0.05729,1.276046 0.09896,0.468751 0.468752,0.75521 0.375001,0.281251 1.020836,0.281251 0.656253,0 0.989587,-0.265626 0.333334,-0.270834 0.401043,-0.66146 0.06771,-0.390626 0.06771,-1.296879 v -4.223972 h 1.541672 v 4.01043 q 0,1.375004 -0.125,1.942714 -0.125001,0.56771 -0.463544,0.958336 -0.333334,0.390627 -0.895836,0.625002 -0.562502,0.229168 -1.468754,0.229168 -1.093754,0 -1.661464,-0.250001 -0.562502,-0.255209 -0.890628,-0.656252 -0.328126,-0.406251 -0.432293,-0.848961 -0.151042,-0.656252 -0.151042,-1.937506 z m 11.96566,4.82814 v -1.286462 h 3.322927 v 3.041676 q -0.484376,0.468752 -1.406254,0.828128 -0.91667,0.354168 -1.859381,0.354168 -1.197921,0 -2.088548,-0.500002 -0.890628,-0.50521 -1.338546,-1.437504 -0.447918,-0.937503 -0.447918,-2.036465 0,-1.192712 0.500001,-2.119799 0.500002,-0.927086 1.463546,-1.421879 0.734378,-0.38021 1.828131,-0.38021 1.42188,0 2.218757,0.598961 0.802086,0.593752 1.031253,1.645838 l -1.531254,0.286459 q -0.161459,-0.562501 -0.609377,-0.885419 -0.44271,-0.328126 -1.109379,-0.328126 -1.01042,0 -1.60938,0.640627 -0.593752,0.640627 -0.593752,1.901048 0,1.359379 0.604169,2.041673 0.604168,0.677085 1.583338,0.677085 0.484377,0 0.968753,-0.1875 0.489585,-0.192709 0.838545,-0.463543 v -0.968754 z m 8.996902,0 v -1.286462 h 3.322928 v 3.041676 q -0.484377,0.468752 -1.406255,0.828128 -0.916669,0.354168 -1.859381,0.354168 -1.19792,0 -2.088548,-0.500002 -0.890628,-0.50521 -1.338546,-1.437504 -0.447918,-0.937503 -0.447918,-2.036465 0,-1.192712 0.500002,-2.119799 0.500001,-0.927086 1.463546,-1.421879 0.734377,-0.38021 1.828131,-0.38021 1.421879,0 2.218757,0.598961 0.802086,0.593752 1.031253,1.645838 l -1.531255,0.286459 q -0.161459,-0.562501 -0.609377,-0.885419 -0.44271,-0.328126 -1.109378,-0.328126 -1.01042,0 -1.60938,0.640627 -0.593752,0.640627 -0.593752,1.901048 0,1.359379 0.604168,2.041673 0.604169,0.677085 1.583339,0.677085 0.484376,0 0.968753,-0.1875 0.489585,-0.192709 0.838544,-0.463543 V 19.192699 Z M 42.234931,22 v -7.572941 h 1.541672 v 6.286479 h 3.833345 V 22 Z m 7.173978,0 v -7.635441 h 5.661476 v 1.291671 h -4.119804 v 1.692714 h 3.833345 v 1.286462 h -3.833345 v 2.078132 h 4.265638 V 22 Z"
     id="text3"
     style="font-weight:bold;font-size:10.6667px;font-family:Arial, sans-serif;letter-spacing:0.7px;text-anchor:middle;fill:#ff8f86"
     class="title"
     aria-label="WUGGLE" />
  <g
     id="text4"
     class="subtle"
     style="font-size:5.4px;font-family:Arial, sans-serif;text-anchor:middle;fill:#a6a6a6"
     aria-label="CLOCK-SHAPING&#10;NOISE">
    <path
       d="m 10.820507,32.644727 0.511524,0.129199 q -0.16084,0.630176 -0.580078,0.962402 -0.416602,0.32959 -1.0204104,0.32959 -0.6249023,0 -1.0177734,-0.253125 -0.3902344,-0.255762 -0.5958985,-0.738281 -0.2030273,-0.48252 -0.2030273,-1.036231 0,-0.603808 0.2293945,-1.052051 0.2320312,-0.450878 0.656543,-0.68291 0.4271484,-0.234668 0.9386719,-0.234668 0.5800782,0 0.9755862,0.295313 0.395508,0.295312 0.551074,0.830566 L 10.7625,31.313184 q -0.134473,-0.421875 -0.390235,-0.614356 -0.255761,-0.19248 -0.6433591,-0.19248 -0.4456055,0 -0.7461914,0.213574 -0.2979493,0.213574 -0.4192383,0.574805 -0.1212891,0.358593 -0.1212891,0.740917 0,0.493067 0.1423828,0.862208 0.1450196,0.366503 0.4482422,0.548437 0.3032227,0.181934 0.656543,0.181934 0.4297849,0 0.7277339,-0.247852 0.29795,-0.247851 0.403418,-0.735644 z M 11.941113,34 v -3.86543 h 0.511523 v 3.409278 h 1.903711 V 34 Z m 2.86875,-1.882617 q 0,-0.962403 0.516797,-1.505567 0.516797,-0.5458 1.33418,-0.5458 0.535253,0 0.965039,0.255761 0.429785,0.255762 0.653906,0.714551 0.226758,0.456152 0.226758,1.036231 0,0.587988 -0.237305,1.05205 -0.237305,0.464063 -0.672363,0.704004 -0.435059,0.237305 -0.938672,0.237305 -0.545801,0 -0.975586,-0.263672 -0.429785,-0.263672 -0.65127,-0.719824 -0.221484,-0.456152 -0.221484,-0.965039 z m 0.527344,0.0079 q 0,0.69873 0.374414,1.102148 0.377051,0.400782 0.943945,0.400782 0.577442,0 0.949219,-0.406055 0.374414,-0.406055 0.374414,-1.152246 0,-0.471973 -0.16084,-0.822656 -0.158203,-0.353321 -0.466699,-0.545801 -0.305859,-0.195117 -0.688184,-0.195117 -0.543164,0 -0.936035,0.374414 -0.390234,0.371777 -0.390234,1.244531 z m 6.586523,0.519434 0.511524,0.129199 q -0.16084,0.630176 -0.580078,0.962402 -0.416602,0.32959 -1.020411,0.32959 -0.624902,0 -1.017773,-0.253125 -0.390234,-0.255762 -0.595898,-0.738281 -0.203028,-0.48252 -0.203028,-1.036231 0,-0.603808 0.229395,-1.052051 0.232031,-0.450878 0.656543,-0.68291 0.427148,-0.234668 0.938672,-0.234668 0.580078,0 0.975586,0.295313 0.395507,0.295312 0.551074,0.830566 l -0.503613,0.118653 q -0.134473,-0.421875 -0.390235,-0.614356 -0.255762,-0.19248 -0.643359,-0.19248 -0.445606,0 -0.746192,0.213574 -0.297949,0.213574 -0.419238,0.574805 -0.121289,0.358593 -0.121289,0.740917 0,0.493067 0.142383,0.862208 0.145019,0.366503 0.448242,0.548437 0.303223,0.181934 0.656543,0.181934 0.429785,0 0.727734,-0.247852 0.29795,-0.247851 0.403418,-0.735644 z M 23.044336,34 v -3.86543 h 0.511523 v 1.916895 L 25.47539,30.13457 h 0.693457 L 24.547265,31.700781 26.240039,34 h -0.675 l -1.376367,-1.956445 -0.632813,0.616992 V 34 Z m 3.377636,-1.160156 v -0.477246 h 1.458105 v 0.477246 z m 1.869433,-0.08174 0.48252,-0.04219 q 0.03428,0.290039 0.158203,0.477246 0.126563,0.18457 0.390235,0.300586 0.263671,0.113379 0.593261,0.113379 0.292676,0 0.516797,-0.08701 0.224121,-0.08701 0.332227,-0.237305 0.110742,-0.152929 0.110742,-0.332226 0,-0.181934 -0.105469,-0.316406 -0.105469,-0.13711 -0.348047,-0.229395 -0.155566,-0.06064 -0.688183,-0.187207 -0.532618,-0.129199 -0.746192,-0.242578 -0.276855,-0.14502 -0.413965,-0.358594 -0.134472,-0.216211 -0.134472,-0.482519 0,-0.292676 0.166113,-0.545801 0.166113,-0.255762 0.485156,-0.387598 0.319043,-0.131836 0.709278,-0.131836 0.429785,0 0.756738,0.139746 0.32959,0.13711 0.50625,0.406055 0.17666,0.268945 0.189844,0.609082 l -0.49043,0.03691 q -0.03955,-0.366504 -0.268945,-0.553711 -0.226758,-0.187207 -0.672364,-0.187207 -0.464062,0 -0.677636,0.171387 -0.210938,0.16875 -0.210938,0.408691 0,0.208301 0.150293,0.342774 0.147656,0.134472 0.769922,0.276855 0.624902,0.139746 0.856934,0.245215 0.3375,0.155566 0.498339,0.395508 0.16084,0.237305 0.16084,0.548437 0,0.308497 -0.17666,0.582715 -0.17666,0.271582 -0.508887,0.424512 -0.329589,0.150293 -0.743554,0.150293 -0.524707,0 -0.880664,-0.15293 -0.353321,-0.152929 -0.556348,-0.458789 -0.200391,-0.308496 -0.210938,-0.696094 z M 32.083008,34 v -3.86543 h 0.511524 v 1.587305 h 2.009179 V 30.13457 h 0.511524 V 34 H 34.603711 V 32.178027 H 32.594532 V 34 Z m 3.459374,0 1.484473,-3.86543 h 0.551074 L 39.15996,34 H 38.577245 L 38.126366,32.829297 H 36.510058 L 36.085546,34 Z m 1.115332,-1.587305 h 1.310449 l -0.403418,-1.070508 q -0.18457,-0.487793 -0.274218,-0.801562 -0.07383,0.371777 -0.208301,0.738281 z M 39.568653,34 v -3.86543 h 1.458105 q 0.384961,0 0.587989,0.03691 0.284765,0.04746 0.477246,0.181934 0.19248,0.131836 0.308496,0.371777 0.118652,0.239942 0.118652,0.527344 0,0.493066 -0.313769,0.83584 -0.31377,0.340137 -1.13379,0.340137 H 40.080176 V 34 Z m 0.511523,-2.027637 h 0.999317 q 0.495703,0 0.704004,-0.18457 0.2083,-0.18457 0.2083,-0.519434 0,-0.242578 -0.123925,-0.413965 -0.12129,-0.174023 -0.32168,-0.229394 -0.129199,-0.03428 -0.477246,-0.03428 h -0.98877 z M 43.257421,34 v -3.86543 h 0.511524 V 34 Z m 1.408009,0 v -3.86543 h 0.524707 l 2.030274,3.034864 V 30.13457 H 47.71084 V 34 H 47.186133 L 45.15586,30.9625 V 34 Z m 5.71377,-1.516113 v -0.453516 l 1.637403,-0.0026 v 1.434375 q -0.377051,0.300586 -0.777832,0.453516 -0.400782,0.150293 -0.822657,0.150293 -0.569531,0 -1.03623,-0.242578 -0.464063,-0.245215 -0.701367,-0.706641 -0.237305,-0.461426 -0.237305,-1.030957 0,-0.564258 0.234668,-1.052051 0.237305,-0.490429 0.680273,-0.727734 0.442969,-0.237305 1.020411,-0.237305 0.419238,0 0.756738,0.13711 0.340137,0.134472 0.532617,0.37705 0.192481,0.242579 0.292676,0.632813 l -0.461426,0.126562 q -0.08701,-0.295312 -0.216211,-0.464062 -0.129199,-0.16875 -0.36914,-0.268945 -0.239942,-0.102832 -0.532618,-0.102832 -0.350683,0 -0.606445,0.108105 -0.255762,0.105469 -0.413965,0.279492 -0.155566,0.174024 -0.242578,0.382324 -0.147656,0.358594 -0.147656,0.777833 0,0.516796 0.17666,0.864843 0.179297,0.348047 0.519434,0.516797 0.340136,0.16875 0.722461,0.16875 0.332226,0 0.648632,-0.126562 0.316407,-0.1292 0.479883,-0.274219 v -0.719824 z"
       id="path11" />
    <path
       d="m 22.009424,40.75 v -3.86543 h 0.524707 l 2.030273,3.034864 V 36.88457 h 0.49043 V 40.75 H 24.530127 L 22.499853,37.7125 V 40.75 Z m 3.749414,-1.882617 q 0,-0.962402 0.516797,-1.505567 0.516797,-0.5458 1.334179,-0.5458 0.535254,0 0.965039,0.255761 0.429786,0.255762 0.653907,0.714551 0.226758,0.456153 0.226758,1.036231 0,0.587988 -0.237305,1.05205 -0.237305,0.464063 -0.672363,0.704004 -0.435059,0.237305 -0.938672,0.237305 -0.545801,0 -0.975586,-0.263672 -0.429785,-0.263672 -0.65127,-0.719824 -0.221484,-0.456152 -0.221484,-0.965039 z m 0.527344,0.0079 q 0,0.698731 0.374414,1.102149 0.37705,0.400781 0.943945,0.400781 0.577441,0 0.949219,-0.406055 0.374414,-0.406055 0.374414,-1.152246 0,-0.471973 -0.16084,-0.822656 -0.158203,-0.353321 -0.466699,-0.545801 -0.30586,-0.195117 -0.688184,-0.195117 -0.543164,0 -0.936035,0.374414 -0.390234,0.371777 -0.390234,1.244531 z M 30.201709,40.75 v -3.86543 h 0.511524 V 40.75 Z m 1.239258,-1.241894 0.482519,-0.04219 q 0.03428,0.290039 0.158204,0.477246 0.126562,0.18457 0.390234,0.300586 0.263672,0.113379 0.593262,0.113379 0.292675,0 0.516797,-0.08701 0.224121,-0.08701 0.332226,-0.237304 0.110742,-0.15293 0.110742,-0.332227 0,-0.181934 -0.105468,-0.316406 -0.105469,-0.13711 -0.348047,-0.229395 -0.155567,-0.06064 -0.688184,-0.187207 -0.532617,-0.129199 -0.746191,-0.242578 -0.276856,-0.145019 -0.413965,-0.358594 -0.134473,-0.216211 -0.134473,-0.482519 0,-0.292676 0.166113,-0.545801 0.166114,-0.255762 0.485157,-0.387598 0.319043,-0.131836 0.709277,-0.131836 0.429785,0 0.756738,0.139746 0.32959,0.13711 0.50625,0.406055 0.17666,0.268946 0.189844,0.609082 l -0.49043,0.03691 q -0.03955,-0.366504 -0.268945,-0.553711 -0.226758,-0.187207 -0.672363,-0.187207 -0.464063,0 -0.677637,0.171387 -0.210937,0.16875 -0.210937,0.408691 0,0.208301 0.150292,0.342774 0.147657,0.134473 0.769922,0.276855 0.624903,0.139746 0.856934,0.245215 0.3375,0.155567 0.49834,0.395508 0.16084,0.237305 0.16084,0.548438 0,0.308496 -0.17666,0.582714 -0.176661,0.271582 -0.508887,0.424512 -0.32959,0.150293 -0.743555,0.150293 -0.524707,0 -0.880664,-0.15293 -0.35332,-0.152929 -0.556348,-0.458789 -0.20039,-0.308496 -0.210937,-0.696093 z M 35.227295,40.75 v -3.86543 h 2.794922 v 0.456153 h -2.283398 v 1.183886 h 2.138379 v 0.453516 h -2.138379 v 1.315723 h 2.373047 V 40.75 Z"
       id="path12" />
  </g>
  <path
     id="rect5"
     class="ghost"
     style="fill:#4a4a4a"
     d="m 19.5,60 h 21 c 0.831,0 1.5,0.669 1.5,1.5 0,0.831 -0.669,1.5 -1.5,1.5 h -21 C 18.669,63 18,62.331 18,61.5 18,60.669 18.669,60 19.5,60 Z" />
  <path
     d="m 16.025391,64 1.676904,-4.366504 h 0.62251 L 20.111914,64 h -0.658252 l -0.509326,-1.322461 h -1.82583 L 16.638965,64 Z m 1.259912,-1.793066 h 1.480322 l -0.455713,-1.209278 q -0.208496,-0.551025 -0.309765,-0.905468 -0.0834,0.41997 -0.235303,0.833984 z M 20.855713,64 v -4.366504 h 0.869727 l 1.033545,3.091699 q 0.142968,0.431885 0.208496,0.646338 0.07446,-0.238281 0.232324,-0.699951 l 1.045459,-3.038086 h 0.777392 V 64 H 24.465674 V 60.345361 L 23.196826,64 h -0.52124 L 21.412695,60.282813 V 64 Z m 5.223486,-2.12666 q 0,-1.087158 0.583789,-1.700733 0.583789,-0.616552 1.507129,-0.616552 0.604639,0 1.090137,0.288916 0.485498,0.288916 0.738672,0.807177 0.256152,0.515284 0.256152,1.170557 0,0.664209 -0.268066,1.188428 -0.268067,0.524219 -0.759522,0.795263 -0.491455,0.268067 -1.060351,0.268067 -0.616553,0 -1.102051,-0.297852 Q 26.57959,63.47876 26.329395,62.963477 26.079199,62.448193 26.079199,61.87334 Z m 0.595704,0.0089 q 0,0.789307 0.422949,1.24502 0.425927,0.452734 1.066308,0.452734 0.652295,0 1.072266,-0.458691 0.422949,-0.458691 0.422949,-1.301611 0,-0.533155 -0.181689,-0.929297 -0.178711,-0.399121 -0.527198,-0.616553 -0.345507,-0.22041 -0.777392,-0.22041 -0.613574,0 -1.057373,0.422949 -0.44082,0.419971 -0.44082,1.405859 z m 7.490136,-2.248779 h 0.577832 v 2.522803 q 0,0.658252 -0.148926,1.045459 -0.148926,0.387207 -0.539111,0.631445 -0.387207,0.24126 -1.018653,0.24126 -0.613574,0 -1.003759,-0.211475 -0.390186,-0.211474 -0.556983,-0.610595 -0.166797,-0.4021 -0.166797,-1.096094 v -2.522803 h 0.577832 v 2.519824 q 0,0.568897 0.104248,0.839942 0.107227,0.268066 0.363379,0.414013 0.259131,0.145948 0.631446,0.145948 0.637402,0 0.908447,-0.288916 0.271045,-0.288916 0.271045,-1.110987 z M 35.998975,64 v -4.366504 h 0.592724 l 2.293457,3.428272 V 59.633496 H 39.43916 V 64 H 38.846436 L 36.552979,60.56875 V 64 Z m 5.822166,0 v -3.851221 h -1.438623 v -0.515283 h 3.461035 v 0.515283 h -1.44458 V 64 Z"
     id="text5"
     class="tiny"
     style="font-size:6.1px;font-family:Arial, sans-serif;letter-spacing:0.3px;text-anchor:middle;fill:#ff7e79;fill-opacity:1"
     aria-label="AMOUNT" />
  <path
     d="m 23.556812,303.87334 q 0,-1.08716 0.583789,-1.70073 0.583789,-0.61656 1.507129,-0.61656 0.604638,0 1.090136,0.28892 0.485498,0.28892 0.738672,0.80718 0.256152,0.51528 0.256152,1.17056 0,0.6642 -0.268066,1.18842 -0.268066,0.52422 -0.759521,0.79527 -0.491455,0.26806 -1.060352,0.26806 -0.616553,0 -1.102051,-0.29785 -0.485498,-0.29785 -0.735693,-0.81313 -0.250195,-0.51529 -0.250195,-1.09014 z m 0.595703,0.009 q 0,0.7893 0.422949,1.24501 0.425928,0.45274 1.066309,0.45274 0.652294,0 1.072265,-0.45869 0.422949,-0.45869 0.422949,-1.30161 0,-0.53316 -0.181689,-0.9293 -0.178711,-0.39912 -0.527197,-0.61655 -0.345508,-0.22041 -0.777393,-0.22041 -0.613574,0 -1.057373,0.42295 -0.44082,0.41997 -0.44082,1.40586 z m 7.490136,-2.24878 h 0.577833 v 2.5228 q 0,0.65825 -0.148926,1.04546 -0.148926,0.3872 -0.539112,0.63144 -0.387207,0.24126 -1.018652,0.24126 -0.613574,0 -1.00376,-0.21147 -0.390185,-0.21148 -0.556982,-0.6106 -0.166797,-0.4021 -0.166797,-1.09609 v -2.5228 h 0.577832 v 2.51982 q 0,0.5689 0.104248,0.83994 0.107227,0.26807 0.363379,0.41402 0.259131,0.14594 0.631445,0.14594 0.637403,0 0.908448,-0.28891 0.271044,-0.28892 0.271044,-1.11099 z M 34.59353,306 v -3.85122 h -1.438623 v -0.51528 h 3.461035 v 0.51528 h -1.44458 V 306 Z"
     id="text7"
     class="tiny"
     style="font-size:6.1px;font-family:Arial, sans-serif;letter-spacing:0.3px;text-anchor:middle;fill:#ff7e79;fill-opacity:1"
     aria-label="OUT" />
  <path
     id="circle7"
     style="fill:#747474"
     d="M 31.2,92 A 1.2,1.2 0 0 1 30,93.2 1.2,1.2 0 0 1 28.8,92 1.2,1.2 0 0 1 30,90.8 1.2,1.2 0 0 1 31.2,92 Z" />
  <path
     id="circle8"
     style="fill:#747474"
     d="M 31.2,246 A 1.2,1.2 0 0 1 30,247.2 1.2,1.2 0 0 1 28.8,246 1.2,1.2 0 0 1 30,244.8 1.2,1.2 0 0 1 31.2,246 Z" />
  <path
     id="circle9"
     style="fill:#747474"
     d="M 31.2,324 A 1.2,1.2 0 0 1 30,325.2 1.2,1.2 0 0 1 28.8,324 1.2,1.2 0 0 1 30,322.8 1.2,1.2 0 0 1 31.2,324 Z" />
  <path
     id="circle10"
     style="fill:#7a7a7a"
     d="M 31.1,156 A 1.1,1.1 0 0 1 30,157.1 1.1,1.1 0 0 1 28.9,156 1.1,1.1 0 0 1 30,154.9 1.1,1.1 0 0 1 31.1,156 Z" />
  <path
     d="m 19.108075,221.60893 h -1.731771 v 4.2741 h -0.644532 v -4.2741 H 15 v -0.57291 h 4.108075 z m 4.661461,4.2741 h -0.836589 l -1.621095,-1.92709 h -0.908203 v 1.92709 h -0.644532 v -4.84701 h 1.357423 q 0.439453,0 0.732422,0.0586 0.292969,0.0553 0.527344,0.20182 0.263672,0.16602 0.410156,0.41993 0.14974,0.25065 0.14974,0.63802 0,0.52409 -0.263672,0.8789 -0.263672,0.35157 -0.725912,0.5306 z m -1.507163,-3.48308 q 0,-0.20833 -0.07487,-0.36784 -0.07162,-0.16276 -0.240886,-0.27344 -0.139974,-0.0944 -0.332031,-0.1302 -0.192058,-0.0391 -0.452475,-0.0391 h -0.758463 v 1.82943 h 0.651042 q 0.305989,0 0.533854,-0.0521 0.227865,-0.0553 0.38737,-0.20182 0.146484,-0.13672 0.214844,-0.31251 0.07161,-0.17903 0.07161,-0.45247 z m 3.841149,3.48308 h -1.914064 v -0.4948 h 0.634766 v -3.85742 h -0.634766 v -0.49479 h 1.914064 v 0.49479 h -0.634766 v 3.85742 h 0.634766 z m 5.139975,-0.35808 q -0.397135,0.18229 -0.869141,0.31901 -0.46875,0.13347 -0.908203,0.13347 -0.566407,0 -1.038412,-0.15625 -0.472006,-0.15625 -0.804037,-0.46875 -0.335287,-0.31576 -0.517579,-0.78776 -0.182291,-0.47527 -0.182291,-1.11003 0,-1.16211 0.677083,-1.83268 0.680339,-0.67383 1.865236,-0.67383 0.413411,0 0.843099,0.10091 0.432943,0.0976 0.93099,0.33529 v 0.76497 h -0.05859 q -0.100911,-0.0781 -0.292969,-0.20508 -0.192057,-0.12695 -0.377604,-0.21159 -0.224609,-0.10091 -0.511068,-0.16601 -0.283203,-0.0684 -0.644531,-0.0684 -0.813803,0 -1.289064,0.52409 -0.472005,0.52083 -0.472005,1.41276 0,0.94075 0.494792,1.46484 0.494792,0.52084 1.347657,0.52084 0.3125,0 0.621745,-0.0618 0.3125,-0.0619 0.546875,-0.15951 v -1.18815 h -1.298833 v -0.56641 h 1.93685 z m 5.169274,0 q -0.397136,0.18229 -0.869141,0.31901 -0.468751,0.13347 -0.908204,0.13347 -0.566406,0 -1.038412,-0.15625 -0.472005,-0.15625 -0.804037,-0.46875 -0.335286,-0.31576 -0.517578,-0.78776 -0.182292,-0.47527 -0.182292,-1.11003 0,-1.16211 0.677084,-1.83268 0.680339,-0.67383 1.865235,-0.67383 0.413412,0 0.843099,0.10091 0.432943,0.0976 0.93099,0.33529 v 0.76497 h -0.05859 q -0.100912,-0.0781 -0.292969,-0.20508 -0.192058,-0.12695 -0.377605,-0.21159 -0.224609,-0.10091 -0.511068,-0.16601 -0.283203,-0.0684 -0.644531,-0.0684 -0.813803,0 -1.289063,0.52409 -0.472006,0.52083 -0.472006,1.41276 0,0.94075 0.494792,1.46484 0.494792,0.52084 1.347657,0.52084 0.3125,0 0.621745,-0.0618 0.3125,-0.0619 0.546875,-0.15951 v -1.18815 h -1.298828 v -0.56641 h 1.93685 z m 4.319663,0.35808 h -3.193361 v -4.84701 h 3.193361 v 0.57291 h -2.548829 v 1.32813 h 2.548829 v 0.57292 h -2.548829 v 1.80013 h 2.548829 z m 5.032556,0 h -0.836589 l -1.621095,-1.92709 h -0.908203 v 1.92709 h -0.644532 v -4.84701 h 1.357423 q 0.439453,0 0.732422,0.0586 0.292969,0.0553 0.527344,0.20182 0.263672,0.16602 0.410156,0.41993 0.14974,0.25065 0.14974,0.63802 0,0.52409 -0.263672,0.8789 -0.263672,0.35157 -0.725912,0.5306 z m -1.507162,-3.48308 q 0,-0.20833 -0.07487,-0.36784 -0.07162,-0.16276 -0.240886,-0.27344 -0.139974,-0.0944 -0.332031,-0.1302 -0.192057,-0.0391 -0.452474,-0.0391 h -0.758464 v 1.82943 h 0.651042 q 0.30599,0 0.533854,-0.0521 0.227865,-0.0553 0.38737,-0.20182 0.146485,-0.13672 0.214844,-0.31251 0.07161,-0.17903 0.07161,-0.45247 z"
     id="text1"
     style="font-size:6.66667px;-inkscape-font-specification:sans-serif;text-align:center;text-anchor:middle;fill:#ff7e79;stroke-width:2"
     aria-label="TRIGGER" />
  <g
     transform="matrix(1.6722989,0,0,1.6988345,-25.620611,-82.057199)"
     id="layer1-7"
     inkscape:label="Layer 1">
    <rect
       y="256.12662"
       x="29.52006"
       height="1.6536458"
       width="7.2760415"
       id="rect823"
       style="fill:#ffffff;fill-opacity:1;stroke:none;stroke-width:0.710598;stroke-miterlimit:4;stroke-dasharray:none;stroke-opacity:1" />
    <rect
       y="256.57309"
       x="28.643627"
       height="0.51248246"
       width="9.0803432"
       id="rect821"
       style="fill:#ffffff;fill-opacity:1;stroke:none;stroke-width:0.176948;stroke-miterlimit:4;stroke-dasharray:none;stroke-opacity:1" />
    <ellipse
       ry="5.8699069"
       rx="6.1973119"
       cy="250.78661"
       cx="33.068214"
       id="path817"
       style="fill:#ffffff;fill-opacity:1;stroke:none;stroke-width:0.294763;stroke-miterlimit:4;stroke-dasharray:none;stroke-opacity:1" />
    <rect
       y="257.08557"
       x="28.265131"
       height="4.3030396"
       width="9.541522"
       id="rect819"
       style="fill:#ffffff;fill-opacity:1;stroke:none;stroke-width:0.236954;stroke-miterlimit:4;stroke-dasharray:none;stroke-opacity:1" />
    <path
       style="fill:#54b6fc;stroke-width:0.434238"
       d="m 28.040353,261.67777 c -0.05624,-0.1049 -0.09132,-1.05343 -0.09132,-2.46939 0,-2.62823 -0.06483,-2.41007 0.868669,-2.92327 0.298327,-0.16393 0.542417,-0.32331 0.542417,-0.35402 0,-0.0309 -0.162318,-0.16826 -0.360716,-0.30583 -1.028016,-0.71241 -2.013971,-2.17766 -2.338877,-3.47584 -0.201325,-0.80442 -0.134174,-2.39054 0.13451,-3.17721 1.033244,-3.02511 4.386038,-4.85502 7.661927,-4.18175 2.136444,0.4391 3.832748,1.7715 4.690824,3.6846 0.361925,0.8069 0.484002,1.41362 0.481552,2.39329 -0.0043,1.76252 -0.804317,3.40089 -2.221636,4.55038 -0.254647,0.20641 -0.463011,0.4065 -0.463011,0.44439 0,0.038 0.188503,0.17638 0.418915,0.30774 0.88078,0.5022 0.815782,0.26078 0.815782,3.02947 0,1.77735 -0.02862,2.465 -0.105831,2.54221 -0.07977,0.0796 -1.316324,0.10568 -5.023888,0.10568 -4.772077,0 -4.920765,-0.006 -5.009351,-0.17069 z m 4.778272,-1.34136 c 0.02029,-0.72066 0.0537,-0.91258 0.172084,-0.98706 0.106484,-0.067 0.185415,-0.0605 0.286623,0.0243 0.110188,0.0915 0.139673,0.2998 0.139673,0.98705 v 0.87111 h 2.031202 c 1.725502,0 2.038854,-0.0189 2.082046,-0.13248 0.118689,-0.30933 -0.0843,-0.54865 -1.048716,-1.23644 -0.806681,-0.57531 -0.992,-0.74828 -0.992,-0.92603 0,-0.17285 0.05069,-0.22425 0.242529,-0.24644 l 0.242526,-0.0279 v -0.72694 c 0,-0.82266 0.11329,-1.0851 0.425635,-0.98597 0.182308,0.0579 0.191777,0.11143 0.193075,1.09112 6.9e-4,0.56673 0.03051,1.07216 0.06615,1.12322 0.107317,0.15365 0.691445,0.5686 0.80071,0.5686 0.07253,0 0.101903,-0.37768 0.101903,-1.30922 0,-1.48548 0.04525,-1.38286 -0.823095,-1.86798 l -0.514419,-0.28745 -0.896236,0.29918 c -0.869904,0.29041 -0.937695,0.2992 -2.307746,0.29891 -1.355532,-2.1e-4 -1.441911,-0.0113 -2.177833,-0.27426 l -0.766317,-0.27401 -0.710913,0.40097 -0.710915,0.40096 v 1.35053 c 0,0.7428 0.02272,1.35058 0.05046,1.35058 0.02775,0 0.226187,-0.10309 0.440962,-0.22887 l 0.390524,-0.22887 0.0014,-0.89557 c 0.0016,-1.14751 0.206306,-1.60144 0.561721,-1.24599 0.108544,0.1085 0.142513,0.31853 0.142513,0.88028 v 0.7378 l 0.290718,-0.0471 c 0.315025,-0.0511 0.543194,0.11558 0.458905,0.33517 -0.02597,0.0676 -0.562393,0.43193 -1.192126,0.80964 -1.113533,0.66789 -1.144968,0.69508 -1.144968,0.9907 v 0.30396 h 2.069441 2.069444 z m 2.265337,-4.35748 c 1.820054,-0.60937 3.301106,-2.14018 3.754405,-3.88051 0.141672,-0.5439 0.182494,-2.03256 0.06101,-2.22398 -0.0547,-0.0862 -0.514454,-0.10647 -1.993182,-0.0881 l -1.922097,0.0243 -0.285943,0.79373 c -0.250451,0.69526 -0.311823,0.79372 -0.494567,0.79372 -0.193669,0 -0.219614,-0.0593 -0.361764,-0.82692 -0.233437,-1.26061 -0.264438,-1.24093 -0.550459,0.34982 -0.250913,1.39568 -0.282965,1.49134 -0.499452,1.49134 -0.208819,0 -0.19843,0.0455 -0.591264,-2.59459 -0.179846,-1.20877 -0.366691,-2.21079 -0.415197,-2.22673 -0.04851,-0.0164 -0.346157,0.47702 -0.661443,1.09535 l -0.573255,1.12428 -1.649981,0.0244 -1.649981,0.0243 -0.05961,0.3176 c -0.100912,0.53789 0.02055,1.63287 0.25608,2.31038 0.480987,1.38307 1.462121,2.47313 2.838905,3.15409 1.070426,0.52942 1.68831,0.6568 2.998555,0.61816 0.870867,-0.027 1.189545,-0.0752 1.799239,-0.27931 z m -2.582339,-0.34598 c -0.501349,-0.14204 -0.612279,-0.23104 -0.568647,-0.45582 0.02803,-0.14447 0.130451,-0.16555 0.868148,-0.17909 0.460004,-0.008 0.975273,-0.0281 1.145044,-0.0441 0.276178,-0.0243 0.311494,-0.006 0.335474,0.20237 0.023,0.19722 -0.02543,0.25187 -0.329357,0.37355 -0.522805,0.20913 -0.965587,0.24078 -1.450662,0.1031 z m -1.6422,-2.07469 c -0.09701,-0.0972 -0.176384,-0.25567 -0.176384,-0.35282 0,-0.24453 0.308426,-0.52913 0.573253,-0.52913 0.264818,0 0.573252,0.28468 0.573252,0.52913 0,0.24455 -0.308429,0.52918 -0.573252,0.52918 -0.121275,0 -0.299857,-0.0793 -0.396869,-0.17636 z m 3.439517,-0.0882 c -0.232761,-0.23267 -0.222508,-0.40285 0.0401,-0.66546 0.243582,-0.24345 0.329798,-0.25996 0.605107,-0.11502 0.242042,0.12748 0.321863,0.24591 0.323575,0.48022 0.0031,0.43406 -0.63668,0.63239 -0.968767,0.30029 z m -1.151475,-4.27736 c 0.296559,-1.78581 0.575578,-1.83207 0.874871,-0.14501 0.09772,0.55084 0.197295,1.02113 0.221263,1.04511 0.08271,0.0828 0.212362,-0.0613 0.273139,-0.30344 0.117052,-0.46642 0.107419,-0.46436 2.176972,-0.46436 2.188984,0 2.146871,0.0162 1.845872,-0.66529 -0.655344,-1.4815 -2.160669,-2.71162 -3.887876,-3.17706 -0.773684,-0.20858 -2.314597,-0.21425 -3.086746,-0.0113 -1.862761,0.48917 -3.433992,1.84034 -4.06194,3.49292 l -0.172218,0.45328 1.47768,-0.0243 1.477684,-0.0244 0.705541,-1.38465 c 0.388047,-0.76156 0.755433,-1.43456 0.816413,-1.4955 0.244962,-0.24482 0.364055,0.12518 0.643002,1.99713 0.151683,1.01798 0.296644,1.88465 0.322123,1.92588 0.102882,0.16637 0.192723,-0.12627 0.374219,-1.21922 z"
       id="path4012-8"
       inkscape:connector-curvature="0" />
    <path
       style="fill:#a0a0a0;stroke-width:0.434238"
       d="m 28.040353,261.67777 c -0.05624,-0.1049 -0.09132,-1.05343 -0.09132,-2.46939 0,-2.62823 -0.06483,-2.41007 0.868669,-2.92327 0.298327,-0.16393 0.542417,-0.32331 0.542417,-0.35402 0,-0.0309 -0.162318,-0.16826 -0.360716,-0.30583 -1.028016,-0.71241 -2.013971,-2.17766 -2.338877,-3.47584 -0.201325,-0.80442 -0.134174,-2.39054 0.13451,-3.17721 1.033244,-3.02511 4.386038,-4.85502 7.661927,-4.18175 2.136444,0.4391 3.832748,1.7715 4.690824,3.6846 0.361925,0.8069 0.484002,1.41362 0.481552,2.39329 -0.0043,1.76252 -0.804317,3.40089 -2.221636,4.55038 -0.254647,0.20641 -0.463011,0.4065 -0.463011,0.44439 0,0.038 0.188503,0.17638 0.418915,0.30774 0.88078,0.5022 0.815782,0.26078 0.815782,3.02947 0,1.77735 -0.02862,2.465 -0.105831,2.54221 -0.07977,0.0796 -1.316324,0.10568 -5.023888,0.10568 -4.772077,0 -4.920765,-0.006 -5.009351,-0.17069 z m 4.778272,-1.34136 c 0.02029,-0.72066 0.0537,-0.91258 0.172084,-0.98706 0.106484,-0.067 0.185415,-0.0605 0.286623,0.0243 0.110188,0.0915 0.139673,0.2998 0.139673,0.98705 v 0.87111 h 2.031202 c 1.725502,0 2.038854,-0.0189 2.082046,-0.13248 0.118689,-0.30933 -0.0843,-0.54865 -1.048716,-1.23644 -0.806681,-0.57531 -0.992,-0.74828 -0.992,-0.92603 0,-0.17285 0.05069,-0.22425 0.242529,-0.24644 l 0.242526,-0.0279 v -0.72694 c 0,-0.82266 0.11329,-1.0851 0.425635,-0.98597 0.182308,0.0579 0.191777,0.11143 0.193075,1.09112 6.9e-4,0.56673 0.03051,1.07216 0.06615,1.12322 0.107317,0.15365 0.691445,0.5686 0.80071,0.5686 0.07253,0 0.101903,-0.37768 0.101903,-1.30922 0,-1.48548 0.04525,-1.38286 -0.823095,-1.86798 l -0.514419,-0.28745 -0.896236,0.29918 c -0.869904,0.29041 -0.937695,0.2992 -2.307746,0.29891 -1.355532,-2.1e-4 -1.441911,-0.0113 -2.177833,-0.27426 l -0.766317,-0.27401 -0.710913,0.40097 -0.710915,0.40096 v 1.35053 c 0,0.7428 0.02272,1.35058 0.05046,1.35058 0.02775,0 0.226187,-0.10309 0.440962,-0.22887 l 0.390524,-0.22887 0.0014,-0.89557 c 0.0016,-1.14751 0.206306,-1.60144 0.561721,-1.24599 0.108544,0.1085 0.142513,0.31853 0.142513,0.88028 v 0.7378 l 0.290718,-0.0471 c 0.315025,-0.0511 0.543194,0.11558 0.458905,0.33517 -0.02597,0.0676 -0.562393,0.43193 -1.192126,0.80964 -1.113533,0.66789 -1.144968,0.69508 -1.144968,0.9907 v 0.30396 h 2.069441 2.069444 z m 2.265337,-4.35748 c 1.403562,-0.46993 2.640938,-1.50058 3.294283,-2.74387 0.429067,-0.81653 0.595175,-1.49004 0.593708,-2.40729 -0.002,-1.2675 0.205601,-1.15 -2.032309,-1.15 -1.442955,0 -1.942613,0.0275 -1.996101,0.11041 -0.03924,0.0606 -0.191398,0.42737 -0.338104,0.81498 -0.382438,1.0104 -0.497129,0.9789 -0.708436,-0.1945 -0.249425,-1.38497 -0.369803,-1.31205 -0.674781,0.40874 -0.236279,1.33315 -0.338408,1.62908 -0.50309,1.45776 -0.04428,-0.0461 -0.22394,-1.07598 -0.399194,-2.28859 -0.378048,-2.61568 -0.375281,-2.60172 -0.515638,-2.60172 -0.06054,0 -0.377093,0.53579 -0.703448,1.19062 l -0.593372,1.1906 h -1.626578 -1.626579 l -0.06131,0.40891 c -0.234007,1.5605 0.483321,3.42764 1.761718,4.58559 0.632883,0.57328 1.868907,1.21483 2.698432,1.40062 0.933964,0.20911 2.512332,0.12546 3.430809,-0.18205 z m -2.582339,-0.34598 c -0.501349,-0.14204 -0.612279,-0.23104 -0.568647,-0.45582 0.02803,-0.14447 0.130451,-0.16555 0.868148,-0.17909 0.460004,-0.008 0.975273,-0.0281 1.145044,-0.0441 0.276178,-0.0243 0.311494,-0.006 0.335474,0.20237 0.023,0.19722 -0.02543,0.25187 -0.329357,0.37355 -0.522805,0.20913 -0.965587,0.24078 -1.450662,0.1031 z m -1.6422,-2.07469 c -0.09701,-0.0972 -0.176384,-0.25567 -0.176384,-0.35282 0,-0.24453 0.308426,-0.52913 0.573253,-0.52913 0.264818,0 0.573252,0.28468 0.573252,0.52913 0,0.24455 -0.308429,0.52918 -0.573252,0.52918 -0.121275,0 -0.299857,-0.0793 -0.396869,-0.17636 z m 3.439517,-0.0882 c -0.232761,-0.23267 -0.222508,-0.40285 0.0401,-0.66546 0.243582,-0.24345 0.329798,-0.25996 0.605107,-0.11502 0.242042,0.12748 0.321863,0.24591 0.323575,0.48022 0.0031,0.43406 -0.63668,0.63239 -0.968767,0.30029 z m -1.097809,-4.10189 c 0.211607,-1.21013 0.333943,-1.55258 0.494567,-1.38443 0.03281,0.0344 0.152225,0.57839 0.265306,1.20896 0.232869,1.29834 0.343523,1.42064 0.618496,0.68352 l 0.172705,-0.46302 h 1.972971 c 1.085132,0 1.99242,-0.0315 2.016195,-0.0698 0.08023,-0.12991 -0.357483,-1.05886 -0.773608,-1.642 -0.728041,-1.02028 -1.981677,-1.859 -3.316077,-2.21859 -0.773686,-0.20857 -2.314601,-0.21426 -3.086747,-0.0113 -1.084749,0.28486 -1.999152,0.80872 -2.786328,1.59624 -0.677355,0.67767 -1.19903,1.50881 -1.403089,2.23545 l -0.05574,0.19856 1.439077,-9.8e-4 c 0.791494,-6.2e-4 1.483847,-0.0306 1.538565,-0.0662 0.05473,-0.0355 0.422055,-0.70973 0.816304,-1.49793 0.672478,-1.34451 0.811339,-1.54707 0.929474,-1.35595 0.02624,0.0426 0.169945,0.92549 0.319337,1.9623 0.278277,1.93132 0.382411,2.3719 0.526552,2.22775 0.04457,-0.0447 0.184959,-0.67541 0.312001,-1.40192 z"
       id="path4010-0"
       inkscape:connector-curvature="0" />
    <path
       style="fill:#179cfd;stroke-width:0.434238"
       d="m 28.084301,261.62139 c -0.09334,-0.2432 -0.06068,-4.53422 0.03585,-4.71459 0.04932,-0.0922 0.366818,-0.32942 0.705541,-0.52725 0.338727,-0.19778 0.615865,-0.39635 0.615865,-0.44114 0,-0.0449 -0.225402,-0.25131 -0.5009,-0.45914 -1.007366,-0.75955 -1.863496,-2.05429 -2.182561,-3.30077 -0.176274,-0.68859 -0.179006,-2.04001 -0.0054,-2.72476 0.07324,-0.28909 0.298305,-0.86296 0.500144,-1.27526 0.293281,-0.59912 0.51896,-0.90166 1.123813,-1.50667 0.628099,-0.62825 0.899287,-0.82698 1.594434,-1.16847 1.206772,-0.59277 1.759323,-0.7188 3.130615,-0.71416 0.806735,0.002 1.311968,0.0495 1.704825,0.15746 3.200698,0.88036 5.194794,3.81447 4.65392,6.84772 -0.248316,1.39251 -1.241594,2.98286 -2.337264,3.74216 -0.198811,0.13767 -0.36148,0.28303 -0.36148,0.3228 0,0.0398 0.277437,0.23428 0.616524,0.43238 0.393273,0.22968 0.633784,0.4307 0.664178,0.55509 0.02625,0.10714 0.03649,1.24673 0.02299,2.53213 l -0.02488,2.33712 -4.951132,0.0216 c -4.457619,0.0215 -4.956494,0.008 -5.004941,-0.11734 z m 4.796794,-1.27231 c 0.04062,-0.85254 0.0581,-0.92604 0.220478,-0.92604 0.162399,0 0.179874,0.0735 0.22048,0.92604 l 0.0441,0.92602 h 2.11542 c 1.979416,0 2.117418,-0.0113 2.146485,-0.16124 0.07415,-0.38501 -0.08786,-0.58193 -1.039039,-1.26279 -0.5321,-0.38086 -0.988888,-0.74572 -1.015085,-0.81071 -0.07133,-0.17694 0.02596,-0.27867 0.266821,-0.27867 0.212067,0 0.215285,-0.0113 0.215285,-0.78294 0,-0.57789 0.03363,-0.81084 0.12842,-0.88952 0.247505,-0.20531 0.312538,-0.006 0.312538,0.96492 0,0.5267 0.02407,1.0201 0.05321,1.09639 0.07569,0.19722 0.895628,0.78122 1.003392,0.71461 0.137026,-0.0848 0.118488,-2.70962 -0.02028,-2.88339 -0.06062,-0.0761 -0.366131,-0.28527 -0.678882,-0.46529 -0.638192,-0.36731 -0.664782,-0.36715 -1.680277,0.0113 -0.620191,0.23022 -0.749452,0.24593 -2.072528,0.24835 -1.367516,0.002 -1.436372,-0.006 -2.229991,-0.28332 l -0.818897,-0.286 -0.707163,0.41086 c -0.388942,0.22589 -0.744718,0.48108 -0.790616,0.56686 -0.04592,0.0857 -0.08344,0.71537 -0.08344,1.39919 0,0.99797 0.02488,1.25279 0.126404,1.29174 0.157447,0.0603 0.905595,-0.36921 1.022127,-0.58694 0.04739,-0.0885 0.0862,-0.57804 0.0862,-1.08767 0,-0.95796 0.0901,-1.20675 0.322052,-0.88956 0.07719,0.10547 0.118894,0.4201 0.118894,0.89644 v 0.73386 l 0.360543,-0.0576 c 0.341277,-0.0546 0.358954,-0.0466 0.330725,0.14961 -0.02299,0.16068 -0.280994,0.35508 -1.148549,0.86561 -1.145685,0.67416 -1.30229,0.84178 -1.171412,1.25421 0.05178,0.16311 0.145382,0.16933 2.186334,0.14688 l 2.132238,-0.0243 z m 2.160723,-4.26226 c 1.769875,-0.57963 3.167996,-1.90262 3.76078,-3.55863 0.192048,-0.53652 0.328288,-2.18171 0.217288,-2.62393 l -0.05685,-0.22641 h -1.977453 c -1.485114,0 -1.995217,0.0273 -2.0488,0.11041 -0.03924,0.0605 -0.191399,0.42736 -0.338105,0.81497 -0.382437,1.0104 -0.497129,0.97892 -0.708437,-0.1945 -0.249424,-1.38497 -0.369803,-1.31205 -0.674782,0.40873 -0.236276,1.33315 -0.338406,1.62909 -0.503087,1.45777 -0.04428,-0.046 -0.223941,-1.07597 -0.399196,-2.28861 -0.378048,-2.61567 -0.375282,-2.6017 -0.515636,-2.6017 -0.06054,0 -0.377094,0.53578 -0.703448,1.19062 l -0.593373,1.19063 h -1.628884 c -1.902339,0 -1.81147,-0.0499 -1.81147,0.99426 0,0.80431 0.255081,1.83651 0.632916,2.56111 0.424332,0.81377 1.610253,1.95985 2.460638,2.37796 1.097382,0.53952 1.794389,0.68665 3.07994,0.64999 0.892825,-0.0244 1.23655,-0.0755 1.807954,-0.26241 z m -2.425303,-0.51429 c -0.478805,-0.10703 -0.703657,-0.2876 -0.549872,-0.44139 0.07642,-0.0766 0.231706,-0.0808 0.585546,-0.0162 0.356597,0.0647 0.599579,0.0571 0.936494,-0.0291 0.48231,-0.12329 0.615302,-0.0987 0.615302,0.11422 0,0.28859 -0.958357,0.51378 -1.58747,0.37302 z m -1.706091,-2.08738 c -0.189693,-0.20965 -0.184796,-0.3936 0.01543,-0.57471 0.232894,-0.21073 0.518062,-0.17963 0.684657,0.0743 0.133834,0.20423 0.133834,0.23669 0,0.44096 -0.171756,0.26213 -0.491832,0.2892 -0.699982,0.0593 z m 3.421615,-0.14148 c -0.271481,-0.41435 0.198702,-0.82027 0.625904,-0.54036 0.247452,0.16205 0.279238,0.41467 0.07757,0.61634 -0.207737,0.20776 -0.541169,0.17179 -0.703478,-0.0761 z m -1.137669,-3.97553 c 0.211606,-1.21013 0.333942,-1.55259 0.494569,-1.38441 0.03282,0.0344 0.152224,0.57837 0.265305,1.20895 0.23276,1.29772 0.34355,1.42057 0.617887,0.68512 l 0.172107,-0.46134 2.000835,-0.0243 c 2.352706,-0.0279 2.281076,0.0162 1.723959,-1.05794 -0.429635,-0.82824 -1.435244,-1.8525 -2.279603,-2.32184 -3.036046,-1.6875 -6.967182,-0.61741 -8.490501,2.31125 -0.205682,0.39548 -0.373989,0.82207 -0.373989,0.94808 v 0.22911 l 1.433135,-9.7e-4 c 0.788221,-6e-4 1.477901,-0.0306 1.53262,-0.0663 0.05473,-0.0355 0.422054,-0.7097 0.816303,-1.49792 0.672479,-1.34449 0.811342,-1.54706 0.929474,-1.35594 0.02625,0.0425 0.169945,0.9255 0.319337,1.96229 0.278278,1.93132 0.382411,2.37191 0.526555,2.22776 0.04455,-0.0447 0.184956,-0.67543 0.311999,-1.40192 z"
       id="path4008-4"
       inkscape:connector-curvature="0" />
    <path
       style="fill:#050505;fill-opacity:1;stroke-width:0.434238"
       d="m 28.084301,261.62139 c -0.09334,-0.2432 -0.06068,-4.53422 0.03585,-4.71459 0.04932,-0.0922 0.366818,-0.32942 0.705541,-0.52725 0.338727,-0.19778 0.615865,-0.39635 0.615865,-0.44114 0,-0.0449 -0.225402,-0.25131 -0.5009,-0.45914 -1.007366,-0.75955 -1.863496,-2.05429 -2.182561,-3.30077 -0.176274,-0.68859 -0.179006,-2.04001 -0.0054,-2.72476 0.07324,-0.28909 0.298305,-0.86296 0.500144,-1.27526 0.293281,-0.59912 0.51896,-0.90166 1.123813,-1.50667 0.628099,-0.62825 0.899287,-0.82698 1.594434,-1.16847 1.206772,-0.59277 1.759323,-0.7188 3.130615,-0.71416 0.806735,0.002 1.311968,0.0495 1.704825,0.15746 3.200698,0.88036 5.194794,3.81447 4.65392,6.84772 -0.248316,1.39251 -1.241594,2.98286 -2.337264,3.74216 -0.198811,0.13767 -0.36148,0.28303 -0.36148,0.3228 0,0.0398 0.277437,0.23428 0.616524,0.43238 0.393273,0.22968 0.633784,0.4307 0.664178,0.55509 0.02625,0.10714 0.03649,1.24673 0.02299,2.53213 l -0.02488,2.33712 -4.951132,0.0216 c -4.457619,0.0215 -4.956494,0.008 -5.004941,-0.11734 z m 4.796794,-1.27231 c 0.04062,-0.85254 0.0581,-0.92604 0.220478,-0.92604 0.162399,0 0.179874,0.0735 0.22048,0.92604 l 0.0441,0.92602 h 2.11542 c 1.979416,0 2.117418,-0.0113 2.146485,-0.16124 0.07415,-0.38501 -0.08786,-0.58193 -1.039039,-1.26279 -0.5321,-0.38086 -0.988888,-0.74572 -1.015085,-0.81071 -0.07133,-0.17694 0.02596,-0.27867 0.266821,-0.27867 0.212067,0 0.215285,-0.0113 0.215285,-0.78294 0,-0.57789 0.03363,-0.81084 0.12842,-0.88952 0.247505,-0.20531 0.312538,-0.006 0.312538,0.96492 0,0.5267 0.02407,1.0201 0.05321,1.09639 0.07569,0.19722 0.895628,0.78122 1.003392,0.71461 0.137026,-0.0848 0.118488,-2.70962 -0.02028,-2.88339 -0.06062,-0.0761 -0.366131,-0.28527 -0.678882,-0.46529 -0.638192,-0.36731 -0.664782,-0.36715 -1.680277,0.0113 -0.620191,0.23022 -0.749452,0.24593 -2.072528,0.24835 -1.367516,0.002 -1.436372,-0.006 -2.229991,-0.28332 l -0.818897,-0.286 -0.707163,0.41086 c -0.388942,0.22589 -0.744718,0.48108 -0.790616,0.56686 -0.04592,0.0857 -0.08344,0.71537 -0.08344,1.39919 0,0.99797 0.02488,1.25279 0.126404,1.29174 0.157447,0.0603 0.905595,-0.36921 1.022127,-0.58694 0.04739,-0.0885 0.0862,-0.57804 0.0862,-1.08767 0,-0.95796 0.0901,-1.20675 0.322052,-0.88956 0.07719,0.10547 0.118894,0.4201 0.118894,0.89644 v 0.73386 l 0.360543,-0.0576 c 0.341277,-0.0546 0.358954,-0.0466 0.330725,0.14961 -0.02299,0.16068 -0.280994,0.35508 -1.148549,0.86561 -1.145685,0.67416 -1.30229,0.84178 -1.171412,1.25421 0.05178,0.16311 0.145382,0.16933 2.186334,0.14688 l 2.132238,-0.0243 z m 2.160723,-4.26226 c 1.798336,-0.58895 3.232202,-1.974 3.804655,-3.6751 0.213148,-0.63339 0.221914,-2.36663 0.01569,-3.09953 -0.356769,-1.26779 -1.453375,-2.62144 -2.672695,-3.2992 -2.477562,-1.37709 -5.596645,-0.9588 -7.541693,1.01144 -1.633552,1.65471 -2.027872,4.11443 -0.994473,6.2034 0.44418,0.89788 1.576714,2.0172 2.500652,2.47147 1.097382,0.53953 1.794387,0.68664 3.079941,0.64999 0.892823,-0.0243 1.236549,-0.0756 1.807951,-0.26241 z m -2.425303,-0.51429 c -0.478805,-0.10703 -0.703657,-0.2876 -0.549872,-0.44139 0.07642,-0.0766 0.231706,-0.0808 0.585546,-0.0162 0.356597,0.0647 0.599579,0.0571 0.936494,-0.0291 0.48231,-0.12329 0.615302,-0.0987 0.615302,0.11422 0,0.28859 -0.958357,0.51378 -1.58747,0.37302 z m -1.706091,-2.08738 c -0.189693,-0.20965 -0.184796,-0.3936 0.01543,-0.57471 0.232894,-0.21073 0.518062,-0.17963 0.684657,0.0743 0.133834,0.20423 0.133834,0.23669 0,0.44096 -0.171756,0.26213 -0.491832,0.2892 -0.699982,0.0593 z m 3.421615,-0.14148 c -0.271481,-0.41435 0.198702,-0.82027 0.625904,-0.54036 0.247452,0.16205 0.279238,0.41467 0.07757,0.61634 -0.207737,0.20776 -0.541169,0.17179 -0.703478,-0.0761 z"
       id="path4006-5"
       inkscape:connector-curvature="0" />
  </g>
  <path
     d="m 1.50048,376.40823 v -9.54424 h 1.874995 l 3.90624,6.37368 v -6.37368 h 1.79036 v 9.54424 H 7.138486 L 3.29084,370.18429 v 6.22394 z m 13.600225,-2.20051 1.822912,0.30599 q -0.351561,1.0026 -1.113278,1.52994 -0.755207,0.52083 -1.894527,0.52083 -1.803381,0 -2.669264,-1.17838 -0.683592,-0.94401 -0.683592,-2.38281 0,-1.71874 0.898435,-2.68879 0.898436,-0.97656 2.27213,-0.97656 1.542965,0 2.43489,1.02213 0.891925,1.01562 0.852862,3.11848 h -4.583322 q 0.01953,0.8138 0.442708,1.26953 0.423176,0.44922 1.054684,0.44922 0.429687,0 0.722655,-0.23438 0.292968,-0.23437 0.442707,-0.7552 z m 0.104166,-1.84896 q -0.01953,-0.79426 -0.410155,-1.20442 -0.390624,-0.41667 -0.950518,-0.41667 -0.598957,0 -0.989581,0.4362 -0.390624,0.4362 -0.384114,1.18489 z m 9.648414,4.04947 H 23.15407 v -1.01562 q -0.423176,0.59245 -1.002601,0.88542 -0.572915,0.28645 -1.158851,0.28645 -1.191404,0 -2.044266,-0.95703 -0.846352,-0.96354 -0.846352,-2.68228 0,-1.75781 0.826821,-2.66926 0.826821,-0.91797 2.089838,-0.91797 1.158851,0 2.005203,0.96354 v -3.43749 h 1.829423 z m -4.8828,-3.60676 q 0,1.10677 0.305989,1.60156 0.442707,0.71614 1.236976,0.71614 0.631508,0 1.074216,-0.53385 0.442707,-0.54036 0.442707,-1.60807 0,-1.1914 -0.429687,-1.71223 -0.429686,-0.52735 -1.100257,-0.52735 -0.65104,0 -1.093747,0.52084 -0.436197,0.51432 -0.436197,1.54296 z m 6.705712,3.60676 v -9.54424 h 4.055979 q 1.529944,0 2.220046,0.26041 0.696613,0.25391 1.113279,0.91146 0.416665,0.65755 0.416665,1.5039 0,1.07422 -0.631508,1.77734 -0.631509,0.69661 -1.888016,0.8789 0.624998,0.36459 1.028643,0.80078 0.410155,0.4362 1.100257,1.54948 l 1.165362,1.86197 h -2.304682 l -1.393225,-2.07681 q -0.742186,-1.11328 -1.015623,-1.39974 -0.273437,-0.29297 -0.579425,-0.39713 -0.305989,-0.11068 -0.97005,-0.11068 h -0.390624 v 3.98436 z m 1.927078,-5.5078 h 1.425778 q 1.386715,0 1.731766,-0.11718 0.345051,-0.11719 0.540363,-0.40365 0.195312,-0.28645 0.195312,-0.71614 0,-0.48177 -0.260416,-0.77474 -0.253905,-0.29948 -0.722654,-0.3776 -0.234374,-0.0326 -1.406247,-0.0326 h -1.503902 z m 12.233042,5.5078 v -1.03515 q -0.377604,0.55338 -0.996092,0.87239 -0.611977,0.31901 -1.295569,0.31901 -0.696613,0 -1.249997,-0.30599 -0.553384,-0.30598 -0.800779,-0.85937 -0.247396,-0.55338 -0.247396,-1.52994 v -4.37499 h 1.829423 v 3.17707 q 0,1.45833 0.09766,1.79036 0.104166,0.32552 0.371093,0.52084 0.266926,0.1888 0.677081,0.1888 0.468749,0 0.839842,-0.25391 0.371093,-0.26041 0.507811,-0.63802 0.136719,-0.38411 0.136719,-1.86848 v -2.91666 h 1.829422 v 6.91404 z m 2.949209,-1.97265 1.835932,-0.27995 q 0.117188,0.53386 0.47526,0.81381 0.358072,0.27343 1.002601,0.27343 0.709634,0 1.067706,-0.26041 0.240885,-0.1823 0.240885,-0.48828 0,-0.20834 -0.130208,-0.34506 -0.136719,-0.1302 -0.611978,-0.24088 -2.213536,-0.48828 -2.805982,-0.89193 -0.820311,-0.55989 -0.820311,-1.55598 0,-0.89844 0.709634,-1.51041 0.709633,-0.61198 2.200515,-0.61198 1.419267,0 2.10937,0.46224 0.690102,0.46224 0.950518,1.36718 l -1.725256,0.31901 q -0.110677,-0.40364 -0.423176,-0.61849 -0.305989,-0.21484 -0.878904,-0.21484 -0.722654,0 -1.035154,0.20182 -0.208332,0.14323 -0.208332,0.37109 0,0.19532 0.182291,0.33204 0.247395,0.18229 1.705725,0.51432 1.46484,0.33203 2.044265,0.8138 0.572916,0.48828 0.572916,1.36067 0,0.95052 -0.794269,1.63411 -0.794269,0.68359 -2.350255,0.68359 -1.412757,0 -2.239577,-0.57291 -0.820311,-0.57292 -1.074216,-1.55599 z m 9.882784,-7.57159 v 3.5091 q 0.88542,-1.03515 2.11589,-1.03515 0.6315,0 1.13932,0.23437 0.50781,0.23438 0.76171,0.59896 0.26042,0.36458 0.35156,0.80729 0.0977,0.44271 0.0977,1.37369 v 4.05598 h -1.82942 v -3.65233 q 0,-1.08724 -0.10417,-1.38021 -0.10416,-0.29296 -0.37109,-0.46223 -0.26041,-0.17579 -0.65755,-0.17579 -0.45573,0 -0.8138,0.22136 -0.35807,0.22135 -0.52734,0.67057 -0.16276,0.44271 -0.16276,1.3151 v 3.46353 h -1.829423 v -9.54424 z"
     id="text1-5"
     style="font-weight:bold;font-size:13.3333px;font-family:Arial;-inkscape-font-specification:'Arial Bold';text-align:center;text-anchor:middle;fill:#ff7e79;stroke-width:1.002"
     aria-label="NedRush" />
</svg>
